<?xml version="1.0" encoding="utf-8"?>
<!-- Generator: Adobe Illustrator 21.0.1, SVG Export Plug-In . SVG Version: 6.00 Build 0)  -->
<svg version="1.1" id="Livello_1" xmlns="http://www.w3.org/2000/svg" xmlns:xlink="http://www.w3.org/1999/xlink" x="0px" y="0px"
	 viewBox="0 0 120 60" style="enable-background:new 0 0 120 60;" xml:space="preserve">
<style type="text/css">
	.st0{fill:#3D4352;}
	.st1{filter:url(#Adobe_OpacityMaskFilter);}
	.st2{fill:#FFFFFF;}
	.st3{mask:url(#mask-2);fill:#3D4352;}
	.st4{filter:url(#Adobe_OpacityMaskFilter_1_);}
	.st5{mask:url(#mask-4);fill:#3D4352;}
	.st6{filter:url(#Adobe_OpacityMaskFilter_2_);}
	.st7{mask:url(#mask-6);fill:#3D4352;}
	.st8{filter:url(#Adobe_OpacityMaskFilter_3_);}
	.st9{mask:url(#mask-8);fill:#3D4352;}
</style>
<title>logo_veratour</title>
<desc>Created with Sketch.</desc>
<g id="Explorations-2">
	<g id="Home-variante" transform="translate(-290.000000, -897.000000)">
		<g id="Group-6" transform="translate(81.000000, 886.000000)">
			<g id="veratour" transform="translate(209.000000, 11.000000)">
				<g id="Page-1">
					<path id="Fill-1" class="st0" d="M59.7,23.8c2.3,0,4.1-1.8,4.1-4.1c0-2.3-1.8-4.1-4.1-4.1c-2.3,0-4.1,1.8-4.1,4.1
						C55.6,21.9,57.4,23.8,59.7,23.8"/>
					<g id="Group-5" transform="translate(0.000000, 17.107176)">
						<g id="Clip-4">
						</g>
						<defs>
							<filter id="Adobe_OpacityMaskFilter" filterUnits="userSpaceOnUse" x="0.5" y="10.3" width="22.5" height="21.5">
								<feColorMatrix  type="matrix" values="1 0 0 0 0  0 1 0 0 0  0 0 1 0 0  0 0 0 1 0"/>
							</filter>
						</defs>
						<mask maskUnits="userSpaceOnUse" x="0.5" y="10.3" width="22.5" height="21.5" id="mask-2">
							<g class="st1">
								<polygon id="path-1" class="st2" points="0.5,10.3 0.5,31.8 23,31.8 23,10.3 								"/>
							</g>
						</mask>
						<polygon id="Fill-3" class="st3" points="9.7,23.4 16.9,10.3 23,10.3 10.4,31.8 6.1,31.8 0.5,10.3 6.5,10.3 						"/>
					</g>
					<g id="Group-8" transform="translate(16.089286, 23.519389)">
						<g id="Clip-7">
						</g>
						<defs>
							<filter id="Adobe_OpacityMaskFilter_1_" filterUnits="userSpaceOnUse" x="0.5" y="10.3" width="16.3" height="15.6">
								<feColorMatrix  type="matrix" values="1 0 0 0 0  0 1 0 0 0  0 0 1 0 0  0 0 0 1 0"/>
							</filter>
						</defs>
						<mask maskUnits="userSpaceOnUse" x="0.5" y="10.3" width="16.3" height="15.6" id="mask-4">
							<g class="st4">
								<polygon id="path-3" class="st2" points="0.5,25.9 16.8,25.9 16.8,10.3 0.5,10.3 								"/>
							</g>
						</mask>
						<path id="Fill-6" class="st5" d="M16.6,18.9H5.7c-0.3,2.1,0.6,3.3,2.7,3.3c1.1,0,2-0.4,2.7-1.3h5c-1.4,3.5-4.9,5-8.2,5
							c-4.8,0-8-2.7-7.2-7.8c0.8-4.9,4.6-7.8,9.3-7.8c5.1,0,7.5,3.1,6.7,8.1L16.6,18.9z M12.2,15.9c0-1.4-1.2-2.3-2.6-2.3
							c-1.5,0-2.9,0.8-3.4,2.3H12.2z"/>
					</g>
					<path id="Fill-9" class="st0" d="M39.6,36.7L39.6,36.7c1.3-1.8,3.2-2.6,5.2-2.6h1l-0.8,5c-0.6-0.4-1.3-0.5-2.1-0.5
						c-2.9,0-3.9,1.9-4.3,4.4l-0.9,5.9h-5.2l2.3-14.6H40L39.6,36.7z"/>
					<g id="Group-13" transform="translate(44.017857, 23.519389)">
						<g id="Clip-12">
						</g>
						<defs>
							<filter id="Adobe_OpacityMaskFilter_2_" filterUnits="userSpaceOnUse" x="0.8" y="10.3" width="18.2" height="15.6">
								<feColorMatrix  type="matrix" values="1 0 0 0 0  0 1 0 0 0  0 0 1 0 0  0 0 0 1 0"/>
							</filter>
						</defs>
						<mask maskUnits="userSpaceOnUse" x="0.8" y="10.3" width="18.2" height="15.6" id="mask-6">
							<g class="st6">
								<polygon id="path-5" class="st2" points="0.8,25.9 19,25.9 19,10.3 0.8,10.3 								"/>
							</g>
						</mask>
						<path id="Fill-11" class="st7" d="M16.7,25.4h-5.2l0.3-1.6h-0.1c-1.1,1.5-3,2.1-4.7,2.1c-4.3,0-6.8-3.6-6.1-7.8
							c0.7-4.2,4.2-7.8,8.5-7.8c1.7,0,3.3,0.6,4.2,1.9l0.2-1.4H19L16.7,25.4z M6.2,18.1c-0.3,1.9,0.7,3.3,2.8,3.3
							c2.1,0,3.5-1.4,3.8-3.3c0.3-1.8-0.7-3.3-2.8-3.3C8,14.8,6.5,16.3,6.2,18.1L6.2,18.1z"/>
					</g>
					<polygon id="Fill-14" class="st0" points="68.2,48.9 63.1,48.9 64.7,38.5 63.4,38.5 63.7,34.3 65.4,34.3 66.1,29.9 71.2,29.9 
						70.5,34.3 73.5,34.3 72.8,38.5 69.9,38.5 					"/>
					<path id="Fill-16" class="st0" d="M89.6,41.6c-0.8,5-5.3,7.8-10,7.8c-4.7,0-8.3-2.8-7.5-7.8c0.8-5,5.3-7.8,10-7.8
						C86.7,33.8,90.4,36.6,89.6,41.6 M77.5,41.6c-0.3,1.9,0.7,3.3,2.8,3.3c2.1,0,3.5-1.4,3.8-3.3c0.3-1.8-0.7-3.3-2.8-3.3
						C79.2,38.3,77.8,39.8,77.5,41.6"/>
					<path id="Fill-18" class="st0" d="M96.7,34.3l-1.2,7.8c-0.3,1.9,0,3.2,2.1,3.2c2.1,0,2.8-1.3,3.1-3.2l1.2-7.8h5.2l-1.4,8.8
						c-0.8,4.8-4.4,6.3-8.7,6.3s-7.5-1.5-6.8-6.3l1.4-8.8H96.7z"/>
					<path id="Fill-20" class="st0" d="M113.3,36.7L113.3,36.7c1.3-1.8,3.2-2.6,5.2-2.6h1l-0.8,5c-0.6-0.4-1.3-0.5-2.1-0.5
						c-2.9,0-3.9,1.9-4.3,4.4l-0.9,5.9h-5.2l2.3-14.6h5.2L113.3,36.7z"/>
					<path id="Fill-22" class="st0" d="M53.5,22.5c0,0,3.3,8.3,10.7,5.9c0,0,2.3-0.4,6.2-4.2c0,0,3-2.8,5.4-2c0,0-4.3-2.6-9.9,0.8
						C65.9,23,59.8,27.7,53.5,22.5"/>
					<g id="Group-26" transform="translate(43.410714, 0.007939)">
						<g id="Clip-25">
						</g>
						<defs>
							<filter id="Adobe_OpacityMaskFilter_3_" filterUnits="userSpaceOnUse" x="0.7" y="10.3" width="22.4" height="7.5">
								<feColorMatrix  type="matrix" values="1 0 0 0 0  0 1 0 0 0  0 0 1 0 0  0 0 0 1 0"/>
							</filter>
						</defs>
						<mask maskUnits="userSpaceOnUse" x="0.7" y="10.3" width="22.4" height="7.5" id="mask-8">
							<g class="st8">
								<polygon id="path-7" class="st2" points="0.7,10.3 23,10.3 23,17.8 0.7,17.8 								"/>
							</g>
						</mask>
						<path id="Fill-24" class="st9" d="M23,16.6c0,0-3.3-8.3-10.7-5.8c0,0-2.3,0.4-6.2,4.2c0,0-3,2.8-5.4,2c0,0,4.3,2.6,9.9-0.8
							C10.6,16.1,16.7,11.4,23,16.6"/>
					</g>
				</g>
			</g>
		</g>
	</g>
</g>
</svg>
