<?xml version="1.0" encoding="utf-8"?>
<!-- Generator: Adobe Illustrator 21.0.1, SVG Export Plug-In . SVG Version: 6.00 Build 0)  -->
<svg version="1.1" id="Livello_1" xmlns="http://www.w3.org/2000/svg" xmlns:xlink="http://www.w3.org/1999/xlink" x="0px" y="0px"
	 viewBox="0 0 120 60" style="enable-background:new 0 0 120 60;" xml:space="preserve">
<style type="text/css">
	.st0{filter:url(#Adobe_OpacityMaskFilter);}
	.st1{fill:#FFFFFF;}
	.st2{mask:url(#mask-2);fill:#3D4352;}
	.st3{filter:url(#Adobe_OpacityMaskFilter_1_);}
	.st4{mask:url(#mask-4);fill:#3D4352;}
	.st5{filter:url(#Adobe_OpacityMaskFilter_2_);}
	.st6{mask:url(#mask-6);fill:#3D4352;}
	.st7{filter:url(#Adobe_OpacityMaskFilter_3_);}
	.st8{mask:url(#mask-8);fill:#3D4352;}
	.st9{filter:url(#Adobe_OpacityMaskFilter_4_);}
	.st10{mask:url(#mask-10);fill:#3D4352;}
	.st11{fill:#3D4352;}
</style>
<title>logo_gestpay</title>
<desc>Created with Sketch.</desc>
<g id="Explorations-2">
	<g id="Home-variante" transform="translate(-1196.000000, -913.000000)">
		<g id="Group-6_1_" transform="translate(81.000000, 886.000000)">
			<g id="Mixins-_x2F_-Graphics-_x2F_-Gestpay-logo-_x2F_-blue" transform="translate(1115.000000, 27.000000)">
				<g id="Page-1">
					<g id="Group-3" transform="translate(0.000000, 0.148010)">
						<g id="Clip-2">
						</g>
						<defs>
							<filter id="Adobe_OpacityMaskFilter" filterUnits="userSpaceOnUse" x="0.5" y="25.1" width="15.5" height="11.4">
								<feColorMatrix  type="matrix" values="1 0 0 0 0  0 1 0 0 0  0 0 1 0 0  0 0 0 1 0"/>
							</filter>
						</defs>
						<mask maskUnits="userSpaceOnUse" x="0.5" y="25.1" width="15.5" height="11.4" id="mask-2">
							<g class="st0">
								<polygon id="path-1" class="st1" points="16,25.1 0.5,25.1 0.5,36.6 16,36.6 								"/>
							</g>
						</mask>
						<path id="Fill-1" class="st2" d="M2.3,25.1H16v2.5H4.2c-0.2,0-0.4,0.1-0.5,0.3c-0.1,0.2-0.1,0.5-0.1,0.8V33
							c0,0.3,0.1,0.6,0.2,0.8C3.9,34,4,34,4.2,34h8.1c0.2,0,0.3-0.1,0.5-0.3c0.1-0.2,0.2-0.5,0.2-0.8v-0.2c0-0.3-0.1-0.5-0.2-0.6
							c-0.1-0.1-0.3-0.2-0.5-0.2h-6v-2.5h8c0.5,0,0.9,0.2,1.2,0.7c0.3,0.5,0.5,1.1,0.5,1.8v2c0,0.4,0,0.8-0.1,1.1
							c-0.1,0.3-0.2,0.6-0.4,0.8c-0.2,0.2-0.4,0.4-0.6,0.5c-0.2,0.1-0.4,0.2-0.7,0.2h-12c-0.2,0-0.5-0.1-0.7-0.2
							c-0.2-0.1-0.4-0.3-0.6-0.5c-0.2-0.2-0.3-0.5-0.4-0.8c-0.1-0.3-0.1-0.7-0.1-1.1v-6.4c0-0.4,0-0.7,0.1-1.1
							C0.7,26.2,0.9,26,1,25.8c0.2-0.2,0.3-0.4,0.6-0.5C1.8,25.2,2,25.1,2.3,25.1"/>
					</g>
					<g id="Group-6" transform="translate(23.423059, 0.148010)">
						<g id="Clip-5">
						</g>
						<defs>
							<filter id="Adobe_OpacityMaskFilter_1_" filterUnits="userSpaceOnUse" x="-5.7" y="25.1" width="15.5" height="11.4">
								<feColorMatrix  type="matrix" values="1 0 0 0 0  0 1 0 0 0  0 0 1 0 0  0 0 0 1 0"/>
							</filter>
						</defs>
						<mask maskUnits="userSpaceOnUse" x="-5.7" y="25.1" width="15.5" height="11.4" id="mask-4">
							<g class="st3">
								<polygon id="path-3" class="st1" points="9.9,25.1 -5.7,25.1 -5.7,36.6 9.9,36.6 								"/>
							</g>
						</mask>
						<polygon id="Fill-4" class="st4" points="-2.6,34 9.9,34 9.9,36.6 -5.7,36.6 -5.7,25.1 9.9,25.1 9.9,27.6 -2.6,27.6 
							-2.6,29.6 9.9,29.6 9.9,32.1 -2.6,32.1 						"/>
					</g>
					<g id="Group-9" transform="translate(47.073526, 0.148010)">
						<g id="Clip-8">
						</g>
						<defs>
							<filter id="Adobe_OpacityMaskFilter_2_" filterUnits="userSpaceOnUse" x="-12" y="25.1" width="15.5" height="11.4">
								<feColorMatrix  type="matrix" values="1 0 0 0 0  0 1 0 0 0  0 0 1 0 0  0 0 0 1 0"/>
							</filter>
						</defs>
						<mask maskUnits="userSpaceOnUse" x="-12" y="25.1" width="15.5" height="11.4" id="mask-6">
							<g class="st5">
								<polygon id="path-5" class="st1" points="3.5,25.1 -12,25.1 -12,36.6 3.5,36.6 								"/>
							</g>
						</mask>
						<path id="Fill-7" class="st6" d="M-12,34h11.8c0.2,0,0.3-0.1,0.5-0.2c0.1-0.1,0.2-0.4,0.2-0.7v-0.2c0-0.3-0.1-0.6-0.2-0.7
							c-0.1-0.1-0.3-0.2-0.5-0.2h-10c-0.5,0-0.9-0.2-1.2-0.6c-0.3-0.4-0.5-1.1-0.5-1.9v-2c0-0.8,0.2-1.4,0.5-1.9
							c0.3-0.4,0.8-0.6,1.2-0.6H3.5v2.5H-8.3c-0.2,0-0.4,0.1-0.5,0.2c-0.1,0.1-0.2,0.3-0.2,0.7v0.2c0,0.3,0.1,0.5,0.2,0.7
							c0.1,0.1,0.3,0.2,0.5,0.2h10c0.5,0,0.9,0.2,1.2,0.7c0.3,0.5,0.5,1.1,0.5,1.8v2c0,0.8-0.2,1.4-0.5,1.9
							c-0.3,0.4-0.8,0.6-1.2,0.6H-12V34z"/>
					</g>
					<g id="Group-12" transform="translate(70.723993, 0.148010)">
						<g id="Clip-11">
						</g>
						<defs>
							<filter id="Adobe_OpacityMaskFilter_3_" filterUnits="userSpaceOnUse" x="-18.4" y="25.1" width="15.5" height="11.4">
								<feColorMatrix  type="matrix" values="1 0 0 0 0  0 1 0 0 0  0 0 1 0 0  0 0 0 1 0"/>
							</filter>
						</defs>
						<mask maskUnits="userSpaceOnUse" x="-18.4" y="25.1" width="15.5" height="11.4" id="mask-8">
							<g class="st7">
								<polygon id="path-7" class="st1" points="-2.9,25.1 -18.4,25.1 -18.4,36.6 -2.9,36.6 								"/>
							</g>
						</mask>
						<polygon id="Fill-10" class="st8" points="-18.4,27.6 -18.4,25.1 -2.9,25.1 -2.9,27.6 -9.1,27.6 -9.1,36.6 -12.2,36.6 
							-12.2,27.6 						"/>
					</g>
					<g id="Group-15" transform="translate(93.919644, 0.148010)">
						<g id="Clip-14">
						</g>
						<defs>
							<filter id="Adobe_OpacityMaskFilter_4_" filterUnits="userSpaceOnUse" x="-24.8" y="25.1" width="15.5" height="11.4">
								<feColorMatrix  type="matrix" values="1 0 0 0 0  0 1 0 0 0  0 0 1 0 0  0 0 0 1 0"/>
							</filter>
						</defs>
						<mask maskUnits="userSpaceOnUse" x="-24.8" y="25.1" width="15.5" height="11.4" id="mask-10">
							<g class="st9">
								<polygon id="path-9" class="st1" points="-9.3,25.1 -24.8,25.1 -24.8,36.6 -9.3,36.6 								"/>
							</g>
						</mask>
						<path id="Fill-13" class="st10" d="M-21.7,27.6v2h8.7c0.2,0,0.3-0.1,0.5-0.2c0.1-0.1,0.2-0.3,0.2-0.6v-0.3
							c0-0.3-0.1-0.6-0.2-0.7c-0.1-0.1-0.3-0.2-0.5-0.2H-21.7z M-11.1,25.1c0.2,0,0.4,0.1,0.7,0.2c0.2,0.1,0.4,0.3,0.6,0.5
							c0.2,0.2,0.3,0.5,0.4,0.8c0.1,0.3,0.1,0.7,0.1,1v2c0,0.4,0,0.8-0.1,1.1c-0.1,0.3-0.2,0.6-0.4,0.8c-0.2,0.2-0.4,0.4-0.6,0.5
							c-0.2,0.1-0.4,0.2-0.7,0.2h-10.7v4.5h-3.1V25.1H-11.1z"/>
					</g>
					<path id="Fill-16" class="st11" d="M89.5,28.8v0.9h9.3v-0.9c0-0.3-0.1-0.6-0.2-0.8c-0.1-0.2-0.3-0.3-0.5-0.3h-8.1
						c-0.2,0-0.4,0.1-0.5,0.3C89.5,28.2,89.5,28.5,89.5,28.8L89.5,28.8z M101.9,36.7h-3.1v-4.5h-9.3v4.5h-3.1v-8.9
						c0-0.4,0-0.7,0.1-1.1c0.1-0.3,0.2-0.6,0.4-0.8c0.2-0.2,0.3-0.4,0.6-0.5c0.2-0.1,0.4-0.2,0.7-0.2h12c0.2,0,0.4,0.1,0.7,0.2
						c0.2,0.1,0.4,0.3,0.6,0.5c0.2,0.2,0.3,0.5,0.4,0.8c0.1,0.3,0.1,0.7,0.1,1V36.7z"/>
					<path id="Fill-18" class="st11" d="M112.9,36.7h-3.1v-4.5h-4.4c-0.2,0-0.5-0.1-0.7-0.2c-0.2-0.1-0.4-0.3-0.6-0.5
						c-0.2-0.2-0.3-0.5-0.4-0.8c-0.1-0.3-0.1-0.7-0.1-1.1v-4.4h3.1v3.4c0,0.3,0.1,0.6,0.2,0.8c0.1,0.2,0.3,0.3,0.4,0.3h8.1
						c0.2,0,0.3-0.1,0.5-0.3c0.1-0.2,0.2-0.5,0.2-0.8v-3.4h3.1v4.4c0,0.4,0,0.8-0.1,1.1c-0.1,0.3-0.2,0.6-0.4,0.8
						c-0.2,0.2-0.4,0.4-0.6,0.5c-0.2,0.1-0.4,0.2-0.7,0.2h-4.5V36.7z"/>
				</g>
			</g>
		</g>
	</g>
</g>
</svg>
