<?xml version="1.0" encoding="utf-8"?>
<!-- Generator: Adobe Illustrator 21.0.1, SVG Export Plug-In . SVG Version: 6.00 Build 0)  -->
<svg version="1.1" id="Livello_1" xmlns="http://www.w3.org/2000/svg" xmlns:xlink="http://www.w3.org/1999/xlink" x="0px" y="0px"
	 viewBox="0 0 120 60" style="enable-background:new 0 0 120 60;" xml:space="preserve">
<style type="text/css">
	.st0{fill:#3D4352;}
</style>
<title>logo_hype</title>
<desc>Created with Sketch.</desc>
<g id="Explorations-2">
	<g id="Home-variante" transform="translate(-81.000000, -898.000000)">
		<g id="Group-6" transform="translate(81.000000, 886.000000)">
			<g id="hype" transform="translate(0.000000, 12.000000)">
				<path id="logo_hype" class="st0" d="M66.1,25.8v4.6h2.6c1.7,0,2.7-0.9,2.7-2.3v0c0-1.5-1.1-2.3-2.7-2.3H66.1z M68.6,32.3h-2.5
					v4.1h-2.2V23.8h5c3,0,4.8,1.7,4.8,4.2C73.7,30.9,71.4,32.3,68.6,32.3z M77.8,36.4V23.8h9.4v2H80V29h6.4v2H80v3.4h5.4
					c2-2.6,3.1-5.2,3.1-7.9C88.5,10.3,65.2,3.1,50,9.1c-7.1,2.9-12.5,8.2-15.6,14.6h1.3V29h6.1v-5.3H44v12.7h-2.2v-5.3h-6.1v5.3
					h-2.2V26c-2.6,6.7-2.7,14.4,0.2,21.5c4.9,12.2,37.6,2.2,50-11.1H77.8z M55,31.4v5h-2.2v-5l-5-7.7h2.6l3.5,5.6l3.6-5.6h2.6
					L55,31.4z"/>
			</g>
		</g>
	</g>
</g>
</svg>
