<?xml version="1.0" encoding="UTF-8"?>
<svg width="203px" height="191px" viewBox="0 0 203 191" version="1.1" xmlns="http://www.w3.org/2000/svg" xmlns:xlink="http://www.w3.org/1999/xlink">
    <!-- Generator: Sketch 46.1 (44463) - http://www.bohemiancoding.com/sketch -->
    <title>Group 6</title>
    <desc>Created with Sketch.</desc>
    <defs></defs>
    <g id="Website" stroke="none" stroke-width="1" fill="none" fill-rule="evenodd">
        <g id="Spedizioni" transform="translate(-1197.000000, -2227.000000)">
            <g id="Group-6" transform="translate(1189.000000, 2221.000000)">
                <path d="M172.231693,185.996905 L183.865472,176.098341 L183.865472,176.098341 C185.547998,174.666769 188.072474,174.870207 189.504047,176.552734 C189.923648,177.04589 190.217256,177.63354 190.359647,178.2652 L193.410706,191.79993 L193.410706,191.79993 C193.89651,193.954991 192.543309,196.095835 190.388247,196.581639 C189.78141,196.718435 189.151031,196.711812 188.547203,196.562295 L173.862365,192.926129 L173.862365,192.926129 C171.717987,192.395152 170.410067,190.226348 170.941044,188.081969 C171.142355,187.268965 171.593792,186.539662 172.231693,185.996905 Z" id="Path-2-Copy-5" fill="#FFD645" transform="translate(182.166168, 185.912150) rotate(-37.000000) translate(-182.166168, -185.912150) "></path>
                <path d="M175.464764,33.5415071 L202.143379,10.8420912 L202.143379,10.8420912 C204.667169,8.69473257 208.453883,8.99989031 210.601241,11.5236801 C211.230643,12.2634155 211.671055,13.1448902 211.884642,14.0923792 L218.881339,45.1302619 L218.881339,45.1302619 C219.610045,48.3628541 217.580243,51.5741203 214.347651,52.3028256 C213.437396,52.5080194 212.491827,52.4980845 211.586084,52.2738101 L177.910772,43.9353433 L177.910772,43.9353433 C174.694204,43.1388773 172.732325,39.8856709 173.528791,36.6691035 C173.830757,35.4495963 174.507912,34.3556419 175.464764,33.5415071 Z" id="Path-2-Copy-4" fill="#77EB9F" transform="translate(196.190504, 30.930699) rotate(-37.000000) translate(-196.190504, -30.930699) "></path>
                <path d="M15.013287,79.8936414 L64.2908943,37.9659433 L64.2908943,37.9659433 C68.4972107,34.3870123 74.8084006,34.8956085 78.3873317,39.1019248 C79.4363343,40.3348172 80.1703537,41.8039416 80.5263323,43.3830899 L93.4498113,100.712626 L93.4498113,100.712626 C94.6643202,106.100279 91.2813178,111.45239 85.8936641,112.666899 C84.3765716,113.008888 82.8006245,112.99233 81.2910526,112.618539 L19.0899662,97.2167017 L19.0899662,97.2167017 C13.7290205,95.8892584 10.4592207,90.4672478 11.786664,85.1063021 C12.2899418,83.0737901 13.4185332,81.2505327 15.013287,79.8936414 Z" id="Path-2-Copy" fill="#3454F6" transform="translate(52.593969, 74.246821) rotate(382.000000) translate(-52.593969, -74.246821) "></path>
            </g>
        </g>
    </g>
</svg>