<?xml version="1.0" encoding="UTF-8"?>
<svg width="61px" height="61px" viewBox="0 0 61 61" version="1.1" xmlns="http://www.w3.org/2000/svg" xmlns:xlink="http://www.w3.org/1999/xlink">
    <!-- Generator: Sketch 46.2 (44496) - http://www.bohemiancoding.com/sketch -->
    <title>Group</title>
    <desc>Created with Sketch.</desc>
    <defs>
        <circle id="path-1" cx="30.5" cy="30.5" r="30.5"></circle>
    </defs>
    <g id="Symbols" stroke="none" stroke-width="1" fill="none" fill-rule="evenodd">
        <g id="Sections-/-Footer" transform="translate(-1150.000000, -849.000000)">
            <g id="Group" transform="translate(1150.000000, 849.000000)">
                <g id="Oval-2-Copy">
                    <use fill="#FFFFFF" fill-rule="evenodd" xlink:href="#path-1"></use>
                    <circle stroke="#C7C6CD" stroke-width="1" cx="30.5" cy="30.5" r="30"></circle>
                </g>
                <g id="logo-fb-simple-glyph-32" transform="translate(23.000000, 18.000000)" fill-rule="nonzero" fill="#C7C6CD">
                    <path d="M3.569744,24 L3.569744,13.6 L0,13.6 L0,8.8 L3.569744,8.8 L3.569744,5.447984 C3.569744,1.796616 5.881328,0 9.1386,0 C10.698864,0 12.03984,0.11616 12.430632,0.168088 L12.430632,3.983984 L10.171536,3.985008 C8.400056,3.985016 8,4.8268 8,6.062056 L8,8.8 L12.8,8.8 L11.2,13.6 L8,13.6 L8,24 L3.569744,24 Z" id="Shape"></path>
                </g>
            </g>
        </g>
    </g>
</svg>