<?xml version="1.0" encoding="UTF-8"?>
<svg width="61px" height="61px" viewBox="0 0 61 61" version="1.1" xmlns="http://www.w3.org/2000/svg" xmlns:xlink="http://www.w3.org/1999/xlink">
    <!-- Generator: Sketch 46.2 (44496) - http://www.bohemiancoding.com/sketch -->
    <title>Group 2</title>
    <desc>Created with Sketch.</desc>
    <defs>
        <circle id="path-1" cx="30.5" cy="30.5" r="30.5"></circle>
    </defs>
    <g id="Symbols" stroke="none" stroke-width="1" fill="none" fill-rule="evenodd">
        <g id="Sections-/-Footer" transform="translate(-1227.000000, -849.000000)">
            <g id="Group-2" transform="translate(1227.000000, 849.000000)">
                <g id="Oval-2">
                    <use fill="#FFFFFF" fill-rule="evenodd" xlink:href="#path-1"></use>
                    <circle stroke="#C7C6CD" stroke-width="1" cx="30.5" cy="30.5" r="30"></circle>
                </g>
                <g id="logo-twitter-glyph-32" transform="translate(18.000000, 21.000000)" fill-rule="nonzero" fill="#C7C6CD">
                    <path d="M25.3846154,2.38461538 C24.4615385,2.76923077 23.5384615,3.07692308 22.4615385,3.15384615 C23.5384615,2.53846154 24.3076923,1.53846154 24.6923077,0.384615385 C23.6923077,1 22.6153846,1.38461538 21.4615385,1.61538462 C20.5384615,0.615384615 19.2307692,0 17.8461538,0 C15.0769231,0 12.7692308,2.23076923 12.7692308,5.07692308 C12.7692308,5.46153846 12.8461538,5.84615385 12.9230769,6.23076923 C8.69230769,6 5,4 2.46153846,0.923076923 C2,1.69230769 1.76923077,2.53846154 1.76923077,3.46153846 C1.76923077,5.23076923 2.69230769,6.76923077 4,7.69230769 C3.15384615,7.69230769 2.38461538,7.46153846 1.69230769,7.07692308 C1.69230769,7.07692308 1.69230769,7.15384615 1.69230769,7.15384615 C1.69230769,9.61538462 3.46153846,11.6153846 5.76923077,12.0769231 C5.30769231,12.1538462 4.92307692,12.2307692 4.46153846,12.2307692 C4.15384615,12.2307692 3.84615385,12.2307692 3.53846154,12.1538462 C4.15384615,14.1538462 6.07692308,15.6153846 8.23076923,15.6923077 C6.53846154,17.0769231 4.30769231,17.8461538 1.92307692,17.8461538 C1.53846154,17.8461538 1.07692308,17.8461538 0.692307692,17.7692308 C3,19.1538462 5.69230769,20 8.53846154,20 C17.8461538,20 22.9230769,12.3076923 22.9230769,5.61538462 C22.9230769,5.38461538 22.9230769,5.15384615 22.9230769,5 C23.8461538,4.23076923 24.6923077,3.38461538 25.3846154,2.38461538 Z" id="Shape"></path>
                </g>
            </g>
        </g>
    </g>
</svg>