<?xml version="1.0" encoding="UTF-8"?>
<svg width="90px" height="90px" viewBox="0 0 90 90" version="1.1" xmlns="http://www.w3.org/2000/svg" xmlns:xlink="http://www.w3.org/1999/xlink">
    <!-- Generator: Sketch 46.2 (44496) - http://www.bohemiancoding.com/sketch -->
    <title>Group 4</title>
    <desc>Created with Sketch.</desc>
    <defs></defs>
    <g id="Website" stroke="none" stroke-width="1" fill="none" fill-rule="evenodd">
        <g id="Home-ALT" transform="translate(-1008.000000, -3701.000000)">
            <g id="Group-7" transform="translate(812.000000, 3461.000000)">
                <g id="Group-4" transform="translate(196.000000, 240.000000)">
                    <circle id="Oval-2-Copy" fill="#DADFFD" cx="45" cy="45" r="45"></circle>
                    <polygon id="Shape" fill="#3454F6" fill-rule="nonzero" points="31.13 29 23 33.878 47.025 47.864 55.075 43.037"></polygon>
                    <path d="M56.946,41.8400363 L66.949,35.8420363 L43.452,22.1360363 C43.137,21.9510363 42.746,21.9560363 42.433,22.1430363 L33,27.8030363 L56.946,41.8400363 Z" id="Shape" fill="#3454F6" fill-rule="nonzero"></path>
                    <path d="M48,49.991 L48,67.945 L67.573,54.244 C67.841,54.057 68,53.751 68,53.425 L68,38 L48,49.991 Z" id="Shape" fill="#3454F6" fill-rule="nonzero"></path>
                    <path d="M46,49.971 L22,36 L22,53.396 C22,53.751 22.189,54.081 22.496,54.26 L46,67.971 L46,49.971 Z" id="Shape" fill="#3454F6" fill-rule="nonzero"></path>
                </g>
            </g>
        </g>
    </g>
</svg>