<?xml version="1.0" encoding="UTF-8"?>
<svg width="90px" height="90px" viewBox="0 0 90 90" version="1.1" xmlns="http://www.w3.org/2000/svg" xmlns:xlink="http://www.w3.org/1999/xlink">
    <!-- Generator: Sketch 46.2 (44496) - http://www.bohemiancoding.com/sketch -->
    <title>Group 4</title>
    <desc>Created with Sketch.</desc>
    <defs></defs>
    <g id="Website" stroke="none" stroke-width="1" fill="none" fill-rule="evenodd">
        <g id="Home-2" transform="translate(-112.000000, -2555.000000)">
            <g id="Group-4" transform="translate(112.000000, 2555.000000)">
                <circle id="Oval-Copy" fill="#DADFFD" cx="45" cy="45" r="45"></circle>
                <g id="bag-20" transform="translate(27.000000, 20.000000)" fill-rule="nonzero" fill="#3454F6">
                    <path d="M34,11.9997858 L27,11.9997858 L27,9.31778581 C27,4.52878581 23.395,0.340785814 18.617,0.0207858137 C13.377,-0.331214186 9,3.83378581 9,8.99978581 L9,11.9997858 L2,11.9997858 C0.895,11.9997858 0,12.8947858 0,13.9997858 L0,43.9997858 C0,45.1047858 0.895,45.9997858 2,45.9997858 L34,45.9997858 C35.105,45.9997858 36,45.1047858 36,43.9997858 L36,13.9997858 C36,12.8947858 35.105,11.9997858 34,11.9997858 Z M11,8.99978581 C11,5.13978581 14.14,1.99978581 18,1.99978581 C21.86,1.99978581 25,5.13978581 25,8.99978581 L25,11.9997858 L11,11.9997858 L11,8.99978581 Z" id="Shape"></path>
                </g>
            </g>
        </g>
    </g>
</svg>