<?xml version="1.0" encoding="UTF-8"?>
<svg width="40px" height="40px" viewBox="0 0 40 40" version="1.1" xmlns="http://www.w3.org/2000/svg" xmlns:xlink="http://www.w3.org/1999/xlink">
    <!-- Generator: Sketch 46.2 (44496) - http://www.bohemiancoding.com/sketch -->
    <title>Fill 17</title>
    <desc>Created with Sketch.</desc>
    <defs></defs>
    <g id="Explorations-2" stroke="none" stroke-width="1" fill="none" fill-rule="evenodd" fill-opacity="0.1">
        <g id="Loading" transform="translate(-700.000000, -430.000000)" fill="#ffffff">
            <path d="M719.916949,453.766119 L723.992618,453.766119 L723.992618,449.008018 L723.992618,445.709962 L720.664411,445.709962 C720.53522,445.709962 720.412181,445.700818 720.289142,445.682529 C720.169179,445.700818 720.043064,445.709962 719.916949,445.709962 L715.853584,445.709962 L715.853584,453.766119 L719.916949,453.766119 Z M720,430 C722.479237,430 724.727776,430.996732 726.351892,432.609183 C727.982159,434.221633 728.988004,436.446754 728.988004,438.906579 C728.988004,438.958397 728.984928,439.010215 728.981852,439.062033 C728.984928,439.110803 728.988004,439.162621 728.988004,439.214438 L728.988004,440.762879 L730.5506,440.762879 C730.685943,440.762879 730.81821,440.772023 730.947401,440.79336 L731.011996,440.790312 C733.494309,440.790312 735.739772,441.790092 737.366964,443.399494 C738.994156,445.011945 740,447.240114 740,449.696891 L740,453.830129 C740,457.984704 738.338973,461.956392 735.373731,464.894771 C732.411566,467.830101 728.400492,469.476081 724.211012,469.476081 L720,469.476081 L720,468.116623 L720,466.129255 L720,464.525949 L724.211012,464.525949 C727.077822,464.525949 729.815441,463.401196 731.84251,461.392491 C733.869579,459.383786 735.004614,456.670968 735.004614,453.830129 L735.004614,449.696891 C735.004614,448.605667 734.558597,447.615031 733.835743,446.901773 C733.112888,446.185467 732.113196,445.740443 731.011996,445.740443 C730.876653,445.740443 730.744386,445.731299 730.612119,445.709962 L730.5506,445.709962 L728.988004,445.709962 L728.988004,449.008018 L728.988004,453.830129 L728.984928,453.845369 C728.981852,455.189586 728.431252,456.402734 727.542295,457.283638 C726.650261,458.170638 725.416795,458.71625 724.057213,458.71625 L724.051061,458.71625 L724.044909,458.71625 L719.916949,458.71625 L715.788988,458.71625 C714.42633,458.71625 713.192864,458.170638 712.303906,457.283638 C711.408797,456.399686 710.858197,455.177394 710.858197,453.830129 L710.858197,445.645952 C710.858197,444.298687 711.408797,443.076395 712.303906,442.192443 C713.192864,441.30849 714.42633,440.759831 715.788988,440.759831 L719.916949,440.759831 C720.043064,440.759831 720.169179,440.768975 720.292218,440.787264 C720.412181,440.768975 720.538296,440.762879 720.664411,440.762879 L723.992618,440.762879 L723.992618,439.214438 C723.992618,439.162621 723.992618,439.110803 723.995694,439.062033 C723.992618,439.010215 723.992618,438.958397 723.992618,438.906579 C723.992618,437.815356 723.543525,436.82472 722.823747,436.108414 C722.100892,435.392108 721.1012,434.950132 720,434.950132 L715.788988,434.950132 C712.922178,434.950132 710.181483,436.074884 708.154414,438.083589 C706.130421,440.092294 704.99231,442.805113 704.99231,445.645952 L704.99231,447.502251 L704.99231,451.976878 L704.99231,453.830129 C704.99231,456.670968 706.130421,459.383786 708.154414,461.392491 C710.181483,463.401196 712.922178,464.525949 715.788988,464.525949 L720,464.525949 L720,466.129255 L720,468.116623 L720,469.476081 L715.788988,469.476081 C711.596432,469.476081 707.588434,467.830101 704.623193,464.894771 C701.657951,461.956392 700,457.984704 700,453.830129 L700,451.976878 L700,447.502251 L700,445.645952 C700,441.494425 701.657951,437.519689 704.623193,434.584358 C707.588434,431.64598 711.596432,430 715.788988,430 L720,430 Z" id="Fill-17"></path>
        </g>
    </g>
</svg>
