<?xml version="1.0" encoding="UTF-8"?>
<svg width="30px" height="30px" viewBox="0 0 30 30" version="1.1" xmlns="http://www.w3.org/2000/svg" xmlns:xlink="http://www.w3.org/1999/xlink">
    <defs></defs>
    <g id="Explorations-2" stroke="none" stroke-width="1" fill="none" fill-rule="evenodd">
        <g id="Home-variante" transform="translate(-64.000000, -44.000000)" fill="#491CDF">
            <g id="Bemind-/-Logo" transform="translate(64.000000, 44.000000)">
                <path d="M14.4911523,17.7966102 L17.4947935,17.7966102 L17.4947935,14.2050771 L17.4947935,11.7156224 L15.0420088,11.7156224 C14.946799,11.7156224 14.856123,11.70872 14.7654471,11.6949153 C14.677038,11.70872 14.5840951,11.7156224 14.4911523,11.7156224 L11.4965786,11.7156224 L11.4965786,17.7966102 L14.4911523,17.7966102 Z M14.7456117,0 C16.5735051,0 18.2313092,0.757470466 19.4287382,1.98285847 C20.6307028,3.20824647 21.3722923,4.89923558 21.3722923,6.7685893 C21.3722923,6.8079685 21.3700245,6.8473477 21.3677566,6.88672689 C21.3700245,6.92378967 21.3722923,6.96316887 21.3722923,7.00254807 L21.3722923,8.17929117 L22.5243641,8.17929117 C22.6241499,8.17929117 22.7216677,8.18624044 22.8169178,8.20245541 L22.8645428,8.20013899 C24.6947041,8.20013899 26.3502403,8.95992587 27.5499371,10.1829975 C28.7496339,11.4083855 29.4912234,13.101691 29.4912234,14.9687283 L29.4912234,18.1097985 C29.4912234,21.2670836 28.2665802,24.2853834 26.0803652,26.5184156 C23.8964181,28.7491313 20.9391315,30 17.8503091,30 L14.7456117,30 L14.7456117,28.9668751 L14.7456117,27.4565671 L14.7456117,26.2381283 L17.8503091,26.2381283 C19.9639526,26.2381283 21.9823461,25.3833681 23.4768644,23.856845 C24.9713827,22.330322 25.8082223,20.2687051 25.8082223,18.1097985 L25.8082223,14.9687283 C25.8082223,14.1394487 25.4793829,13.3866111 24.9464363,12.844568 C24.4134897,12.3002085 23.6764359,11.9620107 22.8645428,11.9620107 C22.764757,11.9620107 22.6672392,11.9550614 22.5697213,11.9388464 L22.5243641,11.9388464 L21.3722923,11.9388464 L21.3722923,14.4452166 L21.3722923,18.1097985 L21.3700245,18.1213806 C21.3677566,19.1429233 20.9618101,20.0648599 20.3063991,20.7343062 C19.6487204,21.4083855 18.7393094,21.8230252 17.7369162,21.8230252 L17.7323805,21.8230252 L17.7278448,21.8230252 L14.6843795,21.8230252 L11.6409143,21.8230252 C10.6362533,21.8230252 9.72684229,21.4083855 9.07143138,20.7343062 C8.41148474,20.0625434 8.00553819,19.1336576 8.00553819,18.1097985 L8.00553819,11.8902015 C8.00553819,10.8663424 8.41148474,9.93745657 9.07143138,9.26569377 C9.72684229,8.59393097 10.6362533,8.17697475 11.6409143,8.17697475 L14.6843795,8.17697475 C14.7773617,8.17697475 14.8703439,8.18392402 14.9610582,8.19782256 C15.0495047,8.18392402 15.1424868,8.17929117 15.235469,8.17929117 L17.6892912,8.17929117 L17.6892912,7.00254807 C17.6892912,6.96316887 17.6892912,6.92378967 17.691559,6.88672689 C17.6892912,6.8473477 17.6892912,6.8079685 17.6892912,6.7685893 C17.6892912,5.93930971 17.3581839,5.18647209 16.8275052,4.64211258 C16.2945586,4.09775307 15.5575048,3.76187167 14.7456117,3.76187167 L11.6409143,3.76187167 C9.5272708,3.76187167 7.50660946,4.61663192 6.01209114,6.14315497 C4.51984068,7.66967802 3.68073328,9.73129488 3.68073328,11.8902015 L3.68073328,13.3009034 L3.68073328,16.701413 L3.68073328,18.1097985 C3.68073328,20.2687051 4.51984068,22.330322 6.01209114,23.856845 C7.50660946,25.3833681 9.5272708,26.2381283 11.6409143,26.2381283 L14.7456117,26.2381283 L14.7456117,27.4565671 L14.7456117,28.9668751 L14.7456117,30 L11.6409143,30 C8.54982407,30 5.5948053,28.7491313 3.40859034,26.5184156 C1.22237538,24.2853834 0,21.2670836 0,18.1097985 L0,16.701413 L0,13.3009034 L0,11.8902015 C0,8.7352328 1.22237538,5.71461663 3.40859034,3.48390086 C5.5948053,1.25086866 8.54982407,0 11.6409143,0 L14.7456117,0 Z" id="Fill-17"></path>
            </g>
        </g>
    </g>
</svg>
