<?xml version="1.0" encoding="UTF-8"?>
<svg width="90px" height="90px" viewBox="0 0 90 90" version="1.1" xmlns="http://www.w3.org/2000/svg" xmlns:xlink="http://www.w3.org/1999/xlink">
    <!-- Generator: Sketch 46.2 (44496) - http://www.bohemiancoding.com/sketch -->
    <title>Group 2</title>
    <desc>Created with Sketch.</desc>
    <defs></defs>
    <g id="Website" stroke="none" stroke-width="1" fill="none" fill-rule="evenodd">
        <g id="Marketplace" transform="translate(-112.000000, -930.000000)">
            <g id="Group-2" transform="translate(112.000000, 930.000000)">
                <circle id="Oval-Copy" fill="#DADFFD" cx="45" cy="45" r="45"></circle>
                <g id="money-time-glyph-48" transform="translate(22.000000, 23.000000)" fill-rule="nonzero" fill="#3454F6">
                    <path d="M21,0 C9.402,0 0,9.402 0,21 C0,32.598 9.402,42 21,42 C22.021,42 23.018,41.902 24,41.761 L24,24 C24,20.411 28.822,18 36,18 C38.199,18 40.174,18.229 41.86,18.646 C40.688,8.157 31.801,0 21,0 Z M22,21 C22,21.552 21.553,22 21,22 L11,22 C10.447,22 10,21.552 10,21 C10,20.448 10.447,20 11,20 L20,20 L20,11 C20,10.448 20.447,10 21,10 C21.553,10 22,10.448 22,11 L22,21 Z" id="Shape"></path>
                    <path d="M36,42 C31.579,42 28.057,41.083 26,39.542 L26,42 C26,44.28 30.299,46 36,46 C41.701,46 46,44.28 46,42 L46,39.542 C43.943,41.083 40.421,42 36,42 Z" id="Shape"></path>
                    <path d="M36,36 C31.579,36 28.057,35.083 26,33.542 L26,36 C26,38.28 30.299,40 36,40 C41.701,40 46,38.28 46,36 L46,33.542 C43.943,35.083 40.421,36 36,36 Z" id="Shape"></path>
                    <path d="M36,30 C31.579,30 28.057,29.083 26,27.542 L26,30 C26,32.28 30.299,34 36,34 C41.701,34 46,32.28 46,30 L46,27.542 C43.943,29.083 40.421,30 36,30 Z" id="Shape"></path>
                    <path d="M36,20 C30.299,20 26,21.72 26,24 C26,26.28 30.299,28 36,28 C41.701,28 46,26.28 46,24 C46,21.72 41.701,20 36,20 Z" id="Shape"></path>
                </g>
            </g>
        </g>
    </g>
</svg>