<?xml version="1.0" encoding="UTF-8"?>
<svg width="90px" height="90px" viewBox="0 0 90 90" version="1.1" xmlns="http://www.w3.org/2000/svg" xmlns:xlink="http://www.w3.org/1999/xlink">
    <!-- Generator: Sketch 46.2 (44496) - http://www.bohemiancoding.com/sketch -->
    <title>Group 11</title>
    <desc>Created with Sketch.</desc>
    <defs></defs>
    <g id="Website" stroke="none" stroke-width="1" fill="none" fill-rule="evenodd">
        <g id="Marketplace" transform="translate(-512.000000, -930.000000)">
            <g id="Group-11" transform="translate(512.000000, 930.000000)">
                <circle id="Oval-Copy-2" fill="#DADFFD" cx="45" cy="45" r="45"></circle>
                <g id="cart-speed-glyph-48" transform="translate(21.000000, 24.000000)" fill-rule="nonzero" fill="#3454F6">
                    <circle id="Oval" cx="15" cy="39" r="5"></circle>
                    <circle id="Oval" cx="39" cy="39" r="5"></circle>
                    <path d="M45.768,7.36 C45.578,7.132 45.296,7 45,7 L11.857,7 L10.884,1.642 C10.711,0.691 9.883,0 8.917,0 L2,0 L2,4 L7.247,4 L8.34,10 L1,10 C0.448,10 0,10.448 0,11 C0,11.552 0.448,12 1,12 L17,12 C17.552,12 18,12.448 18,13 C18,13.552 17.552,14 17,14 L9.069,14 L9.616,17 L4,17 C3.448,17 3,17.448 3,18 C3,18.552 3.448,19 4,19 L17,19 C17.552,19 18,19.448 18,20 C18,20.552 17.552,21 17,21 L10.344,21 L10.891,24 L7,24 C6.448,24 6,24.448 6,25 C6,25.552 6.448,26 7,26 L17,26 C17.552,26 18,26.448 18,27 C18,27.552 17.552,28 17,28 L11.619,28 L12.016,30.179 C12.103,30.655 12.517,31 13,31 L41,31 C41.483,31 41.897,30.655 41.984,30.179 L45.984,8.179 C46.037,7.888 45.958,7.587 45.768,7.36 Z" id="Shape"></path>
                </g>
            </g>
        </g>
    </g>
</svg>