<?xml version="1.0" encoding="UTF-8"?>
<svg width="282px" height="481px" viewBox="0 0 282 481" version="1.1" xmlns="http://www.w3.org/2000/svg" xmlns:xlink="http://www.w3.org/1999/xlink">
    <!-- Generator: Sketch 46.2 (44496) - http://www.bohemiancoding.com/sketch -->
    <title>Group</title>
    <desc>Created with Sketch.</desc>
    <defs>
        <rect id="path-1" x="0" y="0" width="301" height="499"></rect>
    </defs>
    <g id="Website" stroke="none" stroke-width="1" fill="none" fill-rule="evenodd">
        <g id="Signup-modal" transform="translate(-818.000000, -196.000000)">
            <g id="Modal-group-Copy">
                <g id="Modal" transform="translate(300.000000, 157.000000)">
                    <g id="Group" transform="translate(502.000000, 23.000000)">
                        <mask id="mask-2" fill="white">
                            <use xlink:href="#path-1"></use>
                        </mask>
                        <g id="Mask"></g>
                        <g mask="url(#mask-2)">
                            <g transform="translate(-7.000000, -45.000000)">
                                <path d="M35.8141387,351.618522 L312.296618,42.8827362 L312.296618,42.8827362 C324.246305,29.5390484 341.858177,22.7169276 359.678551,24.5289086 L949.016688,84.452985 L735.532378,828.961252 L735.532378,828.961252 C733.096693,837.455495 724.236236,842.366927 715.741993,839.931242 C714.382057,839.541286 713.079847,838.972685 711.869424,838.240312 L48.5415021,436.889834 L48.5415021,436.889834 C22.0802128,420.879275 13.6082223,386.449038 29.6187817,359.987749 C31.4194895,357.011648 33.4935724,354.209796 35.8141387,351.618522 Z" id="Path-2-Copy-19" stroke="#FFFFFF" stroke-width="2" fill="#F0F1F4" transform="translate(485.269803, 432.398200) rotate(363.000000) translate(-485.269803, -432.398200) "></path>
                                <path d="M111.273815,502.116875 L173.235806,449.396708 L173.235806,449.396708 C179.965913,443.670418 190.063817,444.484172 195.790106,451.214278 C197.46851,453.186906 198.642941,455.537505 199.212507,458.064142 L215.462576,530.150683 L215.462576,530.150683 C217.40579,538.770928 211.992986,547.334305 203.37274,549.277519 C200.945392,549.824703 198.423877,549.798209 196.008562,549.200144 L117.796501,529.833771 L117.796501,529.833771 C109.218988,527.709862 103.987309,519.034645 106.111218,510.457132 C106.916462,507.205113 108.722209,504.287901 111.273815,502.116875 Z" id="Path-2" stroke="none" fill="#FFD645" transform="translate(160.748067, 497.625754) rotate(30.000000) translate(-160.748067, -497.625754) "></path>
                                <path d="M252.572454,453.04282 L269.371141,438.749709 L269.371141,438.749709 C271.894931,436.60235 275.681645,436.907508 277.829004,439.431297 C278.458405,440.171033 278.898817,441.052507 279.112404,441.999996 L283.518006,461.543579 L283.518006,461.543579 C284.246711,464.776171 282.216909,467.987437 278.984317,468.716143 C278.074062,468.921336 277.128493,468.911401 276.22275,468.687127 L255.018461,463.436656 L255.018461,463.436656 C251.801894,462.64019 249.840014,459.386983 250.63648,456.170416 C250.938446,454.950909 251.615601,453.856954 252.572454,453.04282 Z" id="Path-2" stroke="none" fill="#3454F6" transform="translate(267.864165, 453.564725) rotate(-37.000000) translate(-267.864165, -453.564725) "></path>
                                <path d="M123.137753,424.039496 L135.369212,413.632397 L135.369212,413.632397 C137.051739,412.200825 139.576215,412.404263 141.007787,414.08679 C141.427388,414.579947 141.720996,415.167596 141.863387,415.799256 L145.071193,430.029327 L145.071193,430.029327 C145.556997,432.184389 144.203796,434.325233 142.048735,434.811036 C141.441897,434.947832 140.811519,434.941209 140.20769,434.791693 L124.768425,430.96872 L124.768425,430.96872 C122.624047,430.437743 121.316127,428.268938 121.847104,426.12456 C122.048415,425.311555 122.499852,424.582252 123.137753,424.039496 Z" id="Path-2-Copy-2" stroke="none" fill="#77EB9F" transform="translate(134.250925, 424.267436) rotate(407.000000) translate(-134.250925, -424.267436) "></path>
                            </g>
                        </g>
                    </g>
                </g>
            </g>
        </g>
    </g>
</svg>