<?xml version="1.0" encoding="UTF-8"?>
<svg width="90px" height="90px" viewBox="0 0 90 90" version="1.1" xmlns="http://www.w3.org/2000/svg" xmlns:xlink="http://www.w3.org/1999/xlink">
    <!-- Generator: Sketch 46.2 (44496) - http://www.bohemiancoding.com/sketch -->
    <title>Group 7</title>
    <desc>Created with Sketch.</desc>
    <defs></defs>
    <g id="Website" stroke="none" stroke-width="1" fill="none" fill-rule="evenodd">
        <g id="Pagamenti" transform="translate(-812.000000, -3620.000000)">
            <g id="Group-7" transform="translate(812.000000, 3620.000000)">
                <circle id="Oval-Copy-8" fill="#DADFFD" cx="45" cy="45" r="45"></circle>
                <g id="bag-20-copy-4" transform="translate(24.000000, 20.000000)" fill-rule="nonzero" fill="#3454F6">
                    <g id="headset-glyph-48">
                        <path d="M21,0 C9.42,0 0,9.42 0,21 L0,33 C0,35.757 2.243,38 5,38 L11,38 C11.552,38 12,37.552 12,37 L12,23 C12,22.448 11.552,22 11,22 L2,22 L2,21 C2,10.523 10.523,2 21,2 C31.477,2 40,10.523 40,21 L40,22 L31,22 C30.448,22 30,22.448 30,23 L30,37 C30,37.552 30.448,38 31,38 L37,38 C38.13,38 39.162,37.609 40,36.974 L40,38 C40,40.757 37.757,43 35,43 L32,43 L32,42 C32,41.448 31.552,41 31,41 L21,41 C20.448,41 20,41.448 20,42 L20,45 C20,45.552 20.448,46 21,46 L31,46 C31.552,46 32,45.552 32,45 L35,45 C38.86,45 42,41.86 42,38 L42,21 C42,9.42 32.58,0 21,0 Z" id="Shape"></path>
                    </g>
                </g>
            </g>
        </g>
    </g>
</svg>