<?xml version="1.0" encoding="utf-8"?>
<!-- Generator: Adobe Illustrator 21.0.1, SVG Export Plug-In . SVG Version: 6.00 Build 0)  -->
<svg version="1.1" id="Livello_1" xmlns="http://www.w3.org/2000/svg" xmlns:xlink="http://www.w3.org/1999/xlink" x="0px" y="0px"
	 viewBox="0 0 376 300" style="enable-background:new 0 0 376 300;" xml:space="preserve">
<style type="text/css">
	.st0{fill:none;}
	.st1{fill:#F0F1F4;}
	.st2{fill:url(#path-2_2_);}
	.st3{fill:#FFD645;}
	.st4{fill:#77EB9F;}
	.st5{fill:#3454F6;}
	.st6{fill:none;stroke:#67D4A0;stroke-width:4;}
	.st7{fill:#C7C6CD;}
	.st8{fill:#FFFFFF;}
	.st9{font-family:'HKGrotesk-Bold';}
	.st10{font-size:37px;}
	.st11{font-size:49px;}
	.st12{font-size:45px;}
</style>
<title>Illustration / Mondo</title>
<desc>Created with Sketch.</desc>
<g id="Website">
	<g id="Pagamenti" transform="translate(-248.000000, -1884.000000)">
		<g id="Illustration-_x2F_-Mondo" transform="translate(212.000000, 1853.000000)">
			<g id="Group-11">
				<rect id="Rectangle-12-Copy-3" x="36" y="31" class="st0" width="376" height="300"/>
				<g id="Group-10" transform="translate(36.000000, 31.000000)">
					<g id="Path">
						<g>
							<circle id="path-2" class="st1" cx="239.5" cy="125.5" r="90.5"/>
						</g>
						<g>
							
								<linearGradient id="path-2_2_" gradientUnits="userSpaceOnUse" x1="-59.9308" y1="300.4702" x2="-60.1067" y2="299.7512" gradientTransform="matrix(181 0 0 -181 11093 54486)">
								<stop  offset="0" style="stop-color:#FFFFFF;stop-opacity:0"/>
								<stop  offset="1" style="stop-color:#FDFDFD"/>
							</linearGradient>
							<circle id="path-2_1_" class="st2" cx="239.5" cy="125.5" r="90.5"/>
						</g>
					</g>
					<circle id="Oval-6-Copy" class="st3" cx="55" cy="144" r="19"/>
					<path id="Path-2-Copy-17" class="st4" d="M286.4,170.2l-5.5,2c-0.8,0.3-1.7,0-1.8-0.7c-0.1-0.2,0-0.4,0-0.7l1.3-4.6
						c0.2-0.8,1.1-1.3,1.9-1.3c0.2,0,0.4,0.1,0.6,0.2l4.2,2.6c0.6,0.4,0.7,1.3,0.1,1.9C287,169.9,286.7,170.1,286.4,170.2z"/>
					
						<g id="Group-2" transform="translate(38.000000, 43.000000) rotate(-15.000000) translate(-38.000000, -43.000000) translate(15.000000, 16.000000)">
						<path id="Path-2-Copy-14" class="st3" d="M44.3,91.9l0.6-3.2c0.1-0.5,0.5-0.8,1-0.7c0.1,0,0.2,0.1,0.3,0.2l2.1,1.9
							c0.3,0.3,0.4,0.9,0.1,1.2c-0.1,0.1-0.2,0.2-0.3,0.2L45.4,93c-0.4,0.2-0.9,0-1.1-0.5C44.3,92.3,44.2,92.1,44.3,91.9z"/>
						<path id="Path-2-Copy-15" class="st4" d="M54,57.9l3.5-17.3c0.2-0.9,1-1.5,1.9-1.3c0.2,0.1,0.5,0.2,0.7,0.4l11.2,10.4
							c0.7,0.6,0.7,1.7,0.2,2.4c-0.2,0.2-0.4,0.4-0.6,0.5l-14.7,6.9c-0.8,0.4-1.7,0-2.1-0.9C54,58.6,54,58.2,54,57.9z"/>
						<path id="Path-2-Copy-16" class="st5" d="M27.6,69.9L38.2,66c0.6-0.2,1.2,0.1,1.4,0.8c0.1,0.2,0.1,0.4,0,0.6l-1.6,11
							c-0.1,0.7-0.7,1.1-1.3,1c-0.2,0-0.3-0.1-0.5-0.2l-9-7.1c-0.5-0.4-0.6-1.2-0.3-1.7C27.2,70.1,27.4,70,27.6,69.9z"/>
					</g>
					<path id="Path-2-Copy-19" class="st3" d="M290.4,134.4l-9.5-7.8c-0.5-0.4-0.5-1.2,0-1.8c0.2-0.2,0.3-0.3,0.5-0.4l11.5-4.6
						c0.7-0.3,1.5,0,1.7,0.7c0.1,0.2,0.1,0.4,0,0.6l-2,12.4c-0.1,0.7-0.8,1.2-1.5,1.2C290.8,134.7,290.6,134.6,290.4,134.4z"/>
					<circle id="Oval-6-Copy-2" class="st4" cx="256.5" cy="227.5" r="23.5"/>
					
						<g id="globe-2-colored-48" transform="translate(127.000000, 105.500000) scale(-1, 1) translate(-127.000000, -105.500000) translate(53.000000, 19.000000)">
						<path id="Shape" class="st5" d="M92,105.9c-23.1-6.4-28.7-12.3-30.7-14.4c-3.8-3.8,2.2-7.6,3.8-15.2c1.2-5.8-3.2-15.1,0-19
							c2.1-2.5,4.5-3.9,6.4-4.7C62.5,44.6,51.8,39.8,40.7,38c0.6,4.9,0.8,12.6-0.3,17.2c-1.1,4.5-5.2,16.2-13.1,17.2
							C18.5,73.6,5.6,64,1,68.7c-3.5,3.5-2.5,12.5-3.8,19c-1.9,9.9-9.3,13.8-15.1,15.2c-2.3,0.6-8.1,0.7-12.1,0.4
							c1,14.4,6.9,28.6,17.8,39.6c23.9,24.1,62.8,24.1,86.7,0C84.7,132.5,90.5,119.4,92,105.9z M8.5,129.6c-1.9-9.5,9.7-7.9,19.3-27
							c4-8,17.2-5.5,24.5,1.9c7.3,7.4,8,18.4,1.9,24.7C42.7,141.2,10.8,141.2,8.5,129.6z"/>
						<g id="Shape_1_">
							<g>
								<path id="path-3" class="st4" d="M63.3,55.9c-3.4,4,1.2,13.7,0,19.6c-1.6,7.9-7.9,11.8-4,15.7c2.1,2.1,8,8.2,32.3,14.8
									c2-18.6-4.1-37.9-18.5-52.1c-1-1-2.1-2-3.1-2.9C68,51.9,65.4,53.3,63.3,55.9z"/>
							</g>
							<path class="st6" d="M89.8,103.4c1.3-17.7-5.1-35.3-18.1-48.1c-0.6-0.6-1.3-1.3-2.1-2c-1.9,1-3.5,2.1-4.9,3.8l0,0
								c-1.1,1.3-1,3.5-0.1,9.2c0,0.3,0,0.3,0.1,0.5c0.7,4.4,0.9,6.7,0.4,9c-0.5,2.4-1.3,4.4-2.6,6.9c-3.1,5.8-3.1,5.7-2,6.9
								c0,0,0.1,0.1,0.1,0.1c2.1,2.1,3.8,3.4,7.4,5.4C73.2,97.9,80.3,100.7,89.8,103.4z"/>
						</g>
						<g id="Shape_2_">
							<g>
								<path id="path-4" class="st4" d="M-17.5,104.4C-11.6,102.9-4,98.9-2,88.8c1.3-6.7,0.3-15.9,3.9-19.5
									c4.7-4.8,17.9,5.1,27,3.9c8-1,12.2-13,13.4-17.7c1.2-4.7,0.9-12.7,0.3-17.7C23.3,34.7,3,40.6-11.7,55.6
									C-25,69.1-31,87.1-29.9,104.8C-25.8,105.2-19.8,105-17.5,104.4z"/>
							</g>
							<path class="st6" d="M40.7,39.5C22.1,37,3.3,43.3-10.3,57c-12.1,12.3-18.4,28.9-17.7,46c3.8,0.2,8.2,0,10-0.5l0,0
								c7.3-1.9,12.5-6.3,14-14.1c0.3-1.6,0.5-3.3,0.7-6.4c0-0.3,0-0.3,0-0.6c0.6-8,1.2-11.1,3.6-13.6C2.2,66,4.7,65.6,8,66.2
								c2.1,0.4,3.4,0.8,8.5,2.5c1.3,0.5,2.2,0.8,3.2,1.1c3.9,1.2,6.6,1.7,8.9,1.4c5.3-0.7,9.7-8.1,11.7-16.2
								C41.1,51.4,41.2,45.2,40.7,39.5z"/>
						</g>
						<g id="Shape_3_">
							<g>
								<path id="path-5" class="st4" d="M52.7,104.1c-7.6-7.6-21.3-10.2-25.5-2c-9.9,19.7-22,18.1-20,27.9
									c2.4,12.1,35.6,12,47.5-0.3C61.1,123.1,60.3,111.7,52.7,104.1z"/>
							</g>
							<path class="st6" d="M51.3,105.5C44,98.1,32.2,96.7,29,103c-1.3,2.6-2.7,5-4.2,7.1c-2.4,3.5-4.9,6.2-7.9,8.8
								c-0.7,0.6-5,4.1-5.9,5c-1.8,1.8-2.3,3.2-1.9,5.7c2,10.1,33.1,10,44.1-1.3C58.9,122.5,58.1,112.3,51.3,105.5z"/>
						</g>
						<path id="Shape_4_" class="st7" d="M112,99.6c0-20.5-7.6-39.8-21-54.6l-5.5-5.4c-3.2-2.9-6.6-5.6-10.2-8
							c-1.8-1.2-4.2-0.7-5.3,1.1c-1.2,1.8-0.7,4.2,1.1,5.3c20.8,13.6,33.2,36.6,33.2,61.5c0,40.5-32.8,73.5-73.1,73.5
							c-19.5,0-38-7.9-51.6-21.5c-3.3-3.3-6.1-6.7-8.6-10.4c-1.2-1.8-3.6-2.2-5.4-1s-2.2,3.6-1,5.4c2.1,3,4.4,5.9,6.8,8.6l5.4,5.5
							c13.8,12.6,31.6,20,50.4,20.9v15.7H0.4c-2.1,0-3.8,1.7-3.8,3.9s1.7,3.9,3.8,3.9H62c2.1,0,3.8-1.7,3.8-3.9s-1.7-3.9-3.8-3.9
							H35.1v-15.7C77.8,178.5,112,143,112,99.6z"/>
					</g>
					<circle id="Oval-6" class="st5" cx="277" cy="61" r="30"/>
					<text transform="matrix(1 0 0 1 44 157)" class="st8 st9 st10">₽</text>
					<text transform="matrix(1 0 0 1 264 77)" class="st8 st9 st11">$</text>
					<text transform="matrix(1 0 0 1 243 244)" class="st8 st9 st12">¥</text>
				</g>
			</g>
		</g>
	</g>
</g>
</svg>
