<?xml version="1.0" encoding="utf-8"?>
<!-- Generator: Adobe Illustrator 21.0.1, SVG Export Plug-In . SVG Version: 6.00 Build 0)  -->
<svg version="1.1" id="Livello_1" xmlns="http://www.w3.org/2000/svg" xmlns:xlink="http://www.w3.org/1999/xlink" x="0px" y="0px"
	 viewBox="0 0 439 536" style="enable-background:new 0 0 439 536;" xml:space="preserve">
<style type="text/css">
	.st0{fill:#F0F1F4;}
	.st1{fill:url(#path-2_2_);}
</style>
<title>Path 2 Copy 10</title>
<desc>Created with Sketch.</desc>
<g id="Symbols">
	<g id="Sections-_x2F_-Footer" transform="translate(-1105.000000, -7.000000)">
		<g id="Group-10" transform="translate(-244.000000, 0.000000)">
			
				<g id="Path-2-Copy-10" transform="translate(1698.185218, 282.946393) rotate(452.000000) translate(-1698.185218, -282.946393) ">
				<g>
					<path id="path-2" class="st0" d="M1433.3,413.4l400.3-464.8l0,0c5.8-6.7,15.9-7.4,22.6-1.7c2.8,2.4,4.7,5.8,5.3,9.5l107,647.9
						l0,0c1.4,8.7-4.5,17-13.2,18.4c-2.6,0.4-5.2,0.2-7.7-0.6l-503.9-170.3l0,0c-12.6-4.2-19.3-17.9-15.1-30.4
						C1429.8,418.4,1431.3,415.7,1433.3,413.4z"/>
				</g>
				<g>
					
						<linearGradient id="path-2_2_" gradientUnits="userSpaceOnUse" x1="1848.0442" y1="534.8191" x2="1848.3091" y2="534.3552" gradientTransform="matrix(-18.8912 -679.4787 -540.9911 23.7273 325914.5312 1243595.125)">
						<stop  offset="0" style="stop-color:#FFFFFF;stop-opacity:0"/>
						<stop  offset="1" style="stop-color:#FFFFFF"/>
					</linearGradient>
					<path id="path-2_1_" class="st1" d="M1433.3,413.4l400.3-464.8l0,0c5.8-6.7,15.9-7.4,22.6-1.7c2.8,2.4,4.7,5.8,5.3,9.5
						l107,647.9l0,0c1.4,8.7-4.5,17-13.2,18.4c-2.6,0.4-5.2,0.2-7.7-0.6l-503.9-170.3l0,0c-12.6-4.2-19.3-17.9-15.1-30.4
						C1429.8,418.4,1431.3,415.7,1433.3,413.4z"/>
				</g>
			</g>
		</g>
	</g>
</g>
</svg>
