<?xml version="1.0" encoding="utf-8"?>
<!-- Generator: Adobe Illustrator 21.0.1, SVG Export Plug-In . SVG Version: 6.00 Build 0)  -->
<svg version="1.1" id="Livello_1" xmlns="http://www.w3.org/2000/svg" xmlns:xlink="http://www.w3.org/1999/xlink" x="0px" y="0px"
	 viewBox="0 0 476 380" style="enable-background:new 0 0 476 380;" xml:space="preserve">
<style type="text/css">
	.st0{fill:none;}
	.st1{fill:#F0F1F4;}
	.st2{fill:url(#path-2_2_);}
	.st3{fill:#7BE9A0;}
	.st4{fill:#67D4A0;}
	.st5{fill:#33304A;}
	.st6{fill:#6A687B;}
	.st7{fill:#375AF1;}
	.st8{fill:#D9DFFB;}
	.st9{fill:#4573F1;}
	.st10{fill:#FDD453;}
	.st11{fill:#FFFFFF;}
	.st12{fill:none;stroke:#D9DFFB;stroke-width:2;stroke-linecap:round;stroke-linejoin:round;}
</style>
<title>Illustration / Grey bar / Scatole</title>
<desc>Created with Sketch.</desc>
<g id="Website">
	<g id="Spedizioni" transform="translate(-160.000000, -2394.000000)">
		<g id="Illustration-_x2F_-Grey-bar-_x2F_-Scatole" transform="translate(112.000000, 2373.000000)">
			<g id="Group-2">
				<rect id="Rectangle-12-Copy-6" x="49.5" y="22" class="st0" width="476" height="380"/>
				<g id="Oval-7">
					<g>
						<circle id="path-2" class="st1" cx="282.5" cy="211" r="168"/>
					</g>
					<g>
						
							<linearGradient id="path-2_2_" gradientUnits="userSpaceOnUse" x1="37.596" y1="360.2542" x2="36.8695" y2="360.7789" gradientTransform="matrix(336 0 0 -336 -12210.5 121357)">
							<stop  offset="0" style="stop-color:#FFFFFF;stop-opacity:0"/>
							<stop  offset="1" style="stop-color:#FDFDFD"/>
						</linearGradient>
						<circle id="path-2_1_" class="st2" cx="282.5" cy="211" r="168"/>
					</g>
				</g>
				<g id="Page-1" transform="translate(48.000000, 117.000000)">
					<polygon id="Fill-1" class="st3" points="49.5,167.1 109,167.1 109,105 49.5,105 					"/>
					<polygon id="Fill-2" class="st4" points="109,167.1 145.2,167.1 145.2,105 109,105 					"/>
					<polygon id="Fill-3" class="st5" points="337.5,167.1 397,167.1 397,127.5 337.5,127.5 					"/>
					<polygon id="Fill-4" class="st6" points="397,167.1 415.1,167.1 415.1,127.5 397,127.5 					"/>
					<polygon id="Fill-5" class="st7" points="142.6,54.9 211.3,54.9 185.7,87.8 116.9,87.8 					"/>
					<polygon id="Fill-6" class="st6" points="385.8,141.9 326.9,141.9 338.1,127.5 397,127.5 					"/>
					<polygon id="Fill-7" class="st5" points="397,127.5 408.2,141.9 426.3,141.9 415.1,127.5 					"/>
					<polygon id="Fill-8" class="st8" points="237.5,22 211.5,55 346.5,55 372.5,22 					"/>
					<polygon id="Fill-9" class="st7" points="277.5,167 345.5,167 345.5,55 277.5,55 					"/>
					<polygon id="Fill-10" class="st7" points="116.5,22 142.5,55 277.5,55 251.5,22 					"/>
					<polygon id="Fill-11" class="st9" points="303.5,88 371.5,88 345.5,55 277.5,55 					"/>
					<polygon id="Fill-12" class="st9" points="142.5,55 142.5,142 163.5,136 167.5,151 142.5,158 142.5,167 277.5,167 277.5,55 
											"/>
					<polygon id="Fill-13" class="st10" points="163.3,136.1 142.6,142.1 142.6,157.7 167.5,150.6 					"/>
					<polygon id="Fill-14" class="st8" points="277.5,142 309.5,142 309.5,105 277.5,105 					"/>
					<polygon id="Fill-15" class="st11" points="230.5,142 277.5,142 277.5,105 230.5,105 					"/>
					<polygon id="Fill-16" class="st9" points="320.2,167.1 323.2,167.1 323.2,87.8 320.2,87.8 					"/>
					<polygon id="Fill-17" class="st4" points="72.5,167.1 75.5,167.1 75.5,105 72.5,105 					"/>
					<path id="Stroke-18" class="st12" d="M239.2,115.6h25"/>
					<path id="Stroke-19" class="st12" d="M239.2,121.4h14"/>
				</g>
			</g>
		</g>
	</g>
</g>
</svg>
