<?xml version="1.0" encoding="UTF-8"?>
<svg width="90px" height="90px" viewBox="0 0 90 90" version="1.1" xmlns="http://www.w3.org/2000/svg" xmlns:xlink="http://www.w3.org/1999/xlink">
    <!-- Generator: Sketch 46.2 (44496) - http://www.bohemiancoding.com/sketch -->
    <title>Group 10</title>
    <desc>Created with Sketch.</desc>
    <defs>
        <path d="M10.9731936,4.55919933 L9.31030623,6.22208675 L12.8736364,9.78541692 L6.22208675,9.78541692 C4.20286632,9.78541692 2.65875657,8.24130718 2.65875657,6.22208675 C2.65875657,4.20286632 4.20286632,2.65875657 6.22208675,2.65875657 L15.7243005,2.65875657 L15.7243005,0.283203125 L6.22208675,0.283203125 C2.89631192,0.283203125 0.283203125,2.89631192 0.283203125,6.22208675 C0.283203125,9.54786158 2.89631192,12.1609704 6.22208675,12.1609704 L12.8736364,12.1609704 L9.31030623,15.7243005 L10.9731936,17.387188 L17.387188,10.9731936 L10.9731936,4.55919933 Z" id="path-1"></path>
    </defs>
    <g id="Website" stroke="none" stroke-width="1" fill="none" fill-rule="evenodd">
        <g id="Spedizioni" transform="translate(-212.000000, -3620.000000)">
            <g id="Group-10" transform="translate(212.000000, 3620.000000)">
                <circle id="Oval-Copy-3" fill="#DADFFD" cx="45" cy="45" r="45"></circle>
                <g id="box-3d-50" transform="translate(24.000000, 21.000000)" fill-rule="nonzero" fill="#3454F6">
                    <polygon id="Shape" points="9.098 6.975 0.968 11.853 24.993 25.839 33.043 21.012"></polygon>
                    <path d="M34.998,19.84 L45.001,13.842 L21.504,0.136 C21.189,-0.049 20.798,-0.044 20.485,0.143 L11.052,5.803 L34.998,19.84 Z" id="Shape"></path>
                    <path d="M26,27.566 L26,45.52 L45.573,31.819 C45.841,31.632 46,31.326 46,31 L46,15.575 L26,27.566 Z" id="Shape"></path>
                    <path d="M24,27.575 L0,13.604 L0,31 C0,31.355 0.189,31.685 0.496,31.864 L24,45.575 L24,27.575 Z" id="Shape"></path>
                </g>
                <rect id="Rectangle-9" fill="#DADFFD" x="9" y="50" width="25" height="13"></rect>
                <g id="redo-81-glyph-16" transform="translate(27.000000, 56.000000) scale(-1, 1) translate(-27.000000, -56.000000) translate(18.000000, 47.000000)" fill-rule="nonzero">
                    <g id="Shape">
                        <use fill="#3454F6" fill-rule="evenodd" xlink:href="#path-1"></use>
                        <path stroke="#DADFFD" stroke-width="1" d="M11.6665296,12.6609704 L6.22208675,12.6609704 C2.62016954,12.6609704 -0.216796875,9.82400395 -0.216796875,6.22208675 C-0.216796875,2.62016954 2.62016954,-0.216796875 6.22208675,-0.216796875 L16.2243005,-0.216796875 L16.2243005,3.15875657 L6.22208675,3.15875657 C4.47900869,3.15875657 3.15875657,4.47900869 3.15875657,6.22208675 C3.15875657,7.9651648 4.47900869,9.28541692 6.22208675,9.28541692 L11.6665296,9.28541692 L8.60319945,6.22208675 L10.9731936,3.85209255 L18.0942947,10.9731936 L10.9731936,18.0942947 L8.60319945,15.7243005 L11.6665296,12.6609704 Z"></path>
                    </g>
                </g>
            </g>
        </g>
    </g>
</svg>