<?xml version="1.0" encoding="utf-8"?>
<!-- Generator: Adobe Illustrator 21.0.1, SVG Export Plug-In . SVG Version: 6.00 Build 0)  -->
<svg version="1.1" id="Livello_1" xmlns="http://www.w3.org/2000/svg" xmlns:xlink="http://www.w3.org/1999/xlink" x="0px" y="0px"
	 viewBox="0 0 376 300" style="enable-background:new 0 0 376 300;" xml:space="preserve">
<style type="text/css">
	.st0{fill:none;}
	.st1{fill:#F0F1F4;}
	.st2{fill:url(#path-2_2_);}
	.st3{fill:#FDD453;}
	.st4{fill:#333149;}
	.st5{fill:#4573F1;}
	.st6{fill:#7BE9A0;}
	.st7{fill:#FFFFFF;}
	.st8{fill:#EFF0F3;}
	.st9{fill:#C6C5CC;}
</style>
<title>Illustration / Notifica</title>
<desc>Created with Sketch.</desc>
<g id="Website">
	<g id="Spedizioni" transform="translate(-840.000000, -1880.000000)">
		<g id="Illustration-_x2F_-Notifica" transform="translate(812.000000, 1853.000000)">
			<g id="Group-2">
				<rect id="Rectangle-12-Copy-2" x="27" y="27" class="st0" width="376" height="300"/>
				<g id="Group-5" transform="translate(28.000000, 27.000000)">
					<g id="Oval-9">
						<g>
							<circle id="path-2" class="st1" cx="88.5" cy="78.5" r="51.5"/>
						</g>
						<g>
							
								<linearGradient id="path-2_2_" gradientUnits="userSpaceOnUse" x1="-59.6456" y1="300.2476" x2="-59.0904" y2="300.5864" gradientTransform="matrix(103 0 0 -103 6232 31004)">
								<stop  offset="0" style="stop-color:#FFFFFF;stop-opacity:0"/>
								<stop  offset="1" style="stop-color:#FDFDFD"/>
							</linearGradient>
							<circle id="path-2_1_" class="st2" cx="88.5" cy="78.5" r="51.5"/>
						</g>
					</g>
					<g id="Page-1" transform="translate(0.000000, 21.000000)">
						<path id="Fill-1" class="st3" d="M61.3,189.9c4.1,0,7.4-3.3,7.4-7.4c0-4.1-3.3-7.4-7.4-7.4c-0.1,0-0.2,0-0.3,0v14.7
							C61.1,189.9,61.2,189.9,61.3,189.9z M61.3,170.5c6.7,0,12.1,5.4,12.1,12.1c0,6.7-5.4,12.1-12.1,12.1c-0.1,0-0.2,0-0.3,0v7.4
							H27v-39h34v7.4C61.1,170.5,61.2,170.5,61.3,170.5z"/>
						<path id="Fill-3" class="st4" d="M232,115.6c0,13.8-11.2,25-25,25c-13.8,0-25-11.2-25-25c0-13.8,11.2-25,25-25
							C220.8,90.6,232,101.8,232,115.6"/>
						<path id="Fill-5" class="st4" d="M221.5,74.6c0,26.3-21.3,47.6-47.6,47.6s-47.6-21.3-47.6-47.6S147.6,27,173.9,27
							S221.5,48.3,221.5,74.6"/>
						<path id="Fill-7" class="st5" d="M222.6,222.1c1.4,0,2.7-0.3,4.1-0.8c5.8-2.4,8.7-9.3,6.4-15.5l-30.7-80
							c-2.3-6.2-8.8-9.2-14.6-6.9c-5.8,2.4-8.7,9.3-6.4,15.5l30.7,80C213.8,219.2,218,222.1,222.6,222.1"/>
						<path id="Fill-9" class="st5" d="M206.8,218.4c0.9,1.1,2.1,2,3.4,2.7c5.9,3.1,13.1,0.9,16.2-5l30.9-73.5
							c3.1-5.9,6.9-8.3,1-11.4c-5.9-3.1-5.9-3.6-9.1,2.2l-44.1,71.4C202.9,209.4,203.6,214.8,206.8,218.4"/>
						<path id="Fill-11" class="st5" d="M204.7,74.3c0-18-10.2-32.5-22.8-32.5c-12.6,0-22.8,14.6-22.8,32.5c0,3.4,0.3,9.7,0.3,9.7
							l1.9,37.8h20.1l0.8-14.9C194.7,106.5,204.7,92.1,204.7,74.3"/>
						<path id="Fill-13" class="st6" d="M187.6,88L187.6,88c-1.2,0-2.1-1-2.1-2.1v-3.6c0-1.2,1-2.1,2.1-2.1c1.2,0,2.1,1,2.1,2.1v3.6
							C189.7,87,188.7,88,187.6,88"/>
						<path id="Fill-15" class="st4" d="M196.9,79.8h-0.3c-0.9,0-1.6-0.7-1.6-1.5v-2.5c0-0.9,0.7-1.6,1.6-1.6h0.3
							c0.9,0,1.6,0.7,1.6,1.6v2.5C198.5,79.1,197.8,79.8,196.9,79.8"/>
						<path id="Fill-17" class="st4" d="M176.3,79.8H176c-0.9,0-1.6-0.7-1.6-1.5v-2.5c0-0.9,0.7-1.6,1.6-1.6h0.3
							c0.9,0,1.6,0.7,1.6,1.6v2.5C177.9,79.1,177.2,79.8,176.3,79.8"/>
						<path id="Fill-19" class="st5" d="M172.1,134.5c10.1,0,18.4-8.2,18.5-18.3h-4.2h-31.3h-1.5C153.8,126.4,162,134.5,172.1,134.5
							"/>
						<path id="Fill-21" class="st7" d="M189.7,92.5c0.7,0,1.2,0.7,1,1.3c-0.5,1.7-2.2,3-4.6,3c-2.4,0-4.1-1.3-4.6-3
							c-0.2-0.7,0.3-1.3,1-1.3H189.7z"/>
						<path id="Fill-23" class="st5" d="M165.6,76.3c0,4-3.3,7.3-7.3,7.3c-4,0-7.3-3.3-7.3-7.3c0-4,3.3-7.3,7.3-7.3
							C162.4,69,165.6,72.3,165.6,76.3"/>
						<path id="Fill-25" class="st8" d="M204.4,129.5c-0.5-7.5-6.8-13.2-14.2-13.2h-0.8c-0.1,9.5-7.9,17.2-17.4,17.2
							s-17.3-7.7-17.4-17.2h-11.5c-7.4,0-13.6,5.6-14.2,13l-13.4,103.2h105.9L204.4,129.5z"/>
						<path id="Fill-27" class="st5" d="M160.8,194.8c-1.1,2.7,0.2,5.6,2.5,7.5c2.3,1.8,5.4,2.7,8.4,3.4c9.7,2.4,31.5-1.7,22.1-12.9
							C188.4,186.4,164.4,186.4,160.8,194.8"/>
						<polygon id="Fill-29" class="st9" points="149.5,133.4 132.8,192.8 117.4,188.7 						"/>
						<path id="Fill-31" class="st5" d="M101.6,187.1l26.2-63.9c2.8-6,10-8.6,16-5.7c6,2.8,8.6,10,5.7,16l-25.2,51.1l41.3,7.4v12.7
							l-52-0.4c-0.4,0-0.8,0.1-1.1,0.1c-3.9,0-7.6-1.9-9.8-5.1C100.1,195.6,99.7,191,101.6,187.1"/>
						<polygon id="Fill-33" class="st7" points="86.4,239.1 278.9,239.1 278.9,202.1 86.4,202.1 						"/>
						<path id="Fill-35" class="st4" d="M190.7,49.6c0,11.3-11,20.4-24.5,20.4c-13.5,0-24.5-9.1-24.5-20.4c0-11.3,11-20.4,24.5-20.4
							C179.7,29.1,190.7,38.3,190.7,49.6"/>
						<path id="Fill-36" class="st4" d="M189.8,51.6c0,0,11.9,0.7,14.1,14.3l7.8,2.6L200.1,43l-15.6-2.5L189.8,51.6z"/>
						<path id="Fill-37" class="st4" d="M200.1,66c-0.6-0.9-1.9-1.9-3.4-1.9c-0.8,0-1.6,0.3-2.4,0.8c-0.2,0.1-0.2,0.3-0.3,0.4
							c0,0.1,0,0.3,0.1,0.5c0.2,0.2,0.4,0.3,0.5,0.3c0.1,0,0.2,0,0.4-0.1c0.6-0.4,1.2-0.6,1.8-0.6c1.3,0,2.1,0.9,2.4,1.3
							c0.2,0.2,0.4,0.3,0.5,0.3l0.1,0c0.1,0,0.2-0.1,0.2-0.1C200.3,66.6,200.3,66.2,200.1,66"/>
						<path id="Fill-38" class="st9" d="M259.4,132.8l-14-0.3c-2.2-0.1-3.6-2.4-2.7-4.4l17.9-37c0.9-1.9,2.9-3.1,5-3.1l12.5,0.3
							c2.2,0.1,3.6,2.4,2.7,4.4l-18.6,38.3C261.7,132.1,260.6,132.8,259.4,132.8"/>
						<path id="Fill-39" class="st5" d="M258.1,134.5c1.2,2,3.6,2.1,5.7,1.1c2.1-1,4-3,5.7-5c5.6-6.4,12.4-24.8,1.4-22.1
							C264.6,109.9,254.4,128.3,258.1,134.5"/>
						<polygon id="Fill-40" class="st5" points="254.5,132.4 260.5,120.2 266.1,120.2 257.3,134.5 						"/>
						<path id="Fill-41" class="st7" d="M268.7,101.3L268.7,101.3c-1.3,0-2-1.4-1.5-2.5l0.7-1.4c0.3-0.6,0.9-1,1.6-0.9
							c1.3,0,2,1.4,1.5,2.5l-0.7,1.4C270,101,269.4,101.4,268.7,101.3"/>
						<path id="Fill-42" class="st6" d="M348.9,149.4c0,18.3-14.8,33.1-33.1,33.1c-18.3,0-33.1-14.8-33.1-33.1s14.8-33.1,33.1-33.1
							C334.1,116.3,348.9,131.1,348.9,149.4"/>
						<polygon id="Fill-43" class="st6" points="300,126.7 284.7,123.2 288.2,138.5 303.5,142 						"/>
						<polygon id="Fill-44" class="st7" points="329.7,137.1 311.9,155.1 302,145.4 299,148.3 311.9,164.8 332.9,140.5 						"/>
					</g>
					<path id="ion-bag---Ionicons" class="st7" d="M109.6,65.1L113,98H66l3.4-32.9h6.7v-0.4c0-3.5,1.3-6.5,3.8-9s5.6-3.7,9.2-3.7
						h0.8c3.6,0,6.6,1.2,9.2,3.7c2.6,2.5,3.8,5.5,3.8,9v0.4H109.6z M79.4,64.7v0.4h20.1v-0.4c0-2.6-0.9-4.8-2.8-6.7
						c-1.9-1.8-4.2-2.8-6.8-2.8h-0.8c-2.7,0-4.9,0.9-6.8,2.8C80.4,59.9,79.4,62.1,79.4,64.7z M69.8,94.7h39.4l-2.6-26.3h-3.7v3.7
						c1.1,0.7,1.7,1.6,1.7,2.9c0,1-0.3,1.7-0.9,2.4c-0.6,0.6-1.4,0.9-2.4,0.9s-1.8-0.3-2.4-0.9c-0.6-0.6-0.9-1.4-0.9-2.4
						c0-1.2,0.6-2.2,1.7-2.9v-3.7H79.4v3.7c1.1,0.7,1.7,1.6,1.7,2.9c0,1-0.3,1.7-0.9,2.4s-1.4,0.9-2.4,0.9S76,78,75.3,77.4
						S74.4,76,74.4,75c0-1.2,0.6-2.2,1.7-2.9v-3.7h-3.7L69.8,94.7z"/>
				</g>
			</g>
		</g>
	</g>
</g>
</svg>
