<?xml version="1.0" encoding="utf-8"?>
<!-- Generator: Adobe Illustrator 21.0.1, SVG Export Plug-In . SVG Version: 6.00 Build 0)  -->
<svg version="1.1" id="Livello_1" xmlns="http://www.w3.org/2000/svg" xmlns:xlink="http://www.w3.org/1999/xlink" x="0px" y="0px"
	 viewBox="0 0 376 300" style="enable-background:new 0 0 376 300;" xml:space="preserve">
<style type="text/css">
	.st0{fill:none;}
	.st1{fill:#333149;}
	.st2{fill:#C6C5CC;}
	.st3{filter:url(#Adobe_OpacityMaskFilter);}
	.st4{fill:#FFFFFF;}
	.st5{mask:url(#mask-2);fill:#EFF0F3;}
	.st6{filter:url(#Adobe_OpacityMaskFilter_1_);}
	.st7{mask:url(#mask-4);fill:#C6C5CC;}
	.st8{fill:#D9DFFB;}
	.st9{fill:#F0F1F4;}
	.st10{fill:url(#path-6_2_);}
	.st11{fill:#EFF0F3;}
	.st12{filter:url(#Adobe_OpacityMaskFilter_2_);}
	.st13{mask:url(#mask-8);fill:#7BE9A0;}
	.st14{fill:#6A687A;}
	.st15{filter:url(#Adobe_OpacityMaskFilter_3_);}
	.st16{mask:url(#mask-10);fill:#67D4A0;}
	.st17{fill:#3454F6;}
	.st18{fill:#FFD645;}
	.st19{fill:#DADFFD;}
	.st20{fill:#7BE9A0;}
	.st21{fill:none;stroke:#FFFFFF;}
	.st22{fill:#4573F1;}
	.st23{fill:#FDD453;}
</style>
<title>Illustration / Corriere</title>
<desc>Created with Sketch.</desc>
<g id="Website">
	<g id="Spedizioni" transform="translate(-824.000000, -1279.000000)">
		<g id="Illustration-_x2F_-Corriere" transform="translate(812.000000, 1176.000000)">
			<g id="Group-9">
				<rect id="Rectangle-12-Copy" x="9.5" y="90.5" class="st0" width="376" height="300"/>
				<g id="Group-2" transform="translate(12.000000, 103.000000)">
					<g id="Page-1">
						<path id="Fill-1" class="st1" d="M348.1,188.4c0,11.4-9.2,20.7-20.7,20.7c-11.4,0-20.7-9.2-20.7-20.7
							c0-11.4,9.2-20.7,20.7-20.7C338.8,167.7,348.1,177,348.1,188.4"/>
						<polygon id="Fill-3" class="st2" points="332.4,187.6 239.6,187.6 237,131.4 317.9,131.4 						"/>
						<g id="Group-7" transform="translate(253.927166, 0.239232)">
							<g id="Clip-6">
							</g>
							<defs>
								<filter id="Adobe_OpacityMaskFilter" filterUnits="userSpaceOnUse" x="10" y="91.1" width="59.7" height="18.1">
									<feColorMatrix  type="matrix" values="1 0 0 0 0  0 1 0 0 0  0 0 1 0 0  0 0 0 1 0"/>
								</filter>
							</defs>
							<mask maskUnits="userSpaceOnUse" x="10" y="91.1" width="59.7" height="18.1" id="mask-2">
								<g class="st3">
									<polygon id="path-1" class="st4" points="69.7,91.1 10,91.1 10,109.2 69.7,109.2 									"/>
								</g>
							</mask>
							<path id="Fill-5" class="st5" d="M63.9,99c-2.3-4.5-9.1-7.8-14-7.8H10l12.4,18.1h47.3L63.9,99z"/>
						</g>
						<g id="Group-10" transform="translate(231.938953, 0.239232)">
							<g id="Clip-9">
							</g>
							<defs>
								<filter id="Adobe_OpacityMaskFilter_1_" filterUnits="userSpaceOnUse" x="9.6" y="91.1" width="47.8" height="47.8">
									<feColorMatrix  type="matrix" values="1 0 0 0 0  0 1 0 0 0  0 0 1 0 0  0 0 0 1 0"/>
								</filter>
							</defs>
							<mask maskUnits="userSpaceOnUse" x="9.6" y="91.1" width="47.8" height="47.8" id="mask-4">
								<g class="st6">
									<polygon id="path-3" class="st4" points="57.4,91.1 9.6,91.1 9.6,138.9 57.4,138.9 									"/>
								</g>
							</mask>
							<path id="Fill-8" class="st7" d="M57.4,138.9H9.6l1.8-47.8h22.2c4.9,0,9.2,3.2,10.7,7.8L57.4,138.9z"/>
						</g>
						<polygon id="Fill-11" class="st8" points="340.5,139.2 319.1,101.6 277.2,101.6 288.7,139.2 						"/>
						<g id="Fill-13">
							<g>
								<path id="path-6" class="st9" d="M103.4,194.7c-4.5,0-8.7,1.1-12.1,3c-1.5-3.6-5-6.1-9.1-6.1c-1,0-2,0.2-2.9,0.4
									c-4.4-8.5-14-14.5-25.1-14.5c-14.8,0-27,10.6-27.7,23.9c-1.8-1.6-4.2-2.6-6.8-2.6c-5.6,0-10.1,4.5-10.1,10.1h114.7
									C123,200.9,114.1,194.7,103.4,194.7"/>
							</g>
							<g>
								
									<linearGradient id="path-6_2_" gradientUnits="userSpaceOnUse" x1="-60.1565" y1="297.1326" x2="-61.0337" y2="297.1326" gradientTransform="matrix(114.7046 0 0 -31.3877 6993.0132 9519.5693)">
									<stop  offset="0" style="stop-color:#FFFFFF;stop-opacity:0"/>
									<stop  offset="1" style="stop-color:#FDFDFD"/>
								</linearGradient>
								<path id="path-6_1_" class="st10" d="M103.4,194.7c-4.5,0-8.7,1.1-12.1,3c-1.5-3.6-5-6.1-9.1-6.1c-1,0-2,0.2-2.9,0.4
									c-4.4-8.5-14-14.5-25.1-14.5c-14.8,0-27,10.6-27.7,23.9c-1.8-1.6-4.2-2.6-6.8-2.6c-5.6,0-10.1,4.5-10.1,10.1h114.7
									C123,200.9,114.1,194.7,103.4,194.7"/>
							</g>
						</g>
						<path id="Fill-17" class="st1" d="M241.6,188.4c0,11.4-9.2,20.7-20.7,20.7c-11.4,0-20.7-9.2-20.7-20.7
							c0-11.4,9.2-20.7,20.7-20.7C232.3,167.7,241.6,177,241.6,188.4"/>
						<path id="Fill-19" class="st11" d="M352,146.6l-11.5-7.5h-51.3l10.7,7.1c6.3,4.1,10.5,10.8,11.7,18.2l1.8,11.8
							c1,6.5,6.6,11.3,13.2,11.3h30.1c6.1,0,10.7-5.6,9.5-11.6l-2.4-12.1C362.4,156.8,358.1,150.5,352,146.6"/>
						<g id="Group-23" transform="translate(153.660917, 0.239232)">
							<g id="Clip-22">
							</g>
							<defs>
								<filter id="Adobe_OpacityMaskFilter_2_" filterUnits="userSpaceOnUse" x="9.5" y="91.1" width="83.8" height="96.2">
									<feColorMatrix  type="matrix" values="1 0 0 0 0  0 1 0 0 0  0 0 1 0 0  0 0 0 1 0"/>
								</filter>
							</defs>
							<mask maskUnits="userSpaceOnUse" x="9.5" y="91.1" width="83.8" height="96.2" id="mask-8">
								<g class="st12">
									<polygon id="path-7" class="st4" points="93.3,91.1 9.5,91.1 9.5,187.4 93.3,187.4 									"/>
								</g>
							</mask>
							<polygon id="Fill-21" class="st13" points="93.3,187.4 9.5,187.4 12,91.1 91.5,91.1 							"/>
						</g>
						<path id="Fill-24" class="st14" d="M195,188.4c0,11.4-9.2,20.7-20.7,20.7c-11.4,0-20.7-9.2-20.7-20.7
							c0-11.4,9.2-20.7,20.7-20.7C185.8,167.7,195,177,195,188.4"/>
						<g id="Group-28" transform="translate(121.118362, 0.239232)">
							<g id="Clip-27">
							</g>
							<defs>
								<filter id="Adobe_OpacityMaskFilter_3_" filterUnits="userSpaceOnUse" x="9.5" y="91.1" width="97.5" height="96.2">
									<feColorMatrix  type="matrix" values="1 0 0 0 0  0 1 0 0 0  0 0 1 0 0  0 0 0 1 0"/>
								</filter>
							</defs>
							<mask maskUnits="userSpaceOnUse" x="9.5" y="91.1" width="97.5" height="96.2" id="mask-10">
								<g class="st15">
									<polygon id="path-9" class="st4" points="9.5,91.1 107.1,91.1 107.1,187.4 9.5,187.4 									"/>
								</g>
							</mask>
							<path id="Fill-26" class="st16" d="M56.6,91.1H25.9c-6.9,0-12.5,5.4-12.7,12.3l-3.5,57.4c-1.1,14.3,10.2,26.5,24.5,26.5h8.4
								h17.3h47.3l-6.2-37.6c0-11.5-9.3-20.8-20.8-20.8c-11.4,0-20.7-9.2-20.8-20.7L56.6,91.1z"/>
						</g>
						<path id="Fill-29" class="st17" d="M152.9,109.4h-35.4c-1,0-1.9-0.8-1.9-1.9s0.8-1.9,1.9-1.9h35.4c1,0,1.9,0.8,1.9,1.9
							S154,109.4,152.9,109.4"/>
						<path id="Fill-31" class="st18" d="M114.9,121.1h-18c-1,0-1.9-0.8-1.9-1.9c0-1,0.8-1.9,1.9-1.9h18c1,0,1.9,0.8,1.9,1.9
							C116.8,120.2,115.9,121.1,114.9,121.1"/>
						<path id="Fill-33" class="st19" d="M143.2,153.1h-35.4c-1,0-1.9-0.8-1.9-1.9s0.8-1.9,1.9-1.9h35.4c1,0,1.9,0.8,1.9,1.9
							S144.2,153.1,143.2,153.1"/>
						<path id="Fill-35" class="st20" d="M193.7,121.1h-35.4c-1,0-1.9-0.8-1.9-1.9c0-1,0.8-1.9,1.9-1.9h35.4c1,0,1.9,0.8,1.9,1.9
							C195.5,120.2,194.7,121.1,193.7,121.1"/>
						<path id="Fill-37" class="st20" d="M227.2,166.8h-26.7c-1,0-1.9-0.8-1.9-1.9c0-1,0.8-1.9,1.9-1.9h26.7c1,0,1.9,0.8,1.9,1.9
							C229,166,228.2,166.8,227.2,166.8"/>
						<path id="Fill-39" class="st4" d="M154.7,137.7h-35.4c-1,0-1.9-0.8-1.9-1.9c0-1,0.8-1.9,1.9-1.9h35.4c1,0,1.9,0.8,1.9,1.9
							C156.6,136.8,155.7,137.7,154.7,137.7"/>
						<path id="Fill-41" class="st4" d="M138.1,162.8h-35.4c-1,0-1.9-0.8-1.9-1.9c0-1,0.8-1.9,1.9-1.9h35.4c1,0,1.9,0.8,1.9,1.9
							C140,162,139.1,162.8,138.1,162.8"/>
						<path id="Fill-43" class="st20" d="M228,157h-35.4c-1,0-1.9-0.8-1.9-1.9c0-1,0.8-1.9,1.9-1.9H228c1,0,1.9,0.8,1.9,1.9
							C229.9,156.1,229.1,157,228,157"/>
						<path id="Fill-45" class="st14" d="M195,188.4c0,11.4-9.2,20.7-20.7,20.7c-11.4,0-20.7-9.2-20.7-20.7
							c0-11.4,9.2-20.7,20.7-20.7C185.8,167.7,195,177,195,188.4"/>
						<path id="Fill-47" class="st1" d="M189.3,188.4c0,11.4-9.2,20.7-20.7,20.7c-11.4,0-20.7-9.2-20.7-20.7
							c0-11.4,9.2-20.7,20.7-20.7C180.1,167.7,189.3,177,189.3,188.4"/>
						<path id="Fill-49" class="st2" d="M180.9,188.4c0,6.8-5.5,12.3-12.3,12.3s-12.3-5.5-12.3-12.3c0-6.8,5.5-12.3,12.3-12.3
							S180.9,181.6,180.9,188.4"/>
						<path id="Stroke-51" class="st21" d="M174.2,188.4c0,3-2.5,5.5-5.5,5.5c-3,0-5.5-2.5-5.5-5.5c0-3,2.5-5.5,5.5-5.5
							C171.7,182.9,174.2,185.4,174.2,188.4z"/>
						<path id="Fill-53" class="st14" d="M301.5,188.4c0,11.4-9.2,20.7-20.7,20.7s-20.7-9.2-20.7-20.7c0-11.4,9.2-20.7,20.7-20.7
							S301.5,177,301.5,188.4"/>
						<path id="Fill-55" class="st14" d="M301.5,188.4c0,11.4-9.2,20.7-20.7,20.7s-20.7-9.2-20.7-20.7c0-11.4,9.2-20.7,20.7-20.7
							S301.5,177,301.5,188.4"/>
						<path id="Fill-57" class="st1" d="M295.8,188.4c0,11.4-9.2,20.7-20.7,20.7c-11.4,0-20.7-9.2-20.7-20.7
							c0-11.4,9.2-20.7,20.7-20.7C286.6,167.7,295.8,177,295.8,188.4"/>
						<path id="Fill-59" class="st2" d="M287.4,188.4c0,6.8-5.5,12.3-12.3,12.3c-6.8,0-12.3-5.5-12.3-12.3c0-6.8,5.5-12.3,12.3-12.3
							C282,176.1,287.4,181.6,287.4,188.4"/>
						<path id="Stroke-61" class="st21" d="M280.7,188.4c0,3-2.5,5.5-5.5,5.5c-3,0-5.5-2.5-5.5-5.5c0-3,2.5-5.5,5.5-5.5
							C278.2,182.9,280.7,185.4,280.7,188.4z"/>
						<path id="Fill-63" class="st22" d="M277.2,101.6l12,37.5h-15.5c-6.4,0-11.7-5.1-11.8-11.6l-0.2-18.9c-0.1-3.9,3-7.1,6.9-7.1
							H277.2z"/>
						<path id="Fill-65" class="st8" d="M305.7,151.8c-2.1,0.5-4.1,2.7-4.2,4.9c-0.1,1.4,0.6,2.8,1.6,3.8c2.7,2.7,12.5,6.1,14.3,0.8
							C319.6,155.1,311.6,150.4,305.7,151.8"/>
						<path id="Fill-67" class="st8" d="M361,153.2c1.6,0.7,3.3,3,3.6,5.1c0.2,1.4-0.2,2.6-0.9,3.5c-1.8,2.4-8.8,4.7-10.7-0.6
							C350.9,155.1,356.5,151.4,361,153.2"/>
						<path id="Fill-69" class="st23" d="M292.8,155.2c0,1.3-1.1,2.4-2.4,2.4c-1.3,0-2.4-1.1-2.4-2.4c0-1.3,1.1-2.4,2.4-2.4
							C291.7,152.7,292.8,153.8,292.8,155.2"/>
						<polygon id="Fill-71" class="st4" points="312,139.2 302.7,139.2 311.5,101.6 320.8,101.6 						"/>
						<polygon id="Fill-73" class="st4" points="329,139.2 325,139.2 333.8,101.6 337.8,101.6 						"/>
					</g>
					<path id="Path-2-Copy-11" class="st18" d="M44.2,191.2l1.1-5.6c0.2-0.8,0.9-1.4,1.7-1.2c0.2,0.1,0.4,0.2,0.6,0.3l3.5,3.3
						c0.6,0.6,0.7,1.5,0.2,2.2c-0.1,0.2-0.3,0.3-0.5,0.4l-4.7,2.2c-0.7,0.3-1.5,0-1.8-0.8C44.1,191.9,44.1,191.5,44.2,191.2z"/>
					<path id="Path-2-Copy-12" class="st17" d="M59.3,165.5l3.6,1.9c0.5,0.3,0.7,0.9,0.5,1.4c-0.1,0.1-0.2,0.3-0.3,0.3l-3,1.7
						c-0.5,0.3-1.2,0.1-1.5-0.3c-0.1-0.1-0.2-0.3-0.2-0.4l-0.5-3.6c-0.1-0.6,0.3-1,0.9-1.1C58.8,165.3,59.1,165.4,59.3,165.5z"/>
				</g>
			</g>
		</g>
	</g>
</g>
</svg>
