<?xml version="1.0" encoding="utf-8"?>
<!-- Generator: Adobe Illustrator 21.0.1, SVG Export Plug-In . SVG Version: 6.00 Build 0)  -->
<svg version="1.1" id="Livello_1" xmlns="http://www.w3.org/2000/svg" xmlns:xlink="http://www.w3.org/1999/xlink" x="0px" y="0px"
	 viewBox="0 0 376 300" style="enable-background:new 0 0 376 300;" xml:space="preserve">
<style type="text/css">
	.st0{fill:none;}
	.st1{fill:#C0F4D2;}
	.st2{fill:#76EA9D;}
	.st3{fill:#426FF5;}
	.st4{fill:#33304A;}
	.st5{fill:#3454F5;}
	.st6{fill:#FFFFFF;}
	.st7{fill:#EFF0F3;}
	.st8{fill:#C6C5CC;}
	.st9{fill:none;stroke:#C6C5CC;stroke-width:2;stroke-linecap:round;stroke-linejoin:round;}
	.st10{fill:#C7C6CD;}
	.st11{fill:#FFD645;}
	.st12{fill:#62D59F;}
	.st13{fill:#FED545;}
</style>
<title>Illustration / Etichetta</title>
<desc>Created with Sketch.</desc>
<g id="Website">
	<g id="Spedizioni" transform="translate(-212.000000, -1230.000000)">
		<g id="Illustration-_x2F_-Etichetta" transform="translate(212.000000, 1176.000000)">
			<rect id="Rectangle-12" x="0.5" y="54" class="st0" width="376" height="300"/>
			<g id="Page-1" transform="translate(0.000000, 54.000000)">
				<path id="Fill-1" class="st1" d="M161.3,237.4c-1.4,0-2.7-0.2-4.1-0.8c-5.8-2.2-8.7-8.8-6.4-14.6l29.8-76.8
					c2.2-5.8,8.8-8.7,14.6-6.4c5.8,2.2,8.7,8.8,6.4,14.6l-29.8,76.8C170.1,234.7,165.8,237.4,161.3,237.4z"/>
				<path id="Fill-3" class="st2" d="M251.7,150.3c-0.6-6.9-6.4-12.2-13.3-12.2h-12.1h-27.6h-4.4c-7,0-12.8,5.4-13.4,12.4l-16,96.7
					h99.4L251.7,150.3z"/>
				<path id="Fill-5" class="st3" d="M181.8,72.1l-2.4,48.4c0,4.4,3.6,7.9,7.9,7.9h4.2l20.3,0.4l-17.2,4.9v4.3h0v0
					c0,7.6,6.1,13.7,13.7,13.7c7.6,0,13.7-6.1,13.7-13.7c0,0,0,0,0-0.1h0l0.8-9.6l3.2-33.8V72.1H181.8z"/>
				<path id="Fill-7" class="st2" d="M193.1,109.5L193.1,109.5c1.1,0,2-0.9,2-2v-7.6c0-1.1-0.9-2-2-2c-1.1,0-2,0.9-2,2v7.6
					C191.1,108.6,192,109.5,193.1,109.5"/>
				<path id="Fill-9" class="st4" d="M184.5,102.3L184.5,102.3c0.9,0,1.6-0.7,1.6-1.6v-3.2c0-0.9-0.7-1.6-1.6-1.6
					c-0.9,0-1.6,0.7-1.6,1.6v3.2C182.8,101.6,183.6,102.3,184.5,102.3"/>
				<path id="Fill-11" class="st4" d="M203.8,102.3L203.8,102.3c0.9,0,1.6-0.7,1.6-1.6v-3.2c0-0.9-0.7-1.6-1.6-1.6s-1.6,0.7-1.6,1.6
					v3.2C202.2,101.6,202.9,102.3,203.8,102.3"/>
				<path id="Fill-13" class="st5" d="M191.5,128.4c1.7,0,3.2,1.4,3.2,3.2v2.5l18-5.2L191.5,128.4z"/>
				<path id="Fill-15" class="st4" d="M207.3,89.2c0.1-0.1,0.3-0.1,0.4-0.2c0.5-0.4,0.6-1.2,0.1-1.7c-1.2-1.4-3.9-2.7-6.5-0.5
					c-0.5,0.4-0.6,1.2-0.1,1.8c0.4,0.5,1.2,0.6,1.8,0.1c1.5-1.2,2.7-0.1,3,0.3C206.3,89.2,206.8,89.4,207.3,89.2"/>
				<path id="Fill-17" class="st4" d="M214.9,125.6l-4.7-13.6c-0.3-1-1.3-1.6-2.3-1.6h-25.8c-1.3,0-2.3,1-2.4,2.2l-1.2,13.6
					c-0.1,1.4,1,2.7,2.4,2.7h31.7C214.3,128.8,215.5,127.2,214.9,125.6"/>
				<path id="Fill-19" class="st4" d="M181.4,89.5c0.5,0.1,1-0.1,1.3-0.5c0.3-0.4,1.4-1.6,3-0.5c0.6,0.4,1.3,0.3,1.7-0.3
					c0.4-0.6,0.3-1.3-0.3-1.7c-2.8-1.9-5.4-0.4-6.4,1.2c-0.4,0.6-0.3,1.3,0.3,1.7C181.1,89.4,181.3,89.4,181.4,89.5"/>
				<path id="Fill-21" class="st6" d="M191,113.9c-0.6,0-1.1,0.6-0.9,1.2c0.5,1.6,2,2.8,4.3,2.8c2.3,0,3.8-1.2,4.3-2.8
					c0.2-0.6-0.3-1.2-0.9-1.2H191z"/>
				<path id="Fill-23" class="st4" d="M201.9,58.7c5.3-0.5,10.3-0.1,14.7,0.8c8.2,1.5,13.6,9.3,12.4,17.6l-2.9,19.2l-14.5,19.7
					l11.5-32c-0.5-4.2-4.2-6.4-6.2-7.1l-0.2-0.1c-2.3-0.7-3.9-0.2-5.3,0.1c-3.5,1.2-8.3,1.7-13.6,1.7c-7.4,0-11.2,0-14.9-1.8
					c-1.6-0.8-2.1-3.9-2.2-5.5c0-0.1,0-0.2,0-0.3C180.7,64.6,193.7,58.6,201.9,58.7"/>
				<path id="Fill-25" class="st3" d="M217.2,101.4c0,3.8,3.1,6.8,6.8,6.8c3.8,0,6.8-3.1,6.8-6.8c0-3.8-3.1-6.8-6.8-6.8
					C220.3,94.6,217.2,97.7,217.2,101.4"/>
				<path id="Fill-27" class="st4" d="M188.5,66.1l11.6,3.3c-1.5,5.2-6.2,8.7-11.6,8.7c-6.6,0-12.1-5.4-12.1-12.1
					c0-6.6,5.4-12.1,12.1-12.1s12.1,5.4,12.1,12.1H188.5z"/>
				<polygon id="Fill-29" class="st4" points="215,127 223,91.6 221.8,87.4 210.6,117.9 				"/>
				<path id="Fill-31" class="st3" d="M158.6,221.2h-9.5c-4.3,0-7.8-3.5-7.8-7.8c0-4.3,3.5-7.8,7.8-7.8h9.5c4.3,0,7.8,3.5,7.8,7.8
					C166.4,217.7,162.9,221.2,158.6,221.2"/>
				<polygon id="Fill-33" class="st7" points="292.2,218.1 368.3,218.1 368.3,163.2 292.2,163.2 				"/>
				<polygon id="Fill-35" class="st8" points="311.7,209 356.1,209 356.1,186.3 311.7,186.3 				"/>
				<path id="Fill-36" class="st4" d="M356.1,184.8H305c-2,0-3.6-1.6-3.6-3.6c0-2,1.6-3.6,3.6-3.6h51.1c2,0,3.6,1.6,3.6,3.6
					C359.7,183.2,358.1,184.8,356.1,184.8"/>
				<path id="Combined-Shape" class="st6" d="M311.8,187.2L311.8,187.2l45,0l2.7,18.8h-45L311.8,187.2z M350.4,180.8
					c3.6,0,6.4,2.9,6.4,6.4h-45v0c0-3.6-2.9-6.4-6.4-6.4L350.4,180.8L350.4,180.8C350.3,180.8,350.3,180.8,350.4,180.8z"/>
				<path id="Fill-38" class="st6" d="M346.2,187.9L346.2,187.9C346.2,187.9,346.2,187.9,346.2,187.9L346.2,187.9z"/>
				<path id="Stroke-39" class="st9" d="M320.6,192.5H343"/>
				<path id="Stroke-41" class="st9" d="M319.7,187.9h17.7"/>
				<path id="Fill-42" class="st4" d="M112.5,194.3H11.9c-5.9,0-10.7-4.8-10.7-10.7v-73.8C1.2,103.8,6,99,11.9,99h100.6
					c5.9,0,10.7,4.8,10.7,10.7v73.8C123.3,189.5,118.4,194.3,112.5,194.3"/>
				<path id="Fill-43" class="st10" d="M67.1,218.9l-3.6-76.4c0-7.4-6.1-13.5-13.5-13.5c-7.4,0-13.5,6.1-13.5,13.5l-8.1,76.4H67.1z"
					/>
				<path id="Fill-44-Copy" class="st4" d="M43.5,143.2c0-3.4,2.8-6.2,6.2-6.2c3.4,0,6.2,2.8,6.2,6.2c0,3.4-2.8,6.2-6.2,6.2
					C46.3,149.4,43.5,146.6,43.5,143.2"/>
				<path id="Fill-45" class="st10" d="M208,218.6h-78c-2.3,0-4.2-1.3-4.2-2.9c0-1.6,1.9-2.9,4.2-2.9h78c2.3,0,4.2,1.3,4.2,2.9
					C212.2,217.3,210.3,218.6,208,218.6"/>
				<path id="Fill-46" class="st10" d="M90,218.6H36.2c-1.6,0-2.9-1.3-2.9-2.9c0-1.6,1.3-2.9,2.9-2.9H90c1.6,0,2.9,1.3,2.9,2.9
					C92.9,217.3,91.6,218.6,90,218.6"/>
				<path id="Fill-47" class="st11" d="M18.6,184.5c0,1.6-1.3,3-3,3c-1.6,0-3-1.3-3-3s1.3-3,3-3C17.3,181.5,18.6,182.8,18.6,184.5"
					/>
				<path id="Fill-48" class="st3" d="M221.8,211.8c1.1,2.5-0.2,5.3-2.4,7c-2.2,1.7-5.1,2.5-7.9,3.2c-9.1,2.3-29.5-1.6-20.7-12.1
					C195.8,203.9,218.4,203.8,221.8,211.8"/>
				<path id="Fill-49" class="st5" d="M207,215.5c0,0,12.4-0.7,17.3,5.2c0,0-9.7,0.4-17,0.4C207.3,221.1,207.7,217.8,207,215.5"/>
				<polygon id="Fill-50" class="st12" points="232.4,154.2 242.6,203.6 259.8,198.8 				"/>
				<path id="Fill-51" class="st7" d="M209.3,218.6h-26.1c-1.6,0-2.9-1.3-2.9-2.9c0-1.6,1.3-2.9,2.9-2.9h26.1c1.6,0,2.9,1.3,2.9,2.9
					C212.2,217.3,210.9,218.6,209.3,218.6"/>
				<polygon id="Fill-52" class="st6" points="227.1,206.2 217.9,207.1 220.4,220.1 229.8,220.9 				"/>
				<path id="Fill-53" class="st1" d="M277.3,204.5l-24.5-59.9c-2.7-5.6-9.4-8-15-5.4c-5.6,2.7-8,9.4-5.4,15l20.9,45.3l-27,5.1
					l3.1,16.5l36.7-0.6c0.4,0,0.7,0.1,1.1,0.1c3.6,0,7.1-1.8,9.2-4.8C278.6,212.5,279,208.2,277.3,204.5"/>
				<polygon id="Fill-54" class="st6" points="1.2,253.3 375.5,253.3 375.5,218.6 1.2,218.6 				"/>
				<path id="Fill-56" class="st2" d="M303.4,172.7L303.4,172.7c1.1,0,2-0.9,2-2c0-1.1-0.9-2-2-2c-1.1,0-2,0.9-2,2
					C301.4,171.8,302.3,172.7,303.4,172.7"/>
				<path id="Fill-57" class="st13" d="M310.8,172.7L310.8,172.7c1.1,0,2-0.9,2-2c0-1.1-0.9-2-2-2c-1.1,0-2,0.9-2,2
					C308.8,171.8,309.7,172.7,310.8,172.7"/>
				<path id="Fill-58" class="st13" d="M330.2,151.5c-0.7,0-1.2-0.6-1.2-1.2v-12.8c0-0.7,0.6-1.2,1.2-1.2c0.7,0,1.2,0.6,1.2,1.2
					v12.8C331.4,150.9,330.9,151.5,330.2,151.5"/>
				<path id="Fill-59" class="st13" d="M341,153c-0.7-0.2-1-0.9-0.9-1.5l3.5-12.3c0.2-0.7,0.9-1,1.5-0.9c0.7,0.2,1,0.9,0.9,1.5
					l-3.5,12.3C342.4,152.8,341.7,153.2,341,153"/>
				<path id="Fill-60" class="st13" d="M341,153c-0.7-0.2-1-0.9-0.9-1.5l3.5-12.3c0.2-0.7,0.9-1,1.5-0.9c0.7,0.2,1,0.9,0.9,1.5
					l-3.5,12.3C342.4,152.8,341.7,153.2,341,153"/>
				<path id="Fill-61" class="st13" d="M319.3,153c0.7-0.2,1-0.9,0.9-1.5l-3.5-12.3c-0.2-0.7-0.9-1-1.5-0.9c-0.7,0.2-1,0.9-0.9,1.5
					l3.5,12.3C317.9,152.8,318.6,153.2,319.3,153"/>
				<path id="Fill-62" class="st12" d="M222.2,190.1L222.2,190.1c-4.4,0-8.1-3.6-8.1-8.1v-13.5h16.1v13.5
					C230.2,186.5,226.6,190.1,222.2,190.1"/>
				<polygon id="Fill-63" class="st2" points="213.8,175.6 230.6,175.6 230.6,174.1 213.8,174.1 				"/>
			</g>
		</g>
	</g>
</g>
</svg>
