<?xml version="1.0" encoding="UTF-8"?>
<svg width="19px" height="21px" viewBox="0 0 19 21" version="1.1" xmlns="http://www.w3.org/2000/svg" xmlns:xlink="http://www.w3.org/1999/xlink">
    <!-- Generator: Sketch 41.2 (35397) - http://www.bohemiancoding.com/sketch -->
    <title>android-logo</title>
    <desc>Created with Sketch.</desc>
    <defs></defs>
    <g id="Homepage" stroke="none" stroke-width="1" fill="none" fill-rule="evenodd">
        <g id="Desktop" transform="translate(-570.000000, -4406.000000)" fill="#D0CABD">
            <g id="prefooter" transform="translate(0.000000, 4116.000000)">
                <g id="Group-21" transform="translate(110.000000, 120.000000)">
                    <g id="Group-22" transform="translate(0.000000, 160.000000)">
                        <g id="Group-17" transform="translate(424.000000, 9.000000)">
                            <g id="android-logo" transform="translate(36.719298, 1.629630)">
                                <path d="M1.30499095,6.61434894 C0.948402943,6.61434894 0.645414261,6.73618682 0.396678551,6.9801615 C0.147942841,7.22405078 0.0234878325,7.51662396 0.0234878325,7.85796646 L0.0234878325,13.1009667 C0.0234878325,13.4502523 0.147899264,13.7469252 0.396678551,13.9908145 C0.645414261,14.2347465 0.948228636,14.3564562 1.30486022,14.3564562 C1.66157895,14.3564562 1.96221449,14.2347038 2.20685399,13.9908145 C2.4516678,13.7469252 2.57398755,13.4502523 2.57398755,13.1009667 L2.57398755,7.85796646 C2.57398755,7.51649585 2.44948896,7.22392266 2.20075325,6.9801615 C1.95197397,6.73631493 1.6532558,6.61434894 1.30499095,6.61434894 Z" id="Shape"></path>
                                <path d="M3.07189474,14.9663289 C3.07189474,15.34017 3.20462932,15.6571706 3.47001132,15.9173305 C3.7354369,16.1771916 4.05881947,16.3072288 4.44046406,16.3072288 L5.36115224,16.3072288 L5.37370232,19.0749515 C5.37370232,19.4245361 5.49811375,19.7210381 5.74689304,19.9649701 C5.99562875,20.2088594 6.29430334,20.33074 6.64261177,20.33074 C6.99941766,20.33074 7.30205772,20.2088594 7.55092417,19.9649701 C7.79979061,19.7210381 7.92411488,19.4245361 7.92411488,19.0749515 L7.92411488,16.3072288 L9.64090549,16.3072288 L9.64090549,19.0749515 C9.64090549,19.4245361 9.76527334,19.7210381 10.0140091,19.9649701 C10.2630498,20.2088594 10.565777,20.33074 10.9224958,20.33074 C11.2789095,20.33074 11.5816367,20.2088594 11.8303724,19.9649701 C12.0791081,19.7210381 12.2033452,19.4245361 12.2033452,19.0749515 L12.2033452,16.3072288 L13.1365835,16.3072288 C13.5095999,16.3072288 13.829017,16.1774478 14.094399,15.9173305 C14.3598681,15.6571706 14.4926027,15.34017 14.4926027,14.9663289 L14.4926027,6.84598183 L3.07189474,6.84598183 L3.07189474,14.9663289 Z" id="Shape"></path>
                                <path d="M11.6064318,1.90815281 L12.4895133,0.310850998 C12.5476882,0.205198385 12.5267714,0.123930429 12.4274601,0.0670898362 C12.3194771,0.0182778166 12.2365942,0.0426624738 12.1787244,0.140286513 L11.2827878,1.74963118 C10.4948342,1.40824598 9.66151726,1.23755338 8.78218336,1.23755338 C7.90306735,1.23755338 7.06944539,1.40824598 6.28144822,1.74963118 L5.38568591,0.140329218 C5.32781607,0.042705179 5.24475891,0.0183205218 5.1369502,0.0671325413 C5.03737748,0.123973135 5.0167657,0.20524109 5.07480985,0.310893703 L5.9581528,1.90815281 C5.06225976,2.35514792 4.34917091,2.97902787 3.81818902,3.77966457 C3.28738144,4.58034397 3.02191228,5.45622719 3.02191228,6.40710071 L14.5302965,6.40710071 C14.5302965,5.45622719 14.264871,4.58030127 13.7340198,3.77966457 C13.2029508,2.97902787 12.494176,2.35510521 11.6064318,1.90815281 Z M6.49920091,4.23071667 C6.4038987,4.32424101 6.28990209,4.37096048 6.15716752,4.37096048 C6.02443294,4.37096048 5.91252801,4.32428372 5.82119128,4.23071667 C5.73007244,4.13732044 5.6843605,4.02551829 5.6843605,3.89548102 C5.6843605,3.76540104 5.73007244,3.65359888 5.82119128,3.56007454 C5.91239728,3.4665502 6.02447651,3.41991614 6.15716752,3.41991614 C6.28972779,3.41991614 6.40376797,3.46650749 6.49920091,3.56007454 C6.59463384,3.65359888 6.64230673,3.76540104 6.64230673,3.89548102 C6.64230673,4.02556099 6.59463384,4.13719233 6.49920091,4.23071667 Z M11.7434369,4.23071667 C11.652013,4.32424101 11.5400209,4.37096048 11.4073299,4.37096048 C11.2745954,4.37096048 11.1608166,4.32428372 11.0653401,4.23071667 C10.9699072,4.13732044 10.922365,4.02551829 10.922365,3.89548102 C10.922365,3.76540104 10.9699072,3.65359888 11.0653401,3.56007454 C11.1607731,3.4665502 11.2745954,3.41991614 11.4073299,3.41991614 C11.5400209,3.41991614 11.652013,3.46650749 11.7434369,3.56007454 C11.834425,3.65359888 11.8802241,3.76540104 11.8802241,3.89548102 C11.8802241,4.02556099 11.8345557,4.13719233 11.7434369,4.23071667 Z" id="Shape"></path>
                                <path d="M17.1676446,6.97401196 C16.9189089,6.73426508 16.6161817,6.61434894 16.2594629,6.61434894 C15.9112417,6.61434894 15.6126542,6.73426508 15.3639185,6.97401196 C15.1150521,7.21384424 14.9905535,7.50855268 14.9905535,7.85796646 L14.9905535,13.1009667 C14.9905535,13.4502523 15.1150521,13.7469252 15.3639185,13.9908145 C15.6126542,14.2347465 15.9112417,14.3564562 16.2594629,14.3564562 C16.6161817,14.3564562 16.9189089,14.2347038 17.1676446,13.9908145 C17.4166853,13.7469252 17.5410096,13.4502523 17.5410096,13.1009667 L17.5410096,7.85796646 C17.5410096,7.50850998 17.4166853,7.21380154 17.1676446,6.97401196 Z" id="Shape"></path>
                            </g>
                        </g>
                    </g>
                </g>
            </g>
        </g>
    </g>
</svg>