<?xml version="1.0" encoding="UTF-8"?>
<svg width="18px" height="22px" viewBox="0 0 18 22" version="1.1" xmlns="http://www.w3.org/2000/svg" xmlns:xlink="http://www.w3.org/1999/xlink">
    <!-- Generator: Sketch 41.2 (35397) - http://www.bohemiancoding.com/sketch -->
    <title>apple-logo</title>
    <desc>Created with Sketch.</desc>
    <defs></defs>
    <g id="Homepage" stroke="none" stroke-width="1" fill="none" fill-rule="evenodd">
        <g id="Desktop" transform="translate(-534.000000, -4405.000000)" fill="#D0C9BD">
            <g id="prefooter" transform="translate(0.000000, 4116.000000)">
                <g id="Group-21" transform="translate(110.000000, 120.000000)">
                    <g id="Group-22" transform="translate(0.000000, 160.000000)">
                        <g id="Group-17" transform="translate(424.000000, 9.000000)">
                            <g id="apple-logo">
                                <g id="Capa_1">
                                    <g id="Group">
                                        <path d="M15.5495445,14.3697899 C14.9714266,13.4989412 14.6825657,12.5178151 14.6825657,11.4272437 C14.6825657,10.4331765 14.9551856,9.52244118 15.499281,8.69563866 C15.7924992,8.2469958 16.2701342,7.72810084 16.9319658,7.13858403 C16.4964078,6.57573529 16.0608058,6.13587395 15.6248957,5.81909244 C14.8374494,5.24736975 13.9451628,4.9615084 12.9483441,4.9615084 C12.3536771,4.9615084 11.6288621,5.11097899 10.7745592,5.41028992 C9.95353062,5.70936975 9.3544623,5.85907143 8.97766236,5.85907143 C8.69267467,5.85907143 8.11473284,5.72721008 7.24348476,5.46316387 C6.36387412,5.19921008 5.62242198,5.06734874 5.01926039,5.06734874 C3.57834503,5.06734874 2.388747,5.70081933 1.45051031,6.96748319 C0.503867036,8.25189496 0.0304573715,9.89690336 0.0304573715,11.9026933 C0.0304573715,14.0316092 0.646338873,16.2439034 1.87774977,18.5399916 C3.12588581,20.8184244 4.38674177,21.9578025 5.66009757,21.9578025 C6.08733703,21.9578025 6.64027916,21.8081933 7.31874792,21.5091134 C7.99743675,21.2190462 8.59219175,21.0736891 9.10327701,21.0736891 C9.6476365,21.0736891 10.2802432,21.2144244 11.0006568,21.4958025 C11.7629274,21.777042 12.3494958,21.9178235 12.7599221,21.9178235 C13.8321801,21.9178235 14.9088393,21.0556639 15.9893718,19.3314832 C16.6929283,18.2318992 17.2081948,17.1323151 17.5349074,16.0325924 C16.7893179,15.7948908 16.1276183,15.2406849 15.5495445,14.3697899 Z" id="Shape"></path>
                                        <path d="M11.2768418,4.16978571 C11.8047402,3.61557983 12.1942601,3.0085 12.4456654,2.34882353 C12.6884882,1.68905462 12.8097014,1.0907563 12.8097014,0.554067227 C12.8097014,0.518987395 12.8078969,0.474941176 12.8033635,0.422113445 C12.7995783,0.369331933 12.7973336,0.325470588 12.7973336,0.290252101 C12.788883,0.263815126 12.7784958,0.21542437 12.765996,0.14512605 C12.7534962,0.0748277311 12.7430649,0.0264369748 12.7344823,0 C11.2600726,0.36087395 10.2129464,1.01181513 9.59297168,1.95314706 C8.96485442,2.9032605 8.63796584,4.03357983 8.61279009,5.34433613 C9.1740948,5.2915084 9.60952078,5.21686555 9.9196402,5.12003782 C10.3723635,4.96164706 10.8242065,4.64481933 11.2768418,4.16978571 Z" id="Shape"></path>
                                    </g>
                                </g>
                            </g>
                        </g>
                    </g>
                </g>
            </g>
        </g>
    </g>
</svg>