<?xml version="1.0" encoding="UTF-8"?>
<svg width="1059px" height="103px" viewBox="0 0 1059 103" version="1.1" xmlns="http://www.w3.org/2000/svg" xmlns:xlink="http://www.w3.org/1999/xlink">
    <!-- Generator: Sketch 46.2 (44496) - http://www.bohemiancoding.com/sketch -->
    <title>Group 18</title>
    <desc>Created with Sketch.</desc>
    <defs>
        <polygon id="path-1" points="206.973714 45.9780952 0.0219047619 45.9780952 0.0219047619 0.323095238 103.49781 0.323095238 206.973714 0.323095238 206.973714 45.9780952"></polygon>
        <polygon id="path-3" points="0.0219553073 9.83035714 0.0219553073 0.252857143 130.952796 0.252857143 130.952796 9.83035714"></polygon>
        <polygon id="path-5" points="0 51.1211956 0 0.303741697 85.8211806 0.303741697 85.8211806 101.938649 0 101.938649 0 51.1211956"></polygon>
        <polygon id="path-7" points="0 138.932159 138.932159 138.932159 138.932159 0 0 0"></polygon>
    </defs>
    <g id="Website" stroke="none" stroke-width="1" fill="none" fill-rule="evenodd">
        <g id="Spedizioni" transform="translate(-156.000000, -4527.000000)">
            <g id="Group-18" transform="translate(156.000000, 4506.000000)">
                <g id="DHL" transform="translate(0.000000, 46.000000)">
                    <g id="Group-3">
                        <mask id="mask-2" fill="white">
                            <use xlink:href="#path-1"></use>
                        </mask>
                        <g id="Clip-2"></g>
                    </g>
                    <path d="M36.5852067,9 L30,17.8482266 C30,17.8482266 64.1388776,17.8482266 65.8897944,17.8482266 C67.703971,17.8482266 67.6803394,18.529938 66.7936106,19.7178994 C65.89343,20.9241979 64.3861001,23.0211078 63.468832,24.2457435 C63.0034721,24.8677693 62.161825,26 64.9507126,26 C67.8995676,26 79.6273651,26 79.6273651,26 C79.6273651,26 81.993066,22.8161629 83.9759356,20.1547556 C86.6739325,16.5344219 84.2097062,9 74.5654851,9 C65.9334219,9 36.5852067,9 36.5852067,9" id="Fill-4" fill="#C7C6CD"></path>
                    <path d="M27,38 L40.3141334,20 C40.3141334,20 55.0738243,20 56.8366725,20 C58.6624665,20 58.6386788,20.690375 57.7464588,21.8937978 C56.8399661,23.1154266 55.2977942,25.2164098 54.3744672,26.4569729 C53.9056674,27.0865396 53.0588269,28.2353441 55.8657702,28.2353441 C58.8341035,28.2353441 78,28.2353441 78,28.2353441 C76.1592015,30.7445078 70.1885001,38 59.4664892,38 C50.7770419,38 27,38 27,38" id="Fill-5" fill="#C7C6CD"></path>
                    <path d="M103,28 L95.8532694,38 L77,38 C77,38 84.1431079,28.0022369 84.1496287,28.0022369 L103,28" id="Fill-6" fill="#C7C6CD"></path>
                    <polyline id="Fill-7" fill="#C7C6CD" points="132.334055 26 86 26 98.6703128 9 117.607897 9 110.345826 18.7481864 118.799254 18.7481864 126.064236 9 145 9 132.334055 26"></polyline>
                    <g id="Group-13" transform="translate(0.000000, 28.000000)">
                        <mask id="mask-4" fill="white">
                            <use xlink:href="#path-3"></use>
                        </mask>
                        <g id="Clip-9"></g>
                        <path d="M130.952796,0.252857143 L123.730232,9.83035714 L104.693517,9.83035714 C104.693517,9.83035714 111.909128,0.252857143 111.915715,0.252857143 L130.952796,0.252857143" id="Fill-8" fill="#C7C6CD" mask="url(#mask-4)"></path>
                        <polyline id="Fill-10" fill="#C7C6CD" mask="url(#mask-4)" points="0 4.02928571 28.0537598 4.02928571 26.5209134 6.06464286 0 6.06464286 0 4.02928571"></polyline>
                        <polyline id="Fill-11" fill="#C7C6CD" mask="url(#mask-4)" points="0 0.252857143 30.9039246 0.252857143 29.3685168 2.285 0 2.285 0 0.252857143"></polyline>
                        <polyline id="Fill-12" fill="#C7C6CD" mask="url(#mask-4)" points="0 7.80821429 25.2050587 7.80821429 23.6798966 9.83035714 0 9.83035714 0 7.80821429"></polyline>
                    </g>
                    <polyline id="Fill-14" fill="#C7C6CD" points="207 34 179 34 180.536512 32 207 32 207 34"></polyline>
                    <polyline id="Fill-15" fill="#C7C6CD" points="207 37.9978829 176 38 177.535686 36 207 36 207 37.9978829"></polyline>
                    <polyline id="Fill-16" fill="#C7C6CD" points="183.525413 28 207 28 207 29.9989466 182 30 183.525413 28"></polyline>
                    <path d="M171,9 L158.228742,26 L138,26 C138,26 150.77346,9 150.780065,9 L171,9" id="Fill-17" fill="#C7C6CD"></path>
                    <path d="M136.9821,28 C136.9821,28 135.598112,29.9383227 134.925951,30.8698214 C132.54737,34.1628818 134.6501,38 142.411059,38 C151.374047,38 172.817673,38 172.817673,38 L180,28 L136.9821,28" id="Fill-18" fill="#C7C6CD"></path>
                </g>
                <g id="SDA_Express_Courier" transform="translate(929.000000, 47.000000)" fill="#C7C6CD">
                    <path d="M35.7760566,20.6472107 C32.9151363,17.7895387 28.6241491,13.8090695 28.6241491,13.8090695 C28.2717454,13.4562802 28.1922972,13.0979908 28.7869785,13.0979908 L48.3398784,13.0979908 L52,0 C52,0 30.3767283,0 22.8598312,0 C14.5940762,0 9.74223217,3.64575149 9.74223217,9.17487934 C9.74223217,11.161971 10.0686776,14.2820743 12.626751,16.8372432 C16.4567815,20.6629251 24.0979639,27.7587833 25.2070916,28.8666517 C25.5594954,29.219441 25.6389435,29.5769447 25.0442622,29.5769447 C22.4665235,29.5769447 3.47133392,29.5769447 3.47133392,29.5769447 L0,42 C0,42 23.1972892,42 32.9324418,42 C39.1962606,42 43.0365171,36.2791559 43.0365171,32.9123358 C43.0365171,27.7218543 41.5144162,26.3790549 35.7760566,20.6472107" id="Fill-16"></path>
                    <path d="M69.1423716,0 C63.1408027,0 53.7042751,0 53.7042751,0 L42,42 C42,42 62.7148647,42 69.8726631,42 C82.4852922,42 90,27.6472107 90,18.1918285 C90,5.1362667 79.4072428,0 69.1423716,0 Z M66.7569617,29.5769447 C64.0083671,29.5769447 59.1034122,29.5769447 59.1034122,29.5769447 L63.695385,13.0979908 C63.695385,13.0979908 67.3609622,13.0979908 69.0200026,13.0979908 C73.3444895,13.0979908 76.36057,15.7309462 76.36057,19.0498372 C76.36057,26.8984173 69.5063407,29.5769447 66.7569617,29.5769447 L66.7569617,29.5769447 Z" id="Fill-17"></path>
                    <g id="Group-8" transform="translate(87.000000, 0.000000)">
                        <path d="M30.1780758,0 C27.8544467,0 30.7677905,0 24.5091559,0 C10.6661776,0 8.6021761,10.3825345 6.91344762,16.5897407 L0,42 L13.0817103,42 L16.4614648,29.5769447 L25.729942,29.5769447 L22.3501874,42 L35.4311319,42 C35.4311319,42 40.1733571,24.5703221 42.2419538,16.9668874 C46.133305,2.66517005 33.9645037,0 30.1780758,0 Z M19.0362971,20.1121338 C19.0362971,20.1121338 20.1621161,15.9768773 20.5718529,14.4682905 C20.9823557,12.9604894 22.2345421,11.7457627 23.8673625,11.7457627 C25.5009489,11.7457627 24.822394,11.7457627 26.7738136,11.7457627 C28.4510541,11.7457627 30.1459095,13.3431362 29.7116651,14.942081 C29.2107905,16.786957 28.3047742,20.1121338 28.3047742,20.1121338 L19.0362971,20.1121338 Z M35.0796006,38.0069593 L34.0610025,41.0477046 L32.5216173,41.0477046 C32.5216173,41.0477046 32.8624265,40.0294085 32.9681156,39.7143338 C32.7391225,39.7143338 32.338576,39.7143338 32.1731496,39.7143338 C31.7174609,40.4474127 30.9209631,41.0335616 30.0095859,41.0335616 L23.7065313,41.0335616 L24.2250207,39.5399035 C24.2250207,39.5399035 26.1197664,39.5399035 26.8458047,39.5399035 C26.8067457,39.4746885 26.7623257,39.4094736 26.7110128,39.3458301 L26.4337703,39.0024694 L25.4902268,37.8081715 C25.2466823,37.4946683 25.1233783,37.1858794 25.1233783,36.8896621 C25.1233783,36.7395892 25.1555445,36.5950163 25.2183453,36.4606578 C25.5185637,35.8202941 26.2698756,35.8202941 26.5164835,35.8202941 L33.6206311,35.8202941 C34.2126434,35.8202941 34.6897762,36.0371534 34.9631894,36.431586 C35.2442612,36.8385902 35.2856178,37.3980245 35.0796006,38.0069593 L35.0796006,38.0069593 Z" id="Fill-20"></path>
                        <polygon id="Path-3" points="23.2432432 41.7658367 25.5625904 33.8333333 37.1891892 35.3432419 35.0026283 42"></polygon>
                    </g>
                </g>
                <g id="new-ups-logo" transform="translate(372.000000, 22.000000)">
                    <g id="Group-34">
                        <mask id="mask-6" fill="white">
                            <use xlink:href="#path-5"></use>
                        </mask>
                        <g id="Clip-32"></g>
                        <path d="M42.9238502,101.04662 C43.8675771,100.647277 66.5348282,90.914369 73.6599471,85.1112841 C81.1112599,79.0417196 85.0464229,70.3401033 85.0464229,59.9455129 L85.0464229,11.0171292 L84.446696,10.695321 C66.2847841,0.98800738 43.833859,1.6158155 42.8897533,1.64780812 C42.0180088,1.6158155 19.5708722,0.98800738 1.41312775,10.695321 L0.815295154,11.0171292 L0.815295154,59.9455129 C0.815295154,70.3401033 4.75273128,79.0417196 12.1976035,85.1112841 C19.3246167,90.914369 41.9839119,100.647277 42.9238502,101.04662" id="Fill-31" mask="url(#mask-6)"></path>
                        <path d="M3.40552423,60.1837638 C3.40552423,69.6565904 6.94895154,77.5497343 13.6361145,83.0012768 C19.6436123,87.8905018 37.8411366,96.0181328 42.9026344,98.2395498 C47.9701938,96.0181328 66.1696123,87.8905018 72.1691542,83.0012768 C78.8722291,77.5497343 82.4095947,69.6565904 82.4095947,60.1837638 L82.4095947,10.3750185 C57.0827841,8.03880443 27.1206872,9.47132103 3.40552423,31.0806421 L3.40552423,60.1837638 Z M42.9026344,101.938649 C42.9026344,101.938649 18.8995419,91.6592325 11.4845991,85.6178967 C3.73171806,79.304059 0,70.4394686 0,60.1837638 L0,9.65386716 C18.9476564,-0.478383764 42.9026344,0.318420664 42.9026344,0.318420664 C42.9026344,0.318420664 66.8678414,-0.478383764 85.8211806,9.65386716 L85.8211806,60.1837638 C85.8211806,70.4394686 82.085674,79.304059 74.332793,85.6178967 C66.9178502,91.6592325 42.9026344,101.938649 42.9026344,101.938649 L42.9026344,101.938649 Z" id="Fill-33" fill="#C7C6CD" mask="url(#mask-6)"></path>
                    </g>
                    <path d="M68.5139124,53.2068722 C71.9081498,55.1281157 73.2760403,56.3954218 73.3308795,58.7290516 C73.3961458,61.3224698 71.5370198,62.884178 68.7077806,62.8726401 C66.2450371,62.854775 63.3038024,61.5364789 61.3303636,59.8471096 L61.3303636,66.695401 C63.7479226,68.0806913 66.76292,69 69.8103574,69 C77.4364817,69 80.838443,63.8075807 80.9894439,59.055462 C81.1323347,54.7194513 79.8864808,51.4367377 73.4409441,47.7885338 C70.5607276,46.1616923 68.2899213,45.0912746 68.3671596,42.3821054 C68.440536,39.7436522 70.7194523,38.8142944 72.9006621,38.8340205 C75.5997548,38.8574684 78.2050029,40.2997037 79.8154216,41.8908149 L79.8154216,35.4236458 C78.4575722,34.4194778 75.5854657,32.8834507 71.3493307,33.0070177 C66.2716843,33.1525439 60.9654126,36.6905797 61.0001698,42.6980945 C61.012528,46.6511219 62.1560411,49.6115192 68.5139124,53.2068722" id="Fill-35" fill="#C7C6CD"></path>
                    <path d="M41.5046509,39.6395711 C42.1157568,39.3354311 43.1474208,39.0937855 44.1648032,39.0937855 C48.5214695,39.0937855 50.3247205,42.6002972 50.3247205,51.0772077 C50.3247205,59.3458031 48.2613925,63.3401509 43.9408062,63.3401509 C42.9309405,63.3401509 42.0424692,63.088279 41.5046509,62.8845089 L41.5046509,39.6395711 Z M41.5046509,69.0722256 C42.2544395,69.2919034 43.341727,69.4998398 44.8830217,69.4998398 C53.214883,69.4998398 58,61.9349707 58,50.8832853 C58,39.8554614 53.0743212,33 44.1133139,33 C40.0208588,33 36.7157756,33.9237829 34,35.6929464 L34,85 L41.5046509,85 L41.5046509,69.0722256 L41.5046509,69.0722256 Z" id="Fill-36" fill="#C7C6CD"></path>
                    <path d="M18.4379707,68 C23.1352972,68 27.0706043,66.9559964 30,65.0317616 L30,33 L22.3406309,33 L22.3406309,60.8324566 C21.505636,61.384773 20.268891,61.7359782 18.709901,61.7359782 C15.1943957,61.7359782 14.6693552,58.6313243 14.6693552,56.5396202 L14.6693552,33 L7,33 L7,56.209857 C7,64.0369267 10.8496568,68 18.4379707,68" id="Fill-37" fill="#C7C6CD"></path>
                </g>
                <g id="nexive-seeklogo.com" transform="translate(643.000000, 0.000000)">
                    <g id="g10" transform="translate(69.500000, 69.500000) scale(-1, 1) rotate(-180.000000) translate(-69.500000, -69.500000) ">
                        <g id="g12">
                            <g id="g14-Clipped">
                                <mask id="mask-8" fill="white">
                                    <use xlink:href="#path-7"></use>
                                </mask>
                                <g id="path16"></g>
                                <g id="g14" mask="url(#mask-8)">
                                    <g transform="translate(20.894094, 21.436798)">
                                        <g id="g20" transform="translate(0.135459, 0.191140)">
                                            <path d="M56.1698375,57.7979488 C56.0431162,57.7979488 55.9123246,57.8508624 55.7712216,57.9594031 C54.8081938,58.7178316 53.9271143,59.601082 53.1583745,60.5926017 C52.9700563,60.8341049 52.9762974,60.9912176 53.1583745,61.2264797 C53.9474657,62.2549033 54.8676199,63.1462942 55.9163949,63.9478676 C55.9755496,63.9926407 56.0922309,64.0336148 56.1698375,64.0336148 C56.249615,64.0336148 56.3641255,63.9926407 56.425451,63.9478676 C57.4701557,63.1462942 58.3859683,62.2549033 59.1813006,61.2264797 C59.3612069,60.9912176 59.367448,60.8341049 59.1813006,60.5926017 C58.4147316,59.601082 57.5293104,58.7178316 56.566554,57.9594031 C56.4314207,57.8508624 56.2965589,57.7979488 56.1698375,57.7979488 M92.2778171,47.896319 C92.2653349,55.7126096 77.5738019,69.2552389 61.9208691,77.883143 C43.8618593,87.8355156 23.3148242,93.7053993 16.5454091,89.9743111 C8.83141803,85.7176143 4.59941423,64.4732048 4.59941423,47.896319 C4.59941423,31.1845712 8.58611594,10.2123277 16.5454091,5.82049766 C23.7584845,1.84627814 43.4141287,7.70964939 61.9208691,17.9138365 C77.8210034,26.6766026 92.2653349,39.6960654 92.2778171,47.896319 M21.9672908,95.5657878 C18.7780923,95.5657878 16.1793554,95.0241694 14.2413603,93.958842 C9.69621645,91.4523647 5.95074656,84.89379 3.3992249,74.9921602 C1.33233769,66.9615015 0.144359196,57.0842934 0.144359196,47.896319 C0.144359196,38.1032299 1.31605658,28.2794781 3.44019904,20.2404075 C5.19421754,13.5936434 8.49222819,5.00481393 14.2391895,1.83596677 C16.3226292,0.688962403 19.0600269,0.110440212 22.3762181,0.110440212 C34.2793393,0.110440212 52.2810939,7.70150884 64.0778452,14.2009289 C71.5077308,18.2983421 79.3747642,23.9042005 85.128238,29.2015317 C92.8153652,36.2857151 96.72039,42.5723952 96.7285305,47.8944195 C96.7184905,54.2201743 90.5072462,61.3675827 85.2978329,66.2497455 C79.3769351,71.7967205 71.4464052,77.531471 64.0778452,81.5898096 C51.8680963,88.3223209 33.4799367,95.5657878 21.9672908,95.5657878 M21.9672908,94.2410479 C33.2490163,94.2410479 51.3715224,87.0814288 63.4401683,80.4324938 C76.7005915,73.1192895 95.3875096,58.1924944 95.4037907,47.896319 C95.3875096,36.9440147 76.277554,22.4402571 63.4401683,15.3623149 C51.7823491,8.93860202 34.0318664,1.43110977 22.3762181,1.43110977 C19.2849776,1.43110977 16.7641187,1.95861781 14.8790372,2.99708143 C5.67071142,8.07570307 1.47126985,29.8313394 1.46937039,47.896319 C1.47126985,56.976024 2.6448667,66.7324805 4.68109115,74.6630103 C7.14062452,84.2026568 10.6654853,90.470885 14.8790372,92.7955565 C16.6230157,93.754514 19.0049424,94.2410479 21.9672908,94.2410479 M72.4759414,54.6044357 C72.5128452,54.6044357 72.5413372,54.573773 72.5413372,54.5409394 C72.5413372,54.5346983 72.5372669,54.5308994 72.5372669,54.5268291 C72.5372669,54.5268291 69.435715,45.6473818 68.4829986,42.6665815 C68.1782704,41.713865 67.6059893,41.1944976 66.7799942,41.1944976 L64.8539386,41.1944976 C64.0260441,41.1944976 63.4700441,41.7179353 63.1531051,42.6665815 C62.161314,45.6104779 60.1845156,51.4925725 59.1967948,54.4348408 C59.1948953,54.4511219 59.1867548,54.467403 59.1867548,54.4796139 C59.1867548,54.5471805 59.2418392,54.6044357 59.3113053,54.6044357 L62.2535737,54.6044357 C62.4967049,54.6044357 62.7482481,54.397937 62.8320958,54.1607754 C63.7601192,51.4437291 64.8805311,48.1212968 65.7578117,45.4430538 C65.8047556,45.2957098 65.8742217,44.7663022 65.8742217,44.7663022 C65.8742217,44.7663022 65.9458586,45.2957098 65.9949733,45.4430538 C66.9436194,48.3012031 67.6795257,50.441898 68.2520781,52.081406 C68.8959961,53.9339252 69.6319024,54.6044357 71.5557872,54.6044357 L72.4759414,54.6044357 L72.4759414,54.6044357 Z M40.4469231,54.4142181 C40.434441,54.4348408 40.4263004,54.4570917 40.4263004,54.4796139 C40.4263004,54.5471805 40.4835556,54.6044357 40.5489515,54.6044357 L43.7017889,54.6044357 C43.9612012,54.6044357 44.2596883,54.5043069 44.4192432,54.2180307 L46.4861304,50.8239614 L48.5511182,54.2180307 C48.7147433,54.5043069 49.0113309,54.6044357 49.2688439,54.6044357 L52.4295505,54.6044357 C52.4971171,54.6044357 52.5481312,54.5471805 52.5481312,54.4796139 C52.5481312,54.4570917 52.544061,54.4348408 52.5318501,54.4163889 L48.6249259,47.94329 L52.8835222,41.3784741 C52.8938335,41.3600222 52.8998033,41.3377713 52.8998033,41.3152491 C52.8998033,41.2476825 52.8466183,41.1944976 52.779323,41.1944976 L49.1196003,41.1944976 C48.8639869,41.1944976 48.5204554,41.3559519 48.3999752,41.5809026 L46.4861304,44.9991222 L44.5665873,41.5809026 C44.4480065,41.3559519 44.1063745,41.1944976 43.8488616,41.1944976 L40.1972794,41.1944976 C40.1299842,41.1944976 40.0767992,41.2476825 40.0767992,41.3152491 C40.0767992,41.3377713 40.0786987,41.3600222 40.0930803,41.3784741 L44.3457068,47.94329 L40.4469231,54.4142181 Z M75.9291653,49.0984349 L81.9461217,49.0984349 C81.8500632,50.9118794 80.5926186,51.993488 78.9384576,51.993488 C77.2804976,51.993488 76.0252239,50.9118794 75.9291653,49.0984349 L75.9291653,49.0984349 Z M85.3931046,48.1660699 C85.3931046,46.7577536 85.1415614,46.461166 84.0070392,46.461166 L75.9454464,46.461166 C75.9454464,45.1996512 76.8837812,43.8789816 79.07142,43.8789816 C81.0281383,43.8789816 82.9764448,44.3655155 83.755496,44.6089182 C83.8556248,44.6436512 83.959824,44.567944 83.959824,44.4697147 L83.959824,42.0245629 C83.959824,41.8527972 83.843414,41.7466986 83.6838591,41.6422281 C82.9560934,41.1760456 80.3861198,40.9388841 79.07142,40.9388841 C74.6103952,40.9388841 72.5413372,43.1878484 72.5413372,47.8963461 C72.5413372,52.7171835 75.4567417,54.8600492 79.0836308,54.8600492 C82.101335,54.8600492 85.3931046,52.9136422 85.3931046,48.1660699 L85.3931046,48.1660699 Z M30.6516633,49.0984349 L36.6705191,49.0984349 C36.5744606,50.9118794 35.3172874,51.993488 33.6612269,51.993488 C32.0070659,51.993488 30.7517921,50.9118794 30.6516633,49.0984349 L30.6516633,49.0984349 Z M40.1177733,48.1660699 C40.1177733,46.7577536 39.8662301,46.461166 38.7336074,46.461166 L30.6701152,46.461166 C30.6701152,45.1996512 31.6043797,43.8789816 33.800159,43.8789816 C35.7525358,43.8789816 37.703013,44.3655155 38.477994,44.6089182 C38.5781228,44.6436512 38.6863922,44.567944 38.6863922,44.4697147 L38.6863922,42.0245629 C38.6863922,41.8527972 38.5721531,41.7466986 38.4063571,41.6422281 C37.6764205,41.1760456 35.1107886,40.9388841 33.800159,40.9388841 C29.3328932,40.9388841 27.2638351,43.1878484 27.2638351,47.8963461 C27.2638351,52.7171835 30.1773402,54.8600492 33.8064001,54.8600492 C36.8260038,54.8600492 40.1177733,52.9136422 40.1177733,48.1660699 L40.1177733,48.1660699 Z M58.0560315,54.4796139 L58.0560315,41.3152491 C58.0560315,41.2476825 57.9987763,41.1944976 57.9333805,41.1944976 L54.4047207,41.1944976 C54.3349833,41.1944976 54.28614,41.2476825 54.28614,41.3152491 L54.28614,54.4796139 C54.28614,54.5471805 54.3349833,54.6044357 54.4047207,54.6044357 L57.9333805,54.6044357 C57.9987763,54.6044357 58.0560315,54.5471805 58.0560315,54.4796139 L58.0560315,54.4796139 Z M25.294906,48.7386223 L25.294906,41.3152491 C25.294906,41.2476825 25.2398215,41.1944976 25.1722549,41.1944976 L23.0684638,41.1944976 C22.2774731,41.1944976 21.5904102,41.8324458 21.5904102,42.6174668 L21.5904102,48.231737 C21.5904102,50.2353992 20.4862794,51.2554109 18.4275328,51.2535115 L16.0211844,51.2535115 C15.9536178,51.2535115 15.8963625,51.2003265 15.8963625,51.1308604 L15.8963625,41.3152491 C15.8963625,41.2476825 15.8434489,41.1944976 15.7737115,41.1944976 L12.3145178,41.1944976 C12.249122,41.1944976 12.195937,41.2476825 12.195937,41.3152491 L12.195937,54.1729862 C12.195937,54.4101478 12.3861547,54.6044357 12.6252157,54.6044357 L18.7219496,54.6044357 C21.5781994,54.6044357 25.294906,53.6883518 25.294906,48.7386223 L25.294906,48.7386223 Z" id="path22" fill="#C7C6CD" fill-rule="nonzero"></path>
                                        </g>
                                        <g id="g24" transform="translate(12.303447, 40.956631)"></g>
                                    </g>
                                </g>
                            </g>
                        </g>
                    </g>
                </g>
            </g>
        </g>
    </g>
</svg>