<?xml version="1.0" encoding="UTF-8"?>
<svg width="80px" height="80px" viewBox="0 0 80 80" version="1.1" xmlns="http://www.w3.org/2000/svg" xmlns:xlink="http://www.w3.org/1999/xlink">
    <!-- Generator: Sketch 46.2 (44496) - http://www.bohemiancoding.com/sketch -->
    <title>Group 5</title>
    <desc>Created with Sketch.</desc>
    <defs></defs>
    <g id="Website" stroke="none" stroke-width="1" fill="none" fill-rule="evenodd">
        <g id="Home-2" transform="translate(-814.000000, -1521.000000)">
            <g id="Group-5" transform="translate(814.000000, 1521.000000)">
                <circle id="Oval" fill="#DADFFD" cx="40" cy="40" r="40"></circle>
                <g id="network" transform="translate(15.000000, 15.000000)" fill-rule="nonzero" fill="#3454F6">
                    <path d="M18.7936508,14.3492063 L29.9047619,14.3492063 C30.3428571,14.3492063 30.6984127,13.9936508 30.6984127,13.5555556 C30.6984127,10.4920635 28.2063492,8 25.1428571,8 L23.5555556,8 C20.4920635,8 18,10.4920635 18,13.5555556 C18,13.9936508 18.3555556,14.3492063 18.7936508,14.3492063 Z" id="Shape"></path>
                    <circle id="Oval" cx="24.1746032" cy="3.17460317" r="3.17460317"></circle>
                    <path d="M12.6984127,20.5555556 C12.6984127,17.4920635 10.2063492,15 7.14285714,15 L5.55555556,15 C2.49206349,15 0,17.4920635 0,20.5555556 C0,20.9936508 0.355555556,21.3492063 0.793650794,21.3492063 L11.9047619,21.3492063 C12.3428571,21.3492063 12.6984127,20.9936508 12.6984127,20.5555556 Z" id="Shape"></path>
                    <circle id="Oval" cx="6.17460317" cy="10.1746032" r="3.17460317"></circle>
                    <path d="M44.1428571,15 L42.5555556,15 C39.4920635,15 37,17.4920635 37,20.5555556 C37,20.9936508 37.3555556,21.3492063 37.7936508,21.3492063 L48.9047619,21.3492063 C49.3428571,21.3492063 49.6984127,20.9936508 49.6984127,20.5555556 C49.6984127,17.4920635 47.2063492,15 44.1428571,15 Z" id="Shape"></path>
                    <circle id="Oval" cx="43.1746032" cy="10.1746032" r="3.17460317"></circle>
                    <path d="M24.9365079,34.8730159 C29.3126984,34.8730159 32.8730159,31.3126984 32.8730159,26.9365079 C32.8730159,22.5603175 29.3126984,19 24.9365079,19 C20.5603175,19 17,22.5603175 17,26.9365079 C17,31.3126984 20.5603175,34.8730159 24.9365079,34.8730159 Z" id="Shape"></path>
                    <path d="M27.0793651,37 L22.3174603,37 C16.6285714,37 12,41.6285714 12,47.3174603 C12,47.7555556 12.3555556,48.1111111 12.7936508,48.1111111 L36.6031746,48.1111111 C37.0412698,48.1111111 37.3968254,47.7555556 37.3968254,47.3174603 C37.3968254,41.6285714 32.768254,37 27.0793651,37 Z" id="Shape"></path>
                </g>
            </g>
        </g>
    </g>
</svg>