<?xml version="1.0" encoding="utf-8"?>
<!-- Generator: Adobe Illustrator 21.0.1, SVG Export Plug-In . SVG Version: 6.00 Build 0)  -->
<svg version="1.1" id="Livello_1" xmlns="http://www.w3.org/2000/svg" xmlns:xlink="http://www.w3.org/1999/xlink" x="0px" y="0px"
	 viewBox="0 0 701 600" style="enable-background:new 0 0 701 600;" xml:space="preserve">
<style type="text/css">
	.st0{fill:#151C2E;}
	.st1{fill:url(#path-6_2_);fill-opacity:0.5;}
</style>
<title>Group Copy</title>
<desc>Created with Sketch.</desc>
<g id="Explorations-2">
	<g id="Home-variante" transform="translate(-739.000000, -279.000000)">
		<g id="Group-Copy" transform="translate(592.000000, 148.000000)">
			<g id="Shape">
				<g>
					<path id="path-6" class="st0" d="M324,262c-104.1,0-177,113.5-177,113.5S200.1,489,324,489c124.9,0,177-113.5,177-113.5
						S429.2,262,324,262z M323.7,448.2c-40.5,0-72.7-31.9-72.7-72s32.2-72,72.7-72s72.7,31.9,72.7,72S364.2,448.2,323.7,448.2z"/>
				</g>
				<g>
					
						<linearGradient id="path-6_2_" gradientUnits="userSpaceOnUse" x1="72.2925" y1="587.8485" x2="73.2003" y2="588.4321" gradientTransform="matrix(354 0 0 -227 -25416 133880)">
						<stop  offset="0" style="stop-color:#3D4352"/>
						<stop  offset="1" style="stop-color:#151C2E"/>
					</linearGradient>
					<path id="path-6_1_" class="st1" d="M324,262c-104.1,0-177,113.5-177,113.5S200.1,489,324,489c124.9,0,177-113.5,177-113.5
						S429.2,262,324,262z M323.7,448.2c-40.5,0-72.7-31.9-72.7-72s32.2-72,72.7-72s72.7,31.9,72.7,72S364.2,448.2,323.7,448.2z"/>
				</g>
			</g>
		</g>
	</g>
</g>
</svg>
