<?xml version="1.0" encoding="UTF-8"?>
<svg width="90px" height="90px" viewBox="0 0 90 90" version="1.1" xmlns="http://www.w3.org/2000/svg" xmlns:xlink="http://www.w3.org/1999/xlink">
    <!-- Generator: Sketch 46.2 (44496) - http://www.bohemiancoding.com/sketch -->
    <title>Group 5</title>
    <desc>Created with Sketch.</desc>
    <defs></defs>
    <g id="Website" stroke="none" stroke-width="1" fill="none" fill-rule="evenodd">
        <g id="Home-ALT" transform="translate(-305.000000, -3700.000000)">
            <g id="Group-6" transform="translate(112.000000, 3461.000000)">
                <g id="Group-5" transform="translate(193.000000, 239.000000)">
                    <circle id="Oval-2" fill="#DADFFD" cx="45" cy="45" r="45"></circle>
                    <path d="M62.25,35.5 L31,35.5 C29.62125,35.5 28.5,34.37875 28.5,33 C28.5,31.62125 29.62125,30.5 31,30.5 L32.25,30.5 L32.25,28 L31,28 C28.2425,28 26,30.2425 26,33 L26,59.25 C26,62.69625 28.80375,65.5 32.25,65.5 L62.25,65.5 C62.94,65.5 63.5,64.94 63.5,64.25 L63.5,36.75 C63.5,36.06 62.94,35.5 62.25,35.5 Z M56,53 C54.61875,53 53.5,51.88125 53.5,50.5 C53.5,49.11875 54.61875,48 56,48 C57.38125,48 58.5,49.11875 58.5,50.5 C58.5,51.88125 57.38125,53 56,53 Z" id="Shape" fill="#3454F6" fill-rule="nonzero"></path>
                    <g id="wallet-90" transform="translate(35.000000, 25.000000)" fill-rule="nonzero" fill="#3454F6">
                        <path d="M0,1.25 L0,7.5 L23.75,7.5 L23.75,1.25 C23.75,0.56 23.19,0 22.5,0 L1.25,0 C0.56,0 0,0.56 0,1.25 Z" id="Shape"></path>
                    </g>
                </g>
            </g>
        </g>
    </g>
</svg>