<?xml version="1.0" encoding="utf-8"?>
<!-- Generator: Adobe Illustrator 21.0.1, SVG Export Plug-In . SVG Version: 6.00 Build 0)  -->
<svg version="1.1" id="Livello_1" xmlns="http://www.w3.org/2000/svg" xmlns:xlink="http://www.w3.org/1999/xlink" x="0px" y="0px"
	 viewBox="0 0 376 300" style="enable-background:new 0 0 376 300;" xml:space="preserve">
<style type="text/css">
	.st0{fill:none;}
	.st1{fill:#EFF0F3;}
	.st2{fill:#333149;}
	.st3{fill:none;stroke:#FDD453;stroke-width:3;}
	.st4{fill:#7BE9A0;}
	.st5{fill:#F0F1F4;}
	.st6{fill:#FFFFFF;}
	.st7{fill:#4573F1;}
	.st8{fill:none;stroke:#EFF0F3;stroke-width:3;stroke-linecap:round;stroke-linejoin:round;}
	.st9{font-family:'HKGrotesk-Bold';}
	.st10{font-size:11.2223px;}
	.st11{fill:none;stroke:#FFFFFF;}
	.st12{fill:#C7C6CD;}
	.st13{fill:#FDD453;}
	.st14{fill:#375AF1;}
	.st15{fill:none;stroke:#FFFFFF;stroke-width:2;stroke-linecap:round;stroke-linejoin:round;}
</style>
<title>Illustration / Prodotti</title>
<desc>Created with Sketch.</desc>
<g id="Website">
	<g id="Marketplace" transform="translate(-843.000000, -1663.000000)">
		<g id="Illustration-_x2F_-Prodotti" transform="translate(812.000000, 1657.000000)">
			<g id="Group-16">
				<rect id="Rectangle-12-Copy-4" x="31" y="31" class="st0" width="376" height="300"/>
				<g id="Page-1" transform="translate(31.000000, 5.000000)">
					<g id="Group-23" transform="translate(0.000000, 0.646000)">
						<path id="Fill-1" class="st1" d="M126.5,74l-5.8,6.5h61.4l-5.8-6.5l-24.9-9.4L126.5,74z M178.4,71L190,84.1h-77.2L124.4,71
							l25.2-9.5v-4.7c-4.1-0.9-7.1-4.6-6.8-9c0.3-3.9,3.2-7.2,7.1-7.9c3.7-0.7,7.3,1.1,9.1,4.3c0.2,0.4,0.1,1-0.4,1.2l-1.7,0.7
							c-0.4,0.2-0.8,0-1-0.3c-0.9-1.5-2.5-2.5-4.4-2.5c-3.2,0-5.7,2.9-5,6.2c0.5,2.3,2.7,3.9,5.1,3.9h0.4c0.7,0,1.2,0.6,1.2,1.2v6.8
							L178.4,71z"/>
						<path id="Fill-3" class="st2" d="M183,70.5l-12.9-4.2c-0.8-0.2-1.5,0.2-1.7,1c-1.3,6.7-8.5,11.8-17.3,11.8
							c-8.8,0-16.1-5.1-17.3-11.8c-0.2-0.8-0.9-1.3-1.7-1l-11.5,3.9c-1.9,0.6-3.6,1.5-5.2,2.7L89,92.9c-0.6,0.4-0.7,1.3-0.2,1.9
							l14.2,17.1c0.4,0.5,1.2,0.6,1.7,0.2l13-9.2c0.9-0.6,2,0,2,1.1v50.8c0,0.7,0.6,1.3,1.3,1.3h60.5c0.7,0,1.3-0.6,1.3-1.3v-50.9
							c0-1,1.2-1.7,2-1.1l13.2,9.3c0.6,0.4,1.4,0.3,1.8-0.3l12.6-17.1c0.4-0.6,0.3-1.3-0.2-1.8l-25.8-20.6
							C185.4,71.5,184.3,70.9,183,70.5"/>
						<path id="Stroke-5" class="st3" d="M254,89.9c0,0-27-14.5-37.5,18.8"/>
						<path id="Fill-7" class="st1" d="M74,70.2l28.2-10.7l28.2,10.7l6.5,7.4H67.4L74,70.2z M132.8,66.8L104.2,56v-7.7
							c0-0.8-0.6-1.4-1.4-1.4h-0.4c-2.7,0-5.2-1.8-5.8-4.5c-0.8-3.7,2-7,5.6-7c2,0,3.9,1.1,4.9,2.8c0.2,0.4,0.7,0.6,1.2,0.4l2-0.8
							c0.5-0.2,0.7-0.8,0.5-1.3c-2-3.6-6-5.6-10.3-4.9c-4.3,0.8-7.7,4.5-8,8.9c-0.3,5,3.1,9.3,7.7,10.2V56L71.6,66.8L58.5,81.6h87.4
							L132.8,66.8z"/>
						<g id="Group-11" transform="translate(0.000000, 30.000000)">
							<path id="Fill-9" class="st4" d="M138,36.2l-14.6-4.8c-0.9-0.3-1.7,0.3-1.9,1.2C120,40.2,111.8,46,101.8,46
								c-10,0-18.2-5.8-19.6-13.3c-0.2-0.9-1-1.4-1.9-1.2l-13,4.4c-2.1,0.7-4.1,1.7-5.8,3.1L31.6,61.6c-0.7,0.5-0.8,1.5-0.2,2.1
								l16.1,19.4c0.5,0.6,1.3,0.7,2,0.3l14.7-10.4c1-0.7,2.3,0,2.3,1.2v57.5c0,0.8,0.7,1.5,1.5,1.5h68.5c0.8,0,1.5-0.7,1.5-1.5
								V73.9c0-1.2,1.3-1.9,2.3-1.2l14.9,10.6c0.6,0.5,1.5,0.3,2-0.3l14.3-19.3c0.5-0.6,0.3-1.5-0.3-2l-29.2-23.3
								C140.7,37.4,139.4,36.7,138,36.2"/>
						</g>
						<path id="Fill-12" class="st5" d="M267.3,235.7H134.7c-11,0-19.9-8.9-19.9-19.9v-93c0-11,8.9-19.9,19.9-19.9h132.6
							c11,0,19.9,8.9,19.9,19.9v93C287.3,226.7,278.3,235.7,267.3,235.7"/>
						<polygon id="Fill-14" class="st6" points="135.6,224.4 266.4,224.4 266.4,114.1 135.6,114.1 						"/>
						<path id="Fill-16" class="st1" d="M186.1,123.1h-26.6c-2.9,0-5.3,2.4-5.3,5.3V155c0,2.9,2.4,5.3,5.3,5.3h26.6
							c2.9,0,5.3-2.4,5.3-5.3v-26.6C191.4,125.5,189.1,123.1,186.1,123.1 M186.1,125.1c1.8,0,3.3,1.5,3.3,3.3V155
							c0,1.8-1.5,3.3-3.3,3.3h-26.6c-1.8,0-3.3-1.5-3.3-3.3v-26.6c0-1.8,1.5-3.3,3.3-3.3H186.1"/>
						<path id="Fill-17" class="st1" d="M230.3,123.1h-26.6c-2.9,0-5.3,2.4-5.3,5.3V155c0,2.9,2.4,5.3,5.3,5.3h26.6
							c2.9,0,5.3-2.4,5.3-5.3v-26.6C235.7,125.5,233.3,123.1,230.3,123.1 M230.3,125.1c1.8,0,3.3,1.5,3.3,3.3V155
							c0,1.8-1.5,3.3-3.3,3.3h-26.6c-1.8,0-3.3-1.5-3.3-3.3v-26.6c0-1.8,1.5-3.3,3.3-3.3H230.3"/>
						<polygon id="Fill-18" class="st7" points="83.5,248 126.4,248 139.9,234.5 120.9,210.6 						"/>
						<path id="Fill-19" class="st6" d="M127.8,169.2c0,1.5-1.2,2.7-2.7,2.7c-1.5,0-2.7-1.2-2.7-2.7s1.2-2.7,2.7-2.7
							C126.6,166.5,127.8,167.7,127.8,169.2"/>
						<path id="Stroke-20" class="st8" d="M187.5,205.3h25.8"/>
						<path id="Fill-21" class="st1" d="M240.4,194.8h-79.8c-3.5,0-6.3,2.8-6.3,6.3v8.4c0,3.5,2.8,6.3,6.3,6.3h79.8
							c3.5,0,6.3-2.8,6.3-6.3v-8.4C246.7,197.6,243.8,194.8,240.4,194.8 M240.4,196.8c2.4,0,4.3,1.9,4.3,4.3v8.4
							c0,2.4-1.9,4.3-4.3,4.3h-79.8c-2.4,0-4.3-1.9-4.3-4.3v-8.4c0-2.4,1.9-4.3,4.3-4.3H240.4"/>
						<path id="Fill-22" class="st1" d="M170.2,205.4c0,2.3-1.9,4.2-4.2,4.2c-2.3,0-4.2-1.9-4.2-4.2c0-2.3,1.9-4.2,4.2-4.2
							C168.3,201.2,170.2,203.1,170.2,205.4"/>
					</g>
					<text transform="matrix(1 0 0 1 224.9561 209.5491)" class="st4 st9 st10">XL</text>
					<g id="Group-30" transform="translate(123.000000, 136.646000)">
						<path id="Stroke-24" class="st8" d="M64.5,41.9h25.8"/>
						<path id="Fill-26" class="st1" d="M117.4,31.4H37.5c-3.5,0-6.3,2.8-6.3,6.3v8.4c0,3.5,2.8,6.3,6.3,6.3h79.8
							c3.5,0,6.3-2.8,6.3-6.3v-8.4C123.7,34.2,120.8,31.4,117.4,31.4 M117.4,33.4c2.4,0,4.3,1.9,4.3,4.3v8.4c0,2.4-1.9,4.3-4.3,4.3
							H37.5c-2.4,0-4.3-1.9-4.3-4.3v-8.4c0-2.4,1.9-4.3,4.3-4.3H117.4"/>
						<path id="Fill-28" class="st1" d="M47.2,41.9c0,2.3-1.9,4.2-4.2,4.2c-2.3,0-4.2-1.9-4.2-4.2s1.9-4.2,4.2-4.2
							C45.3,37.7,47.2,39.6,47.2,41.9"/>
					</g>
					<text transform="matrix(1 0 0 1 232.1211 182.177)" class="st4 st9 st10">L</text>
					<g id="Group-57" transform="translate(69.000000, 47.646000)">
						<path id="Stroke-31" class="st11" d="M212.6,122.2c0,2.7-2.2,4.9-4.9,4.9c-2.7,0-4.9-2.2-4.9-4.9c0-2.7,2.2-4.9,4.9-4.9
							C210.4,117.4,212.6,119.6,212.6,122.2z"/>
						<path id="Fill-33" class="st7" d="M38.2,155.6l-0.2,0.2c-9.8,12.3-7.8,30.4,4.6,40.2c9.9,7.9,24.4,6.2,32.2-3.7l14.7-19.2
							c2.5-3.1,3.2-7.2,1.9-11.3c-3-9.1,4.5-4.4-5-4.4L71,143.9c-3.6-3.2-8.7-4.2-13.2-2.6C46.7,145.3,38.2,155.6,38.2,155.6"/>
						<path id="Fill-35" class="st7" d="M81,176.5L81,176.5c2,1.6-2.6,8.9-0.6,8.3l34.3-43.8c1.6-2,1.2-5-0.8-6.6
							c-2-1.6-5-1.2-6.6,0.8l-31.9,34.6C73.9,171.8,79,174.9,81,176.5"/>
						<path id="Fill-37" class="st7" d="M104.1,183.6l0-0.2c-0.5-2.3-3.6-3.7-6.4-3.2l-33.3,4.8c-2.7,0.8-4.2,7.8-3.4,10.5
							c0.8,2.7,0.3,5.1,3,4.3l36.6-10.6C103.2,188.5,104.9,186.3,104.1,183.6"/>
						<polygon id="Fill-39" class="st12" points="197.4,70.5 218.3,93 218,74 						"/>
						<path id="Fill-41" class="st13" d="M203,32.9c-2.9-1.5-6.3-1.8-9.4-0.8l-12.6,4.1c-3.7,1.2-5.7,5.1-4.5,8.7l4,12.7
							c1,3.1,3.2,5.7,6.1,7.2l47,24.2c3.4,1.8,7.6,0.4,9.4-3L253,66.4c1.8-3.4,0.4-7.6-3-9.4L203,32.9z"/>
						<path id="Fill-43" class="st7" d="M249.8,173.1l-5.7-32.9c0,0,0-0.1,0-0.1c-1.3-8.5-5.9-16.2-12.9-21.3l-13.2-9.6v43.6
							c0,2.2-1.7,4.1-3.9,4.2c-1.5,0.1-3.1-0.3-4.4-1.2l-14.7-9.1c-2.7-1.9-5.9-2-8,0.6c-2.2,2.8-0.5,5.3,2.2,8.1l23.1,24.3
							c1.6,1.6,3.7,2.5,5.9,2.7c0.2,0,0.5,0,0.7,0c1.8,0,3.5,0.3,5.1,1c1.5,0.6,2.9,1.6,4.1,2.8L243,201h34.8L249.8,173.1z"/>
						<polygon id="Fill-45" class="st14" points="231.2,118.8 218,152.8 218,109.2 						"/>
						<polygon id="Fill-47" class="st1" points="107.2,89.9 106.2,86.9 101.5,86.9 100.5,89.9 95.3,89.9 95.3,102.5 112.5,102.5 
							112.5,89.9 						"/>
						<path id="Fill-49" class="st6" d="M107.9,96.2c0,2.2-1.8,4-4,4c-2.2,0-4-1.8-4-4c0-2.2,1.8-4,4-4
							C106.1,92.2,107.9,94,107.9,96.2"/>
						<path id="Stroke-51" class="st15" d="M196.3,46l22.4,11.6"/>
						<path id="Stroke-53" class="st15" d="M193.2,51.7l31.9,16.5"/>
						<polygon id="Fill-55" class="st1" points="146.7,96.3 140.2,96.3 140.2,93.6 146.7,93.6 146.7,87.5 149.4,87.5 149.4,93.6 
							156,93.6 156,96.3 149.4,96.3 149.4,102.4 146.7,102.4 						"/>
					</g>
				</g>
			</g>
		</g>
	</g>
</g>
</svg>
