<?xml version="1.0" encoding="UTF-8"?>
<svg width="90px" height="90px" viewBox="0 0 90 90" version="1.1" xmlns="http://www.w3.org/2000/svg" xmlns:xlink="http://www.w3.org/1999/xlink">
    <!-- Generator: Sketch 46.2 (44496) - http://www.bohemiancoding.com/sketch -->
    <title>Group 16</title>
    <desc>Created with Sketch.</desc>
    <defs></defs>
    <g id="Website" stroke="none" stroke-width="1" fill="none" fill-rule="evenodd">
        <g id="Marketplace" transform="translate(-912.000000, -930.000000)">
            <g id="Group-16" transform="translate(912.000000, 930.000000)">
                <circle id="Oval-Copy-3" fill="#DADFFD" cx="45" cy="45" r="45"></circle>
                <g id="bulb-63-glyph-48" transform="translate(22.000000, 21.000000)" fill-rule="nonzero" fill="#3454F6">
                    <path d="M5,24 L1,24 C0.448,24 0,23.553 0,23 C0,22.447 0.448,22 1,22 L5,22 C5.552,22 6,22.447 6,23 C6,23.553 5.552,24 5,24 Z" id="Shape"></path>
                    <path d="M10.272,11.272 C10.016,11.272 9.76,11.174 9.565,10.979 L6.737,8.15 C6.346,7.759 6.346,7.127 6.737,6.736 C7.128,6.345 7.76,6.345 8.151,6.736 L10.979,9.565 C11.37,9.956 11.37,10.588 10.979,10.979 C10.784,11.175 10.528,11.272 10.272,11.272 Z" id="Shape"></path>
                    <path d="M23,6 C22.448,6 22,5.553 22,5 L22,1 C22,0.447 22.448,0 23,0 C23.552,0 24,0.447 24,1 L24,5 C24,5.553 23.552,6 23,6 Z" id="Shape"></path>
                    <path d="M35.728,11.272 C35.472,11.272 35.216,11.174 35.021,10.979 C34.63,10.588 34.63,9.956 35.021,9.565 L37.849,6.736 C38.239,6.345 38.872,6.345 39.263,6.736 C39.654,7.127 39.654,7.759 39.263,8.15 L36.435,10.979 C36.24,11.175 35.984,11.272 35.728,11.272 Z" id="Shape"></path>
                    <path d="M45,24 L41,24 C40.448,24 40,23.553 40,23 C40,22.447 40.448,22 41,22 L45,22 C45.552,22 46,22.447 46,23 C46,23.553 45.552,24 45,24 Z" id="Shape"></path>
                    <path d="M23,10 C15.832,10 10,15.832 10,23 C10,28.25 13.187,32.98 18,34.988 L18,41 L28,41 L28,34.988 C32.813,32.98 36,28.25 36,23 C36,15.832 30.168,10 23,10 Z" id="Shape"></path>
                    <path d="M21,46 L25,46 C26.657,46 28,44.657 28,43 L18,43 C18,44.657 19.343,46 21,46 Z" id="Shape"></path>
                </g>
            </g>
        </g>
    </g>
</svg>