<?xml version="1.0" encoding="UTF-8"?>
<svg width="438px" height="348px" viewBox="0 0 438 348" version="1.1" xmlns="http://www.w3.org/2000/svg" xmlns:xlink="http://www.w3.org/1999/xlink">
    <!-- Generator: Sketch 46.2 (44496) - http://www.bohemiancoding.com/sketch -->
    <title>Illustration / Grey bar / Reddito</title>
    <desc>Created with Sketch.</desc>
    <defs>
        <linearGradient x1="50%" y1="0%" x2="50%" y2="44.919544%" id="linearGradient-1">
            <stop stop-color="#FFFFFF" stop-opacity="0" offset="0%"></stop>
            <stop stop-color="#FDFDFD" offset="100%"></stop>
        </linearGradient>
        <circle id="path-2" cx="190.710938" cy="179.230469" r="168.230469"></circle>
    </defs>
    <g id="Website" stroke="none" stroke-width="1" fill="none" fill-rule="evenodd">
        <g id="Marketplace" transform="translate(-832.000000, -3612.000000)">
            <g id="Illustration-/-Grey-bar-/-Reddito" transform="translate(812.000000, 3595.000000)">
                <g id="Group-2">
                    <rect id="Rectangle-12-Copy-3" opacity="0.391644022" x="0" y="0" width="476" height="380"></rect>
                    <g id="Group-11" transform="translate(19.000000, 17.000000)">
                        <g id="Oval-7">
                            <use fill="#F0F1F4" xlink:href="#path-2"></use>
                            <use fill="url(#linearGradient-1)" xlink:href="#path-2"></use>
                        </g>
                        <path d="M296.49393,8.39865793 L436.528689,230.465614 L436.528689,230.465614 C441.242101,237.940136 439.003778,247.820408 431.529256,252.533819 C428.97428,254.14498 426.015424,255 422.99487,255 L142.096743,255 L142.096743,255 C133.260187,255 126.096743,247.836556 126.096743,239 C126.096743,235.964946 126.959986,232.992492 128.585718,230.429574 L269.449086,8.36261756 L269.449086,8.36261756 C274.182402,0.900684554 284.068604,-1.31129681 291.530537,3.4220189 C293.53342,4.69250465 295.228787,6.3923955 296.49393,8.39865793 Z" id="Triangle-Copy-2" fill="#3454F6"></path>
                        <path d="M184.093511,104.957359 L267.352078,236.58519 L267.352078,236.58519 C270.89488,242.186191 269.22638,249.598708 263.625379,253.141509 C261.706053,254.355541 259.481622,255 257.210569,255 L89.900495,255 L89.900495,255 C83.273078,255 77.900495,249.627417 77.900495,243 C77.900495,240.711434 78.5549236,238.470591 79.7866045,236.541733 L163.838111,104.913902 L163.838111,104.913902 C167.404913,99.3281547 174.824521,97.6914764 180.410269,101.258279 C181.894579,102.206092 183.152076,103.468996 184.093511,104.957359 Z" id="Triangle-Copy" fill="#DADFFD"></path>
                        <path d="M79.7216624,143.649907 L142.25591,242.730143 L142.25591,242.730143 C144.614087,246.466475 143.496871,251.407051 139.760538,253.765229 C138.482462,254.571884 137.002029,255 135.490681,255 L9.61005343,255 L9.61005343,255 C5.19177544,255 1.61005343,251.418278 1.61005343,247 C1.61005343,245.472763 2.04721202,243.977438 2.86987624,242.690706 L66.2162566,143.61047 L66.2162566,143.61047 C68.5962138,139.887973 73.5432303,138.79963 77.2657274,141.179587 C78.2558843,141.812638 79.0944046,142.65607 79.7216624,143.649907 Z" id="Triangle" fill="#F0F1F4"></path>
                        <text id="solo-sito-brand-copy" font-family="HKGrotesk-Regular, HK Grotesk" font-size="12" font-weight="normal" letter-spacing="0.75" fill="#C7C6CD">
                            <tspan x="90.4941406" y="279">solo sito</tspan>
                            <tspan x="105.792969" y="294">brand</tspan>
                        </text>
                        <text id="sito-brand-+1-market" font-family="HKGrotesk-Regular, HK Grotesk" font-size="12" font-weight="normal" letter-spacing="0.75" fill="#C7C6CD">
                            <tspan x="190.162109" y="279">sito brand +1</tspan>
                            <tspan x="196.970703" y="294">marketplace</tspan>
                        </text>
                        <text id="sito-brand-+2-market" font-family="HKGrotesk-Regular, HK Grotesk" font-size="12" font-weight="normal" letter-spacing="0.75" fill="#3454F6">
                            <tspan x="377.474609" y="279">sito brand</tspan>
                            <tspan x="345.464844" y="294">+2 marketplace</tspan>
                        </text>
                        <text id="+120-%" font-family="HKGrotesk-Bold, HK Grotesk" font-size="40" font-weight="bold" fill="#F0F1F4">
                            <tspan x="230.037109" y="139">+120</tspan>
                            <tspan x="324.119141" y="139" font-size="20"> %</tspan>
                        </text>
                        <path d="M156.693897,34.5810064 L168.601392,24.4495515 L168.601392,24.4495515 C169.863287,23.3758722 171.756644,23.5284511 172.830324,24.7903459 C173.145024,25.1602137 173.36523,25.600951 173.472024,26.0746955 L176.594867,39.9278674 L176.594867,39.9278674 C176.95922,41.5441635 175.944319,43.1497966 174.328023,43.5141492 C173.872896,43.6167461 173.400111,43.6117786 172.94724,43.4996415 L157.916901,39.7779245 L157.916901,39.7779245 C156.308617,39.3796915 155.327678,37.7530883 155.725911,36.1448046 C155.876894,35.535051 156.215471,34.9880738 156.693897,34.5810064 Z" id="Path-2-Copy-12" fill="#FFD645" transform="translate(166.153108, 33.660970) rotate(-37.000000) translate(-166.153108, -33.660970) "></path>
                        <path d="M57.0471484,65.8660338 L69.9042,54.9266517 L69.9042,54.9266517 C70.7454632,54.2108655 72.0077012,54.3125847 72.7234875,55.153848 C72.933288,55.4004265 73.0800919,55.6942514 73.1512876,56.010081 L76.5231606,70.9679663 L76.5231606,70.9679663 C76.7660624,72.045497 76.0894619,73.1159191 75.0119312,73.3588209 C74.7085127,73.4272188 74.3933232,73.4239071 74.0914089,73.349149 L57.8624843,69.3306458 L57.8624843,69.3306458 C56.7902952,69.0651572 56.1363352,67.9807551 56.4018239,66.9085659 C56.5024794,66.5020635 56.7281977,66.137412 57.0471484,65.8660338 Z" id="Path-2-Copy-8" fill="#77EB9F" transform="translate(66.457639, 63.928816) rotate(25.000000) translate(-66.457639, -63.928816) "></path>
                        <path d="M3.31890536,120.215439 L8.07715922,116.166893 L8.07715922,116.166893 C9.33905411,115.093214 11.2324111,115.245793 12.3060904,116.507688 C12.6207912,116.877556 12.840997,117.318293 12.9477906,117.792037 L14.1956839,123.327787 L14.1956839,123.327787 C14.5600365,124.944083 13.5451358,126.549716 11.9288397,126.914069 C11.4737119,127.016665 11.0009278,127.011698 10.5480562,126.899561 L4.54190913,125.412357 L4.54190913,125.412357 C2.93362542,125.014124 1.9526855,123.387521 2.35091849,121.779237 C2.5019018,121.169483 2.84047922,120.622506 3.31890536,120.215439 Z" id="Path-2-Copy-6" fill="#FFFFFF" transform="translate(8.266021, 121.219601) rotate(-37.000000) translate(-8.266021, -121.219601) "></path>
                    </g>
                </g>
            </g>
        </g>
    </g>
</svg>