<svg id="Livello_1" data-name="Livello 1" xmlns="http://www.w3.org/2000/svg" xmlns:xlink="http://www.w3.org/1999/xlink" viewBox="0 0 376 300"><defs><style>.cls-1,.cls-2,.cls-3,.cls-53{fill:none;}.cls-1{clip-rule:evenodd;}.cls-3{fill-rule:evenodd;}.cls-4{clip-path:url(#clip-path);}.cls-5{fill:#c1f3d3;}.cls-6{clip-path:url(#clip-path-2);}.cls-7{clip-path:url(#clip-path-3);}.cls-8{fill:#4573f1;}.cls-9{clip-path:url(#clip-path-4);}.cls-10{fill:#eff0f3;}.cls-11{clip-path:url(#clip-path-5);}.cls-12{fill:#fdd453;}.cls-13{clip-path:url(#clip-path-6);}.cls-14{clip-path:url(#clip-path-7);}.cls-15{fill:#7be9a0;}.cls-16{clip-path:url(#clip-path-8);}.cls-17{fill:#333149;}.cls-18{clip-path:url(#clip-path-9);}.cls-19{clip-path:url(#clip-path-10);}.cls-20{clip-path:url(#clip-path-11);}.cls-21{fill:#fff;}.cls-22{clip-path:url(#clip-path-12);}.cls-23{clip-path:url(#clip-path-13);}.cls-24{clip-path:url(#clip-path-14);}.cls-25{clip-path:url(#clip-path-15);}.cls-26{clip-path:url(#clip-path-16);}.cls-27{clip-path:url(#clip-path-17);}.cls-28{clip-path:url(#clip-path-18);}.cls-29{clip-path:url(#clip-path-19);}.cls-30{fill:#c6c5cc;}.cls-31{clip-path:url(#clip-path-20);}.cls-32{clip-path:url(#clip-path-21);}.cls-33{clip-path:url(#clip-path-22);}.cls-34{clip-path:url(#clip-path-23);}.cls-35{clip-path:url(#clip-path-24);}.cls-36{fill:#375af1;}.cls-37{clip-path:url(#clip-path-25);}.cls-38{clip-path:url(#clip-path-26);}.cls-39{clip-path:url(#clip-path-27);}.cls-40{clip-path:url(#clip-path-28);}.cls-41{clip-path:url(#clip-path-29);}.cls-42{clip-path:url(#clip-path-30);}.cls-43{clip-path:url(#clip-path-31);}.cls-44{clip-path:url(#clip-path-32);}.cls-45{clip-path:url(#clip-path-33);}.cls-46{clip-path:url(#clip-path-34);}.cls-47{clip-path:url(#clip-path-35);}.cls-48{fill:#67d4a0;}.cls-49{clip-path:url(#clip-path-36);}.cls-50{clip-path:url(#clip-path-37);}.cls-51{clip-path:url(#clip-path-38);}.cls-52{clip-path:url(#clip-path-39);}.cls-53{stroke:#eff0f3;stroke-miterlimit:10;stroke-width:0.5px;}.cls-54{clip-path:url(#clip-path-40);}.cls-55{clip-path:url(#clip-path-41);}.cls-56{clip-path:url(#clip-path-42);}.cls-57{clip-path:url(#clip-path-43);}.cls-58{fill:#c1f5d3;}.cls-59{clip-path:url(#clip-path-44);}.cls-60{clip-path:url(#clip-path-45);}.cls-61{clip-path:url(#clip-path-46);}.cls-62{clip-path:url(#clip-path-47);}.cls-63{clip-path:url(#clip-path-48);}.cls-64{isolation:isolate;}.cls-65{clip-path:url(#clip-path-49);}.cls-66{clip-path:url(#clip-path-50);}.cls-67{clip-path:url(#clip-path-51);}.cls-68{clip-path:url(#clip-path-53);}.cls-69{clip-path:url(#clip-path-54);}.cls-70{clip-path:url(#clip-path-56);}.cls-71{clip-path:url(#clip-path-57);}.cls-72{clip-path:url(#clip-path-58);}.cls-73{fill:#77eb9f;}.cls-74{clip-path:url(#clip-path-59);}.cls-75{clip-path:url(#clip-path-60);}.cls-76{clip-path:url(#clip-path-61);}.cls-77{clip-path:url(#clip-path-63);}.cls-78{clip-path:url(#clip-path-64);}.cls-79{clip-path:url(#clip-path-65);}.cls-80{clip-path:url(#clip-path-66);}</style><clipPath id="clip-path"><polygon class="cls-1" points="322.77 180.5 257.42 241.37 259.39 243.46 324.75 182.6 322.77 180.5"/></clipPath><clipPath id="clip-path-2"><polygon class="cls-1" points="240.11 77.97 189.54 61.09 190.45 58.36 241.01 75.23 240.11 77.97"/></clipPath><clipPath id="clip-path-3"><path class="cls-1" d="M204.75,245.78a8.29,8.29,0,0,1-8.85-10.42l15.94-58.46a8.29,8.29,0,0,1,16,4.36l-15.94,58.46A8.29,8.29,0,0,1,204.75,245.78Z"/></clipPath><clipPath id="clip-path-4"><path class="cls-1" d="M268.9,74.79H200.13c-10.6,0-19.18,8.86-19.18,19.78V239.39c0,10.92,8.59,19.78,19.18,19.78H268.9c10.6,0,19.19-8.86,19.19-19.78V94.56C288.09,83.64,279.5,74.79,268.9,74.79ZM192.68,236.89h83.68V97.06H192.68Z"/></clipPath><clipPath id="clip-path-5"><path class="cls-1" d="M236.23,106.09h-.49a26.44,26.44,0,0,0-7.38,1,28.27,28.27,0,0,0-12.28,7.24,28.8,28.8,0,0,0-4,5,27,27,0,0,0-4.24,15.78h0v27.35h26.76l.34,0c.44,0,.87,0,1.32,0a28.19,28.19,0,1,0,0-56.39"/></clipPath><clipPath id="clip-path-6"><path class="cls-1" d="M211.28,138.91c0-12.84,7.29-17.89,16.28-17.89s16.28,5,16.28,17.89c0,2.41-.22,6.92-.22,6.92l-1.36,27h-14.4l-.55-10.69c-8.87-.19-16-10.52-16-23.24"/></clipPath><clipPath id="clip-path-7"><path class="cls-1" d="M223.38,147.7h.32a1.38,1.38,0,0,0,1.38-1.37v-2.92a1.38,1.38,0,0,0-1.38-1.37h-.32a1.38,1.38,0,0,0-1.38,1.37v2.92a1.38,1.38,0,0,0,1.38,1.37"/></clipPath><clipPath id="clip-path-8"><path class="cls-1" d="M216.84,142.82h.25a1.1,1.1,0,0,0,1.1-1.1v-1.81a1.1,1.1,0,0,0-1.1-1.1h-.25a1.1,1.1,0,0,0-1.1,1.1v1.81a1.1,1.1,0,0,0,1.1,1.1"/></clipPath><clipPath id="clip-path-9"><path class="cls-1" d="M231.56,142.82h.25a1.1,1.1,0,0,0,1.1-1.1v-1.81a1.1,1.1,0,0,0-1.1-1.1h-.25a1.1,1.1,0,0,0-1.1,1.1v1.81a1.1,1.1,0,0,0,1.1,1.1"/></clipPath><clipPath id="clip-path-10"><path class="cls-1" d="M234.58,182a13.22,13.22,0,0,1-13.22-13.06H247.8A13.23,13.23,0,0,1,234.58,182"/></clipPath><clipPath id="clip-path-11"><path class="cls-1" d="M222,151.89a.73.73,0,0,0-.71.93,3.61,3.61,0,0,0,6.59,0,.73.73,0,0,0-.71-.93Z"/></clipPath><clipPath id="clip-path-12"><path class="cls-1" d="M239.21,140.34a5.22,5.22,0,1,0,5.22-5.21,5.21,5.21,0,0,0-5.22,5.21"/></clipPath><clipPath id="clip-path-13"><path class="cls-1" d="M211.52,178.38a10.21,10.21,0,0,1,10.19-9.46h.55a12.43,12.43,0,0,0,24.86,0h8.21a10.21,10.21,0,0,1,10.17,9.31L277.43,242H201.65Z"/></clipPath><clipPath id="clip-path-14"><path class="cls-1" d="M244.76,227.41a8.52,8.52,0,0,1-2.1,7.14,15.44,15.44,0,0,1-5.69,3.73c-6.45,2.84-20.37.24-13.59-10.79,3.89-6.34,19.51-7.8,21.38-.07"/></clipPath><clipPath id="clip-path-15"><polygon class="cls-1" points="250.77 181.2 262.67 223.63 273.71 220.71 250.77 181.2"/></clipPath><clipPath id="clip-path-16"><path class="cls-1" d="M285,219.57l-18.71-45.69a8.59,8.59,0,0,0-15.54,7.32l18,36.54L239.22,223v9.07l37.22-.31a8.11,8.11,0,0,0,.82,0A8.58,8.58,0,0,0,285,219.57"/></clipPath><clipPath id="clip-path-17"><path class="cls-1" d="M221.29,121.2c0,8.07,7.69,14.61,17.17,14.61s17.17-6.54,17.17-14.61-7.69-14.62-17.17-14.62-17.17,6.54-17.17,14.62"/></clipPath><clipPath id="clip-path-18"><path class="cls-1" d="M214.54,132.93a3.13,3.13,0,0,1,2.45-1.34,3,3,0,0,1,1.74.59.44.44,0,0,1,.18.29.43.43,0,0,1-.07.33.44.44,0,0,1-.62.11,2,2,0,0,0-3,.53.44.44,0,0,1-.36.18h-.08a.47.47,0,0,1-.17-.07.44.44,0,0,1-.11-.62"/></clipPath><clipPath id="clip-path-19"><path class="cls-1" d="M127.52,60.38h-49A13.35,13.35,0,0,0,65.13,73.72v99.69a13.35,13.35,0,0,0,13.35,13.34h49a13.35,13.35,0,0,0,13.35-13.34V73.72A13.35,13.35,0,0,0,127.52,60.38Zm-54.1,111.1h59.16V75.65H73.42Z"/></clipPath><clipPath id="clip-path-20"><path class="cls-1" d="M103,177.3a2,2,0,1,1-2,2,2,2,0,0,1,2-2"/></clipPath><clipPath id="clip-path-21"><rect class="cls-2" x="189.84" y="231.49" width="93.3" height="17.48"/></clipPath><clipPath id="clip-path-22"><path class="cls-1" d="M135.57,134.53a16.73,16.73,0,1,1-16.73-16.72,16.73,16.73,0,0,1,16.73,16.72"/></clipPath><clipPath id="clip-path-23"><path class="cls-1" d="M121.22,113.31A21.23,21.23,0,1,1,100,92.1a21.22,21.22,0,0,1,21.23,21.22"/></clipPath><clipPath id="clip-path-24"><path class="cls-1" d="M122.82,175.84a5.15,5.15,0,0,0,4.8-7L114,133.69a5.15,5.15,0,0,0-9.61,3.72L118,172.54a5.16,5.16,0,0,0,4.81,3.29"/></clipPath><clipPath id="clip-path-25"><path class="cls-1" d="M114,112.41c0-7.7-4.37-13.95-9.77-13.95s-9.77,6.24-9.77,13.95c0,1.44.13,4.15.13,4.15l.82,16.21H104l.33-6.41c5.32-.12,9.62-6.31,9.62-13.94"/></clipPath><clipPath id="clip-path-26"><path class="cls-1" d="M106.89,118.26h-.49a.68.68,0,0,1-.67-.67v-2.05a.68.68,0,0,1,.67-.67h.49a.68.68,0,0,1,.67.67v2.05a.68.68,0,0,1-.67.67"/></clipPath><clipPath id="clip-path-27"><path class="cls-1" d="M110.78,114.75h-.39a.54.54,0,0,1-.54-.54v-1.33a.54.54,0,0,1,.54-.54h.39a.54.54,0,0,1,.54.54v1.33a.54.54,0,0,1-.54.54"/></clipPath><clipPath id="clip-path-28"><path class="cls-1" d="M101.95,114.75h-.39a.54.54,0,0,1-.54-.54v-1.33a.54.54,0,0,1,.54-.54h.39a.54.54,0,0,1,.54.54v1.33a.54.54,0,0,1-.54.54"/></clipPath><clipPath id="clip-path-29"><path class="cls-1" d="M100,138.24a7.93,7.93,0,0,0,7.93-7.83H92.08a7.93,7.93,0,0,0,7.93,7.83"/></clipPath><clipPath id="clip-path-30"><path class="cls-1" d="M107.57,120.19a.44.44,0,0,1,.43.56,2.17,2.17,0,0,1-4,0,.44.44,0,0,1,.43-.56Z"/></clipPath><clipPath id="clip-path-31"><path class="cls-1" d="M97.23,113.26a3.13,3.13,0,1,1-3.13-3.13,3.13,3.13,0,0,1,3.13,3.13"/></clipPath><clipPath id="clip-path-32"><path class="cls-1" d="M123.09,168.44h6.28a2.63,2.63,0,0,0,2.63-2.62V163.9a2.63,2.63,0,0,0-2.63-2.62h-6.28a2.63,2.63,0,0,0-2.63,2.62v1.91a2.63,2.63,0,0,0,2.63,2.62"/></clipPath><clipPath id="clip-path-33"><path class="cls-1" d="M113.85,136.08a6.13,6.13,0,0,0-6.11-5.67h-.33a7.46,7.46,0,0,1-14.92,0H87.57a6.13,6.13,0,0,0-6.1,5.58L75.7,180.28h45.46Z"/></clipPath><clipPath id="clip-path-34"><path class="cls-1" d="M95.15,164.12a2.78,2.78,0,0,0,1.1,3.2,9.6,9.6,0,0,0,3.62,1.48c4.16,1,13.51-.75,9.47-5.55-2.32-2.76-12.62-2.77-14.18.87"/></clipPath><clipPath id="clip-path-35"><polygon class="cls-1" points="90.3 137.77 83.16 163.23 76.54 161.48 90.3 137.77"/></clipPath><clipPath id="clip-path-36"><path class="cls-1" d="M69.75,160.79,81,133.39a5.15,5.15,0,0,1,9.33,4.39L79.49,159.7l17.74,3.16v5.45l-22.33-.19-.49,0a5.15,5.15,0,0,1-4.66-7.35"/></clipPath><clipPath id="clip-path-37"><path class="cls-1" d="M108,101.78c0,4.84-4.71,8.77-10.51,8.77S87,106.62,87,101.78,91.67,93,97.47,93,108,96.93,108,101.78"/></clipPath><clipPath id="clip-path-38"><path class="cls-1" d="M107.61,102.65a6.82,6.82,0,0,1,6.05,6.13l3.35,1.13-5-11-6.7-1.08Z"/></clipPath><clipPath id="clip-path-39"><path class="cls-1" d="M112,108.82a1.88,1.88,0,0,0-1.47-.81,1.81,1.81,0,0,0-1,.36.26.26,0,0,0,.15.48.25.25,0,0,0,.15,0,1.21,1.21,0,0,1,1.78.32.26.26,0,0,0,.21.11h0l.1,0a.27.27,0,0,0,.07-.37"/></clipPath><clipPath id="clip-path-40"><rect class="cls-2" x="72.54" y="165.95" width="61.36" height="16.41"/></clipPath><clipPath id="clip-path-41"><path class="cls-1" d="M240.88,244.84a6.36,6.36,0,1,1-6.36-6.35,6.36,6.36,0,0,1,6.36,6.35"/></clipPath><clipPath id="clip-path-42"><path class="cls-1" d="M107.56,176.33a4.56,4.56,0,1,1-4.56-4.56,4.56,4.56,0,0,1,4.56,4.56"/></clipPath><clipPath id="clip-path-43"><path class="cls-1" d="M89.51,184a27.19,27.19,0,1,1-27.19-27.18A27.18,27.18,0,0,1,89.51,184"/></clipPath><clipPath id="clip-path-44"><path class="cls-1" d="M355.61,179.37a27.19,27.19,0,1,1-27.19-27.18,27.18,27.18,0,0,1,27.19,27.18"/></clipPath><clipPath id="clip-path-45"><path class="cls-1" d="M159.13,227.64A18.69,18.69,0,1,1,140.44,209a18.68,18.68,0,0,1,18.69,18.68"/></clipPath><clipPath id="clip-path-46"><path class="cls-1" d="M214.89,59.43a25,25,0,1,1-25-25,25,25,0,0,1,25,25"/></clipPath><clipPath id="clip-path-47"><path class="cls-1" d="M264.4,178.49a2.74,2.74,0,0,0-3.7,2.21,2.74,2.74,0,0,0-4.08,1.41,2.91,2.91,0,0,0,1.71,3.66l5.75,2.18,2-5.8a2.91,2.91,0,0,0-1.71-3.66"/></clipPath><clipPath id="clip-path-48"><path class="cls-1" d="M261.05,180.47a2.6,2.6,0,0,0-4,1.48,3.14,3.14,0,0,0,1.66,3.85l5.59,2.29,2-6.1a3.14,3.14,0,0,0-1.66-3.85,2.52,2.52,0,0,0-1-.19A2.75,2.75,0,0,0,261.05,180.47Z"/></clipPath><clipPath id="clip-path-49"><rect class="cls-2" x="-351.88" y="-613.92" width="1165" height="2007"/></clipPath><clipPath id="clip-path-50"><polygon class="cls-1" points="430.62 1393.03 812.56 1200.62 30.55 -613.44 -351.38 -421.03 430.62 1393.03"/></clipPath><clipPath id="clip-path-51"><rect class="cls-2" x="256.12" y="177.08" width="11" height="12"/></clipPath><clipPath id="clip-path-53"><rect class="cls-2" x="253.12" y="174.08" width="18" height="19"/></clipPath><clipPath id="clip-path-54"><polygon class="cls-1" points="259.11 192.53 270.84 186.62 265.76 174.82 254.03 180.73 259.11 192.53"/></clipPath><clipPath id="clip-path-56"><polygon class="cls-1" points="142.72 228.94 139.93 228.12 189.74 59.27 192.53 60.09 142.72 228.94"/></clipPath><clipPath id="clip-path-57"><polygon class="cls-1" points="140.96 229.59 62.26 186.03 63.68 183.5 142.37 227.06 140.96 229.59"/></clipPath><clipPath id="clip-path-58"><path class="cls-2" d="M66.69,197.53v-9.86H70l.5-3.84h-3.8v-2.45c0-1.11.31-1.87,1.9-1.87h2v-3.44a27.19,27.19,0,0,0-3-.15c-2.93,0-4.94,1.79-4.94,5.08v2.83H59.4v3.84h3.32v9.86Zm6.49,0H50.53a1.4,1.4,0,0,1-1.4-1.4V173.48a1.4,1.4,0,0,1,1.4-1.4H73.17a1.4,1.4,0,0,1,1.4,1.4v22.64A1.4,1.4,0,0,1,73.17,197.53Z"/></clipPath><clipPath id="clip-path-59"><rect class="cls-2" x="176.12" y="46.08" width="26.99" height="26.99"/></clipPath><clipPath id="clip-path-60"><rect class="cls-2" x="176.12" y="46.08" width="27" height="27"/></clipPath><clipPath id="clip-path-61"><path class="cls-1" d="M189.62,48.52c3.6,0,4,0,5.45.08a7.46,7.46,0,0,1,2.51.46,4.47,4.47,0,0,1,2.56,2.56,7.46,7.46,0,0,1,.46,2.51c.07,1.42.08,1.85.08,5.45s0,4-.08,5.45a7.47,7.47,0,0,1-.46,2.51,4.47,4.47,0,0,1-2.56,2.56,7.47,7.47,0,0,1-2.51.46c-1.42.07-1.85.08-5.45.08s-4,0-5.45-.08a7.47,7.47,0,0,1-2.51-.46,4.47,4.47,0,0,1-2.56-2.56,7.47,7.47,0,0,1-.46-2.51c-.07-1.42-.08-1.85-.08-5.45s0-4,.08-5.45a7.47,7.47,0,0,1,.46-2.51,4.47,4.47,0,0,1,2.56-2.56,7.47,7.47,0,0,1,2.51-.46C185.59,48.53,186,48.52,189.62,48.52Zm0-2.43c-3.67,0-4.12,0-5.56.08a9.9,9.9,0,0,0-3.28.63,6.9,6.9,0,0,0-3.95,3.95,9.91,9.91,0,0,0-.63,3.28c-.07,1.44-.08,1.9-.08,5.56s0,4.12.08,5.56a9.9,9.9,0,0,0,.63,3.28,6.9,6.9,0,0,0,3.95,3.95,9.9,9.9,0,0,0,3.28.63c1.44.07,1.9.08,5.56.08s4.12,0,5.56-.08a9.91,9.91,0,0,0,3.28-.63,6.9,6.9,0,0,0,3.95-3.95,9.91,9.91,0,0,0,.63-3.28c.07-1.44.08-1.9.08-5.56s0-4.12-.08-5.56a9.91,9.91,0,0,0-.63-3.28,6.9,6.9,0,0,0-3.95-3.95,9.9,9.9,0,0,0-3.28-.63C193.74,46.1,193.29,46.08,189.62,46.08Z"/></clipPath><clipPath id="clip-path-63"><path class="cls-1" d="M189.62,52.59a7,7,0,1,0,7,7A7,7,0,0,0,189.62,52.59Zm0,11.52a4.53,4.53,0,1,1,4.53-4.53A4.53,4.53,0,0,1,189.62,64.11Z"/></clipPath><clipPath id="clip-path-64"><path class="cls-1" d="M197.54,52.13a1.4,1.4,0,1,1-1.4-1.4,1.4,1.4,0,0,1,1.4,1.4"/></clipPath><clipPath id="clip-path-65"><path class="cls-1" d="M328.62,162.55a17,17,0,0,0-6.2,32.87,16.36,16.36,0,0,1,.06-4.89c.31-1.33,2-8.46,2-8.46a6.15,6.15,0,0,1-.51-2.53c0-2.37,1.37-4.13,3.08-4.13a2.14,2.14,0,0,1,2.15,2.4c0,1.46-.93,3.64-1.41,5.67a2.47,2.47,0,0,0,2.52,3.08c3,0,5.35-3.19,5.35-7.79a6.72,6.72,0,0,0-7.11-6.92,7.37,7.37,0,0,0-7.69,7.39,6.62,6.62,0,0,0,1.27,3.88.51.51,0,0,1,.12.49l-.47,1.93c-.07.31-.25.38-.57.23-2.13-1-3.45-4.1-3.45-6.59,0-5.37,3.9-10.3,11.25-10.3,5.9,0,10.49,4.21,10.49,9.83,0,5.87-3.7,10.59-8.83,10.59a4.56,4.56,0,0,1-3.9-2l-1.06,4a19,19,0,0,1-2.12,4.46,17,17,0,1,0,5-33.28"/></clipPath><clipPath id="clip-path-66"><path class="cls-2" d="M138.07,235.86c8.29,0,12.82-6.43,12.82-12q0-.27,0-.55a8.87,8.87,0,0,0,2.25-2.19,9.46,9.46,0,0,1-2.59.66,4.3,4.3,0,0,0,2-2.34,9.41,9.41,0,0,1-2.86,1,4.65,4.65,0,0,0-3.29-1.33,4.37,4.37,0,0,0-4.51,4.22,4,4,0,0,0,.12,1,13.1,13.1,0,0,1-9.29-4.41,4,4,0,0,0-.61,2.12,4.16,4.16,0,0,0,2,3.51,4.7,4.7,0,0,1-2-.53s0,0,0,.05a4.3,4.3,0,0,0,3.61,4.14,4.79,4.79,0,0,1-2,.07,4.48,4.48,0,0,0,4.21,2.93,9.43,9.43,0,0,1-5.6,1.81,9.76,9.76,0,0,1-1.07-.06,13.38,13.38,0,0,0,6.91,1.9"/></clipPath></defs><title>Tavola disegno 1</title><g class="cls-4"><rect class="cls-5" x="246.31" y="184.1" width="89.55" height="55.76" transform="translate(-42.64 76.72) rotate(-14)"/></g><g class="cls-6"><rect class="cls-5" x="184.54" y="53.36" width="61.47" height="29.61"/></g><g class="cls-7"><rect class="cls-8" x="190.61" y="165.8" width="42.52" height="85.03"/></g><g class="cls-9"><rect class="cls-10" x="175.95" y="69.79" width="117.14" height="194.38"/></g><g class="cls-11"><rect class="cls-12" x="202.81" y="101.09" width="66.63" height="66.39"/></g><g class="cls-13"><rect class="cls-8" x="206.28" y="116.03" width="42.56" height="61.82"/></g><g class="cls-14"><rect class="cls-15" x="217" y="137.03" width="13.07" height="15.67"/></g><g class="cls-16"><rect class="cls-17" x="210.73" y="133.81" width="12.45" height="14.01"/></g><g class="cls-18"><rect class="cls-17" x="225.46" y="133.81" width="12.45" height="14.01"/></g><g class="cls-19"><rect class="cls-8" x="216.35" y="163.93" width="36.45" height="23.06"/></g><g class="cls-20"><rect class="cls-21" x="216.24" y="146.89" width="16.66" height="13.07"/></g><g class="cls-22"><rect class="cls-8" x="234.21" y="130.13" width="20.43" height="20.42"/></g><g class="cls-23"><rect class="cls-17" x="196.65" y="163.93" width="85.78" height="83.03"/></g><g class="cls-24"><rect class="cls-8" x="216.56" y="217.16" width="33.36" height="27.18"/></g><g class="cls-25"><rect class="cls-17" x="245.77" y="176.2" width="32.94" height="52.43"/></g><g class="cls-26"><rect class="cls-8" x="234.22" y="163.95" width="56.63" height="73.13"/></g><g class="cls-27"><rect class="cls-12" x="216.29" y="101.58" width="44.35" height="39.23"/></g><g class="cls-28"><rect class="cls-17" x="209.46" y="126.59" width="14.46" height="12.04"/></g><g class="cls-29"><rect class="cls-30" x="60.13" y="55.38" width="85.75" height="136.37"/></g><g class="cls-31"><rect class="cls-30" x="96" y="172.3" width="14" height="13.99"/></g><g class="cls-32"><rect class="cls-10" x="184.84" y="226.49" width="103.3" height="27.48"/></g><g class="cls-33"><rect class="cls-17" x="97.1" y="112.81" width="43.47" height="43.45"/></g><g class="cls-34"><rect class="cls-17" x="73.76" y="87.1" width="52.46" height="52.44"/></g><g class="cls-35"><rect class="cls-36" x="99.04" y="125.4" width="33.93" height="55.44"/></g><g class="cls-37"><rect class="cls-8" x="89.46" y="93.46" width="29.53" height="44.3"/></g><g class="cls-38"><rect class="cls-15" x="100.72" y="109.85" width="11.84" height="13.4"/></g><g class="cls-39"><rect class="cls-17" x="104.85" y="107.34" width="11.47" height="12.41"/></g><g class="cls-40"><rect class="cls-17" x="96.01" y="107.34" width="11.47" height="12.41"/></g><g class="cls-41"><rect class="cls-8" x="87.08" y="125.41" width="25.87" height="17.83"/></g><g class="cls-42"><rect class="cls-21" x="99.02" y="115.19" width="13.99" height="11.84"/></g><g class="cls-43"><rect class="cls-8" x="85.97" y="105.14" width="16.26" height="16.25"/></g><g class="cls-44"><rect class="cls-8" x="115.47" y="156.28" width="21.53" height="17.16"/></g><g class="cls-45"><rect class="cls-15" x="70.7" y="125.41" width="55.46" height="59.87"/></g><g class="cls-46"><rect class="cls-8" x="89.97" y="156.28" width="25.35" height="17.81"/></g><g class="cls-47"><rect class="cls-48" x="71.54" y="132.77" width="23.76" height="35.46"/></g><g class="cls-49"><rect class="cls-8" x="64.26" y="125.43" width="37.98" height="47.88"/></g><g class="cls-50"><rect class="cls-17" x="81.96" y="88.01" width="31.03" height="27.54"/></g><g class="cls-51"><rect class="cls-17" x="100.31" y="92.87" width="21.7" height="22.04"/></g><g class="cls-52"><rect class="cls-17" x="104.41" y="103.01" width="12.67" height="11.22"/></g><circle class="cls-53" cx="100.51" cy="113.95" r="4.59"/><circle class="cls-53" cx="112.95" cy="113.95" r="4.59"/><g class="cls-54"><rect class="cls-30" x="67.54" y="160.95" width="71.36" height="26.41"/></g><g class="cls-55"><rect class="cls-30" x="223.16" y="233.49" width="22.72" height="22.71"/></g><g class="cls-56"><rect class="cls-10" x="93.44" y="166.78" width="19.12" height="19.12"/></g><g class="cls-57"><rect class="cls-58" x="30.12" y="151.84" width="64.38" height="64.35"/></g><g class="cls-59"><rect class="cls-5" x="296.23" y="147.19" width="64.38" height="64.35"/></g><g class="cls-60"><rect class="cls-5" x="116.75" y="203.97" width="47.37" height="47.35"/></g><g class="cls-61"><rect class="cls-5" x="159.79" y="29.4" width="60.1" height="60.07"/></g><g class="cls-62"><rect class="cls-36" x="251.46" y="173.31" width="19.81" height="19.65"/></g><g class="cls-63"><g class="cls-64"><g class="cls-65"><g class="cls-66"><g class="cls-67"><rect class="cls-36" x="-356.39" y="-618.44" width="1173.94" height="2016.48"/></g></g></g></g></g><g class="cls-63"><g class="cls-64"><g class="cls-68"><g class="cls-69"><g class="cls-67"><rect class="cls-36" x="249.03" y="169.82" width="26.82" height="27.71"/></g></g></g></g></g><g class="cls-70"><rect class="cls-5" x="134.93" y="54.27" width="62.6" height="179.67"/></g><g class="cls-71"><rect class="cls-5" x="57.26" y="178.5" width="90.11" height="56.09"/></g><g class="cls-72"><rect class="cls-73" x="44.12" y="167.08" width="35.45" height="35.45"/></g><g class="cls-74"><g class="cls-64"><g class="cls-75"><g class="cls-76"><g class="cls-75"><rect class="cls-73" x="171.12" y="41.08" width="36.99" height="36.99"/></g></g></g></g></g><g class="cls-77"><rect class="cls-73" x="177.64" y="47.59" width="23.97" height="23.97"/></g><g class="cls-78"><rect class="cls-73" x="189.75" y="45.73" width="12.79" height="12.79"/></g><g class="cls-79"><rect class="cls-73" x="306.6" y="157.55" width="44.04" height="44.04"/></g><g class="cls-80"><rect class="cls-73" x="126.16" y="214.13" width="31.96" height="26.72"/></g></svg>