<?xml version="1.0" encoding="utf-8"?>
<!-- Generator: Adobe Illustrator 21.0.1, SVG Export Plug-In . SVG Version: 6.00 Build 0)  -->
<svg version="1.1" id="Livello_1" xmlns="http://www.w3.org/2000/svg" xmlns:xlink="http://www.w3.org/1999/xlink" x="0px" y="0px"
	 viewBox="0 0 376 300" style="enable-background:new 0 0 376 300;" xml:space="preserve">
<style type="text/css">
	.st0{fill:none;}
	.st1{fill:none;stroke:#C6C5CC;stroke-width:2;stroke-linecap:round;stroke-linejoin:round;}
	.st2{filter:url(#Adobe_OpacityMaskFilter);}
	.st3{fill:#FFFFFF;}
	.st4{mask:url(#mask-2);fill:#EFF0F3;}
	.st5{filter:url(#Adobe_OpacityMaskFilter_1_);}
	.st6{mask:url(#mask-4);fill:#C6C5CC;}
	.st7{fill:#EFF0F3;}
	.st8{fill:#375AF1;}
	.st9{fill:none;stroke:#EFF0F3;stroke-width:4;stroke-linecap:round;stroke-linejoin:round;}
	.st10{fill:#C1F3D3;}
	.st11{fill:none;stroke:#EFF0F3;stroke-width:3;stroke-linecap:round;stroke-linejoin:round;}
	.st12{fill:none;stroke:#FFFFFF;stroke-width:2;}
	.st13{fill:#7BE9A0;}
	.st14{fill:#333149;}
	.st15{fill:#4573F1;}
	.st16{fill:#6A687A;}
	.st17{fill:#FDD453;}
</style>
<title>Illustration / Store</title>
<desc>Created with Sketch.</desc>
<g id="Website">
	<g id="Marketplace" transform="translate(-268.000000, -1672.000000)">
		<g id="Illustration-_x2F_-Store" transform="translate(212.000000, 1657.000000)">
			<g id="Group-16">
				<rect id="Rectangle-12-Copy-3" x="56" y="41" class="st0" width="376" height="300"/>
				<g id="Page-1" transform="translate(56.000000, 15.000000)">
					<path id="Stroke-1" class="st1" d="M211,248h52H211z"/>
					<g id="Group-5" transform="translate(12.000000, 12.000000)">
						<g id="Clip-4">
						</g>
						<defs>
							<filter id="Adobe_OpacityMaskFilter" filterUnits="userSpaceOnUse" x="56.8" y="41.5" width="250.5" height="157.7">
								<feColorMatrix  type="matrix" values="1 0 0 0 0  0 1 0 0 0  0 0 1 0 0  0 0 0 1 0"/>
							</filter>
						</defs>
						<mask maskUnits="userSpaceOnUse" x="56.8" y="41.5" width="250.5" height="157.7" id="mask-2">
							<g class="st2">
								<polygon id="path-1" class="st3" points="307.2,41.5 307.2,199.1 56.8,199.1 56.8,41.5 								"/>
							</g>
						</mask>
						<path id="Fill-3" class="st4" d="M289.7,199.1H74.3c-9.7,0-17.5-7.8-17.5-17.3v-123c0-9.6,7.8-17.3,17.5-17.3h215.5
							c9.7,0,17.5,7.8,17.5,17.3v123C307.2,191.4,299.4,199.1,289.7,199.1"/>
					</g>
					<g id="Group-8">
						<g id="Clip-7">
						</g>
						<defs>
							<filter id="Adobe_OpacityMaskFilter_1_" filterUnits="userSpaceOnUse" x="56" y="41.3" width="65.6" height="156.8">
								<feColorMatrix  type="matrix" values="1 0 0 0 0  0 1 0 0 0  0 0 1 0 0  0 0 0 1 0"/>
							</filter>
						</defs>
						<mask maskUnits="userSpaceOnUse" x="56" y="41.3" width="65.6" height="156.8" id="mask-4">
							<g class="st5">
								<polygon id="path-3" class="st3" points="56,198.1 56,41.3 121.6,41.3 121.6,198.1 								"/>
							</g>
						</mask>
						<path id="Fill-6" class="st6" d="M112.7,198.1H64.9c-4.9,0-8.9-4-8.9-8.9v-139c0-4.9,4-8.9,8.9-8.9h47.8c4.9,0,8.9,4,8.9,8.9
							v139C121.6,194.2,117.6,198.1,112.7,198.1"/>
					</g>
					<path id="Fill-9" class="st3" d="M236.1,127h-96.2c-3.8,0-6.9-3.1-6.9-6.8V77.8c0-3.8,3.1-6.8,6.9-6.8h96.2
						c3.8,0,6.9,3.1,6.9,6.8v42.3C243,123.9,239.9,127,236.1,127"/>
					<path id="Fill-11" class="st3" d="M283.7,86h-21.5c-4,0-7.3-3.4-7.3-7.5s3.3-7.5,7.3-7.5h21.5c4,0,7.3,3.4,7.3,7.5
						S287.7,86,283.7,86"/>
					<path id="Fill-13" class="st3" d="M283.7,106h-21.5c-4,0-7.3-3.4-7.3-7.5c0-4.1,3.3-7.5,7.3-7.5h21.5c4,0,7.3,3.4,7.3,7.5
						C291,102.6,287.7,106,283.7,106"/>
					<path id="Fill-15" class="st3" d="M283.7,126h-21.5c-4,0-7.3-3.4-7.3-7.5c0-4.1,3.3-7.5,7.3-7.5h21.5c4,0,7.3,3.4,7.3,7.5
						C291,122.6,287.7,126,283.7,126"/>
					<path id="Fill-17" class="st7" d="M97.1,65H71.9c-3.2,0-5.9-2.7-5.9-6c0-3.3,2.6-6,5.9-6h25.3c3.2,0,5.9,2.7,5.9,6
						C103,62.3,100.4,65,97.1,65"/>
					<path id="Fill-19" class="st8" d="M172.7,88h-4.2c-0.1,1.9-2.1,3.4-4.6,3.4c-2.5,0-4.5-1.5-4.6-3.4h-4.1v0l-8.2,5.7l4.6,6.2
						l4.2-2.9V111h16.4V97.1l4.2,2.9l4.6-6.2L172.7,88z"/>
					<path id="Fill-21" class="st3" d="M78,183.5c0,3.6-2.9,6.5-6.5,6.5c-3.6,0-6.5-2.9-6.5-6.5c0-3.6,2.9-6.5,6.5-6.5
						C75.1,177,78,179.9,78,183.5"/>
					<path id="Fill-23" class="st7" d="M289,77.5c0,3-2.5,5.5-5.5,5.5c-3,0-5.5-2.5-5.5-5.5c0-3,2.5-5.5,5.5-5.5
						C286.5,72,289,74.5,289,77.5"/>
					<path id="Fill-25" class="st7" d="M289,117.5c0,3-2.5,5.5-5.5,5.5c-3,0-5.5-2.5-5.5-5.5c0-3,2.5-5.5,5.5-5.5
						C286.5,112,289,114.5,289,117.5"/>
					<path id="Fill-27" class="st7" d="M268,98.5c0,3-2.5,5.5-5.5,5.5c-3,0-5.5-2.5-5.5-5.5c0-3,2.5-5.5,5.5-5.5
						C265.5,93,268,95.5,268,98.5"/>
					<path id="Stroke-29" class="st9" d="M69,78h24"/>
					<path id="Stroke-31" class="st9" d="M86,184h16"/>
					<path id="Fill-33" class="st10" d="M275.5,148.1c0.1-0.1,0.2-0.2,0.3-0.2c7.9-7.3,6.1-18.1,6.1-18.5l-4.2-0.3
						c0,0.1-0.9,8.7-6.7,14c-3.4,3.2-8.3,4.6-14.5,4.2l-0.4,6.7C264.1,154.4,270.7,152.4,275.5,148.1"/>
					<path id="Stroke-35" class="st9" d="M69,89h35"/>
					<path id="Stroke-37" class="st11" d="M194,82h33"/>
					<path id="Stroke-39" class="st11" d="M194,90h24"/>
					<path id="Fill-41" class="st3" d="M243.1,182.2c0,3.2-2.7,5.9-6,5.9H228h-44.7h-42.4c-3.3,0-6-2.6-6-5.9v-37.5
						c0-3.2,2.7-5.9,6-5.9h96.2c3.3,0,6,2.6,6,5.9V182.2z M237.1,137h-96.2c-4.3,0-7.9,3.5-7.9,7.8v37.5c0,4.3,3.5,7.8,7.9,7.8h43
						h43.7h9.5c4.3,0,7.9-3.5,7.9-7.8v-37.5C245,140.5,241.5,137,237.1,137L237.1,137z"/>
					<path id="Fill-43" class="st7" d="M227.7,182.8l-30.8,10.9c-2.6,0.9-5.4-0.5-6.4-3l-10.3-29.1c-0.9-2.6,0.5-5.5,3-6.4
						l30.8-10.9c2.6-0.9,5.4,0.5,6.4,3l10.3,29.1C231.6,179,230.3,181.9,227.7,182.8"/>
					<path id="Stroke-45" class="st12" d="M227.7,182.8l-30.8,10.9c-2.6,0.9-5.4-0.5-6.4-3l-10.3-29.1c-0.9-2.6,0.5-5.5,3-6.4
						l30.8-10.9c2.6-0.9,5.4,0.5,6.4,3l10.3,29.1C231.6,179,230.3,181.9,227.7,182.8z"/>
					<path id="Fill-47" class="st3" d="M209.2,155l-4,1.4c0.5,1.8-0.8,3.8-3.1,4.6c-2.3,0.8-4.7,0-5.4-1.7l-3.9,1.3l-5.8,8l6.4,4.4
						l3-4l4.7,13l15.5-5.3l-4.7-13.1l5,1.4l2.2-7.3L209.2,155z"/>
					<path id="Stroke-49" class="st9" d="M69,99h29"/>
					<path id="Fill-51" class="st13" d="M263,151.8c-0.2-2.7-2.2-4.8-4.5-4.8h-4.1H244h-1.5c-2.4,0-4.4,2.1-4.5,4.9l-1,30.1h25.7
						L263,151.8z"/>
					<path id="Fill-53" class="st14" d="M262,182l-4.9,59h-6.4v-47.5c0-0.9-0.7-1.6-1.6-1.6c-0.9,0-1.6,0.7-1.6,1.5l-0.3,47.6h-7
						l-3.2-59H262z"/>
					<polygon id="Fill-55" class="st15" points="252,246 257,246 257,238 252,238 					"/>
					<polygon id="Fill-57" class="st15" points="241,246 246,246 246,238 241,238 					"/>
					<path id="Fill-58" class="st16" d="M240,236c0,0,7,0,7,0v5h-6.7L240,236z"/>
					<polygon id="Fill-59" class="st16" points="251,236 258,236 257.6,241 251,241 					"/>
					<path id="Fill-60" class="st14" d="M254,243L254,243c1.7,0,3,1.4,3,3.2v1.8h-6v-1.8C251,244.4,252.3,243,254,243"/>
					<path id="Fill-61" class="st14" d="M256,245L256,245c1.1,0,2,0.9,2,1.9v1.1h-4v-1.1C254,245.9,254.9,245,256,245"/>
					<polygon id="Fill-62" class="st14" points="256,243 258,244.3 258,246 253,246 					"/>
					<path id="Fill-63" class="st14" d="M244,243L244,243c1.7,0,3,1.4,3,3.2v1.8h-6v-1.8C241,244.4,242.3,243,244,243"/>
					<path id="Fill-64" class="st14" d="M235.5,245L235.5,245c0.8,0,1.5,0.6,1.5,1.3v0.7h-3v-0.7C234,245.6,234.7,245,235.5,245"/>
					<polygon id="Fill-65" class="st14" points="235,245.5 243.3,243 244,245.7 241.9,248 235.3,248 					"/>
					<path id="Fill-66" class="st15" d="M240.8,124l-0.8,16.4c0,1.5,1.2,2.7,2.7,2.7h1.4l1.1,0v1.8v1.5h0v2c0,2.6,2.1,4.6,4.7,4.6
						s4.7-2.1,4.7-4.6c0,0,0-2,0-2h0l0.3-3.3l1.1-11.5V124H240.8z"/>
					<path id="Fill-67" class="st14" d="M241.5,134L241.5,134c0.3,0,0.5-0.2,0.5-0.5v-1c0-0.3-0.2-0.5-0.5-0.5
						c-0.3,0-0.5,0.2-0.5,0.5v1C241,133.8,241.2,134,241.5,134"/>
					<path id="Fill-68" class="st14" d="M241.1,128.9c0.1,0.2,0.2,0.2,0.4,0.2c0.1-0.1,0.6-0.2,0.8,0.6c0.1,0.3,0.3,0.4,0.5,0.3
						c0.2-0.1,0.3-0.4,0.2-0.6c-0.3-1.3-1.2-1.5-1.7-1.2c-0.2,0.1-0.3,0.4-0.2,0.6C241,128.8,241.1,128.9,241.1,128.9"/>
					<polygon id="Fill-69" class="st13" points="244,156 256,156 256,147 244,147 					"/>
					<path id="Fill-70" class="st14" d="M252.7,119.8c-1.5-0.3-3.2-0.4-5-0.3c-0.4,0-0.8,0-1.3,0.1c-0.8-1-2-1.7-3.3-1.7
						c-2.3,0-4.1,1.8-4.1,4c0,1.5,0.8,2.8,2.1,3.5c0,0,0.1,0.1,0.1,0.1c0.1,0,0.1,0,0.2,0.1c0.1,0,0.2,0.1,0.3,0.1c0,0,0.1,0,0.1,0
						c0.2,0.1,0.4,0.1,0.7,0.2c0.9,0.2,2.1,0.2,3.8,0.2l-3.2,10.2l-2,0.4c-0.4,0-0.8,0.3-0.8,0.7l-0.4,4.6c0,0.5,0.3,0.9,0.8,0.9
						h2.8h0.1h1.2v0l1.3-8c-0.4-0.4-0.6-0.9-0.6-1.5c0-1.3,1-2.3,2.3-2.3v4.6l0,0l1,2.9h6.5l1-8.4l0.7-4.6
						C257.4,122.9,255.5,120.3,252.7,119.8"/>
					<path id="Fill-71" class="st10" d="M245,151.5c0,1.9-1.6,3.5-3.5,3.5s-3.5-1.6-3.5-3.5c0-1.9,1.6-3.5,3.5-3.5
						S245,149.6,245,151.5"/>
					<path id="Fill-72" class="st15" d="M279.2,127.9c-1-0.1-1.8-0.6-2.3-1.3c0,0,0,0,0,0l0,0c0,0-0.1-0.1-0.1-0.1l-2.6-4.3
						c-0.2-0.4-0.1-0.8,0.3-1c0.4-0.2,0.9-0.1,1.1,0.3l1.1,1.7l0.1-0.6c0-0.1,0-0.3,0.1-0.4c0-0.1,0-0.1,0-0.2l0.8-5.8
						c0-0.3,0.4-0.6,0.7-0.5c0.4,0,0.6,0.4,0.6,0.7l-0.6,3.9c0.2-0.1,0.4-0.2,0.7-0.2c0-0.1,0-0.1,0-0.2l0.6-4.2
						c0-0.3,0.4-0.6,0.7-0.5c0.4,0,0.6,0.4,0.6,0.7l-0.6,4.2l0.4,0c0.1,0,0.1,0,0.2,0l0.5-3.3c0-0.3,0.4-0.6,0.7-0.5
						c0.4,0,0.6,0.4,0.6,0.7l-0.5,3.6c0.2,0.1,0.3,0.2,0.4,0.4l0.3-1.9c0-0.3,0.3-0.5,0.6-0.4c0.3,0,0.5,0.3,0.5,0.6l-0.5,3.5
						c0,0,0,0.1,0,0.1c0,0.1,0,0.3,0,0.4l-0.2,2.4c-0.2,1.6-1.6,2.7-3.3,2.6L279.2,127.9z"/>
					<path id="Fill-73" class="st10" d="M226.1,162c-0.1,0-0.2,0-0.3,0c-10.6-0.2-16.5-9-16.8-9.4l2.8-2.9c0.1,0.1,6.5,5.6,14.1,5.7
						c4.6,0.1,9-2.1,13.2-6.4l4.8,4.6C238.5,159.2,232.5,162,226.1,162"/>
					<path id="Fill-74" class="st7" d="M180,79H147c-2.8,0-5,2.3-5,5v31c0,2.8,2.3,5,5,5H180c2.8,0,5-2.3,5-5V84
						C185,81.3,182.7,79,180,79 M180,80.8c1.8,0,3.2,1.4,3.2,3.2v31c0,1.8-1.4,3.2-3.2,3.2H147c-1.8,0-3.2-1.4-3.2-3.2V84
						c0-1.8,1.4-3.2,3.2-3.2H180"/>
					<path id="Fill-75" class="st15" d="M211,147.1L211,147.1c0-0.1,0-0.2,0-0.2l-0.7-5.2c-0.1-0.4-0.4-0.7-0.9-0.7
						c-0.4,0.1-0.7,0.5-0.6,0.9l0.2,1.5l-0.9-0.6c-1-0.6-1.8,0-1.8,0c0,0-1.5,0.8-2.6,1.4c-0.6,0.3-0.9,1.1-0.6,1.8l0.5,1.2
						c0,0,0.4,0.9,0.4,0.9c0.1,0.1,0.7,1,0.8,1.1l0.7,0.8c1.1,1.2,2.9,1.3,4,0.1l0.5-0.5C210.8,149,211.1,148.1,211,147.1
						C211,147.2,211,147.1,211,147.1"/>
					<path id="Fill-76" class="st17" d="M284.8,228.2l-1.3-13.8h19.6l1.3,13.8H284.8z M300,180.9l1.3,13.8h-19.6l-1.3-13.8H300z
						 M281.9,197.6h19.6l1.3,13.8h-19.6L281.9,197.6z M301.4,165.3c-0.1-0.8-0.8-1.4-1.6-1.3c-0.8,0.1-1.4,0.8-1.3,1.6l1.2,12.5
						h-19.6l-1.2-12.8c-0.1-0.8-0.8-1.4-1.6-1.3c-0.8,0.1-1.4,0.8-1.3,1.6l7.6,81.1c0.1,0.7,0.7,1.3,1.4,1.3c0,0,0.1,0,0.1,0
						c0.8-0.1,1.4-0.8,1.3-1.6L285,231h19.6l1.5,15.7c0.1,0.7,0.7,1.3,1.4,1.3c0,0,0.1,0,0.1,0c0.8-0.1,1.4-0.8,1.3-1.6L301.4,165.3
						z"/>
					<path id="Stroke-77" class="st1" d="M275,248h37"/>
				</g>
			</g>
		</g>
	</g>
</g>
</svg>
