<?xml version="1.0" encoding="UTF-8"?>
<svg width="90px" height="90px" viewBox="0 0 90 90" version="1.1" xmlns="http://www.w3.org/2000/svg" xmlns:xlink="http://www.w3.org/1999/xlink">
    <!-- Generator: Sketch 46.2 (44496) - http://www.bohemiancoding.com/sketch -->
    <title>Group 2</title>
    <desc>Created with Sketch.</desc>
    <defs>
        <circle id="path-1" cx="63" cy="30" r="5"></circle>
    </defs>
    <g id="Website" stroke="none" stroke-width="1" fill="none" fill-rule="evenodd">
        <g id="Pagamenti" transform="translate(-812.000000, -3217.000000)">
            <g id="Group-2" transform="translate(812.000000, 3217.000000)">
                <circle id="Oval-Copy-7" fill="#DADFFD" cx="45" cy="45" r="45"></circle>
                <g id="email-83-glyph-48" transform="translate(25.000000, 30.000000)" fill-rule="nonzero" fill="#3454F6">
                    <path d="M36.4361241,0 L1.65618746,0 C0.741143889,0 0,0.741143889 0,1.65618746 L0,6.62474984 C0,6.92783215 0.165618746,7.20689973 0.431436833,7.35181614 L18.6494989,17.2889409 C18.7728849,17.3560165 18.9095203,17.3899683 19.0461558,17.3899683 C19.1827913,17.3899683 19.3194267,17.3560165 19.4428127,17.2889409 L37.6608748,7.35181614 C37.9266928,7.20689973 38.0923116,6.92783215 38.0923116,6.62474984 L38.0923116,1.65618746 C38.0923116,0.741143889 37.3511677,0 36.4361241,0 Z" id="Shape"></path>
                    <path d="M20.2361265,19.5711672 C19.869281,19.7699097 19.4585465,19.8742495 19.0461558,19.8742495 C18.6337651,19.8742495 18.2230306,19.7699097 17.8594975,19.5728234 L0.0190461558,9.84189398 C0.00910903103,9.84769064 0.0107652185,9.84686255 0,9.8526592 L0,30.639468 C0,31.5545116 0.741143889,32.2956555 1.65618746,32.2956555 L36.4361241,32.2956555 C37.3511677,32.2956555 38.0923116,31.5545116 38.0923116,30.639468 L38.0923116,9.8526592 C38.0815464,9.84686255 38.0832026,9.84769064 38.0732654,9.84106589 L20.2361265,19.5711672 Z" id="Shape"></path>
                </g>
                <g id="Oval">
                    <use fill="#3454F6" fill-rule="evenodd" xlink:href="#path-1"></use>
                    <circle stroke="#DADFFD" stroke-width="2" cx="63" cy="30" r="6"></circle>
                </g>
            </g>
        </g>
    </g>
</svg>