<?xml version="1.0" encoding="utf-8"?>
<!-- Generator: Adobe Illustrator 21.0.1, SVG Export Plug-In . SVG Version: 6.00 Build 0)  -->
<svg version="1.1" id="Livello_1" xmlns="http://www.w3.org/2000/svg" xmlns:xlink="http://www.w3.org/1999/xlink" x="0px" y="0px"
	 viewBox="0 0 376 300" style="enable-background:new 0 0 376 300;" xml:space="preserve">
<style type="text/css">
	.st0{fill:none;}
	.st1{fill:#FFD645;}
	.st2{fill:#77EB9F;}
	.st3{fill:#F0F1F4;}
	.st4{fill:#4573F1;}
	.st5{fill:#375AF1;}
	.st6{fill:none;stroke:#375AF1;stroke-width:3;}
	.st7{fill:#DADFFD;}
	.st8{fill:#7BE9A0;}
	.st9{fill:none;stroke:#67D4A0;}
	.st10{fill:#EFF0F3;}
	.st11{fill:#C6C5CC;}
	.st12{fill:#333149;}
	.st13{fill:#FFFFFF;}
	.st14{fill:#FDD453;}
</style>
<title>Illustration / Conto</title>
<desc>Created with Sketch.</desc>
<g id="Website">
	<g id="Pagamenti" transform="translate(-813.000000, -1256.000000)">
		<g id="Illustration-_x2F_-Conto" transform="translate(812.000000, 1176.000000)">
			<g id="Group-2">
				<rect id="Rectangle-12-Copy" x="2" y="80" class="st0" width="376" height="300"/>
				
					<g id="Group-2-Copy" transform="translate(41.000000, 113.500000) rotate(-15.000000) translate(-41.000000, -113.500000) translate(12.000000, 83.000000)">
					<path id="Path-2-Copy-14" class="st1" d="M7.7,137.3l0.7-3.6c0.1-0.5,0.6-0.9,1.1-0.8c0.1,0,0.3,0.1,0.4,0.2l2.3,2.2
						c0.4,0.4,0.4,1,0.1,1.4c-0.1,0.1-0.2,0.2-0.3,0.3l-3,1.4c-0.5,0.2-1,0-1.2-0.5C7.6,137.7,7.6,137.5,7.7,137.3z"/>
					<path id="Path-2-Copy-15" class="st2" d="M18.5,98.8l3.9-19.5c0.2-1,1.1-1.7,2.1-1.5c0.3,0.1,0.5,0.2,0.7,0.4L37.6,90
						c0.7,0.7,0.8,1.9,0.2,2.7c-0.2,0.2-0.4,0.4-0.6,0.5L20.9,101c-0.9,0.4-1.9,0-2.3-1C18.4,99.6,18.4,99.2,18.5,98.8z"/>
					<path id="Path-2-Copy-16" class="st3" d="M-17.9,107.2l11.8-4.4c0.7-0.2,1.4,0.2,1.6,0.9c0.1,0.2,0.1,0.4,0,0.7l-1.8,12.4
						c-0.1,0.8-0.8,1.3-1.4,1.2c-0.2,0-0.4-0.1-0.5-0.2l-10-8.1c-0.6-0.5-0.7-1.3-0.3-2C-18.4,107.5-18.2,107.3-17.9,107.2z"/>
				</g>
				<g id="Page-1" transform="translate(1.000000, 86.000000)">
					<polygon id="Fill-1" class="st4" points="204.9,216.8 339.1,216.8 339.1,80.9 204.9,80.9 					"/>
					<polygon id="Fill-2" class="st5" points="180.1,216.8 206.7,216.8 206.7,80.9 180.1,80.9 					"/>
					<polygon id="Stroke-3" class="st6" points="221.9,194.1 317.3,194.1 317.3,105.4 221.9,105.4 					"/>
					<g id="Group-110" transform="translate(0.000000, 20.104455)">
						<path id="Stroke-4" class="st6" d="M299.1,129.6c0,15-12.2,27.2-27.2,27.2s-27.2-12.2-27.2-27.2c0-15,12.2-27.2,27.2-27.2
							S299.1,114.6,299.1,129.6z"/>
						<path id="Stroke-6" class="st6" d="M287.6,129.6c0,8.6-7,15.6-15.6,15.6c-8.6,0-15.6-7-15.6-15.6s7-15.6,15.6-15.6
							C280.6,114,287.6,121,287.6,129.6z"/>
						<path id="Fill-8" class="st7" d="M279.7,129.6c0,4.3-3.5,7.7-7.7,7.7c-4.3,0-7.7-3.5-7.7-7.7c0-4.3,3.5-7.7,7.7-7.7
							C276.2,121.9,279.7,125.4,279.7,129.6"/>
						<path id="Stroke-10" class="st6" d="M279.7,129.6c0,4.3-3.5,7.7-7.7,7.7c-4.3,0-7.7-3.5-7.7-7.7c0-4.3,3.5-7.7,7.7-7.7
							C276.2,121.9,279.7,125.4,279.7,129.6z"/>
						<path id="Stroke-12" class="st6" d="M283,118.6l8.2-8.2"/>
						<path id="Stroke-14" class="st6" d="M287.6,129.6h11.6"/>
						<path id="Stroke-16" class="st6" d="M283,140.6l8.2,8.2"/>
						<path id="Stroke-18" class="st6" d="M272,145.2v11.6"/>
						<path id="Stroke-20" class="st6" d="M261,140.6l-8.2,8.2"/>
						<path id="Stroke-22" class="st6" d="M286.4,123.7l10.7-4.5"/>
						<path id="Stroke-24" class="st6" d="M286.4,135.6l10.7,4.5"/>
						<path id="Stroke-26" class="st6" d="M278,115.3l4.5-10.7"/>
						<path id="Stroke-28" class="st6" d="M266,115.3l-4.5-10.7"/>
						<path id="Stroke-30" class="st6" d="M278,144l4.5,10.7"/>
						<path id="Stroke-32" class="st6" d="M266,144l-4.5,10.7"/>
						<path id="Stroke-34" class="st6" d="M272,114.1v-11.6"/>
						<polygon id="Fill-39" class="st8" points="314.5,196.7 367.1,196.7 367.1,181.8 314.5,181.8 						"/>
						<path id="Stroke-40" class="st9" d="M314.5,195.5h52.6"/>
						<path id="Stroke-41" class="st9" d="M314.5,189.3h52.6"/>
						<path id="Stroke-42" class="st9" d="M314.5,192.4h52.6"/>
						<polygon id="Fill-43" class="st10" points="330.4,196.7 351.3,196.7 351.3,181.8 330.4,181.8 						"/>
						<polygon id="Fill-44" class="st11" points="330.4,196.7 351.3,196.7 351.3,189.3 330.4,189.3 						"/>
						<polygon id="Fill-45" class="st8" points="314.5,188 367.1,188 367.1,173.1 314.5,173.1 						"/>
						<path id="Stroke-46" class="st9" d="M314.5,186.8h52.6"/>
						<path id="Stroke-47" class="st9" d="M314.5,180.5h52.6"/>
						<path id="Stroke-48" class="st9" d="M314.5,183.7h52.6"/>
						<polygon id="Fill-49" class="st10" points="330.4,188 351.3,188 351.3,173.1 330.4,173.1 						"/>
						<polygon id="Fill-50" class="st11" points="330.4,188 351.3,188 351.3,180.5 330.4,180.5 						"/>
						<polygon id="Fill-51" class="st8" points="275.1,196.7 327.7,196.7 327.7,181.8 275.1,181.8 						"/>
						<path id="Stroke-52" class="st9" d="M275.1,195.5h52.6"/>
						<path id="Stroke-53" class="st9" d="M275.1,189.3h52.6"/>
						<path id="Stroke-54" class="st9" d="M275.1,192.4h52.6"/>
						<polygon id="Fill-55" class="st10" points="290.9,196.7 311.8,196.7 311.8,181.8 290.9,181.8 						"/>
						<polygon id="Fill-56" class="st11" points="290.9,196.7 311.8,196.7 311.8,189.3 290.9,189.3 						"/>
						<polygon id="Fill-57" class="st8" points="275.1,188 327.7,188 327.7,173.1 275.1,173.1 						"/>
						<path id="Stroke-58" class="st9" d="M275.1,186.8h52.6"/>
						<path id="Stroke-59" class="st9" d="M275.1,180.5h52.6"/>
						<path id="Stroke-60" class="st9" d="M275.1,183.7h52.6"/>
						<polygon id="Fill-61" class="st10" points="290.9,188 311.8,188 311.8,173.1 290.9,173.1 						"/>
						<polygon id="Fill-62" class="st11" points="290.9,188 311.8,188 311.8,180.5 290.9,180.5 						"/>
						<polygon id="Fill-63" class="st8" points="294.9,178 347.5,178 347.5,163.1 294.9,163.1 						"/>
						<path id="Stroke-64" class="st9" d="M294.9,176.8h52.6"/>
						<path id="Stroke-65" class="st9" d="M294.9,170.5h52.6"/>
						<path id="Stroke-66" class="st9" d="M294.9,173.7h52.6"/>
						<polygon id="Fill-67" class="st10" points="310.8,178 331.6,178 331.6,163.1 310.8,163.1 						"/>
						<polygon id="Fill-68" class="st11" points="310.8,178 331.6,178 331.6,170.5 310.8,170.5 						"/>
						<polygon id="Fill-69" class="st8" points="294.9,169.2 347.5,169.2 347.5,154.3 294.9,154.3 						"/>
						<path id="Stroke-70" class="st9" d="M294.9,168h52.6"/>
						<path id="Stroke-71" class="st9" d="M294.9,161.8h52.6"/>
						<path id="Stroke-72" class="st9" d="M294.9,164.9h52.6"/>
						<polygon id="Fill-73" class="st10" points="310.8,169.2 331.6,169.2 331.6,154.3 310.8,154.3 						"/>
						<polygon id="Fill-74" class="st11" points="310.8,169.2 331.6,169.2 331.6,161.8 310.8,161.8 						"/>
						<path id="Fill-75" class="st5" d="M248.3,196.7H113.5l16.2-95.7c0.5-2.7,2.8-4.7,5.6-4.7h117c6.8,0,11.9,6.1,10.8,12.8
							L248.3,196.7z"/>
						<path id="Fill-76" class="st12" d="M222.9,196H75.4c-2.5,0-4.4-2.3-4-4.8L88.8,89.4c0.9-5.1,5.3-8.9,10.5-8.9h134.2
							c6.6,0,11.6,5.9,10.5,12.4l-17.1,99.6C226.6,194.5,224.9,196,222.9,196"/>
						<polygon id="Fill-77" class="st13" points="215.6,193.1 80.6,193.1 97.6,92.4 232.7,92.4 						"/>
						<path id="Fill-78" class="st10" d="M210.2,124H107.5c-0.5,0-0.9-0.4-0.9-0.9s0.4-0.9,0.9-0.9h102.7c0.5,0,0.9,0.4,0.9,0.9
							S210.7,124,210.2,124"/>
						<path id="Fill-79" class="st10" d="M205.4,150.8H102.7c-0.5,0-0.9-0.4-0.9-0.9c0-0.5,0.4-0.9,0.9-0.9h102.7
							c0.5,0,0.9,0.4,0.9,0.9C206.3,150.4,205.9,150.8,205.4,150.8"/>
						<path id="Fill-80" class="st10" d="M200.5,177.7H97.8c-0.5,0-0.9-0.4-0.9-0.9c0-0.5,0.4-0.9,0.9-0.9h102.7
							c0.5,0,0.9,0.4,0.9,0.9C201.4,177.3,201,177.7,200.5,177.7"/>
						<path id="Fill-81" class="st10" d="M152.9,196.7H8.5c-2.1,0-3.8-1.7-3.8-3.8c0-2.1,1.7-3.8,3.8-3.8h144.4
							c2.1,0,3.8,1.7,3.8,3.8C156.7,194.9,155,196.7,152.9,196.7"/>
						<path id="Fill-82" class="st11" d="M223.3,196.7h-92.6c-2.1,0-3.8-1.7-3.8-3.8c0-2.1,1.7-3.8,3.8-3.8h92.6
							c2.1,0,3.8,1.7,3.8,3.8C227.1,194.9,225.4,196.7,223.3,196.7"/>
						<path id="Fill-83" class="st5" d="M106.7,133.2l-1.1,6l0,0c-0.1,0.5,0.3,1.1,0.8,1.2c0.2,0,0.4,0,0.6-0.1l6-3l0,0
							c0.5-0.2,0.7-0.8,0.4-1.3c-0.1-0.2-0.2-0.3-0.4-0.4l-4.9-3l0,0c-0.5-0.3-1.1-0.1-1.4,0.3C106.8,132.9,106.8,133,106.7,133.2z"
							/>
						<path id="Fill-84" class="st5" d="M101.1,161.1l-1.1,6l0,0c-0.1,0.5,0.3,1.1,0.8,1.2c0.2,0,0.4,0,0.6-0.1l6-3l0,0
							c0.5-0.2,0.7-0.8,0.4-1.3c-0.1-0.2-0.2-0.3-0.4-0.4l-4.9-3l0,0c-0.5-0.3-1.1-0.1-1.4,0.3C101.2,160.8,101.1,160.9,101.1,161.1
							z"/>
						<path id="Fill-86" class="st8" d="M151.9,140.9c0.1,0,2.6-1.4,4.6-3c1.2-0.9,2.2-1.9,2.5-3.1c0.2-0.8-0.1-1.4-1.1-1.4
							c-1.4,0-2.2,1.3-2.5,2.4l-1.8-0.3c0.5-2,2.2-3.8,4.5-3.8c2,0,3.2,1.4,2.7,3.3c-0.4,1.6-1.9,3.1-3.4,4.3
							c-0.9,0.6-1.7,1.2-2.3,1.5l4.9,0l-0.4,1.7h-8.1L151.9,140.9z"/>
						<path id="Fill-87" class="st8" d="M168.1,137c0.4-1.6,0.2-3.5-1.4-3.5c-1.7,0-2.9,2-3.3,3.8c-0.4,1.6-0.2,3.5,1.5,3.5
							C166.5,140.9,167.7,138.8,168.1,137 M161.6,137c0.5-2.2,2.2-5.3,5.3-5.3c3,0,3.7,2.9,3.1,5.7c-0.6,2.5-2.5,5.3-5.3,5.3
							C161.3,142.7,161,139.4,161.6,137"/>
						<polygon id="Fill-88" class="st8" points="171.4,140.5 173.5,140.5 171,144.2 169.8,144.2 						"/>
						<path id="Fill-89" class="st8" d="M181.8,137c0.4-1.6,0.2-3.5-1.4-3.5c-1.7,0-2.9,2-3.3,3.8c-0.4,1.6-0.2,3.5,1.5,3.5
							C180.2,140.9,181.4,138.8,181.8,137 M175.3,137c0.5-2.2,2.2-5.3,5.3-5.3c3,0,3.7,2.9,3.1,5.7c-0.6,2.5-2.5,5.3-5.3,5.3
							C175,142.7,174.7,139.4,175.3,137"/>
						<path id="Fill-90" class="st8" d="M190.7,137c0.4-1.6,0.2-3.5-1.4-3.5c-1.7,0-2.9,2-3.3,3.8c-0.4,1.6-0.2,3.5,1.5,3.5
							C189.1,140.9,190.3,138.8,190.7,137 M184.2,137c0.5-2.2,2.2-5.3,5.3-5.3c3,0,3.7,2.9,3.1,5.7c-0.6,2.5-2.5,5.3-5.3,5.3
							C184,142.7,183.7,139.4,184.2,137"/>
						<path id="Fill-91" class="st14" d="M198.5,139l-1.4,0.1l0.9-1.4l0.6-0.1c0-0.2,0.1-0.4,0.1-0.6c0-0.1,0.1-0.4,0.1-0.6
							l-1.2,0.1l0.9-1.4l0.8-0.1c1-2,2.5-3.4,4.6-3.4c1.3,0,2.2,0.6,2.7,1.6l-1.3,0.8c-0.3-0.6-0.9-0.8-1.6-0.8
							c-1.3,0-2.2,0.8-2.8,1.9l4-0.1l-0.9,1.4l-3.7,0.1c-0.1,0.2-0.1,0.4-0.2,0.6c0,0.1-0.1,0.3-0.1,0.5l4.3-0.1l-0.9,1.4l-3.5,0.1
							c0.1,1.2,0.7,1.9,1.8,1.9c0.8,0,1.5-0.3,2-0.9l0.9,1.2c-0.9,0.9-2,1.3-3.1,1.3C199.4,142.7,198.5,141,198.5,139"/>
						<path id="Fill-92" class="st5" d="M113,106.1l-1.1,6l0,0c-0.1,0.5,0.3,1.1,0.8,1.2c0.2,0,0.4,0,0.6-0.1l6-3l0,0
							c0.5-0.2,0.7-0.8,0.4-1.3c-0.1-0.2-0.2-0.3-0.4-0.4l-4.9-3l0,0c-0.5-0.3-1.1-0.1-1.4,0.3C113,105.9,113,106,113,106.1z"/>
						<path id="Fill-94" class="st8" d="M156.6,108.2c0.2-1-0.5-1.8-1.5-1.8c-1.1,0-2.3,0.9-2.6,2.1c-0.2,1,0.5,1.8,1.5,1.8
							C155.2,110.3,156.4,109.4,156.6,108.2L156.6,108.2z M154,112h-0.2c-2.2,0-3.6-1.6-3.1-3.7c0.4-1.9,2.4-3.6,4.6-3.6
							c2.2,0,3.6,1.7,3.1,3.8c-0.2,0.6-0.5,1.2-0.9,1.8l-4.4,5.2h-2.2L154,112z"/>
						<path id="Fill-95" class="st8" d="M158.6,112l1.8,0c-0.3,1.2,0.5,1.8,1.6,1.8c1.2,0,2.4-0.6,2.6-1.8c0.2-1-0.5-1.4-1.6-1.4
							h-1.1l0.4-1.7h1c0.9,0,1.6-0.5,1.8-1.4c0.2-0.7-0.4-1.1-1.2-1.1c-1,0-1.8,0.6-2.1,1.6l-1.7-0.3c0.5-2,2.2-3.1,4-3.1
							c1.8,0,3.2,1.1,2.8,3.1c-0.2,0.7-0.7,1.5-1.4,2c0.9,0.5,1.1,1.5,0.9,2.7c-0.5,2.1-2.5,3.2-4.6,3.2
							C159.7,115.6,158.1,114.4,158.6,112"/>
						<path id="Fill-96" class="st8" d="M167.1,113.9c0.1,0,2.6-1.4,4.6-3c1.2-0.9,2.2-1.9,2.5-3.1c0.2-0.8-0.1-1.4-1.1-1.4
							c-1.4,0-2.2,1.3-2.5,2.4l-1.8-0.3c0.5-2,2.2-3.8,4.5-3.8c2,0,3.2,1.4,2.7,3.3c-0.4,1.6-1.9,3.1-3.4,4.3
							c-0.9,0.6-1.7,1.2-2.3,1.5l4.9,0l-0.4,1.7h-8.1L167.1,113.9z"/>
						<polygon id="Fill-97" class="st8" points="177.6,113.5 179.8,113.5 177.3,117.2 176,117.2 						"/>
						<path id="Fill-98" class="st8" d="M188,110c0.4-1.6,0.2-3.5-1.4-3.5c-1.7,0-2.9,2-3.3,3.8c-0.4,1.6-0.2,3.5,1.5,3.5
							C186.5,113.8,187.6,111.7,188,110 M181.5,110c0.5-2.2,2.2-5.3,5.3-5.3c3,0,3.7,2.9,3.1,5.7c-0.6,2.5-2.5,5.3-5.3,5.3
							C181.3,115.6,181,112.3,181.5,110"/>
						<path id="Fill-99" class="st8" d="M197,110c0.4-1.6,0.2-3.5-1.4-3.5c-1.7,0-2.9,2-3.3,3.8c-0.4,1.6-0.2,3.5,1.5,3.5
							C195.4,113.8,196.6,111.7,197,110 M190.5,110c0.5-2.2,2.2-5.3,5.3-5.3c3,0,3.7,2.9,3.1,5.7c-0.6,2.5-2.5,5.3-5.3,5.3
							C190.2,115.6,189.9,112.3,190.5,110"/>
						<path id="Fill-100" class="st14" d="M204.8,112l-1.4,0.1l0.9-1.4l0.6-0.1c0-0.2,0.1-0.4,0.1-0.6c0-0.1,0.1-0.4,0.1-0.6
							l-1.2,0.1l0.9-1.4l0.8-0.1c1-2,2.5-3.4,4.6-3.4c1.3,0,2.2,0.6,2.7,1.6l-1.3,0.8c-0.3-0.6-0.9-0.8-1.6-0.8
							c-1.3,0-2.2,0.8-2.8,1.9l4-0.1l-0.9,1.4l-3.7,0.1c-0.1,0.2-0.1,0.4-0.2,0.6c0,0.1-0.1,0.3-0.1,0.5l4.3-0.1l-0.9,1.4l-3.5,0.1
							c0.1,1.2,0.7,1.9,1.8,1.9c0.8,0,1.5-0.3,2-0.9l0.9,1.2c-0.9,0.9-2,1.3-3.1,1.3C205.7,115.6,204.7,114,204.8,112"/>
						<polygon id="Fill-101" class="st8" points="132.2,164.6 129,164.6 129.3,163.2 132.5,163.2 133.2,160 134.6,160 133.9,163.2 
							137.1,163.2 136.8,164.6 133.6,164.6 132.9,167.8 131.5,167.8 						"/>
						<polygon id="Fill-101-Copy" class="st8" points="145.2,138.6 142,138.6 142.3,137.2 145.5,137.2 146.2,134 147.6,134 
							146.9,137.2 150.1,137.2 149.8,138.6 146.6,138.6 145.9,141.8 144.5,141.8 						"/>
						<polygon id="Fill-101-Copy-2" class="st8" points="142.7,112.2 139.5,112.2 139.8,110.8 143,110.8 143.8,107.6 145.2,107.6 
							144.4,110.8 147.6,110.8 147.3,112.2 144.1,112.2 143.4,115.4 142,115.4 						"/>
						<path id="Fill-102" class="st8" d="M145.5,158.4L143,169h-1.9l1.7-7.5h-2.5l0.3-1.5h1.4c0.4,0,0.7-0.1,0.9-0.3
							c0.3-0.2,0.4-0.5,0.5-0.8l0.1-0.6H145.5z"/>
						<path id="Fill-103" class="st8" d="M151.2,160.2l-0.8,1.9c0.5-0.2,1.1-0.3,1.6-0.3c0.6,0,1.1,0.1,1.5,0.4
							c0.4,0.3,0.8,0.6,1,1.1c0.2,0.5,0.4,1,0.4,1.5c0,0.3,0,0.6-0.1,0.9c-0.1,0.6-0.5,1.2-0.9,1.8c-0.5,0.6-1,1-1.7,1.3
							c-0.7,0.3-1.3,0.5-2,0.5c-0.6,0-1.2-0.1-1.7-0.4c-0.5-0.3-0.9-0.7-1.1-1.2c-0.3-0.5-0.4-1.1-0.4-1.7l1.8-0.3
							c0,0.6,0.1,1,0.3,1.4c0.2,0.4,0.6,0.5,1.2,0.5c0.4,0,0.8-0.1,1.1-0.3c0.4-0.2,0.7-0.5,0.9-0.8c0.3-0.3,0.4-0.7,0.5-1.1
							c0-0.2,0.1-0.3,0.1-0.4c0-0.4-0.1-0.7-0.4-1c-0.3-0.3-0.6-0.4-1.1-0.4c-0.4,0-0.7,0.1-1.1,0.3c-0.4,0.2-0.7,0.5-1,0.8
							l-1.6-0.5l2.3-5.6h5.9l-0.4,1.8H151.2z"/>
						<path id="Fill-104" class="st8" d="M162.1,164.9c0-0.3-0.1-0.5-0.2-0.7c-0.1-0.2-0.3-0.4-0.5-0.5c-0.2-0.1-0.5-0.2-0.8-0.2
							c-0.4,0-0.8,0.1-1.1,0.3c-0.4,0.2-0.7,0.4-0.9,0.8c-0.3,0.3-0.4,0.7-0.5,1c0,0.1,0,0.3,0,0.4c0,0.3,0.1,0.5,0.2,0.7
							c0.1,0.2,0.3,0.4,0.5,0.5c0.2,0.1,0.5,0.2,0.8,0.2c0.4,0,0.8-0.1,1.1-0.3c0.4-0.2,0.7-0.4,0.9-0.8c0.3-0.3,0.4-0.7,0.5-1.1
							C162.1,165.2,162.1,165,162.1,164.9 M162.5,162.2c0.5,0.3,0.8,0.6,1.1,1.1c0.3,0.5,0.4,1,0.4,1.5c0,0.3,0,0.5-0.1,0.8
							c-0.2,0.6-0.5,1.2-0.9,1.8c-0.5,0.5-1,1-1.7,1.3c-0.6,0.3-1.3,0.5-2,0.5c-0.6,0-1.2-0.1-1.6-0.4s-0.9-0.6-1.1-1.1
							c-0.3-0.5-0.4-1-0.4-1.6c0-0.3,0-0.6,0.1-0.8c0.1-0.4,0.3-0.8,0.5-1.2c0.2-0.4,0.5-0.7,0.9-1l3.9-4.6h2.2l-2.9,3.4
							C161.5,161.8,162,161.9,162.5,162.2"/>
						<polygon id="Fill-105" class="st8" points="166.1,167 168.3,167 165.4,171.3 164.1,171.3 						"/>
						<path id="Fill-106" class="st8" d="M174.5,166.8c0.3-0.4,0.6-0.8,0.8-1.4c0.2-0.5,0.4-1.2,0.5-1.9c0.1-0.5,0.2-0.9,0.3-1.2
							c0.1-0.3,0.1-0.6,0.1-0.9c0-0.4-0.1-0.7-0.3-1c-0.2-0.2-0.5-0.4-0.9-0.4c-0.5,0-1,0.2-1.3,0.5c-0.3,0.4-0.6,0.8-0.8,1.3
							c-0.2,0.5-0.4,1.2-0.6,1.9c-0.1,0.5-0.2,0.9-0.3,1.2c-0.1,0.3-0.1,0.6-0.1,0.9c0,0.4,0.1,0.8,0.3,1c0.2,0.2,0.5,0.4,0.9,0.4
							C173.7,167.4,174.1,167.2,174.5,166.8 M170.2,166.1c0-0.7,0.1-1.5,0.3-2.5c0.2-0.9,0.5-1.8,0.8-2.5c0.3-0.8,0.8-1.4,1.5-2
							c0.6-0.5,1.4-0.8,2.4-0.8c1,0,1.7,0.3,2.1,0.9c0.4,0.6,0.7,1.4,0.7,2.4c0,0.7-0.1,1.5-0.3,2.4c-0.4,1.5-0.9,2.8-1.7,3.8
							c-0.7,1-1.8,1.5-3,1.5C171.1,169.2,170.2,168.1,170.2,166.1"/>
						<path id="Fill-107" class="st8" d="M183.4,166.8c0.3-0.4,0.6-0.8,0.8-1.4c0.2-0.5,0.4-1.2,0.5-1.9c0.1-0.5,0.2-0.9,0.3-1.2
							c0.1-0.3,0.1-0.6,0.1-0.9c0-0.4-0.1-0.7-0.3-1c-0.2-0.2-0.5-0.4-0.9-0.4c-0.5,0-1,0.2-1.3,0.5c-0.3,0.4-0.6,0.8-0.8,1.3
							c-0.2,0.5-0.4,1.2-0.6,1.9c-0.1,0.5-0.2,0.9-0.3,1.2c-0.1,0.3-0.1,0.6-0.1,0.9c0,0.4,0.1,0.8,0.3,1c0.2,0.2,0.5,0.4,0.9,0.4
							C182.7,167.4,183.1,167.2,183.4,166.8 M179.1,166.1c0-0.7,0.1-1.5,0.3-2.5c0.2-0.9,0.5-1.8,0.8-2.5c0.3-0.8,0.8-1.4,1.5-2
							c0.6-0.5,1.4-0.8,2.4-0.8c1,0,1.7,0.3,2.1,0.9c0.4,0.6,0.7,1.4,0.7,2.4c0,0.7-0.1,1.5-0.3,2.4c-0.4,1.5-0.9,2.8-1.7,3.8
							c-0.7,1-1.8,1.5-3,1.5C180.1,169.2,179.1,168.1,179.1,166.1"/>
						<path id="Fill-108" class="st14" d="M192.7,165.5l-1.4,0.1l0.9-1.4l0.6-0.1c0-0.2,0.1-0.4,0.1-0.6c0-0.1,0.1-0.4,0.1-0.6
							l-1.2,0.1l0.9-1.4l0.8-0.1c1-2,2.5-3.4,4.6-3.4c1.3,0,2.2,0.6,2.7,1.6l-1.3,0.8c-0.3-0.6-0.9-0.8-1.6-0.8
							c-1.3,0-2.2,0.8-2.8,1.9l4-0.1l-0.9,1.4l-3.7,0.1c-0.1,0.2-0.1,0.4-0.2,0.6c0,0.1-0.1,0.3-0.1,0.5l4.3-0.1l-0.9,1.4l-3.5,0.1
							c0.1,1.2,0.7,1.9,1.8,1.9c0.8,0,1.5-0.3,2-0.9l0.9,1.2c-0.9,0.9-2,1.3-3.1,1.3C193.6,169.2,192.7,167.6,192.7,165.5"/>
						<polygon id="Fill-109" class="st13" points="2,210 373.1,210 373.1,196.7 2,196.7 						"/>
					</g>
				</g>
			</g>
		</g>
	</g>
</g>
</svg>
