<?xml version="1.0" encoding="UTF-8"?>
<svg width="90px" height="90px" viewBox="0 0 90 90" version="1.1" xmlns="http://www.w3.org/2000/svg" xmlns:xlink="http://www.w3.org/1999/xlink">
    <!-- Generator: Sketch 46.2 (44496) - http://www.bohemiancoding.com/sketch -->
    <title>Group 10</title>
    <desc>Created with Sketch.</desc>
    <defs></defs>
    <g id="Website" stroke="none" stroke-width="1" fill="none" fill-rule="evenodd">
        <g id="Pagamenti" transform="translate(-212.000000, -3217.000000)">
            <g id="Group-10" transform="translate(212.000000, 3217.000000)">
                <circle id="Oval-Copy-5" fill="#DADFFD" cx="45" cy="45" r="45"></circle>
                <g id="security-glyph-48" transform="translate(24.000000, 24.000000)" fill-rule="nonzero" fill="#3454F6">
                    <path d="M41,6 C34.501,6 26.869,3.711 21.555,0.168 C21.219,-0.056 20.782,-0.056 20.446,0.168 C15.131,3.711 7.499,6 1,6 C0.448,6 0,6.448 0,7 C0,23.336 7.703,36.39 20.606,41.919 C20.732,41.973 20.866,42 21,42 C21.134,42 21.268,41.973 21.394,41.919 C34.297,36.39 42,23.336 42,7 C42,6.448 41.552,6 41,6 Z M21,39.909 L21,21 L4.223,21 C2.864,17.034 2.103,12.659 2.01,7.983 C8.418,7.769 15.693,5.555 21,2.192 L21,21 L37.777,21 C34.811,29.655 28.99,36.351 21,39.909 Z" id="Shape"></path>
                </g>
            </g>
        </g>
    </g>
</svg>