<?xml version="1.0" encoding="utf-8"?>
<!-- Generator: Adobe Illustrator 21.0.1, SVG Export Plug-In . SVG Version: 6.00 Build 0)  -->
<svg version="1.1" id="Livello_1" xmlns="http://www.w3.org/2000/svg" xmlns:xlink="http://www.w3.org/1999/xlink" x="0px" y="0px"
	 viewBox="0 0 376 300" style="enable-background:new 0 0 376 300;" xml:space="preserve">
<style type="text/css">
	.st0{fill:none;}
	.st1{fill:#C1F3D3;}
	.st2{fill:#7BE9A0;}
	.st3{fill:#4573F1;}
	.st4{fill:#375AF1;}
	.st5{fill:#333149;}
	.st6{fill:#FFFFFF;}
	.st7{fill:#67D4A0;}
	.st8{fill:#F0F1F4;}
	.st9{fill:#EFF0F3;}
	.st10{fill:#6A687B;}
	.st11{fill:#FFD645;}
	.st12{fill:#C6C5CC;}
	.st13{fill:#C7C6CD;}
	.st14{fill:#FDD453;}
	.st15{fill:#3454F6;}
</style>
<title>Illustration / Pagamenti</title>
<desc>Created with Sketch.</desc>
<g id="Website">
	<g id="Pagamenti" transform="translate(-250.000000, -1196.000000)">
		<g id="Illustration-_x2F_-Pagamenti" transform="translate(212.000000, 1176.000000)">
			<g id="Group-2">
				<rect id="Rectangle-12" x="37.5" y="20" class="st0" width="376" height="300"/>
				<g id="Group-7" transform="translate(38.000000, 20.000000)">
					<g id="Page-1">
						<path id="Fill-1" class="st1" d="M241.2,219.4c-0.3,0-0.6,0-0.8,0c-26.2-0.4-44.7-20.5-45.5-21.4l12.3-11.2
							c0.1,0.2,14.7,15.7,33.6,15.9c0.1,0,0.3,0,0.4,0c11.2,0,24.3-3.9,34.7-14.6l7.4,8.5C269.7,210.8,257.1,219.4,241.2,219.4z"/>
						<path id="Fill-3" class="st1" d="M128,218.7c-0.3,0-0.6,0-0.8,0c-26.2-0.4-41-22.8-41.7-23.6l7-7.4
							c0.1,0.2,16.2,14.2,35.1,14.4c11.3,0.1,22.4-5.3,32.8-16.1l12,11.5C158.7,211.6,143.8,218.7,128,218.7"/>
						<path id="Fill-5" class="st2" d="M210.1,194.2c-0.4-6-4.7-10.6-9.8-10.6h-8.8h-22.3H166c-5.1,0-9.4,4.7-9.8,10.7l-2.1,51h55.5
							L210.1,194.2z"/>
						<polygon id="Fill-7" class="st3" points="194.1,184.5 172.6,184.5 171.1,166.7 195.6,166.7 						"/>
						<polygon id="Fill-9" class="st4" points="195,175.4 172.1,178.3 171.8,174.9 187.8,166.8 						"/>
						<path id="Fill-11" class="st3" d="M164.8,126.3v16.9c0,3.8,4.1,30.3,7.9,30.3h0.5l16,0.4l-13.3-2v-12l0,17.2v-11
							c0,6.5,5.3,5.6,11.8,5.6c6.5,0,11.8-5.3,11.8-11.8c0-20.4-0.2-23.6,0-3.2h0l0.7-5.2l2.8-5.7l1.6-19.5H164.8z"/>
						<path id="Fill-13" class="st2" d="M183.9,158.7L183.9,158.7c1,0,1.7-0.8,1.7-1.7v-6.6c0-1-0.8-1.7-1.7-1.7
							c-1,0-1.7,0.8-1.7,1.7v6.6C182.2,157.9,183,158.7,183.9,158.7"/>
						<path id="Fill-15" class="st5" d="M175.4,152.4L175.4,152.4c0.8,0,1.4-0.6,1.4-1.4v-2.8c0-0.8-0.6-1.4-1.4-1.4
							c-0.8,0-1.4,0.6-1.4,1.4v2.8C174,151.8,174.6,152.4,175.4,152.4"/>
						<path id="Fill-17" class="st5" d="M192.1,152.4L192.1,152.4c0.8,0,1.4-0.6,1.4-1.4v-2.8c0-0.8-0.6-1.4-1.4-1.4
							c-0.8,0-1.4,0.6-1.4,1.4v2.8C190.7,151.8,191.3,152.4,192.1,152.4"/>
						<path id="Fill-19" class="st5" d="M195.2,141.1c0.1,0,0.3-0.1,0.4-0.2c0.4-0.4,0.5-1.1,0.1-1.5c-1-1.2-3.4-2.4-5.6-0.5
							c-0.5,0.4-0.5,1.1-0.1,1.5c0.4,0.5,1.1,0.5,1.5,0.1c1.3-1.1,2.3-0.1,2.6,0.2C194.3,141.2,194.8,141.3,195.2,141.1"/>
						<path id="Fill-21" class="st5" d="M172.8,141.4c0.4,0.1,0.9-0.1,1.1-0.4c0.3-0.4,1.2-1.4,2.6-0.5c0.5,0.3,1.2,0.2,1.5-0.3
							c0.3-0.5,0.2-1.2-0.3-1.5c-2.4-1.7-4.6-0.3-5.6,1c-0.3,0.5-0.2,1.2,0.3,1.5C172.5,141.3,172.7,141.3,172.8,141.4"/>
						<path id="Fill-23" class="st5" d="M196.7,116.5c-3.1-0.7-6.6-1-10.4-0.6c-0.8,0-1.6,0.1-2.5,0.3c-0.8-0.2-1.7-0.3-2.5-0.3
							c-3.7-0.4-7.3,0-10.4,0.6c-5.8,1.2-9.6,6-8.8,12.6l0.7,14.3l2.6,4.3l1-9.5c0.5-6.5,3.1-8.7,4.5-9.3l0.1,0
							c1.7-0.6,2.8-0.2,3.8,0.1c0.8,0.3,1.6,0.5,2.5,0.7c1.8,0.5,2.4,0.6,5.4,0.6c0,0,0.1,0,0.1,0c0.3,0,0.5,0,0.8,0
							c0.3,0,0.5,0,0.8,0c0,0,0.1,0,0.1,0c3.1,0,3.8-0.1,5.6-0.6c0.9-0.2,0.2-0.4,1-0.7c1-0.3,2.1-0.7,3.8-0.1l0.1,0
							c1.4,0.6,6.3,4.1,6.4,10.8l0.1,6l2.9-1.3l0.8-15.4C206.3,122.6,202.4,117.8,196.7,116.5"/>
						<path id="Fill-25" class="st3" d="M161.7,150.1c0,3.3,2.7,5.9,5.9,5.9c3.3,0,5.9-2.7,5.9-5.9c0-3.3-2.7-5.9-5.9-5.9
							C164.3,144.2,161.7,146.9,161.7,150.1"/>
						<path id="Fill-27" class="st3" d="M194.6,150.1c0,3.3,2.7,5.9,5.9,5.9c3.3,0,5.9-2.7,5.9-5.9c0-3.3-2.7-5.9-5.9-5.9
							C197.3,144.2,194.6,146.9,194.6,150.1"/>
						<path id="Fill-29" class="st5" d="M202.6,141.4l-8.1,24.3l-0.5-3.3c-0.3-1.7-1.7-2.9-3.4-2.9h-13.7c-1.7,0-3.1,1.2-3.4,2.8
							l-0.6,3.3l-7.5-23.2l-2.4,1.1l4.1,29.3c0.2,1.6,1.5,2.7,3.1,2.7h26.6c1.5,0,2.8-1.1,3.1-2.6l4.8-28.3L202.6,141.4z"/>
						<path id="Fill-31" class="st6" d="M180.9,162.5c-0.6,0-1,0.5-0.8,1.1c0.4,1.4,1.8,2.4,3.7,2.4c2,0,3.3-1,3.7-2.4
							c0.2-0.5-0.3-1.1-0.8-1.1H180.9z"/>
						<path id="Fill-33" class="st5" d="M199.8,121.1c0,5-5.4,9.1-12,9.1c-6.7,0-12-4.1-12-9.1c0-5,5.4-9.1,12-9.1
							C194.4,112,199.8,116,199.8,121.1"/>
						<path id="Fill-35" class="st7" d="M196.7,222.7L196.7,222.7c-3.8,0-6.8-3-6.8-6.8v-11.4h13.6v11.4
							C203.5,219.7,200.5,222.7,196.7,222.7"/>
						<polygon id="Fill-37" class="st2" points="189.6,210.4 203.8,210.4 203.8,209.1 189.6,209.1 						"/>
						<path id="Fill-39" class="st3" d="M194.2,183.8c0,3.5-4.8,6.4-10.8,6.4c-6,0-10.8-2.8-10.8-6.4s4.8-2.6,10.8-2.6
							C189.4,181.3,194.2,180.3,194.2,183.8"/>
						<path id="Fill-40" class="st3" d="M289.7,198.6l-5.9-0.2c-3.9-0.1-7-3.4-6.8-7.2l0-1.8c0.1-3.9,3.4-7,7.2-6.8l5.9,0.2
							c3.9,0.1,7,3.4,6.8,7.2l0,1.8C296.8,195.6,293.5,198.7,289.7,198.6"/>
						<path id="Fill-41" class="st3" d="M292.8,193.5L292.8,193.5c0.1-0.8,0.8-1.5,1.6-1.4l10.5,0.7c0.8,0.1,1.5,0.8,1.4,1.6
							c-0.1,0.8-0.8,1.5-1.6,1.4l-10.5-0.7C293.4,195.1,292.8,194.3,292.8,193.5"/>
						<path id="Fill-42" class="st3" d="M295.5,189.1L295.5,189.1c0.1-0.8,0.8-1.5,1.6-1.4l10.5,0.7c0.8,0.1,1.5,0.8,1.4,1.6
							c-0.1,0.8-0.8,1.5-1.6,1.4l-10.5-0.7C296.1,190.7,295.4,190,295.5,189.1"/>
						<path id="Fill-43" class="st3" d="M289.9,184.2L289.9,184.2c0.1-0.8,0.8-1.5,1.6-1.4l14.4,1c0.8,0.1,1.5,0.8,1.4,1.6
							c-0.1,0.8-0.8,1.5-1.6,1.4l-14.4-1C290.5,185.8,289.8,185.1,289.9,184.2"/>
						<path id="Fill-44" class="st3" d="M289.7,197.2L289.7,197.2c0-0.7,0.7-1.2,1.4-1.2l8.6,0.6c0.7,0,1.2,0.7,1.2,1.4
							c0,0.7-0.7,1.2-1.4,1.2l-8.6-0.6C290.2,198.5,289.6,197.9,289.7,197.2"/>
						<path id="Fill-45" class="st3" d="M293.1,177.4L293.1,177.4c0.6,0.9,0.3,2-0.5,2.6L282,187c-0.9,0.6-2,0.3-2.6-0.5
							c-0.6-0.9-0.3-2,0.5-2.6l10.6-7.1C291.4,176.3,292.5,176.5,293.1,177.4"/>
						<path id="Fill-46" class="st3" d="M79.2,196.7l5.9-0.3c3.9-0.2,6.9-3.5,6.7-7.3l-0.1-1.8c-0.2-3.9-3.5-6.9-7.3-6.7l-5.9,0.3
							c-3.9,0.2-6.9,3.5-6.7,7.3l0.1,1.8C72,193.8,75.3,196.8,79.2,196.7"/>
						<path id="Fill-47" class="st3" d="M76,191.6L76,191.6c-0.1-0.8-0.8-1.5-1.7-1.4l-10.5,0.9c-0.8,0.1-1.5,0.8-1.4,1.7
							c0.1,0.8,0.8,1.5,1.7,1.4l10.5-0.9C75.4,193.2,76,192.5,76,191.6"/>
						<path id="Fill-48" class="st3" d="M73.2,187.3L73.2,187.3c-0.1-0.8-0.8-1.5-1.7-1.4l-10.5,0.9c-0.8,0.1-1.5,0.8-1.4,1.7
							c0.1,0.8,0.8,1.5,1.7,1.4l10.5-0.9C72.7,188.9,73.3,188.2,73.2,187.3"/>
						<path id="Fill-49" class="st3" d="M78.7,182.3L78.7,182.3c-0.1-0.8-0.8-1.5-1.7-1.4l-14.4,1.2c-0.8,0.1-1.5,0.8-1.4,1.7
							c0.1,0.8,0.8,1.5,1.7,1.4l14.4-1.2C78.2,183.9,78.8,183.2,78.7,182.3"/>
						<path id="Fill-50" class="st3" d="M79.2,195.3L79.2,195.3c-0.1-0.7-0.7-1.2-1.4-1.2l-8.6,0.7c-0.7,0.1-1.2,0.7-1.2,1.4
							c0.1,0.7,0.7,1.2,1.4,1.2l8.6-0.7C78.7,196.6,79.2,196,79.2,195.3"/>
						<path id="Fill-51" class="st3" d="M75.4,175.5L75.4,175.5c-0.6,0.9-0.3,2,0.6,2.6l10.7,6.9c0.9,0.6,2,0.3,2.6-0.6
							s0.3-2-0.6-2.6L78,175C77.1,174.4,76,174.7,75.4,175.5"/>
						<polygon id="Fill-52" class="st6" points="44.4,264.7 337.7,264.7 337.7,232.1 44.4,232.1 						"/>
						<path id="Fill-54" class="st8" d="M70.9,155.9l-31.5-26.7c-1.5-1.2-1.7-3.5-0.4-4.9l16.3-19.2c1.2-1.5,3.5-1.7,4.9-0.4
							l31.5,26.7c1.5,1.2,1.7,3.5,0.4,4.9l-16.3,19.2C74.6,157,72.4,157.2,70.9,155.9"/>
						<path id="Fill-55" class="st9" d="M331.7,135.4l-59,14.9c-2.8,0.7-5.6-1-6.3-3.7l-9.1-36c-0.7-2.8,1-5.6,3.7-6.3l59-14.9
							c2.8-0.7,5.6,1,6.3,3.7l9.1,36C336.1,131.9,334.5,134.7,331.7,135.4"/>
						<polygon id="Fill-56" class="st10" points="329.9,107 260.9,124.5 258.5,115 327.5,97.5 						"/>
						<path id="Fill-57" class="st2" d="M328.3,125c0.7,2.8-1,5.6-3.8,6.3c-2.8,0.7-5.6-1-6.3-3.8c-0.7-2.8,1-5.6,3.8-6.3
							C324.7,120.6,327.6,122.2,328.3,125"/>
						<path id="Fill-58" class="st4" d="M321.4,126.8c0.7,2.8-1,5.6-3.8,6.3c-2.8,0.7-5.6-1-6.3-3.8c-0.7-2.8,1-5.6,3.8-6.3
							C317.8,122.3,320.7,124,321.4,126.8"/>
						<path id="Fill-59" class="st11" d="M84.5,133.5c0.5,1.9-0.7,3.9-2.6,4.4s-3.9-0.7-4.4-2.6c-0.5-1.9,0.7-3.9,2.6-4.4
							C82.1,130.4,84,131.6,84.5,133.5"/>
						<path id="Fill-60" class="st12" d="M288.5,132.9L272,137c-0.5,0.1-1-0.2-1.1-0.6c-0.1-0.5,0.2-1,0.6-1.1l16.6-4.2
							c0.5-0.1,1,0.2,1.1,0.6C289.3,132.3,289,132.7,288.5,132.9"/>
						<path id="Fill-61" class="st12" d="M280.6,139.3l-7.5,1.9c-0.5,0.1-1-0.2-1.1-0.6s0.2-1,0.6-1.1l7.5-1.9
							c0.5-0.1,1,0.2,1.1,0.6C281.3,138.7,281,139.2,280.6,139.3"/>
						<path id="Fill-62" class="st13" d="M55.3,131.1l-8.8-7.5c-0.3-0.2-0.3-0.6-0.1-0.9c0.2-0.3,0.6-0.3,0.9-0.1l8.8,7.5
							c0.3,0.2,0.3,0.6,0.1,0.9C55.9,131.3,55.6,131.3,55.3,131.1"/>
						<path id="Fill-63" class="st13" d="M48.6,129.2l-4-3.4c-0.3-0.2-0.3-0.6-0.1-0.9c0.2-0.3,0.6-0.3,0.9-0.1l4,3.4
							c0.3,0.2,0.3,0.6,0.1,0.9C49.2,129.4,48.8,129.4,48.6,129.2"/>
						<g id="Group-8" transform="translate(87.697416, 0.212891)">
							<path id="Fill-64" class="st9" d="M84.6,75.8L50,88.4c-1.6,0.6-3.4-0.3-4-1.9l-7.7-21.1c-0.6-1.6,0.3-3.4,1.9-4l34.6-12.6
								c1.6-0.6,3.4,0.3,4,1.9l7.7,21.1C87.1,73.4,86.2,75.2,84.6,75.8"/>
							<polygon id="Fill-65" class="st12" points="81.8,58.8 41.3,73.5 39.3,68 79.7,53.2 							"/>
							<path id="Fill-66" class="st6" d="M81.9,69.7c0.6,1.6-0.2,3.5-1.9,4c-1.6,0.6-3.5-0.2-4-1.9c-0.6-1.6,0.2-3.5,1.9-4
								C79.5,67.3,81.3,68.1,81.9,69.7"/>
							<path id="Fill-67" class="st12" d="M77.9,71.2c0.6,1.6-0.2,3.5-1.9,4c-1.6,0.6-3.5-0.2-4-1.9c-0.6-1.6,0.2-3.5,1.9-4
								S77.3,69.6,77.9,71.2"/>
							<path id="Fill-68" class="st12" d="M58.5,76.9l-9.7,3.5c-0.3,0.1-0.6,0-0.7-0.3c-0.1-0.3,0-0.6,0.3-0.7l9.7-3.5
								c0.3-0.1,0.6,0,0.7,0.3C58.9,76.5,58.8,76.8,58.5,76.9"/>
							<path id="Fill-69" class="st12" d="M54.1,81.3l-4.4,1.6c-0.3,0.1-0.6,0-0.7-0.3c-0.1-0.3,0-0.6,0.3-0.7l4.4-1.6
								c0.3-0.1,0.6,0,0.7,0.3C54.5,80.9,54.3,81.2,54.1,81.3"/>
							<path id="Fill-70" class="st10" d="M124.9,88.7L69.7,63.5c-2.6-1.2-3.7-4.3-2.6-6.8L82.5,23c1.2-2.6,4.3-3.7,6.8-2.6
								l55.2,25.1c2.6,1.2,3.7,4.3,2.6,6.8l-15.3,33.7C130.6,88.7,127.5,89.8,124.9,88.7"/>
							<polygon id="Fill-71" class="st5" points="141.2,65.4 76.6,36 80.7,27.1 145.2,56.5 							"/>
							<path id="Fill-72" class="st14" d="M128.7,78.4c-1.2,2.6-4.3,3.8-6.9,2.6c-2.6-1.2-3.8-4.3-2.6-6.9c1.2-2.6,4.3-3.8,6.9-2.6
								C128.7,72.7,129.9,75.8,128.7,78.4"/>
							<path id="Fill-73" class="st6" d="M122.3,75.5c-1.2,2.6-4.3,3.8-6.9,2.6c-2.6-1.2-3.8-4.3-2.6-6.9c1.2-2.6,4.3-3.8,6.9-2.6
								C122.3,69.8,123.4,72.9,122.3,75.5"/>
							<path id="Fill-74" class="st12" d="M92.9,59.8l-15.5-7.1C77,52.5,76.8,52,77,51.5c0.2-0.4,0.7-0.6,1.2-0.4l15.5,7.1
								c0.4,0.2,0.6,0.7,0.4,1.2C93.9,59.8,93.4,60,92.9,59.8"/>
							<path id="Fill-75" class="st12" d="M82.7,59.8l-7-3.2c-0.4-0.2-0.6-0.7-0.4-1.2c0.2-0.4,0.7-0.6,1.2-0.4l7,3.2
								c0.4,0.2,0.6,0.7,0.4,1.2C83.6,59.8,83.1,60,82.7,59.8"/>
						</g>
					</g>
					<path id="Path-2-Copy-11" class="st11" d="M270.8,77l-5.6-4.4c-0.8-0.7-1-1.8-0.4-2.5c0.2-0.2,0.4-0.4,0.7-0.5l5.7-2
						c0.9-0.3,2.1,0.1,2.5,1.1c0.1,0.3,0.2,0.5,0.2,0.8l-0.2,6.4c0,1-0.9,1.7-1.9,1.6C271.5,77.5,271.1,77.3,270.8,77z"/>
					<path id="Path-2-Copy-13" class="st15" d="M82.5,80.5l1.4-7c0.2-1,1.1-1.7,2.1-1.5c0.3,0.1,0.5,0.2,0.7,0.4l4.4,4.2
						c0.7,0.7,0.8,1.9,0.2,2.7c-0.2,0.2-0.4,0.4-0.6,0.5l-5.8,2.8c-0.9,0.4-1.9,0-2.3-1C82.5,81.3,82.5,80.9,82.5,80.5z"/>
					<path id="Path-2-Copy-20" class="st8" d="M318.3,165.9l1.4-7c0.2-1,1.1-1.7,2.1-1.5c0.3,0.1,0.5,0.2,0.7,0.4l4.4,4.2
						c0.7,0.7,0.8,1.9,0.2,2.7c-0.2,0.2-0.4,0.4-0.6,0.5l-5.8,2.8c-0.9,0.4-1.9,0-2.3-1C318.3,166.7,318.2,166.3,318.3,165.9z"/>
					<path id="Path-2-Copy-21" class="st8" d="M97,112l1.4-7c0.2-1,1.1-1.7,2.1-1.5c0.3,0.1,0.5,0.2,0.7,0.4l4.4,4.2
						c0.7,0.7,0.8,1.9,0.2,2.7c-0.2,0.2-0.4,0.4-0.6,0.5l-5.8,2.8c-0.9,0.4-1.9,0-2.3-1C97,112.8,96.9,112.4,97,112z"/>
					<path id="Path-2-Copy-22" class="st8" d="M247.1,86.2l4.9-2.1c0.7-0.3,1.5,0,1.8,0.7c0.1,0.2,0.1,0.4,0.1,0.6l-0.8,4.5
						c-0.1,0.7-0.9,1.3-1.6,1.3c-0.2,0-0.4-0.1-0.6-0.2l-4.2-2.5c-0.6-0.4-0.8-1.2-0.3-1.9C246.6,86.5,246.8,86.3,247.1,86.2z"/>
					<path id="Path-2-Copy-23" class="st8" d="M47.1,165.6l4.8-2.3c0.7-0.3,1.5-0.1,1.8,0.6c0.1,0.2,0.1,0.4,0.1,0.6l-0.5,4.5
						c-0.1,0.8-0.8,1.4-1.5,1.4c-0.2,0-0.4-0.1-0.6-0.1l-4.3-2.2c-0.7-0.3-0.8-1.2-0.4-1.8C46.6,166,46.8,165.8,47.1,165.6z"/>
				</g>
			</g>
		</g>
	</g>
</g>
</svg>
