<?xml version="1.0" encoding="UTF-8"?>
<svg width="90px" height="90px" viewBox="0 0 90 90" version="1.1" xmlns="http://www.w3.org/2000/svg" xmlns:xlink="http://www.w3.org/1999/xlink">
    <!-- Generator: Sketch 46.2 (44496) - http://www.bohemiancoding.com/sketch -->
    <title>Group 8</title>
    <desc>Created with Sketch.</desc>
    <defs></defs>
    <g id="Website" stroke="none" stroke-width="1" fill="none" fill-rule="evenodd">
        <g id="Pagamenti" transform="translate(-212.000000, -3620.000000)">
            <g id="Group-8" transform="translate(212.000000, 3620.000000)">
                <circle id="Oval-Copy-6" fill="#DADFFD" cx="45" cy="45" r="45"></circle>
                <g id="single-content-02-glyph-48" transform="translate(26.000000, 22.000000)" fill-rule="nonzero" fill="#3454F6">
                    <path d="M25,34 C25,33.448 25.448,33 26,33 L38,33 L38,2 C38,0.895 37.105,0 36,0 L2,0 C0.895,0 0,0.895 0,2 L0,44 C0,45.105 0.895,46 2,46 L25,46 L25,34 Z M9,10 L29,10 C29.552,10 30,10.448 30,11 C30,11.552 29.552,12 29,12 L9,12 C8.448,12 8,11.552 8,11 C8,10.448 8.448,10 9,10 Z M9,20 L29,20 C29.552,20 30,20.448 30,21 C30,21.552 29.552,22 29,22 L9,22 C8.448,22 8,21.552 8,21 C8,20.448 8.448,20 9,20 Z M17,32 L9,32 C8.448,32 8,31.552 8,31 C8,30.448 8.448,30 9,30 L17,30 C17.552,30 18,30.448 18,31 C18,31.552 17.552,32 17,32 Z" id="Shape"></path>
                    <polygon id="Shape" points="36.414 35 27 35 27 44.414"></polygon>
                </g>
            </g>
        </g>
    </g>
</svg>