<?xml version="1.0" encoding="UTF-8"?>
<svg width="69px" height="69px" viewBox="0 0 69 69" version="1.1" xmlns="http://www.w3.org/2000/svg" xmlns:xlink="http://www.w3.org/1999/xlink">
    <!-- Generator: Sketch 46.1 (44463) - http://www.bohemiancoding.com/sketch -->
    <title>Path 2 Copy 11</title>
    <desc>Created with Sketch.</desc>
    <defs></defs>
    <g id="Symbols" stroke="none" stroke-width="1" fill="none" fill-rule="evenodd">
        <g id="Sections-/-Footer" transform="translate(-219.000000, -181.000000)" fill="#3454F6">
            <g id="Group-10" transform="translate(-244.000000, 0.000000)">
                <path d="M467.361665,219.701958 L514.370357,179.70476 L514.370357,179.70476 C516.894147,177.557401 520.680861,177.862559 522.828219,180.386348 C523.457621,181.126084 523.898032,182.007558 524.11162,182.955047 L536.440056,237.644929 L536.440056,237.644929 C537.168761,240.877521 535.13896,244.088787 531.906368,244.817493 C530.996112,245.022686 530.050544,245.012751 529.144801,244.788477 L469.807672,230.095794 L469.807672,230.095794 C466.591105,229.299328 464.629225,226.046122 465.425691,222.829555 C465.727657,221.610047 466.404812,220.516093 467.361665,219.701958 Z" id="Path-2-Copy-11" transform="translate(500.918312, 211.619366) rotate(10.000000) translate(-500.918312, -211.619366) "></path>
            </g>
        </g>
    </g>
</svg>