<?xml version="1.0" encoding="UTF-8"?>
<svg width="90px" height="90px" viewBox="0 0 90 90" version="1.1" xmlns="http://www.w3.org/2000/svg" xmlns:xlink="http://www.w3.org/1999/xlink">
    <!-- Generator: Sketch 46.2 (44496) - http://www.bohemiancoding.com/sketch -->
    <title>Group 5</title>
    <desc>Created with Sketch.</desc>
    <defs></defs>
    <g id="Website" stroke="none" stroke-width="1" fill="none" fill-rule="evenodd">
        <g id="Spedizioni" transform="translate(-812.000000, -3217.000000)">
            <g id="Group-5" transform="translate(812.000000, 3217.000000)">
                <circle id="Oval-Copy-2" fill="#DADFFD" cx="45" cy="45" r="45"></circle>
                <g id="delivery-track-glyph-48" transform="translate(21.000000, 20.000000)" fill-rule="nonzero" fill="#3454F6">
                    <circle id="Oval" cx="11.5" cy="41.5" r="4.5"></circle>
                    <circle id="Oval" cx="37.5" cy="41.5" r="4.5"></circle>
                    <path d="M47.447,29.105 L43.873,27.318 L41.977,18.783 C41.874,18.325 41.469,18 41,18 L31,18 L31,13 C31,12.447 30.553,12 30,12 L25.159,12 C23.612,15.527 20.091,18 16,18 C14.369,18 12.799,17.61 11.38,16.863 L8.121,20.121 C6.948,21.294 5.051,21.293 3.879,20.121 C2.706,18.948 2.707,17.051 3.879,15.879 L7.137,12.62 C7.031,12.418 6.949,12.207 6.857,12 L1,12 C0.447,12 0,12.447 0,13 L0,40 C0,40.553 0.447,41 1,41 L5.025,41 C5.282,37.649 8.084,35 11.5,35 C14.916,35 17.718,37.649 17.975,41 L30,41 L31.025,41 C31.282,37.649 34.084,35 37.5,35 C40.916,35 43.718,37.649 43.975,41 L47,41 C47.553,41 48,40.553 48,40 L48,30 C48,29.621 47.786,29.275 47.447,29.105 Z" id="Shape"></path>
                    <path d="M16,0 C11.589,0 8,3.589 8,8 C8,9.846 8.634,11.542 9.688,12.898 L5.293,17.293 C4.902,17.684 4.902,18.316 5.293,18.707 C5.488,18.902 5.744,19 6,19 C6.256,19 6.512,18.902 6.707,18.707 L11.102,14.312 C12.458,15.366 14.154,16 16,16 C20.411,16 24,12.411 24,8 C24,3.589 20.411,0 16,0 Z M16,14 C12.691,14 10,11.309 10,8 C10,4.691 12.691,2 16,2 C19.309,2 22,4.691 22,8 C22,11.309 19.309,14 16,14 Z" id="Shape"></path>
                </g>
            </g>
        </g>
    </g>
</svg>