<?xml version="1.0" encoding="UTF-8"?>
<svg width="90px" height="90px" viewBox="0 0 90 90" version="1.1" xmlns="http://www.w3.org/2000/svg" xmlns:xlink="http://www.w3.org/1999/xlink">
    <!-- Generator: Sketch 46.2 (44496) - http://www.bohemiancoding.com/sketch -->
    <title>Group 2</title>
    <desc>Created with Sketch.</desc>
    <defs></defs>
    <g id="Website" stroke="none" stroke-width="1" fill="none" fill-rule="evenodd">
        <g id="Spedizioni" transform="translate(-212.000000, -3217.000000)">
            <g id="Group-2" transform="translate(212.000000, 3217.000000)">
                <circle id="Oval-Copy" fill="#DADFFD" cx="45" cy="45" r="45"></circle>
                <g id="wallet-43-glyph-48" transform="translate(23.000000, 24.000000)" fill-rule="nonzero" fill="#3454F6">
                    <path d="M36,31 C32.691,31 30,28.309 30,25 C30,21.691 32.691,19 36,19 L43,19 L43,9 C43,8.448 42.552,8 42,8 L5,8 C3.346,8 2,6.654 2,5 C2,3.346 3.346,2 5,2 L32,2 L32,6 L34,6 L34,1 C34,0.448 33.552,0 33,0 L5,0 C2.243,0 0,2.243 0,5 L0,35 C0,38.86 3.14,42 7,42 L42,42 C42.552,42 43,41.552 43,41 L43,31 L36,31 Z" id="Shape"></path>
                    <path d="M45,21 L36,21 C33.794,21 32,22.794 32,25 C32,27.206 33.794,29 36,29 L45,29 C45.552,29 46,28.552 46,28 L46,22 C46,21.448 45.552,21 45,21 Z" id="Shape"></path>
                </g>
            </g>
        </g>
    </g>
</svg>