<?xml version="1.0" encoding="UTF-8"?>
<svg width="220px" height="247px" viewBox="0 0 220 247" version="1.1" xmlns="http://www.w3.org/2000/svg" xmlns:xlink="http://www.w3.org/1999/xlink">
    <!-- Generator: Sketch 47.1 (45422) - http://www.bohemiancoding.com/sketch -->
    <title>Alessandro</title>
    <desc>Created with Sketch.</desc>
    <defs>
        <linearGradient x1="60.6438885%" y1="99.8658129%" x2="46.9435081%" y2="-0.109622251%" id="linearGradient-1">
            <stop stop-color="#161C2D" offset="0%"></stop>
            <stop stop-color="#1E2435" offset="33%"></stop>
            <stop stop-color="#343A49" offset="83%"></stop>
            <stop stop-color="#3D4352" offset="100%"></stop>
        </linearGradient>
        <linearGradient x1="98.4650838%" y1="49.2260245%" x2="1.42655636%" y2="50.7956009%" id="linearGradient-2">
            <stop stop-color="#3D4352" offset="0%"></stop>
            <stop stop-color="#343A49" offset="17%"></stop>
            <stop stop-color="#1E2435" offset="67%"></stop>
            <stop stop-color="#161C2D" offset="100%"></stop>
        </linearGradient>
        <linearGradient x1="1.42655636%" y1="50.7956009%" x2="98.4650838%" y2="49.2260245%" id="linearGradient-3">
            <stop stop-color="#3D4352" offset="0%"></stop>
            <stop stop-color="#343A49" offset="17%"></stop>
            <stop stop-color="#1E2435" offset="67%"></stop>
            <stop stop-color="#161C2D" offset="100%"></stop>
        </linearGradient>
        <linearGradient x1="49.1610318%" y1="1.49154903%" x2="50.7306083%" y2="98.5300764%" id="linearGradient-4">
            <stop stop-color="#3D4352" offset="0%"></stop>
            <stop stop-color="#343A49" offset="17%"></stop>
            <stop stop-color="#1E2435" offset="67%"></stop>
            <stop stop-color="#161C2D" offset="100%"></stop>
        </linearGradient>
        <linearGradient x1="50.7306083%" y1="98.5300764%" x2="49.1610318%" y2="1.49154903%" id="linearGradient-5">
            <stop stop-color="#3D4352" offset="0%"></stop>
            <stop stop-color="#343A49" offset="17%"></stop>
            <stop stop-color="#1E2435" offset="67%"></stop>
            <stop stop-color="#161C2D" offset="100%"></stop>
        </linearGradient>
    </defs>
    <g id="Symbols" stroke="none" stroke-width="1" fill="none" fill-rule="evenodd">
        <g id="Alessandro" fill-rule="nonzero">
            <g transform="translate(32.000000, 0.000000)" id="Shape">
                <path d="M123.703156,104.999962 C123.328804,105.002753 122.970286,104.850653 122.714154,104.580383 C119.674645,100.439093 114.914341,97.8711112 109.751169,97.5874028 C106.111891,97.973271 102.785864,99.8024097 100.532261,102.657314 C100.289023,103.118852 99.7959102,103.39726 99.2707763,103.369539 C98.7456423,103.341818 98.2852375,103.013076 98.0929645,102.528547 C97.9006916,102.044018 98.0119748,101.492973 98.3776503,101.118858 C101.096865,97.6368871 105.149101,95.4224319 109.574561,95 C115.511454,95.1950489 121.04149,98.034955 124.621514,102.727244 C125.000507,103.105953 125.106035,103.676011 124.887324,104.163142 C124.668613,104.650274 124.170448,104.954733 123.632513,104.930032 L123.703156,104.999962 Z" fill="#491CDE"></path>
                <path d="M112.113143,105.983263 C109.58154,105.972093 107.061501,105.598068 104.613804,104.870207 C104.161974,104.721826 103.902526,104.189126 104.03431,103.680389 C104.076568,103.368699 104.252127,103.100276 104.503941,102.962343 C104.755754,102.82441 105.051682,102.834572 105.295562,102.989527 C105.295562,102.989527 114.158417,105.791357 119.646569,102.183521 C119.909648,101.968098 120.258697,101.940095 120.546246,102.111341 C120.833794,102.282588 121.009678,102.623211 120.999588,102.989298 C120.989498,103.355386 120.795193,103.683073 120.498767,103.833914 C117.924367,105.381228 115.028713,106.123423 112.113143,105.983263 L112.113143,105.983263 Z" fill="#3D4352"></path>
                <path d="M39.1568152,103.998201 C38.6471881,103.927159 38.2234976,103.577573 38.0652455,103.097551 C37.9069934,102.617529 38.04188,102.091093 38.4127589,101.741274 C42.8016706,97.3119311 48.87311,94.8715929 55.1717417,95.0052126 C59.2932548,95.4318428 63.0941205,97.3811428 65.8011177,100.456561 C66.1567737,101.024599 66.0243475,101.763365 65.4924348,102.17861 C64.9605222,102.593854 64.1961391,102.555194 63.7106737,102.088493 C61.4119905,99.552196 58.2256515,97.9537466 54.7819979,97.6093599 C49.2197528,97.5703123 43.8873325,99.7811735 40.0425966,103.720426 C39.7918992,103.915991 39.4767942,104.014806 39.1568152,103.998201 L39.1568152,103.998201 Z" fill="#491CDE"></path>
                <path d="M51.7993996,105.996863 C48.6005424,106.055085 45.4348605,105.302089 42.566004,103.800587 C42.2495698,103.673123 42.0304688,103.36408 42.0029223,103.006359 C41.9753758,102.648638 42.1442941,102.306003 42.4370363,102.125801 C42.7297785,101.945599 43.0941615,101.959952 43.3734872,102.162686 C47.6390567,104.126461 52.3753273,104.633852 56.9251629,103.614462 C57.400208,103.501389 57.8717592,103.818047 57.978402,104.321737 C58.0850448,104.825428 57.7863957,105.325414 57.3113506,105.438488 C55.4980392,105.832273 53.6502303,106.019461 51.7993996,105.996863 L51.7993996,105.996863 Z" fill="#3D4352"></path>
                <path d="M82.4355802,144.995469 L81.8972376,144.995469 C81.401707,144.995469 81,144.56561 81,144.035353 C81,143.505095 81.401707,143.075236 81.8972376,143.075236 C83.0523952,143.225102 84.2099424,142.816905 85.055514,141.961501 C87.3484669,139.148874 90.557047,137.377219 94.0278901,137.0073 C94.2682001,136.974752 94.5102108,137.051985 94.6946047,137.22007 C94.8789986,137.388154 94.9887312,137.631552 94.9969067,137.890607 C95.0167245,138.14543 94.9407319,138.398185 94.7857761,138.592838 C94.6308204,138.78749 94.4097041,138.907958 94.1714481,138.927533 C91.2400093,139.292606 88.5405159,140.812241 86.5987627,143.19045 C85.5176589,144.403955 84.0011501,145.061464 82.4355802,144.995469 Z" fill="#3D4352"></path>
                <path d="M66.1564992,138.965174 L65.8297314,138.965174 C65.6481938,138.965174 60.9282142,136.9801 61.0008293,132.870647 C61.0008293,132.389802 61.4072152,132 61.9085176,132 L61.9085176,132 C62.4098201,132 62.816206,132.389802 62.816206,132.870647 C62.816206,135.830846 66.4469595,137.293532 66.4469595,137.328358 C66.8393458,137.488154 67.062934,137.888329 66.9843742,138.290217 C66.9058144,138.692104 66.5462764,138.987405 66.1201917,139 L66.1564992,138.965174 Z" fill="#3D4352"></path>
                <path d="M96.8983174,139.999112 C96.4626083,140.019637 96.0816138,139.682214 96.0113415,139.213574 C95.9410692,138.744933 96.2037146,138.293095 96.6227941,138.161669 C99.3294246,137.276343 100.869157,134.17488 100.066834,131.224385 C99.9241775,130.727345 100.178599,130.198498 100.635101,130.043172 C101.091603,129.887847 101.577317,130.164862 101.719973,130.661903 C102.787735,134.627071 100.708648,138.785605 97.0705194,139.961613 L96.8983174,139.999112 Z" fill="#3D4352"></path>
                <path d="M126.976381,105 C126.584277,105 126.239226,104.723987 126.129437,104.322513 C123.412161,93.821462 104.955853,94.9129691 104.955853,94.9129691 C104.721701,94.9337525 104.489449,94.8540573 104.310587,94.6915515 C104.131724,94.5290457 104.021029,94.2971558 104.003042,94.0472911 C103.983555,93.7975542 104.058277,93.5498437 104.210641,93.359076 C104.363006,93.1683083 104.580424,93.0502451 104.814696,93.0310604 C105.62635,93.0310604 124.859022,91.8642769 127.964481,103.833217 C128.100909,104.332104 127.832317,104.854491 127.364563,105 L126.976381,105 Z" fill="#3D4352"></path>
                <path d="M36.8483005,102.998139 L36.4669362,102.998139 C36.0518465,102.776822 35.8830497,102.257765 36.085572,101.825427 C36.2935889,101.398986 41.1819854,91.5197738 57.2339541,93.1900003 C57.6994731,93.2458385 58.0373548,93.6708845 57.9966826,94.1494922 C57.9795286,94.3828678 57.8695672,94.5987641 57.6925613,94.746599 C57.5155554,94.8944339 57.2870592,94.9612165 57.0606067,94.9313004 C42.2914087,93.367684 37.8190459,102.038647 37.6456985,102.571699 C37.4782784,102.855142 37.1708849,103.019533 36.8483005,102.998139 Z" fill="#3D4352"></path>
                <path d="M134.933364,110 L134.933364,110 C132.806294,109.74953 130.702102,109.331577 128.640213,108.750001 C128.168943,108.61193 127.898332,108.116245 128.035786,107.642858 C128.101793,107.41553 128.254999,107.223852 128.4617,107.109991 C128.668401,106.996129 128.911665,106.969412 129.137976,107.035716 C131.096897,107.578021 133.09355,107.971983 135.111137,108.214287 C135.602042,108.214287 136,108.614032 136,109.107143 C136,109.600254 135.602042,110 135.111137,110 L134.933364,110 Z" fill="#3D4352"></path>
                <path d="M27.8745065,110 C27.3915299,110 27,109.593316 27,109.091646 C27,108.589975 27.3915299,108.183291 27.8745065,108.183291 C30.2666147,107.700438 32.6091544,106.982642 34.8705584,106.039575 C35.3015011,105.903247 35.7616391,106.129266 35.9336167,106.561749 C36.1055943,106.994231 35.933135,107.491654 35.5351833,107.710947 C33.1288041,108.714096 30.6331612,109.468643 28.084388,109.963666 L27.8745065,110 Z" fill="#3D4352"></path>
                <path d="M86.0702417,126 L85.1497578,104.126002 L85.1497578,104.126002 C84.6637518,100.942794 85.3700095,97.6918245 87.1323385,95 L90,97.0950745 C88.741758,99.1155848 88.2632925,101.527738 88.6546773,103.877434 L89.6105645,126 L86.0702417,126 Z" fill="url(#linearGradient-1)"></path>
                <path d="M127.948135,96 L120.247498,89.9832716 C110.808007,88.8111816 93.9517743,95.3748854 93.7743403,95.4530247 L92,89.9442019 C92.7807097,89.6316446 111.056415,82.5209656 121.631483,84.2791005 C122.040399,84.3502045 122.428958,84.5239941 122.767061,84.7870062 L131,91.2335009 L127.948135,96 Z" fill="#FFFFFF"></path>
                <path d="M73.9831508,96 C73.9831508,96 56.7514743,89.1462788 45.0749789,89.4363834 L36.9014322,94.9121078 L34,90.3792234 L42.8104465,84.4683422 C43.211378,84.2000146 43.6764302,84.0495046 44.1550126,84.0331853 C57.0699242,83.4529761 75.1861837,90.669328 76,90.9594326 L73.9831508,96 Z" fill="#FFFFFF"></path>
                <path d="M53.8706804,114 C53.3898169,114 53,113.579832 53,113.061529 C53,112.543226 53.3898169,112.123058 53.8706804,112.123058 C57.3578903,111.451334 60.6995767,110.089497 63.7267829,108.106401 C64.1178435,107.886651 64.599583,108.016763 64.8482985,108.409309 C65.0970139,108.801855 65.0341488,109.33285 64.701945,109.645494 C61.5032297,111.782381 57.9580746,113.247166 54.2537798,113.962461 L53.8706804,114 Z" fill="#3D4352"></path>
                <path d="M82.548797,162.973489 C80.0652501,162.93857 77.6153735,162.342419 75.354108,161.22274 C58.2754531,162.402592 56.249764,159.243633 56.0402099,158.216019 C55.8955431,157.711543 56.1535496,157.174785 56.6164836,157.017137 C57.0794176,156.859488 57.5719754,157.140647 57.7166423,157.645123 C57.7166423,157.873481 60.1265139,160.385425 75.4938107,159.281692 C75.6425073,159.238061 75.7991479,159.238061 75.9478445,159.281692 C79.8925776,161.440293 84.5414286,161.440293 88.4861617,159.281692 C88.6458219,159.230946 88.8154609,159.230946 88.9751212,159.281692 C93.0614251,159.471991 104.097938,159.281692 106.437959,156.351091 C106.746581,155.941205 107.301686,155.881565 107.67782,156.217882 C108.053954,156.554199 108.108682,157.159117 107.80006,157.569003 C104.761526,161.603337 91.8041008,161.374979 89.2894522,161.374979 C87.2219805,162.578416 84.8882163,163.131855 82.548797,162.973489 L82.548797,162.973489 Z" fill="#491CDE"></path>
                <path d="M56.0391331,159.977087 C55.0789389,160.134417 54.1760052,159.464829 54.0223741,158.481521 C53.8687431,157.498213 54.5225916,156.573544 55.4827858,156.416215 C64.5030621,153.601757 73.870901,152.126781 83.3001508,152.036343 C91.8800161,151.783425 100.448311,152.851736 108.718268,155.205519 C109.678462,155.510344 110.215552,156.554582 109.917892,157.53789 C109.620232,158.521198 108.600539,159.071216 107.640345,158.766391 C99.7156544,156.544154 91.5132576,155.536173 83.3001508,155.775258 C74.2527993,155.886513 65.2647545,157.288746 56.5954804,159.941479 L56.0391331,159.977087 Z" fill="url(#linearGradient-2)"></path>
                <path d="M69.4856526,190 C68.1122419,189.984753 66.7691311,189.584032 65.6020665,188.841321 C65.3549292,188.841321 45.1955863,175.625133 54.4102771,156.977636 L57.5524514,158.607029 C49.785279,174.357827 66.6612263,185.329073 67.4379436,185.835996 C68.3627586,186.434516 69.4907594,186.605417 70.5448125,186.306709 C72.7821403,185.375498 74.6735256,183.739995 75.9465279,181.635783 C73.9043793,178.426892 73.064109,174.568213 73.5810708,170.773163 L73.7929028,169.469649 L75.0638946,169.469649 C80.8223162,168.698162 86.642237,168.528317 92.4341165,168.962726 L93.9169403,168.962726 L93.9169403,170.483493 C94.1947878,174.108451 93.4209097,177.736703 91.6927046,180.911608 C92.7627769,183.142995 94.6968927,184.811326 97.0238093,185.510117 C98.0347637,185.608992 99.0414903,185.282256 99.8129303,184.604899 C107.574065,177.996866 110.479838,167.117955 107.085828,157.375932 L110.333918,156 C114.290756,167.142763 111.048531,179.633907 102.213693,187.284345 C100.694547,188.709878 98.644356,189.384313 96.6001453,189.13099 C92.8253767,188.194866 89.6845554,185.521679 88.0915611,181.889244 L87.4913705,180.839191 L88.197477,179.861555 C89.5962009,177.620161 90.3657708,175.026871 90.4217128,172.366347 C85.8877136,172.130976 81.3426603,172.264157 76.8291611,172.764643 C76.7539576,175.518677 77.6291787,178.211527 79.3005341,180.368477 L80.0772514,181.346113 L79.4770608,182.432375 C77.6402856,185.726934 74.7636869,188.281225 71.3215298,189.674121 C70.7250242,189.860014 70.1083775,189.969473 69.4856526,190 L69.4856526,190 Z" fill="url(#linearGradient-2)"></path>
                <path d="M115.050817,173.927206 C114.295531,173.937114 113.620194,173.43736 113.378543,172.68971 C110.59142,163.808858 113.378543,160.82431 113.831451,160.314753 C115.728848,158.224556 116.701731,155.39979 116.514057,152.525809 C116.09883,149.898691 114.802071,147.511758 112.855957,145.792376 C105.992968,143.418873 98.8578626,142.011272 91.6389811,141.606729 C90.6904062,141.548031 89.9618741,140.705952 90.0015461,139.714088 C90.0194215,139.234304 90.2217183,138.782317 90.5626805,138.460359 C90.9036427,138.1384 91.3544639,137.973672 91.8131763,138.003432 C99.5020846,138.49304 107.088415,140.097753 114.354036,142.771431 L114.772105,143.026209 C117.563478,145.354308 119.416131,148.692718 119.963122,152.380221 C120.243623,156.315688 118.914317,160.190957 116.305023,163.044523 C116.305023,163.044523 114.667588,165.155545 116.723091,171.706993 C117.020602,172.661754 116.521719,173.687849 115.608242,174 L115.050817,173.927206 Z" fill="url(#linearGradient-3)"></path>
                <path d="M47.4623289,173.999956 C46.882279,174.004061 46.3377646,173.720153 46.0079511,173.241647 C45.6781377,172.763141 45.6057388,172.152008 45.8145764,171.609334 C47.0594614,168.946226 47.451371,165.961873 46.9364505,163.066376 C44.2914691,160.450678 42.8662981,156.839546 43.0098913,153.117169 C43.4256525,149.854299 45.0684852,146.873873 47.6025632,144.785148 C55.7996251,140.379005 64.9467614,138.049645 74.2470718,138 C75.2151873,138 76,138.786999 76,139.75781 C76,140.728622 75.2151873,141.515621 74.2470718,141.515621 C65.6262948,141.530535 57.1360991,143.628848 49.4957256,147.632801 L49.4957256,147.632801 C47.8491023,149.156352 46.7830313,151.207417 46.4806891,153.433575 C46.4513724,156.284949 47.622437,159.016533 49.706077,160.957003 C49.8413375,161.112826 49.9481475,161.291338 50.0216041,161.484346 C51.1418137,165.277652 50.8040891,169.354177 49.0750229,172.910114 C48.8061174,173.566525 48.1699894,173.996414 47.4623289,173.999956 Z" fill="url(#linearGradient-2)"></path>
                <path d="M114.772631,173 C114.137419,172.996291 113.55219,172.6649 113.236241,172.130005 C112.920291,171.59511 112.92132,170.937466 113.238943,170.403505 C113.238943,170.161166 128.183478,145.130954 142.807008,124.670574 C143.388372,123.942631 144.455201,123.784052 145.234359,124.309759 C146.013516,124.835467 146.232106,125.861334 145.731714,126.64391 C131.215185,147.00043 116.448986,171.892162 116.306318,172.134502 C115.989679,172.66686 115.40592,172.99629 114.772631,173 Z" fill="url(#linearGradient-2)"></path>
                <path d="M47.2444222,174.99997 C46.6317123,175.003514 46.0620019,174.68774 45.7433977,174.167995 C36.0202227,158.35191 25.2202789,143.214007 13.4190102,128.860032 C12.7924459,128.132511 12.8784035,127.038328 13.6110018,126.416106 C14.3436002,125.793884 15.4454193,125.879246 16.0719837,126.606767 C28.0008565,141.102098 38.9174823,156.390642 48.7454467,172.365383 C49.0744355,172.90202 49.0852494,173.573436 48.7737106,174.120246 C48.4621718,174.667057 47.8770615,175.003642 47.2444222,174.99997 L47.2444222,174.99997 Z" fill="url(#linearGradient-3)"></path>
                <path d="M142.549598,126 C142.549598,125.680893 138.262735,93.7701904 137.600536,63.4904793 C137.462427,47.3905405 131.146575,31.9826177 120,20.5528562 L122.404826,18 C134.345564,30.0370437 141.069997,46.424638 141.085791,63.5259357 C141.747989,93.4865397 145.965147,125.219961 146,125.539068 L142.549598,126 Z" fill="url(#linearGradient-4)"></path>
                <path d="M15.5539216,127 L12,126.407223 C15.2489023,105.374562 16.6755741,84.1096233 16.2647059,62.8405978 C16.759811,44.5711343 24.833937,27.2915363 38.6188725,15 L41,17.5803238 C28.1582333,29.2459559 20.5647939,45.4384212 19.8897059,62.5965131 C20.3046616,84.1460459 18.8541915,105.691243 15.5539216,127 L15.5539216,127 Z" fill="url(#linearGradient-3)"></path>
                <path d="M12.4551326,142.999879 C11.0604945,142.99169 9.69504953,142.609823 8.5082699,141.896079 C2.36870572,138.335435 -0.481806221,126.336063 0.0663691518,106.289634 C0.0663691518,101.482764 0.0663691518,85.4242578 7.15610398,84 L7.9235495,87.5606445 C5.18267264,88.1303476 3.53814652,97.7440877 3.72087164,106.396454 C3.06306119,130.751262 7.59464428,137.196029 10.3355211,138.833925 C11.4973003,139.559254 12.9597072,139.653348 14.2092938,139.08317 L16,142.180931 C14.9024763,142.725866 13.6869302,143.006686 12.4551326,142.999879 L12.4551326,142.999879 Z" fill="url(#linearGradient-5)"></path>
                <path d="M145.103188,141.999724 C143.995624,142.010776 142.911658,141.689586 142,141.080216 L144.153978,138.215596 C144.727963,138.545264 145.441905,138.545264 146.015891,138.215596 C147.95082,137.260722 152.514332,132.238795 153.31751,106.386479 C153.682591,97.827983 152.258775,87.9609568 149.6667,87.5365685 L150.287338,84 C157.260384,85.1670676 157.15086,101.470649 156.931811,106.45721 C156.238158,127.075405 153.025445,138.852178 147.439706,141.433873 C146.71261,141.784835 145.915238,141.97794 145.103188,141.999724 Z" fill="url(#linearGradient-5)"></path>
                <path d="M81.6762754,215.956449 C64.5826607,216.591517 47.961023,210.259044 35.6004862,198.402601 C9.90167971,172.98463 9.76163172,130.118134 9.76163172,128.18721 C9.53590279,118.124823 8.20916992,108.117697 5.80527595,98.3456692 L5,94.8348996 L11.8273396,93.1848379 L12.6326155,96.6956075 C15.1893892,107.038797 16.5752773,117.638021 16.7640313,128.292533 C16.7640313,128.678718 16.9390913,170.070691 40.5371779,193.24177 C51.4959332,204.019833 65.9909004,209.250879 83.4618873,208.899802 C85.5626072,208.899802 135.489716,206.19651 141.056624,125.132841 C142.177008,108.632224 144.557824,92.7986533 144.557824,92.6231148 C149.424491,51.5120033 118.788993,22.8641238 118.473885,22.5481545 L115.882997,20.1959389 L120.609617,15 L123.200505,17.3873233 C124.565973,18.6512003 156.812023,48.9842493 151.385163,93.5359149 C151.385163,93.746561 149.179407,109.369486 148.059023,125.624349 C142.03696,213.323372 84.2321513,215.956449 83.7769953,215.956449 L81.6762754,215.956449 Z" fill="#491CDE"></path>
                <path d="M8.97616262,112 L8.02760559,108.463023 C-1.00125207,75.8874598 6.83312637,52.2604502 15.053954,38.14791 C20.1586695,29.0841731 27.0869379,21.193391 35.3952325,14.9807074 L38.3111671,13 L42,18.9421222 L39.0840654,20.9228296 C37.4328736,22.0546624 -1.31743775,49.2186495 14.4918461,106.659164 L15.4404031,110.196141 L8.97616262,112 Z" fill="#491CDE"></path>
                <path d="M15,83.8230407 L15,60.004325 C15.0751503,46.5579701 19.8315311,33.5712337 28.4288747,23.3383672 L32.7191386,18.6666429 L32.9633,18.4188999 C46.0510484,7.08699817 62.542157,0.598431044 79.7376403,0.0151373738 C106.63027,-0.621915946 126.686382,19.0559533 127.523506,19.9053577 L130,22.3827873 L125.116773,27.4084301 L122.640279,24.9310005 C122.465878,24.7540413 103.770094,6.45645427 79.8074007,7.235075 C64.3683466,7.91557003 49.5769024,13.7224731 37.7070064,23.7630695 L33.6609039,28.1870508 C26.2662601,37.1219541 22.1387528,48.3734414 21.9760388,60.0397168 L21.9760388,84 L15,83.8230407 Z" fill="#FFFFFF"></path>
            </g>
        </g>
    </g>
</svg>