<?xml version="1.0" encoding="utf-8"?>
<!-- Generator: Adobe Illustrator 21.0.2, SVG Export Plug-In . SVG Version: 6.00 Build 0)  -->
<svg version="1.1" id="Livello_1" xmlns="http://www.w3.org/2000/svg" xmlns:xlink="http://www.w3.org/1999/xlink" x="0px" y="0px"
	 viewBox="0 0 220 247" style="enable-background:new 0 0 220 247;" xml:space="preserve">
<style type="text/css">
	.st0{fill:#491CDE;}
	.st1{fill:#FFFFFF;}
</style>
<g id="Symbols">
	<g id="Alessandro">
		<path class="st0" d="M113.7,216c-17.1,0.6-33.7-5.7-46.1-17.6c-25.7-25.4-25.8-68.3-25.8-70.2c-0.2-10.1-1.6-20.1-4-29.8L37,94.8
			l6.8-1.7l0.8,3.5c2.6,10.3,3.9,20.9,4.1,31.6c0,0.4,0.2,41.8,23.8,64.9c11,10.8,25.5,16,42.9,15.7c2.1,0,52-2.7,57.6-83.8
			c1.1-16.5,3.5-32.3,3.5-32.5c4.9-41.1-25.8-69.8-26.1-70.1l-2.6-2.4l4.7-5.2l2.6,2.4c1.4,1.3,33.6,31.6,28.2,76.1
			c0,0.2-2.2,15.8-3.3,32.1c-6,87.7-63.8,90.3-64.3,90.3H113.7z"/>
		<path class="st0" d="M41,112l-0.9-3.5c-9-32.6-1.2-56.2,7-70.3c5.1-9.1,12-17,20.3-23.2l2.9-2l3.7,5.9l-2.9,2
			c-1.7,1.1-40.4,28.3-24.6,85.7l0.9,3.5L41,112z"/>
		<path class="st1" d="M47,83.8V60c0.1-13.4,4.8-26.4,13.4-36.7l4.3-4.7l0.2-0.2C78.1,7.1,94.5,0.6,111.7,0
			c26.9-0.6,46.9,19,47.8,19.9l2.5,2.5l-4.9,5l-2.5-2.5c-0.2-0.2-18.9-18.5-42.8-17.7c-15.4,0.7-30.2,6.5-42.1,16.5l-4,4.4
			C58.3,37.1,54.1,48.4,54,60v24L47,83.8z"/>
	</g>
</g>
</svg>
