<svg id="Livello_1" data-name="Livello 1" xmlns="http://www.w3.org/2000/svg" xmlns:xlink="http://www.w3.org/1999/xlink" viewBox="0 0 90.88 90.88"><defs><style>.cls-1{fill:url(#Sfumatura_senza_nome);}.cls-2{fill:url(#Sfumatura_senza_nome_10);}.cls-3{fill:url(#Sfumatura_senza_nome-2);}.cls-4{fill:url(#Sfumatura_senza_nome_10-2);}.cls-5{fill:url(#Sfumatura_senza_nome_10-3);}.cls-6{fill:url(#Sfumatura_senza_nome_10-4);}</style><linearGradient id="Sfumatura_senza_nome" x1="52.73" y1="265.67" x2="62.29" y2="265.67" gradientTransform="matrix(1, -0.02, -0.02, -1, 8.58, 323.83)" gradientUnits="userSpaceOnUse"><stop offset="0" stop-color="#161c2d"/><stop offset="0.33" stop-color="#1e2435"/><stop offset="0.83" stop-color="#343a49"/><stop offset="1" stop-color="#3d4352"/></linearGradient><linearGradient id="Sfumatura_senza_nome_10" x1="24.14" y1="265.86" x2="34.16" y2="265.86" gradientTransform="matrix(1, -0.02, -0.02, -1, 8.58, 323.83)" gradientUnits="userSpaceOnUse"><stop offset="0" stop-color="#3d4352"/><stop offset="0.17" stop-color="#343a49"/><stop offset="0.67" stop-color="#1e2435"/><stop offset="1" stop-color="#161c2d"/></linearGradient><linearGradient id="Sfumatura_senza_nome-2" x1="55.48" y1="287.41" x2="62.29" y2="287.41" xlink:href="#Sfumatura_senza_nome"/><linearGradient id="Sfumatura_senza_nome_10-2" x1="28.36" y1="272.07" x2="28.36" y2="304" xlink:href="#Sfumatura_senza_nome_10"/><linearGradient id="Sfumatura_senza_nome_10-3" x1="22.78" y1="268.11" x2="22.78" y2="284.69" xlink:href="#Sfumatura_senza_nome_10"/><linearGradient id="Sfumatura_senza_nome_10-4" x1="63.2" y1="267.77" x2="63.2" y2="284.14" xlink:href="#Sfumatura_senza_nome_10"/></defs><title>Alessandro_1</title><path class="cls-1" d="M56.05,64a.5.5,0,0,1-.43-.75c0-.07,4.19-7.3,8.29-13.21a.5.5,0,0,1,.82.57c-4.07,5.88-8.21,13.07-8.25,13.14A.5.5,0,0,1,56.05,64Z"/><path class="cls-2" d="M36.48,64.46a.5.5,0,0,1-.43-.24,117.36,117.36,0,0,0-9.26-13.07.5.5,0,1,1,.76-.65h0a118.44,118.44,0,0,1,9.36,13.2.5.5,0,0,1-.43.76Z"/><path class="cls-3" d="M63.83,50.42c0-.09-1.23-9.09-1.42-17.63a17.41,17.41,0,0,0-5.05-12.11l.69-.72A18.1,18.1,0,0,1,63.41,32.8c.19,8.45,1.4,17.4,1.41,17.49Z"/><path class="cls-4" d="M27.47,51.27l-1-.17a108,108,0,0,0,1.2-18.23A19.23,19.23,0,0,1,34,19.15l.67.74A18.57,18.57,0,0,0,28.69,32.8,109.21,109.21,0,0,1,27.47,51.27Z"/><path class="cls-5" d="M26.53,55.25a2.08,2.08,0,0,1-1.08-.31c-1.68-1-2.46-4.37-2.31-10,0-1.35,0-5.86,1.94-6.26l.21,1c-.75.16-1.2,2.86-1.15,5.29C24,51.81,25.2,53.62,26,54.08a1.1,1.1,0,0,0,1.06.07l.49.87A2.11,2.11,0,0,1,26.53,55.25Z"/><path class="cls-6" d="M64.49,54.75a1.47,1.47,0,0,1-.85-.26l.59-.81a.5.5,0,0,0,.51,0c.53-.27,1.78-1.69,2-9,.1-2.42-.29-5.21-1-5.33l.17-1c1.91.33,1.88,4.94,1.82,6.35-.19,5.83-1.07,9.16-2.6,9.89A1.53,1.53,0,0,1,64.49,54.75Z"/></svg>