<?xml version="1.0" encoding="UTF-8"?>
<svg width="220px" height="247px" viewBox="0 0 220 247" version="1.1" xmlns="http://www.w3.org/2000/svg" xmlns:xlink="http://www.w3.org/1999/xlink">
    <!-- Generator: Sketch 47.1 (45422) - http://www.bohemiancoding.com/sketch -->
    <title>Alessio Copy</title>
    <desc>Created with Sketch.</desc>
    <defs>
        <polygon id="path-1" points="176.749098 144.616686 176.749098 4.88538821e-14 0 0 2.31842523e-20 144.616686"></polygon>
        <linearGradient x1="99.5190132%" y1="50.0333648%" x2="-0.414257165%" y2="50.0333648%" id="linearGradient-3">
            <stop stop-color="#161C2D" offset="0%"></stop>
            <stop stop-color="#1E2435" offset="33%"></stop>
            <stop stop-color="#343A49" offset="83%"></stop>
            <stop stop-color="#3D4352" offset="100%"></stop>
        </linearGradient>
        <linearGradient x1="-0.414257165%" y1="50.0333648%" x2="99.5190132%" y2="50.0333648%" id="linearGradient-4">
            <stop stop-color="#161C2D" offset="0%"></stop>
            <stop stop-color="#1E2435" offset="33%"></stop>
            <stop stop-color="#343A49" offset="83%"></stop>
            <stop stop-color="#3D4352" offset="100%"></stop>
        </linearGradient>
        <path d="M8.11871705e-12,2.23298196 C1.13318183e-06,1.70782673 0.218395502,1.25959757 0.50187874,0.949344391 L1.38861296,0 L3.90579399,1.04187976 L3.85573641,2.35108394 C8.6076307,10.2885627 11.3822507,19.2816301 11.8935531,28.4220687 L11.9221574,28.8813184 L11.153416,30.313903 L8.6076307,30.2042315 L7.71732093,27.9251195 L8.24650103,27.4315975 C7.58145037,18.9800333 4.87119012,10.699831 0.362432632,3.41009989 C0.104030133,2.99449359 1.25479609e-05,2.59545663 1.13891588e-09,2.23305163 L3.70446825e-12,2.2329905 C-4.19941218e-11,2.23300519 3.34931914e-10,2.23302841 1.13891588e-09,2.23305163 L8.11871705e-12,2.23298196 Z M3.43739809,1.65878226 L3.43739809,1.66220949 L3.43739809,1.65878226 Z" id="path-5"></path>
    </defs>
    <g id="Symbols" stroke="none" stroke-width="1" fill="none" fill-rule="evenodd">
        <g id="Alessio-Copy">
            <g transform="translate(22.000000, 0.000000)">
                <path d="M3,102.396149 C3.92323925,110.403767 6.33685044,117.246641 6.4027961,117.426092 L6.4027961,117.426092 C10.7222369,132.655804 22.5924558,134 26.6349248,134 L26.6349248,134 C27.4724347,134 27.976919,133.939054 28,133.935668 L28,133.935668 L27.6010288,130.57687 C27.0503825,130.631044 13.9832498,132.04973 9.53521498,116.369696 L9.53521498,116.369696 C9.512134,116.305365 7.15127935,109.597926 6.27090477,102 L6.27090477,102 L3,102.396149 Z" id="Fill-1"></path>
                <g id="Group-5">
                    <mask id="mask-2" fill="white">
                        <use xlink:href="#path-1"></use>
                    </mask>
                    <g id="Clip-4"></g>
                    <path d="M8.00405401,144.616686 L6.8886803,141.367978 C-0.155965322,120.858145 -2.00009548,92.7370526 2.29717256,71.3952751 C2.65984009,69.3944834 11.9215476,20.6673 52.8277074,7.14992409 C99.5741829,-8.29948769 145.934041,6.00514124 147.891077,6.62394278 C149.458075,7.1224218 150.4537,8.66598786 150.25868,10.3092497 C150.067082,11.945636 148.743004,13.217617 147.100736,13.3345017 C144.428629,13.52358 138.499357,14.4620956 133.976277,16.7207212 C171.15312,24.3422935 176.473384,50.4694697 176.692353,51.6451926 C176.935272,52.9481136 176.411799,54.2750991 175.344325,55.0554766 C174.280272,55.8358541 172.863816,55.9355499 171.697121,55.3029972 C169.941947,54.3438549 165.6481,52.4805747 161.518481,52.0267869 C164.748274,58.5654565 168.381792,70.865856 161.6656,86.5284105 L160.314151,89.6842984 L154.029054,86.9615716 L155.383925,83.8091215 C163.684222,64.4509467 153.170285,51.3873586 153.0608,51.2567227 C152.335465,50.3732116 152.089125,49.1802998 152.417578,48.0802082 C152.742611,46.9801165 153.594537,46.1137944 154.685961,45.7734535 C158.897694,44.4739703 163.543944,45.1168363 167.338268,46.1894257 C163.047843,38.2171992 152.198609,25.6211501 125.751251,22.3380641 C124.591399,22.1936771 123.58551,21.4683042 123.085987,20.4060282 C122.579621,19.3506278 122.65147,18.1027113 123.267321,17.1057533 C125.289363,13.8467319 128.604692,11.5777929 132.11504,9.99984896 C115.124408,6.86458783 84.7698208,3.8290225 54.9660772,13.6817181 C17.8850334,25.9374264 9.10232076,72.2237816 9.01678597,72.6913205 C4.93164421,93.0017622 6.67655401,119.672109 13.3551107,139.123104 L14.4739058,142.375249 L8.00405401,144.616686 Z" id="Fill-3" fill="#491CDE" mask="url(#mask-2)"></path>
                </g>
                <path d="M48.2640394,42.9434373 C44.9840723,46.2846435 44.4072623,51.9779501 43.7997345,57.9975597 L43.7997345,57.9975597 C43.2195114,63.6976643 42.6222229,69.5915112 39.6255412,72.8103538 L39.6255412,72.8103538 C33.0826723,79.8462611 28.7105205,88.234966 28.6388459,106.317588 L28.6388459,106.317588 C28.6354328,107.503835 28.3657997,108.36038 27.847012,108.870228 L27.847012,108.870228 C27.2190058,109.488844 26.2462788,109.614607 25.4612711,109.597612 L25.4612711,109.597612 C24.133584,109.584016 22.939007,108.509936 22.672787,107.01438 L22.672787,107.01438 C22.1232816,103.972285 19.5873653,101.664372 16.2186582,101.140927 L16.2186582,101.140927 C15.0821035,100.96418 14.2595519,100.814624 12.8601902,100.5597 L12.8601902,100.5597 L9.5972885,99.9750741 L9,103.323078 L12.2492494,103.907704 C13.6793288,104.166028 14.5257719,104.318982 15.6862181,104.502527 L15.6862181,104.502527 C17.2084505,104.737058 18.9593591,105.678578 19.3279714,107.711173 L19.3279714,107.711173 C19.8774769,110.736273 22.4372847,112.959212 25.4169011,113 L25.4169011,113 L25.5261195,113 C27.4715735,113 29.0996113,112.411975 30.2395791,111.293708 L30.2395791,111.293708 C31.430743,110.124455 32.0450969,108.452153 32.051923,106.334583 L32.051923,106.334583 C32.1201846,89.3464354 36.1305502,81.5695485 42.1307398,75.1182674 L42.1307398,75.1182674 C45.898777,71.0666725 46.5575009,64.5949974 47.1957463,58.3408576 L47.1957463,58.3408576 C47.7418386,52.9262681 48.2606264,47.8107896 50.7043896,45.3193307 L50.7043896,45.3193307 C63.7559966,32.0190866 100.275922,40.4757713 115.385615,48.5449712 L115.385615,48.5449712 L117,45.5504619 C107.078185,40.248039 89.1458774,35 73.3706349,35 L73.3706349,35 C63.199665,35 53.9195083,37.1821509 48.2640394,42.9434373" id="Fill-6" fill="url(#linearGradient-3)"></path>
                <g id="Group-14" transform="translate(21.000000, 46.000000)">
                    <path d="M81.0564482,149.737118 C79.841888,149.737118 78.4763657,149.665134 76.9015547,149.504027 C56.2814804,147.395923 39.5658396,142.898633 15.1373989,126.136632 C10.9241791,122.674541 7.70936885,118.633151 5.59589701,114.266118 C1.86644266,106.556969 0.439162978,94.0934436 0.377405685,93.5655605 L0,90.1583153 L6.81388809,89.4007688 L7.20158665,92.8045862 C7.2153105,92.9211319 8.55681616,104.637394 11.7750574,111.280494 C13.4596591,114.766579 16.0534654,118.012717 19.2682757,120.672699 C42.2454199,136.41664 58.0861658,140.687694 77.5980397,142.682681 C83.3346061,143.268837 84.9265719,142.572991 88.4433067,141.071609 L89.901465,140.149528 C91.5517572,139.138323 91.9703344,138.75098 93.2157731,137.599235 L94.0666514,136.814266 C96.63301,134.466215 98.9729253,131.665693 101.233928,128.954293 C103.234179,126.554825 105.303048,124.083372 106.575934,121.402823 C107.88313,118.636579 108.459532,115.472708 109.066812,112.120308 L109.396184,110.351557 C110.878359,102.484728 113.149655,94.7481557 115.338608,87.2686696 L115.95275,85.181132 C117.482959,79.9605741 118.646054,75.3021774 117.366306,71.2093697 C117.16731,70.5786522 116.913419,69.9650739 116.66639,69.3480677 C116.251244,68.3162962 115.777771,67.1439845 115.479278,65.8585549 C115.163629,64.4942857 115.475847,62.9243477 116.508566,58.1665444 C117.551578,53.3676074 118.978858,46.7896359 118.848481,42.2854907 C118.848481,42.0078379 118.635761,23.3502564 106.009826,6.88990243 L103.923802,4.16821958 L109.372167,0 L111.458192,2.71825504 C125.549147,21.0913282 125.710403,41.3359868 125.710403,42.189512 C125.861365,47.427209 124.331156,54.4747907 123.216094,59.6199368 C122.814672,61.477811 122.317182,63.7573061 122.23827,64.59712 C122.423542,65.2792547 122.722036,66.0128065 123.027391,66.7840642 C123.346471,67.5690332 123.662119,68.35743 123.912579,69.1629658 C125.765298,75.0827974 124.317432,81.0266237 122.540195,87.1075624 L121.926053,89.1985279 C119.778271,96.5169068 117.561871,104.088944 116.138022,111.623275 L115.818943,113.347464 C115.156767,116.984373 114.474006,120.751539 112.77568,124.33703 C111.13225,127.805976 108.672251,130.747039 106.500453,133.345321 C104.09535,136.228111 101.607903,139.210307 98.7018794,141.870289 L97.8784488,142.624408 C96.5335122,143.87556 95.7169435,144.629678 93.5279906,145.969953 L91.8674055,147.018863 C91.7130123,147.114842 91.5551881,147.200537 91.387071,147.272521 C87.8360266,148.791042 85.355442,149.737118 81.0564482,149.737118 L81.0564482,149.737118 Z" id="Fill-8" fill="#FFFFFF"></path>
                    <path d="M96.9268597,82.3449299 C97.2768177,82.0055765 97.8497881,81.9850097 98.3301226,82.0055765 C98.817319,82.0261434 99.3251012,82.3106518 99.4451849,82.7802621 C99.6338877,83.4898192 98.3918799,84.2610769 97.7331354,84.5901469 C96.3813369,85.2757093 92,85.6150627 92,84.4941682 C94.2061078,83.9285791 96.113722,83.1298989 96.9268597,82.3449299" id="Fill-10" fill="#3D4352"></path>
                    <path d="M86.4486486,83.7147898 C87.2823721,82.3162425 83.8445494,81.5655516 82.31091,80.828572 C79.6073129,79.532859 76.8659752,78.52851 74.086897,79.2312115 C73.5276504,79.3717518 72.9546799,79.5808484 72.5292408,80.043603 C72.1072326,80.5029298 71.8224629,81.3084657 72.1278184,81.9014772 C73.0679016,83.7422123 79.3568527,84.0987048 82.0844665,83.1526286 C82.0844665,83.1526286 85.7487326,84.897385 86.4486486,83.7147898" id="Fill-12" fill="#3D4352"></path>
                </g>
                <path d="M87.2515489,130.069854 C87.5924813,130.971726 88.2110804,132.15052 89.2268483,132.618295 L89.2268483,132.618295 C89.4061015,132.696881 90.1160845,133 90.9807174,133 L90.9807174,133 C91.3075908,133 91.652038,132.955094 92,132.842827 L92,132.842827 L90.9947764,129.257796 C90.9877469,129.257796 90.9772026,129.261538 90.9701731,129.261538 L90.9701731,129.261538 C90.9069073,129.261538 90.8155233,129.250312 90.8120085,129.280249 L90.8120085,129.280249 C90.7487427,129.186694 90.6362701,129.003326 90.5448862,128.767568 L90.5448862,128.767568 C90.4394432,128.292308 90.5905782,126.679418 90.956114,126.103119 L90.956114,126.103119 L88.0529159,124 C87.0055151,125.635343 86.7419076,128.707692 87.2515489,130.069854" id="Fill-15"></path>
                <g id="Group-21" transform="translate(76.000000, 146.000000)" fill="#491CDE">
                    <path d="M42.3679774,8.28575191 C41.7222112,8.28575191 41.0798982,8.1800125 40.4617583,7.96853368 C39.7400195,7.72180839 39.1046131,7.34467116 38.4864732,6.98515716 C38.040998,6.72433328 37.5989762,6.45998476 37.129328,6.26260452 C35.4199467,5.54357653 33.4688346,5.69513636 31.4003106,5.86079477 C29.0037234,6.04760106 26.5069907,6.25203058 24.3003348,4.98315766 C24.0724173,4.85627037 23.8548597,4.71175984 23.6338487,4.57077396 C23.3644917,4.39101696 23.0951346,4.21125996 22.8016045,4.07732338 C21.7656158,3.60149603 20.4637234,3.76362979 19.2136303,3.91518961 C13.6849041,4.58839719 8.19071075,4.61306972 2.76558333,3.99978114 C2.29248184,3.95043608 1.95060557,3.51337985 2.0058583,3.03050321 C2.05420444,2.54762657 2.42370707,2.11057034 2.95551459,2.25155622 C8.23905688,2.84017227 13.6089316,2.81549974 18.9131936,2.17753863 C20.4291904,1.99425699 22.0384262,1.79335211 23.5060768,2.46655969 C23.8790327,2.63574275 24.2243623,2.86132016 24.5731451,3.09042221 C24.7596231,3.21378486 24.9461011,3.3371475 25.1429389,3.44641156 C26.8868532,4.44388667 29.01063,4.27822826 31.2690853,4.1019959 C33.4446616,3.9292882 35.6996636,3.7495312 37.7923608,4.63774225 C38.3310749,4.86331966 38.8387093,5.15939001 39.3463438,5.45546036 C39.9161376,5.79030182 40.4513984,6.10752006 41.0108323,6.297851 C42.2125791,6.70671005 43.6077106,6.53752699 44.6782322,5.84669618 C45.0684546,5.5858723 45.610622,5.70218565 45.8696192,6.118094 C46.1251631,6.52695305 46.007751,7.06974869 45.6037154,7.33057257 C44.6367927,7.95795974 43.5041117,8.28575191 42.3679774,8.28575191" id="Fill-17"></path>
                    <path d="M45.4675567,7.9033055 L45.4433836,7.9033055 C42.9604641,7.83281256 40.5017176,6.92697828 38.6921907,5.40080612 C37.7701608,4.62538378 37.3972049,4.19537684 36.6581996,3.21904962 C36.1402053,2.52821881 34.361758,2.84543704 32.7939618,3.13093345 C30.7910503,3.49749674 28.7259796,3.86406002 27.2894086,2.8348631 C25.0309533,1.19942688 23.3353851,1.72107464 21.1908885,2.39428222 C20.5554821,2.58813781 19.9200757,2.78904268 19.2535897,2.93002857 C15.4618711,3.75832061 11.1832378,3.77594385 7.04964299,3.79709173 C4.89823983,3.80766567 2.86424871,3.81823961 0.916589982,3.93455296 C0.467661552,3.92750367 0.0290930092,3.58913756 0.0014666443,3.10626092 C-0.0261597206,2.61985963 0.339889615,2.20395128 0.812991114,2.17222946 C2.80554268,2.05591611 4.96385244,2.04534216 7.0427364,2.03476822 C11.0899989,2.01362034 15.2719399,1.99599711 18.8979002,1.21000082 C19.5091336,1.07606424 20.0996471,0.889257944 20.6867074,0.705976299 C22.8657369,0.0292440722 25.3382966,-0.728555036 28.287411,1.39328247 C29.1265619,2.0030464 30.9119157,1.68230352 32.4935251,1.39680711 C34.6518348,1.00909594 36.8723039,0.614335477 38.029158,2.14403228 C38.7060039,3.04281727 38.9822675,3.3600355 39.7903387,4.04381702 C41.3063355,5.31973924 43.3817662,6.08458764 45.4917298,6.140982 C45.9682846,6.15508058 46.3446938,6.55689034 46.3308806,7.04681628 C46.3170674,7.52616827 45.9337516,7.9033055 45.4675567,7.9033055" id="Fill-19"></path>
                </g>
                <path d="M96.0981516,154.348178 C95.785348,155.396761 96.2443533,156.554656 97.1317635,156.931174 L97.1317635,156.931174 C100.382201,158.303644 103.82644,159 107.27408,159 L107.27408,159 C108.695296,159 110.126713,158.882591 111.537729,158.639676 L111.537729,158.639676 C112.46934,158.48583 113.115347,157.45749 112.982745,156.352227 L112.982745,156.352227 C112.846744,155.238866 111.966134,154.502024 111.061723,154.631579 L111.061723,154.631579 C106.770874,155.360324 102.350823,154.834008 98.2673765,153.11336 L98.2673765,153.11336 C98.0837744,153.036437 97.8967723,153 97.7097701,153 L97.7097701,153 C97.0127621,153 96.3497545,153.518219 96.0981516,154.348178" id="Fill-22" fill="url(#linearGradient-4)"></path>
                <g id="Group-26" transform="translate(41.000000, 117.000000)">
                    <mask id="mask-6" fill="white">
                        <use xlink:href="#path-5"></use>
                    </mask>
                    <g id="Clip-25"></g>
                    <path d="M0.50187874,0.949344391 C0.0227562156,1.47371151 -0.270438165,2.39221078 0.362432632,3.41009989 L0.362432632,3.41009989 C4.87119012,10.699831 7.58145037,18.9800333 8.24650103,27.4315975 L8.24650103,27.4315975 L7.71732093,27.9251195 L8.6076307,30.2042315 L11.153416,30.313903 L11.9221574,28.8813184 L11.8935531,28.4220687 C11.3822507,19.2816301 8.6076307,10.2885627 3.85573641,2.35108394 L3.85573641,2.35108394 L3.90579399,1.04187976 L1.38861296,0 L0.50187874,0.949344391 Z M3.43739809,1.65878226 L3.43739809,1.66220949 L3.43739809,1.65878226 Z" id="Fill-24" fill="url(#linearGradient-3)" mask="url(#mask-6)"></path>
                </g>
                <path d="M115.224844,87.5045291 C114.32018,87.9985473 114.000011,88.9655614 114.000011,89.638267 L114.000011,89.638267 C113.996288,92.5603316 114.934458,95.2651683 115.839121,97.8789096 L115.839121,97.8789096 C116.24864,99.0491369 116.654435,100.215861 116.967159,101.400103 L116.967159,101.400103 C117.708015,104.213553 117.92022,107.104085 118.139871,110.162793 L118.139871,110.162793 L118.195714,110.937105 C118.497269,115.008375 119.011028,119.268843 121.725019,122.604341 L121.725019,122.604341 C122.022851,122.968723 122.350465,123.322594 122.674357,123.669458 L122.674357,123.669458 C123.091322,124.117929 123.504563,124.552384 123.835901,125.063921 L123.835901,125.063921 C124.226805,125.649034 124.375721,126.258674 124.211913,126.612545 L124.211913,126.612545 L127.629531,128 C128.288484,126.556486 128.061387,124.811656 127.004085,123.213981 L127.004085,123.213981 C126.564783,122.548282 126.024963,121.956161 125.477698,121.36404 L125.477698,121.36404 C125.205926,121.069732 124.934155,120.778927 124.680998,120.470603 L124.680998,120.470603 C122.596177,117.909417 122.179212,114.384721 121.911164,110.695351 L121.911164,110.695351 L121.85532,109.924543 C121.631947,106.844813 121.401127,103.66698 120.58209,100.555717 L120.58209,100.555717 C120.24703,99.2873868 119.815174,98.0400786 119.379595,96.7892668 L119.379595,96.7892668 C118.527052,94.3296872 117.719184,92.006751 117.722906,89.6417706 L117.722906,89.6417706 C117.722906,90.1533071 117.235207,90.4581268 117.090014,90.5352077 L117.090014,90.5352077 L116.397556,89.0251239 L117.324557,87.5045291 L116.148122,87 L115.224844,87.5045291 Z" id="Fill-27" fill="url(#linearGradient-3)"></path>
                <g id="Group-55" transform="translate(52.000000, 69.000000)">
                    <path d="M70.1277992,86.6387618 C69.656331,86.6387618 69.2019449,86.3767995 68.9798765,85.9218123 C68.6655644,85.2806941 68.9217971,84.5051478 69.5572543,84.1880355 C69.5777529,84.1708012 69.8920651,83.9433076 69.8920651,83.3021893 C69.8920651,82.5094087 68.8090547,81.5822 68.4537453,81.2788753 C67.9139483,80.8204413 67.8456196,80.0035325 68.3034221,79.4589267 C68.7612246,78.910874 69.5675036,78.8453834 70.1073006,79.3072643 C71.1151494,80.1655355 72.4543925,81.5167095 72.4543925,83.2987425 C72.457809,85.1324785 71.3508835,86.1768809 70.6983441,86.5043337 C70.5138566,86.5939524 70.3225361,86.6387618 70.1277992,86.6387618" id="Fill-29" fill="#491CDE"></path>
                    <path d="M25.7798705,79.2633576 C25.7422897,79.3116138 25.7081253,79.3564231 25.6807938,79.4046793 C25.7183746,79.35987 25.7627883,79.3150607 25.7798705,79.2736982 L25.7798705,79.2633576 Z M25.5475528,82.0828991 C24.9223449,82.0828991 24.3108027,81.845065 23.7812551,81.3831841 C23.1048006,80.7972158 22.8519843,79.9320508 23.084302,79.0151828 C23.4191128,77.6950307 24.7754381,76.3507505 26.0429361,76.0784475 C26.8902124,75.8923164 27.5564175,76.0370851 28.0313022,76.5162003 C28.7624196,77.2469373 28.554017,78.2775521 28.4036938,79.0289703 C28.3592801,79.2495701 28.3080335,79.4770637 28.2875349,79.6976635 C28.2089569,80.5697222 27.4368422,81.5107183 26.5007386,81.8933212 C26.1864264,82.0208554 25.8652814,82.0828991 25.5475528,82.0828991 L25.5475528,82.0828991 Z" id="Fill-31" fill="#491CDE"></path>
                    <path d="M82.7938176,38.1620069 L82.0251194,37.1279452 C79.9445095,34.3221911 76.8663002,32.1851303 73.3576198,31.1062592 C71.9193,30.6616127 70.6962157,30.4961628 69.6302875,30.6202502 C68.4379511,30.7408908 67.3754393,31.2406872 66.7912287,31.9610836 L65.9849497,32.9606765 L64,31.3303059 L64.8096955,30.3272661 C65.8277936,29.0657108 67.4915982,28.2384614 69.3740547,28.0454366 C70.7782102,27.9041148 72.3326888,28.0902459 74.1058194,28.6348518 C78.1303817,29.8688321 81.66981,32.3367926 84.0749813,35.5802995 L84.847096,36.6143612 L82.7938176,38.1620069 Z" id="Fill-33" fill="#491CDE"></path>
                    <path d="M82.2418796,35.0019841 C82.1291372,35.0019841 82.0163948,34.9571748 81.9309839,34.8675561 C79.8572069,32.6581109 77.9474188,30.7106281 75.5969105,29.1974511 C72.9457557,27.4946962 70.0383682,26.6674468 67.4657914,26.8949404 C67.1753943,26.8949404 67.0216547,26.7363843 67.001156,26.5019969 C66.9840739,26.2641628 67.1583121,26.0539035 67.3906298,26.0332223 C70.1613599,25.8160694 73.2464021,26.6674468 76.054713,28.470161 C78.4872158,30.0350411 80.4380011,32.0273333 82.5527753,34.274694 C82.7167643,34.4470377 82.706515,34.7193406 82.5356932,34.8847905 C82.4536987,34.9606216 82.3477891,35.0019841 82.2418796,35.0019841" id="Fill-35" fill="#3D4352"></path>
                    <path d="M38.3304767,27.9380293 L37.4114553,27.0315019 C34.8901251,24.54286 32.604529,23.0124487 30.2266891,22.2265618 C28.0367533,21.4992718 25.5837518,21.385525 23.3323201,21.899109 C22.1297345,22.1748588 20.9578967,22.6229522 19.7211467,23.0986205 C17.7088655,23.8638262 15.6248392,24.6600537 13.322161,24.6979693 L12.0409972,24.7152037 L12,22.1300494 L13.2811637,22.1128151 C15.1397052,22.0817932 16.9230851,21.4027594 18.8123745,20.6789162 C20.0764561,20.196354 21.3883677,19.6931107 22.7651917,19.3794453 C25.4573437,18.765902 28.3954791,18.8968832 31.0261353,19.7689419 C33.7934489,20.6858099 36.3933572,22.4092461 39.2085009,25.1874252 L40.1206895,26.0905057 L38.3304767,27.9380293 Z" id="Fill-37" fill="#491CDE"></path>
                    <path d="M28.4717434,28.3163138 C25.048474,28.3163138 21.6354538,27.6476206 18.451335,26.3343622 L18.1985186,26.2275092 C17.6792203,26.0103562 17.1872534,25.8035439 16.6952866,25.7070315 C16.2306512,25.6208597 15.9265883,25.1693194 16.0154157,24.7005448 C16.104243,24.2317701 16.5517962,23.9284454 17.0130152,24.0146172 C17.6792203,24.1421514 18.2770967,24.3937731 18.8544745,24.6350542 L19.1004579,24.7384603 C22.998612,26.3515966 27.2691578,26.9237774 31.4542926,26.4101934 C31.9155115,26.3653841 32.3493989,26.6893901 32.4040619,27.1616116 C32.4621414,27.6338331 32.1273306,28.0646921 31.6626952,28.1198421 C30.6001834,28.2508233 29.5376716,28.3163138 28.4717434,28.3163138" id="Fill-39" fill="#3D4352"></path>
                    <path d="M12.426673,19.6935176 C12.238769,19.6935176 12.0713636,19.5694302 12.0167006,19.3798522 C11.9517883,19.1523587 12.0816129,18.9110776 12.3105141,18.8490339 C13.6805052,18.4595373 15.0504963,18.0045502 16.3794901,17.4944131 C17.1481883,17.2014289 17.9134701,16.8877636 18.6855848,16.5706513 C21.9756132,15.2229242 25.4022991,13.851069 28.9690589,14.013072 C31.5416356,14.1406063 34.0663823,15.1091774 36.0786634,16.7429949 C36.263151,16.8946573 36.2904825,17.1635133 36.1435757,17.3461976 C35.9898361,17.5357756 35.7199376,17.5633505 35.5456993,17.415135 C33.6700756,15.8950643 31.3195673,14.9919838 28.9280617,14.8747901 C28.7264919,14.8644495 28.531755,14.8575558 28.3336017,14.8575558 C25.1358171,14.8575558 22.0234433,16.1328985 19.0101463,17.3703257 C18.2311987,17.6874379 17.4590841,18.0079971 16.6801365,18.3044281 C15.3306441,18.8180121 13.9333215,19.2833398 12.5428318,19.6762833 C12.5018346,19.6866239 12.4642538,19.6935176 12.426673,19.6935176" id="Fill-41" fill="#3D4352"></path>
                    <path d="M46.327986,17.1584536 L44.8896662,16.2277981 C44.7974225,16.1657544 35.2279836,9.98895917 26.4955717,5.69760312 C21.3470018,3.16759883 15.4536487,2.72639917 10.3016623,4.49809154 L9.53979698,2.94010525 L9,1.30284089 C15.197416,-0.82043246 22.0473713,-0.320635973 27.9919709,2.59886489 C36.905454,6.97983962 46.6388818,13.2634879 46.7379584,13.3289785 L48.1728618,14.259634 L46.327986,17.1584536 Z" id="Fill-43" fill="#FFFFFF"></path>
                    <path d="M70.311454,15.9677004 C73.6561454,15.1335573 77.1238285,14.6165264 80.4890185,15.3541571 C83.8507921,16.0917878 87.1305712,18.2150612 88.9686141,21.7274241 C86.7103495,22.9269356 84.1309399,22.8959138 81.6984371,22.4099048 C79.2693507,21.9238958 76.9051766,21.0104746 74.4760902,20.5037844 C72.8566992,20.1694378 71.2168097,20.0177754 69.5735037,19.9247098 C68.8184712,19.8867942 65.8154234,20.3486751 65.3166237,19.64896 C63.574241,17.2223619 69.5564215,16.1745127 70.311454,15.9677004" id="Fill-45" fill="#FFFFFF"></path>
                    <path d="M97.8447117,42.5931766 C97.8447117,42.5931766 97.1921724,45.3575682 83.2701933,43.7926881 C83.2701933,43.7926881 70.0656659,42.5931766 67.8210671,37.0574996 C67.8210671,37.0574996 65.0981672,29.812174 66.9225443,22.8632794 C66.9225443,22.8632794 68.0226369,20.5986842 74.9990004,20.7158779 C74.9990004,20.7158779 92.3544982,20.9812871 99.7237519,27.3683415 C99.7237519,27.3683415 101.753115,32.9040185 97.8447117,42.5931766 M45.8328813,34.1724675 C45.8328813,34.1724675 31.0977903,39.0153231 8.24182963,28.7160686 C8.24182963,28.7160686 5.53259542,21.0260964 9.59473851,11.7988192 C9.59473851,11.7988192 11.0979706,7.72461608 31.0977903,10.7992262 C31.0977903,10.7992262 42.1499627,12.801859 51.2479333,19.2233822 C51.2479333,19.2233822 52.904905,28.1749096 45.8328813,34.1724675 M82.7508949,19.2233822 C82.7508949,19.2233822 72.9013083,18.2789392 65.0093398,19.9954816 C65.0093398,19.9954816 62.2283604,20.3298282 60.4210655,19.9954816 C60.4210655,19.9954816 55.5355612,18.3788985 53.4276198,17.1724931 C53.4276198,17.1724931 40.8312181,10.1098517 25.5904946,8.72420906 C25.5904946,8.72420906 12.4542959,7.50401625 3.27774728,8.23130631 L2,15.1836478 C2,15.1836478 5.00988062,16.0798346 5.23536544,18.5512421 C5.23536544,18.5512421 4.70581777,24.9176153 6.88892074,29.6984272 C6.88892074,29.6984272 14.9243796,34.4792391 29.0240133,36.3267627 C29.0240133,36.3267627 39.4441449,37.7985772 47.3395298,36.0234379 C47.3395298,36.0234379 48.3166307,36.0544598 49.2185699,33.5347961 C49.2185699,33.5347961 53.1269734,23.8697661 58.3165405,24.6384186 C58.3165405,24.6384186 61.4118321,24.7280373 63.3762831,27.7923068 C63.3762831,27.7923068 66.7004759,32.3628595 66.7722211,38.5534422 C66.7722211,38.5534422 71.7397199,43.7444319 83.5400918,45.3575682 C83.5400918,45.3575682 90.4959567,46.2951175 98.5416648,44.2338878 C98.5416648,44.2338878 100.420705,40.907656 101.773614,35.3099353 C101.773614,35.3099353 102.450068,33.3314306 103.652654,32.1767284 L103.652654,27.326979 C103.652654,27.326979 96.2868167,21.7223646 82.7508949,19.2233822" id="Fill-47" fill="#3D4352"></path>
                    <path d="M2.72981077,14.6884709 C3.79573899,15.2365236 5.32288614,16.332629 5.71577634,18.2146213 C6.05742,16.1568386 6.67237858,13.9094778 7.70414243,11.5690515 C7.86813139,11.1209581 8.44550917,10.2626869 10.3484643,9.59054677 C8.06628471,9.57675928 5.76360645,9.61122801 3.6385829,9.74220915 L2.72981077,14.6884709 Z M57.7856862,23.6537859 C57.9496752,23.6537859 61.4788542,23.8709388 63.7302859,27.3833017 C63.7576174,27.4143236 63.9762693,27.7176484 64.2905815,28.2484667 C64.2974143,26.511243 64.4819019,24.6637195 64.9670359,22.8265365 C65.1139427,22.4990836 65.5102493,21.8200498 66.5625118,21.1823784 C65.8826409,21.2857846 65.2130193,21.409872 64.56048,21.5511938 C64.317913,21.5891094 61.4515227,21.9303497 59.4699895,21.5615344 C59.0975979,21.4512345 54.270173,19.844992 52.0768207,18.5903304 C52.0494892,18.5730961 51.171465,18.0870871 49.6272357,17.3563501 C50.177282,17.7079311 50.7239118,18.0732996 51.2637088,18.4559024 C51.5404402,18.6489273 51.7283442,18.9453583 51.7864236,19.2797049 C51.8308373,19.5037516 52.3877164,22.7024491 51.4174484,26.593968 C53.1188339,24.7119757 55.264356,23.2849705 57.7822698,23.6537859 L57.7856862,23.6537859 Z M100.279324,27.431558 C100.470645,28.0761231 100.959195,30.0580747 100.764458,33.208516 C101.017275,32.7845507 101.307672,32.3502448 101.652732,31.9538544 L101.652732,28.2967229 C101.335003,28.0864637 100.880617,27.7900327 100.279324,27.431558 L100.279324,27.431558 Z M8.58558307,28.0692293 C28.8416355,37.0310974 42.579127,33.8255061 44.4957479,33.2981347 C49.7843918,28.644857 49.5315755,22.1026933 49.3368386,20.2551698 C40.6590897,14.3231025 30.2594567,12.3859602 30.1501307,12.365279 C12.521318,9.65948422 10.0239029,12.6789444 9.99657137,12.7134131 C6.82611823,19.9311638 8.10728195,26.2665151 8.58558307,28.0692293 L8.58558307,28.0692293 Z M45.1107065,34.4631775 L45.1448709,34.4631775 L45.1107065,34.4631775 Z M96.9619645,43.1458489 L96.9927124,43.1458489 L96.9619645,43.1458489 Z M67.3824566,23.7296171 C65.8108957,30.1063309 68.277563,36.824285 68.2980616,36.8897756 C69.8867046,40.8054226 79.21016,42.4806025 82.6641774,42.7977148 C93.3405417,43.9937795 95.6705514,42.5529869 95.9746143,42.3082589 C99.0767387,34.5631368 98.1918816,29.6306625 97.8844023,28.4035759 C90.7884636,22.6300648 74.4271488,22.3060588 74.2597434,22.3026119 C69.2649131,22.219887 67.7104345,23.4056111 67.3824566,23.7296171 L67.3824566,23.7296171 Z M86.9347231,47.1614552 C84.40656,47.1614552 82.7905855,46.9477491 82.6539281,46.9305147 C70.5494933,45.276016 65.3462604,39.9712795 65.1344413,39.7472328 C64.90554,39.5059517 64.7757155,39.1922863 64.772299,38.8648335 C64.7073867,33.1878347 61.6530924,28.8895849 61.6223445,28.8447756 C60.0268686,26.3664744 57.6490288,26.2285995 57.5499521,26.2251526 C53.9319458,25.7150155 50.5975037,32.0538137 49.6853151,34.314962 C48.6057211,37.3344222 47.2186479,37.5894907 46.5797742,37.6067251 C38.8791262,39.3818643 28.5649042,37.9617529 28.1310167,37.8962623 C13.9425556,36.041845 5.85585024,31.3023956 5.51762302,31.1059239 C5.29555464,30.9714958 5.1144835,30.7715772 5.00515753,30.533743 C2.70931215,25.5013094 3.2183612,19.0108488 3.23544339,18.7385459 C3.09536949,17.4046063 0.93618157,16.7221256 0.915682951,16.7152319 C0.290475057,16.522207 -0.0955822763,15.8879825 0.0205765673,15.2399705 L1.29832385,8.2910759 C1.40423338,7.71544822 1.8825345,7.28458918 2.45991228,7.23633297 C11.6432938,6.51248978 24.4412652,7.67753263 24.9878951,7.72923571 C40.3208624,9.12521901 52.8045217,16.0430918 53.3306529,16.3360759 C55.3156026,17.4700969 60.0542001,19.0453176 60.1020302,19.0625519 C61.5198514,19.3176205 64.1129268,19.007402 64.1402583,19.007402 C72.0117281,17.2839658 81.7451559,18.1904932 82.1517119,18.2284088 C82.1892927,18.2318557 82.2268735,18.2353026 82.2610379,18.2421963 C95.9370335,20.7722006 103.395115,26.3526869 103.70601,26.5870742 C104.023739,26.8318022 104.215059,27.214405 104.215059,27.6211359 L104.215059,32.4674384 C104.215059,32.8224663 104.071569,33.1602598 103.818753,33.4049877 C102.868983,34.3184089 102.274523,36.0073763 102.26769,36.0211638 C100.918198,41.6154376 99.0186593,45.0243943 98.9366648,45.1657161 C98.7624265,45.4724877 98.4754459,45.6896407 98.1406351,45.7792594 C93.7949278,46.8925991 89.7840312,47.1614552 86.9347231,47.1614552 L86.9347231,47.1614552 Z" id="Fill-49" fill="#3D4352"></path>
                    <path d="M61.4281251,61.753503 C61.2368047,61.753503 61.0659828,61.6259687 61.0147363,61.4329438 C60.9532404,61.2020034 61.0898979,60.9641692 61.3187991,60.9055724 C62.8322805,60.5022883 64.3935921,60.0852168 65.6235092,59.1683487 C66.6928539,58.3721212 67.6084589,56.9416692 67.2360673,55.542239 C67.1779879,55.3147455 67.3146453,55.0769113 67.5401301,55.0148676 C67.7621985,54.9528239 68.0013491,55.0906988 68.0628449,55.3216392 C68.5343132,57.1071191 67.4342206,58.8891521 66.1291418,59.8611701 C64.7728165,60.8745505 63.0543489,61.3329845 61.5374511,61.7397155 C61.4998703,61.7500561 61.4657059,61.753503 61.4281251,61.753503" id="Fill-51" fill="#3D4352"></path>
                    <path d="M80.276197,35.8233955 L80.2591148,35.8233955 L74.8372299,35.7234362 C74.3691781,35.7130955 73.9899537,35.3201521 74.000203,34.8444837 C74.0104523,34.3722622 74.4340904,34.027575 74.8713943,34 L80.2932792,34.0999593 C80.7647474,34.1102999 81.1405554,34.4997965 81.1303061,34.9789117 C81.1200568,35.4476864 80.7408323,35.8233955 80.276197,35.8233955" id="Fill-53" fill="#3D4352"></path>
                </g>
                <path d="M105.418549,104.964566 C105.442095,105.766982 105.532917,106.579686 105.627102,107.382103 L105.627102,107.382103 C105.775108,108.637165 105.913023,109.823645 105.721288,110.903821 L105.721288,110.903821 C105.546372,111.908556 105.058626,112.923579 104.547333,113.996897 L104.547333,113.996897 C103.854397,115.44742 103.134551,116.94595 103,118.732528 L103,118.732528 L106.350312,119 C106.43777,117.864958 106.986064,116.716199 107.57136,115.502286 L107.57136,115.502286 C108.160019,114.26437 108.772225,112.985304 109.034599,111.507348 L109.034599,111.507348 C109.310428,109.926519 109.138876,108.427988 108.967323,106.977466 L108.967323,106.977466 C108.883229,106.274494 108.799135,105.574951 108.78568,104.86855 L108.78568,104.86855 C108.73186,103.040823 109.152331,101.226813 110,99.61855 L110,99.61855 L107.036521,98 C105.913023,100.13292 105.354637,102.543599 105.418549,104.964566" id="Fill-56"></path>
            </g>
        </g>
    </g>
</svg>