<svg id="Livello_1" data-name="Livello 1" xmlns="http://www.w3.org/2000/svg" xmlns:xlink="http://www.w3.org/1999/xlink" viewBox="0 0 90.88 90.88"><defs><style>.cls-1{fill:#3d4352;}.cls-2{fill:url(#Sfumatura_senza_nome);}.cls-3{fill:#fff;}.cls-4{fill:#491cde;}.cls-5{fill:url(#Sfumatura_senza_nome-2);}.cls-6{fill:url(#Sfumatura_senza_nome-3);}</style><linearGradient id="Sfumatura_senza_nome" x1="45.68" y1="267.49" x2="45.68" y2="276.22" gradientTransform="matrix(1, -0.02, -0.02, -1, 8.52, 318.81)" gradientUnits="userSpaceOnUse"><stop offset="0" stop-color="#161c2d"/><stop offset="0.33" stop-color="#1e2435"/><stop offset="0.83" stop-color="#343a49"/><stop offset="1" stop-color="#3d4352"/></linearGradient><linearGradient id="Sfumatura_senza_nome-2" x1="35.8" y1="259.16" x2="51.78" y2="259.16" xlink:href="#Sfumatura_senza_nome"/><linearGradient id="Sfumatura_senza_nome-3" x1="35.13" y1="254.29" x2="52.16" y2="254.29" xlink:href="#Sfumatura_senza_nome"/></defs><title>Alessandro_3</title><path class="cls-1" d="M46.74,55.62h-.15a.25.25,0,0,1,0-.5,1.09,1.09,0,0,0,.88-.29A3.82,3.82,0,0,1,50,53.54a.24.24,0,0,1,.27.21v0A.25.25,0,0,1,50,54h0a3.31,3.31,0,0,0-2.11,1.11A1.52,1.52,0,0,1,46.74,55.62Z"/><path class="cls-1" d="M42.07,54.15H42a2.07,2.07,0,0,1-1.33-1.75.25.25,0,0,1,.25-.25h0a.25.25,0,0,1,.25.25c0,.85,1,1.27,1,1.28a.25.25,0,0,1-.09.48Z"/><path class="cls-1" d="M50.84,54.23a.25.25,0,0,1-.08-.49,1.49,1.49,0,0,0,1-1.85.25.25,0,0,1,.48-.15,2,2,0,0,1-1.35,2.48Z"/><path class="cls-2" d="M47.69,50.38l-.26-6.16h0A3.67,3.67,0,0,1,48,41.65l.81.59a2.75,2.75,0,0,0-.38,1.91l.27,6.23Z"/><path class="cls-3" d="M59.42,41.9l-2.17-1.54c-2.66-.3-7.41,1.38-7.46,1.4l-.5-1.41c.22-.08,5.37-1.9,8.35-1.45A.76.76,0,0,1,58,39l2.32,1.65Z"/><path class="cls-3" d="M44,41.78S39.12,39.89,35.82,40l-2.31,1.51-.82-1.25,2.49-1.63a.74.74,0,0,1,.38-.12c3.65-.16,8.77,1.83,9,1.91Z"/><path class="cls-4" d="M46.7,60.71a5.14,5.14,0,0,1-2.06-.46c-4.89.31-5.47-.52-5.53-.79a.25.25,0,0,1,.48-.15c0,.06.69.72,5.09.43a.25.25,0,0,1,.13,0,4,4,0,0,0,3.59,0,.25.25,0,0,1,.14,0c1.17.05,4.33,0,5-.77a.25.25,0,1,1,.39.32c-.87,1.06-4.58,1-5.3,1A3.62,3.62,0,0,1,46.7,60.71Z"/><path class="cls-5" d="M39.12,59.92a.51.51,0,1,1-.16-1,28.36,28.36,0,0,1,8-1.23,24.65,24.65,0,0,1,7.31.89.52.52,0,1,1-.31,1,23.93,23.93,0,0,0-7-.84,28,28,0,0,0-7.68,1.17Z"/><path class="cls-6" d="M42.92,68.3a2.13,2.13,0,0,1-1.1-.32c-.07,0-5.78-3.65-3.17-8.8l.89.45c-2.2,4.35,2.58,7.38,2.8,7.52a1.1,1.1,0,0,0,.88.13A3.23,3.23,0,0,0,44.75,66a4.38,4.38,0,0,1-.67-3l.06-.36h.36a24.3,24.3,0,0,1,4.92-.14h.42v.42a5.09,5.09,0,0,1-.63,2.88,2.45,2.45,0,0,0,1.51,1.27,1.06,1.06,0,0,0,.79-.25,6.8,6.8,0,0,0,2.06-7.52l.92-.38a7.81,7.81,0,0,1-2.3,8.64,2,2,0,0,1-1.59.51,3.56,3.56,0,0,1-2.41-2L48,65.77l.2-.27a4,4,0,0,0,.63-2.07,24.36,24.36,0,0,0-3.85.11,3.23,3.23,0,0,0,.7,2.1l.22.27-.17.3a4.61,4.61,0,0,1-2.31,2A2.14,2.14,0,0,1,42.92,68.3Z"/></svg>