<svg id="Livello_1" data-name="Livello 1" xmlns="http://www.w3.org/2000/svg" xmlns:xlink="http://www.w3.org/1999/xlink" viewBox="0 0 220 247"><defs><style>.cls-1{fill:#3d4352;}.cls-2{fill:url(#Sfumatura_senza_nome);}.cls-3{fill:url(#Sfumatura_senza_nome_10);}.cls-4{fill:url(#Sfumatura_senza_nome_10-2);}.cls-5{fill:url(#Sfumatura_senza_nome_10-3);}.cls-6{fill:url(#Sfumatura_senza_nome_10-4);}.cls-7{fill:url(#Sfumatura_senza_nome_10-5);}.cls-8{fill:url(#Sfumatura_senza_nome_10-6);}.cls-9{fill:url(#Sfumatura_senza_nome_10-7);}.cls-10{fill:url(#Sfumatura_senza_nome_10-8);}</style><linearGradient id="Sfumatura_senza_nome" x1="-482.85" y1="414.67" x2="-482.99" y2="415.67" gradientTransform="matrix(5, 0, 0, -31, 2534.33, 12980.68)" gradientUnits="userSpaceOnUse"><stop offset="0" stop-color="#161c2d"/><stop offset="0.33" stop-color="#1e2435"/><stop offset="0.83" stop-color="#343a49"/><stop offset="1" stop-color="#3d4352"/></linearGradient><linearGradient id="Sfumatura_senza_nome_10" x1="-592.56" y1="399.04" x2="-593.53" y2="399.03" gradientTransform="matrix(56, 0, 0, -8, 33324.33, 3348.24)" gradientUnits="userSpaceOnUse"><stop offset="0" stop-color="#3d4352"/><stop offset="0.17" stop-color="#343a49"/><stop offset="0.67" stop-color="#1e2435"/><stop offset="1" stop-color="#161c2d"/></linearGradient><linearGradient id="Sfumatura_senza_nome_10-2" x1="-593.28" y1="415.67" x2="-594.25" y2="415.65" gradientTransform="matrix(60, 0, 0, -34, 35739.67, 14305.52)" xlink:href="#Sfumatura_senza_nome_10"/><linearGradient id="Sfumatura_senza_nome_10-3" x1="-584.17" y1="415.94" x2="-583.2" y2="415.96" gradientTransform="matrix(30, 0, 0, -36, 17647.67, 15130.08)" xlink:href="#Sfumatura_senza_nome_10"/><linearGradient id="Sfumatura_senza_nome_10-4" x1="-585.04" y1="415.95" x2="-586.01" y2="415.94" gradientTransform="matrix(33, 0, 0, -36, 19413.67, 15130.08)" xlink:href="#Sfumatura_senza_nome_10"/><linearGradient id="Sfumatura_senza_nome_10-5" x1="-585.04" y1="417.24" x2="-586.01" y2="417.22" gradientTransform="matrix(33, 0, 0, -49, 19483.67, 20592.72)" xlink:href="#Sfumatura_senza_nome_10"/><linearGradient id="Sfumatura_senza_nome_10-6" x1="-587.53" y1="417.22" x2="-586.56" y2="417.24" gradientTransform="matrix(36, 0, 0, -49, 21196.67, 20594.72)" xlink:href="#Sfumatura_senza_nome_10"/><linearGradient id="Sfumatura_senza_nome_10-7" x1="-580.6" y1="419.65" x2="-580.58" y2="418.68" gradientTransform="matrix(26, 0, 0, -108, 15260.33, 45342.24)" xlink:href="#Sfumatura_senza_nome_10"/><linearGradient id="Sfumatura_senza_nome_10-8" x1="-583.48" y1="419.22" x2="-582.51" y2="419.23" gradientTransform="matrix(29, 0, 0, -112, 16965.33, 47024.36)" xlink:href="#Sfumatura_senza_nome_10"/></defs><title>Tavola disegno 2</title><g id="Symbols"><g id="Alessandro"><g id="Shape"><path class="cls-1" d="M114.44,145h-.54a1,1,0,0,1,0-1.92,3.75,3.75,0,0,0,3.16-1.11,13.44,13.44,0,0,1,9-5,.82.82,0,0,1,.67.21,1,1,0,0,1,.3.67,1,1,0,0,1-.21.7.88.88,0,0,1-.61.33,11.66,11.66,0,0,0-7.57,4.26A5.28,5.28,0,0,1,114.44,145Z"/><path class="cls-1" d="M98.16,139h-.33c-.18,0-4.9-2-4.83-6.09a.89.89,0,0,1,.91-.87h0a.89.89,0,0,1,.91.87c0,3,3.63,4.42,3.63,4.46a.86.86,0,0,1,.54,1,.9.9,0,0,1-.86.71Z"/><path class="cls-1" d="M128.9,140a.88.88,0,0,1-.89-.79.94.94,0,0,1,.61-1.05,5.68,5.68,0,0,0,3.44-6.94,1,1,0,0,1,.57-1.18.85.85,0,0,1,1.08.62,7.62,7.62,0,0,1-4.65,9.3Z"/><path class="cls-2" d="M118.07,126l-.92-21.87h0a13.06,13.06,0,0,1,2-9.13L122,97.1a9.79,9.79,0,0,0-1.35,6.78l1,22.12Z"/><path class="cls-3" d="M88,160a1.77,1.77,0,0,1-2-1.5,1.8,1.8,0,0,1,1.46-2.07A96.48,96.48,0,0,1,115.3,152a83.81,83.81,0,0,1,25.42,3.17,1.87,1.87,0,0,1,1.2,2.33,1.81,1.81,0,0,1-2.28,1.23,81.36,81.36,0,0,0-24.34-3,95.25,95.25,0,0,0-26.7,4.17Z"/><path class="cls-4" d="M101.49,190a7.38,7.38,0,0,1-3.88-1.16c-.25,0-20.41-13.22-11.19-31.86l3.14,1.63c-7.77,15.75,9.11,26.72,9.89,27.23a3.8,3.8,0,0,0,3.11.47,11.48,11.48,0,0,0,5.4-4.67,16.19,16.19,0,0,1-2.37-10.86l.21-1.3h1.27a83.67,83.67,0,0,1,17.37-.51h1.48v1.52a18.82,18.82,0,0,1-2.22,10.43,8.71,8.71,0,0,0,5.33,4.6,3.68,3.68,0,0,0,2.79-.91,25,25,0,0,0,7.27-27.23l3.25-1.38a28.75,28.75,0,0,1-8.12,31.28,7,7,0,0,1-5.61,1.85,12.65,12.65,0,0,1-8.51-7.24l-.6-1.05.71-1a14.75,14.75,0,0,0,2.22-7.5,83.87,83.87,0,0,0-13.59.4,11.89,11.89,0,0,0,2.47,7.6l.78,1-.6,1.09a16.4,16.4,0,0,1-8.16,7.24,7.38,7.38,0,0,1-1.84.33Z"/><path class="cls-5" d="M147.05,173.93a1.75,1.75,0,0,1-1.67-1.24c-2.79-8.88,0-11.87.45-12.37a10.58,10.58,0,0,0,2.68-7.79,11.34,11.34,0,0,0-3.66-6.73,78.3,78.3,0,0,0-21.22-4.19,1.79,1.79,0,0,1-1.64-1.89,1.82,1.82,0,0,1,.56-1.25,1.66,1.66,0,0,1,1.25-.46,80,80,0,0,1,22.54,4.77l.42.25a15,15,0,0,1,5.19,9.35A14.31,14.31,0,0,1,148.31,163s-1.64,2.11.42,8.66a1.84,1.84,0,0,1-1.11,2.29Z"/><path class="cls-6" d="M79.46,174a1.76,1.76,0,0,1-1.65-2.39,14.27,14.27,0,0,0,1.12-8.54A13.27,13.27,0,0,1,75,153.12a12.91,12.91,0,0,1,4.59-8.33A56.91,56.91,0,0,1,106.25,138a1.76,1.76,0,0,1,0,3.52,53.52,53.52,0,0,0-24.75,6.12h0a9.68,9.68,0,0,0-3,5.8A10.14,10.14,0,0,0,81.71,161a1.76,1.76,0,0,1,.32.53,15.86,15.86,0,0,1-.95,11.43A1.75,1.75,0,0,1,79.46,174Z"/><path class="cls-7" d="M146.77,173a1.79,1.79,0,0,1-1.54-.87,1.69,1.69,0,0,1,0-1.73c0-.24,14.94-25.27,29.57-45.73a1.82,1.82,0,0,1,2.43-.36,1.7,1.7,0,0,1,.5,2.33c-14.52,20.36-29.28,45.25-29.43,45.49A1.79,1.79,0,0,1,146.77,173Z"/><path class="cls-8" d="M79.24,175a1.75,1.75,0,0,1-1.5-.83,406.86,406.86,0,0,0-32.32-45.31,1.73,1.73,0,0,1,.19-2.44,1.75,1.75,0,0,1,2.46.19,410.61,410.61,0,0,1,32.67,45.76,1.72,1.72,0,0,1,0,1.75,1.75,1.75,0,0,1-1.53.88Z"/><path class="cls-9" d="M174.55,126c0-.32-4.29-32.23-4.95-62.51A62.27,62.27,0,0,0,152,20.55L154.4,18a64.74,64.74,0,0,1,18.68,45.53c.66,30,4.88,61.69,4.91,62Z"/><path class="cls-10" d="M47.55,127,44,126.41a369.61,369.61,0,0,0,4.26-63.57A66.52,66.52,0,0,1,70.62,15L73,17.58a64.24,64.24,0,0,0-21.11,45A373.75,373.75,0,0,1,47.55,127Z"/></g></g></g></svg>