<svg id="Livello_1" data-name="Livello 1" xmlns="http://www.w3.org/2000/svg" xmlns:xlink="http://www.w3.org/1999/xlink" viewBox="0 0 90.88 90.88"><defs><style>.cls-1{fill:#3d4352;}.cls-2{fill:url(#Sfumatura_senza_nome_10);}.cls-3{fill:#491cde;}.cls-4{fill:url(#Sfumatura_senza_nome_10-2);}.cls-5{fill:url(#Sfumatura_senza_nome_10-3);}.cls-6{fill:#fff;}.cls-7{fill:url(#Sfumatura_senza_nome_10-4);}</style><linearGradient id="Sfumatura_senza_nome_10" x1="45" y1="-203.28" x2="46.42" y2="-203.28" gradientTransform="matrix(1, 0, 0, -1, 0, -149.01)" gradientUnits="userSpaceOnUse"><stop offset="0" stop-color="#3d4352"/><stop offset="0.17" stop-color="#343a49"/><stop offset="0.67" stop-color="#1e2435"/><stop offset="1" stop-color="#161c2d"/></linearGradient><linearGradient id="Sfumatura_senza_nome_10-2" x1="-1942.26" y1="1498.3" x2="-1937.26" y2="1498.3" gradientTransform="matrix(-1, 0, 0, 1, -1889.55, -1435.72)" xlink:href="#Sfumatura_senza_nome_10"/><linearGradient id="Sfumatura_senza_nome_10-3" x1="52.83" y1="-197.42" x2="56.6" y2="-197.42" xlink:href="#Sfumatura_senza_nome_10"/><linearGradient id="Sfumatura_senza_nome_10-4" x1="50.43" y1="-200.66" x2="50.43" y2="-194.54" xlink:href="#Sfumatura_senza_nome_10"/></defs><title>Alessio_3</title><path class="cls-1" d="M54.11,54.29a.55.55,0,0,1,.41-.1.34.34,0,0,1,.33.23c.05.21-.31.43-.5.53-.4.2-1.67.3-1.67,0A3.64,3.64,0,0,0,54.11,54.29Z"/><path class="cls-1" d="M51.15,54.71c.24-.41-.76-.63-1.21-.84a3.55,3.55,0,0,0-2.4-.47.88.88,0,0,0-.45.24.52.52,0,0,0-.12.54c.27.54,2.11.64,2.9.37C49.88,54.54,50.95,55,51.15,54.71Z"/><path class="cls-2" d="M46.13,55.46a1.34,1.34,0,0,1-.5-.1,1.21,1.21,0,0,1-.56-.68,2.16,2.16,0,0,1,.23-1.62l.83.56a1.38,1.38,0,0,0-.12.71.65.65,0,0,0,.08.14h.05l.29,1A1,1,0,0,1,46.13,55.46Z"/><path class="cls-3" d="M54.32,61.69a1.75,1.75,0,0,1-.55-.09,3.21,3.21,0,0,1-.57-.28,3.49,3.49,0,0,0-.39-.21A3.62,3.62,0,0,0,51.15,61a3.51,3.51,0,0,1-2.06-.25l-.19-.12-.24-.14a2,2,0,0,0-1,0,20.78,20.78,0,0,1-4.76,0,.25.25,0,0,1-.22-.28h0a.23.23,0,0,1,.23-.23h0a20.48,20.48,0,0,0,4.59-.07,2.49,2.49,0,0,1,1.33.08,2.38,2.38,0,0,1,.31.18l.17.1a3.11,3.11,0,0,0,1.77.19,3.07,3.07,0,0,1,2.32.45,2.72,2.72,0,0,0,.48.24A1.27,1.27,0,0,0,55,61a.25.25,0,0,1,.27.42A1.75,1.75,0,0,1,54.32,61.69Z"/><path class="cls-3" d="M55.12,61.46h0a3.25,3.25,0,0,1-2-.71,3.14,3.14,0,0,1-.59-.62c-.15-.2-.67-.11-1.12,0A2.17,2.17,0,0,1,49.82,60a1.73,1.73,0,0,0-1.73-.13,5.12,5.12,0,0,1-.56.15,17.78,17.78,0,0,1-3.53.25H42.22a.26.26,0,0,1-.26-.24.25.25,0,0,1,.24-.26H44a17.52,17.52,0,0,0,3.43-.23,1.91,1.91,0,0,0,.52-.14,2.23,2.23,0,0,1,2.2.2c.24.17.76.08,1.22,0,.63-.11,1.27-.22,1.6.21a2.66,2.66,0,0,0,.51.54,2.75,2.75,0,0,0,1.65.59.25.25,0,0,1,0,.5Z"/><path class="cls-4" d="M51,63.32a8.94,8.94,0,0,1-3-.51.5.5,0,0,1,.33-.94,8,8,0,0,0,3.76.38.51.51,0,0,1,.57.42.5.5,0,0,1-.42.57h0A8.85,8.85,0,0,1,51,63.32Z"/><path class="cls-5" d="M56.5,54.25l-.92-.4a.54.54,0,0,0-.1-.44,2.93,2.93,0,0,0-.31-.4l-.25-.3A6,6,0,0,1,54,49.38v-.22a14.4,14.4,0,0,0-.32-2.5c-.08-.34-.19-.67-.3-1a7.54,7.54,0,0,1-.49-2.35.71.71,0,0,1,.33-.61l.25-.14.32.14-.5.87.25-.43.19.43a.32.32,0,0,0,.17-.25,6.66,6.66,0,0,0,.45,2c.12.36.23.71.32,1.07A15.31,15.31,0,0,1,55,49.06v.22a5.11,5.11,0,0,0,.74,2.79l.21.25a4.11,4.11,0,0,1,.41.53A1.48,1.48,0,0,1,56.5,54.25Z"/><path class="cls-3" d="M55.34,62.06a.38.38,0,0,1-.17-.71.31.31,0,0,0,.1-.26c0-.23-.32-.5-.42-.59a.37.37,0,0,1,.48-.57A1.62,1.62,0,0,1,56,61.09a1,1,0,0,1-.51.93A.38.38,0,0,1,55.34,62.06Z"/><path class="cls-3" d="M42.34,60.78a.79.79,0,0,1-.52-.2h0a.66.66,0,0,1-.2-.69,1.28,1.28,0,0,1,.87-.85.6.6,0,0,1,.58.13.75.75,0,0,1,.11.73v.19a.85.85,0,0,1-.52.64A.74.74,0,0,1,42.34,60.78ZM42.4,60Z"/><path class="cls-6" d="M48.62,42.08l-.42-.27S45.37,40,42.82,38.75a6.29,6.29,0,0,0-4.74-.35l-.23-.48-.16-.47a7.33,7.33,0,0,1,5.56.38c2.61,1.27,5.46,3.09,5.49,3.11l.42.27Z"/><path class="cls-6" d="M55.43,41.61a6.6,6.6,0,0,1,3-.18,3.67,3.67,0,0,1,2.48,1.85,3.18,3.18,0,0,1-2.13.2c-.71-.14-1.4-.41-2.11-.55a9.72,9.72,0,0,0-1.44-.17c-.22,0-1.1.12-1.25-.08C53.45,42,55.2,41.67,55.43,41.61Z"/><path class="cls-1" d="M59,42.7a20.16,20.16,0,0,0-5.19.23,5.7,5.7,0,0,1-1.34,0,16,16,0,0,1-2-.82,23,23,0,0,0-8.15-2.45,47.87,47.87,0,0,0-6.53-.14l-.37,2s.88.26,1,1a7.52,7.52,0,0,0,.48,3.23,18.43,18.43,0,0,0,6.48,1.92,18.08,18.08,0,0,0,5.36-.09s.29,0,.55-.72c0,0,1.14-2.8,2.66-2.58a2,2,0,0,1,1.48.91,5.9,5.9,0,0,1,1,3.12,8.67,8.67,0,0,0,4.91,2,12.86,12.86,0,0,0,4.33-.39,10.92,10.92,0,0,0,.93-2.56,2.66,2.66,0,0,1,.55-.91V45A15.51,15.51,0,0,0,59,42.7ZM48.19,47s-4.31,1.41-11-1.58a7.12,7.12,0,0,1,.4-4.91s.44-1.18,6.29-.29a16.86,16.86,0,0,1,5.9,2.44A4.85,4.85,0,0,1,48.19,47Zm15.22,2.44s-.19.8-4.27.35c0,0-3.87-.35-4.52-2a7.63,7.63,0,0,1-.26-4.12s.32-.66,2.36-.62c0,0,5.08.08,7.24,1.93a6.79,6.79,0,0,1-.55,4.47Z"/><path class="cls-1" d="M60.43,50.72a10.37,10.37,0,0,1-1.25-.07A9,9,0,0,1,54,48.57a.38.38,0,0,1-.11-.26A5.58,5.58,0,0,0,53,45.4a1.61,1.61,0,0,0-1.19-.76c-1.06-.15-2,1.69-2.3,2.35-.32.88-.72.95-.91,1a17.85,17.85,0,0,1-5.4.08,18.66,18.66,0,0,1-6.62-2,.38.38,0,0,1-.15-.15,7.85,7.85,0,0,1-.52-3.42c0-.39-.67-.58-.68-.59a.38.38,0,0,1-.26-.43l.37-2a.38.38,0,0,1,.34-.31,47.48,47.48,0,0,1,6.59.14,23.18,23.18,0,0,1,8.3,2.5,15.87,15.87,0,0,0,2,.79,5.48,5.48,0,0,0,1.18,0A20.13,20.13,0,0,1,59,42.37h0a15.77,15.77,0,0,1,6.28,2.42.38.38,0,0,1,.15.3V46.5a.37.37,0,0,1-.12.27,2.31,2.31,0,0,0-.45.76,11.07,11.07,0,0,1-1,2.65.38.38,0,0,1-.23.18A13.49,13.49,0,0,1,60.43,50.72Zm-5.72-6.8A7.35,7.35,0,0,0,55,47.74c.46,1.14,3.19,1.62,4.21,1.71,3.13.35,3.81-.07,3.9-.14a6.71,6.71,0,0,0,.56-4c-2.08-1.67-6.87-1.77-6.91-1.77C55.26,43.48,54.8,43.83,54.71,43.92Zm8.66,5.63ZM48.19,47ZM37.5,45.18c5.93,2.6,10,1.67,10.51,1.52a4.45,4.45,0,0,0,1.41-3.78,16.68,16.68,0,0,0-5.62-2.29c-5.16-.79-5.89.09-5.9.1A6.91,6.91,0,0,0,37.5,45.18ZM64.34,45a4.89,4.89,0,0,1,.14,1.68,2.49,2.49,0,0,1,.26-.36V45.24ZM51.9,43.92A2.33,2.33,0,0,1,53.64,45l.16.25a6.22,6.22,0,0,1,.2-1.57,1.11,1.11,0,0,1,.47-.48l-.59.11a5.87,5.87,0,0,1-1.49,0,15.61,15.61,0,0,1-2.16-.86s-.27-.15-.72-.36l.48.32a.37.37,0,0,1,.15.24A5.38,5.38,0,0,1,50,44.77,2.15,2.15,0,0,1,51.9,43.92Zm-16.12-2.6a1.57,1.57,0,0,1,.87,1,8,8,0,0,1,.58-1.93c0-.13.22-.38.77-.57H36Z"/><path class="cls-1" d="M52.8,55a.13.13,0,0,1,0-.25,3.66,3.66,0,0,0,1.26-.5,1.06,1.06,0,0,0,.49-1.06.13.13,0,1,1,.24-.06,1.31,1.31,0,0,1-.57,1.32,3.92,3.92,0,0,1-1.34.54Z"/><path class="cls-7" d="M50.38,51.65l-1-.08a3.8,3.8,0,0,1,.46-1.38,3.63,3.63,0,0,0,.35-.9,3.56,3.56,0,0,0,0-1c0-.23-.05-.47-.06-.71a4.06,4.06,0,0,1,.48-2l.88.47a3,3,0,0,0-.36,1.53,2.6,2.6,0,0,0,.05.62,4.36,4.36,0,0,1,0,1.32,4.42,4.42,0,0,1-.43,1.16A3,3,0,0,0,50.38,51.65Z"/></svg>