<?xml version="1.0" encoding="utf-8"?>
<!-- Generator: Adobe Illustrator 21.0.2, SVG Export Plug-In . SVG Version: 6.00 Build 0)  -->
<svg version="1.1" id="Livello_1" xmlns="http://www.w3.org/2000/svg" xmlns:xlink="http://www.w3.org/1999/xlink" x="0px" y="0px"
	 viewBox="0 0 220 247" style="enable-background:new 0 0 220 247;" xml:space="preserve">
<style type="text/css">
	.st0{fill:#491CDE;}
	.st1{fill:#3D4352;}
	.st2{fill:url(#SVGID_1_);}
	.st3{fill:#FFFFFF;}
	.st4{fill:url(#SVGID_2_);}
	.st5{fill:url(#SVGID_3_);}
	.st6{fill:url(#SVGID_4_);}
	.st7{fill:url(#SVGID_5_);}
	.st8{fill:url(#SVGID_6_);}
	.st9{fill:url(#SVGID_7_);}
	.st10{fill:url(#SVGID_8_);}
	.st11{fill:url(#SVGID_9_);}
	.st12{fill:url(#SVGID_10_);}
	.st13{fill:url(#SVGID_11_);}
</style>
<g id="Symbols">
	<g id="Alessandro">
		<g id="Shape" transform="translate(32.000000, 0.000000)">
			<path class="st0" d="M123.7,105c-0.4,0-0.7-0.1-1-0.4c-3-4.1-7.8-6.7-13-7c-3.6,0.4-7,2.2-9.2,5.1c-0.2,0.5-0.7,0.7-1.3,0.7
				c-0.5,0-1-0.4-1.2-0.8s-0.1-1,0.3-1.4c2.7-3.5,6.8-5.7,11.2-6.1c5.9,0.2,11.5,3,15,7.7c0.4,0.4,0.5,0.9,0.3,1.4
				C124.7,104.7,124.2,105,123.7,105L123.7,105z"/>
			<path class="st1" d="M112.1,106c-2.5,0-5.1-0.4-7.5-1.1c-0.5-0.1-0.7-0.7-0.6-1.2c0-0.3,0.2-0.6,0.5-0.7c0.3-0.1,0.5-0.1,0.8,0
				c0,0,8.9,2.8,14.4-0.8c0.3-0.2,0.6-0.2,0.9-0.1c0.3,0.2,0.5,0.5,0.5,0.9c0,0.4-0.2,0.7-0.5,0.8C117.9,105.4,115,106.1,112.1,106
				L112.1,106z"/>
			<path class="st0" d="M39.2,104c-0.5-0.1-0.9-0.4-1.1-0.9c-0.2-0.5,0-1,0.3-1.4c4.4-4.4,10.5-6.9,16.8-6.7
				c4.1,0.4,7.9,2.4,10.6,5.5c0.4,0.6,0.2,1.3-0.3,1.7c-0.5,0.4-1.3,0.4-1.8-0.1c-2.3-2.5-5.5-4.1-8.9-4.5c-5.6,0-10.9,2.2-14.7,6.1
				C39.8,103.9,39.5,104,39.2,104L39.2,104z"/>
			<path class="st1" d="M51.8,106c-3.2,0.1-6.4-0.7-9.2-2.2c-0.3-0.1-0.5-0.4-0.6-0.8c0-0.4,0.1-0.7,0.4-0.9c0.3-0.2,0.7-0.2,0.9,0
				c4.3,2,9,2.5,13.6,1.5c0.5-0.1,0.9,0.2,1.1,0.7c0.1,0.5-0.2,1-0.7,1.1C55.5,105.8,53.7,106,51.8,106L51.8,106z"/>
			<path class="st1" d="M82.4,145h-0.5c-0.5,0-0.9-0.4-0.9-1s0.4-1,0.9-1c1.2,0.1,2.3-0.3,3.2-1.1c2.3-2.8,5.5-4.6,9-5
				c0.2,0,0.5,0,0.7,0.2c0.2,0.2,0.3,0.4,0.3,0.7c0,0.3-0.1,0.5-0.2,0.7c-0.2,0.2-0.4,0.3-0.6,0.3c-2.9,0.4-5.6,1.9-7.6,4.3
				C85.5,144.4,84,145.1,82.4,145z"/>
			<path class="st1" d="M66.2,139h-0.3c-0.2,0-4.9-2-4.8-6.1c0-0.5,0.4-0.9,0.9-0.9l0,0c0.5,0,0.9,0.4,0.9,0.9c0,3,3.6,4.4,3.6,4.5
				c0.4,0.2,0.6,0.6,0.5,1S66.5,139,66.2,139L66.2,139z"/>
			<path class="st1" d="M96.9,140c-0.4,0-0.8-0.3-0.9-0.8c-0.1-0.5,0.2-0.9,0.6-1.1c2.7-0.9,4.2-4,3.4-6.9c-0.1-0.5,0.1-1,0.6-1.2
				c0.5-0.2,0.9,0.1,1.1,0.6c1.1,4-1,8.1-4.6,9.3L96.9,140z"/>
			<path class="st1" d="M127,105c-0.4,0-0.7-0.3-0.8-0.7c-2.7-10.5-21.2-9.4-21.2-9.4c-0.2,0-0.5-0.1-0.6-0.2S104,94.3,104,94
				c0-0.2,0.1-0.5,0.2-0.7s0.4-0.3,0.6-0.3c0.8,0,20-1.2,23.1,10.8c0.1,0.5-0.1,1-0.6,1.2H127z"/>
			<path class="st1" d="M36.8,103h-0.4c-0.4-0.2-0.6-0.7-0.4-1.2c0.2-0.4,5.1-10.3,21.1-8.6c0.5,0.1,0.8,0.5,0.8,1
				c0,0.2-0.1,0.4-0.3,0.6s-0.4,0.2-0.6,0.2c-14.8-1.6-19.2,7.1-19.4,7.6C37.5,102.9,37.2,103,36.8,103z"/>
			<path class="st1" d="M134.9,110L134.9,110c-2.1-0.3-4.2-0.7-6.3-1.2c-0.5-0.1-0.7-0.6-0.6-1.1c0.1-0.2,0.2-0.4,0.4-0.5
				s0.4-0.1,0.7-0.1c2,0.5,4,0.9,6,1.2c0.5,0,0.9,0.4,0.9,0.9s-0.4,0.9-0.9,0.9H134.9z"/>
			<path class="st1" d="M27.9,110c-0.5,0-0.9-0.4-0.9-0.9s0.4-0.9,0.9-0.9c2.4-0.5,4.7-1.2,7-2.1c0.4-0.1,0.9,0.1,1.1,0.5
				c0.2,0.4,0,0.9-0.4,1.1c-2.4,1-4.9,1.8-7.5,2.3L27.9,110z"/>
			
				<linearGradient id="SVGID_1_" gradientUnits="userSpaceOnUse" x1="-279.3841" y1="414.6697" x2="-279.5211" y2="415.6695" gradientTransform="matrix(5 0 0 -31 1485 12980.6797)">
				<stop  offset="0" style="stop-color:#161C2D"/>
				<stop  offset="0.33" style="stop-color:#1E2435"/>
				<stop  offset="0.83" style="stop-color:#343A49"/>
				<stop  offset="1" style="stop-color:#3D4352"/>
			</linearGradient>
			<path class="st2" d="M86.1,126l-0.9-21.9l0,0c-0.5-3.2,0.2-6.4,2-9.1l2.9,2.1c-1.3,2-1.7,4.4-1.3,6.8l1,22.1H86.1z"/>
			<path class="st3" d="M127.9,96l-7.7-6c-9.4-1.2-26.3,5.4-26.5,5.5L92,89.9c0.8-0.3,19.1-7.4,29.6-5.7c0.4,0.1,0.8,0.2,1.1,0.5
				l8.2,6.4L127.9,96z"/>
			<path class="st3" d="M74,96c0,0-17.2-6.9-28.9-6.6l-8.2,5.5L34,90.4l8.8-5.9c0.4-0.3,0.9-0.4,1.3-0.4c12.9-0.6,31,6.6,31.8,6.9
				L74,96z"/>
			<path class="st1" d="M53.9,114c-0.5,0-0.9-0.4-0.9-0.9s0.4-0.9,0.9-0.9c3.5-0.7,6.8-2,9.9-4c0.4-0.2,0.9-0.1,1.1,0.3
				c0.2,0.4,0.2,0.9-0.1,1.2c-3.2,2.1-6.7,3.6-10.4,4.3L53.9,114z"/>
			<path class="st0" d="M82.5,163c-2.5,0-4.9-0.6-7.2-1.8c-17.1,1.2-19.1-2-19.3-3c-0.1-0.5,0.1-1,0.6-1.2c0.5-0.2,1,0.1,1.1,0.6
				c0,0.2,2.4,2.7,17.8,1.6c0.1,0,0.3,0,0.5,0c3.9,2.2,8.6,2.2,12.5,0c0.2-0.1,0.3-0.1,0.5,0c4.1,0.2,15.1,0,17.5-2.9
				c0.3-0.4,0.9-0.5,1.2-0.1c0.4,0.3,0.4,0.9,0.1,1.4c-3,4-16,3.8-18.5,3.8C87.2,162.6,84.9,163.1,82.5,163L82.5,163z"/>
			
				<linearGradient id="SVGID_2_" gradientUnits="userSpaceOnUse" x1="-335.4797" y1="399.0411" x2="-336.4501" y2="399.0254" gradientTransform="matrix(56 0 0 -8 18896 3348.24)">
				<stop  offset="0" style="stop-color:#3D4352"/>
				<stop  offset="0.17" style="stop-color:#343A49"/>
				<stop  offset="0.67" style="stop-color:#1E2435"/>
				<stop  offset="1" style="stop-color:#161C2D"/>
			</linearGradient>
			<path class="st4" d="M56,160c-1,0.2-1.9-0.5-2-1.5c-0.2-1,0.5-1.9,1.5-2.1c9-2.8,18.4-4.3,27.8-4.4c8.6-0.3,17.1,0.8,25.4,3.2
				c1,0.3,1.5,1.3,1.2,2.3s-1.3,1.5-2.3,1.2c-7.9-2.2-16.1-3.2-24.3-3c-9,0.1-18,1.5-26.7,4.2L56,160z"/>
			
				<linearGradient id="SVGID_3_" gradientUnits="userSpaceOnUse" x1="-335.8487" y1="415.6681" x2="-336.819" y2="415.6524" gradientTransform="matrix(60 0 0 -34 20262 14305.5195)">
				<stop  offset="0" style="stop-color:#3D4352"/>
				<stop  offset="0.17" style="stop-color:#343A49"/>
				<stop  offset="0.67" style="stop-color:#1E2435"/>
				<stop  offset="1" style="stop-color:#161C2D"/>
			</linearGradient>
			<path class="st5" d="M69.5,190c-1.4,0-2.7-0.4-3.9-1.2c-0.2,0-20.4-13.2-11.2-31.9l3.1,1.6c-7.8,15.8,9.1,26.7,9.9,27.2
				c0.9,0.6,2.1,0.8,3.1,0.5c2.2-0.9,4.1-2.6,5.4-4.7c-2-3.2-2.9-7.1-2.4-10.9l0.2-1.3h1.3c5.8-0.8,11.6-0.9,17.4-0.5h1.5v1.5
				c0.3,3.6-0.5,7.3-2.2,10.4c1.1,2.2,3,3.9,5.3,4.6c1,0.1,2-0.2,2.8-0.9c7.8-6.6,10.7-17.5,7.3-27.2l3.2-1.4
				c4,11.1,0.7,23.6-8.1,31.3c-1.5,1.4-3.6,2.1-5.6,1.8c-3.8-0.9-6.9-3.6-8.5-7.2l-0.6-1.1l0.7-1c1.4-2.2,2.2-4.8,2.2-7.5
				c-4.5-0.2-9.1-0.1-13.6,0.4c-0.1,2.8,0.8,5.4,2.5,7.6l0.8,1l-0.6,1.1c-1.8,3.3-4.7,5.8-8.2,7.2C70.7,189.9,70.1,190,69.5,190
				L69.5,190z"/>
			
				<linearGradient id="SVGID_4_" gradientUnits="userSpaceOnUse" x1="-331.6524" y1="415.9395" x2="-330.682" y2="415.9552" gradientTransform="matrix(30 0 0 -36 10040 15130.0801)">
				<stop  offset="0" style="stop-color:#3D4352"/>
				<stop  offset="0.17" style="stop-color:#343A49"/>
				<stop  offset="0.67" style="stop-color:#1E2435"/>
				<stop  offset="1" style="stop-color:#161C2D"/>
			</linearGradient>
			<path class="st6" d="M115.1,173.9c-0.8,0-1.4-0.5-1.7-1.2c-2.8-8.9,0-11.9,0.5-12.4c1.9-2.1,2.9-4.9,2.7-7.8
				c-0.4-2.6-1.7-5-3.7-6.7c-6.9-2.4-14-3.8-21.2-4.2c-0.9-0.1-1.7-0.9-1.6-1.9c0-0.5,0.2-0.9,0.6-1.3c0.3-0.3,0.8-0.5,1.3-0.5
				c7.7,0.5,15.3,2.1,22.5,4.8l0.4,0.3c2.8,2.3,4.6,5.7,5.2,9.4c0.3,3.9-1,7.8-3.7,10.7c0,0-1.6,2.1,0.4,8.7c0.3,1-0.2,2-1.1,2.3
				L115.1,173.9z"/>
			
				<linearGradient id="SVGID_5_" gradientUnits="userSpaceOnUse" x1="-331.6214" y1="415.9539" x2="-332.5918" y2="415.9382" gradientTransform="matrix(33 0 0 -36 11019 15130.0801)">
				<stop  offset="0" style="stop-color:#3D4352"/>
				<stop  offset="0.17" style="stop-color:#343A49"/>
				<stop  offset="0.67" style="stop-color:#1E2435"/>
				<stop  offset="1" style="stop-color:#161C2D"/>
			</linearGradient>
			<path class="st7" d="M47.5,174c-0.6,0-1.1-0.3-1.5-0.8c-0.3-0.5-0.4-1.1-0.2-1.6c1.2-2.7,1.6-5.6,1.1-8.5
				c-2.6-2.6-4.1-6.2-3.9-9.9c0.4-3.3,2.1-6.2,4.6-8.3c8.2-4.4,17.3-6.7,26.6-6.8c1,0,1.8,0.8,1.8,1.8s-0.8,1.8-1.8,1.8
				c-8.6,0-17.1,2.1-24.8,6.1l0,0c-1.6,1.5-2.7,3.6-3,5.8c0,2.9,1.1,5.6,3.2,7.5c0.1,0.2,0.2,0.3,0.3,0.5c1.1,3.8,0.8,7.9-0.9,11.4
				C48.8,173.6,48.2,174,47.5,174z"/>
			
				<linearGradient id="SVGID_6_" gradientUnits="userSpaceOnUse" x1="-331.6214" y1="417.2368" x2="-332.5918" y2="417.2211" gradientTransform="matrix(33 0 0 -49 11089 20592.7207)">
				<stop  offset="0" style="stop-color:#3D4352"/>
				<stop  offset="0.17" style="stop-color:#343A49"/>
				<stop  offset="0.67" style="stop-color:#1E2435"/>
				<stop  offset="1" style="stop-color:#161C2D"/>
			</linearGradient>
			<path class="st8" d="M114.8,173c-0.6,0-1.2-0.3-1.5-0.9c-0.3-0.5-0.3-1.2,0-1.7c0-0.2,14.9-25.3,29.6-45.7
				c0.6-0.7,1.6-0.9,2.4-0.4c0.8,0.5,1,1.6,0.5,2.3c-14.5,20.4-29.3,45.2-29.4,45.5C116,172.7,115.4,173,114.8,173z"/>
			
				<linearGradient id="SVGID_7_" gradientUnits="userSpaceOnUse" x1="-333.3746" y1="417.2211" x2="-332.4042" y2="417.2368" gradientTransform="matrix(36 0 0 -49 12015 20594.7207)">
				<stop  offset="0" style="stop-color:#3D4352"/>
				<stop  offset="0.17" style="stop-color:#343A49"/>
				<stop  offset="0.67" style="stop-color:#1E2435"/>
				<stop  offset="1" style="stop-color:#161C2D"/>
			</linearGradient>
			<path class="st9" d="M47.2,175c-0.6,0-1.2-0.3-1.5-0.8c-9.7-15.8-20.5-31-32.3-45.3c-0.6-0.7-0.5-1.8,0.2-2.4s1.8-0.5,2.5,0.2
				c11.9,14.5,22.8,29.8,32.7,45.8c0.3,0.5,0.3,1.2,0,1.8C48.5,174.7,47.9,175,47.2,175L47.2,175z"/>
			
				<linearGradient id="SVGID_8_" gradientUnits="userSpaceOnUse" x1="-329.5849" y1="419.654" x2="-329.5692" y2="418.6836" gradientTransform="matrix(26 0 0 -108 8702 45342.2383)">
				<stop  offset="0" style="stop-color:#3D4352"/>
				<stop  offset="0.17" style="stop-color:#343A49"/>
				<stop  offset="0.67" style="stop-color:#1E2435"/>
				<stop  offset="1" style="stop-color:#161C2D"/>
			</linearGradient>
			<path class="st10" d="M142.5,126c0-0.3-4.3-32.2-4.9-62.5c-0.1-16.1-6.5-31.5-17.6-42.9l2.4-2.6c11.9,12,18.7,28.4,18.7,45.5
				c0.7,30,4.9,61.7,4.9,62L142.5,126z"/>
			
				<linearGradient id="SVGID_9_" gradientUnits="userSpaceOnUse" x1="-331.2961" y1="419.2182" x2="-330.3257" y2="419.2339" gradientTransform="matrix(29 0 0 -112 9620 47024.3594)">
				<stop  offset="0" style="stop-color:#3D4352"/>
				<stop  offset="0.17" style="stop-color:#343A49"/>
				<stop  offset="0.67" style="stop-color:#1E2435"/>
				<stop  offset="1" style="stop-color:#161C2D"/>
			</linearGradient>
			<path class="st11" d="M15.6,127l-3.6-0.6c3.2-21,4.7-42.3,4.3-63.6c0.5-18.3,8.6-35.5,22.4-47.8l2.4,2.6
				c-12.8,11.7-20.4,27.9-21.1,45C20.3,84.1,18.9,105.7,15.6,127L15.6,127z"/>
			
				<linearGradient id="SVGID_10_" gradientUnits="userSpaceOnUse" x1="-322.1208" y1="417.3455" x2="-322.1365" y2="418.3159" gradientTransform="matrix(16 0 0 -59 5162 24765.5195)">
				<stop  offset="0" style="stop-color:#3D4352"/>
				<stop  offset="0.17" style="stop-color:#343A49"/>
				<stop  offset="0.67" style="stop-color:#1E2435"/>
				<stop  offset="1" style="stop-color:#161C2D"/>
			</linearGradient>
			<path class="st12" d="M12.5,143c-1.4,0-2.8-0.4-3.9-1.1c-6.1-3.6-9-15.6-8.4-35.6c0-4.8,0-20.9,7.1-22.3l0.8,3.6
				c-2.7,0.6-4.4,10.2-4.2,18.8c-0.7,24.4,3.9,30.8,6.6,32.4c1.2,0.7,2.6,0.8,3.9,0.2l1.8,3.1C14.9,142.7,13.7,143,12.5,143
				L12.5,143z"/>
			
				<linearGradient id="SVGID_11_" gradientUnits="userSpaceOnUse" x1="-320.828" y1="417.2947" x2="-320.8437" y2="418.265" gradientTransform="matrix(15 0 0 -58 4962 24344.2402)">
				<stop  offset="0" style="stop-color:#3D4352"/>
				<stop  offset="0.17" style="stop-color:#343A49"/>
				<stop  offset="0.67" style="stop-color:#1E2435"/>
				<stop  offset="1" style="stop-color:#161C2D"/>
			</linearGradient>
			<path class="st13" d="M145.1,142c-1.1,0-2.2-0.3-3.1-0.9l2.2-2.9c0.6,0.3,1.3,0.3,1.9,0c1.9-1,6.5-6,7.3-31.8
				c0.4-8.6-1.1-18.4-3.7-18.8l0.6-3.5c7,1.2,6.9,17.5,6.6,22.5c-0.7,20.6-3.9,32.4-9.5,35C146.7,141.8,145.9,142,145.1,142z"/>
		</g>
	</g>
</g>
</svg>
