<svg id="Livello_1" data-name="Livello 1" xmlns="http://www.w3.org/2000/svg" xmlns:xlink="http://www.w3.org/1999/xlink" viewBox="0 0 90.88 90.88"><defs><style>.cls-1{fill:#fff;}.cls-2{fill:url(#Sfumatura_senza_nome_10);}.cls-3{fill:#491cde;}.cls-4{fill:#3d4352;}</style><linearGradient id="Sfumatura_senza_nome_10" x1="274.84" y1="1134.01" x2="284.06" y2="1134.01" gradientTransform="matrix(0.38, 0.92, 0.92, -0.38, -1121.18, 232.08)" gradientUnits="userSpaceOnUse"><stop offset="0" stop-color="#3d4352"/><stop offset="0.17" stop-color="#343a49"/><stop offset="0.67" stop-color="#1e2435"/><stop offset="1" stop-color="#161c2d"/></linearGradient></defs><title>Alessio_2</title><path class="cls-1" d="M49.46,73.86a11.94,11.94,0,0,1-1.21-.07c-6-.61-10.88-1.93-18-6.82a10.36,10.36,0,0,1-2.78-3.46,22.85,22.85,0,0,1-1.52-6l-.11-1,2-.22.11,1a21.19,21.19,0,0,0,1.33,5.39,8.29,8.29,0,0,0,2.18,2.74c6.7,4.59,11.31,5.84,17,6.42a4.93,4.93,0,0,0,3.16-.47L52,71.1a4.78,4.78,0,0,0,1-.74l.25-.23a23.37,23.37,0,0,0,2.09-2.29,11,11,0,0,0,1.56-2.2,10.86,10.86,0,0,0,.69-2.72l.1-.52c.43-2.29,1.09-4.55,1.73-6.73l.18-.61A7.26,7.26,0,0,0,60,50.92c-.06-.18-.13-.36-.2-.54a6.84,6.84,0,0,1-.35-1,5.91,5.91,0,0,1,.3-2.24,22.51,22.51,0,0,0,.68-4.63,18.9,18.9,0,0,0-3.74-10.33l-.61-.79,1.59-1.22.61.79a20.61,20.61,0,0,1,4.15,11.51,23.88,23.88,0,0,1-.73,5.08c-.12.54-.26,1.21-.29,1.45a6,6,0,0,0,.23.64c.09.23.18.46.26.69a8.93,8.93,0,0,1-.4,5.23l-.18.61c-.63,2.13-1.27,4.34-1.69,6.54l-.09.5a12.52,12.52,0,0,1-.89,3.21A12.66,12.66,0,0,1,56.87,69a25,25,0,0,1-2.27,2.49l-.24.22a6.57,6.57,0,0,1-1.27,1l-.48.31-.14.07A6.73,6.73,0,0,1,49.46,73.86Z"/><path class="cls-2" d="M34.79,59.92h-.71l-.25-.67.15-.14a16.17,16.17,0,0,0-2.21-7,.59.59,0,0,1,0-.72l.25-.28.71.3v.38A17.18,17.18,0,0,1,35,59.4v.13Zm-2.16-8.36"/><path class="cls-3" d="M59,48.1l-.22-.3A5,5,0,0,0,56.26,46a2.72,2.72,0,0,0-1.09-.13,1.24,1.24,0,0,0-.83.39l-.24.29-.55-.49.24-.29a2,2,0,0,1,1.34-.66,3.53,3.53,0,0,1,1.38.17,5.73,5.73,0,0,1,2.92,2l.23.3Z"/><path class="cls-4" d="M59,47.11a.12.12,0,0,1-.09,0A10,10,0,0,0,57,45.47a3.91,3.91,0,0,0-2.38-.67.12.12,0,0,1-.14-.1h0a.13.13,0,0,1,.11-.14,4.21,4.21,0,0,1,2.54.71,10.24,10.24,0,0,1,1.9,1.66.12.12,0,0,1-.09.21Z"/><path class="cls-3" d="M46,45.11l-.27-.26a5.49,5.49,0,0,0-2.1-1.39,3.84,3.84,0,0,0-2-.09,8,8,0,0,0-1.06.35,5.52,5.52,0,0,1-1.87.46h-.37v-.76h.38A4.87,4.87,0,0,0,40.34,43a8.86,8.86,0,0,1,1.16-.38,4.61,4.61,0,0,1,2.42.11,6.2,6.2,0,0,1,2.39,1.57l.27.26Z"/><path class="cls-4" d="M43.2,45.25a7.76,7.76,0,0,1-2.93-.58H40.2a2.42,2.42,0,0,0-.44-.15.25.25,0,0,1,.09-.49,2.78,2.78,0,0,1,.54.18h.07a7.25,7.25,0,0,0,3.62.49.25.25,0,0,1,.28.22h0a.25.25,0,0,1-.22.28h0A7.67,7.67,0,0,1,43.2,45.25Z"/><path class="cls-4" d="M38.45,42.63a.13.13,0,0,1,0-.25h0c.4-.11.8-.25,1.19-.39l.67-.27a7.29,7.29,0,0,1,3-.74,3.63,3.63,0,0,1,2.08.79.13.13,0,0,1-.16.2,3.38,3.38,0,0,0-1.94-.74h-.17a7.43,7.43,0,0,0-2.73.73l-.68.27c-.4.15-.8.28-1.21.4Z"/><path class="cls-4" d="M58.48,47.49H56.89a.25.25,0,0,1-.25-.25.27.27,0,0,1,.25-.25h1.59a.25.25,0,0,1,0,.5Z"/><path class="cls-3" d="M21.95,59.09l-.33-.95a42.36,42.36,0,0,1-1.34-20.35C20.39,37.21,23.09,23,35,19.1c13.66-4.49,27.21-.33,27.79-.15a1,1,0,0,1-.23,2,11.53,11.53,0,0,0-3.84,1c10.87,2.22,12.42,9.82,12.48,10.16a1,1,0,0,1-1.46,1.06,9.12,9.12,0,0,0-3-1,11.64,11.64,0,0,1,0,10l-.4.92-1.84-.79.4-.92c2.43-5.63-.65-9.43-.68-9.47a1,1,0,0,1,.47-1.59,6.7,6.7,0,0,1,3.7.12c-1.25-2.32-4.43-6-12.16-6.94A1,1,0,0,1,55.55,22a5.71,5.71,0,0,1,2.67-2.06c-5-.91-13.84-1.79-22.55,1.07-10.84,3.56-13.4,17-13.43,17.17A40.2,40.2,0,0,0,23.55,57.5l.33.95Z"/><path class="cls-1" d="M48.62,42.08l-.42-.27S45.37,40,42.82,38.75a6.29,6.29,0,0,0-4.74-.35l-.23-.48-.16-.47a7.33,7.33,0,0,1,5.56.38c2.61,1.27,5.46,3.09,5.49,3.11l.42.27Z"/><path class="cls-1" d="M55.43,41.61a6.6,6.6,0,0,1,3-.18,3.67,3.67,0,0,1,2.48,1.85,3.18,3.18,0,0,1-2.13.2c-.71-.14-1.4-.41-2.11-.55a9.72,9.72,0,0,0-1.44-.17c-.22,0-1.1.12-1.25-.08C53.45,42,55.2,41.67,55.43,41.61Z"/></svg>