<svg id="Livello_1" data-name="Livello 1" xmlns="http://www.w3.org/2000/svg" xmlns:xlink="http://www.w3.org/1999/xlink" viewBox="0 0 220 247"><defs><style>.cls-1{fill:#491cde;}.cls-2{fill:#3d4352;}.cls-3{fill:#fff;}.cls-4{fill:url(#Sfumatura_senza_nome_10);}.cls-5{fill:url(#Sfumatura_senza_nome_10-2);}</style><linearGradient id="Sfumatura_senza_nome_10" x1="-837.31" y1="417.35" x2="-837.32" y2="418.32" gradientTransform="matrix(16, 0, 0, -59, 13437, 24765.52)" gradientUnits="userSpaceOnUse"><stop offset="0" stop-color="#3d4352"/><stop offset="0.17" stop-color="#343a49"/><stop offset="0.67" stop-color="#1e2435"/><stop offset="1" stop-color="#161c2d"/></linearGradient><linearGradient id="Sfumatura_senza_nome_10-2" x1="-833.58" y1="417.29" x2="-833.6" y2="418.27" gradientTransform="matrix(15, 0, 0, -58, 12685.33, 24344.24)" xlink:href="#Sfumatura_senza_nome_10"/></defs><title>Tavola disegno 3</title><g id="Symbols"><g id="Alessandro"><g id="Shape"><path class="cls-1" d="M155.7,105a1.35,1.35,0,0,1-1-.42,17.25,17.25,0,0,0-13-7,13.56,13.56,0,0,0-9.22,5.07,1.35,1.35,0,0,1-2.44-.13,1.32,1.32,0,0,1,.28-1.41A16.15,16.15,0,0,1,141.57,95a19.74,19.74,0,0,1,15,7.73,1.28,1.28,0,0,1,.27,1.44,1.31,1.31,0,0,1-1.25.77Z"/><path class="cls-2" d="M144.11,106a26.7,26.7,0,0,1-7.5-1.11,1,1,0,0,1-.58-1.19,1,1,0,0,1,.47-.72.77.77,0,0,1,.79,0s8.86,2.8,14.35-.81a.77.77,0,0,1,.9-.07,1,1,0,0,1,.45.88,1,1,0,0,1-.5.84,14.85,14.85,0,0,1-8.39,2.15Z"/><path class="cls-1" d="M71.16,104a1.34,1.34,0,0,1-1.09-.9,1.3,1.3,0,0,1,.35-1.36A22.91,22.91,0,0,1,87.17,95a16.41,16.41,0,0,1,10.63,5.45,1.3,1.3,0,0,1-.31,1.72,1.37,1.37,0,0,1-1.78-.09,13.92,13.92,0,0,0-8.93-4.48A20.4,20.4,0,0,0,72,103.72a1.33,1.33,0,0,1-.89.28Z"/><path class="cls-2" d="M83.8,106a19.14,19.14,0,0,1-9.23-2.2A.93.93,0,0,1,74,103a1,1,0,0,1,.43-.88.84.84,0,0,1,.94,0,21.23,21.23,0,0,0,13.55,1.45.88.88,0,0,1,1.05.71.94.94,0,0,1-.67,1.12,24.55,24.55,0,0,1-5.51.56Z"/><path class="cls-2" d="M159,105a.89.89,0,0,1-.85-.68C155.41,93.82,137,94.91,137,94.91a.85.85,0,0,1-.65-.22A1,1,0,0,1,136,94a1,1,0,0,1,.21-.69.87.87,0,0,1,.6-.33c.81,0,20-1.17,23.15,10.8a1,1,0,0,1-.6,1.17Z"/><path class="cls-2" d="M68.85,103h-.38a.9.9,0,0,1-.38-1.17c.21-.43,5.1-10.31,21.15-8.64a.88.88,0,0,1,.76,1,.86.86,0,0,1-.3.6.82.82,0,0,1-.63.18c-14.77-1.56-19.24,7.11-19.41,7.64A.86.86,0,0,1,68.85,103Z"/><path class="cls-2" d="M166.93,110h0a40.73,40.73,0,0,1-6.29-1.25.89.89,0,0,1,.5-1.71,40.48,40.48,0,0,0,6,1.18.89.89,0,0,1,0,1.79Z"/><path class="cls-2" d="M59.87,110a.91.91,0,0,1,0-1.82,37.4,37.4,0,0,0,7-2.14.87.87,0,0,1,1.06.52.92.92,0,0,1-.4,1.15A38.38,38.38,0,0,1,60.08,110Z"/><path class="cls-3" d="M159.95,96l-7.7-6c-9.44-1.17-26.3,5.39-26.47,5.47L124,89.94c.78-.31,19.06-7.42,29.63-5.67a2.57,2.57,0,0,1,1.14.51L163,91.23Z"/><path class="cls-3" d="M106,96s-17.23-6.85-28.91-6.56L68.9,94.91,66,90.38l8.81-5.91A2.57,2.57,0,0,1,76.16,84c12.91-.58,31,6.64,31.84,6.93Z"/><path class="cls-2" d="M85.87,114a.94.94,0,0,1,0-1.88,27.46,27.46,0,0,0,9.86-4,.83.83,0,0,1,1.12.3,1,1,0,0,1-.15,1.24A28.55,28.55,0,0,1,86.25,114Z"/><path class="cls-1" d="M114.55,163a16.72,16.72,0,0,1-7.19-1.75c-17.08,1.18-19.1-2-19.31-3a1,1,0,0,1,.58-1.2.87.87,0,0,1,1.1.63c0,.23,2.41,2.74,17.78,1.64a.8.8,0,0,1,.45,0,13,13,0,0,0,12.54,0,.8.8,0,0,1,.49,0c4.09.19,15.12,0,17.46-2.93a.83.83,0,0,1,1.24-.13,1,1,0,0,1,.12,1.35c-3,4-16,3.81-18.51,3.81a11.79,11.79,0,0,1-6.74,1.6Z"/><path class="cls-4" d="M44.46,143a7.75,7.75,0,0,1-3.95-1.1c-6.14-3.56-9-15.56-8.44-35.61,0-4.81,0-20.87,7.09-22.29l.77,3.56c-2.74.57-4.39,10.18-4.2,18.84-.66,24.35,3.87,30.8,6.61,32.44a4.11,4.11,0,0,0,3.87.25l1.79,3.1a7.88,7.88,0,0,1-3.54.82Z"/><path class="cls-5" d="M177.1,142a5.49,5.49,0,0,1-3.1-.92l2.15-2.86a1.88,1.88,0,0,0,1.86,0c1.93-1,6.5-6,7.3-31.83.37-8.56-1.06-18.43-3.65-18.85l.62-3.54c7,1.17,6.86,17.47,6.64,22.46-.69,20.62-3.91,32.39-9.49,35A5.73,5.73,0,0,1,177.1,142Z"/></g></g></g></svg>