<svg id="Livello_1" data-name="Livello 1" xmlns="http://www.w3.org/2000/svg" viewBox="0 0 220 247"><defs><style>.cls-1{fill:#491cde;}.cls-2{fill:#fff;}</style></defs><title>Tavola disegno 1</title><g id="Symbols"><g id="Alessandro"><g id="Shape"><path class="cls-1" d="M113.68,216A63.17,63.17,0,0,1,67.6,198.4C41.9,173,41.76,130.12,41.76,128.19a137.87,137.87,0,0,0-4-29.84L37,94.83l6.83-1.65.81,3.51a142.17,142.17,0,0,1,4.13,31.6c0,.39.18,41.78,23.77,64.95,11,10.78,25.45,16,42.92,15.66,2.1,0,52-2.7,57.59-83.77,1.12-16.5,3.5-32.33,3.5-32.51,4.87-41.11-25.77-69.76-26.08-70.07l-2.59-2.35,4.73-5.2,2.59,2.39c1.37,1.26,33.61,31.6,28.18,76.15,0,.21-2.21,15.83-3.33,32.09-6,87.7-63.83,90.33-64.28,90.33Z"/><path class="cls-1" d="M41,112,40,108.46c-9-32.58-1.19-56.2,7-70.32A74.68,74.68,0,0,1,67.4,15l2.92-2L74,18.94l-2.92,2c-1.65,1.13-40.4,28.3-24.59,85.74l.95,3.54Z"/><path class="cls-2" d="M47,83.82V60A57.51,57.51,0,0,1,60.43,23.34l4.29-4.67.24-.25A75.35,75.35,0,0,1,111.74,0c26.89-.64,46.95,19,47.79,19.89L162,22.38l-4.88,5-2.48-2.48c-.17-.18-18.87-18.47-42.83-17.7a70,70,0,0,0-42.1,16.53l-4,4.42A51.09,51.09,0,0,0,54,60V84Z"/></g></g></g></svg>