<svg id="Livello_1" data-name="Livello 1" xmlns="http://www.w3.org/2000/svg" xmlns:xlink="http://www.w3.org/1999/xlink" viewBox="0 0 90.88 90.88"><defs><style>.cls-1{fill:url(#Sfumatura_senza_nome);}.cls-2{fill:url(#Sfumatura_senza_nome_10);}</style><linearGradient id="Sfumatura_senza_nome" x1="20.39" y1="-200.2" x2="27.97" y2="-200.2" gradientTransform="matrix(1, 0, 0, -1, 0, -149.01)" gradientUnits="userSpaceOnUse"><stop offset="0" stop-color="#161c2d"/><stop offset="0.33" stop-color="#1e2435"/><stop offset="0.83" stop-color="#343a49"/><stop offset="1" stop-color="#3d4352"/></linearGradient><linearGradient id="Sfumatura_senza_nome_10" x1="22.31" y1="-187.45" x2="53.95" y2="-187.45" gradientTransform="matrix(1, 0, 0, -1, 0, -149.01)" gradientUnits="userSpaceOnUse"><stop offset="0" stop-color="#3d4352"/><stop offset="0.17" stop-color="#343a49"/><stop offset="0.67" stop-color="#1e2435"/><stop offset="1" stop-color="#161c2d"/></linearGradient></defs><title>Alessio_1</title><path class="cls-1" d="M27.55,55.92A6.23,6.23,0,0,1,21.41,51a21.93,21.93,0,0,1-1-4.44l1-.12a21.54,21.54,0,0,0,1,4.24c1.31,4.66,5.28,4.22,5.44,4.22l.12,1Z"/><path class="cls-2" d="M27.16,49.92h0a1.87,1.87,0,0,1-1.78-1.56,1.2,1.2,0,0,0-1.07-.94l-1-.17-1-.17.18-1,1,.17,1,.17a2.19,2.19,0,0,1,1.89,1.73.88.88,0,0,0,.82.76.8.8,0,0,0,.93-1c0-5.32,1.3-7.79,3.22-9.86.88-.95,1-2.68,1.22-4.36s.35-3.45,1.31-4.43C38.11,25,49.24,27.5,54,30.07l-.47.88c-4.43-2.37-15.13-4.86-19-1-.72.73-.87,2.24-1,3.83-.19,1.84-.38,3.74-1.48,4.94-1.76,1.9-2.93,4.19-3,9.18a2,2,0,0,1-.52,1.51A1.91,1.91,0,0,1,27.16,49.92Z"/></svg>