<svg id="Livello_1" data-name="Livello 1" xmlns="http://www.w3.org/2000/svg" viewBox="0 0 90.88 90.88"><defs><style>.cls-1{fill:#491cde;}.cls-2{fill:#fff;}.cls-3{fill:#3d4352;}</style></defs><title>Alessandro_2</title><path class="cls-1" d="M46.52,76.15a18.07,18.07,0,0,1-13.16-5C26,63.91,26,51.7,26,51.15a39.17,39.17,0,0,0-1.13-8.5l-.23-1,2-.47.23,1a40.39,40.39,0,0,1,1.18,9c0,.11,0,11.9,6.79,18.5C37.9,72.75,42,74.24,47,74.14c.6,0,14.86-.77,16.45-23.86.32-4.7,1-9.21,1-9.26,1.39-11.71-7.36-19.87-7.45-20l-.74-.67,1.35-1.48.74.68c.39.36,9.6,9,8.05,21.69,0,.06-.63,4.51-.95,9.14-1.72,25-18.23,25.73-18.36,25.73Z"/><path class="cls-1" d="M25.72,46.15l-.27-1c-2.57-9.21-.34-15.89,2-19.88a21.16,21.16,0,0,1,5.79-6.55l.83-.56,1,1.68-.83.56c-.47.32-11.5,8-7,24.24l.27,1Z"/><path class="cls-2" d="M27.23,38.39V31.66A16.11,16.11,0,0,1,31.08,21.3L32.31,20l.07-.07a21.78,21.78,0,0,1,13.41-5.2c7.71-.18,13.46,5.38,13.7,5.62l.71.7-1.4,1.42-.71-.7c-.05,0-5.41-5.22-12.28-5a20.22,20.22,0,0,0-12.07,4.67l-1.16,1.25a14.31,14.31,0,0,0-3.35,9v6.77Z"/><path class="cls-1" d="M58.23,44.7a.38.38,0,0,1-.28-.12,4.87,4.87,0,0,0-3.67-2A3.83,3.83,0,0,0,51.67,44a.38.38,0,0,1-.67-.35l.06-.09a4.56,4.56,0,0,1,3.17-1.75,5.57,5.57,0,0,1,4.26,2.21.37.37,0,0,1-.28.63Z"/><path class="cls-3" d="M55.12,44.53a8.75,8.75,0,0,1-2.2-.29.27.27,0,0,1,.11-.52l.09,0s2.6.73,4.21-.21a.25.25,0,0,1,.29.4l0,0A4.79,4.79,0,0,1,55.12,44.53Z"/><path class="cls-1" d="M34.33,44.4a.38.38,0,0,1-.21-.65,6.4,6.4,0,0,1,4.73-1.94,4.6,4.6,0,0,1,3,1.57.38.38,0,0,1-.59.47,3.9,3.9,0,0,0-2.52-1.29,5.7,5.7,0,0,0-4.16,1.76A.37.37,0,0,1,34.33,44.4Z"/><path class="cls-3" d="M37.75,44.51a5.72,5.72,0,0,1-2.63-.59.25.25,0,1,1,.18-.47l.05,0a6.38,6.38,0,0,0,3.86.39.25.25,0,0,1,.11.49A7.4,7.4,0,0,1,37.75,44.51Z"/><path class="cls-3" d="M59.26,44.55a.25.25,0,0,1-.24-.18c-.77-2.79-6-2.5-6-2.5a.25.25,0,0,1-.27-.23h0a.25.25,0,0,1,.23-.27h0c.23,0,5.68-.31,6.56,2.87a.25.25,0,0,1-.17.31Z"/><path class="cls-3" d="M33.59,44h-.11a.25.25,0,0,1-.11-.33c.06-.12,1.47-2.9,6.1-2.43a.25.25,0,0,1,.22.27.24.24,0,0,1-.26.22h0c-4.26-.44-5.55,2-5.6,2.15A.25.25,0,0,1,33.59,44Z"/><path class="cls-3" d="M61.52,45.58h0a11.5,11.5,0,0,1-1.77-.35.25.25,0,0,1,.14-.48,11.43,11.43,0,0,0,1.68.33.25.25,0,0,1,0,.5Z"/><path class="cls-3" d="M31.12,45.73a.25.25,0,0,1,0-.5,11,11,0,0,0,2-.59.25.25,0,0,1,.19.46,11.29,11.29,0,0,1-2.13.62Z"/><path class="cls-3" d="M38.65,46.61a.25.25,0,0,1,0-.5A8.24,8.24,0,0,0,41.48,45a.25.25,0,0,1,.28.41,8.56,8.56,0,0,1-3,1.15Z"/></svg>