<svg id="Livello_1" data-name="Livello 1" xmlns="http://www.w3.org/2000/svg" viewBox="0 0 90.88 90.88"><defs><style>.cls-1{fill:#491cde;}.cls-2{fill:#fff;}</style></defs><title>Alessandro_1</title><path class="cls-1" d="M46.52,76.15a18.07,18.07,0,0,1-13.16-5C26,63.91,26,51.7,26,51.15a39.17,39.17,0,0,0-1.13-8.5l-.23-1,2-.47.23,1a40.39,40.39,0,0,1,1.18,9c0,.11,0,11.9,6.79,18.5C37.9,72.75,42,74.24,47,74.14c.6,0,14.86-.77,16.45-23.86.32-4.7,1-9.21,1-9.26,1.39-11.71-7.36-19.87-7.45-20l-.74-.67,1.35-1.48.74.68c.39.36,9.6,9,8.05,21.69,0,.06-.63,4.51-.95,9.14-1.72,25-18.23,25.73-18.36,25.73Z"/><path class="cls-1" d="M25.72,46.15l-.27-1c-2.57-9.21-.34-15.89,2-19.88a21.16,21.16,0,0,1,5.79-6.55l.83-.56,1,1.68-.83.56c-.47.32-11.5,8-7,24.24l.27,1Z"/><path class="cls-2" d="M27.23,38.39V31.66A16.11,16.11,0,0,1,31.08,21.3L32.31,20l.07-.07a21.78,21.78,0,0,1,13.41-5.2c7.71-.18,13.46,5.38,13.7,5.62l.71.7-1.4,1.42-.71-.7c-.05,0-5.41-5.22-12.28-5a20.22,20.22,0,0,0-12.07,4.67l-1.16,1.25a14.31,14.31,0,0,0-3.35,9v6.77Z"/></svg>