<svg id="Livello_1" data-name="Livello 1" xmlns="http://www.w3.org/2000/svg" xmlns:xlink="http://www.w3.org/1999/xlink" viewBox="0 0 90.88 90.88"><defs><style>.cls-1{fill:url(#Sfumatura_senza_nome);}.cls-2{fill:#491cde;}.cls-3{fill:#fff;}.cls-4{fill:url(#Sfumatura_senza_nome-2);}.cls-5{fill:url(#Sfumatura_senza_nome_10);}.cls-6{fill:url(#Sfumatura_senza_nome-3);}.cls-7{fill:url(#Sfumatura_senza_nome_10-2);}.cls-8{fill:#3d4352;}.cls-9{fill:url(#Sfumatura_senza_nome-4);}.cls-10{fill:url(#Sfumatura_senza_nome_10-3);}</style><linearGradient id="Sfumatura_senza_nome" x1="24.76" y1="-431.21" x2="58.78" y2="-431.21" gradientTransform="matrix(1, 0, 0, -1, 0, -389.93)" gradientUnits="userSpaceOnUse"><stop offset="0" stop-color="#161c2d"/><stop offset="0.33" stop-color="#1e2435"/><stop offset="0.83" stop-color="#343a49"/><stop offset="1" stop-color="#3d4352"/></linearGradient><linearGradient id="Sfumatura_senza_nome-2" x1="45.81" y1="-431.11" x2="50.53" y2="-431.11" xlink:href="#Sfumatura_senza_nome"/><linearGradient id="Sfumatura_senza_nome_10" x1="26.93" y1="-433.36" x2="29" y2="-433.36" gradientTransform="matrix(1, 0, 0, -1, 0, -389.93)" gradientUnits="userSpaceOnUse"><stop offset="0" stop-color="#3d4352"/><stop offset="0.17" stop-color="#343a49"/><stop offset="0.67" stop-color="#1e2435"/><stop offset="1" stop-color="#161c2d"/></linearGradient><linearGradient id="Sfumatura_senza_nome-3" x1="27.88" y1="-432.23" x2="34.17" y2="-432.23" xlink:href="#Sfumatura_senza_nome"/><linearGradient id="Sfumatura_senza_nome_10-2" x1="40.71" y1="-430.88" x2="44.99" y2="-430.88" xlink:href="#Sfumatura_senza_nome_10"/><linearGradient id="Sfumatura_senza_nome-4" x1="29.93" y1="-436.11" x2="33.07" y2="-436.11" xlink:href="#Sfumatura_senza_nome"/><linearGradient id="Sfumatura_senza_nome_10-3" x1="41.99" y1="-434.88" x2="44.68" y2="-434.88" xlink:href="#Sfumatura_senza_nome_10"/></defs><title>Angelo_2</title><path class="cls-1" d="M29.53,62.27a1.31,1.31,0,0,1-1-.5c-1.62-2-3.48-6.58-3.17-16.56,0,0-.14-1.43-.34-3.79-.07-.47-1.74-12.33,5.19-18l.18-.15h.23A31.37,31.37,0,0,0,47.3,20.88a7.44,7.44,0,0,1,2.31-.56,6.11,6.11,0,0,1,6.44,4.93c.42,2.3,0,5.19-1.36,8.59a15.59,15.59,0,0,1,4.08,9.63c.29,5.15-.74,12.08-7.27,15.88a4.25,4.25,0,0,1-1,.42,3.27,3.27,0,0,1-3.16-.85c-.84-.84-2.83-2.33-6.67-2.85a6,6,0,0,0-2.44.34,7.64,7.64,0,0,1-2.23.31,3.12,3.12,0,0,0-2.16.45,13.56,13.56,0,0,0-2.3,2.37,2.87,2.87,0,0,0-.4.95,5.23,5.23,0,0,1-.38,1,1.33,1.33,0,0,1-1.06.72Zm1.1-37.93C24.34,29.72,26,41.19,26,41.34c.21,2.43.35,3.87.35,3.87-.32,10.25,1.72,14.41,3,16h0a.31.31,0,0,0,.28.12.33.33,0,0,0,.27-.18,4.24,4.24,0,0,0,.31-.84,3.76,3.76,0,0,1,.54-1.25,14.23,14.23,0,0,1,2.47-2.56A4,4,0,0,1,36,55.76a6.56,6.56,0,0,0,1.94-.27,6.72,6.72,0,0,1,2.84-.37c4.13.56,6.31,2.2,7.24,3.13a2.27,2.27,0,0,0,2.19.59,3.24,3.24,0,0,0,.79-.32c6.09-3.54,7-10.09,6.77-15a14.61,14.61,0,0,0-4-9.23l-.22-.23.12-.3c1.34-3.35,1.82-6.15,1.42-8.33a5.1,5.1,0,0,0-5.37-4.11,6.57,6.57,0,0,0-2,.49,32.22,32.22,0,0,1-17.06,2.52Z"/><path class="cls-2" d="M63.63,40.82v-1c0-.13-.09-3.12.21-6.9.55-7-1.47-11.38-5.84-12.8a6.33,6.33,0,0,1-1.63-.85,19.5,19.5,0,0,0-7.07-3.1,22,22,0,0,0-9.61-.07c-1.83.48-2.75.37-3.37,0-6.65,3.21-6.39,6.76-6.39,6.8a1,1,0,0,1-.23.77C25,29.1,25.9,37.76,25.91,37.9l.11,1-2,.23-.11-1c0-.39-1-9.38,4-15.5.06-1.37.89-5.31,8-8.56a1.22,1.22,0,0,1,1.46.28s.4.2,1.83-.18a24,24,0,0,1,10.53,0,21.5,21.5,0,0,1,7.79,3.41,4.46,4.46,0,0,0,1.12.6c3.05,1,8.05,4.24,7.22,14.86-.29,3.68-.2,6.65-.2,6.68v1Z"/><path class="cls-2" d="M40.69,77.3q-.75,0-1.5-.05h-.14c-3.5-.24-8-2.12-9.58-5.66a102.79,102.79,0,0,1-4.34-12.45l-.27-1,1.93-.53.27,1a103,103,0,0,0,4.22,12.15c1.19,2.64,5,4.28,7.9,4.49h.14A18.61,18.61,0,0,0,55,68.76c2.43-2.92,4-7.44,4.47-12.71a26.91,26.91,0,0,0-.14-5.29c-.4-3.57-.41-8.32,1.77-10.63a4.23,4.23,0,0,1,3.47-1.37l1,0-.11,2-1-.06a2.29,2.29,0,0,0-1.9.7c-1.26,1.33-1.72,4.71-1.24,9a28.83,28.83,0,0,1,.15,5.72c-.5,5.75-2.2,10.53-4.92,13.81A20.5,20.5,0,0,1,40.69,77.3Z"/><path class="cls-3" d="M25.74,60.13a32.45,32.45,0,0,1-1.66-13.56,5.66,5.66,0,0,1,.17-1,9,9,0,0,0,.24-2.42C22,28.36,27.64,23,27.83,22.82l1.35,1.47-.68-.74.68.73s-5,4.93-2.78,18.51a9.93,9.93,0,0,1-.24,3.1c-.06.34-.12.65-.15.93-.27,2-.42,6.41,1.59,12.69Z"/><path class="cls-4" d="M50.19,42.48a12,12,0,0,0-2-1.43,5.85,5.85,0,0,0-2.36-.66v-.5a6.33,6.33,0,0,1,2.59.72,12.34,12.34,0,0,1,2.09,1.5Z"/><path class="cls-5" d="M27,44.94a3,3,0,0,1,1.87-3l.18.46a2.45,2.45,0,0,0-1.55,2.5Z"/><path class="cls-6" d="M33.68,43.56s-.35-2.14-5.79-2v-.5c5.92-.14,6.28,2.34,6.29,2.45Z"/><path class="cls-7" d="M41.21,42.84h-.5s.29-3.16,4.2-3.77l.08.49C41.48,40.07,41.22,42.76,41.21,42.84Z"/><path class="cls-8" d="M45,44.22a8.1,8.1,0,0,1-2.65-.46.25.25,0,0,1,.18-.46s3.94,1.51,5.91-1.15a.25.25,0,1,1,.4.3A4.57,4.57,0,0,1,45,44.22Z"/><path class="cls-9" d="M30.14,47.22l-.21-.46a21.13,21.13,0,0,0,2.84-1.6l.29.41A21.29,21.29,0,0,1,30.14,47.22Z"/><path class="cls-2" d="M41.31,43.9h-.12a.37.37,0,0,1-.24-.46h0c0-.09.71-2.12,3.76-2.39a8.71,8.71,0,0,1,5,1.5.38.38,0,1,1-.35.67l-.1-.07a8,8,0,0,0-4.5-1.38c-2.51.22-3.07,1.8-3.09,1.87A.38.38,0,0,1,41.31,43.9Z"/><path class="cls-2" d="M27.63,45.52h-.09a.37.37,0,0,1-.28-.44h0c.64-2.65,4-2.6,4.08-2.61a3.91,3.91,0,0,1,2.74,1.4.37.37,0,1,1-.6.45,3.19,3.19,0,0,0-2.17-1.1s-2.83,0-3.32,2A.37.37,0,0,1,27.63,45.52Z"/><path class="cls-8" d="M29,45.76a4.35,4.35,0,0,1-.78-.07.25.25,0,1,1,.09-.49A5.8,5.8,0,0,0,30.74,45l.69-.23a13.18,13.18,0,0,1,1.88-.43.26.26,0,0,1,.28.22.25.25,0,0,1-.22.28h0a12.76,12.76,0,0,0-1.8.42l-.7.19A7.68,7.68,0,0,1,29,45.76Z"/><path class="cls-10" d="M44.65,45.58A5.6,5.6,0,0,1,42,44.76l.26-.42a5.09,5.09,0,0,0,2.42.76Z"/></svg>