<svg id="Livello_1" data-name="Livello 1" xmlns="http://www.w3.org/2000/svg" xmlns:xlink="http://www.w3.org/1999/xlink" viewBox="0 0 90.88 90.88"><defs><style>.cls-1{fill:#3d4352;}.cls-2{fill:#fff;}.cls-3{fill:url(#Sfumatura_senza_nome_10);}.cls-4{fill:url(#Sfumatura_senza_nome_10-2);}.cls-5{fill:url(#Sfumatura_senza_nome);}.cls-6{fill:url(#Sfumatura_senza_nome_10-3);}.cls-7{fill:#491cde;}</style><linearGradient id="Sfumatura_senza_nome_10" x1="31.7" y1="-439.4" x2="34.72" y2="-439.4" gradientTransform="matrix(1, 0, 0, -1, 0, -389.93)" gradientUnits="userSpaceOnUse"><stop offset="0" stop-color="#3d4352"/><stop offset="0.17" stop-color="#343a49"/><stop offset="0.67" stop-color="#1e2435"/><stop offset="1" stop-color="#161c2d"/></linearGradient><linearGradient id="Sfumatura_senza_nome_10-2" x1="33.38" y1="-444.73" x2="34.8" y2="-444.73" xlink:href="#Sfumatura_senza_nome_10"/><linearGradient id="Sfumatura_senza_nome" x1="39.4" y1="-457.02" x2="39.4" y2="-449.56" gradientTransform="matrix(1, 0, 0, -1, 0, -389.93)" gradientUnits="userSpaceOnUse"><stop offset="0" stop-color="#161c2d"/><stop offset="0.33" stop-color="#1e2435"/><stop offset="0.83" stop-color="#343a49"/><stop offset="1" stop-color="#3d4352"/></linearGradient><linearGradient id="Sfumatura_senza_nome_10-3" x1="33.22" y1="-449.78" x2="44.83" y2="-449.78" xlink:href="#Sfumatura_senza_nome_10"/></defs><title>Angelo_3</title><path class="cls-1" d="M39,40.64H39a2.58,2.58,0,0,1-1-.43,1.47,1.47,0,0,1-.6-1,.25.25,0,0,1,.22-.27.24.24,0,0,1,.27.21h0a1,1,0,0,0,.41.66,2.07,2.07,0,0,0,.82.34.25.25,0,0,1-.05.49Z"/><path class="cls-2" d="M52.15,41.41a6.58,6.58,0,0,0-1.32-.78,9.8,9.8,0,0,0-5.23-.8,52.46,52.46,0,0,1-6.77.43v-1.5a50.85,50.85,0,0,0,6.48-.42,11.31,11.31,0,0,1,6,.92,8.08,8.08,0,0,1,1.68,1Z"/><path class="cls-2" d="M25.89,43.34l-1.23-.85a4.17,4.17,0,0,1,2.87-1.85,26.2,26.2,0,0,0,5.25-.82l.28-.07.34,1.46-.28.06a27.6,27.6,0,0,1-5.49.86A2.71,2.71,0,0,0,25.89,43.34Z"/><path class="cls-3" d="M33.26,55.59a1.69,1.69,0,0,1-1.2-.83c-.73-1.17-.16-3.16-.1-3.39,0,0,1.3-5.73,1.77-8l1,.21c-.48,2.27-1.79,8-1.79,8a4.14,4.14,0,0,0,0,2.61.69.69,0,0,0,.51.33Z"/><path class="cls-1" d="M36.83,54.66a.25.25,0,0,1-.19-.41s.85-1,3.14-.43a2.41,2.41,0,0,0,1.59-.06.66.66,0,0,0,.31-.43,2.13,2.13,0,0,0-.85-2.12.25.25,0,0,1,.28-.42l0,0a2.63,2.63,0,0,1,1,2.63,1.15,1.15,0,0,1-.54.74,2.9,2.9,0,0,1-2,.13c-2-.5-2.62.25-2.63.26A.25.25,0,0,1,36.83,54.66Z"/><path class="cls-4" d="M34.42,55.26a1,1,0,0,0-.57-.38h-.07l-.4-.29a.61.61,0,0,1,.45-.23,1.31,1.31,0,0,1,1,.55Z"/><path class="cls-5" d="M36.14,67.1a2.37,2.37,0,0,1-.83-.15c-3-1.33-2.71-4.37-2.11-6l.93.36c-.13.35-1.21,3.42,1.57,4.68h0a1.06,1.06,0,0,0,.88-.06c.33-.24.47-.89.4-1.81v-.51h.51a31.82,31.82,0,0,0,3.34-.36l.42-.07.14.41a2.36,2.36,0,0,0,1.06,1.28,1.52,1.52,0,0,0,1.28-.1,2.22,2.22,0,0,0,1.1-1.27,4.39,4.39,0,0,0-.61-3.4l.88-.46a5.28,5.28,0,0,1,.73,4.21,3.24,3.24,0,0,1-1.62,1.83,2.47,2.47,0,0,1-2.09.11,3.07,3.07,0,0,1-1.43-1.49c-1.09.17-2.08.26-2.64.3a2.55,2.55,0,0,1-.88,2.16A1.72,1.72,0,0,1,36.14,67.1Z"/><path class="cls-6" d="M34.13,61.38,33.22,61a3.9,3.9,0,0,1,2.55-1.9h.15a6.71,6.71,0,0,0,3.55-.59l.19-.06a7.64,7.64,0,0,1,5.17,1.1l-.59.81a6.79,6.79,0,0,0-4.41-.94,7.73,7.73,0,0,1-4,.67A2.85,2.85,0,0,0,34.13,61.38Z"/><path class="cls-7" d="M35.92,61.76a10.21,10.21,0,0,1-2.68-.27.38.38,0,0,1,.21-.72s3.69,1,11.38-1.3a.38.38,0,1,1,.22.72A31.87,31.87,0,0,1,35.92,61.76Z"/><path class="cls-7" d="M45.12,60.25a.38.38,0,0,1-.37-.33.43.43,0,0,0-.19-.3A.37.37,0,0,1,45,59a1.18,1.18,0,0,1,.53.84.37.37,0,0,1-.31.42h-.06Z"/><path class="cls-7" d="M33,61.52h0a.37.37,0,0,1-.33-.4v0a1.18,1.18,0,0,1,.53-.84.37.37,0,0,1,.4.63h0a.43.43,0,0,0-.19.3A.38.38,0,0,1,33,61.52Z"/></svg>