<?xml version="1.0" encoding="UTF-8"?>
<svg width="220px" height="247px" viewBox="0 0 220 247" version="1.1" xmlns="http://www.w3.org/2000/svg" xmlns:xlink="http://www.w3.org/1999/xlink">
    <!-- Generator: Sketch 47.1 (45422) - http://www.bohemiancoding.com/sketch -->
    <title>Angelo</title>
    <desc>Created with Sketch.</desc>
    <defs>
        <linearGradient x1="-0.427350427%" y1="49.8069498%" x2="100.42735%" y2="49.8069498%" id="linearGradient-1">
            <stop stop-color="#161C2D" offset="0%"></stop>
            <stop stop-color="#1E2435" offset="33%"></stop>
            <stop stop-color="#343A49" offset="83%"></stop>
            <stop stop-color="#3D4352" offset="100%"></stop>
        </linearGradient>
        <linearGradient x1="-0.584802397%" y1="49.6666667%" x2="100%" y2="49.6666667%" id="linearGradient-2">
            <stop stop-color="#3D4352" offset="0%"></stop>
            <stop stop-color="#343A49" offset="17%"></stop>
            <stop stop-color="#1E2435" offset="67%"></stop>
            <stop stop-color="#161C2D" offset="100%"></stop>
        </linearGradient>
        <linearGradient x1="5605%" y1="6654%" x2="6234%" y2="6654%" id="linearGradient-3">
            <stop stop-color="#161C2D" offset="0%"></stop>
            <stop stop-color="#1E2435" offset="33%"></stop>
            <stop stop-color="#343A49" offset="83%"></stop>
            <stop stop-color="#3D4352" offset="100%"></stop>
        </linearGradient>
        <linearGradient x1="6888%" y1="6518%" x2="7316%" y2="6518%" id="linearGradient-4">
            <stop stop-color="#3D4352" offset="0%"></stop>
            <stop stop-color="#343A49" offset="17%"></stop>
            <stop stop-color="#1E2435" offset="67%"></stop>
            <stop stop-color="#161C2D" offset="100%"></stop>
        </linearGradient>
        <linearGradient x1="99.5190132%" y1="50.0333648%" x2="-0.414257165%" y2="50.0333648%" id="linearGradient-5">
            <stop stop-color="#161C2D" offset="0%"></stop>
            <stop stop-color="#1E2435" offset="33%"></stop>
            <stop stop-color="#343A49" offset="83%"></stop>
            <stop stop-color="#3D4352" offset="100%"></stop>
        </linearGradient>
        <linearGradient x1="5810%" y1="7043%" x2="6124%" y2="7043%" id="linearGradient-6">
            <stop stop-color="#161C2D" offset="0%"></stop>
            <stop stop-color="#1E2435" offset="33%"></stop>
            <stop stop-color="#343A49" offset="83%"></stop>
            <stop stop-color="#3D4352" offset="100%"></stop>
        </linearGradient>
        <linearGradient x1="6155%" y1="7906%" x2="6297%" y2="7906%" id="linearGradient-7">
            <stop stop-color="#3D4352" offset="0%"></stop>
            <stop stop-color="#343A49" offset="17%"></stop>
            <stop stop-color="#1E2435" offset="67%"></stop>
            <stop stop-color="#161C2D" offset="100%"></stop>
        </linearGradient>
        <linearGradient x1="7016%" y1="6919%" x2="7285%" y2="6919%" id="linearGradient-8">
            <stop stop-color="#3D4352" offset="0%"></stop>
            <stop stop-color="#343A49" offset="17%"></stop>
            <stop stop-color="#1E2435" offset="67%"></stop>
            <stop stop-color="#161C2D" offset="100%"></stop>
        </linearGradient>
    </defs>
    <g id="Symbols" stroke="none" stroke-width="1" fill="none" fill-rule="evenodd">
        <g id="Angelo" fill-rule="nonzero">
            <g transform="translate(36.000000, 0.000000)" id="Shape">
                <path d="M90.9059829,100 C88.8001769,98.1100519 86.5089518,96.4449438 84.0683761,95.030888 C81.5683793,93.6960144 78.8185984,92.914389 76,92.7374517 L76,91 C79.0937616,91.1799933 82.1134123,92.0332075 84.8547009,93.5019305 C87.4086316,94.9816059 89.8034081,96.7285482 92,98.7142857 L90.9059829,100 Z" fill="url(#linearGradient-1)"></path>
                <path d="M10.0232219,108 C9.74738032,103.233102 11.9506912,98.7876736 15.4752097,97 L16,98.6866667 C13.040479,100.138503 11.1989629,103.873945 11.4809726,107.853333 L10.0232219,108 Z" fill="url(#linearGradient-2)"></path>
                <path d="M36.1717011,102 C36.1717011,102 34.8918919,95.1676043 15,95.6145835 L15,94.0182294 C36.6470588,93.5712502 37.963434,101.489167 38,101.840365 L36.1717011,102 Z" fill="url(#linearGradient-3)"></path>
                <path d="M51.2048394,92.9649527 L51.0472084,92.9649527 C49.9118838,92.7175767 48.8370921,92.2037978 47.8945885,91.4579168 C46.8563612,90.629573 46.1718992,89.361391 46.0030166,87.9531824 C45.9660319,87.4811658 46.2732799,87.0619732 46.696593,87.0069041 C46.9025143,86.9774 47.1102941,87.0432629 47.2712519,87.1890619 C47.4322097,87.3348609 47.5322015,87.5477839 47.5478003,87.7779457 C47.6805825,88.7111539 48.1466668,89.5452345 48.8403745,90.0910704 C49.6144391,90.6914217 50.496433,91.0979719 51.4255228,91.2826801 C51.7941452,91.398124 52.0347686,91.7914371 51.9958919,92.2149821 C51.9570152,92.638527 51.6498914,92.969705 51.2678918,93 L51.2048394,92.9649527 Z" fill="#3D4352"></path>
                <path d="M59.7523364,100 L58,100 C58,100 59.0163551,89.1034483 72.7196262,87 L73,88.6896552 C60.6985981,90.4482759 59.7873832,99.7241379 59.7523364,100 Z" fill="url(#linearGradient-4)"></path>
                <path d="M20.4260541,165 C19.0688047,164.969843 17.7964738,164.349265 16.9573929,163.308162 C11.3381616,156.54081 4.88645169,141.043574 5.96173668,107.274488 C5.96173668,107.274488 5.4761241,102.435832 4.78239185,94.4503563 C4.53958556,92.8600286 -1.25307875,52.7296318 22.7847438,33.5441891 L23.4091028,33.0366377 L24.2068949,33.0366377 C43.8877905,35.5387359 63.8953866,32.7421791 82.0641648,24.9496522 C84.6136789,23.9032371 87.3190653,23.2634547 90.0767723,23.0547937 C100.777968,22.2978204 110.370943,29.4615842 112.414951,39.7363161 C113.871789,47.5187708 112.414951,57.2975943 107.697571,68.8020926 C116.12043,77.7500584 121.11926,89.2596876 121.849709,101.386892 C122.855621,118.812823 119.2829,142.261698 96.632542,155.119666 C95.5432864,155.735949 94.3775756,156.213552 93.1638808,156.54081 C89.2458693,157.562631 85.06671,156.466032 82.2029112,153.664686 C79.2892357,150.822398 72.3865998,145.780721 59.0669406,144.021209 C56.194558,143.829491 53.3126408,144.22123 50.6034071,145.171659 C48.0922869,145.892024 45.4856181,146.245508 42.8682925,146.220598 C40.2641025,145.821035 37.5999523,146.362467 35.3759842,147.743253 C32.3916684,150.089288 29.7124959,152.78236 27.3980633,155.762565 C26.7404987,156.7436 26.2704307,157.832658 26.0105988,158.977057 C25.6909499,160.145933 25.2492763,161.279755 24.6925075,162.360733 C23.975167,163.733191 22.5879987,164.652333 21.0157266,164.796979 L20.4260541,165 Z M24.2415815,36.657171 C2.42370219,54.8613477 8.04293343,93.6721109 8.07762005,94.1796623 C8.80603891,102.401995 9.29165149,107.274488 9.29165149,107.274488 C8.18167988,141.957167 15.2577489,156.033259 19.6976353,161.413303 L19.6976353,161.413303 C19.9261768,161.705188 20.2945725,161.859203 20.6688604,161.819345 C21.0688706,161.790416 21.4241749,161.55935 21.605399,161.210283 C22.0656588,160.302531 22.4260963,159.349791 22.680684,158.367995 C23.0359613,156.858677 23.670727,155.425313 24.553761,154.1384 C27.026955,150.912774 29.9053046,148.002637 33.1213544,145.47619 C35.9060969,143.503872 39.3428458,142.611468 42.7642327,142.97227 C45.041529,142.997961 47.3098756,142.689998 49.4934355,142.058677 C52.6467312,140.955686 56.0066946,140.528669 59.3444335,140.806717 C73.6700045,142.701575 81.231686,148.250804 84.457541,151.397623 C86.4430024,153.337818 89.338013,154.098643 92.0539092,153.393991 C93.0122171,153.152355 93.9336021,152.78828 94.7941516,152.311215 C115.918299,140.333002 119.07478,118.169925 118.276988,101.556076 C117.587733,89.8716994 112.671228,78.8048232 104.402343,70.3247468 L103.639238,69.5465013 L104.055477,68.5313985 C108.703483,57.1960841 110.368441,47.7217914 108.980976,40.3453778 C107.267917,31.7834052 99.2740314,25.8150822 90.3542652,26.4384696 C87.9668636,26.6320034 85.6256747,27.1915412 83.4169426,28.0964708 C64.8524603,36.1310209 44.3945196,39.0789043 24.2415815,36.6233343 L24.2415815,36.657171 Z" fill="url(#linearGradient-5)"></path>
                <path d="M73.5740414,104.979757 C70.45814,104.962914 67.366804,104.391184 64.4278574,103.288207 C64.0609105,103.059904 63.9045987,102.580942 64.0594428,102.15933 C64.2142869,101.737718 64.634184,101.498986 65.0491076,101.596657 C65.0491076,101.596657 78.647585,107.149354 85.4468236,97.3677823 C85.7327462,96.9616009 86.2735802,96.8792822 86.6548102,97.1839182 C87.0360402,97.4885543 87.1133022,98.0647857 86.8273797,98.4709671 C83.673922,102.818529 78.7248525,105.249045 73.5740414,104.979757 L73.5740414,104.979757 Z" fill="#3D4352"></path>
                <path d="M128.583968,133.997872 C127.713511,134.015546 126.844467,133.923068 126,133.722904 L127.01903,130.285803 C129.48241,130.728952 132.030723,130.207921 134.079449,128.842221 C137.71884,126.642477 142.522837,121.108745 144.997623,107.119746 C145.43435,104.335695 145.907471,96.29288 142.777595,92.9588926 C141.800526,91.8674708 140.316196,91.3015963 138.810658,91.4465684 L138.810658,88.009468 C141.380006,87.8917244 143.868035,88.8770972 145.579926,90.6904063 C150.456711,95.914799 148.709803,107.188488 148.637015,107.669682 C146.489774,119.974502 142.26808,128.12043 136.008326,131.729386 C133.818181,133.148243 131.239073,133.93628 128.583968,133.997872 L128.583968,133.997872 Z" fill="url(#linearGradient-5)"></path>
                <path d="M137.008235,92 L137.008235,88.6219473 C137.008235,88.1828004 136.69843,78.0824228 137.731113,65.3133835 C139.624365,41.6670144 132.670966,26.8711435 117.628217,22.0743086 C115.625501,21.3902259 113.735269,20.4229128 112.017305,19.2029638 C104.697187,14.1556301 96.422771,10.5952179 87.6804089,8.73100034 C76.806148,6.26078799 65.5099049,6.18004045 54.6001293,8.49453665 C48.3007628,10.116002 45.1338682,9.74441616 42.9996566,8.49453665 C20.1085163,19.3380859 21.0035082,31.3301731 21.0035082,31.4652952 C21.1218323,32.4028261 20.8347048,33.3461445 20.2117846,34.0663958 C3.92981554,52.4092221 7.13113292,81.6631587 7.16555568,82.136086 L7.54420613,85.5141388 L0.659652626,86.2910909 L0.281002184,82.9130382 C0.281002184,81.5955976 -3.16127457,51.2269036 14.0501092,30.5532209 C14.2566458,25.9252887 17.1137355,12.615761 41.5883232,1.63708962 C43.2884716,0.798688396 45.3505923,1.18678506 46.6140472,2.58294439 C46.6140472,2.58294439 47.9909579,3.25855493 52.9134137,1.9748949 C64.8468308,-0.658298299 77.2271707,-0.658298299 89.1605879,1.9748949 C98.7913831,4.02433787 107.908118,7.94064636 115.975924,13.4940547 C117.155887,14.3467639 118.454175,15.029299 119.831274,15.5208863 C130.330218,18.898939 147.541602,29.8438299 144.684512,65.7187498 C143.686252,78.1499838 143.996056,88.1828004 143.996056,88.284142 L143.996056,91.6621947 L137.008235,92 Z" fill="#491CDE"></path>
                <path d="M98.0932203,95 C96.6810053,93.9157842 95.1480019,93.0018493 93.5254237,92.2768037 C87.8606051,89.6893498 81.5996958,88.7231271 75.4272599,89.4837819 C67.658454,90.4936047 59.8330109,90.9950693 52,90.9850311 L52,85.7481151 C59.4979073,85.7418341 66.9877512,85.2520569 74.4237288,84.2817787 C81.5054321,83.4236456 88.6849311,84.5343084 95.1864407,87.4937538 C97.2572174,88.415814 99.2093575,89.588153 101,90.9850311 L98.0932203,95 Z" fill="#FFFFFF"></path>
                <path d="M8.22196796,102 L4,99.1587744 C6.22688658,95.8227233 9.81167111,93.572478 13.8512586,92.9749304 C19.9379875,92.6583554 25.9758968,91.7399845 31.8718535,90.2339833 L32.8329519,90 L34,94.8802228 L33.0389016,95.0807799 C26.8727419,96.6539191 20.5592859,97.6170166 14.194508,97.9554318 C11.7224062,98.4582029 9.56647521,99.9181864 8.22196796,102 Z" fill="#FFFFFF"></path>
                <path d="M58.1163305,217.999019 C56.4070339,217.999019 54.6977373,217.941957 52.9884407,217.827831 L52.5098377,217.827831 C40.5447614,217.006128 25.161092,210.569452 19.7597147,198.449327 C13.908422,184.573336 8.95266505,170.335434 4.92302017,155.823466 L4,152.399702 L10.5978849,150.585107 L11.5209051,154.008871 C15.459729,168.16257 20.2779417,182.055895 25.9473684,195.607603 C30.0154943,204.64634 43.0403345,210.261313 52.9542548,210.980303 L53.4328578,210.980303 C73.7707984,212.581907 93.6420186,204.318358 106.86547,188.760075 C115.172651,178.762684 120.539843,163.287271 122.146581,145.244035 C122.581589,139.205713 122.42128,133.13915 121.667978,127.132324 C120.300541,114.909487 120.266355,98.6466078 127.718888,90.7377131 C130.733891,87.4179882 135.115177,85.6855844 139.581407,86.0471564 L143,86.2183446 L142.623955,93.0658725 L139.205362,92.8604467 C136.786044,92.6052055 134.385731,93.490869 132.710034,95.2570815 C128.402607,99.8106876 126.830054,111.38301 128.470979,126.070957 C129.28992,132.565752 129.461695,139.126031 128.983768,145.654887 C127.274471,165.34153 121.462863,181.707121 112.164289,192.937067 C98.7653865,208.924099 78.9569703,218.10923 58.1163305,217.999019 L58.1163305,217.999019 Z" fill="#491CDE"></path>
                <path d="M22.7380192,115 L22,113.660194 C25.4667713,112.322112 28.8036415,110.764079 31.9808307,109 L33,110.194175 C29.73715,112.017275 26.3058451,113.624201 22.7380192,115 L22.7380192,115 Z" fill="url(#linearGradient-6)"></path>
                <path d="M59.3078932,104 L58.8937849,104 C58.567121,103.895938 58.2954126,103.663322 58.1396802,103.354394 C57.9839478,103.045466 57.9572448,102.686121 58.0655682,102.357059 C58.0655682,102.042453 60.5157091,94.9463455 71.0409621,94.0025282 C77.1864187,93.9223195 83.2084514,95.7523394 88.2954752,99.2459575 C88.7560963,99.4895227 89.0313007,99.9856098 88.9971515,100.510808 C88.9630023,101.036007 88.6259413,101.491245 88.1377622,101.671509 C87.649583,101.851773 87.1023744,101.723057 86.742569,101.343329 C82.1608793,98.1943249 76.7502929,96.5135778 71.2135072,96.5193743 C62.5517416,97.2884105 60.6192362,102.811489 60.5502181,103.056183 C60.3842952,103.612041 59.8811493,103.99429 59.3078932,104 L59.3078932,104 Z" fill="#491CDE"></path>
                <path d="M13.268144,109 L12.9683953,109 C12.6437395,108.923173 12.3616021,108.708057 12.1860119,108.40347 C12.0104217,108.098883 11.9562692,107.730655 12.0358437,107.382353 C14.1673902,97.8562092 25.3580092,98.0359477 25.6244525,98 C29.1757621,98.2609106 32.4733374,100.079475 34.7501359,103.03268 C35.1640025,103.628281 35.0521675,104.473234 34.5003453,104.919935 C33.9485231,105.366636 33.1656777,105.245928 32.7518111,104.650327 C30.921272,102.353527 28.3230007,100.931939 25.5245363,100.696078 C25.5245363,100.696078 16.0991042,100.696078 14.4671389,107.885621 C14.3703737,108.52154 13.8651569,108.991102 13.268144,109 Z" fill="#491CDE"></path>
                <path d="M18.1538291,110.999997 C17.3154446,111.000576 16.4787209,110.918718 15.6538277,110.755418 C15.221076,110.667012 14.934823,110.214538 15.0128017,109.74216 C15.0938982,109.270407 15.508965,108.958356 15.9422894,109.043362 C18.5988494,109.423577 21.2994118,109.173281 23.8589605,108.309624 L26.0705002,107.506006 C28.0426976,106.845464 30.0566357,106.343315 32.0961447,106.00359 C32.5345611,105.961257 32.9275848,106.297893 32.9935811,106.772268 C33.0206722,107.004242 32.9613083,107.238371 32.8287774,107.422248 C32.6962465,107.606126 32.5016163,107.724396 32.2884525,107.750585 C30.3353608,108.087064 28.4072255,108.57751 26.5192184,109.218061 L24.2756274,109.88192 C22.2864805,110.534713 20.2295314,110.910392 18.1538291,110.999997 L18.1538291,110.999997 Z" fill="#3D4352"></path>
                <path d="M32.6780714,143 C30.8498651,142.72212 29.2525346,141.673259 28.3336399,140.1473 C25.6907774,136.126023 27.7543824,129.286416 27.9716039,128.495908 C27.9716039,128.495908 32.6780714,108.801964 34.3796404,101 L38,101.721768 C36.2622274,109.523732 31.5195563,129.217676 31.5195563,129.217676 C30.5007422,132.129642 30.5007422,135.27625 31.5195563,138.188216 C31.9171823,138.816977 32.5988572,139.23572 33.3659397,139.322422 L32.6780714,143 Z" fill="url(#linearGradient-5)"></path>
                <path d="M43.7953131,140 C43.4853729,139.997318 43.2046688,139.80969 43.0743465,139.518094 C42.9440242,139.226497 42.9874163,138.883138 43.1857957,138.636203 C43.1857957,138.636203 45.9125841,135.309868 53.2588727,137.205879 C54.9318663,137.740023 56.7301585,137.66966 58.359571,137.006299 C58.8692651,136.694572 59.2298878,136.175899 59.3540467,135.575975 C59.8401641,132.876037 58.7775686,130.128027 56.6272584,128.524145 C56.375073,128.350329 56.2388075,128.04405 56.2749649,127.732309 C56.3111222,127.420567 56.5135367,127.156522 56.7982764,127.049661 C57.083016,126.9428 57.4015257,127.011345 57.6217341,127.226874 C60.2320222,129.254833 61.4811466,132.661227 60.8297204,135.975135 C60.6059772,137.008988 59.978699,137.900304 59.0974078,138.436623 C57.0762792,139.366824 54.8016901,139.520126 52.6814352,138.869046 C46.2654625,137.205879 44.276511,139.70063 44.2444312,139.733893 C44.1271791,139.871595 43.9692552,139.965166 43.7953131,140 L43.7953131,140 Z" fill="#3D4352"></path>
                <path d="M36.5862069,142 C36.1057448,141.367247 35.4097035,140.918687 34.6206897,140.733333 C34.5417433,140.711999 34.4582567,140.711999 34.3793103,140.733333 L33,139.766667 C33.378255,139.30627 33.9441462,139.026677 34.5517241,139 C35.9305941,139.069559 37.2008327,139.744903 38,140.833333 L36.5862069,142 Z" fill="url(#linearGradient-7)"></path>
                <path d="M72.9328358,110 C69.7709173,109.854507 66.6983924,108.944682 64,107.354839 L64.8731343,106 C67.3233097,107.462873 70.1190738,108.306264 73,108.451613 L72.9328358,110 Z" fill="url(#linearGradient-8)"></path>
                <path d="M42.1151363,183.999989 C41.1687178,184.000089 40.2299546,183.823023 39.3434361,183.477201 C29.3252427,178.841814 30.2936681,168.246644 32.2973068,162.565682 L35.4029467,163.820373 C34.968825,165.040211 31.3622754,175.739939 40.6458012,180.131358 L40.6458012,180.131358 C41.6079523,180.510513 42.6805345,180.434188 43.5844713,179.922242 C44.6864726,179.085782 45.1539883,176.820367 44.9202304,173.613934 L44.9202304,171.836455 L46.6233233,171.836455 C50.3597605,171.623485 54.0828104,171.204671 57.7769119,170.581764 L59.179459,170.337796 L59.6469747,171.76675 C60.2695904,173.652545 61.5275711,175.237964 63.1867363,176.227874 C64.5909408,176.776252 66.1555985,176.648674 67.4611655,175.879349 C69.1939378,174.963159 70.512953,173.373781 71.1345031,171.453077 C72.0355661,167.378562 71.2994963,163.096684 69.0974704,159.603216 L72.0361405,158 C74.7933104,162.314021 75.6784908,167.641935 74.4739009,172.672916 C73.5375267,175.45446 71.595966,177.743499 69.0640764,179.050929 C66.907034,180.251919 64.3506549,180.392341 62.0847351,179.434307 C59.96612,178.330783 58.2788159,176.495895 57.3093962,174.24128 C53.6694526,174.833773 50.3634488,175.147446 48.4933861,175.286856 C48.7352439,178.144144 47.6408937,180.947599 45.554716,182.815003 C44.5606548,183.586836 43.3541117,184.002508 42.1151363,183.999989 Z" fill="url(#linearGradient-5)"></path>
                <path d="M35.1352283,164 L32,162.515782 C33.8655159,159.015744 37.060014,156.51481 40.7855297,155.637697 L41.0267011,155.637697 L41.3023256,155.637697 C45.4883061,156.109182 49.7173562,155.370678 53.5331611,153.50187 L54.1877692,153.284668 C60.3869791,152.342935 66.7026268,153.754842 72,157.266717 L69.9672696,160.198953 C65.4194404,157.279276 60.0591182,156.078765 54.7734711,156.796111 C50.4670618,158.878974 45.7095638,159.716271 40.9922481,159.221541 C38.5205375,159.948777 36.4181107,161.664045 35.1352283,164 Z" fill="url(#linearGradient-5)"></path>
                <path d="M41.0354603,163.982039 C37.9693474,164.081532 34.9037904,163.767343 31.918801,163.04767 C31.2424589,162.846989 30.8540914,162.126529 31.0513578,161.438479 C31.2486243,160.750429 31.956824,160.355338 32.6331661,160.556019 C32.6331661,160.556019 45.1855813,164.016645 71.3449507,156.057206 C72.0212929,155.846968 72.7371077,156.234312 72.9437678,156.922362 C73.150428,157.610412 72.7696754,158.338619 72.0933332,158.548856 C62.0560885,161.889124 51.5929501,163.719518 41.0354603,163.982039 Z" fill="#491CDE"></path>
                <path d="M7.33691305,158 C0.149196676,135.363977 0.861187449,119.297507 1.70879551,111.842938 C1.70879551,110.821764 2.04783874,109.630394 2.285169,108.439024 C2.9263586,105.742807 3.20009147,102.971692 3.09887274,100.201555 C-5.20768628,49.8576789 13.7787343,31.7488609 14.4229165,31 L19,36.0037523 L16.6945061,33.4848566 L19,35.9697132 C19,35.9697132 2.04783874,52.7510051 9.57459834,98.9761458 C9.85694809,102.514599 9.58234803,106.075619 8.7608946,109.528277 C8.55746866,110.685607 8.35404273,111.74082 8.25232976,112.693916 C7.33691305,119.501742 6.82834821,134.512999 13.643117,155.889574 L7.33691305,158 Z" fill="#FFFFFF"></path>
                <path d="M72.6496095,158 C71.9701972,157.989934 71.4016946,157.564193 71.3123901,156.998581 C71.2503858,156.626227 71.0001145,156.294424 70.6257098,156.088199 C70.218983,155.871367 69.980921,155.488813 70.0011993,155.08464 C70.0214776,154.680468 70.2970156,154.316081 70.7240206,154.12874 C71.1510257,153.941399 71.6646257,153.959567 72.0713524,154.176399 C73.1253792,154.748094 73.8260584,155.68054 73.9868289,156.725466 C74.0378353,157.028422 73.9393868,157.335734 73.7142544,157.576323 C73.4891221,157.816911 73.1568072,157.969935 72.7941737,158 L72.6496095,158 Z" fill="#491CDE"></path>
                <path d="M32.2058263,163.995556 L32.2058263,163.995556 C31.8431928,163.965524 31.5108779,163.81267 31.2857456,163.572349 C31.0606132,163.332028 30.9621647,163.025057 31.0131711,162.722438 C31.1739416,161.678673 31.8746208,160.747262 32.9286476,160.176203 C33.3353743,159.959612 33.8489743,159.941464 34.2759794,160.128597 C34.7029844,160.315729 34.9785224,160.679712 34.9988007,161.083435 C35.019079,161.487159 34.781017,161.869288 34.3742902,162.085879 C33.9998856,162.291875 33.7496143,162.623309 33.68761,162.995249 C33.5934838,163.608036 32.9396816,164.049398 32.2058263,163.995556 L32.2058263,163.995556 Z" fill="#491CDE"></path>
            </g>
        </g>
    </g>
</svg>