<svg id="Livello_1" data-name="Livello 1" xmlns="http://www.w3.org/2000/svg" xmlns:xlink="http://www.w3.org/1999/xlink" viewBox="0 0 90.88 90.88"><defs><style>.cls-1{fill:url(#Sfumatura_senza_nome);}.cls-2{fill:url(#Sfumatura_senza_nome-2);}</style><linearGradient id="Sfumatura_senza_nome" x1="24.76" y1="-431.21" x2="58.78" y2="-431.21" gradientTransform="matrix(1, 0, 0, -1, 0, -389.93)" gradientUnits="userSpaceOnUse"><stop offset="0" stop-color="#161c2d"/><stop offset="0.33" stop-color="#1e2435"/><stop offset="0.83" stop-color="#343a49"/><stop offset="1" stop-color="#3d4352"/></linearGradient><linearGradient id="Sfumatura_senza_nome-2" x1="60.72" y1="-435.87" x2="67.02" y2="-435.87" xlink:href="#Sfumatura_senza_nome"/></defs><title>Angelo_1</title><path class="cls-1" d="M29.53,62.27a1.31,1.31,0,0,1-1-.5c-1.62-2-3.48-6.58-3.17-16.56,0,0-.14-1.43-.34-3.79-.07-.47-1.74-12.33,5.19-18l.18-.15h.23A31.37,31.37,0,0,0,47.3,20.88a7.44,7.44,0,0,1,2.31-.56,6.11,6.11,0,0,1,6.44,4.93c.42,2.3,0,5.19-1.36,8.59a15.59,15.59,0,0,1,4.08,9.63c.29,5.15-.74,12.08-7.27,15.88a4.25,4.25,0,0,1-1,.42,3.27,3.27,0,0,1-3.16-.85c-.84-.84-2.83-2.33-6.67-2.85a6,6,0,0,0-2.44.34,7.64,7.64,0,0,1-2.23.31,3.12,3.12,0,0,0-2.16.45,13.56,13.56,0,0,0-2.3,2.37,2.87,2.87,0,0,0-.4.95,5.23,5.23,0,0,1-.38,1,1.33,1.33,0,0,1-1.06.72Zm1.1-37.93C24.34,29.72,26,41.19,26,41.34c.21,2.43.35,3.87.35,3.87-.32,10.25,1.72,14.41,3,16h0a.31.31,0,0,0,.28.12.33.33,0,0,0,.27-.18,4.24,4.24,0,0,0,.31-.84,3.76,3.76,0,0,1,.54-1.25,14.23,14.23,0,0,1,2.47-2.56A4,4,0,0,1,36,55.76a6.56,6.56,0,0,0,1.94-.27,6.72,6.72,0,0,1,2.84-.37c4.13.56,6.31,2.2,7.24,3.13a2.27,2.27,0,0,0,2.19.59,3.24,3.24,0,0,0,.79-.32c6.09-3.54,7-10.09,6.77-15a14.61,14.61,0,0,0-4-9.23l-.22-.23.12-.3c1.34-3.35,1.82-6.15,1.42-8.33a5.1,5.1,0,0,0-5.37-4.11,6.57,6.57,0,0,0-2,.49,32.22,32.22,0,0,1-17.06,2.52Z"/><path class="cls-2" d="M61.43,52.64a2.68,2.68,0,0,1-.71-.08l.28-1a2.54,2.54,0,0,0,1.94-.42c1-.64,2.32-2.25,3-6.32.12-.81.25-3.15-.61-4.12a1.26,1.26,0,0,0-1.09-.44v-1A2.34,2.34,0,0,1,66.1,40c1.34,1.52.86,4.8.84,4.94-.59,3.58-1.75,5.95-3.47,7A3.77,3.77,0,0,1,61.43,52.64Z"/></svg>