<svg id="Livello_1" data-name="Livello 1" xmlns="http://www.w3.org/2000/svg" xmlns:xlink="http://www.w3.org/1999/xlink" viewBox="0 0 90.88 90.88"><defs><style>.cls-1{fill:url(#Sfumatura_senza_nome);}</style><linearGradient id="Sfumatura_senza_nome" x1="60.72" y1="-435.87" x2="67.02" y2="-435.87" gradientTransform="matrix(1, 0, 0, -1, 0, -389.93)" gradientUnits="userSpaceOnUse"><stop offset="0" stop-color="#161c2d"/><stop offset="0.33" stop-color="#1e2435"/><stop offset="0.83" stop-color="#343a49"/><stop offset="1" stop-color="#3d4352"/></linearGradient></defs><title>Angelo_1</title><path class="cls-1" d="M61.43,52.64a2.68,2.68,0,0,1-.71-.08l.28-1a2.54,2.54,0,0,0,1.94-.42c1-.64,2.32-2.25,3-6.32.12-.81.25-3.15-.61-4.12a1.26,1.26,0,0,0-1.09-.44v-1A2.34,2.34,0,0,1,66.1,40c1.34,1.52.86,4.8.84,4.94-.59,3.58-1.75,5.95-3.47,7A3.77,3.77,0,0,1,61.43,52.64Z"/></svg>