<svg id="Livello_1" data-name="Livello 1" xmlns="http://www.w3.org/2000/svg" xmlns:xlink="http://www.w3.org/1999/xlink" viewBox="0 0 90.88 90.88"><defs><style>.cls-1{fill:#3d4352;}.cls-2{fill:#491cde;}.cls-3{fill:#fff;}.cls-4{fill:url(#Sfumatura_senza_nome);}</style><linearGradient id="Sfumatura_senza_nome" x1="57.56" y1="-683.69" x2="64.56" y2="-683.69" gradientTransform="matrix(1, 0, 0, -1, 0, -635.07)" gradientUnits="userSpaceOnUse"><stop offset="0" stop-color="#161c2d"/><stop offset="0.33" stop-color="#1e2435"/><stop offset="0.83" stop-color="#343a49"/><stop offset="1" stop-color="#3d4352"/></linearGradient></defs><title>Chiara_2</title><path class="cls-1" d="M49.38,38.48a.25.25,0,0,1-.18-.08,7.38,7.38,0,0,0-6.4-1.76,4.15,4.15,0,0,0-1.86,1.07.25.25,0,0,1-.35-.35,4.59,4.59,0,0,1,2.13-1.21,7.77,7.77,0,0,1,6.85,1.91.25.25,0,0,1-.18.42Z"/><path class="cls-1" d="M26.43,38.85h-.08a.25.25,0,0,1-.15-.32,2.71,2.71,0,0,1,1.53-1.45c1.24-.49,2.87-.24,4.85.75a.25.25,0,0,1-.22.45c-1.82-.91-3.36-1.17-4.44-.73a2.21,2.21,0,0,0-1.25,1.09A.25.25,0,0,1,26.43,38.85Z"/><path class="cls-2" d="M41.67,39.07a.5.5,0,0,1-.4-.8,5.57,5.57,0,0,1,3.67-2.08,5.1,5.1,0,0,1,3.9,1.67,1.59,1.59,0,0,0,1,0,.5.5,0,1,1,.56.83,2.65,2.65,0,0,1-2,.15.5.5,0,0,1-.21-.12A4.19,4.19,0,0,0,45,37.24,4.63,4.63,0,0,0,42,38.92.5.5,0,0,1,41.67,39.07Z"/><path class="cls-2" d="M27.86,40a.5.5,0,0,1-.47-.32,1.86,1.86,0,0,1,.24-1.54c1.9-2.3,5.41-.09,5.56,0a.5.5,0,0,1-.54.84s-2.92-1.83-4.22-.26a.89.89,0,0,0-.11.59.5.5,0,0,1-.28.65h0A.51.51,0,0,1,27.86,40Z"/><path class="cls-2" d="M45.27,40.83a9.81,9.81,0,0,1-3.79-.9.5.5,0,1,1,.35-.94l0,0c4.63,2,5.92-.21,6-.31a.5.5,0,0,1,.88.47A3.74,3.74,0,0,1,45.27,40.83Z"/><path class="cls-2" d="M29.83,41.64a1.93,1.93,0,0,1-1.8-.75.5.5,0,0,1,.85-.52s.78.83,3.72-.48a.5.5,0,0,1,.41.91A8.08,8.08,0,0,1,29.83,41.64Z"/><path class="cls-3" d="M39.25,34.64a.25.25,0,0,1-.11-.47c.29-.14,7.27-3.48,11.16-.57a.25.25,0,0,1-.3.4c-3.65-2.73-10.57.58-10.64.62Z"/><path class="cls-3" d="M31.34,36.1a.25.25,0,0,1-.16-.06,5.14,5.14,0,0,0-4.67-.71.25.25,0,0,1-.22-.45l.06,0a5.56,5.56,0,0,1,5.15.79.25.25,0,0,1-.16.44Z"/><path class="cls-3" d="M39.28,67.83H36.79c-3.06-.16-4.84-4.3-7.54-10.56C28,54.46,26.67,51.27,25,48c-1.12-2.17-.79-4.33-.24-7.89l.22-1.48a12.36,12.36,0,0,0-.37-1.89,12.33,12.33,0,0,1-.27-1.24,19.59,19.59,0,0,1,.76-7.69l.32-1,1.9.63-.31,1a17.84,17.84,0,0,0-.67,6.81,8.36,8.36,0,0,0,.22,1,8.21,8.21,0,0,1,.4,2.62l-.23,1.49c-.5,3.28-.78,5.08,0,6.67,1.73,3.37,3.12,6.59,4.34,9.43,2.14,5,4,9.26,5.81,9.36,1.07.06,3.35,0,5.08,0h.15a5.37,5.37,0,0,0,3.35-.84,96.88,96.88,0,0,0,11.15-9.86,13.1,13.1,0,0,0,1.86-4.77l.17-1,2,.33-.16,1a15,15,0,0,1-2.3,5.72,95.66,95.66,0,0,1-11.4,10.2,7.24,7.24,0,0,1-4.55,1.26H39.28Z"/><path class="cls-2" d="M58.85,32l-1-.17c-5.79-1-9.3-6.6-11.63-10.33-.44-.71-.84-1.35-1.2-1.87a4.05,4.05,0,0,0-5.22-1.25l-3,1.59a1,1,0,0,1-1.14-.15l-3.41-3.16,1.32-1.42,2.89,2.65,2.43-1.23a6,6,0,0,1,7.79,1.88c.38.55.8,1.22,1.26,2,2.13,3.42,5.35,8.59,10.26,9.41l1,.17Z"/><path class="cls-4" d="M62.18,72.87l-.94-.35C68.05,54.35,57.66,25,57.57,24.71l.94-.34A122.66,122.66,0,0,1,63,41.57C64.57,50.5,65.81,63.17,62.18,72.87Z"/></svg>