<?xml version="1.0" encoding="UTF-8"?>
<svg width="220px" height="247px" viewBox="0 0 220 247" version="1.1" xmlns="http://www.w3.org/2000/svg" xmlns:xlink="http://www.w3.org/1999/xlink">
    <!-- Generator: Sketch 47.1 (45422) - http://www.bohemiancoding.com/sketch -->
    <title>Chiara</title>
    <desc>Created with Sketch.</desc>
    <defs>
        <linearGradient x1="0%" y1="50.3759398%" x2="99.607099%" y2="50.3759398%" id="linearGradient-1">
            <stop stop-color="#161C2D" offset="0%"></stop>
            <stop stop-color="#1E2435" offset="33%"></stop>
            <stop stop-color="#343A49" offset="83%"></stop>
            <stop stop-color="#3D4352" offset="100%"></stop>
        </linearGradient>
        <linearGradient x1="-0.414257165%" y1="50.0333648%" x2="99.5190132%" y2="50.0333648%" id="linearGradient-2">
            <stop stop-color="#161C2D" offset="0%"></stop>
            <stop stop-color="#1E2435" offset="33%"></stop>
            <stop stop-color="#343A49" offset="83%"></stop>
            <stop stop-color="#3D4352" offset="100%"></stop>
        </linearGradient>
        <linearGradient x1="51.7524995%" y1="100%" x2="51.7524995%" y2="-0.177304965%" id="linearGradient-3">
            <stop stop-color="#3D4352" offset="0%"></stop>
            <stop stop-color="#343A49" offset="17%"></stop>
            <stop stop-color="#1E2435" offset="67%"></stop>
            <stop stop-color="#161C2D" offset="100%"></stop>
        </linearGradient>
        <linearGradient x1="49.552378%" y1="100%" x2="49.552378%" y2="0.0667296068%" id="linearGradient-4">
            <stop stop-color="#161C2D" offset="0%"></stop>
            <stop stop-color="#1E2435" offset="33%"></stop>
            <stop stop-color="#343A49" offset="83%"></stop>
            <stop stop-color="#3D4352" offset="100%"></stop>
        </linearGradient>
    </defs>
    <g id="Symbols" stroke="none" stroke-width="1" fill="none" fill-rule="evenodd">
        <g id="Chiara" fill-rule="nonzero">
            <g transform="translate(22.000000, 0.000000)" id="Shape">
                <path d="M100.139268,102.214598 C99.913736,102.211597 99.6992899,102.116219 99.5459346,101.950702 C93.8293291,96.7814448 86.0036704,94.6278185 78.4496383,96.1449877 C76.1320694,96.763289 74.0176842,97.9805163 72.3185272,99.6745981 C71.9904465,99.9208381 71.5313594,99.888188 71.2413744,99.5979913 C70.9513893,99.3077947 70.918763,98.8483726 71.1648235,98.5200526 C73.1006451,96.5776177 75.5274497,95.1980045 78.1859346,94.5286241 C86.2875642,92.8565698 94.6973662,95.2032036 100.765564,100.829144 C100.987085,101.068117 101.047162,101.415243 100.918853,101.714849 C100.790543,102.014456 100.497927,102.210318 100.172231,102.214598 L100.139268,102.214598 Z" fill="#3D4352"></path>
                <path d="M24.8073942,102.641422 L24.5436905,102.641422 C24.1160072,102.486422 23.8947008,102.013957 24.0492461,101.585838 C25.0164515,99.3756953 26.835336,97.6506582 29.0925794,96.8027211 C33.1799868,95.1863575 38.5529498,96.0110328 45.0796164,99.2767471 C45.3445884,99.4063835 45.5203229,99.6676364 45.5406223,99.9620945 C45.5609218,100.256553 45.4227022,100.539481 45.1780297,100.704302 C44.9333572,100.869124 44.6194032,100.890799 44.3544312,100.761163 C38.355172,97.7593445 33.2788757,96.9016822 29.7188757,98.3531107 C27.9310685,98.9709061 26.4534533,100.260327 25.5985053,101.948695 C25.5353092,102.339794 25.2031379,102.630656 24.8073942,102.641422 L24.8073942,102.641422 Z" fill="#3D4352"></path>
                <path d="M85.8566667,160.774545 L82.9559259,159.191169 C83.920337,157.675627 83.4953431,155.666432 82,154.671948 L83.9118519,152 C86.7585885,153.962295 87.607365,157.791774 85.8566667,160.774545 Z" fill="url(#linearGradient-1)"></path>
                <path d="M74.6481576,103.50527 C74.0238852,103.50527 73.4531923,103.152305 73.1740091,102.593532 C72.894826,102.034758 72.9550756,101.366092 73.3296391,100.866309 C76.3072422,97.0804515 80.6516259,94.616443 85.4270465,94.0050105 C90.3083176,93.8858672 95.0001834,95.896414 98.2826021,99.5138417 C99.3527714,99.8686166 100.508729,99.8686166 101.578898,99.5138417 C102.067624,99.1838582 102.695142,99.1398634 103.225071,99.3984297 C103.754999,99.6569959 104.106831,100.178841 104.148034,100.767391 C104.189236,101.35594 103.91355,101.92178 103.424824,102.251764 C101.376937,103.27466 99.0096746,103.452334 96.8322317,102.746569 C96.5725968,102.6733 96.3349019,102.537376 96.1400095,102.350725 C93.4976668,99.2324711 89.6113664,97.4449179 85.5259354,97.4686469 C81.7003402,98.0172076 78.225158,99.9977383 75.8018613,103.010465 C75.497563,103.321226 75.0828885,103.499074 74.6481576,103.50527 Z" fill="#491CDE"></path>
                <path d="M29.7842093,106.574538 C29.0986713,106.579367 28.4817328,106.159017 28.23495,105.518954 C27.742805,103.791375 28.03194,101.934738 29.0260611,100.438954 C35.2890241,92.8519411 46.8590241,100.142071 47.3534685,100.438954 C48.0645319,100.951568 48.2503911,101.931402 47.7764946,102.669113 C47.3025981,103.406823 46.3346844,103.644405 45.5734685,103.209863 C45.5734685,103.209863 35.9482833,97.1732398 31.6630982,102.352201 C31.3207075,102.939366 31.1925524,103.627245 31.3005056,104.298435 C31.4609015,104.70941 31.4500713,105.167562 31.2704357,105.570488 C31.0908,105.973413 30.7573365,106.287516 30.3445796,106.44259 C30.16676,106.518489 29.9771911,106.563126 29.7842093,106.574538 Z" fill="#491CDE"></path>
                <path d="M86.5571363,109.800872 C82.2363729,109.656926 77.9883167,108.647417 74.0641733,106.832041 C73.4993067,106.617841 73.0967911,106.111568 73.0151539,105.512613 C72.9335166,104.913658 73.1858396,104.318 73.6727476,103.960234 C74.1596556,103.602469 74.8031242,103.539925 75.3497289,103.797236 C90.6115807,110.394639 94.8638029,103.104509 95.1275066,102.774639 C95.5871043,102.039659 96.5368777,101.786258 97.3011023,102.194722 C98.0653269,102.603185 98.3830599,103.534043 98.0282474,104.325028 C95.5118048,108.134053 91.0988208,110.240633 86.5571363,109.800872 L86.5571363,109.800872 Z" fill="#491CDE"></path>
                <path d="M36.1083143,111.87975 C33.8290441,112.189098 31.5604156,111.243146 30.1749809,109.405724 C29.7912043,108.639558 30.0577368,107.706911 30.788284,107.259662 C31.5188313,106.812413 32.4699422,106.999605 32.9768328,107.690399 C32.9768328,107.690399 35.5479439,110.428321 45.239055,106.107022 C46.0535281,105.798713 46.9671316,106.177663 47.3248374,106.972175 C47.6825432,107.766686 47.3609086,108.702578 46.5905365,109.108841 C43.3232566,110.741909 39.7552723,111.685083 36.1083143,111.87975 Z" fill="#491CDE"></path>
                <path d="M66.7962026,89.3451332 C66.4240543,89.3324984 66.1066088,89.0716922 66.0217532,88.7088628 C65.9368976,88.3460334 66.105717,87.9713375 66.43361,87.7947436 C67.389536,87.3329254 90.3976841,76.3152631 103.220277,85.9144839 C103.455807,86.0912607 103.579206,86.3803551 103.54399,86.6728679 C103.508774,86.9653807 103.320292,87.2168723 103.049545,87.3326082 C102.778798,87.4483441 102.466918,87.4107413 102.231388,87.2339644 C90.1999063,78.2285099 67.389536,89.1472112 67.1587952,89.2791592 L66.7962026,89.3451332 Z" fill="#FFFFFF"></path>
                <path d="M41.1012231,94.1127186 C40.9076475,94.110785 40.7209309,94.0407152 40.5738157,93.9147965 C36.1261615,90.6810772 30.3871588,89.8079156 25.180112,91.5727186 C24.8934813,91.7101193 24.5534424,91.6703257 24.3062244,91.4704505 C24.0590064,91.2705753 23.9486774,90.9462475 24.0226829,90.6369398 C24.0966885,90.3276322 24.3418366,90.0884806 24.6527046,90.022329 C30.3930278,88.0197508 36.7520681,88.9959269 41.6286305,92.628303 C41.889746,92.8517281 41.9849582,93.2138209 41.8675521,93.5369235 C41.7501459,93.860026 41.4447574,94.0763396 41.1012231,94.0797316 L41.1012231,94.1127186 Z" fill="#FFFFFF"></path>
                <path d="M62.9539294,139.666616 C61.8819521,139.593077 60.8685493,139.150118 60.0861517,138.41311 C59.9918978,138.341986 59.9133427,138.252143 59.8554109,138.149214 C59.3506866,138.541051 58.8768204,138.97115 58.4380035,139.435707 C58.1285195,139.772744 57.6046098,139.794897 57.2678184,139.485188 C56.9310271,139.175478 56.90889,138.651186 57.2183739,138.314149 C57.5480035,137.951292 60.5146702,134.751551 63.2176331,135.015448 C64.2997328,135.222145 65.1907951,135.988264 65.5580035,137.027655 C65.6404258,137.228432 65.6404258,137.453632 65.5580035,137.654409 C65.2081282,138.528258 64.4805092,139.195729 63.5802257,139.468694 L62.9539294,139.666616 Z M61.2398554,137.225577 C61.7546027,137.758659 62.4787082,138.036435 63.2176331,137.984279 C63.4612542,137.971495 63.6752874,137.818308 63.7661114,137.591724 C63.8569355,137.36514 63.8080201,137.106399 63.6407616,136.928677 C63.473503,136.750955 63.2183431,136.686599 62.9868924,136.763759 C62.3711827,136.736468 61.7617782,136.89756 61.2398554,137.225577 L61.2398554,137.225577 Z" fill="#3D4352"></path>
                <path d="M143.195926,214.987013 L140.097407,213.832468 C162.545185,153.895065 128.296667,57.0781818 128,56.1215584 L131.098519,55 C137.374395,73.5311535 142.298798,92.4934627 145.832963,111.737662 C151.074074,141.195065 155.161481,182.98961 143.195926,214.987013 Z" fill="url(#linearGradient-2)"></path>
                <path d="M67.7012658,198.27974 C64.4049695,198.27974 61.4383028,198.27974 59.493488,198.27974 C49.4068213,197.751948 43.5394139,184.095325 34.6394139,163.445455 C30.6508954,154.176104 26.1349695,143.653247 20.4983028,132.734545 C16.806451,125.576364 17.8942287,118.451169 19.7071917,106.707792 L20.4323769,101.825714 C20.1884869,99.7189513 19.7807061,97.6344434 19.2127473,95.5911688 C18.8461153,94.2438979 18.5490553,92.8786268 18.3227473,91.5007792 C17.4665021,82.9625241 18.3181294,74.3391133 20.8279324,66.1337662 L21.8827473,63 L28.1457102,65.0781818 L27.1238584,68.2119481 C24.9460911,75.4872352 24.1961247,83.11559 24.9153399,90.6761039 C24.9153399,91.2368831 25.3438584,92.6883117 25.640525,93.9748052 C26.5448599,96.7651973 26.9901671,99.6840882 26.9590436,102.617403 L26.2008954,107.532468 C24.5527473,118.352208 23.6297843,124.28987 26.2008954,129.534805 C31.903488,140.651429 36.4853399,151.273247 40.5068213,160.641558 C47.5608954,177.135065 53.6920065,191.187532 59.6583028,191.517403 C63.1853399,191.715325 70.7008954,191.517403 76.403488,191.517403 L76.8979324,191.517403 C80.7832725,191.835817 84.6649822,190.861783 87.940525,188.746494 C101.007099,178.864001 113.294588,167.990186 124.694229,156.221299 C127.752189,151.430961 129.835677,146.083925 130.82534,140.486494 L131.38571,137.187792 L137.879414,138.276364 L137.352007,141.575065 C136.157613,148.322069 133.575932,154.747282 129.770525,160.443636 C118.162211,172.645091 105.596119,183.89664 92.1927473,194.09039 C87.797888,197.113999 82.5176226,198.577293 77.1945991,198.246753 L76.7001547,198.246753 L67.7012658,198.27974 Z" fill="#FFFFFF"></path>
                <path d="M111.043704,140.785455 L109,138.179481 C117.473226,131.677882 124.453692,123.432447 129.47,114 L132.46963,115.385455 C127.263649,125.314163 119.950826,133.983366 111.043704,140.785455 Z" fill="url(#linearGradient-2)"></path>
                <path d="M42.0641448,135.209351 C41.1414931,133.494922 40.805716,131.525137 41.1082189,129.601558 L41.1082189,129.238701 C42.0740304,127.566955 43.1765659,125.978145 44.4045152,124.488571 C45.9692385,122.505114 47.1944966,120.275747 48.0304411,117.891169 L48.0304411,117.495325 C48.7413762,115.29902 49.1191576,113.008439 49.1511819,110.7 C49.1511819,101.925455 45.8548856,100.309091 45.8548856,100.276104 L46.8108115,98 C47.3052559,98.1979221 51.6563671,100.21013 51.5245152,110.732987 C51.4855329,113.242839 51.0745113,115.733001 50.3048856,118.122078 L50.1400708,118.64987 C49.234043,121.319308 47.8857218,123.817194 46.1515522,126.038961 C45.0889882,127.355042 44.1197095,128.743886 43.2508115,130.195325 C43.0769497,131.447774 43.2836893,132.723599 43.8441448,133.856883 L42.0641448,135.209351 Z" fill="url(#linearGradient-3)"></path>
                <path d="M56.2962963,150.797143 L53,150.467273 C53.2912136,147.450485 53.2912136,144.412632 53,141.395844 L56.2962963,141 C56.6201618,144.257673 56.6201618,147.53947 56.2962963,150.797143 L56.2962963,150.797143 Z" fill="url(#linearGradient-4)"></path>
                <path d="M131.681481,80.2862338 L128.385185,79.7254545 C109.29963,76.4267532 97.7296296,57.954026 90.0492593,45.6498701 C88.5988889,43.3077922 87.2803704,41.1966234 86.0937037,39.4812987 C82.2223777,33.9545925 74.8399724,32.1854853 68.887037,35.3579221 L58.9981481,40.6028571 C57.7665623,41.247121 56.2635008,41.0492055 55.2403704,40.1080519 L44,29.6841558 L48.3511111,25 L57.8774074,33.7415584 L65.8874074,29.6841558 C74.784014,24.9689526 85.7972972,27.6287831 91.5655556,35.8857143 C92.8181481,37.7 94.2025926,39.9101299 95.7188889,42.4831169 C102.74,53.7646753 113.354074,70.818961 129.538889,73.5238961 L132.835185,74.0846753 L131.681481,80.2862338 Z" fill="#491CDE"></path>
                <path d="M165.495185,178.696191 L159.858519,175.397489 L161.572593,172.560606 C161.572593,172.29671 177.262963,145.214372 163.022963,95.5689179 C161.935185,91.7754114 159.298148,83.5286582 156.957778,76.2715153 C155.276667,71.0265803 153.661481,66.3754114 153.002222,63.8354114 C141.036667,24.0860608 118.457037,4.98658028 85.6918519,6.73489196 L82.3955556,6.93281404 L82,0.335411445 L85.2962963,0.137489367 C121.258889,-1.90770544 146.343704,18.8741127 159.298148,61.8232037 C160.023333,64.1982686 161.53963,68.9483985 163.220741,74.1603465 C165.561111,81.4834634 168.231111,89.7632037 169.351852,93.6556712 C184.481852,146.434892 167.934444,174.671775 167.209259,175.859308 L165.495185,178.696191 Z" fill="#491CDE"></path>
                <path d="M17.2068856,249.091688 L15.6246634,246.188831 C-5.30681812,207.692987 -0.692003309,180.115844 3.92281151,153.429351 C6.65873743,137.430649 9.46058928,120.871169 6.62577447,101.903636 C0.923181876,64.1005195 1.05503373,23.3615584 45.1594782,8.08857143 L48.2909597,7 L50.4335522,13.2345455 L47.3350337,14.3231169 C7.77947817,27.9797403 7.58170039,64.0015584 13.1524411,100.914026 C16.1520708,120.904156 13.1524411,137.991429 10.4494782,154.517922 C5.90058928,181.27039 1.58244114,206.505455 21.4591078,243.022078 L23.04133,245.924935 L17.2068856,249.091688 Z" fill="#491CDE"></path>
                <path d="M50.6905675,141.813092 L50.6905675,141.813092 C46.075004,141.400493 42.2194472,138.123521 41.0653823,133.632313 C40.8469231,132.985566 41.1937366,132.284049 41.840012,132.06543 C42.4862874,131.846811 43.1872934,132.193878 43.4057527,132.840625 C44.2052595,136.431571 47.2278909,139.096626 50.8883453,139.438027 C51.5710306,139.438027 52.1244564,139.991857 52.1244564,140.67504 C52.1244564,141.358224 51.5710306,141.912053 50.8883453,141.912053 L50.6905675,141.813092 Z" fill="#3D4352"></path>
                <path d="M61.5322212,171.250858 C52.7640731,171.250858 52.0718508,167.391377 52.0059249,166.929559 C51.9705953,166.634931 52.0950171,166.343822 52.3323217,166.165889 C52.5696263,165.987956 52.8837615,165.950232 53.1563957,166.066928 C53.4290299,166.183623 53.6187435,166.437009 53.6540731,166.731637 C53.6540731,166.731637 54.4122212,170.030338 62.7188879,169.56852 L62.7188879,169.56852 C63.1740114,169.56852 63.542962,169.93774 63.542962,170.393196 C63.542962,170.848651 63.1740114,171.217871 62.7188879,171.217871 L61.5322212,171.250858 Z" fill="#3D4352"></path>
                <path d="M68.6773644,139.878941 C68.3508602,139.819811 68.0916406,139.570486 68.0196614,139.246343 C67.9476823,138.922201 68.0769854,138.586475 68.3477347,138.394525 C68.3477347,138.394525 69.039957,137.833746 69.1058829,136.184395 L69.1058829,136.184395 C69.131415,135.76695 69.131415,135.348334 69.1058829,134.930889 C69.0468724,134.485761 69.3545716,134.075197 69.7981051,134.007252 C70.2429078,133.948199 70.6531734,134.256122 70.7210681,134.69998 C70.7537565,135.205252 70.7537565,135.71211 70.7210681,136.217382 C70.8442866,137.593627 70.2760121,138.941173 69.2047718,139.812967 C69.0410759,139.892647 68.8556229,139.915846 68.6773644,139.878941 Z" fill="#3D4352"></path>
                <path d="M78.3107693,162.537317 C77.8300143,162.531498 77.3950116,162.250816 77.191308,161.814994 C76.9876043,161.379172 77.0511513,160.865127 77.3548434,160.492122 C77.9911022,159.828456 77.9911022,158.780723 77.3548434,158.117057 C76.8817189,157.630454 76.8817189,156.855349 77.3548434,156.368745 C77.5844103,156.132974 77.8994122,156 78.2283619,156 C78.5573116,156 78.8723135,156.132974 79.1018804,156.368745 C80.5764007,157.972178 80.5764007,160.439079 79.1018804,162.042511 C78.914123,162.305847 78.6295783,162.483817 78.3107693,162.537317 L78.3107693,162.537317 Z" fill="#491CDE"></path>
                <path d="M45.9832619,162.318475 C45.6769205,162.315993 45.3827315,162.198232 45.1591878,161.988605 C43.8471322,160.8704 43.6172682,158.929506 44.6317804,157.535358 C45.0231866,156.970593 45.7979827,156.83029 46.3623359,157.221982 C46.926689,157.613674 47.0668902,158.389035 46.6754841,158.9538 C46.5124222,159.114942 46.4206417,159.334724 46.4206417,159.56406 C46.4206417,159.793395 46.5124222,160.013178 46.6754841,160.174319 C47.0650314,160.510803 47.2016297,161.055758 47.0169025,161.536399 C46.8321753,162.01704 46.3658727,162.329942 45.85141,162.318475 L45.9832619,162.318475 Z" fill="#491CDE"></path>
                <path d="M57.1530114,167.514773 L55.0104188,167.514773 C53.3277102,167.600435 51.6691695,167.086146 50.3296781,166.063344 C49.9655793,165.790071 49.8917892,165.273163 50.1648633,164.908799 C50.4379374,164.544434 50.9544681,164.47059 51.318567,164.743864 C52.3939313,165.561125 53.7293194,165.959689 55.0763447,165.865422 L55.9333818,165.865422 C60.235062,165.931829 64.5195968,165.308169 68.6241225,164.018149 C69.032402,163.931269 69.4411166,164.163599 69.5756321,164.559027 C69.7101475,164.954454 69.5279773,165.388083 69.1515299,165.568539 C65.2653743,166.787166 61.2248519,167.442563 57.1530114,167.514773 L57.1530114,167.514773 Z" fill="#491CDE"></path>
                <path d="M47.9569784,159.446165 C47.8716647,159.47635 47.7785883,159.47635 47.6932747,159.446165 C47.242038,159.132265 46.9812472,158.610303 47.0010524,158.060711 C47.0010524,157.269022 48.0229043,156.807204 48.9788302,156.345386 L49.6710524,155.982529 C52.6706821,154.300191 52.9673487,154.366165 54.7473487,154.959931 L55.6703117,155.256815 C56.1967419,155.417453 56.7590666,155.417453 57.2854969,155.256815 L58.9995709,154.465126 C60.4954878,153.953086 62.103157,153.861804 63.6473487,154.20123 C68.4334322,155.299825 73.1366852,156.732773 77.7225339,158.489542 C77.8579641,158.548467 77.9516931,158.675221 77.9684143,158.822055 C77.9851355,158.968889 77.9223085,159.113497 77.8035995,159.201406 C77.6848905,159.289315 77.5283344,159.307169 77.3929043,159.248243 C72.8518684,157.438963 68.1933917,155.940109 63.4495709,154.762009 C62.0806497,154.463041 60.6562073,154.542868 59.3292006,154.992918 L57.6151265,155.784607 C56.9080581,156.014017 56.1466393,156.014017 55.4395709,155.784607 L54.516608,155.454737 C53.0003117,154.926944 52.8684598,154.86097 50.1325339,156.41136 L49.4073487,156.807204 C48.7480895,157.137074 47.9240154,157.532918 47.8910524,157.895776 C47.8580895,158.258633 47.8910524,158.29162 48.3195709,158.555516 C48.4750954,158.655511 48.5406724,158.849969 48.4774985,159.023824 C48.4143247,159.197679 48.2392487,159.304563 48.0558672,159.28123 L47.9569784,159.446165 Z" fill="#491CDE"></path>
                <path d="M76.2517314,160.827929 C71.42158,160.612758 66.6270135,159.894154 61.9458055,158.683773 L56.7376574,160.564033 C56.556602,160.629539 56.3583423,160.629539 56.177287,160.564033 L53.1117314,159.409488 C50.7098998,160.426366 48.0649042,160.724288 45.497287,160.26715 C45.0785734,160.084968 44.8867192,159.597598 45.0687686,159.178578 C45.250818,158.759559 45.7378326,158.567565 46.1565463,158.749747 C48.4029355,159.013685 50.6789952,158.672027 52.7491388,157.760137 C52.9400564,157.686413 53.1515547,157.686413 53.3424722,157.760137 L56.4080277,158.914682 L61.55025,157.034423 C61.7006586,156.988526 61.8613228,156.988526 62.0117314,157.034423 C73.8124722,159.772345 76.9439537,159.310526 76.9769166,159.277539 C77.4225664,159.197284 77.8494393,159.491894 77.9328426,159.93728 C78.0148143,160.372755 77.7382354,160.79521 77.3065463,160.893903 C76.9537436,160.900196 76.6010055,160.878134 76.2517314,160.827929 Z" fill="#491CDE"></path>
                <path d="M73.432688,174.131656 L73.1030584,174.131656 C70.3128764,173.177118 67.3824746,172.697654 64.4337991,172.713214 C61.6480261,172.433683 58.8380764,172.900452 56.2919472,174.065682 C56.1090008,174.19029 55.8836607,174.236027 55.6666573,174.192594 C55.4496539,174.149162 55.2592258,174.020211 55.1382435,173.834773 C54.8942109,173.468071 54.9813052,172.974177 55.3360213,172.713214 C58.1525707,171.317342 61.3092338,170.756511 64.4337991,171.096851 C67.6090339,171.075836 70.7643266,171.600242 73.7623176,172.64724 C74.1237711,172.801295 74.3262922,173.189272 74.2461646,173.574165 C74.1660371,173.959058 73.825545,174.233825 73.432688,174.230617 L73.432688,174.131656 Z" fill="#3D4352"></path>
            </g>
        </g>
    </g>
</svg>