<svg id="Livello_1" data-name="Livello 1" xmlns="http://www.w3.org/2000/svg" xmlns:xlink="http://www.w3.org/1999/xlink" viewBox="0 0 90.88 90.88"><defs><style>.cls-1{fill:url(#Sfumatura_senza_nome);}.cls-2{fill:#491cde;}</style><linearGradient id="Sfumatura_senza_nome" x1="51.87" y1="-681.3" x2="58.99" y2="-681.3" gradientTransform="matrix(1, 0, 0, -1, 0, -635.07)" gradientUnits="userSpaceOnUse"><stop offset="0" stop-color="#161c2d"/><stop offset="0.33" stop-color="#1e2435"/><stop offset="0.83" stop-color="#343a49"/><stop offset="1" stop-color="#3d4352"/></linearGradient></defs><title>Chiara_1</title><path class="cls-1" d="M52.49,50.29l-.62-.79a22.64,22.64,0,0,0,6.21-7.33l.91.42A23.31,23.31,0,0,1,52.49,50.29Z"/><path class="cls-2" d="M69,61.77l-1.71-1,.52-.86c0-.08,4.76-8.29.44-23.34-.33-1.15-1.13-3.65-1.84-5.85-.51-1.59-1-3-1.2-3.77C61.57,14.9,54.72,9.11,44.78,9.64l-1,.06-.12-2,1-.06C55.57,7,63.18,13.32,67.11,26.34c.22.72.68,2.16,1.19,3.74C69,32.3,69.82,34.81,70.16,36c4.59,16-.43,24.56-.65,24.92Z"/><path class="cls-2" d="M24,83.28l-.48-.88c-6.35-11.67-5-20-3.55-28.12.83-4.85,1.68-9.87.82-15.62C19.06,27.2,19.1,14.85,32.48,10.22l1-.33.65,1.89-.94.33c-12,4.14-12.06,15.06-10.37,26.25.91,6.06,0,11.24-.82,16.25-1.38,8.11-2.69,15.76,3.34,26.83l.48.88Z"/></svg>