<svg id="Livello_1" data-name="Livello 1" xmlns="http://www.w3.org/2000/svg" xmlns:xlink="http://www.w3.org/1999/xlink" viewBox="0 0 90.88 90.88"><defs><style>.cls-1{fill:url(#Sfumatura_senza_nome);}.cls-2{fill:#fff;}.cls-3{fill:#3d4352;}.cls-4{fill:url(#Sfumatura_senza_nome_10);}.cls-5{fill:url(#Sfumatura_senza_nome-2);}.cls-6{fill:#491cde;}</style><linearGradient id="Sfumatura_senza_nome" x1="43.83" y1="-690.23" x2="45.27" y2="-690.23" gradientTransform="matrix(1, 0, 0, -1, 0, -635.07)" gradientUnits="userSpaceOnUse"><stop offset="0" stop-color="#161c2d"/><stop offset="0.33" stop-color="#1e2435"/><stop offset="0.83" stop-color="#343a49"/><stop offset="1" stop-color="#3d4352"/></linearGradient><linearGradient id="Sfumatura_senza_nome_10" x1="32.85" y1="-683.66" x2="32.85" y2="-672.36" gradientTransform="matrix(1, 0, 0, -1, 0, -635.07)" gradientUnits="userSpaceOnUse"><stop offset="0" stop-color="#3d4352"/><stop offset="0.17" stop-color="#343a49"/><stop offset="0.67" stop-color="#1e2435"/><stop offset="1" stop-color="#161c2d"/></linearGradient><linearGradient id="Sfumatura_senza_nome-2" x1="35.38" y1="-688.29" x2="35.38" y2="-685.32" xlink:href="#Sfumatura_senza_nome"/></defs><title>Chiara_3</title><path class="cls-1" d="M45,56.49,44.12,56a1,1,0,0,0-.29-1.37l.58-.81A2,2,0,0,1,45,56.49Z"/><path class="cls-2" d="M39.25,34.64a.25.25,0,0,1-.11-.47c.29-.14,7.27-3.48,11.16-.57a.25.25,0,0,1-.3.4c-3.65-2.73-10.57.58-10.64.62Z"/><path class="cls-2" d="M31.34,36.1a.25.25,0,0,1-.16-.06,5.14,5.14,0,0,0-4.67-.71.25.25,0,0,1-.22-.45l.06,0a5.56,5.56,0,0,1,5.15.79.25.25,0,0,1-.16.44Z"/><path class="cls-3" d="M37.84,50a1.41,1.41,0,0,1-.87-.38.26.26,0,0,1-.07-.08,3.78,3.78,0,0,0-.43.39.25.25,0,0,1-.37-.34h0c.1-.11,1-1.08,1.82-1a.94.94,0,0,1,.71.61.25.25,0,0,1,0,.19.94.94,0,0,1-.6.55Zm-.52-.74a.76.76,0,0,0,.6.23.19.19,0,0,0,0-.38h-.05A.92.92,0,0,0,37.32,49.23Z"/><path class="cls-4" d="M31.57,48.59a2.7,2.7,0,0,1-.29-1.7v-.11a10.6,10.6,0,0,1,1-1.44,6.93,6.93,0,0,0,1.1-2v-.12a7,7,0,0,0,.34-2.06c0-2.66-1-3.15-1-3.16l.29-.69c.15.06,1.47.67,1.43,3.86a7.69,7.69,0,0,1-.37,2.24l0,.16a7.62,7.62,0,0,1-1.21,2.24,11,11,0,0,0-.88,1.26,1.91,1.91,0,0,0,.18,1.11Z"/><path class="cls-5" d="M35.84,53.22l-1-.1a14.3,14.3,0,0,0,0-2.75l1-.12A15,15,0,0,1,35.84,53.22Z"/><path class="cls-3" d="M34.37,50.64h0a3.32,3.32,0,0,1-2.92-2.48.37.37,0,0,1,.71-.24h0a2.57,2.57,0,0,0,2.27,2,.38.38,0,0,1,0,.75Z"/><path class="cls-3" d="M37.43,59.39c-2.66,0-2.87-1.17-2.89-1.31A.25.25,0,1,1,35,58s.23,1,2.75.86h0a.25.25,0,0,1,0,.5Z"/><path class="cls-3" d="M39.57,50.09a.25.25,0,0,1-.1-.45A.91.91,0,0,0,39.7,49h0a3.11,3.11,0,0,0,0-.38.25.25,0,0,1,.49-.07,3.56,3.56,0,0,1,0,.46,1.26,1.26,0,0,1-.46,1.09A.25.25,0,0,1,39.57,50.09Z"/><path class="cls-6" d="M42.57,56.92a.38.38,0,0,1-.29-.62.52.52,0,0,0,0-.72.38.38,0,0,1,0-.53.37.37,0,0,1,.52,0h0a1.27,1.27,0,0,1,0,1.72A.37.37,0,0,1,42.57,56.92Z"/><path class="cls-6" d="M32.69,56.85a.37.37,0,0,1-.25-.1,1,1,0,0,1-.16-1.35.38.38,0,1,1,.62.43.26.26,0,0,0,0,.37h0a.37.37,0,0,1-.25.65Z"/><path class="cls-6" d="M36.09,58.3h-.65A2.16,2.16,0,0,1,34,57.86a.25.25,0,1,1,.3-.4,1.69,1.69,0,0,0,1.14.34h.26a12.22,12.22,0,0,0,3.85-.56.25.25,0,0,1,.16.47A12.94,12.94,0,0,1,36.09,58.3Z"/><path class="cls-6" d="M33.33,56.06h-.08a.49.49,0,0,1-.21-.42c0-.24.31-.38.6-.52l.21-.11c.91-.51,1-.49,1.54-.31l.28.09a.84.84,0,0,0,.49,0l.52-.24a2.62,2.62,0,0,1,1.41-.08,31.88,31.88,0,0,1,4.27,1.3.13.13,0,1,1-.1.23A32.78,32.78,0,0,0,38,54.64a2.34,2.34,0,0,0-1.25.07l-.52.24a1.07,1.07,0,0,1-.66,0l-.28-.1c-.46-.16-.5-.18-1.33.29l-.22.12c-.2.1-.45.22-.46.33s0,.12.13.2a.12.12,0,0,1-.08.22Z"/><path class="cls-6" d="M42.13,56.29a21.1,21.1,0,0,1-4.34-.65l-1.58.57a.25.25,0,0,1-.17,0l-.93-.35a4.09,4.09,0,0,1-2.31.26.25.25,0,1,1,.2-.46,3.85,3.85,0,0,0,2-.3.25.25,0,0,1,.18,0l.93.35,1.56-.57a.24.24,0,0,1,.14,0c3.58.83,4.53.69,4.54.68a.25.25,0,0,1,.1.49Z"/><path class="cls-3" d="M41.18,60.56h-.1a8,8,0,0,0-2.63-.43,4.79,4.79,0,0,0-2.47.41.25.25,0,0,1-.35-.07h0a.25.25,0,0,1,.06-.34,5,5,0,0,1,2.76-.49,8.42,8.42,0,0,1,2.83.47.25.25,0,0,1-.1.48Z"/></svg>