<svg id="Livello_1" data-name="Livello 1" xmlns="http://www.w3.org/2000/svg" xmlns:xlink="http://www.w3.org/1999/xlink" viewBox="0 0 90.88 90.88"><defs><style>.cls-1,.cls-10,.cls-11,.cls-2,.cls-3,.cls-4,.cls-5,.cls-6,.cls-7,.cls-8,.cls-9{fill:none;}.cls-1{stroke:#3d4352;stroke-width:0.5px;}.cls-1,.cls-6{stroke-linecap:round;}.cls-1,.cls-2,.cls-5,.cls-6{stroke-linejoin:round;}.cls-2,.cls-5{stroke:#fff;}.cls-2,.cls-3,.cls-5{stroke-linecap:square;}.cls-2{stroke-width:1.25px;}.cls-3,.cls-6{stroke:#491cde;}.cls-10,.cls-11,.cls-3,.cls-4,.cls-7,.cls-8,.cls-9{stroke-miterlimit:10;}.cls-3,.cls-5{stroke-width:2px;}.cls-4{stroke:url(#Sfumatura_senza_nome_30);}.cls-7{stroke:url(#Sfumatura_senza_nome_16);}.cls-8{stroke:url(#Sfumatura_senza_nome_16-2);}.cls-9{stroke:url(#Sfumatura_senza_nome_16-3);}.cls-10{stroke:url(#Sfumatura_senza_nome_16-4);}.cls-11{stroke:url(#Sfumatura_senza_nome_30-2);}</style><linearGradient id="Sfumatura_senza_nome_30" x1="31.22" y1="44.66" x2="31.22" y2="24.47" gradientUnits="userSpaceOnUse"><stop offset="0" stop-color="#3d4352"/><stop offset="0.17" stop-color="#343a49"/><stop offset="0.67" stop-color="#1e2435"/><stop offset="1" stop-color="#161c2d"/></linearGradient><linearGradient id="Sfumatura_senza_nome_16" x1="43.99" y1="20.7" x2="55.46" y2="20.7" xlink:href="#Sfumatura_senza_nome_30"/><linearGradient id="Sfumatura_senza_nome_16-2" x1="48.81" y1="23.74" x2="61.03" y2="23.74" xlink:href="#Sfumatura_senza_nome_30"/><linearGradient id="Sfumatura_senza_nome_16-3" x1="53.41" y1="28.23" x2="63.38" y2="28.23" xlink:href="#Sfumatura_senza_nome_30"/><linearGradient id="Sfumatura_senza_nome_16-4" x1="38.26" y1="19.01" x2="43.56" y2="19.01" xlink:href="#Sfumatura_senza_nome_30"/><linearGradient id="Sfumatura_senza_nome_30-2" x1="35.67" y1="24.57" x2="35.67" y2="17.14" xlink:href="#Sfumatura_senza_nome_30"/></defs><title>Diego_2</title><path class="cls-1" d="M50.44,46.05l1-.88a10,10,0,0,1,5,.67l.75.88"/><path class="cls-1" d="M53.55,48.11s2.23.12,2.82-1"/><line class="cls-1" x1="49.95" y1="48.68" x2="50.8" y2="49.22"/><line class="cls-1" x1="40.39" y1="48.51" x2="39.4" y2="49.43"/><path class="cls-1" d="M34.78,47.61s-1.31-.47-1.41-1.22"/><path class="cls-1" d="M32.45,46.28a6.08,6.08,0,0,1,.91-.92,10.29,10.29,0,0,1,4.34-.58,3.7,3.7,0,0,1,1.58.68"/><path class="cls-2" d="M49.16,41.45s6-.7,8.38.5a8.79,8.79,0,0,1,2.19,1.69"/><path class="cls-2" d="M39.83,41.49s-5.1-.51-7.72.49c0,0-1.51.84-1.51,1.9"/><path class="cls-3" d="M63,45.52s.21,2.6.38,11.55c0,0,0,10.31-6.15,15.94,0,0-5.79,6.19-11.35,6.19a15.34,15.34,0,0,1-7.69-2.11,21.14,21.14,0,0,1-9-9.78,29.56,29.56,0,0,1-2.65-9.5A63.27,63.27,0,0,1,27,45.45"/><path class="cls-4" d="M27.59,44.65s-.4-17,7.58-19.7"/><path class="cls-3" d="M25.73,44.43s-3.82-10,.74-17.55c0,0-.78-4.42,4-9.33A19.66,19.66,0,0,1,51,12.77a30.46,30.46,0,0,1,9.93,5.92A17.61,17.61,0,0,1,65.64,25c1.09,2.55,1.68,5.86-.31,8.92,0,0,2.16,2.56-1,10.34"/><path class="cls-5" d="M51,12.77a30.46,30.46,0,0,1,9.93,5.92A17.61,17.61,0,0,1,65.64,25c1.09,2.55,1.68,5.86-.31,8.92"/><path class="cls-6" d="M51.06,46.48a5.4,5.4,0,0,1,5.63.91"/><path class="cls-6" d="M38,45.59a6.66,6.66,0,0,0-5.71,1.52"/><path class="cls-7" d="M44.47,23.07s2.22-7.77,10.73-2.63"/><path class="cls-8" d="M49.16,23.13s2.06-2,7.22,1.35a4.29,4.29,0,0,0,4.35-.35"/><path class="cls-9" d="M53.87,25.51s2.05,5.09,9.5,5.13"/><path class="cls-10" d="M39.83,23.45s-4.09-8.23,3.7-8.6"/><path class="cls-11" d="M36.71,24.22s-4-3.9-.52-6.69"/></svg>