<svg id="Livello_1" data-name="Livello 1" xmlns="http://www.w3.org/2000/svg" xmlns:xlink="http://www.w3.org/1999/xlink" viewBox="0 0 90.88 90.88"><defs><style>.cls-1,.cls-10,.cls-11,.cls-12,.cls-2,.cls-3,.cls-4,.cls-5,.cls-6,.cls-7,.cls-8,.cls-9{fill:none;}.cls-1,.cls-13,.cls-2{stroke:#3d4352;}.cls-1,.cls-13,.cls-2,.cls-7{stroke-linecap:round;stroke-linejoin:round;}.cls-1,.cls-13,.cls-7{stroke-width:0.75px;}.cls-2{stroke-width:0.5px;}.cls-10,.cls-11,.cls-12,.cls-3,.cls-4,.cls-5,.cls-6,.cls-8,.cls-9{stroke-miterlimit:10;}.cls-3{stroke:url(#Sfumatura_senza_nome_45);}.cls-4{stroke:url(#Sfumatura_senza_nome_68);}.cls-5{stroke:url(#Sfumatura_senza_nome_68-2);}.cls-6{stroke:url(#Sfumatura_senza_nome_16);}.cls-7{stroke:#491cde;}.cls-8{stroke:url(#Sfumatura_senza_nome_16-2);}.cls-9{stroke:url(#Sfumatura_senza_nome_16-3);}.cls-10{stroke:url(#Sfumatura_senza_nome_16-4);}.cls-11{stroke:url(#Sfumatura_senza_nome_16-5);}.cls-12{stroke:url(#Sfumatura_senza_nome_30);}.cls-13{fill:#3d4352;}</style><linearGradient id="Sfumatura_senza_nome_45" x1="38.11" y1="65.7" x2="52.41" y2="65.7" gradientUnits="userSpaceOnUse"><stop offset="0" stop-color="#161c2d"/><stop offset="0.33" stop-color="#1e2435"/><stop offset="0.83" stop-color="#343a49"/><stop offset="1" stop-color="#3d4352"/></linearGradient><linearGradient id="Sfumatura_senza_nome_68" x1="47.46" y1="61.38" x2="56.47" y2="61.38" xlink:href="#Sfumatura_senza_nome_45"/><linearGradient id="Sfumatura_senza_nome_68-2" x1="45.39" y1="65.77" x2="45.39" y2="61.38" xlink:href="#Sfumatura_senza_nome_45"/><linearGradient id="Sfumatura_senza_nome_16" x1="34.28" y1="61.79" x2="43.32" y2="61.79" gradientUnits="userSpaceOnUse"><stop offset="0" stop-color="#3d4352"/><stop offset="0.17" stop-color="#343a49"/><stop offset="0.67" stop-color="#1e2435"/><stop offset="1" stop-color="#161c2d"/></linearGradient><linearGradient id="Sfumatura_senza_nome_16-2" x1="43.99" y1="20.7" x2="55.46" y2="20.7" xlink:href="#Sfumatura_senza_nome_16"/><linearGradient id="Sfumatura_senza_nome_16-3" x1="48.81" y1="23.74" x2="61.03" y2="23.74" xlink:href="#Sfumatura_senza_nome_16"/><linearGradient id="Sfumatura_senza_nome_16-4" x1="53.41" y1="28.23" x2="63.38" y2="28.23" xlink:href="#Sfumatura_senza_nome_16"/><linearGradient id="Sfumatura_senza_nome_16-5" x1="38.26" y1="19.01" x2="43.56" y2="19.01" xlink:href="#Sfumatura_senza_nome_16"/><linearGradient id="Sfumatura_senza_nome_30" x1="35.67" y1="24.57" x2="35.67" y2="17.14" xlink:href="#Sfumatura_senza_nome_16"/></defs><title>Diego_3</title><path class="cls-1" d="M45.53,59.07a1.27,1.27,0,0,1-1.45-.23,9.22,9.22,0,0,0-2.38-1.66.75.75,0,0,0-.62,0"/><path class="cls-2" d="M47.61,57.8s.79-.9,1.54-.7"/><path class="cls-2" d="M40.95,57.61c-.06,0-1.85-.54-.78-2.54"/><path class="cls-2" d="M50,57.32a1.56,1.56,0,0,0,.13-2"/><path class="cls-3" d="M52,64.19s-1.67,2.66-6.3,2.77a11,11,0,0,1-7.24-2.53"/><path class="cls-4" d="M47.61,58.84s7.13,2.26,7.58,2.68a2.06,2.06,0,0,1,.5,2.68"/><path class="cls-5" d="M35.63,65.68a2.35,2.35,0,0,1,0-1,2.25,2.25,0,0,1,2.2-1.71,14.39,14.39,0,0,0,5.37-.72,8.66,8.66,0,0,1,4.57-.06,19.59,19.59,0,0,0,5.81.84,1.6,1.6,0,0,1,1.6,1.63v.08"/><path class="cls-6" d="M43.14,58.81s-6.7,2.71-7.55,3.42c-.51.43-1.2,1.1-.53,2.83"/><path class="cls-7" d="M37.16,64.38c.17,0,.71-.46,4.42-.21a14.31,14.31,0,0,0,6.67.21,17.6,17.6,0,0,1,5-.75"/><path class="cls-8" d="M44.47,23.07s2.22-7.77,10.73-2.63"/><path class="cls-9" d="M49.16,23.13s2.06-2,7.22,1.35a4.29,4.29,0,0,0,4.35-.35"/><path class="cls-10" d="M53.87,25.51s2.05,5.09,9.5,5.13"/><path class="cls-11" d="M39.83,23.45s-4.09-8.23,3.7-8.6"/><path class="cls-12" d="M36.71,24.22s-4-3.9-.52-6.69"/><path class="cls-13" d="M48.12,44.6H42.19s-6-3.84-15.72,0V45.7S27.82,46,28,48.16c0,0,.34,7.53,6.88,7.56,0,0,5.8.32,7.68-4.72,0,0,.6-1.84.95-3.5,0,0-1.26-1.22-.17-1.66H47c1.09.44-.17,1.66-.17,1.66.34,1.66.95,3.5.95,3.5,1.88,5,7.68,4.72,7.68,4.72,6.53,0,6.88-7.56,6.88-7.56.19-2.19,1.53-2.47,1.53-2.47V44.6C54.12,40.76,48.12,44.6,48.12,44.6Zm-13,10.72c-7.25,0-6.32-8.75-6.32-8.75.24-3.15,6.17-3,6.17-3,6.62,0,7.3,3.44,7.3,3.44C42.29,55.75,35.14,55.32,35.14,55.32Zm20,0S48,55.75,48,47c0,0,.68-3.44,7.3-3.44,0,0,5.93-.1,6.17,3C61.5,46.57,62.43,55.32,55.18,55.32Z"/></svg>