<svg id="Livello_1" data-name="Livello 1" xmlns="http://www.w3.org/2000/svg" xmlns:xlink="http://www.w3.org/1999/xlink" viewBox="0 0 90.88 90.88"><defs><style>.cls-1{fill:url(#Sfumatura_senza_nome);}.cls-2{fill:url(#Sfumatura_senza_nome_10);}.cls-3{fill:#fff;}.cls-4{fill:#3d4352;}.cls-5{fill:url(#Sfumatura_senza_nome-2);}.cls-6{fill:#491cde;}</style><linearGradient id="Sfumatura_senza_nome" x1="60.64" y1="8.77" x2="60.64" y2="40.39" gradientTransform="matrix(1, 0, 0, -1, 0, 92.39)" gradientUnits="userSpaceOnUse"><stop offset="0" stop-color="#161c2d"/><stop offset="0.33" stop-color="#1e2435"/><stop offset="0.83" stop-color="#343a49"/><stop offset="1" stop-color="#3d4352"/></linearGradient><linearGradient id="Sfumatura_senza_nome_10" x1="65.92" y1="9.65" x2="65.92" y2="31.37" gradientTransform="matrix(1, 0, 0, -1, 0, 92.39)" gradientUnits="userSpaceOnUse"><stop offset="0" stop-color="#3d4352"/><stop offset="0.17" stop-color="#343a49"/><stop offset="0.67" stop-color="#1e2435"/><stop offset="1" stop-color="#161c2d"/></linearGradient><linearGradient id="Sfumatura_senza_nome-2" x1="31.21" y1="45.42" x2="31.21" y2="53.12" xlink:href="#Sfumatura_senza_nome"/></defs><title>Erika_3</title><path class="cls-1" d="M60.35,83.61,60,82.67a9.31,9.31,0,0,0,2.66-1.33,4.6,4.6,0,0,0,1.66-2.79,7,7,0,0,0-.51-3.66,20.51,20.51,0,0,0-3.26-5.1,26.19,26.19,0,0,1-2.85-4.24A18.87,18.87,0,0,1,56.7,52l1,.29a18.1,18.1,0,0,0,.85,12.81,25.39,25.39,0,0,0,2.77,4.09,21.61,21.61,0,0,1,3.43,5.37,7.87,7.87,0,0,1,.56,4.2,5.58,5.58,0,0,1-2,3.36A10.07,10.07,0,0,1,60.35,83.61Z"/><path class="cls-2" d="M63.89,82.73l-.19-1c1.53-.29,2.95-2.3,3.45-4.9a8.71,8.71,0,0,0,.17-2.19,11.79,11.79,0,0,0-1-3.68l-1.77-4.41a10,10,0,0,1-1-5.54l1,.19a9.11,9.11,0,0,0,.91,5l1.78,4.42a12.75,12.75,0,0,1,1.08,4,9.75,9.75,0,0,1-.18,2.44C67.55,80.07,65.84,82.36,63.89,82.73Z"/><path class="cls-3" d="M35.76,36.94a.5.5,0,0,1-.33-.88C35.5,36,42.24,30.25,48,35.4a.5.5,0,0,1-.67.75c-5.1-4.56-11,.45-11.26.67A.5.5,0,0,1,35.76,36.94Z"/><path class="cls-3" d="M21.55,38.89a.5.5,0,0,1-.4-.8c2.71-3.66,8.2-1.3,8.44-1.19a.5.5,0,1,1-.4.92h0s-5-2.14-7.23.87A.5.5,0,0,1,21.55,38.89Z"/><path class="cls-4" d="M33.07,51.91A1.29,1.29,0,0,1,32,51.27a1.35,1.35,0,0,0-1-.49.25.25,0,0,1,0-.5h0a1.83,1.83,0,0,1,1.46.74.79.79,0,0,0,.67.39h0a.25.25,0,0,1,0,.5Z"/><path class="cls-4" d="M34.64,51.09a.25.25,0,0,1-.21-.38,2.13,2.13,0,0,1,1.89-.89.25.25,0,1,1,0,.5,1.59,1.59,0,0,0-1.44.66A.25.25,0,0,1,34.64,51.09Z"/><path class="cls-5" d="M31.55,47l-1-.12c.71-5.69,0-7,0-7l.82-.58C31.5,39.48,32.29,40.9,31.55,47Z"/><path class="cls-4" d="M37.05,51A.25.25,0,0,1,37,50.5a1.52,1.52,0,0,0,1.12-1.83l0-.12a.25.25,0,0,1,.48-.15,2,2,0,0,1-1.32,2.5l-.07,0Z"/><path class="cls-4" d="M30.45,51.27a.25.25,0,0,1-.16-.06,1.89,1.89,0,0,1-.42-2.28.25.25,0,0,1,.45.22,1.41,1.41,0,0,0,.29,1.68.25.25,0,0,1-.16.44Z"/><path class="cls-6" d="M34.82,57a5.13,5.13,0,0,1-2-.39,1.41,1.41,0,0,0-.73,0A2.93,2.93,0,0,1,29.73,56a.37.37,0,1,1,.43-.61h0a2.2,2.2,0,0,0,1.83.43,2.08,2.08,0,0,1,1.11.07,4.48,4.48,0,0,0,3.74-.15l.27-.13a2.23,2.23,0,0,1,1.28-.27,7.28,7.28,0,0,0,3.47-1,.37.37,0,1,1,.37.65,8.06,8.06,0,0,1-3.85,1.14,1.54,1.54,0,0,0-.93.18l-.31.15A5.56,5.56,0,0,1,34.82,57Z"/><path class="cls-6" d="M35.09,58.55c-3.92,0-5-2.5-5.07-2.61a.25.25,0,0,1,.46-.2c0,.1,1.1,2.5,5.07,2.29A7.51,7.51,0,0,0,41.3,54.8a.25.25,0,1,1,.44.23l0,0a7.87,7.87,0,0,1-6.16,3.47h-.46Z"/><path class="cls-6" d="M42,55.48v-.37a.43.43,0,0,0-.19-.3l-.32-.2.4-.63.32.2a1.18,1.18,0,0,1,.53.84v.37Z"/><path class="cls-4" d="M43.31,54.81h-.07a.25.25,0,0,1-.17-.31.87.87,0,0,0-.12-.72.25.25,0,0,1,.41-.29,1.37,1.37,0,0,1,.2,1.14A.25.25,0,0,1,43.31,54.81Z"/><path class="cls-6" d="M29.55,56.73l-.17-.33a.84.84,0,0,1,.6-1.19l.34-.05.1.69-.33.1h0l.17.33Z"/><path class="cls-6" d="M30.32,56.15a.25.25,0,0,1-.11-.48A5.92,5.92,0,0,1,34.09,55a1.43,1.43,0,0,0,1.28,0l.23-.08a5.33,5.33,0,0,1,1.66-.37h4.46a.25.25,0,0,1,0,.5H37.26a4.78,4.78,0,0,0-1.49.26l-.22.08a1.92,1.92,0,0,1-1.63,0,5.42,5.42,0,0,0-3.49.66Z"/></svg>