<svg id="Livello_1" data-name="Livello 1" xmlns="http://www.w3.org/2000/svg" xmlns:xlink="http://www.w3.org/1999/xlink" viewBox="0 0 90.88 90.88"><defs><style>.cls-1{fill:url(#Sfumatura_senza_nome_10);}.cls-2{fill:#491cde;}.cls-3{fill:url(#Sfumatura_senza_nome_11);}.cls-4{fill:url(#Sfumatura_senza_nome_12);}.cls-5{fill:#fff;}</style><linearGradient id="Sfumatura_senza_nome_10" x1="48.2" y1="23.07" x2="55.38" y2="23.07" gradientTransform="matrix(1, 0, 0, -1, 0, 92.39)" gradientUnits="userSpaceOnUse"><stop offset="0" stop-color="#3d4352"/><stop offset="0.17" stop-color="#343a49"/><stop offset="0.67" stop-color="#1e2435"/><stop offset="1" stop-color="#161c2d"/></linearGradient><linearGradient id="Sfumatura_senza_nome_11" x1="20.15" y1="66.42" x2="30.02" y2="66.42" xlink:href="#Sfumatura_senza_nome_10"/><linearGradient id="Sfumatura_senza_nome_12" x1="49.07" y1="40.2" x2="55.39" y2="40.2" xlink:href="#Sfumatura_senza_nome_10"/></defs><title>Erika_2</title><path class="cls-1" d="M54,81.24a5.26,5.26,0,0,1-.84-.07,5.79,5.79,0,0,1-4.07-2.78A6.41,6.41,0,0,1,48.53,73a20.12,20.12,0,0,1,2-3.89c.28-.47.56-.94.82-1.41a25.07,25.07,0,0,0,3.07-10.34l1,.07a26.08,26.08,0,0,1-3.19,10.76c-.27.49-.55,1-.84,1.44a19.07,19.07,0,0,0-1.87,3.69,5.41,5.41,0,0,0,.5,4.52,4.81,4.81,0,0,0,3.38,2.31,4.31,4.31,0,0,0,.86.05v1Z"/><path class="cls-2" d="M45.39,40.26A.38.38,0,0,1,45,40a2.79,2.79,0,0,0-2.33-2.13.38.38,0,0,1-.34-.41.37.37,0,0,1,.4-.34h0a3.54,3.54,0,0,1,3,2.69.38.38,0,0,1-.27.46Z"/><path class="cls-2" d="M24.26,43.27A.38.38,0,0,1,23.9,43a2.72,2.72,0,0,1,1.36-3.09.38.38,0,0,1,.34.67,2,2,0,0,0-1,2.24.38.38,0,0,1-.27.46Z"/><path class="cls-2" d="M40.37,41.34a12.75,12.75,0,0,1-1.43-.07.25.25,0,0,1-.22-.28h0a.25.25,0,0,1,.28-.22h0s3.93.46,5.59-1.05a.25.25,0,0,1,.34.37h0C43.77,41.14,41.74,41.34,40.37,41.34Z"/><path class="cls-2" d="M26.19,43.67a4.7,4.7,0,0,1-2-.37c-.17-.08-.27-.15-.29-.28a.25.25,0,0,1,.44-.21c.31.21,2.34.92,5.07-.5a.25.25,0,0,1,.28.41l-.05,0A7.53,7.53,0,0,1,26.19,43.67Z"/><path class="cls-3" d="M21.15,32.19h-1c0-10.12,9.55-12.44,9.65-12.46l.23,1C29.66,20.79,21.16,22.88,21.15,32.19Z"/><path class="cls-4" d="M50,57.1l-.89-.46A11.6,11.6,0,0,0,50.55,52a1.06,1.06,0,0,1,1.12-1h0c1.15,0,2.15-1.28,2.72-3.76l1,.23c-.94,4-2.74,4.59-3.74,4.53a.07.07,0,0,0-.07.08A12.49,12.49,0,0,1,50,57.1Z"/><path class="cls-2" d="M38,41.23a.49.49,0,0,1-.21,0,.5.5,0,0,1-.26-.66v0a4.8,4.8,0,0,1,3.92-2.62A4.31,4.31,0,0,1,45,39.43a5,5,0,0,0,1.06-.12.51.51,0,1,1,.23,1,6.09,6.09,0,0,1-1.56.14.5.5,0,0,1-.37-.2,3.32,3.32,0,0,0-2.8-1.3,3.81,3.81,0,0,0-3.1,2A.5.5,0,0,1,38,41.23Z"/><path class="cls-2" d="M23.78,43.47a1.47,1.47,0,0,1-.6-.12.5.5,0,0,1,.4-.91.59.59,0,0,0,.29,0,3.59,3.59,0,0,1,2.07-2,6.19,6.19,0,0,1,4.57.67A.5.5,0,0,1,30,42a5.24,5.24,0,0,0-3.75-.57h0A2.56,2.56,0,0,0,24.74,43a.5.5,0,0,1-.33.34A2.17,2.17,0,0,1,23.78,43.47Z"/><path class="cls-5" d="M36.3,67.82a8.72,8.72,0,0,1-7.45-4.14l-.09-.13c-1.21-2.17-2.21-3.88-3.21-5.39-2.84-4.53-4.71-7.53-4.44-14.48a8.82,8.82,0,0,0-.25-2.33c-.11-.48-.23-.93-.35-1.37a23.47,23.47,0,0,1-.83-8.88l.06-1,2,.12-.06,1a21.5,21.5,0,0,0,.77,8.24c.13.47.25.93.37,1.44a10.78,10.78,0,0,1,.3,2.86c-.25,6.34,1.31,8.82,4.14,13.34,1,1.53,2,3.27,3.22,5.43l.07.1a6.83,6.83,0,0,0,6,3.2c9-.35,13-11.23,13-11.34l.33-.94,1.88.67-.33.94c-.18.5-4.46,12.28-14.79,12.67Z"/></svg>