<?xml version="1.0" encoding="UTF-8"?>
<svg width="220px" height="247px" viewBox="0 0 220 247" version="1.1" xmlns="http://www.w3.org/2000/svg" xmlns:xlink="http://www.w3.org/1999/xlink">
    <!-- Generator: Sketch 47.1 (45422) - http://www.bohemiancoding.com/sketch -->
    <title>Erika</title>
    <desc>Created with Sketch.</desc>
    <defs>
        <linearGradient x1="48.0056203%" y1="100%" x2="48.0056203%" y2="0%" id="linearGradient-1">
            <stop stop-color="#161C2D" offset="0%"></stop>
            <stop stop-color="#1E2435" offset="33%"></stop>
            <stop stop-color="#343A49" offset="83%"></stop>
            <stop stop-color="#3D4352" offset="100%"></stop>
        </linearGradient>
        <linearGradient x1="50.013975%" y1="100%" x2="50.013975%" y2="0%" id="linearGradient-2">
            <stop stop-color="#3D4352" offset="0%"></stop>
            <stop stop-color="#343A49" offset="17%"></stop>
            <stop stop-color="#1E2435" offset="67%"></stop>
            <stop stop-color="#161C2D" offset="100%"></stop>
        </linearGradient>
        <linearGradient x1="0.0139749963%" y1="50%" x2="100.013975%" y2="50%" id="linearGradient-3">
            <stop stop-color="#3D4352" offset="0%"></stop>
            <stop stop-color="#343A49" offset="17%"></stop>
            <stop stop-color="#1E2435" offset="67%"></stop>
            <stop stop-color="#161C2D" offset="100%"></stop>
        </linearGradient>
        <linearGradient x1="50.013975%" y1="0%" x2="50.013975%" y2="100%" id="linearGradient-4">
            <stop stop-color="#3D4352" offset="0%"></stop>
            <stop stop-color="#343A49" offset="17%"></stop>
            <stop stop-color="#1E2435" offset="67%"></stop>
            <stop stop-color="#161C2D" offset="100%"></stop>
        </linearGradient>
        <linearGradient x1="100.013975%" y1="50%" x2="0.0139749963%" y2="50%" id="linearGradient-5">
            <stop stop-color="#3D4352" offset="0%"></stop>
            <stop stop-color="#343A49" offset="17%"></stop>
            <stop stop-color="#1E2435" offset="67%"></stop>
            <stop stop-color="#161C2D" offset="100%"></stop>
        </linearGradient>
    </defs>
    <g id="Symbols" stroke="none" stroke-width="1" fill="none" fill-rule="evenodd">
        <g id="Erika" fill-rule="nonzero">
            <g id="Shape">
                <path d="M73.6415689,92.9999156 C72.9581919,93.006864 72.343507,92.5842288 72.103545,91.9424258 C71.863583,91.3006227 72.0496292,90.5768198 72.5690575,90.1313739 C72.7965599,89.9357915 94.7017927,71.192479 113.454492,87.9799676 C114.127596,88.5830635 114.1858,89.6192518 113.584493,90.2943591 C112.983187,90.9694664 111.950073,91.0278432 111.276969,90.4247475 C94.7017927,75.5604857 75.5265889,91.8916154 74.6815799,92.6087508 C74.391479,92.857611 74.0232867,92.996094 73.6415689,92.9999156 Z" fill="#FFFFFF"></path>
                <path d="M27.6399604,98.9996869 C27.0187928,98.9996869 26.4509383,98.6605713 26.1731437,98.1237223 C25.8953491,97.5868734 25.9552991,96.9444435 26.3279996,96.4642712 C35.216534,84.8647447 53.2231958,92.3442208 54.0103723,92.6928405 C54.8436346,93.0429083 55.2254348,93.9794023 54.8631468,94.7845584 C54.5008588,95.5897144 53.5316738,95.9586363 52.6984115,95.6085685 C52.6984115,95.6085685 36.2989016,88.8263316 28.9847202,98.365833 C28.6681441,98.7739063 28.1676568,99.0098115 27.6399604,98.9996869 Z" fill="#FFFFFF"></path>
                <path d="M105.741458,103 C105.198703,102.990692 104.727349,102.629933 104.58458,102.114564 C103.743604,98.5621331 100.767826,95.8851972 97.0970034,95.3789273 C96.4344421,95.3122628 95.9483612,94.7354602 96.0043958,94.0823963 C96.0285772,93.7656366 96.1825982,93.4721658 96.4310787,93.269397 C96.6795592,93.0666282 97.0011405,92.9719909 97.3219521,93.0072242 C102.021932,93.5908629 105.862406,96.979536 106.962608,101.513733 C107.125885,102.150457 106.739496,102.798244 106.094949,102.968377 L105.741458,103 Z" fill="#491CDE"></path>
                <path d="M36.3809567,113 C35.8605195,112.990446 35.4085475,112.620177 35.2716486,112.09122 C34.2915309,108.129091 36.0264742,103.977105 39.4623682,102.062183 C40.011877,101.871387 40.6113059,102.131941 40.8731373,102.675402 C41.1349687,103.218863 40.9806939,103.882278 40.5100482,104.236764 C38.0268424,105.634298 36.7585387,108.626717 37.4286367,111.507004 C37.5851993,112.160516 37.214699,112.825381 36.5966555,113 L36.3809567,113 Z" fill="#491CDE"></path>
                <path d="M90.5125771,105.999003 C88.9188659,106.009287 87.3257632,105.940005 85.740802,105.791483 C85.5188743,105.769263 85.316242,105.668913 85.1782622,105.512898 C85.0402824,105.356882 84.9784779,105.158229 85.0066828,104.961405 C85.0316946,104.764241 85.1446474,104.584219 85.320258,104.461635 C85.4958687,104.339051 85.7194718,104.284143 85.9410164,104.309201 C85.9410164,104.309201 99.0550555,105.672901 104.594319,101.196408 C104.814869,101.016354 105.126787,100.954511 105.412577,101.034174 C105.698367,101.113837 105.914611,101.322902 105.979851,101.582618 C106.045091,101.842334 105.949417,102.113243 105.728867,102.293297 C101.858056,105.40609 95.0841378,105.999003 90.5125771,105.999003 Z" fill="#491CDE"></path>
                <path d="M42.7693876,114.991734 C40.4470945,115.060339 38.1350717,114.701206 35.9957106,113.939559 C35.419948,113.712062 35.0812642,113.513002 35.0135274,113.143319 C34.9311279,112.758857 35.2336095,112.390593 35.6908951,112.318641 C35.9909165,112.265278 36.3018523,112.352302 36.5037364,112.546138 C37.5536563,113.143319 44.4289384,115.162357 53.6750075,111.12428 C53.9444709,110.969406 54.2959883,110.958442 54.5783944,111.096103 C54.8608006,111.233764 55.0237548,111.495511 54.9971809,111.768784 C54.970607,112.042057 54.7592419,112.278142 54.4539804,112.375515 C50.8652536,114.021535 46.8577326,114.918833 42.7693876,114.991734 Z" fill="#491CDE"></path>
                <path d="M65.1787072,141 C63.7877349,140.995351 62.5031551,140.248445 61.8022814,139.03681 C61.0500311,138.11776 59.9416271,137.57006 58.7604563,137.533742 C58.3404679,137.533742 58,137.190402 58,136.766871 C58,136.34334 58.3404679,136 58.7604563,136 L58.7604563,136 C60.5125685,136.009642 62.1579236,136.850624 63.2015209,138.269939 C63.6267961,139.000542 64.3995415,139.454144 65.2395437,139.466258 L65.2395437,139.466258 C65.6595321,139.466258 66,139.809598 66,140.233129 C66,140.65666 65.6595321,141 65.2395437,141 L65.1787072,141 Z" fill="#3D4352"></path>
                <path d="M70.7927114,138.993729 C70.5041489,138.989766 70.2399002,138.835564 70.1003126,138.58968 C69.9607251,138.343796 69.9672108,138.043948 70.117307,137.804002 C71.5043706,135.905273 73.8088242,134.848905 76.1959471,135.017537 C76.6400132,135.017537 77,135.36797 77,135.800252 C77,136.232533 76.6400132,136.582967 76.1959471,136.582967 C74.3845028,136.420854 72.6209554,137.207696 71.5646022,138.649334 C71.3956265,138.897806 71.0963756,139.031323 70.7927114,138.993729 Z" fill="#3D4352"></path>
                <path d="M60.0479759,126 L57,125.594805 C59.1640629,106.381818 57,101.958442 57,101.958442 L59.4993402,100 C59.8955771,100.742857 62.3034781,105.537662 60.0479759,126 Z" fill="url(#linearGradient-1)"></path>
                <path d="M77.8028043,139 C77.4140121,138.988192 77.0859421,138.711335 77.0142582,138.334549 C76.9425742,137.957763 77.1465931,137.582583 77.5046364,137.432768 C78.8713941,137.109364 80.0387998,136.237702 80.7246221,135.028515 C81.4104444,133.819328 81.552259,132.382677 81.115781,131.065887 C81.0270101,130.785928 81.0965303,130.480561 81.2981541,130.264816 C81.4997779,130.04907 81.8028738,129.955722 82.0932685,130.019936 C82.3836632,130.084149 82.6172389,130.296168 82.7060099,130.576127 C83.2356015,132.269408 83.0442644,134.102093 82.1759068,135.653616 C81.3075492,137.205138 79.8367294,138.342282 78.1009722,138.804096 L77.8028043,139 Z" fill="#3D4352"></path>
                <path d="M57.2856146,140 C57.1161409,139.998109 56.9526722,139.929602 56.8238742,139.806491 C54.9641565,137.952642 54.4652504,134.925894 55.6118059,132.453153 C55.7871268,132.052383 56.2199639,131.886329 56.5785747,132.082261 C56.9371855,132.278193 57.0857713,132.761916 56.9104505,133.162686 C56.0701786,134.974075 56.4123256,137.189188 57.7473549,138.580935 C57.9759591,138.799378 58.0593165,139.153397 57.9565285,139.469295 C57.8537404,139.785193 57.5863756,139.996684 57.2856146,140 L57.2856146,140 Z" fill="#3D4352"></path>
                <path d="M71.1573353,158.999531 C68.9145473,159.016596 66.6912362,158.567756 64.6189572,157.679569 C63.8372476,157.46268 63.0141588,157.46268 62.2324492,157.679569 C59.5169755,158.231229 56.7037404,157.540132 54.5171631,155.78424 C53.9664787,155.382358 53.8347488,154.594403 54.2229363,154.024291 C54.6111237,153.45418 55.3722298,153.317803 55.9229144,153.719685 C57.606451,155.106835 59.8014447,155.640794 61.9055303,155.175027 C63.1134783,154.911525 64.3679269,154.993425 65.5343302,155.411943 C69.4862201,157.097893 73.9523191,156.912453 77.7610971,154.904266 L78.6437781,154.464279 C79.919027,153.733439 81.3766102,153.415133 82.8283401,153.550459 C86.8242563,153.426553 90.7256455,152.26257 94.172426,150.165942 C94.759221,149.820137 95.5056905,150.032279 95.8397123,150.639775 C96.1737341,151.24727 95.9688209,152.020073 95.3820259,152.365878 C91.5681312,154.730612 87.2383218,156.057913 82.7956482,156.224227 C81.7455448,156.091557 80.6817558,156.304715 79.7553024,156.83344 L78.7418538,157.341118 C76.3582777,158.452099 73.7712824,159.017765 71.1573353,158.999531 L71.1573353,158.999531 Z" fill="#491CDE"></path>
                <path d="M72.8649659,163 C59.878823,163 56.3010081,155.276856 56.0691127,154.937037 C55.8861524,154.544623 56.0789667,154.088198 56.4997757,153.917583 C56.9205846,153.746968 57.4100364,153.926772 57.5929968,154.319186 C57.5929968,154.628112 61.2370675,162.04233 74.3888501,161.393586 C82.0486104,160.984366 89.0774541,157.30241 93.4374016,151.415284 C93.5850611,151.151166 93.8824317,150.989771 94.2016331,151.000504 C94.5208346,151.011238 94.8049674,151.192186 94.931844,151.465536 C95.0587206,151.738885 95.0057246,152.055909 94.7956461,152.280276 C90.1942348,158.662055 82.6263316,162.637487 74.3888501,163 L72.831838,163 L72.8649659,163 Z" fill="#491CDE"></path>
                <path d="M94.632,154 L94.632,152.766667 C94.5771002,152.357658 94.3555052,151.993193 94.024,151.766667 L93,151.1 L94.28,149 L95.304,149.666667 C96.2372558,150.29464 96.8576507,151.318877 97,152.466667 L97,153.7 L94.632,154 Z" fill="#491CDE"></path>
                <path d="M99.1553307,151.9993 L98.9561937,151.9993 C98.5791182,151.863776 98.3625948,151.377238 98.4725752,150.912586 C98.6645503,150.050272 98.5397534,149.127584 98.1311974,148.388604 C97.903381,147.991713 97.979801,147.442396 98.3018863,147.161668 C98.6239716,146.880941 99.069755,146.97511 99.2975715,147.372 C99.9569744,148.535136 100.165251,149.998038 99.8665345,151.368305 C99.7752827,151.755016 99.4818949,152.015316 99.1553307,151.9993 Z" fill="#3D4352"></path>
                <path d="M53.9020422,158 L53.2966942,156.949045 C52.8929692,156.199968 52.9016881,155.325575 53.3202861,154.583057 C53.7388842,153.840539 54.5197549,153.314341 55.4332168,153.159236 L56.6439129,153 L57,155.197452 L55.8249126,155.515924 L56.4302606,156.566879 L53.9020422,158 Z" fill="#491CDE"></path>
                <path d="M56.8604252,155.998965 C56.4636202,156.018369 56.1095317,155.762985 56.0207786,155.393377 C55.9320256,155.023768 56.134249,154.646715 56.5003091,154.499276 C60.3601142,152.438792 64.8422506,151.700143 69.202588,152.405959 C70.5214285,153.035877 72.0741902,153.035877 73.3930306,152.405959 L74.1460007,152.156011 C75.8809839,151.495559 77.7158305,151.105255 79.5804809,151 C87.5030364,151 94.1815542,151 94.1815542,151 L94.1815542,151 C94.6335693,151 95,151.349705 95,151.781088 C95,152.212471 94.6335693,152.562177 94.1815542,152.562177 C94.1815542,152.562177 87.6339877,152.562177 79.5804809,152.562177 C77.9196325,152.584173 76.2730446,152.858383 74.7025439,153.374508 L73.9823116,153.624457 C72.2918314,154.380799 70.3365251,154.380799 68.6460449,153.624457 C64.7029602,153.067555 60.6782424,153.793935 57.2205414,155.68653 L56.8604252,155.998965 Z" fill="#491CDE"></path>
                <path d="M170.890913,109 L164.936511,106.121701 L166.358952,103.144151 C167.898083,99.4254125 167.604176,95.1999947 165.565031,91.7302087 C163.322956,87.9249733 160.131347,84.7671897 156.302628,82.5659709 C147.834037,77.9856786 138.705366,74.7489733 129.243177,72.9716424 C126.497536,72.3099646 123.751895,71.6152028 121.006254,70.8873572 C113.242401,69.2838945 106.027414,65.6930772 100.066605,60.4659315 C98.2471985,58.8006203 96.8908508,56.6917653 96.1300836,54.3454116 C95.7052361,52.5702359 95.5601418,50.7396011 95.7000435,48.9196534 L95.7000435,48.5226467 C95.8963457,45.3136032 95.5610278,42.0941743 94.7076431,38.994486 C93.9777268,36.264382 92.2555074,33.9049009 89.8779611,32.3777078 L87,30.7565971 L90.3080013,25 L93.1859625,26.6211107 C96.9861832,28.9276607 99.7836092,32.5753653 101.025926,36.8440331 C102.117664,40.6466749 102.564917,44.6053281 102.349126,48.5557306 L102.349126,48.9196534 C102.244563,50.1030489 102.311413,51.2953443 102.547606,52.4596298 C103.011737,53.7317998 103.784717,54.8686678 104.797047,55.7680189 C109.910393,60.1470296 116.060366,63.1426451 122.660254,64.4690823 C125.339735,65.1969279 128.019216,65.8586058 130.731777,66.5202836 C140.838434,68.4644662 150.581192,71.969145 159.610629,76.9086254 C164.512695,79.7003661 168.587513,83.7414153 171.420194,88.620323 C174.497263,93.9500378 174.841495,100.429732 172.346434,106.055534 L170.890913,109 Z" fill="#491CDE"></path>
                <path d="M187.735951,208 L185.403437,205.671475 C185.403437,205.671475 199.332819,191.035031 193.058027,175.234324 C189.214306,165.521048 179.391463,158.602002 163.129566,147.192228 L156.986183,142.867825 C149.791525,137.612011 147.426158,129.295849 145.257906,121.21254 C142.728277,111.831911 140.36291,102.983515 131,97.9272888 L132.544059,95 C143.18821,100.721519 145.849247,110.667648 148.44458,120.314395 C150.547129,128.198116 152.55112,135.649397 158.858765,140.273182 L165.002148,144.597586 C181.75683,156.373271 191.875343,163.491905 196.08044,174.136591 C203.17654,191.833382 188.360145,207.467766 187.735951,208 Z" fill="url(#linearGradient-2)"></path>
                <path d="M143.625351,54 L143.231043,50.6711448 C141.997376,41.3775416 137.20565,32.9481658 129.890283,27.2027158 C123.00491,22.1071464 115.017532,18.7517358 106.593241,17.4158815 C100.958242,16.1392588 95.3966957,14.550112 89.9337199,12.6556186 C86.3192282,11.4905193 82.9018906,10.3587085 79.5831301,9.32676341 C71.4170198,6.75275344 62.807818,5.94749506 54.3145473,6.96327623 C45.7517076,8.25427489 38.1506554,13.2140691 33.4490725,20.5782939 C31.3962322,24.6990879 30.4124411,29.281393 30.5903382,33.8937147 C31.1698326,36.9720359 32.4777794,39.8620036 34.401984,42.3157183 L36.2749479,45.0453796 L30.8532103,48.9734287 L28.9802464,46.2437674 C26.4019418,42.8761481 24.7064012,38.902524 24.0513941,34.6926399 C23.7151913,28.5912747 25.0333351,22.5130173 27.8630399,17.1162845 C33.5670121,8.1351155 42.8074493,2.07214329 53.2301998,0.47200862 C62.6538708,-0.659220987 72.2072276,0.248468506 81.2589399,3.13509277 C84.5448414,4.06717222 88.3564872,5.26556009 91.9052609,6.46394795 C97.1331352,8.27177429 102.452989,9.79413954 107.841883,11.0244796 C117.278131,12.5536752 126.214194,16.3551981 133.899082,22.1095673 C142.512211,28.9309797 148.149467,38.8952676 149.605692,49.8722196 L150,53.2010748 L143.625351,54 Z" fill="#491CDE"></path>
                <path d="M211.230275,193 L205.318101,190.129897 L206.763299,187.160825 C208.569797,183.43299 213.332381,172.480412 213.332381,166.509278 C213.259426,162.526911 211.886182,158.678847 209.423777,155.556701 C206.971579,152.636696 204.118293,150.081896 200.949661,147.969072 L183.902892,135.43299 C181.763235,134.009782 179.875908,132.236822 178.319172,130.187629 C176.324635,127.366948 175.277605,123.980934 175.330239,120.521649 C175.64184,117.377577 176.544637,114.321454 177.990718,111.515464 C178.769414,109.917835 179.396256,108.249959 179.862906,106.534021 C180.285677,104.49516 180.385441,102.402059 180.158515,100.331959 C179.028228,90.5859902 174.54381,81.5427509 167.480186,74.7649485 C163.600231,71.0643271 159.462134,67.6467014 155.097465,64.5381443 C152.042842,62.2618557 148.889682,59.8865979 145.835059,57.2804124 C139.81679,52.0342321 134.466321,46.0619216 129.905034,39.4989691 L128,36.7938144 L133.386648,33 L135.291682,35.7051546 C139.547486,41.794692 144.533719,47.3346658 150.137808,52.2 C152.995359,54.6742268 156.049982,56.9505155 159.038915,59.1938144 C163.669606,62.4813962 168.060201,66.0974989 172.17708,70.014433 C180.399856,77.8577765 185.580115,88.3807272 186.793288,99.7051546 C187.021616,102.481075 186.810988,105.275799 186.169225,107.985567 C185.618362,110.122646 184.859253,112.20003 183.902892,114.187629 C182.81436,116.242718 182.102344,118.47754 181.800785,120.785567 C181.864224,122.742814 182.504344,124.637165 183.640129,126.228866 C184.798654,127.686602 186.185275,128.945614 187.745805,129.956701 L204.89111,142.624742 C208.584512,145.090113 211.903421,148.07914 214.744734,151.498969 C218.112039,155.787605 219.96112,161.080633 220,166.542268 C220,175.218557 213.102463,189.437113 212.806855,190.030928 L211.230275,193 Z" fill="#491CDE"></path>
                <path d="M135.382412,239 C134.447527,238.997268 133.51437,238.919731 132.591926,238.768134 C126.934401,237.86011 121.977527,234.484156 119.071362,229.559748 C115.831859,224.216827 115.114978,217.72304 117.111378,211.805451 C118.849854,207.282429 121.077686,202.961865 123.75539,198.920335 C124.685552,197.363522 125.615714,195.806709 126.479435,194.249895 C132.330956,183.706313 135.811009,172.019224 136.677994,160 L140,160.231866 C139.10349,172.738268 135.487374,184.900189 129.402801,195.872956 C128.505859,197.496017 127.575697,199.185325 126.612315,200.642767 C124.103225,204.48032 122.020256,208.578641 120.400164,212.865409 C118.721177,217.857022 119.32861,223.33229 122.061167,227.837317 C124.474253,231.928002 128.590646,234.733115 133.289548,235.488889 C134.233919,235.639089 135.191007,235.694572 136.146473,235.654507 L136.146473,238.966876 L135.382412,239 Z" fill="url(#linearGradient-3)"></path>
                <path d="M154.56672,247 L153.424843,243.908286 C156.531417,242.928355 159.461547,241.451366 162.103107,239.533839 C164.954629,237.24024 166.879876,233.978099 167.518866,230.357369 C168.043825,226.266905 167.469174,222.109378 165.854988,218.319418 C163.152153,212.228496 159.567874,206.575553 155.219221,201.545225 C151.676443,197.213281 148.562251,192.54253 145.921081,187.59962 C139.373955,173.658313 138.210885,157.758734 142.658576,143 L145.921081,143.953827 C141.707917,157.867933 142.694395,172.855739 148.694211,186.086654 C151.265724,190.8562 154.292425,195.361599 157.73135,199.538899 C162.306697,204.836511 166.077813,210.788613 168.921743,217.201139 C170.771975,221.550846 171.40388,226.328705 170.748746,231.01518 C169.967118,235.371763 167.649727,239.296667 164.223736,242.066414 C161.297502,244.238003 158.0342,245.905163 154.56672,247 L154.56672,247 Z" fill="url(#linearGradient-4)"></path>
                <path d="M167.230106,244 L166.641286,240.731123 C171.382834,239.783149 175.783486,233.212707 177.333012,224.713628 C177.794332,222.360361 177.971352,219.954958 177.859851,217.554788 C177.452545,213.394148 176.405839,209.331191 174.7608,205.525322 L169.275479,191.109576 C166.619674,185.510635 165.544028,179.225006 166.176428,173 L169.275479,173.621087 C168.726618,179.241087 169.704728,184.909823 172.095616,189.96547 L177.611926,204.413904 C179.395991,208.55077 180.526573,212.967576 180.958902,217.489411 C181.091201,220.162256 180.903783,222.842036 180.401072,225.46547 C178.572632,235.304788 173.273255,242.790516 167.230106,244 Z" fill="url(#linearGradient-2)"></path>
                <path d="M156.275852,110 L153.505019,108.150594 C155.279609,104.84654 155.021345,100.835336 152.837348,97.7807133 C152.259384,96.8692607 151.525057,96.0645863 150.667419,95.4029062 C148.951266,94.3395769 147.02971,93.6421965 145.025602,93.3553501 L136.913403,91.6050198 C133.421254,91.2306747 130.218835,89.5102065 128,86.8163804 L130.804217,85 C132.550404,86.8665829 134.923737,88.0405083 137.480923,88.3025099 L145.593122,90.0528402 C148.073245,90.4277594 150.442019,91.3290444 152.536897,92.6948481 C153.718004,93.6120465 154.724157,94.7304179 155.508031,95.997358 C158.526827,100.108841 158.827359,105.589598 156.275852,110 Z" fill="url(#linearGradient-5)"></path>
                <path d="M19.8267659,105.996316 C10.6366857,105.587065 2.82812191,99.0769598 0.690618054,90.0422517 C-1.66460014,80.8595811 2.48974306,71.7429729 5.85901353,65.6652341 C10.5725641,57.1924833 16.3442697,49.3661282 23.0324795,42.3782456 L25.2895636,40 L30,44.5913353 L27.7429159,46.9695809 C21.4383258,53.5506982 15.9964758,60.9218441 11.5507908,68.9022906 C7.03662263,77.0609944 5.63003398,83.0726708 7.00391126,88.3906923 C8.44741871,95.1056446 14.5413502,99.7418531 21.3314886,99.2909847 L24.602625,98.8946105 L25.4204091,105.500848 L22.1492727,105.897223 C21.3778736,105.97866 20.6022186,106.011754 19.8267659,105.996316 L19.8267659,105.996316 Z" fill="#491CDE"></path>
                <path d="M26.7333617,138 L24.5587498,135.497969 C19.3600681,129.454102 14.1953647,122.890333 13.2099937,114.96182 C12.2053367,109.107735 14.8600386,103.230583 20.005656,99.9171405 L22.7239209,98 L26.76734,103.231519 L24.0490751,105.14866 C20.8706901,107.08031 19.263557,110.683684 20.005656,114.21446 C20.7531789,120.388302 25.1024027,125.847279 29.8253881,131.371243 L32,133.873274 L26.7333617,138 Z" fill="#491CDE"></path>
                <path d="M9.51243535,204 L7.87993104,201.175631 C4.61492243,195.986673 4.19047131,187.18515 6.28007682,177.693955 C10.0021866,160.97763 19.3401113,148.136602 26.9475814,137.660162 L28.8739365,135 L34,138.908139 L32.0736449,141.568301 C24.890626,151.420752 15.9118522,163.769158 12.4835932,179.138981 C10.7531386,186.922418 11.0796395,194.081866 13.2998454,197.825797 L14.9649997,200.650167 L9.51243535,204 Z" fill="#491CDE"></path>
                <path d="M41.8129837,225 L40.2429463,222.142381 C41.8310121,221.327989 43.1993879,220.147656 44.233458,218.70025 C46.1824193,215.460997 46.9341729,211.648995 46.3595503,207.919234 C45.814524,204.308951 44.7112203,200.803872 43.0886391,197.527893 L42.6961297,196.683597 C41.0795935,193.491088 39.8393549,190.124127 39,186.649459 L42.2709113,186 C43.0615078,189.239103 44.2248801,192.377141 45.7380772,195.352206 L46.1305866,196.196503 C47.9413557,199.760679 49.1775327,203.584881 49.7940072,207.529559 C50.4570595,212.037438 49.5080214,216.633466 47.1118599,220.518734 C45.7415178,222.420433 43.9220103,223.959192 41.8129837,225 Z" fill="url(#linearGradient-2)"></path>
                <path d="M19.0117178,222.999292 C15.7932127,223.029933 12.6444779,222.065984 10,220.240458 L11.8815674,217.547311 C16.7263935,220.432131 22.7912538,220.355909 27.5612962,217.350252 C29.6306707,216.323507 31.4285374,214.827225 32.8098791,212.982099 C34.767388,209.963386 35.7573533,206.42438 35.6487352,202.833533 C35.5282242,199.229407 34.906117,195.659302 33.8001777,192.225162 C33.1399786,189.958977 32.4467696,187.725636 31.7205505,185.656511 C30.0890733,180.848612 28.7551732,175.945784 27.726346,170.975576 C26.008441,162.998945 26.5222255,154.70631 29.2117939,147 L32.2817198,148.182357 C29.8196537,155.314362 29.3630789,162.980153 30.9613216,170.351554 C31.9783185,175.188675 33.2901364,179.95976 34.8895062,184.63837 C35.6157253,186.904555 36.3419443,189.170739 37.0021434,191.436924 C38.1971954,195.158161 38.8638384,199.027274 38.9827407,202.932063 C39.1572753,207.202661 38.0046231,211.423 35.6817452,215.018381 C33.9476531,217.247713 31.7079808,219.037155 29.145774,220.240458 C26.0460824,221.972585 22.5659455,222.919996 19.0117178,222.999292 Z" fill="url(#linearGradient-2)"></path>
                <path d="M61.9322312,34 C59.7923481,33.4420365 58.2299328,31.4974091 58.0534962,29.1724138 C57.8600561,27.220431 58.1936008,25.2504092 59.0154225,23.4909688 C60.8717359,18.8193423 64.6622555,15.3166564 69.2863128,14 L70,17.2840722 C66.3166852,18.3589996 63.3064036,21.1694244 61.8391416,24.9031199 C61.2308388,26.0670527 60.9306691,27.3831847 60.970305,28.7126437 C60.970305,29.8292282 61.746052,30.6502463 62.2735599,30.7487685 L61.9322312,34 Z" fill="url(#linearGradient-2)"></path>
                <path d="M70.0398743,34 C69.898985,32.7567467 70.1337045,31.4972275 70.7082818,30.4132841 C72.085241,27.60858 74.5367275,25.6231754 77.3923568,25 L78,28.3210332 C76.0440038,28.7612342 74.3653012,30.1222695 73.412294,32.0405904 C73.1501541,32.4968195 73.0228604,33.0302012 73.0477081,33.5682657 L70.0398743,34 Z" fill="url(#linearGradient-2)"></path>
                <path d="M26.340081,77 L23,77 C23,43.6998395 54.8977733,36.0658106 55.2317814,36 L56,39.2905297 C54.76417,39.4879615 26.3734818,46.3651685 26.340081,77 Z" fill="url(#linearGradient-2)"></path>
                <path d="M121.952607,159 L119,157.502543 C121.705804,152.89733 123.390246,147.783437 123.943128,142.495422 C123.994451,141.579718 124.415146,140.721728 125.112307,140.110933 C125.809467,139.500138 126.725738,139.186787 127.658768,139.240081 C131.473934,139.240081 134.791469,135.073245 136.682464,127 L140,127.748728 C136.881517,140.770092 130.909953,142.690743 127.592417,142.495422 C127.592417,142.495422 127.36019,142.495422 127.36019,142.755849 C126.750735,148.485319 124.907502,154.022313 121.952607,159 Z" fill="url(#linearGradient-2)"></path>
                <path d="M82.6699054,106.962276 C82.444074,107.012575 82.2101866,107.012575 81.9843552,106.962276 C81.5740691,106.782136 81.2545047,106.43905 81.1002569,106.013101 C80.946009,105.587153 80.9705763,105.115619 81.168224,104.708568 C83.6432292,99.7400186 88.4966927,96.4466843 93.9651613,96.0251622 C98.3610603,95.7601613 102.625625,97.5999167 105.488934,100.996578 C106.653069,100.989667 107.813135,100.856337 108.94933,100.598864 C109.850804,100.388366 110.749674,100.959649 110.957013,101.874861 C111.164352,102.790073 110.601644,103.702643 109.700171,103.913141 C108.029367,104.289708 106.317661,104.445664 104.607512,104.37714 C104.12848,104.347217 103.686695,104.104775 103.399638,103.714285 C101.235711,100.83983 97.8182609,99.2289752 94.2589685,99.4057248 C89.9866207,99.6993066 86.1634558,102.203456 84.1389416,106.034279 C83.8643079,106.603325 83.2940746,106.963544 82.6699054,106.962276 Z" fill="#491CDE"></path>
                <path d="M34.8395444,112.999655 C34.1508095,113.007549 33.4680038,112.879894 32.8354963,112.624985 C32.0977231,112.226954 31.798653,111.373652 32.1414309,110.64469 C32.4842088,109.915728 33.3589699,109.544746 34.1715284,109.783736 C34.4893744,109.859067 34.8223056,109.859067 35.1401517,109.783736 C36.4121992,106.891896 38.9186098,104.628176 42.0541177,103.539234 C47.2403329,102.369456 52.7095305,103.118993 57.3182842,105.631143 C58.017744,106.111269 58.2072842,107.012161 57.7544249,107.704135 C57.3015655,108.39611 56.3572195,108.648569 55.5814425,108.285056 C51.790585,106.250517 47.322496,105.615659 43.0561418,106.505373 L43.0561418,106.505373 C40.6907879,107.363559 38.8553161,109.159396 38.0460214,111.407307 C37.8926783,111.911761 37.4786259,112.310539 36.943795,112.468872 C36.2750079,112.743935 35.565572,112.922885 34.8395444,112.999655 Z" fill="#491CDE"></path>
                <path d="M76.095035,194.96687 C66.1032932,195.000987 56.8124342,189.806143 51.5645053,181.250994 L51.2681634,180.820302 C47.2840102,173.631063 43.9913217,167.96581 40.6986331,162.963159 C31.3473976,147.955208 25.1900701,138.016168 26.079096,114.990724 C26.1471644,112.39223 25.870331,109.796216 25.2559238,107.271402 C24.8937281,105.681156 24.4986055,104.190299 24.1034828,102.732574 C21.3320276,93.191951 20.4043032,83.20515 21.3705513,73.3130135 L21.5681126,70 L28.1534897,70.3975616 L27.9559284,73.7105751 C27.0360352,82.8896562 27.8971079,92.1611316 30.4912986,101.009807 C30.9193481,102.566923 31.3144708,104.090909 31.7095934,105.780546 C32.45795,108.880391 32.7901741,112.067145 32.6973999,115.255765 C31.8742278,136.26027 37.0108219,144.476544 46.3291305,159.451365 C49.6218191,164.520276 52.9145076,170.284919 56.9315877,177.441028 L57.1620759,177.77233 C61.4067761,184.587941 68.9282132,188.624135 76.9182072,188.373973 C106.552404,187.214418 119.723158,151.168831 119.723158,150.8044 L120.809746,147.690167 L127,149.909886 L125.913413,153.024119 C125.320729,154.680625 111.228022,193.707925 77.2145491,195 L76.095035,194.96687 Z" fill="#FFFFFF"></path>
            </g>
        </g>
    </g>
</svg>