<svg id="Livello_1" data-name="Livello 1" xmlns="http://www.w3.org/2000/svg" xmlns:xlink="http://www.w3.org/1999/xlink" viewBox="0 0 90.88 90.88"><defs><style>.cls-1{fill:#491cde;}.cls-2{fill:url(#Sfumatura_senza_nome_2);}.cls-3{fill:url(#Sfumatura_senza_nome_6);}.cls-4{fill:url(#Sfumatura_senza_nome_7);}.cls-5{fill:url(#Sfumatura_senza_nome_8);}.cls-6{fill:url(#Sfumatura_senza_nome_9);}.cls-7{fill:url(#Sfumatura_senza_nome_10);}</style><linearGradient id="Sfumatura_senza_nome_2" x1="63.03" y1="20.67" x2="63.03" y2="54.64" gradientTransform="matrix(1, 0, 0, -1, 0, 92.39)" gradientUnits="userSpaceOnUse"><stop offset="0" stop-color="#3d4352"/><stop offset="0.17" stop-color="#343a49"/><stop offset="0.67" stop-color="#1e2435"/><stop offset="1" stop-color="#161c2d"/></linearGradient><linearGradient id="Sfumatura_senza_nome_6" x1="52.1" y1="53.98" x2="61.12" y2="53.98" gradientTransform="matrix(1, 0, 0, -1, 0, 92.39)" gradientUnits="userSpaceOnUse"><stop offset="0" stop-color="#161c2d"/><stop offset="0.33" stop-color="#1e2435"/><stop offset="0.83" stop-color="#343a49"/><stop offset="1" stop-color="#3d4352"/></linearGradient><linearGradient id="Sfumatura_senza_nome_7" x1="26.85" y1="15.25" x2="26.85" y2="27.26" xlink:href="#Sfumatura_senza_nome_2"/><linearGradient id="Sfumatura_senza_nome_8" x1="20.65" y1="15.99" x2="20.65" y2="39.16" xlink:href="#Sfumatura_senza_nome_2"/><linearGradient id="Sfumatura_senza_nome_9" x1="30.58" y1="76.14" x2="34.46" y2="76.14" xlink:href="#Sfumatura_senza_nome_2"/><linearGradient id="Sfumatura_senza_nome_10" x1="34.51" y1="74.75" x2="37.15" y2="74.75" xlink:href="#Sfumatura_senza_nome_2"/></defs><title>Erika_1</title><path class="cls-1" d="M65,41.71l-1.8-.87.43-.9a3.88,3.88,0,0,0-.24-3.45,7.71,7.71,0,0,0-2.8-2.77,28.1,28.1,0,0,0-8.18-2.9q-1.25-.3-2.49-.63A13.85,13.85,0,0,1,43.55,27a4.31,4.31,0,0,1-1.19-1.85,5.3,5.3,0,0,1-.13-1.64v-.12a8.82,8.82,0,0,0-.3-2.88,3.43,3.43,0,0,0-1.46-2l-.87-.49,1-1.74.87.49a5.37,5.37,0,0,1,2.37,3.09,10.71,10.71,0,0,1,.4,3.54v.11a3.73,3.73,0,0,0,.06,1.07,2.47,2.47,0,0,0,.68,1,11.91,11.91,0,0,0,5.4,2.63c.81.22,1.62.42,2.44.62A30,30,0,0,1,61.55,32a9.65,9.65,0,0,1,3.57,3.54,5.82,5.82,0,0,1,.28,5.27Z"/><path class="cls-2" d="M70.1,71.71l-.71-.7s4.24-4.4,2.33-9.15c-1.17-2.92-4.16-5-9.11-8.43l-1.87-1.3c-2.19-1.58-2.91-4.08-3.57-6.51-.77-2.82-1.49-5.48-4.34-7l.47-.88c3.24,1.72,4.05,4.71,4.84,7.61.64,2.37,1.25,4.61,3.17,6l1.87,1.3c5.1,3.54,8.18,5.68,9.46,8.88C74.8,66.85,70.29,71.55,70.1,71.71Z"/><path class="cls-1" d="M56.73,25.06l-.12-1a10.73,10.73,0,0,0-4.06-7,16.29,16.29,0,0,0-7.09-2.94,48,48,0,0,1-5.07-1.43c-1.1-.35-2.14-.69-3.15-1a18.56,18.56,0,0,0-7.69-.71A9.17,9.17,0,0,0,23.2,15a8.17,8.17,0,0,0-.87,4,5.82,5.82,0,0,0,1.16,2.53l.57.82-1.65,1.18-.57-.82a7.59,7.59,0,0,1-1.5-3.47A10.06,10.06,0,0,1,21.5,14a11.17,11.17,0,0,1,7.72-5,20.41,20.41,0,0,1,8.53.8c1,.28,2.16.64,3.24,1a47,47,0,0,0,4.85,1.37,18.17,18.17,0,0,1,7.93,3.33,12.74,12.74,0,0,1,4.78,8.34l.12,1Z"/><path class="cls-1" d="M77.48,67.32l-1.8-.87.44-.9c.55-1.13,2-4.45,2-6.26A5.51,5.51,0,0,0,76.93,56a12.21,12.21,0,0,0-2.58-2.3l-5.19-3.8a7,7,0,0,1-1.7-1.59,4.93,4.93,0,0,1-.91-2.93,7.57,7.57,0,0,1,.81-2.73,8.57,8.57,0,0,0,.57-1.51A6,6,0,0,0,68,39.23a12.76,12.76,0,0,0-3.86-7.75,34.22,34.22,0,0,0-3.77-3.1c-.93-.69-1.89-1.41-2.82-2.2a29.48,29.48,0,0,1-4.85-5.39L52.14,20l1.64-1.15.58.82a27.47,27.47,0,0,0,4.52,5c.87.75,1.8,1.44,2.71,2.12a36.2,36.2,0,0,1,4,3.28A14.56,14.56,0,0,1,70,39a8,8,0,0,1-.19,2.51,10.19,10.19,0,0,1-.69,1.88,5.89,5.89,0,0,0-.64,2,3,3,0,0,0,.56,1.65,5.22,5.22,0,0,0,1.25,1.13l5.22,3.84a14,14,0,0,1,3,2.69,7.45,7.45,0,0,1,1.6,4.56c0,2.63-2.1,6.94-2.19,7.12Z"/><path class="cls-3" d="M60.55,42.19l-.83-.56a3,3,0,0,0-.2-3.14,2.8,2.8,0,0,0-.65-.72,4.36,4.36,0,0,0-1.69-.62l-2.43-.53a4,4,0,0,1-2.67-1.45l.84-.55a3.17,3.17,0,0,0,2,1l2.43.53a5.21,5.21,0,0,1,2.08.8,3.78,3.78,0,0,1,.89,1A3.91,3.91,0,0,1,60.55,42.19Z"/><path class="cls-1" d="M19.32,40.94a6.3,6.3,0,0,1-5.85-4.83c-.72-2.78.55-5.54,1.58-7.38a34.36,34.36,0,0,1,5.25-7L21,21l1.44,1.39-.69.72a32.39,32.39,0,0,0-5,6.64C15.41,32.18,15,34,15.4,35.61a4.2,4.2,0,0,0,4.38,3.3l1-.12.25,2-1,.12A5.74,5.74,0,0,1,19.32,40.94Z"/><path class="cls-1" d="M21.89,51.16l-.64-.77c-1.53-1.86-3-3.88-3.34-6.32a4.67,4.67,0,0,1,2-4.63l.8-.59,1.19,1.61-.8.59a2.68,2.68,0,0,0-1.19,2.79c.22,1.9,1.5,3.58,2.89,5.28l.64.77Z"/><path class="cls-1" d="M16.05,69.89l-.5-.86c-1-1.58-1.13-4.26-.49-7.15,1.14-5.09,4-9,6.33-12.19l.59-.81,1.57,1.19-.59.81c-2.2,3-5,6.76-6,11.44-.53,2.37-.43,4.55.25,5.69l.51.86Z"/><path class="cls-4" d="M26,77.13l-.48-.88a3.42,3.42,0,0,0,1.22-1.06,5,5,0,0,0,.65-3.32,10.92,10.92,0,0,0-1-3.2l-.12-.26a14.31,14.31,0,0,1-1.13-3.09l1-.2A13.38,13.38,0,0,0,27.23,68l.12.26a11.75,11.75,0,0,1,1.12,3.49,6,6,0,0,1-.82,4A4.4,4.4,0,0,1,26,77.13Z"/><path class="cls-5" d="M19,76.39a4.71,4.71,0,0,1-2.73-.84l.57-.82a4.53,4.53,0,0,0,4.75-.06,4.47,4.47,0,0,0,1.59-1.33A5.4,5.4,0,0,0,24,70.25,11.88,11.88,0,0,0,23.46,67c-.2-.69-.41-1.37-.63-2a37.83,37.83,0,0,1-1.21-4.47,13.58,13.58,0,0,1,.45-7.3l.93.36a12.6,12.6,0,0,0-.4,6.75,37.1,37.1,0,0,0,1.19,4.35c.22.69.44,1.38.64,2.07a12.77,12.77,0,0,1,.6,3.5A6.33,6.33,0,0,1,24,74a5.44,5.44,0,0,1-2,1.59A6.57,6.57,0,0,1,19,76.39Z"/><path class="cls-6" d="M31.86,19.29a1.65,1.65,0,0,1-1.25-1.47,3.16,3.16,0,0,1,.31-1.73,5,5,0,0,1,3.31-2.89l.23,1a4,4,0,0,0-2.63,2.32,2.25,2.25,0,0,0-.28,1.16.64.64,0,0,0,.42.62Z"/><path class="cls-7" d="M34.55,19a1.73,1.73,0,0,1,.22-1.08A3.21,3.21,0,0,1,37,16.28l.2,1a2.23,2.23,0,0,0-1.51,1.12.79.79,0,0,0-.12.46Z"/></svg>