<svg id="Livello_1" data-name="Livello 1" xmlns="http://www.w3.org/2000/svg" xmlns:xlink="http://www.w3.org/1999/xlink" viewBox="0 0 90.88 90.88"><defs><style>.cls-1{fill:url(#Sfumatura_senza_nome);}.cls-2{fill:#fff;}.cls-3{fill:#3d4352;}</style><linearGradient id="Sfumatura_senza_nome" x1="46.85" y1="-2032.44" x2="46.85" y2="-2023.44" gradientTransform="matrix(1, 0, 0, -1, 0, -1981.72)" gradientUnits="userSpaceOnUse"><stop offset="0" stop-color="#161c2d"/><stop offset="0.33" stop-color="#1e2435"/><stop offset="0.83" stop-color="#343a49"/><stop offset="1" stop-color="#3d4352"/></linearGradient></defs><title>Giuseppe_3</title><path class="cls-1" d="M47,50.72a.5.5,0,0,1-.48-.37,20.22,20.22,0,0,1,0-8.23.51.51,0,1,1,1,.21,19.58,19.58,0,0,0,0,7.77.5.5,0,0,1-.36.61H47Z"/><path class="cls-2" d="M47.3,43.49l-.67-1.89.94-.33L51.08,40a8.46,8.46,0,0,1,7.38.69l.85.52-1,1.73-.85-.52a6.5,6.5,0,0,0-5.7-.54c-2,.74-3.53,1.27-3.53,1.27Z"/><path class="cls-2" d="M42.3,43.38l-1-.21L35.72,42a2.74,2.74,0,0,0-2.45.7l-.72.69-1.38-1.45.72-.69A4.73,4.73,0,0,1,36.13,40l5.59,1.18,1,.21Z"/><path class="cls-3" d="M45,59.9h-.36a2.33,2.33,0,0,1-1.9-1.18A2.69,2.69,0,0,0,41,57.88a2,2,0,0,1-1.65-2,4.15,4.15,0,0,1,.78-2.07.25.25,0,1,1,.42.28,3.65,3.65,0,0,0-.69,1.81A1.48,1.48,0,0,0,41,57.38h0a3.17,3.17,0,0,1,2.1,1.06,1.87,1.87,0,0,0,1.53.94c.35,0,1.32,0,1.64-.44a3.12,3.12,0,0,1,2.14-1.42l.83-.2a1.17,1.17,0,0,0,.82-1.37,4.86,4.86,0,0,0-1.29-2.82.25.25,0,1,1,.36-.35,5.26,5.26,0,0,1,1.43,3.11A1.65,1.65,0,0,1,49.4,57.8l-.87.21a2.63,2.63,0,0,0-1.8,1.21A2.11,2.11,0,0,1,45,59.9Z"/></svg>