<svg id="Livello_1" data-name="Livello 1" xmlns="http://www.w3.org/2000/svg" xmlns:xlink="http://www.w3.org/1999/xlink" viewBox="0 0 90.88 90.88"><defs><style>.cls-1{fill:#491cde;}.cls-2{fill:#3d4352;}.cls-3{fill:url(#Sfumatura_senza_nome_10);}.cls-4{fill:url(#Sfumatura_senza_nome);}.cls-5{fill:url(#Sfumatura_senza_nome_10-2);}.cls-6{fill:#fff;}.cls-7{fill:url(#Sfumatura_senza_nome_10-3);}</style><linearGradient id="Sfumatura_senza_nome_10" x1="48.78" y1="-2029.91" x2="51.81" y2="-2029.91" gradientTransform="matrix(1, 0, 0, -1, 0, -1981.72)" gradientUnits="userSpaceOnUse"><stop offset="0" stop-color="#3d4352"/><stop offset="0.17" stop-color="#343a49"/><stop offset="0.67" stop-color="#1e2435"/><stop offset="1" stop-color="#161c2d"/></linearGradient><linearGradient id="Sfumatura_senza_nome" x1="39.27" y1="-2030.19" x2="41.69" y2="-2030.19" gradientTransform="matrix(1, 0, 0, -1, 0, -1981.72)" gradientUnits="userSpaceOnUse"><stop offset="0" stop-color="#161c2d"/><stop offset="0.33" stop-color="#1e2435"/><stop offset="0.83" stop-color="#343a49"/><stop offset="1" stop-color="#3d4352"/></linearGradient><linearGradient id="Sfumatura_senza_nome_10-2" x1="45.23" y1="-2045.62" x2="45.23" y2="-2038.87" xlink:href="#Sfumatura_senza_nome_10"/><linearGradient id="Sfumatura_senza_nome_10-3" x1="45.03" y1="-2049.52" x2="45.03" y2="-2046.8" xlink:href="#Sfumatura_senza_nome_10"/></defs><title>Giuseppe_2</title><path class="cls-1" d="M45.27,64.85c-.15,0-3.76,0-7.72-3.44a.25.25,0,1,1,.35-.35s1.69,1.32,6.29,1.32a.25.25,0,0,1,.16.06,1.49,1.49,0,0,0,1.68.1.3.3,0,0,1,.14,0s4.61.24,6.16-1.26a.25.25,0,1,1,.35.36C52.55,61.77,49.38,64.85,45.27,64.85Zm-5.62-2.47a11.69,11.69,0,0,0,5.62,2,10.06,10.06,0,0,0,5.21-1.66,16.73,16.73,0,0,1-4.26.35,2,2,0,0,1-2.11-.14A16.55,16.55,0,0,1,39.65,62.38Z"/><path class="cls-2" d="M51.37,46.31h-.76a.25.25,0,0,1,0-.5,9.18,9.18,0,0,0,4.28-.69.25.25,0,1,1,.22.44A8.87,8.87,0,0,1,51.37,46.31Z"/><path class="cls-2" d="M56.67,45.14a.25.25,0,0,1-.19-.09c-1.59-1.95-4.75-1.44-4.78-1.44a.24.24,0,0,1-.29-.18v0a.25.25,0,0,1,.2-.29c.14,0,3.48-.56,5.25,1.61a.25.25,0,0,1-.19.41Z"/><path class="cls-2" d="M37.76,46.76A7,7,0,0,1,35,46.29a.25.25,0,0,1,.21-.45,7,7,0,0,0,2.84.42.26.26,0,0,1,.26.24.25.25,0,0,1-.24.26h-.34Z"/><path class="cls-3" d="M51.5,49.22A16.23,16.23,0,0,1,48.78,48l.5-.87a15.5,15.5,0,0,0,2.54,1.11Z"/><path class="cls-4" d="M39.72,49.55l-.45-.89a3.76,3.76,0,0,0,1.54-1.28l.88.48A4.68,4.68,0,0,1,39.72,49.55Z"/><path class="cls-2" d="M33.85,45.73a.25.25,0,0,1-.22-.35c0-.08,1.2-2,4.78-1.59a.25.25,0,0,1,.22.28h0a.24.24,0,0,1-.26.22h0c-3.26-.4-4.32,1.3-4.32,1.31A.25.25,0,0,1,33.85,45.73Z"/><path class="cls-5" d="M54.46,63.9h-.13a.92.92,0,0,1-.77-.73c-.18-.84-.52-1.32-1-1.42-.84.12-5.37.69-6.93-.69h-.56c-1,.81-1.76.75-3.57.59-.86-.07-1.92-.16-3.4-.21a1.2,1.2,0,0,0-1.21.83,2.36,2.36,0,0,0-.09.4.92.92,0,0,1-1.71.31,6.2,6.2,0,0,1-.58-2,2.75,2.75,0,0,1,1-2.33,2.5,2.5,0,0,1,2.24-.59,4.57,4.57,0,0,0,4.17-.83l.56.83a5.55,5.55,0,0,1-5,1,1.52,1.52,0,0,0-1.35.37,1.75,1.75,0,0,0-.61,1.48,5.86,5.86,0,0,0,.35,1.43A1.09,1.09,0,0,1,35.9,62a2.2,2.2,0,0,1,2.22-1.65c1.51,0,2.63.14,3.46.21,1.93.16,2.27.17,3-.47l.15-.14,1.38.06.14.16c.81.93,4.28.81,6.27.51h.14a2.37,2.37,0,0,1,1.87,2,3.55,3.55,0,0,0,0-3.37c-.26-.42-.79-.37-1.64-.25a7.34,7.34,0,0,1-5.22-1.18l.61-.79a6.41,6.41,0,0,0,4.48,1c.85-.12,2-.29,2.64.72a4.54,4.54,0,0,1-.13,4.54A.92.92,0,0,1,54.46,63.9Z"/><path class="cls-1" d="M28.4,46.6l-.12-1c-.27-2.19-.58-4.42-.87-6.5-.52-3.72-1-6.93-1.06-8.87v-1l2-.1v1c.09,1.85.53,5,1,8.69.29,2.1.6,4.33.88,6.53l.12,1Z"/><path class="cls-1" d="M61.92,45.82,60,45.31l.26-1c0-.1,2.55-9.67,2.55-13.82,0-4.76-.41-8.13-5.83-11.54a22.2,22.2,0,0,0-7.51-3c-8.34-1.66-18.22,2.11-23,8.77a13.53,13.53,0,0,0-2.21,4.79c9.34-3.66,14-3.2,14.17-3.18A1,1,0,0,1,39,28.1a32.28,32.28,0,0,0-4.67,4.55c10.55-.69,16.25-6.51,16.31-6.57a1,1,0,0,1,1.6.21,4.83,4.83,0,0,1,.65,2.88,5.42,5.42,0,0,0,2.28-2.35l.34-.94,1.88.67-.33,1c0,.13-1.23,3.3-5.95,4.55a1,1,0,0,1-.9-1.75,2.07,2.07,0,0,0,.68-1.78,29.26,29.26,0,0,1-18.63,6.2,1,1,0,0,1-.85-1.53,26,26,0,0,1,4.1-4.73,47.42,47.42,0,0,0-12.06,3.54A1,1,0,0,1,22,31.17a14,14,0,0,1,2.81-7.53c5.19-7.26,15.94-11.38,25-9.58A24.19,24.19,0,0,1,58,17.29c6.26,3.93,6.77,8.32,6.77,13.24,0,4.41-2.51,13.93-2.62,14.33Z"/><path class="cls-6" d="M61.92,45.82,60,45.31l.26-1c0-.1,2.55-9.67,2.55-13.82,0-4.76-.41-8.13-5.83-11.54l-.85-.53,1.06-1.69.85.53c6.26,3.93,6.77,8.32,6.77,13.24,0,4.41-2.51,13.93-2.62,14.33Z"/><path class="cls-1" d="M45.71,77.24c-.5,0-4.83-.1-7-2a26,26,0,0,1-7.55-9.86l-.39-.92,1.85-.77.39.92a24.42,24.42,0,0,0,6.93,9.06c1.46,1.28,4.66,1.58,5.78,1.59,3.82,0,5.51-1.34,5.53-1.36l.11-.08c3.24-2,6.25-7.93,6.28-8l.45-.89,1.79.9-.45.89c-.13.26-3.26,6.4-7,8.75C52,75.78,49.93,77.24,45.71,77.24Z"/><path class="cls-7" d="M45.17,67.8h-.33A5.66,5.66,0,0,1,40,65.63l.85-.53-.42.27.42-.27c0,.07,1.15,1.71,4.09,1.71a7,7,0,0,0,4.56-1.46l.65.76A7.78,7.78,0,0,1,45.17,67.8Z"/><path class="cls-1" d="M49,46.27a.48.48,0,0,1-.25-.07.5.5,0,0,1-.18-.67,4.78,4.78,0,0,1,1.14-1.15,4.2,4.2,0,0,1,2.84-.88A4.82,4.82,0,0,1,56.16,45a.5.5,0,0,1-.79.62,3.91,3.91,0,0,0-2.84-1.07,3.28,3.28,0,0,0-2.17.66,4.5,4.5,0,0,0-.91.87A.51.51,0,0,1,49,46.27Z"/><path class="cls-1" d="M40.64,46.56a.5.5,0,0,1-.41-.18,3.34,3.34,0,0,0-1.95-1.28c-2.65-.37-3.23,1-3.26,1.06a.51.51,0,0,1-.64.29.5.5,0,0,1-.29-.63c0-.09.83-2.2,4.36-1.7A4.36,4.36,0,0,1,41,45.79a.5.5,0,0,1-.42.78Z"/></svg>