<svg id="Livello_1" data-name="Livello 1" xmlns="http://www.w3.org/2000/svg" xmlns:xlink="http://www.w3.org/1999/xlink" viewBox="0 0 90.88 90.88"><defs><style>.cls-1{fill:url(#Sfumatura_senza_nome);}.cls-2{fill:url(#Sfumatura_senza_nome_10);}.cls-3{fill:url(#Sfumatura_senza_nome_10-2);}</style><linearGradient id="Sfumatura_senza_nome" x1="61.36" y1="-2030.86" x2="64.54" y2="-2030.86" gradientTransform="matrix(1, 0, 0, -1, 0, -1981.72)" gradientUnits="userSpaceOnUse"><stop offset="0" stop-color="#161c2d"/><stop offset="0.33" stop-color="#1e2435"/><stop offset="0.83" stop-color="#343a49"/><stop offset="1" stop-color="#3d4352"/></linearGradient><linearGradient id="Sfumatura_senza_nome_10" x1="26.84" y1="-2031.67" x2="30.36" y2="-2031.67" gradientTransform="matrix(1, 0, 0, -1, 0, -1981.72)" gradientUnits="userSpaceOnUse"><stop offset="0" stop-color="#3d4352"/><stop offset="0.17" stop-color="#343a49"/><stop offset="0.67" stop-color="#1e2435"/><stop offset="1" stop-color="#161c2d"/></linearGradient><linearGradient id="Sfumatura_senza_nome_10-2" x1="45.82" y1="-2058.46" x2="45.82" y2="-2033.8" xlink:href="#Sfumatura_senza_nome_10"/></defs><title>Giuseppe_1</title><path class="cls-1" d="M61.49,56.19l-.13-1c1.41-.19,2.13-5.87,2.17-9.65a3.31,3.31,0,0,0-.75-2.7l.65-.76a4.19,4.19,0,0,1,1.1,3.5C64.51,47.27,64.28,55.81,61.49,56.19Z"/><path class="cls-2" d="M30.26,57.09c-2.61-.27-3.23-8.27-3.38-10.71a4.42,4.42,0,0,1,.88-3.57l.71.71-.35-.35.36.35a3.55,3.55,0,0,0-.6,2.79c.25,4.63,1.27,9.67,2.48,9.8Z"/><path class="cls-3" d="M45.71,76.74c-.18,0-4.44-.06-6.47-1.92-.06,0-10-7.71-9.55-22.71h1c0,.15,0,14.68,9.33,19.37a1.1,1.1,0,0,0,.94,0,1,1,0,0,0,.59-.67L42,69.4c0-.1.63-1.56,3.21-1.67h0c.13,0,3.15,0,4,2l.31,1a1,1,0,0,0,.63.67,1.15,1.15,0,0,0,1-.12c5.91-3.75,9.05-9.9,9.81-19.2h1c0,.15,1,14.82-10,23C51.91,75.09,50,76.74,45.71,76.74Zm-9.78-7A22,22,0,0,0,39.88,74c1.79,1.63,5.79,1.69,5.83,1.69,3.86,0,5.6-1.45,5.62-1.47A22.77,22.77,0,0,0,59,63.95a20,20,0,0,1-7.28,8.19,2.15,2.15,0,0,1-1.91.22A2,2,0,0,1,48.54,71l-.29-1c-.56-1.32-2.92-1.31-3-1.32-1.87.08-2.29,1-2.3,1l-.4,1.36a2,2,0,0,1-1.16,1.3,2.1,2.1,0,0,1-1.83,0,14.14,14.14,0,0,1-3.63-2.63Z"/></svg>