<?xml version="1.0" encoding="UTF-8"?>
<svg width="220px" height="247px" viewBox="0 0 220 247" version="1.1" xmlns="http://www.w3.org/2000/svg" xmlns:xlink="http://www.w3.org/1999/xlink">
    <!-- Generator: Sketch 47.1 (45422) - http://www.bohemiancoding.com/sketch -->
    <title>Giuseppe</title>
    <desc>Created with Sketch.</desc>
    <defs>
        <linearGradient x1="49.552378%" y1="100%" x2="49.552378%" y2="0.0667296068%" id="linearGradient-1">
            <stop stop-color="#161C2D" offset="0%"></stop>
            <stop stop-color="#1E2435" offset="33%"></stop>
            <stop stop-color="#343A49" offset="83%"></stop>
            <stop stop-color="#3D4352" offset="100%"></stop>
        </linearGradient>
        <linearGradient x1="0%" y1="49.7584541%" x2="99.6710526%" y2="49.7584541%" id="linearGradient-2">
            <stop stop-color="#3D4352" offset="0%"></stop>
            <stop stop-color="#343A49" offset="17%"></stop>
            <stop stop-color="#1E2435" offset="67%"></stop>
            <stop stop-color="#161C2D" offset="100%"></stop>
        </linearGradient>
        <linearGradient x1="6524%" y1="7207%" x2="6766%" y2="7207%" id="linearGradient-3">
            <stop stop-color="#161C2D" offset="0%"></stop>
            <stop stop-color="#1E2435" offset="33%"></stop>
            <stop stop-color="#343A49" offset="83%"></stop>
            <stop stop-color="#3D4352" offset="100%"></stop>
        </linearGradient>
        <linearGradient x1="49.552378%" y1="0.0667296068%" x2="49.552378%" y2="100%" id="linearGradient-4">
            <stop stop-color="#161C2D" offset="0%"></stop>
            <stop stop-color="#1E2435" offset="33%"></stop>
            <stop stop-color="#343A49" offset="83%"></stop>
            <stop stop-color="#3D4352" offset="100%"></stop>
        </linearGradient>
    </defs>
    <g id="Symbols" stroke="none" stroke-width="1" fill="none" fill-rule="evenodd">
        <g id="Giuseppe" fill-rule="nonzero">
            <g transform="translate(36.000000, 0.000000)" id="Shape">
                <path d="M81.5397633,177 C81.0095723,177 68.2496414,177 54.2525982,164.528047 C53.9158006,164.175603 53.9158006,163.611543 54.2525982,163.259099 C54.5962004,162.913634 55.1461083,162.913634 55.4897106,163.259099 C55.4897106,163.259099 61.4631962,168.044848 77.7223879,168.044848 C77.9299584,168.046973 78.1301739,168.123986 78.287925,168.262382 C80.0048977,169.628073 82.363272,169.772065 84.2260646,168.624939 C84.3887045,168.584908 84.5582696,168.584908 84.7209095,168.624939 C84.7209095,168.624939 101.015447,169.495075 106.494088,164.056723 C106.845468,163.706313 107.407254,163.714429 107.748873,164.074851 C108.090493,164.435274 108.08258,165.011517 107.7312,165.361928 C107.271701,165.833252 96.0669976,177 81.5397633,177 Z M61.6752726,168.044848 C67.574011,172.183293 74.4183467,174.681681 81.5397633,175.295983 C88.1021928,175.072324 94.4760994,172.98922 99.9550652,169.277541 C95.0094639,170.35916 89.9490313,170.785623 84.8976399,170.54649 C82.520565,171.849426 79.6280313,171.652566 77.4396193,170.03891 C72.120891,170.112486 66.8172296,169.441616 61.6752726,168.044848 Z" fill="#491CDE"></path>
                <path d="M86.5101703,126 C85.8847278,125.995792 85.3386934,125.491332 85.1760857,124.76749 C83.6079714,115.725779 83.6079714,106.394173 85.1760857,97.3524625 C85.3372595,96.4326021 86.0900938,95.8435038 86.8575882,96.0366744 C87.6250825,96.2298451 88.1166025,97.132135 87.9554286,98.0519954 C86.5127845,106.592939 86.5127845,115.393769 87.9554286,123.934712 C88.0482256,124.363228 87.99486,124.818392 87.8071201,125.19966 C87.6193801,125.580929 87.3127148,125.856927 86.9548652,125.966689 L86.5101703,126 Z" fill="url(#linearGradient-1)"></path>
                <path d="M102.721839,112.994843 C101.100444,112.994843 100.068647,112.994843 99.9212472,112.994843 C99.4124564,112.994843 99,112.626732 99,112.172644 C99,111.718556 99.4124564,111.350445 99.9212472,111.350445 C105.306099,111.728663 110.714143,110.950543 115.693,109.081175 C116.141313,108.889059 116.679551,109.049182 116.909046,109.442942 C117.124306,109.843055 116.944893,110.323425 116.503698,110.528245 C112.164539,112.232737 107.46186,113.074396 102.721839,112.994843 L102.721839,112.994843 Z" fill="#3D4352"></path>
                <path d="M88.3249211,104 L86,96.9530487 L89.2618297,95.7226287 C89.2618297,95.7226287 94.4321767,93.7464995 101.44164,91.0246612 C109.891859,87.6046491 119.336727,88.5534928 127.050473,93.5973577 L130,95.5362014 L126.529968,101.986585 L123.580442,100.047742 C117.632376,96.1246363 110.329143,95.3812063 103.801262,98.034327 C96.8611987,100.793451 91.5520505,102.76958 91.5520505,102.76958 L88.3249211,104 Z" fill="#FFFFFF"></path>
                <path d="M68.5454545,104 L65.0822511,103.207029 L45.7575758,98.7512846 C42.702734,98.0576931 39.530394,99.0459547 37.2727273,101.394523 L34.7792208,104 L30,98.5247213 L32.4935065,95.9192439 C36.404557,91.8633124 41.8970727,90.1684013 47.1774892,91.3879788 L66.5367965,95.8437228 L70,96.6366942 L68.5454545,104 Z" fill="#FFFFFF"></path>
                <path d="M122.100433,110 C121.833801,109.997926 121.581658,109.887412 121.411017,109.697827 C115.641693,103.150745 104.175615,104.863058 104.066759,104.863058 C103.829972,104.912126 103.581797,104.867553 103.382042,104.740081 C103.182287,104.61261 103.04907,104.4138 103.014493,104.191563 C102.926214,103.737641 103.250279,103.302845 103.740194,103.217894 C104.248185,103.217894 116.367394,101.337706 122.789849,108.623434 C123.014233,108.872681 123.063313,109.219255 122.915908,109.513582 C122.768502,109.807909 122.451002,109.997293 122.100433,110 L122.100433,110 Z" fill="#3D4352"></path>
                <path d="M54.8002051,113.99076 C51.2657839,114.076554 47.7467232,113.564168 44.4497109,112.483698 C44.0407693,112.269977 43.8857602,111.83119 44.0890503,111.462769 C44.2923403,111.094348 44.7895462,110.912975 45.2459028,111.040767 C48.6865225,112.114013 52.3527989,112.572567 56.0134498,112.387503 C56.5295825,112.38621 56.9595108,112.721846 56.9992112,113.157066 C57.0094702,113.369717 56.9193208,113.577089 56.7486333,113.733475 C56.5779458,113.889862 56.3407321,113.982424 56.0892776,113.99076 L54.8002051,113.99076 Z" fill="#3D4352"></path>
                <path d="M102.736842,122 C99.0205147,121.084223 95.4264933,119.91992 92,118.521739 L93.9736842,116 C97.1782232,117.290192 100.533743,118.366961 104,119.217391 L102.736842,122 Z" fill="url(#linearGradient-2)"></path>
                <path d="M61.4876033,124 L60,121.129032 C62.0482688,120.227053 63.8076375,118.800099 65.0909091,117 L68,118.548387 C66.399362,120.928403 64.1417259,122.8183 61.4876033,124 Z" fill="url(#linearGradient-3)"></path>
                <path d="M40.8634341,111 C40.5670666,110.990994 40.2952207,110.859629 40.1373987,110.649156 C39.9795767,110.438683 39.9562326,110.17638 40.0750522,109.948607 C40.0750522,109.708288 44.3753172,103.940646 57.2044413,105.172278 C57.442773,105.194794 57.6603828,105.296478 57.8085614,105.454568 C57.9567401,105.612658 58.0231129,105.813952 57.9928232,106.013393 C57.9760588,106.216749 57.8573842,106.404652 57.6661758,106.530589 C57.4749675,106.656527 57.2290976,106.708727 56.989428,106.674268 C45.3070413,105.472676 41.5084739,110.579443 41.5084739,110.609483 C41.3779973,110.816944 41.139394,110.961398 40.8634341,111 Z" fill="#3D4352"></path>
                <path d="M135.525458,146 L135,142.598157 C140.699199,141.951807 143.609429,122.629341 143.771108,109.770376 C144.426271,106.481973 143.316093,103.118294 140.739619,100.5854 L143.36691,98 C146.944451,101.182775 148.584045,105.573449 147.813094,109.906449 C147.732254,115.655563 146.802597,144.7073 135.525458,146 Z" fill="url(#linearGradient-1)"></path>
                <path d="M29.634557,151 C20.0964952,150.073529 17.8307487,122.622549 17.2825843,114.25 C16.4090472,109.921912 17.5827481,105.45105 20.4984825,102 L23.0931277,104.436275 L21.8140772,103.235294 L23.129672,104.436275 C21.0047764,107.198977 20.2095377,110.671129 20.9370141,114.009804 C21.8506215,129.897059 25.5781399,147.191176 30,147.637255 L29.634557,151 Z" fill="url(#linearGradient-1)"></path>
                <path d="M110.943881,174 L110.501376,174 C109.189973,173.810334 108.140315,172.818584 107.880382,171.523599 C107.267682,168.674041 106.11036,167.045723 104.476493,166.70649 C101.617227,167.113569 86.1976125,169.047198 80.8875465,164.365782 L78.9813689,164.365782 C75.5774805,167.113569 72.9905253,166.910029 66.8294872,166.367257 C63.9021431,166.129794 60.2940213,165.824484 55.2562664,165.654867 C53.400457,165.550132 51.7077129,166.707328 51.1375614,168.470501 C50.9961399,168.913099 50.8936365,169.367122 50.8312114,169.827434 C50.6248993,171.139869 49.6075701,172.178309 48.2959788,172.415275 C46.9843875,172.652242 45.6660272,172.035793 45.0105622,170.879056 C43.9733686,168.744605 43.3058705,166.450703 43.0363069,164.094395 C42.7705916,161.093912 43.9749111,158.150189 46.2700009,156.190265 C48.3294049,154.319105 51.1776209,153.571452 53.8947111,154.188791 C58.8027893,155.63446 64.1103667,154.581623 68.0889259,151.373156 L69.9951034,154.188791 C65.2097849,158.00359 58.865108,159.268217 52.9756612,157.581121 C51.3302437,157.229883 49.6162152,157.698059 48.3804118,158.836283 C46.9158065,160.077786 46.1425585,161.947493 46.3040398,163.856932 C46.4949576,165.517426 46.895236,167.147296 47.4954008,168.707965 C47.4954008,168.334808 47.6655952,167.995575 47.7677118,167.656342 C48.6475164,164.24844 51.7963784,161.916017 55.3243442,162.058997 C60.4642158,162.058997 64.2765708,162.533923 67.1017982,162.771386 C73.671303,163.314159 74.828625,163.348083 77.3134636,161.176991 L77.8240469,160.702065 L82.5214129,160.905605 L82.9979573,161.448378 C85.755107,164.603245 97.5665999,164.196165 104.340338,163.178466 L104.816882,163.178466 C108.167447,163.866255 110.718426,166.585311 111.182154,169.963127 C113.11273,166.395267 113.11273,162.098833 111.182154,158.530973 C110.297143,157.106195 108.493082,157.275811 105.599777,157.682891 C99.3825869,158.624667 93.0376954,157.195251 87.8314789,153.679941 L89.9078509,151 C94.3965224,153.968055 99.8282246,155.176372 105.157271,154.39233 C108.050576,153.985251 111.965048,153.408555 114.143537,156.834808 C116.768471,161.678416 116.599769,167.55001 113.701031,172.235988 C113.188555,173.294454 112.12289,173.976261 110.943881,174 Z" fill="url(#linearGradient-4)"></path>
                <path d="M23.175,114 L22.755,110.451059 C21.81,102.678878 20.725,94.7647396 19.71,87.3829422 C17.89,74.1808815 16.21,62.7887808 16,55.9038351 L16,52.3548941 L23,52 L23,55.548941 C23.315,62.114482 24.855,73.2936463 26.5,86.3892387 C27.515,93.8420149 28.6,101.756153 29.58,109.563824 L30,113.112765 L23.175,114 Z" fill="#491CDE"></path>
                <path d="M81.1409207,220 C80.5219328,220 65.8725526,219.790754 58.8917447,213.304136 C58.6854154,213.304136 24.5035283,186.416058 26.050998,134.104623 L29.4898197,134.104623 C29.4898197,134.627737 29.4898197,185.300081 61.5740256,201.656123 C62.5972684,202.146525 63.7832751,202.146525 64.8065179,201.656123 C65.80713,201.243627 66.5584936,200.378323 66.8354227,199.319546 L68.2797278,194.402271 C68.2797278,194.053528 70.4461854,188.961882 79.3183453,188.578264 L79.3183453,188.578264 C79.7653921,188.578264 90.1506334,188.578264 93.0736318,195.553122 L94.1396665,199.040552 C94.4448752,200.129952 95.2527042,201.001215 96.3061242,201.377129 C97.4548845,201.781168 98.7230606,201.626836 99.7449458,200.958637 C120.068382,187.880779 130.866282,166.43309 133.479786,134 L136.918608,134 C136.918608,134.523114 140.357429,185.683698 102.530391,214.210868 C102.461615,214.245742 95.9966302,220 81.1409207,220 Z M47.5092451,195.587997 C51.3599268,201.176487 55.9279302,206.21954 61.0925906,210.583942 C67.2480813,216.268451 81.0033679,216.477697 81.1409207,216.477697 C94.4147723,216.477697 100.398322,211.420925 100.467098,211.351176 C112.442482,202.168209 121.562214,189.68739 126.739696,175.395783 C121.179506,187.094375 112.509173,196.986373 101.705074,203.957826 C99.7566822,205.247385 97.3233895,205.531622 95.1369248,204.725061 C93.0726516,203.968547 91.4884089,202.258257 90.872786,200.121655 L89.8755277,196.634225 C87.9497876,192.030819 79.8341685,192.065693 79.5590628,192.030819 C73.1284663,192.309813 71.6841612,195.518248 71.649773,195.518248 L70.2742443,200.261152 C69.6976177,202.311185 68.228199,203.981224 66.2852112,204.794809 C64.2978355,205.770459 61.9795434,205.770459 59.9921676,204.794809 C55.3767685,202.430071 51.1628553,199.333861 47.5092451,195.622871 L47.5092451,195.587997 Z" fill="url(#linearGradient-4)"></path>
                <path d="M138.034136,111 L131.494038,109.240877 L132.393734,105.791616 C132.393734,105.44669 141.217676,72.4372602 141.217676,58.1228264 C141.217676,41.7043433 139.798924,30.0803332 121.043722,18.3183527 C113.089915,13.3122003 104.281333,9.8047551 95.0563479,7.97056919 C66.196867,2.24479567 32.0084171,15.2485102 15.4678513,38.2205896 C11.8558819,43.1744187 9.25736149,48.7884262 7.82043488,54.7425505 C40.1402852,42.1182547 56.2656067,43.7049148 56.8538695,43.7739 C58.2341536,43.9392513 59.3811521,44.9119358 59.7660634,46.2435161 C60.1509747,47.5750964 59.6990569,49.0070066 58.6186579,49.8790923 C52.7144319,54.5534099 47.3001787,59.811605 42.4587328,65.5732305 C78.9656301,63.1932403 98.6897358,43.1185404 98.897358,42.9115847 C99.6574017,42.1207826 100.749028,41.7367395 101.838672,41.8768064 C102.936133,42.0159362 103.900702,42.669737 104.433949,43.6359296 C106.205513,46.6320407 106.992015,50.1056654 106.683189,53.5698017 C110.088518,51.7432464 112.844177,48.9121016 114.572831,45.464038 L115.749357,42.2217325 L122.254852,44.5327375 L121.11293,48.0854765 C121.11293,48.5338804 116.856675,59.4680383 100.523732,63.7796147 C98.9234306,64.2652246 97.2037601,63.5402179 96.4387026,62.0573816 C95.6736451,60.5745453 96.0822783,58.7584961 97.4093991,57.7434077 C99.1482764,56.1997329 100.025874,53.9098662 99.7624503,51.6037228 C81.3860276,65.9207286 58.6143143,73.474749 35.2957681,72.989142 C34.0365953,72.9916568 32.8754373,72.3121809 32.2639277,71.2149971 C31.6524181,70.1178133 31.6870886,68.7761208 32.3544541,67.7117725 C36.4072105,61.7237541 41.1708971,56.2457283 46.5419687,51.3967672 C32.149371,53.603108 18.1154425,57.7092959 4.80991349,63.6071517 C3.74733037,64.0558302 2.53028751,63.9469877 1.56479981,63.3169349 C0.599312096,62.6868821 0.0124517854,61.6185431 0,60.468324 C0.624834972,51.0494457 4.00537779,42.0196337 9.72363806,34.4953875 C27.6829553,9.45375149 64.8819266,-4.75720448 96.2674772,1.4514656 C106.306438,3.40995288 115.900235,7.18605181 124.573299,12.5925791 C146.235212,26.1481755 148,41.290432 148,58.2607969 C148,73.4720386 139.314473,106.309005 138.933832,107.688709 L138.034136,111 Z" fill="#491CDE"></path>
                <path d="M138.580645,112 L132.483871,110.211757 L133.322581,106.705397 C133.322581,106.354761 141.548387,72.7989 141.548387,58.2475077 C141.548387,41.5572362 140.225806,29.7408044 122.741935,17.7841183 L120,15.9257477 L123.419355,10 L126.16129,11.8583706 C146.354839,25.6383637 148,41.0312822 148,58.2825713 C148,73.7456171 139.903226,107.12616 139.548387,108.528704 L138.580645,112 Z" fill="#FFFFFF"></path>
                <path d="M81.349021,221 C79.5970457,221 64.4249399,220.660517 56.8213672,214.210332 C45.3418495,205.286793 36.264662,193.801506 30.3665407,180.737269 L29,177.614022 L35.4823085,175 L36.8488492,178.123247 C42.3234379,190.089077 50.6445441,200.62898 61.1312264,208.880443 C66.2469942,213.22583 77.4596359,214.24428 81.3840605,214.278229 C94.7691515,214.278229 100.690828,209.729151 100.760907,209.661255 L101.146341,209.389668 C112.499141,202.6 123.046032,182.468635 123.151151,182.230996 L124.727929,179.209594 L131,182.264945 L129.423222,185.286347 C128.967709,186.169004 118.000344,207.013284 104.895569,214.991144 C103.493988,216.043542 96.1356922,221 81.349021,221 Z" fill="#491CDE"></path>
                <path d="M80.6028471,159.982903 L79.3538693,159.982903 C76.6024443,159.830907 74.1179201,158.286832 72.7620423,155.886234 C71.1801527,154.199572 69.0290323,153.16039 66.7253165,152.969961 C63.3733077,152.374176 60.9483706,149.43285 61.0008351,146.026455 C61.2365053,143.430062 62.171772,140.946312 63.7069536,138.839926 C63.8804823,138.579455 64.1796942,138.431409 64.4918791,138.451557 C64.8040639,138.471704 65.0817934,138.656984 65.2204495,138.937602 C65.3591056,139.218221 65.3376231,139.551545 65.1640943,139.812016 C63.8151323,141.652661 62.988047,143.823744 62.7702203,146.09589 C62.7053422,148.530069 64.3568126,150.675548 66.7253165,151.234084 L66.7253165,151.234084 C69.5356659,151.480297 72.1440035,152.797786 74.0110201,154.914143 C75.1085733,156.836526 77.1094589,158.066668 79.3191755,158.177591 C80.5334594,158.177591 83.8987606,158.177591 85.008963,156.650019 C86.6618078,154.016369 89.3661407,152.220679 92.4334419,151.72013 L95.3130295,151.025779 C97.3630044,150.434775 98.6059803,148.356676 98.1579232,146.269477 C97.7744828,142.604532 96.2025962,139.165967 93.6824196,136.479133 C93.3471044,136.134002 93.3548709,135.582205 93.6997666,135.246661 C94.0446622,134.911117 94.5960821,134.918888 94.9313974,135.26402 C97.7418778,138.208883 99.4881255,142.009261 99.8926146,146.061172 C100.469848,149.01343 98.6666984,151.909539 95.7640492,152.692221 L92.7456863,153.421289 C90.157115,153.857465 87.8816635,155.38812 86.5007976,157.62211 C84.9961991,159.266088 82.8253877,160.135006 80.6028471,159.982903 Z" fill="#3D4352"></path>
                <path d="M80.5142857,187.947735 L79.3438424,187.947735 C72.6384221,188.415907 66.1274468,185.716242 62,180.756407 L65.0147783,179 L63.5251232,179.894773 L65.0147783,179 C65.0147783,179.231978 69.0935961,184.666899 79.5211823,184.666899 C85.3534019,184.880538 91.0797305,183.16746 95.6945813,179.828494 L98,182.347116 C93.0338779,186.036772 86.8586393,188.014681 80.5142857,187.947735 L80.5142857,187.947735 Z" fill="url(#linearGradient-4)"></path>
                <path d="M93.6559916,112.999999 C93.3593706,113.000238 93.0684136,112.921771 92.8150498,112.773209 C92.0401012,112.324125 91.7726212,111.36518 92.2095716,110.602504 C93.2585034,109.159544 94.5553392,107.899522 96.0442666,106.876665 C98.7611807,104.836182 102.15859,103.822242 105.597366,104.025589 C110.120911,103.914689 114.486756,105.629587 117.639654,108.755784 C118.012199,109.212992 118.103199,109.8269 117.878374,110.366253 C117.653549,110.905606 117.147055,111.288465 116.549685,111.37061 C115.952315,111.452754 115.354823,111.221705 114.982278,110.764497 C112.412398,108.417225 108.968263,107.167409 105.429178,107.297847 C102.809462,107.15188 100.221499,107.910008 98.1298024,109.436154 C96.9773693,110.232919 95.9469446,111.181762 95.068774,112.254832 C94.7557157,112.713957 94.2262406,112.993227 93.6559916,112.999999 L93.6559916,112.999999 Z" fill="#491CDE"></path>
                <path d="M63.3811801,113.96823 C62.845641,113.993461 62.3286634,113.782247 61.9861653,113.398288 C60.3698225,111.349188 58.0144751,109.91041 55.3513386,109.345363 C46.3347792,108.173815 44.3613435,112.511711 44.2592693,112.701691 C43.9118832,113.498485 42.9544841,113.9022 42.0816851,113.619932 C41.2301489,113.309834 40.7943425,112.428785 41.0949673,111.625133 C41.0949673,111.340162 43.9190218,104.659169 55.9297593,106.242343 C59.4485689,106.954977 62.5686837,108.834428 64.7081455,111.530143 C65.0626179,112.018088 65.096713,112.648821 64.79665,113.167408 C64.4965869,113.685995 63.9119748,114.006698 63.2791059,113.999894 L63.3811801,113.96823 Z" fill="#491CDE"></path>
            </g>
        </g>
    </g>
</svg>