<svg id="Livello_1" data-name="Livello 1" xmlns="http://www.w3.org/2000/svg" xmlns:xlink="http://www.w3.org/1999/xlink" viewBox="0 0 90.88 90.88"><defs><style>.cls-1{fill:#491cde;}.cls-2{fill:url(#Sfumatura_senza_nome_10);}.cls-3{fill:url(#Sfumatura_senza_nome_10-2);}.cls-4{fill:url(#Sfumatura_senza_nome_15);}</style><linearGradient id="Sfumatura_senza_nome_10" x1="22.78" y1="-955.22" x2="30.41" y2="-955.22" gradientTransform="matrix(1, 0, 0, -1, 0, -904.27)" gradientUnits="userSpaceOnUse"><stop offset="0" stop-color="#3d4352"/><stop offset="0.17" stop-color="#343a49"/><stop offset="0.67" stop-color="#1e2435"/><stop offset="1" stop-color="#161c2d"/></linearGradient><linearGradient id="Sfumatura_senza_nome_10-2" x1="30.55" y1="-946.35" x2="65.55" y2="-946.35" xlink:href="#Sfumatura_senza_nome_10"/><linearGradient id="Sfumatura_senza_nome_15" x1="3.75" y1="-973.62" x2="3.75" y2="-961.51" gradientTransform="matrix(1.07, 0, 0, -1, 47.88, -904.25)" gradientUnits="userSpaceOnUse"><stop offset="0" stop-color="#161c2d"/><stop offset="1" stop-color="#3d4352"/></linearGradient></defs><title>Guido_1</title><path class="cls-1" d="M53.37,62.5A18.11,18.11,0,0,1,49,61.93a18.07,18.07,0,0,1-4.11-2,.26.26,0,0,1,.16-.47h8.26L55,59.37c1.34-.07,3-.17,3.64-.17a.26.26,0,0,1,.16.47l-2.4,1.89A5.92,5.92,0,0,1,53.37,62.5ZM46,60a19.86,19.86,0,0,0,3.24,1.47,17.93,17.93,0,0,0,4.17.54,5.5,5.5,0,0,0,2.81-.84L58,59.74l-2.83.15L53.38,60Z"/><path class="cls-2" d="M29.76,58.47a3.57,3.57,0,0,1-2-.58l-.09-.08a12.08,12.08,0,0,1-1.78-2.46c-.24-.43-1.57-2.75-1.85-3.45s-2.08-5.38-.85-7.49a2,2,0,0,1,1.47-1l.15,1a.92.92,0,0,0-.72.48c-.82,1.42.39,5.21.92,6.58.22.55,1.39,2.6,1.81,3.35V55a10.7,10.7,0,0,0,1.54,2.08,2.6,2.6,0,0,0,1.77.34l.23,1A3.12,3.12,0,0,1,29.76,58.47Z"/><path class="cls-3" d="M40.74,61.13a.77.77,0,0,1-.66-.35,10.54,10.54,0,0,0-2.78-2.84,10.8,10.8,0,0,1-3.13-3.27C31,49.21,30,40.89,30.71,35.49c1.73-13.13,12.22-12.7,21.43-12.32h.31c3.7.15,6.94,3,9.38,8.33,4.32,9.43,4.95,24.38,1.22,29.08a.67.67,0,0,1-1.2-.45c0-1.11.17-4.08-5.21-4.74h0c-.51-.06-.6.06-.86.39a2.31,2.31,0,0,1-2.3,1,5.13,5.13,0,0,1-2.08-.66,4.3,4.3,0,0,0-2.31-.63c-3.56.13-6.6.58-7.67,5.06a.8.8,0,0,1-.65.6Zm22.18-1ZM47.14,24.09c-7.64,0-14.05,1.51-15.35,11.54-.66,5.1.29,13.32,3.33,18.51a9.79,9.79,0,0,0,2.82,3,12.13,12.13,0,0,1,2.73,2.61C42,55,45.61,54.52,49.18,54.4a5.28,5.28,0,0,1,2.8.73,4.17,4.17,0,0,0,1.66.55,1.34,1.34,0,0,0,1.42-.56,1.74,1.74,0,0,1,1.77-.81h0c3.65.48,5.73,2.08,6,4.66,2.76-5.21,1.9-18.64-2-27.09-1.56-3.42-4.3-7.52-8.45-7.69h-.32C50.45,24.09,48.76,24.09,47.14,24.09Z"/><path class="cls-4" d="M49.46,69.38a6.57,6.57,0,0,1-3.57-1.53c-1.49-1.28-2.61-2.26-2.94-4.52a4.89,4.89,0,0,1,.71-3.9,3.18,3.18,0,0,1,2.48-1.1H50.3a2.58,2.58,0,0,0,1.34-.22,2.15,2.15,0,0,0,.28-.24,2.69,2.69,0,0,1,.53-.42,2.52,2.52,0,0,1,2.27.1l.56.29a4.25,4.25,0,0,0,1,.46,6.34,6.34,0,0,0,1.56,0,2.64,2.64,0,0,1,2.3,1c.68.9,1.21,1.95.32,4.92-.75,2.51-2.36,4.88-3.79,4.49-1.11-.3-1-1.72-1-2.32a3.2,3.2,0,0,1,.05-.68,7.83,7.83,0,0,0-4.06.06,2.88,2.88,0,0,0,.06.73c.09,1.56-.51,2.2-1,2.46A2.8,2.8,0,0,1,49.46,69.38Zm-3.35-10a2.14,2.14,0,0,0-1.67.72,4,4,0,0,0-.49,3.13c.27,1.88,1.13,2.6,2.53,3.82.61.53,2.5,1.78,3.78,1.14.47-.23.49-1,.47-1.47a8.59,8.59,0,0,0-.11-1l-.06-.41.38-.16A8.68,8.68,0,0,1,56.48,65l.4.14v.42s-.07.7-.09,1-.06,1.19.24,1.27,1.74-1.21,2.51-3.78.3-3.39-.16-4a1.73,1.73,0,0,0-1.43-.61,7.29,7.29,0,0,1-1.85-.07,5.13,5.13,0,0,1-1.27-.55l-.5-.26A1.52,1.52,0,0,0,53,58.47a1.85,1.85,0,0,0-.32.27,3.18,3.18,0,0,1-.43.35,3.39,3.39,0,0,1-1.93.39H46.17Z"/></svg>