<?xml version="1.0" encoding="UTF-8"?>
<svg width="220px" height="247px" viewBox="0 0 220 247" version="1.1" xmlns="http://www.w3.org/2000/svg" xmlns:xlink="http://www.w3.org/1999/xlink">
    <!-- Generator: Sketch 47.1 (45422) - http://www.bohemiancoding.com/sketch -->
    <title>Guido</title>
    <desc>Created with Sketch.</desc>
    <defs>
        <linearGradient x1="0.108910846%" y1="49.9843312%" x2="98.6636644%" y2="49.9843312%" id="linearGradient-1">
            <stop stop-color="#3D4352" offset="0%"></stop>
            <stop stop-color="#343A49" offset="17%"></stop>
            <stop stop-color="#1E2435" offset="67%"></stop>
            <stop stop-color="#161C2D" offset="100%"></stop>
        </linearGradient>
        <linearGradient x1="49.552378%" y1="100%" x2="49.552378%" y2="0.0667296068%" id="linearGradient-2">
            <stop stop-color="#161C2D" offset="0%"></stop>
            <stop stop-color="#1E2435" offset="33%"></stop>
            <stop stop-color="#343A49" offset="83%"></stop>
            <stop stop-color="#3D4352" offset="100%"></stop>
        </linearGradient>
        <linearGradient x1="8178%" y1="7244%" x2="8467%" y2="7244%" id="linearGradient-3">
            <stop stop-color="#3D4352" offset="0%"></stop>
            <stop stop-color="#343A49" offset="17%"></stop>
            <stop stop-color="#1E2435" offset="67%"></stop>
            <stop stop-color="#161C2D" offset="100%"></stop>
        </linearGradient>
        <linearGradient x1="0.192307692%" y1="49%" x2="100.384615%" y2="49%" id="linearGradient-4">
            <stop stop-color="#161C2D" offset="0%"></stop>
            <stop stop-color="#1E2435" offset="33%"></stop>
            <stop stop-color="#343A49" offset="83%"></stop>
            <stop stop-color="#3D4352" offset="100%"></stop>
        </linearGradient>
        <linearGradient x1="99.5190132%" y1="50.0333648%" x2="-0.414257165%" y2="50.0333648%" id="linearGradient-5">
            <stop stop-color="#161C2D" offset="0%"></stop>
            <stop stop-color="#1E2435" offset="33%"></stop>
            <stop stop-color="#343A49" offset="83%"></stop>
            <stop stop-color="#3D4352" offset="100%"></stop>
        </linearGradient>
        <linearGradient x1="51.3821759%" y1="100%" x2="51.3821759%" y2="0.276316135%" id="linearGradient-6">
            <stop stop-color="#161C2D" offset="0%"></stop>
            <stop stop-color="#3D4352" offset="100%"></stop>
        </linearGradient>
    </defs>
    <g id="Symbols" stroke="none" stroke-width="1" fill="none" fill-rule="evenodd">
        <g id="Guido" fill-rule="nonzero">
            <g transform="translate(37.000000, 0.000000)" id="Shape">
                <path d="M135.125337,98 L133.407008,96.015435 C131.960476,94.3166135 129.892351,93.3805779 127.746631,93.4535421 L114,93.9226211 L114,88.5101712 L127.746631,88.0050092 C131.353968,87.899523 134.828724,89.4642964 137.281671,92.2988861 L139,94.2834511 L135.125337,98 Z" fill="#FFFFFF"></path>
                <path d="M53.8078902,102 L51.8524871,100.203206 L50,98.1863959 C55.1700933,92.7639093 62.1758962,89.8134667 69.4168096,90.0091486 L90,90.5591877 L90,96.0595782 L69.4168096,95.5095392 C63.6002954,95.2870931 57.954742,97.6346126 53.8078902,102 Z" fill="#FFFFFF"></path>
                <path d="M92.4643031,143.996239 C91.7836057,144.016151 91.1033627,143.944055 90.4430955,143.782021 C88.8481629,143.303548 87.3890348,142.472546 86.1801848,141.354211 C84.9847068,140.181165 84.2444908,138.641944 84.0854787,136.998433 C83.8862167,135.320413 84.0361841,133.620599 84.5264694,132 L88.2013924,133.03539 C87.8666824,134.195827 87.7668405,135.408323 87.9073986,136.605699 C87.9799593,137.408054 88.3296391,138.163 88.8996278,138.747885 C89.6779768,139.457119 90.605955,139.993182 91.6190708,140.318821 C92.5823936,140.445713 93.5589373,140.445713 94.52226,140.318821 L95,143.88913 C94.1579266,143.976596 93.3110127,144.01237 92.4643031,143.996239 L92.4643031,143.996239 Z" fill="url(#linearGradient-1)"></path>
                <path d="M129.765134,107.994181 C129.293944,107.989393 128.866362,107.707185 128.662618,107.266509 C127.68468,105.385168 126.117199,103.906123 124.219143,103.073732 C122.038968,102.401666 119.717403,102.401666 117.537227,103.073732 L112.926705,106.330931 C112.354706,106.723245 111.58437,106.56035 111.206112,105.967095 C110.827854,105.37384 110.984913,104.574879 111.556913,104.182566 L116.434711,100.717461 C119.211063,99.7608464 122.211212,99.7608464 124.987564,100.717461 C127.511447,101.761649 129.595456,103.702041 130.86765,106.192327 C131.01704,106.499649 131.041022,106.856361 130.934202,107.182213 C130.827382,107.508065 130.59873,107.77569 130.299687,107.924879 C130.128582,107.988458 129.946064,108.01212 129.765134,107.994181 Z" fill="#491CDE"></path>
                <path d="M58.2415571,112.997608 C57.7708208,112.98451 57.3451197,112.69103 57.1345307,112.23442 C56.9239417,111.77781 56.9627972,111.232511 57.2355735,110.816382 C60.1663783,106.914937 64.0635551,104.001557 68.4690574,102.418659 C70.7994275,101.860447 73.2141055,101.860447 75.5444756,102.418659 L75.9133363,102.418659 C77.5198928,103.465589 79.065337,104.618983 80.540861,105.872268 C81.5133118,106.672051 82.754025,107.653603 83.1228856,107.871725 C83.7006791,108.077223 84.0640242,108.696698 83.9906081,109.351124 C83.917192,110.005549 83.427475,110.512545 82.8210906,110.561905 C82.1839676,110.561905 81.647443,110.198367 79.0318855,108.053494 C77.706023,106.937392 76.3294561,105.893945 74.9073526,104.927069 C73.0794743,104.54969 71.202321,104.54969 69.3744426,104.927069 C65.4441504,106.379449 61.9620113,108.984253 59.3146063,112.452302 C59.0652892,112.819486 58.6613717,113.024751 58.2415571,112.997608 Z" fill="#491CDE"></path>
                <path d="M112.49218,131 C112.49218,131 108.912773,114.951382 106.514569,105.004766 C106.514569,104.722593 104.474307,97.5624404 108.519038,94 L110.917241,96.6101049 C108.948567,98.3736892 109.59286,102.712107 109.986595,104.087703 C112.563769,114.104862 115.964206,130.082936 116,130.259295 L112.49218,131 Z" fill="url(#linearGradient-2)"></path>
                <path d="M123.619377,117 C120.073465,116.071009 116.774122,114.174823 114,111.471591 L115.176471,110 C117.733173,112.454284 120.755423,114.184408 124,115.051136 L123.619377,117 Z" fill="url(#linearGradient-3)"></path>
                <path d="M103.87775,170 C99.0999609,169.950671 94.3453126,169.251522 89.718726,167.917981 C84.9995821,166.12653 80.5035177,163.671495 76.3387872,160.611987 C76.0471855,160.367579 75.9282455,159.942064 76.0435112,159.55562 C76.1587768,159.169177 76.4823841,158.908517 76.8468861,158.908517 L103.708384,158.908517 L109.331345,158.605678 C113.700996,158.340694 119.154591,158 121.153114,158 C121.517616,158 121.841223,158.260659 121.956489,158.647103 C122.071755,159.033547 121.952814,159.459062 121.661213,159.70347 L113.870362,166.555205 C110.887954,168.712439 107.429324,169.904747 103.87775,170 Z M79.8277332,160.801262 C83.1892899,162.929095 86.7149635,164.715442 90.362318,166.138801 C94.7940951,167.386221 99.3417579,168.046909 103.911623,168.107256 C107.152531,168.030313 110.313793,166.970458 113.057404,165.041009 L118.849732,159.968454 L109.636205,160.498423 L103.911623,160.801262 L79.8277332,160.801262 Z" fill="#491CDE"></path>
                <path d="M70.3846154,118.983652 C66.9456581,119.131572 63.5297633,118.273762 60.45,116.48884 L60,115.684061 L60.8653846,115.684061 L61.4538462,115 C66.5832101,117.394603 72.2627061,117.678567 77.55,115.804778 L78,117.736246 C75.5199135,118.540317 72.9592717,118.959752 70.3846154,118.983652 Z" fill="url(#linearGradient-4)"></path>
                <path d="M70.1525566,111.997069 C68.1780794,111.997279 66.210018,111.737923 64.286495,111.224026 L63.8842508,111.224026 C63.5147862,111.222765 63.1830797,110.962673 63.046242,110.56694 C62.9722916,110.321003 62.9875172,110.051065 63.0884716,109.818245 C63.189426,109.585425 63.3675698,109.409417 63.5825676,109.330072 C63.9325072,109.209768 64.3052794,109.209768 64.6552189,109.330072 C69.6688904,110.750486 74.9419844,110.331615 79.7393772,108.131856 C80.0249196,107.939587 80.3818152,107.958908 80.6504795,108.18118 C80.9191438,108.403451 81.0493396,108.787112 80.9828503,109.160609 C80.916361,109.534105 80.6656193,109.827599 80.3427436,109.909854 C77.0912782,111.343365 73.6332602,112.051657 70.1525566,111.997069 Z" fill="#3D4352"></path>
                <path d="M123.186093,108.977127 C120.233137,109.096538 117.285105,108.645685 114.511844,107.650542 C114.069098,107.445728 113.877464,106.932464 114.081716,106.498508 C114.292008,106.067298 114.819003,105.880656 115.264568,106.079587 C119.353056,107.445259 123.727332,107.793284 127.989189,107.09198 C128.227166,107.062473 128.467353,107.127131 128.655989,107.271484 C128.844624,107.415836 128.965955,107.627826 128.992822,107.860003 C129.023118,108.091779 128.95673,108.325709 128.808516,108.509429 C128.660303,108.69315 128.442641,108.811319 128.204253,108.837486 C126.536191,108.986408 124.860165,109.033047 123.186093,108.977127 Z" fill="#3D4352"></path>
                <path d="M56.8366652,111.9758 C56.7009732,112.008067 56.5596351,112.008067 56.4239431,111.9758 C56.0176633,111.736128 55.8795951,111.213167 56.1144015,110.80335 C59.1472982,105.982725 63.811915,102.419982 69.2527235,100.768558 C72.6400851,100.033156 76.1200161,99.8238117 79.5707775,100.147849 C79.7330974,100.161695 79.8881545,100.221489 80.0178932,100.320268 C82.0338323,101.959031 84.1597802,103.456863 86.3806931,104.803165 C86.8365735,104.936479 87.098348,105.415086 86.9653829,105.872164 C86.8323853,106.31217 86.3783986,106.570104 85.9335775,106.458389 C83.5111642,105.121358 81.2095583,103.575233 79.0548748,101.837557 C75.8583023,101.53293 72.6340859,101.718983 69.4934781,102.389298 C64.4850242,103.954786 60.1865595,107.238988 57.3525679,111.665446 C57.2234879,111.827812 57.0402979,111.938014 56.8366652,111.9758 Z" fill="#3D4352"></path>
                <path d="M132.987443,108.979428 C132.521426,108.979428 132.143645,108.588221 132.143645,108.105642 C131.74803,105.734787 130.477035,103.616387 128.599694,102.198848 C124.982588,100.507952 120.939174,100.05496 117.056539,100.905645 L112.398775,104.400789 C112.153641,104.622431 111.807274,104.678345 111.508625,104.544484 C111.209975,104.410623 111.012278,104.110851 111.000551,103.774079 C110.988824,103.437307 111.165157,103.123567 111.453721,102.96778 L116.280245,99.4726354 L116.584012,99.4726354 C120.961304,98.4986846 125.526285,99.0389382 129.578499,101.010499 C131.93378,102.722103 133.526777,105.341334 134,108.2804 C133.959477,108.514474 133.828574,108.721333 133.637498,108.853244 C133.446423,108.985155 133.211681,109.030721 132.987443,108.979428 Z" fill="#3D4352"></path>
                <path d="M27.1228537,155.968746 C24.8899623,155.990282 22.7010891,155.315935 20.8327668,154.0309 L20.5363753,153.754065 C18.3399567,151.291443 16.4478812,148.54758 14.9049362,145.587427 C14.1474912,144.168647 9.93214504,136.451867 9.04297046,134.133373 C8.15379588,131.814878 2.45649206,116.277505 6.34251432,109.252813 C7.3150826,107.459309 9.03636623,106.253526 10.9859816,106 L11.4470351,109.460439 C10.4842238,109.559265 9.63182807,110.15638 9.17470003,111.052242 C6.57304106,115.758439 10.3931985,128.354439 12.0727505,132.922219 C12.7643308,134.756252 16.4527587,141.573318 17.8029867,144.064834 L17.8029867,144.410878 C19.1547204,146.916867 20.7913926,149.240877 22.6769807,151.331757 C24.3540805,152.401095 26.3394415,152.806055 28.2754874,152.473702 L29,155.934141 C28.3767486,156.008262 27.7481959,156.019849 27.1228537,155.968746 L27.1228537,155.968746 Z" fill="url(#linearGradient-2)"></path>
                <path d="M63.9569236,166.999871 C63.0782137,167.008712 62.2566463,166.562678 61.7816882,165.818922 C59.3347427,162.098274 56.2061043,158.88022 52.562833,156.336594 C48.3835823,153.477316 44.8534291,149.760351 42.2045687,145.430181 C31.6391392,127.264404 28.3935497,99.5120981 30.7068954,81.5199898 C36.4384683,37.7554021 71.2077086,39.1794879 101.730061,40.4299047 L102.765887,40.4299047 C115.023166,40.9161779 125.761234,50.5027066 133.84068,68.2169445 C148.169612,99.6510333 150.241265,149.494036 137.880403,165.15898 C137.29177,165.946882 136.257686,166.250798 135.339982,165.905607 C134.422277,165.560415 133.840092,164.648545 133.909735,163.665426 C133.909735,159.94891 134.462176,150.049777 116.645961,147.861547 L116.645961,147.861547 C114.954111,147.653145 114.643363,148.06995 113.780175,149.146698 C112.074289,151.618343 109.095031,152.865986 106.149587,152.342207 C103.718185,152.12045 101.362864,151.374092 99.2440772,150.153978 C96.9366992,148.743287 94.2786044,148.020592 91.5789617,148.06995 C79.7705404,148.486756 69.6884965,150.015043 66.1666867,164.950577 C65.9188253,165.992925 65.0763435,166.785761 64.0259787,166.965137 L63.9569236,166.999871 Z M85.1568378,43.5212129 C59.8481455,43.5212129 38.5791762,48.5576138 34.2977603,82.006263 C32.1225248,99.0258249 35.2645317,126.430793 45.3465755,143.728225 C47.7368333,147.654724 50.9256009,151.028257 54.7035409,153.627358 C58.1534103,156.039876 61.2058908,158.981668 63.7497584,162.345542 C68.203812,146.715332 80.0812883,144.978642 91.9242371,144.561836 C95.18491,144.486056 98.4017862,145.328162 101.212147,146.993202 C102.892348,147.989943 104.763373,148.617344 106.702027,148.834094 C109.740452,149.007763 110.431003,148.139418 111.397774,146.958469 C112.62094,144.934491 114.944541,143.862 117.267457,144.249232 L117.267457,144.249232 C129.352099,145.846987 136.257608,151.195992 137.293435,159.775241 C146.443235,142.408341 143.577448,97.6364729 130.802256,69.4673613 C125.623124,58.074675 116.542379,44.3895579 102.800415,43.8338171 L101.730061,43.8338171 C96.1365979,43.5212129 90.5431352,43.5212129 85.1568378,43.5212129 Z" fill="url(#linearGradient-5)"></path>
                <path d="M95.2756024,226.992788 C73.9553213,226.992788 51.5346386,207.725529 41.940512,196.538089 C41.2871486,195.778448 28.185492,180.516569 26.122239,168.224196 C25.0364889,168.04195 24.1032575,167.348772 23.6119478,166.359623 C20.5858434,160.247965 20.3795181,150.510748 20.1731928,140.186536 C19.8293173,122.921967 19.0040161,110.940357 11.5419177,110.905828 L8,110.905828 L8,104 L11.438755,104 C26.2254016,104 26.6036647,123.163671 26.9475402,140.04842 C26.9182097,146.577844 27.4822106,153.096339 28.6325301,159.522853 L29.5266064,159.522853 C30.5617532,159.553614 31.5409475,160.001666 32.2432229,160.765902 C32.9203439,161.580804 33.1866397,162.663106 32.9653614,163.700879 C31.5898594,170.088769 40.7369478,184.418362 47.3049699,192.118359 C58.5153112,205.204902 81.9676205,223.194583 100.433735,219.741669 C111.816014,217.531804 118.934237,203.927324 121.478916,198.160958 L123.645331,193.29235 C129.903865,179.480695 137.675452,162.216126 138.12249,145.849315 L138.12249,142.396401 L145,142.603576 L145,146.05649 C144.484187,163.631821 136.403112,181.65603 129.903865,196.123739 L127.5999,200.957818 C123.920432,209.31387 115.633032,223.781578 101.602912,226.50938 C99.5143206,226.87544 97.3953071,227.037333 95.2756024,226.992788 Z" fill="#491CDE"></path>
                <path d="M92.9443706,193 C88.5930602,192.543902 84.4816323,190.786387 81.1496006,187.95808 C76.2322475,183.739331 72.5184424,180.515246 71.4524427,173.072413 C70.381771,168.658967 71.231083,163.999748 73.7907645,160.244671 C75.8365048,157.873097 78.8390444,156.539265 81.9748906,156.609001 L81.9748906,156.609001 L95.7297245,156.609001 C97.2463391,156.768848 98.7781818,156.520119 100.165658,155.888727 C100.497305,155.652883 100.807939,155.388947 101.09411,155.099855 C101.618545,154.570824 102.207774,154.109871 102.847851,153.727904 C105.259435,152.648181 108.041883,152.775488 110.344235,154.070892 L112.201138,155.031258 C113.27436,155.685796 114.430963,156.193394 115.639846,156.540404 C117.352632,156.75241 119.085124,156.75241 120.797909,156.540404 C123.751272,156.318941 126.614723,157.611293 128.397455,159.970281 C130.632615,162.919976 132.386357,166.384152 129.463455,176.159302 C126.987584,184.425307 121.657586,192.211128 116.946556,190.942074 C113.267138,189.947409 113.507847,185.282776 113.507847,183.293447 C113.507847,182.710368 113.507847,181.8186 113.679783,181.064027 C109.269119,179.954953 104.64319,180.025938 100.26882,181.269819 C100.26882,182.058691 100.26882,182.881862 100.475142,183.670734 C100.784626,188.81555 98.790175,190.907775 97.0364337,191.765244 C95.7877925,192.489898 94.3863443,192.912776 92.9443706,193 L92.9443706,193 Z M81.8717294,160.073177 C79.7761602,160.006701 77.7596705,160.874079 76.3697958,162.439793 C74.4168363,165.495095 73.8310149,169.224777 74.7536029,172.729425 C75.6476671,178.903204 78.467408,181.304118 83.1096644,185.317075 C85.1385024,187.066312 91.3625647,191.182165 95.5921762,189.055641 C97.139595,188.301068 97.2083691,185.625764 97.139595,184.219514 C97.0708208,182.813264 96.9332725,181.852899 96.761337,180.789637 L96.5550145,179.451984 L97.7929496,178.937503 C103.703555,176.834907 110.14286,176.726455 116.121266,178.628814 L117.427975,179.074698 L117.427975,180.446649 C117.427975,180.446649 117.187265,182.744667 117.118491,183.876526 C117.049717,185.008386 116.912169,187.786586 117.909394,188.060977 C118.90662,188.335367 123.652037,184.082319 126.196681,175.610522 C128.741326,167.138725 127.193907,164.46342 125.680875,162.474092 C124.51991,161.094178 122.772719,160.34367 120.969845,160.450464 C118.927619,160.63076 116.870667,160.550077 114.848944,160.210373 C113.374483,159.796639 111.96318,159.185107 110.653719,158.392538 L109.003139,157.535068 C107.702094,156.736733 106.107425,156.572626 104.670366,157.089184 C104.282208,157.345063 103.924565,157.644251 103.604367,157.980952 C103.169404,158.409936 102.697648,158.800143 102.194496,159.147111 C100.246414,160.188237 98.0325802,160.629867 95.8328857,160.416165 L82.0780519,160.416165 L81.8717294,160.073177 Z" fill="url(#linearGradient-6)"></path>
                <path d="M49.8855721,111 L49.8855721,111 C48.2155746,110.884833 46.5406443,110.884833 44.8706468,111 C44.3898018,111 44,110.571858 44,110.043718 C44,109.515578 44.3898018,109.087437 44.8706468,109.087437 C46.6219421,108.970854 48.3780579,108.970854 50.1293532,109.087437 C50.6101982,109.087437 51,109.515578 51,110.043718 C51,110.571858 50.6101982,111 50.1293532,111 L49.8855721,111 Z" fill="#3D4352"></path>
                <path d="M10.0027553,112 L9.07615861,108.576039 C8.69865626,107.206455 8.25251712,105.528715 7.80637798,103.748255 C7.01705489,100.70093 6.12477661,97.2084904 5.33545351,94.9144369 C4.72112882,93.1825928 3.97540408,91.4999796 3.10475782,89.8812148 C1.61611151,87.2174584 0.583799914,84.3243642 0.0504206323,81.3213135 C-0.0598204924,80.6867588 0.0115480782,80.0340489 0.256331004,79.4381352 C0.256331004,79.4381352 4.47749363,69.1662535 5.50704549,66.0162098 C6.23180802,63.8724525 6.78267639,61.6740378 7.15432847,59.4422055 C7.58402068,54.7182181 9.89599949,50.3639143 13.5718684,47.3556248 L15.4593801,45.7806029 C17.3447743,44.3356118 19.0704398,42.6942543 20.6071394,40.8843394 C21.3914252,39.8110099 22.0695278,38.6643221 22.6319248,37.4603788 C23.3339793,35.9276911 24.17242,34.4609238 25.1371676,33.0777093 C41.3697686,11.061643 48.7482236,9.31542308 79.8063714,2.0223871 L82.723435,1.33759499 C91.5432626,-0.751020943 93.9455503,-0.16894765 97.0685242,1.54303263 C98.612852,2.39902276 100.740593,3.56316935 110.41838,2.94685645 C112.64653,2.65889629 114.89482,3.30333093 116.63001,4.72731594 C118.57213,6.94921917 119.504072,9.87499926 119.203889,12.8078628 C119.062674,14.7585507 119.454053,16.7109516 120.336396,18.4573977 C122.111489,21.1821863 124.671846,23.3069394 127.680533,24.5520475 C139.72629,30.2700616 145.28587,69.8852852 142.128577,84.7110344 L141.407891,88.134995 L134.544212,86.7311711 L135.264898,83.3072106 C138.490827,68.0021069 131.59283,34.1048975 124.557559,30.7494161 C120.571193,28.9758384 117.177186,26.1005266 114.776816,22.4634316 C113.021109,19.6461884 112.17089,16.3606493 112.34021,13.0475401 C112.375624,11.8942171 112.248549,10.7416455 111.962708,9.62357953 L110.795882,9.62357953 C99.9855878,10.3083716 96.6567035,9.00726663 93.6366847,7.39800517 C92.3325857,6.67897345 91.405989,6.16537937 84.199126,7.87735965 L81.2820624,8.56215176 C50.8073273,15.7182293 45.3163841,17.0193343 30.5594741,37.0152639 C29.833699,38.1008598 29.2022312,39.246347 28.6719623,40.4392245 C27.9206927,42.0927505 27.0006788,43.6646571 25.9264907,45.1300504 C24.0932638,47.3365656 22.0216274,49.3345499 19.7491796,51.0877418 L17.964623,52.5942844 C15.4708659,54.5889236 13.9580229,57.5577665 13.8120972,60.7433106 C13.3892388,63.3236443 12.7580126,65.8656531 11.9245854,68.344503 C10.9979887,70.9809526 8.01228835,78.6163846 6.94841809,81.1158758 C7.41598805,83.1179162 8.16710224,85.0432714 9.17911379,86.83389 C10.1989784,88.7389631 11.0709334,90.7192512 11.7873118,92.7573417 C12.6795901,95.3253121 13.5718684,98.7835123 14.4298283,102.138994 C14.8759674,103.850974 15.2877882,105.562954 15.6652905,106.79558 L16.5918872,110.219541 L10.0027553,112 Z" fill="#491CDE"></path>
                <path d="M102.214423,142.842898 C102.065422,142.891144 101.90846,142.891144 101.759459,142.842898 C100.040546,141.876571 98.0537971,141.876571 96.334884,142.842898 C96.048143,143.055977 95.6851139,143.052027 95.4016262,142.832743 C95.1181386,142.61346 94.9646125,142.217843 95.0069489,141.815712 C95.0492853,141.413581 95.2799543,141.076457 95.5999416,140.949049 C97.8144457,139.68365 100.384889,139.68365 102.599393,140.949049 C102.922366,141.199673 103.07149,141.674432 102.966956,142.119241 C102.862421,142.56405 102.528713,142.87472 102.144429,142.884984 L102.214423,142.842898 Z" fill="#3D4352"></path>
                <path d="M108.032986,143.954652 C107.588446,144.015116 107.139303,144.015116 106.694762,143.954652 C106.205446,143.807011 105.908105,143.234281 106.02565,142.66583 C106.1534,142.100328 106.64897,141.75669 107.140837,141.892537 C108.810755,142.165105 110.499224,141.567106 111.750276,140.260029 L112.716771,139.100089 C113.176997,138.477577 113.832016,138.091349 114.538243,138.026071 C115.295887,137.914781 116.060241,138.162742 116.657098,138.713443 C116.916069,138.959017 117.042007,139.345608 116.987472,139.727591 C116.932936,140.109574 116.706212,140.428917 116.392705,140.565326 C116.079198,140.701734 115.726537,140.634486 115.467565,140.388911 C115.242161,140.276625 114.986684,140.276625 114.76128,140.388911 C114.502376,140.408766 114.261254,140.548099 114.092168,140.775558 L113.125673,141.806615 C111.694925,143.183313 109.894691,143.942631 108.032986,143.954652 L108.032986,143.954652 Z" fill="#3D4352"></path>
                <path d="M140.568347,163 L134.297696,160.486918 L135.51137,157.285321 C141.444889,141.759295 136.118207,102.204076 136.084494,101.722115 C132.713177,50.3244285 102.742163,45.4015423 102.371318,45.3671165 L99,44.8851556 L99.9439689,38 L103.315287,38.4819609 C104.764953,38.6885156 138.882688,44.2999174 142.72599,100.964748 C142.928269,102.410631 148.322377,142.551088 141.748308,159.729551 L140.568347,163 Z" fill="#FFFFFF"></path>
            </g>
        </g>
    </g>
</svg>