<svg id="Livello_1" data-name="Livello 1" xmlns="http://www.w3.org/2000/svg" xmlns:xlink="http://www.w3.org/1999/xlink" viewBox="0 0 90.88 90.88"><defs><style>.cls-1{fill:url(#Sfumatura_senza_nome_10);}.cls-2{fill:#491cde;}.cls-3{fill:#fff;}</style><linearGradient id="Sfumatura_senza_nome_10" x1="22.78" y1="-955.22" x2="30.41" y2="-955.22" gradientTransform="matrix(1, 0, 0, -1, 0, -904.27)" gradientUnits="userSpaceOnUse"><stop offset="0" stop-color="#3d4352"/><stop offset="0.17" stop-color="#343a49"/><stop offset="0.67" stop-color="#1e2435"/><stop offset="1" stop-color="#161c2d"/></linearGradient></defs><title>Guido_1</title><path class="cls-1" d="M28.35,57.07A10.7,10.7,0,0,1,26.81,55v-.1c-.43-.75-1.59-2.8-1.81-3.35-.53-1.38-1.74-5.17-.92-6.58a.92.92,0,0,1,.72-.48l-.15-1a2,2,0,0,0-1.47,1c-1.23,2.11.57,6.79.85,7.49s1.61,3,1.85,3.45a12.09,12.09,0,0,0,1.78,2.46l.09.08a3.57,3.57,0,0,0,2,.58,3.13,3.13,0,0,0,.59,0l-.23-1A2.6,2.6,0,0,1,28.35,57.07Z"/><path class="cls-2" d="M50.45,79.87c-6.46,0-13.25-5.81-16.16-9.19-.2-.23-4.17-4.83-4.79-8.54a1,1,0,0,1-.76-.56c-.92-1.84-1-4.78-1-7.9-.1-5.21-.35-8.82-2.61-8.83H24V42.76h1c4.48,0,4.59,5.78,4.7,10.88a32.39,32.39,0,0,0,.51,5.88h.27a1.17,1.17,0,0,1,.82.38,1,1,0,0,1,.22.89c-.42,1.93,2.35,6.25,4.34,8.57,3.4,3.95,10.5,9.38,16.1,8.33,3.45-.67,5.6-4.77,6.38-6.51L59,69.7c1.9-4.17,4.25-9.38,4.39-14.31v-1l2.08.06v1c-.16,5.3-2.6,10.74-4.57,15.11L60.24,72c-1.11,2.52-3.63,6.89-7.88,7.71A9.94,9.94,0,0,1,50.45,79.87Z"/><path class="cls-2" d="M24.35,45.08l-.28-1c-.11-.42-.25-.93-.39-1.47-.24-.93-.51-2-.75-2.69a11,11,0,0,0-.68-1.53,8.33,8.33,0,0,1-.93-2.6,1,1,0,0,1,.06-.57s1.28-3.13,1.59-4.08a12.84,12.84,0,0,0,.5-2,5.39,5.39,0,0,1,1.95-3.68l.57-.48a10.16,10.16,0,0,0,1.56-1.49,6.25,6.25,0,0,0,.61-1,8.57,8.57,0,0,1,.76-1.33c4.93-6.7,7.17-7.23,16.6-9.45l.89-.21c2.68-.64,3.41-.46,4.35.06.47.26,1.11.61,4.05.43a2.47,2.47,0,0,1,1.89.54,3.24,3.24,0,0,1,.78,2.46,3.29,3.29,0,0,0,.34,1.72,4.9,4.9,0,0,0,2.23,1.85c3.66,1.74,5.34,13.79,4.39,18.3l-.22,1-2.08-.43.22-1c1-4.66-1.11-15-3.25-16a6.94,6.94,0,0,1-3-2.52A5,5,0,0,1,55.42,15a3.75,3.75,0,0,0-.11-1h-.35c-3.28.21-4.29-.19-5.21-.68-.4-.22-.68-.38-2.86.15l-.89.21c-9.25,2.18-10.92,2.57-15.4,8.66a7,7,0,0,0-.57,1,8,8,0,0,1-.83,1.43,11.86,11.86,0,0,1-1.88,1.81l-.54.46a3.38,3.38,0,0,0-1.26,2.48,14.76,14.76,0,0,1-.57,2.31c-.28.8-1.19,3.13-1.51,3.89a6.58,6.58,0,0,0,.68,1.74,12.86,12.86,0,0,1,.79,1.8c.27.78.54,1.83.8,2.85.14.52.26,1,.38,1.42l.28,1Z"/><path class="cls-3" d="M64.19,60.38l-1.94-.76.38-1c1.83-4.7.19-16.67.18-16.81-1-15.55-10.3-17-10.42-17.05l-1-.15.29-2.08,1,.15c.45.06,11,1.76,12.18,18.91.06.44,1.73,12.58-.3,17.78Z"/></svg>