<svg id="Livello_1" data-name="Livello 1" xmlns="http://www.w3.org/2000/svg" xmlns:xlink="http://www.w3.org/1999/xlink" viewBox="0 0 90.88 90.88"><defs><style>.cls-1{fill:#491cde;}.cls-2{fill:url(#Sfumatura_senza_nome_10);}.cls-3{fill:url(#Sfumatura_senza_nome);}.cls-4{fill:#3d4352;}.cls-5{fill:url(#Sfumatura_senza_nome_10-2);}</style><linearGradient id="Sfumatura_senza_nome_10" x1="56.07" y1="-949.65" x2="59.09" y2="-949.65" gradientTransform="matrix(1, 0, 0, -1, 0, -904.27)" gradientUnits="userSpaceOnUse"><stop offset="0" stop-color="#3d4352"/><stop offset="0.17" stop-color="#343a49"/><stop offset="0.67" stop-color="#1e2435"/><stop offset="1" stop-color="#161c2d"/></linearGradient><linearGradient id="Sfumatura_senza_nome" x1="39.65" y1="-950.37" x2="45.07" y2="-950.37" gradientTransform="matrix(1, 0, 0, -1, 0, -904.27)" gradientUnits="userSpaceOnUse"><stop offset="0" stop-color="#161c2d"/><stop offset="0.33" stop-color="#1e2435"/><stop offset="0.83" stop-color="#343a49"/><stop offset="1" stop-color="#3d4352"/></linearGradient><linearGradient id="Sfumatura_senza_nome_10-2" x1="30.55" y1="-946.35" x2="65.55" y2="-946.35" xlink:href="#Sfumatura_senza_nome_10"/></defs><title>Guido_2</title><path class="cls-1" d="M61,44a.39.39,0,0,1-.34-.22,2.82,2.82,0,0,0-1.39-1.26,3.66,3.66,0,0,0-2.08,0l-1.44,1a.39.39,0,0,1-.43-.65h0l1.52-1a4.23,4.23,0,0,1,2.67,0,3.57,3.57,0,0,1,1.83,1.65.39.39,0,0,1-.17.52h0A.39.39,0,0,1,61,44Z"/><path class="cls-1" d="M39.33,45A.4.4,0,0,1,39,44.4,7.57,7.57,0,0,1,42.51,42a5.09,5.09,0,0,1,2.2,0h.11a14.16,14.16,0,0,1,1.44,1c.3.23.69.51.8.57a.4.4,0,0,1-.09.77c-.2,0-.36-.1-1.18-.72a15.62,15.62,0,0,0-1.28-.9,4.59,4.59,0,0,0-1.72,0,7,7,0,0,0-3.13,2.16A.39.39,0,0,1,39.33,45Z"/><path class="cls-2" d="M59,46.3a6.82,6.82,0,0,1-2.9-1.45l.35-.39a6.41,6.41,0,0,0,2.66,1.32Z"/><path class="cls-3" d="M42.76,46.61a6.19,6.19,0,0,1-3-.65l-.14-.21h.26l.18-.18a7.29,7.29,0,0,0,4.84.21l.14.5A8.79,8.79,0,0,1,42.76,46.61Z"/><path class="cls-4" d="M42.76,44.93a8.07,8.07,0,0,1-1.82-.21h-.13a.28.28,0,0,1-.26-.18.26.26,0,0,1,.16-.33h0a.58.58,0,0,1,.33,0,7.71,7.71,0,0,0,4.69-.32.26.26,0,1,1,.26.45l-.08,0A8.54,8.54,0,0,1,42.76,44.93Z"/><path class="cls-4" d="M58.66,44.45a6.51,6.51,0,0,1-2.52-.4.26.26,0,0,1,.22-.47,7.53,7.53,0,0,0,3.7.3.26.26,0,0,1,.29.23h0a.26.26,0,0,1-.23.29h0A11.62,11.62,0,0,1,58.66,44.45Z"/><path class="cls-4" d="M38.59,44.83h-.13a.26.26,0,0,1-.09-.35,7.16,7.16,0,0,1,4-3,10.25,10.25,0,0,1,3.13-.19.26.26,0,0,1,.14.05,17.15,17.15,0,0,0,1.93,1.35.26.26,0,0,1-.14.5,14.42,14.42,0,0,1-2.08-1.4,9.56,9.56,0,0,0-2.9.17,6.76,6.76,0,0,0-3.68,2.8A.26.26,0,0,1,38.59,44.83Z"/><path class="cls-4" d="M61.83,43.89a.26.26,0,0,1-.26-.26,2.76,2.76,0,0,0-1.09-1.76,5.76,5.76,0,0,0-3.56-.39l-1.44,1a.26.26,0,1,1-.34-.39l.05,0,1.49-1h.09a6.31,6.31,0,0,1,4,.46,3.31,3.31,0,0,1,1.36,2.17.26.26,0,0,1-.3.21Z"/><path class="cls-4" d="M36.8,44.93h0a12,12,0,0,0-1.5,0,.26.26,0,0,1,0-.52,13,13,0,0,1,1.57,0,.26.26,0,0,1,0,.52Z"/><path class="cls-5" d="M56.82,54.3a1.74,1.74,0,0,0-1.77.81,1.34,1.34,0,0,1-1.42.56A4.17,4.17,0,0,1,52,55.13a5.28,5.28,0,0,0-2.8-.73c-3.57.13-7.16.65-8.5,5.33a12.13,12.13,0,0,0-2.73-2.61,9.79,9.79,0,0,1-2.82-3c-3-5.19-4-13.41-3.33-18.51,1.29-10,7.71-11.54,15.35-11.54,1,0,2,0,3.08,0l.11-1c-8.72-.3-18,.12-19.61,12.39-.7,5.4.28,13.72,3.47,19.17a10.8,10.8,0,0,0,3.13,3.27,10.54,10.54,0,0,1,2.78,2.84.77.77,0,0,0,.66.35h0a.8.8,0,0,0,.65-.6c1.06-4.48,4.1-4.94,7.67-5.06a4.3,4.3,0,0,1,2.31.63,5.13,5.13,0,0,0,2.08.66,2.31,2.31,0,0,0,2.3-1c.26-.32.35-.45.86-.39a6.77,6.77,0,0,1,4.19,1.68l.57-.94A8.26,8.26,0,0,0,56.82,54.3Z"/></svg>