<svg id="Livello_1" data-name="Livello 1" xmlns="http://www.w3.org/2000/svg" xmlns:xlink="http://www.w3.org/1999/xlink" viewBox="0 0 90.88 90.88"><defs><style>.cls-1{fill:#fff;}.cls-2{fill:url(#Sfumatura_senza_nome_10);}.cls-3{fill:url(#Sfumatura_senza_nome_10-2);}.cls-4{fill:#3d4352;}.cls-5{fill:#491cde;}.cls-6{fill:url(#Sfumatura_senza_nome_15);}</style><linearGradient id="Sfumatura_senza_nome_10" x1="46.73" y1="-957.06" x2="49.8" y2="-957.06" gradientTransform="matrix(1, 0, 0, -1, 0, -904.27)" gradientUnits="userSpaceOnUse"><stop offset="0" stop-color="#3d4352"/><stop offset="0.17" stop-color="#343a49"/><stop offset="0.67" stop-color="#1e2435"/><stop offset="1" stop-color="#161c2d"/></linearGradient><linearGradient id="Sfumatura_senza_nome_10-2" x1="53.51" y1="-949.2" x2="56.43" y2="-949.2" xlink:href="#Sfumatura_senza_nome_10"/><linearGradient id="Sfumatura_senza_nome_15" x1="-11.08" y1="-973.62" x2="-11.08" y2="-961.51" gradientTransform="matrix(1.07, 0, 0, -1, 63.75, -904.25)" gradientUnits="userSpaceOnUse"><stop offset="0" stop-color="#161c2d"/><stop offset="1" stop-color="#3d4352"/></linearGradient></defs><title>Guido_3</title><path class="cls-1" d="M62.55,40.68,62,40.1a2.27,2.27,0,0,0-1.75-.74L56,39.5V37.94l4.25-.15A3.88,3.88,0,0,1,63.22,39l.53.57Z"/><path class="cls-1" d="M37.67,41.62l-.59-.51-.56-.57a8.13,8.13,0,0,1,5.9-2.32l6.25.16v1.56l-6.25-.16A6.43,6.43,0,0,0,37.67,41.62Z"/><path class="cls-2" d="M49.13,54.54a2.08,2.08,0,0,1-.57-.06,3.06,3.06,0,0,1-1.21-.71,2.08,2.08,0,0,1-.59-1.27A3.68,3.68,0,0,1,46.88,51l1,.3a2.72,2.72,0,0,0-.08,1,1,1,0,0,0,.28.63,2.08,2.08,0,0,0,.77.46,3.06,3.06,0,0,0,.82,0l.14,1A5.71,5.71,0,0,1,49.13,54.54Z"/><path class="cls-3" d="M55.41,50.4s-1-4.74-1.74-7.68c0-.08-.59-2.2.58-3.25l.7.77c-.57.52-.39,1.8-.27,2.21.75,3,1.74,7.68,1.75,7.73Z"/><path class="cls-4" d="M52.36,54a.26.26,0,0,1-.14,0,1.91,1.91,0,0,0-1.61,0,.26.26,0,0,1-.27-.44l.06,0a2.43,2.43,0,0,1,2.08,0,.26.26,0,0,1-.14.48Z"/><path class="cls-4" d="M53.95,54.44a1.6,1.6,0,0,1-.38,0,.26.26,0,0,1,.13-.5,1.59,1.59,0,0,0,1.29-.4l.27-.28a.75.75,0,0,1,.51-.26.79.79,0,0,1,.59.17.26.26,0,1,1-.33.41.25.25,0,0,0-.2,0,.27.27,0,0,0-.19.09l-.27.25A2.25,2.25,0,0,1,53.95,54.44Z"/><path class="cls-5" d="M53.37,62.5A18.11,18.11,0,0,1,49,61.93a18.07,18.07,0,0,1-4.11-2,.26.26,0,0,1,.16-.47h8.26L55,59.37c1.34-.07,3-.17,3.64-.17a.26.26,0,0,1,.16.47l-2.4,1.89A5.92,5.92,0,0,1,53.37,62.5ZM46,60a19.86,19.86,0,0,0,3.24,1.47,17.93,17.93,0,0,0,4.17.54,5.5,5.5,0,0,0,2.81-.84L58,59.74l-2.83.15L53.38,60Z"/><path class="cls-6" d="M49.46,69.38a6.57,6.57,0,0,1-3.57-1.53c-1.49-1.28-2.61-2.26-2.94-4.52a4.89,4.89,0,0,1,.71-3.9,3.18,3.18,0,0,1,2.48-1.1H50.3a2.58,2.58,0,0,0,1.34-.22,2.15,2.15,0,0,0,.28-.24,2.69,2.69,0,0,1,.53-.42,2.52,2.52,0,0,1,2.27.1l.56.29a4.25,4.25,0,0,0,1,.46,6.34,6.34,0,0,0,1.56,0,2.64,2.64,0,0,1,2.3,1c.68.9,1.21,1.95.32,4.92-.75,2.51-2.36,4.88-3.79,4.49-1.11-.3-1-1.72-1-2.32a3.2,3.2,0,0,1,.05-.68,7.83,7.83,0,0,0-4.06.06,2.88,2.88,0,0,0,.06.73c.09,1.56-.51,2.2-1,2.46A2.8,2.8,0,0,1,49.46,69.38Zm-3.35-10a2.14,2.14,0,0,0-1.67.72,4,4,0,0,0-.49,3.13c.27,1.88,1.13,2.6,2.53,3.82.61.53,2.5,1.78,3.78,1.14.47-.23.49-1,.47-1.47a8.59,8.59,0,0,0-.11-1l-.06-.41.38-.16A8.68,8.68,0,0,1,56.48,65l.4.14v.42s-.07.7-.09,1-.06,1.19.24,1.27,1.74-1.21,2.51-3.78.3-3.39-.16-4a1.73,1.73,0,0,0-1.43-.61,7.29,7.29,0,0,1-1.85-.07,5.13,5.13,0,0,1-1.27-.55l-.5-.26A1.52,1.52,0,0,0,53,58.47a1.85,1.85,0,0,0-.32.27,3.18,3.18,0,0,1-.43.35,3.39,3.39,0,0,1-1.93.39H46.17Z"/></svg>