<svg id="Livello_1" data-name="Livello 1" xmlns="http://www.w3.org/2000/svg" xmlns:xlink="http://www.w3.org/1999/xlink" viewBox="0 0 90.88 90.88"><defs><style>.cls-1{fill:#fff;}.cls-2{fill:url(#Sfumatura_senza_nome_10);}.cls-3{fill:url(#Sfumatura_senza_nome_10-2);}.cls-4{fill:#3d4352;}</style><linearGradient id="Sfumatura_senza_nome_10" x1="46.73" y1="-957.06" x2="49.8" y2="-957.06" gradientTransform="matrix(1, 0, 0, -1, 0, -904.27)" gradientUnits="userSpaceOnUse"><stop offset="0" stop-color="#3d4352"/><stop offset="0.17" stop-color="#343a49"/><stop offset="0.67" stop-color="#1e2435"/><stop offset="1" stop-color="#161c2d"/></linearGradient><linearGradient id="Sfumatura_senza_nome_10-2" x1="53.51" y1="-949.2" x2="56.43" y2="-949.2" xlink:href="#Sfumatura_senza_nome_10"/></defs><title>Guido_3</title><path class="cls-1" d="M62.55,40.68,62,40.1a2.27,2.27,0,0,0-1.75-.74L56,39.5V37.94l4.25-.15A3.88,3.88,0,0,1,63.22,39l.53.57Z"/><path class="cls-1" d="M37.67,41.62l-.59-.51-.56-.57a8.13,8.13,0,0,1,5.9-2.32l6.25.16v1.56l-6.25-.16A6.43,6.43,0,0,0,37.67,41.62Z"/><path class="cls-2" d="M49.13,54.54a2.08,2.08,0,0,1-.57-.06,3.06,3.06,0,0,1-1.21-.71,2.08,2.08,0,0,1-.59-1.27A3.68,3.68,0,0,1,46.88,51l1,.3a2.72,2.72,0,0,0-.08,1,1,1,0,0,0,.28.63,2.08,2.08,0,0,0,.77.46,3.06,3.06,0,0,0,.82,0l.14,1A5.71,5.71,0,0,1,49.13,54.54Z"/><path class="cls-3" d="M55.41,50.4s-1-4.74-1.74-7.68c0-.08-.59-2.2.58-3.25l.7.77c-.57.52-.39,1.8-.27,2.21.75,3,1.74,7.68,1.75,7.73Z"/><path class="cls-4" d="M52.36,54a.26.26,0,0,1-.14,0,1.91,1.91,0,0,0-1.61,0,.26.26,0,0,1-.27-.44l.06,0a2.43,2.43,0,0,1,2.08,0,.26.26,0,0,1-.14.48Z"/><path class="cls-4" d="M53.95,54.44a1.6,1.6,0,0,1-.38,0,.26.26,0,0,1,.13-.5,1.59,1.59,0,0,0,1.29-.4l.27-.28a.75.75,0,0,1,.51-.26.79.79,0,0,1,.59.17.26.26,0,1,1-.33.41.25.25,0,0,0-.2,0,.27.27,0,0,0-.19.09l-.27.25A2.25,2.25,0,0,1,53.95,54.44Z"/></svg>