<svg id="Livello_1" data-name="Livello 1" xmlns="http://www.w3.org/2000/svg" xmlns:xlink="http://www.w3.org/1999/xlink" viewBox="0 0 90.88 90.88"><defs><style>.cls-1{fill:#fff;}.cls-2{fill:url(#Sfumatura_senza_nome_10);}.cls-3{fill:url(#Sfumatura_senza_nome_10-2);}.cls-4{fill:url(#Sfumatura_senza_nome);}.cls-5{fill:#491cde;}.cls-6{fill:url(#Sfumatura_senza_nome-2);}.cls-7{fill:url(#Sfumatura_senza_nome-3);}.cls-8{fill:url(#Sfumatura_senza_nome_10-3);}.cls-9{fill:#3d4352;}</style><linearGradient id="Sfumatura_senza_nome_10" x1="41.02" y1="-1216.37" x2="41.02" y2="-1212.8" gradientTransform="matrix(1, 0, 0, -1, 0, -1160.37)" gradientUnits="userSpaceOnUse"><stop offset="0" stop-color="#3d4352"/><stop offset="0.17" stop-color="#343a49"/><stop offset="0.67" stop-color="#1e2435"/><stop offset="1" stop-color="#161c2d"/></linearGradient><linearGradient id="Sfumatura_senza_nome_10-2" x1="49.69" y1="-1216.43" x2="49.69" y2="-1212.82" xlink:href="#Sfumatura_senza_nome_10"/><linearGradient id="Sfumatura_senza_nome" x1="42.53" y1="-1211.48" x2="42.53" y2="-1201.65" gradientTransform="matrix(1, 0, 0, -1, 0, -1160.37)" gradientUnits="userSpaceOnUse"><stop offset="0" stop-color="#161c2d"/><stop offset="0.33" stop-color="#1e2435"/><stop offset="0.83" stop-color="#343a49"/><stop offset="1" stop-color="#3d4352"/></linearGradient><linearGradient id="Sfumatura_senza_nome-2" x1="37.12" y1="-1224.67" x2="55.23" y2="-1224.67" xlink:href="#Sfumatura_senza_nome"/><linearGradient id="Sfumatura_senza_nome-3" x1="36.12" y1="-1224.8" x2="44.27" y2="-1224.8" xlink:href="#Sfumatura_senza_nome"/><linearGradient id="Sfumatura_senza_nome_10-3" x1="35.68" y1="-1217.52" x2="56.01" y2="-1217.52" xlink:href="#Sfumatura_senza_nome_10"/></defs><title>Lorenzo_3</title><path class="cls-1" d="M58.65,42.89c-2.79-2.47-8.67-1.57-8.73-1.56l-.23-1.48c.27,0,6.64-1,10,1.92Z"/><path class="cls-1" d="M32.12,43l-1.35-.66C32.35,39.14,40.12,40,41,40.14l-.19,1.49C37.9,41.28,33,41.33,32.12,43Z"/><path class="cls-2" d="M42,56a2.27,2.27,0,0,1-1.74-1,2.61,2.61,0,0,1,.35-2.6l.86.51c-.41.69-.54,1.25-.37,1.57S42,55,42,55Z"/><path class="cls-3" d="M48.67,56l-.08-1c.27,0,1.06-.22,1.21-.65v-.1h0a3.05,3.05,0,0,0-.45-1.42l.89-.45c.71,1.41.57,2.08.44,2.35A2.39,2.39,0,0,1,48.67,56Z"/><path class="cls-4" d="M43.1,51.12l-1-.17c.58-3.3.82-6.29.83-6.32a2.84,2.84,0,0,0-1.66-2.42l-.15-.08.61-.79-.3.4.24-.44a3.87,3.87,0,0,1,2.27,3.34C43.94,44.74,43.69,47.77,43.1,51.12Z"/><path class="cls-5" d="M45.87,62.72a14.41,14.41,0,0,1-8.22-2.94.25.25,0,0,1,.26-.42A16.35,16.35,0,0,0,45,60.68a.23.23,0,0,1,.16,0,1.48,1.48,0,0,0,1.38,0h.11a24.72,24.72,0,0,0,6.94-1.14.25.25,0,0,1,.22.43A14,14,0,0,1,45.87,62.72Zm-6.16-2.18a14.53,14.53,0,0,0,6.16,1.68,13.1,13.1,0,0,0,6.25-1.76,24,24,0,0,1-5.42.75h0a2,2,0,0,1-1.73,0A15.47,15.47,0,0,1,39.71,60.54Z"/><path class="cls-6" d="M49.17,70a2.4,2.4,0,0,1-1.8-.83,2.19,2.19,0,0,1-.24-2.65,4.16,4.16,0,0,0,.68-1.8h1A5.09,5.09,0,0,1,48,67a1.2,1.2,0,0,0,.13,1.48,1.37,1.37,0,0,0,1.62.36c3.47-1.59,4.46-7.6,4.47-7.66A1.32,1.32,0,0,0,54,60c-3.12,0-7.16-.34-7.88-.4a2.84,2.84,0,0,1-1.66,0,26.61,26.61,0,0,1-7.32-.06l.17-1a26,26,0,0,0,7.12,0h.25a1.8,1.8,0,0,0,1.18,0h.23s4.69.39,8.08.41h.13l.11.06a2.07,2.07,0,0,1,.79,2.29c0,.26-1.08,6.59-5,8.4A2.35,2.35,0,0,1,49.17,70Z"/><path class="cls-7" d="M41.9,70.16a2.26,2.26,0,0,1-1.12-.3c-3.71-2.12-4.57-8.6-4.61-8.88a2,2,0,0,1,.8-2.27l.49.87-.24-.44.26.43s-.47.32-.31,1.25c0,.09.84,6.29,4.11,8.16a1.37,1.37,0,0,0,1.89-1.73,8.58,8.58,0,0,1-.55-2.4h1a7.8,7.8,0,0,0,.45,2,2.3,2.3,0,0,1-.58,2.7A2.35,2.35,0,0,1,41.9,70.16Z"/><path class="cls-8" d="M53.27,58.41a7,7,0,0,1-4-1.15A1.77,1.77,0,0,0,47.7,57a6.88,6.88,0,0,1-4.58,0c-.45-.2-.66-.1-1.21.14l-.13.06a6,6,0,0,1-6.1-.2l.51-.86a4.94,4.94,0,0,0,5.09.14l.21-.09a2.19,2.19,0,0,1,2-.14,6,6,0,0,0,3.88,0,2.78,2.78,0,0,1,2.42.32,7,7,0,0,0,5.47.71l.22.44.27-.42.23.45-.3.43A7.43,7.43,0,0,1,53.27,58.41Z"/><path class="cls-9" d="M45.59,65.48a7.65,7.65,0,0,1-3.34-.62.38.38,0,0,1,.35-.67h0s2.73,1.35,7.55-.29a.37.37,0,0,1,.24.71h0A14.88,14.88,0,0,1,45.59,65.48Z"/><path class="cls-9" d="M34.9,60.45a.25.25,0,0,1-.23-.16,3.54,3.54,0,0,1-.14-2.66c.34-1,1.95-1.56,2-1.58a.25.25,0,0,1,.16.47c-.4.13-1.48.63-1.71,1.3a3.16,3.16,0,0,0,.15,2.3.25.25,0,0,1-.15.32Z"/><path class="cls-9" d="M56.12,60.45H56a.25.25,0,0,1-.16-.31h0a3.4,3.4,0,0,0,.26-1.42c-.1-.57-1-1.06-1.33-1.21A.25.25,0,0,1,55,57c.06,0,1.46.63,1.63,1.58a3.65,3.65,0,0,1-.28,1.67A.25.25,0,0,1,56.12,60.45Z"/><path class="cls-9" d="M45.87,56.53a.25.25,0,0,1-.21-.38,3.52,3.52,0,0,1,2.86-1.53h.19a.25.25,0,0,1,0,.5h0a3,3,0,0,0-2.61,1.29A.25.25,0,0,1,45.87,56.53Z"/><path class="cls-9" d="M44.31,56.75h-.08a2.58,2.58,0,0,1-1-.69,1.6,1.6,0,0,0-1.36-.79c-.11,0-.33,0-.38-.22a.25.25,0,0,1,.36-.28h0a2.09,2.09,0,0,1,1.73,1h0a2.1,2.1,0,0,0,.75.53.25.25,0,0,1-.08.49Z"/></svg>