<svg id="Livello_1" data-name="Livello 1" xmlns="http://www.w3.org/2000/svg" xmlns:xlink="http://www.w3.org/1999/xlink" viewBox="0 0 90.88 90.88"><defs><style>.cls-1{fill:url(#Sfumatura_senza_nome);}.cls-2{fill:url(#Sfumatura_senza_nome_10);}.cls-3{fill:url(#Sfumatura_senza_nome-2);}.cls-4{fill:#491cde;}.cls-5{fill:#3d4352;}</style><linearGradient id="Sfumatura_senza_nome" x1="56.18" y1="-1207.08" x2="62.4" y2="-1207.08" gradientTransform="matrix(1, 0, 0, -1, 0, -1160.37)" gradientUnits="userSpaceOnUse"><stop offset="0" stop-color="#161c2d"/><stop offset="0.33" stop-color="#1e2435"/><stop offset="0.83" stop-color="#343a49"/><stop offset="1" stop-color="#3d4352"/></linearGradient><linearGradient id="Sfumatura_senza_nome_10" x1="28.78" y1="-1205.99" x2="34.88" y2="-1205.99" gradientTransform="matrix(1, 0, 0, -1, 0, -1160.37)" gradientUnits="userSpaceOnUse"><stop offset="0" stop-color="#3d4352"/><stop offset="0.17" stop-color="#343a49"/><stop offset="0.67" stop-color="#1e2435"/><stop offset="1" stop-color="#161c2d"/></linearGradient><linearGradient id="Sfumatura_senza_nome-2" x1="36.07" y1="-1186.5" x2="56.44" y2="-1186.5" xlink:href="#Sfumatura_senza_nome"/></defs><title>Lorenzo_2</title><path class="cls-1" d="M56.47,60.36h-.29l.11-1a4.19,4.19,0,0,0,3.09-1.19c1.54-1.47,2.2-4.11,2-7.85,0-.1-1-11.23-3-16.92l.94-.33c2.06,5.81,3,16.72,3,17.18.24,4.07-.54,7-2.31,8.66A5.25,5.25,0,0,1,56.47,60.36Z"/><path class="cls-2" d="M34.59,60.37a4.53,4.53,0,0,1-3-1.25c-2-1.85-3-5.43-2.76-10.64,0-.08.46-6.25.69-12.39,0-.4.14-4,1.73-5.21l.59.8c-1,.75-1.3,3.46-1.33,4.44-.24,6.16-.69,12.35-.69,12.41-.24,6.09,1.19,8.72,2.43,9.85a3.36,3.36,0,0,0,2.51,1l.13,1Z"/><path class="cls-3" d="M55.33,30.13a3.24,3.24,0,0,1-1.64-.45,3.44,3.44,0,0,1-1.53-2,3.14,3.14,0,0,1,0-1.62,6.25,6.25,0,0,1-1.41,0,3,3,0,0,1-2.16-1.25,3.64,3.64,0,0,1-.3-.67,1.75,1.75,0,0,0-.32-.62,1.72,1.72,0,0,0-1.63-.16,8.39,8.39,0,0,0-.83.33,6.89,6.89,0,0,1-1.34.47,7,7,0,0,1-2.76-.14,7.48,7.48,0,0,0-2.11-.19,6.84,6.84,0,0,0-2.71,1.16L36.07,24a7.63,7.63,0,0,1,3.17-1.3,8.24,8.24,0,0,1,2.4.2,6.27,6.27,0,0,0,2.38.15,6,6,0,0,0,1.15-.41,9.79,9.79,0,0,1,.93-.36,2.64,2.64,0,0,1,2.65.42,2.58,2.58,0,0,1,.54,1,2.67,2.67,0,0,0,.21.49,2,2,0,0,0,1.4.79,7.7,7.7,0,0,0,2,0l1.1-.11-.64.9a1.94,1.94,0,0,0-.23,1.64,2.42,2.42,0,0,0,1.08,1.45,2.15,2.15,0,0,0,1.85.18l.38.93A2.9,2.9,0,0,1,55.33,30.13Z"/><path class="cls-4" d="M57.05,46a.37.37,0,0,1-.28-.13c-1.36-1.57-4-1.3-4-1.3a6.71,6.71,0,0,0-2.26,1.19.38.38,0,0,1-.47-.59,7.34,7.34,0,0,1,2.55-1.36c.15,0,3.09-.32,4.7,1.55A.37.37,0,0,1,57,46Z"/><path class="cls-5" d="M53.93,46.76a5.49,5.49,0,0,1-.68,0,.25.25,0,0,1-.21-.28.26.26,0,0,1,.28-.21,4.45,4.45,0,0,0,3.05-.7.25.25,0,1,1,.33.38A4.29,4.29,0,0,1,53.93,46.76Z"/><path class="cls-4" d="M34.18,46a.38.38,0,0,1-.33-.56A3.56,3.56,0,0,1,35.72,44c2-.84,5.74,1.27,5.9,1.36a.37.37,0,0,1-.37.65h0c-1-.56-3.85-1.89-5.27-1.31a2.86,2.86,0,0,0-1.47,1.17A.37.37,0,0,1,34.18,46Z"/><path class="cls-5" d="M36.92,46.81a3.34,3.34,0,0,1-2.6-.84.25.25,0,1,1,.43-.26c.07.07,1.24,1.09,4.17.32a.25.25,0,1,1,.18.47h-.05A8.36,8.36,0,0,1,36.92,46.81Z"/><path class="cls-5" d="M37.33,49.21a.25.25,0,0,1-.24-.17.26.26,0,0,1,0-.21c.06-.11.14-.13.36-.17a5.56,5.56,0,0,0,3.25-1.75.25.25,0,0,1,.4.3,6,6,0,0,1-3.51,1.94h-.12Z"/><path class="cls-5" d="M57.59,44.92a.25.25,0,0,1-.16-.06,5.52,5.52,0,0,0-6.53-.76.25.25,0,0,1-.28-.42,6,6,0,0,1,7.13.79.25.25,0,0,1-.16.44Z"/><path class="cls-5" d="M33.37,45.14h-.11a.25.25,0,0,1-.11-.34h0a3.74,3.74,0,0,1,1.11-1.27s1.48-1.26,5.3-.33a.25.25,0,0,1-.12.48c-3.53-.86-4.87.23-4.88.24a3.32,3.32,0,0,0-1,1.12A.25.25,0,0,1,33.37,45.14Z"/><path class="cls-5" d="M55.31,49.31h0a9.65,9.65,0,0,1-4.24-1.47.25.25,0,1,1,.23-.44l0,0a9.32,9.32,0,0,0,4,1.38.25.25,0,0,1,0,.5Z"/><path class="cls-4" d="M28.79,33.87l-2-.33.16-1c.26-1.62,2.11-1.92,3.21-2.09h.27a16,16,0,0,1,2.16-.21h.92a3.85,3.85,0,0,0,1.18-.2,1.05,1.05,0,0,0,.57-.46,1.2,1.2,0,0,0,.07-.55,2,2,0,0,0-.79-1.59l-.83-.55,1.11-1.67.83.55a4,4,0,0,1,1.68,3.16,3.09,3.09,0,0,1-.26,1.5,3,3,0,0,1-1.64,1.47,5.64,5.64,0,0,1-1.76.34h-1a14.06,14.06,0,0,0-1.89.14h-.29c-.38.06-1.39.22-1.55.45Z"/></svg>