<svg id="Livello_1" data-name="Livello 1" xmlns="http://www.w3.org/2000/svg" viewBox="0 0 90.88 90.88"><defs><style>.cls-1{fill:#491cde;}.cls-2{fill:#fff;}</style></defs><title>Lorenzo_1</title><path class="cls-1" d="M45,78.42h-.39c-11.4,0-16.77-16.8-17-17.52-.08-.24-2.31-6.77-1.22-17.11l.1-1,2,.21-.11,1c-1,9.89,1.11,16.21,1.13,16.27s5.17,16.15,15.15,16.15a16.73,16.73,0,0,0,11.83-5.07C61.62,66,63.73,57.16,62.73,45l-.08-1,2-.16.08,1c1,12.79-1.26,22.2-6.85,27.94A18.59,18.59,0,0,1,45,78.42Z"/><path class="cls-1" d="M62.87,46.24l-.07-1a3.42,3.42,0,0,1,.69-2.86,6.86,6.86,0,0,1,1.77-1.51l.44-.3a2.36,2.36,0,0,0,1.11-1.35,3.42,3.42,0,0,0-.22-1.37,3.65,3.65,0,0,1,.62-4A2.39,2.39,0,0,0,67.7,33c.08-.47-.43-1-.9-1.39l-.54-.37a5.88,5.88,0,0,1-1.84-1.71,4.29,4.29,0,0,1-.19-3.22c.14-.71.29-1.43.07-1.76a3.88,3.88,0,0,0-2.12-1.17,7.49,7.49,0,0,1-2.54-1.22A7.28,7.28,0,0,1,58,19.94a7.13,7.13,0,0,0-1-1.48A6.57,6.57,0,0,0,53.49,17a16.49,16.49,0,0,1-2.42-.62,15.48,15.48,0,0,1-1.75-.81c-.47-.24-.91-.47-1.36-.65a7.29,7.29,0,0,0-6,.33,5.55,5.55,0,0,1-3,.64,27,27,0,0,0-4.63,0A3.45,3.45,0,0,0,31.94,18c-1,2.94-2.31,4-2.66,4.24a6.18,6.18,0,0,1-2.22,1c-.79.22-1.28.38-1.47.74s0,.71.17,1.22A4.37,4.37,0,0,1,26,27.41a4,4,0,0,1-1.78,2.24c-.44.34-1,.76-1,1a2.1,2.1,0,0,0,.23.64,4.16,4.16,0,0,1,.43,2.52,5.09,5.09,0,0,0,0,.87,3,3,0,0,0,.84,1.16A4.21,4.21,0,0,1,26.08,38,4.65,4.65,0,0,1,26,39.47a6.34,6.34,0,0,0-.13,1.78c.12,1.32.53,1.5,1.18,1.63l1,.19-.43,2-1-.19c-1.73-.33-2.62-1.42-2.8-3.41a8.19,8.19,0,0,1,.15-2.3,3.38,3.38,0,0,0,.09-.83,3,3,0,0,0-.84-1.16,4.2,4.2,0,0,1-1.38-2.29,6.68,6.68,0,0,1,0-1.23,3.52,3.52,0,0,0,0-1.06,3.36,3.36,0,0,0-.22-.53,3.6,3.6,0,0,1-.41-1.39c0-1.29,1-2.06,1.76-2.68.46-.35,1-.75,1-1.06a2.91,2.91,0,0,0-.21-1.22,3.43,3.43,0,0,1,0-2.73,3.91,3.91,0,0,1,2.69-1.72A4.44,4.44,0,0,0,28,20.59l.11-.08h0A6.51,6.51,0,0,0,30,17.3a5.42,5.42,0,0,1,3.76-3.37,27.47,27.47,0,0,1,5.34,0A3.53,3.53,0,0,0,41,13.51a9.3,9.3,0,0,1,7.64-.42c.54.22,1,.48,1.54.73a13.62,13.62,0,0,0,1.53.71,14.64,14.64,0,0,0,2.13.54,8.14,8.14,0,0,1,4.58,2,8.72,8.72,0,0,1,1.34,2,5.76,5.76,0,0,0,1.17,1.65,5.86,5.86,0,0,0,1.89.86,5.5,5.5,0,0,1,3.16,2,4.17,4.17,0,0,1,.23,3.27,3.07,3.07,0,0,0-.08,1.77A4.25,4.25,0,0,0,67.4,29.7l.61.43a3.52,3.52,0,0,1,1.67,3.33A4,4,0,0,1,68.82,35a2.91,2.91,0,0,0-.49.8,2.88,2.88,0,0,0,.19,1.43,5,5,0,0,1,.26,2.27,4.18,4.18,0,0,1-1.93,2.64l-.48.33a5.2,5.2,0,0,0-1.28,1.05c-.32.43-.36.48-.29,1.5l.07,1Z"/><path class="cls-2" d="M27.59,45l-1-.19c-1.73-.33-2.62-1.42-2.8-3.41a8.19,8.19,0,0,1,.15-2.3,3.38,3.38,0,0,0,.09-.83,3,3,0,0,0-.84-1.16,4.2,4.2,0,0,1-1.38-2.29,6.68,6.68,0,0,1,0-1.23,3.52,3.52,0,0,0,0-1.06,3.36,3.36,0,0,0-.22-.53,3.6,3.6,0,0,1-.41-1.39c0-1.29,1-2.06,1.76-2.68.46-.35,1-.75,1-1.06a2.91,2.91,0,0,0-.21-1.22,3.43,3.43,0,0,1,0-2.73,3.91,3.91,0,0,1,2.69-1.72A4.44,4.44,0,0,0,28,20.59l.11-.08h0A6.51,6.51,0,0,0,30,17.3a5.42,5.42,0,0,1,3.76-3.37l1-.26.53,1.93-1,.26a3.45,3.45,0,0,0-2.39,2.07c-1,2.94-2.31,4-2.66,4.24a6.18,6.18,0,0,1-2.22,1c-.79.22-1.28.38-1.47.74s0,.71.17,1.22a4.37,4.37,0,0,1,.26,2.21,4,4,0,0,1-1.78,2.24c-.44.34-1,.76-1,1a2.1,2.1,0,0,0,.23.64,4.16,4.16,0,0,1,.43,2.52,5.09,5.09,0,0,0,0,.87,3,3,0,0,0,.84,1.16A4.21,4.21,0,0,1,26.08,38,4.65,4.65,0,0,1,26,39.47a6.34,6.34,0,0,0-.13,1.78c.12,1.32.53,1.5,1.18,1.63l1,.19Z"/></svg>