<?xml version="1.0" encoding="UTF-8"?>
<svg width="220px" height="247px" viewBox="0 0 220 247" version="1.1" xmlns="http://www.w3.org/2000/svg" xmlns:xlink="http://www.w3.org/1999/xlink">
    <!-- Generator: Sketch 47.1 (45422) - http://www.bohemiancoding.com/sketch -->
    <title>Lorenzo</title>
    <desc>Created with Sketch.</desc>
    <defs>
        <linearGradient x1="51.5000851%" y1="99.1666667%" x2="51.5000851%" y2="0%" id="linearGradient-1">
            <stop stop-color="#3D4352" offset="0%"></stop>
            <stop stop-color="#343A49" offset="17%"></stop>
            <stop stop-color="#1E2435" offset="67%"></stop>
            <stop stop-color="#161C2D" offset="100%"></stop>
        </linearGradient>
        <linearGradient x1="50.3546099%" y1="-0.101832994%" x2="50.3546099%" y2="100%" id="linearGradient-2">
            <stop stop-color="#161C2D" offset="0%"></stop>
            <stop stop-color="#1E2435" offset="33%"></stop>
            <stop stop-color="#343A49" offset="83%"></stop>
            <stop stop-color="#3D4352" offset="100%"></stop>
        </linearGradient>
        <linearGradient x1="50.3546099%" y1="100%" x2="50.3546099%" y2="-0.101832994%" id="linearGradient-3">
            <stop stop-color="#161C2D" offset="0%"></stop>
            <stop stop-color="#1E2435" offset="33%"></stop>
            <stop stop-color="#343A49" offset="83%"></stop>
            <stop stop-color="#3D4352" offset="100%"></stop>
        </linearGradient>
        <linearGradient x1="0.303693432%" y1="49.9490835%" x2="100.405526%" y2="49.9490835%" id="linearGradient-4">
            <stop stop-color="#161C2D" offset="0%"></stop>
            <stop stop-color="#1E2435" offset="33%"></stop>
            <stop stop-color="#343A49" offset="83%"></stop>
            <stop stop-color="#3D4352" offset="100%"></stop>
        </linearGradient>
    </defs>
    <g id="Symbols" stroke="none" stroke-width="1" fill="none" fill-rule="evenodd">
        <g id="Lorenzo" fill-rule="nonzero">
            <g transform="translate(26.000000, 0.000000)" id="Shape">
                <path d="M125.823766,116 C125.447799,115.998519 125.091246,115.848207 124.847377,115.588385 C120.104916,110.617345 110.898963,111.472237 110.898963,111.472237 C108.030553,112.258446 105.355142,113.537568 103.018109,115.240096 C102.447632,115.557923 101.705694,115.439582 101.288667,114.964245 C100.87164,114.488908 100.910466,113.805828 101.37917,113.371998 C103.999633,111.415739 107.02225,109.951997 110.271284,109.065873 C110.79435,109.065873 121.046434,108.052668 126.66067,113.973589 C127.009644,114.319123 127.098137,114.820291 126.885622,115.247565 C126.673107,115.674839 126.200512,115.945928 125.684282,115.936675 L125.823766,116 Z" fill="#491CDE"></path>
                <path d="M114.093906,118.966603 C113.308642,119.011132 112.521112,119.011132 111.735848,118.966603 C111.269247,118.901328 110.945544,118.506893 111.007624,118.079254 C111.094982,117.661738 111.515544,117.37348 111.978589,117.413742 C115.68173,117.86888 119.439795,117.080649 122.555175,115.19537 C122.919058,114.906579 123.470216,114.942051 123.78622,115.274598 C124.102224,115.607145 124.06341,116.110839 123.699526,116.399629 C120.918119,118.243393 117.524081,119.150404 114.093906,118.966603 L114.093906,118.966603 Z" fill="#3D4352"></path>
                <path d="M45.3130107,115.999811 C44.8481673,115.994769 44.4200684,115.774811 44.1840533,115.419751 C43.9480382,115.06469 43.9384026,114.626121 44.1586429,114.263182 C45.6669438,112.088833 47.9785544,110.445018 50.7000605,109.611497 C57.6962291,107.006554 70.7790643,113.549924 71.3387578,113.829025 C71.9666379,114.145875 72.1858982,114.853969 71.8284896,115.410598 C71.471081,115.967226 70.6723467,116.161605 70.0444666,115.844755 C66.5463823,114.108126 56.5768421,109.983632 51.6095624,111.782283 C49.4835228,112.443866 47.6716499,113.722319 46.4673785,115.410598 C46.2348738,115.780935 45.79102,116.007488 45.3130107,115.999811 Z" fill="#491CDE"></path>
                <path d="M54.0059288,119.93618 C50.7715493,120.269808 47.540047,119.284817 45.1239516,117.228873 C44.8786825,116.846172 45.0086867,116.348344 45.4143239,116.116943 C45.8199611,115.885542 46.3476249,116.008195 46.592894,116.390897 C46.8320241,116.616506 50.8289139,119.90395 60.838219,117.422252 C61.1426922,117.311298 61.4875691,117.373774 61.7268329,117.583229 C61.9660967,117.792683 62.0578998,118.112482 61.9633738,118.407227 C61.8688479,118.701971 61.6045255,118.920109 61.2823179,118.969285 C58.9111066,119.585858 56.4654041,119.910846 54.0059288,119.93618 L54.0059288,119.93618 Z" fill="#3D4352"></path>
                <path d="M56.9632615,126.999942 C56.5649544,127.003912 56.2088095,126.803675 56.0813726,126.504114 C55.9728758,126.30903 55.9728758,126.086703 56.0813726,125.89162 C56.3018448,125.57079 56.5958078,125.512457 57.4042059,125.395791 C62.0010794,124.823501 66.2141241,123.022845 69.3464512,120.291675 C69.543369,120.083272 69.8654011,119.974086 70.1912413,120.005246 C70.5170814,120.036407 70.7972265,120.203179 70.9261487,120.442742 C71.0550709,120.682305 71.0131839,120.958264 70.8162659,121.166667 C67.4619598,124.171148 62.9082329,126.168899 57.9186411,126.824944 L57.4776967,126.824944 L57.4776967,126.824944 L56.9632615,126.999942 Z" fill="#3D4352"></path>
                <path d="M128.121932,112 C127.913628,111.998296 127.712705,111.936562 127.554397,111.825623 C121.268819,106.991903 111.864302,106.095089 104.391847,109.616844 C104.125723,109.762208 103.785164,109.780204 103.498456,109.664052 C103.211747,109.547901 103.022447,109.315248 103.001862,109.053732 C102.981277,108.792216 103.132535,108.541567 103.398659,108.396203 C111.520642,104.493461 121.807218,105.427304 128.689468,110.69217 C128.970451,110.889017 129.072907,111.208035 128.946568,111.492701 C128.820229,111.777368 128.491605,111.967949 128.121932,111.970937 L128.121932,112 Z" fill="#3D4352"></path>
                <path d="M42.9006375,112.997675 L42.5021791,112.997675 C42.2841131,112.905834 42.1189476,112.743511 42.0439724,112.547355 C41.9689973,112.351198 41.9905342,112.137747 42.1037206,111.955192 C43.0762037,110.414978 44.4514434,109.083118 46.1245288,108.061215 C46.1245288,108.061215 51.4856063,104.197898 65.3229822,107.049394 C65.7998008,107.154766 66.0895482,107.563525 65.9750052,107.969231 C65.8505174,108.372832 65.367605,108.618088 64.8883003,108.521133 C52.1014058,105.884266 47.2474572,109.226342 47.2112337,109.257003 C45.7493454,110.163032 44.548211,111.336949 43.6975545,112.691062 C43.5117924,112.902371 43.2108687,113.01815 42.9006375,112.997675 L42.9006375,112.997675 Z" fill="#3D4352"></path>
                <path d="M129.464,105 C119.978,96.5232704 99.986,99.6119573 99.782,99.646276 L99,94.567102 C99.918,94.567102 121.576,91.1352276 133,101.156301 L129.464,105 Z" fill="#FFFFFF"></path>
                <path d="M37.7507331,107 L33,104.653448 C38.5601173,93.1340109 65.9032258,96.2983007 69,96.6893927 L68.3313783,101.986912 C58.0909091,100.742528 40.7067449,100.920297 37.7507331,107 Z" fill="#FFFFFF"></path>
                <path d="M119.005237,127 L119.005237,127 C113.82831,126.536484 108.84555,124.98026 104.461118,122.457557 C104.16785,122.319823 103.988642,122.042443 104.00056,121.744699 C104.012478,121.446955 104.213398,121.181922 104.516917,121.063574 C104.820435,120.945227 105.172449,120.99466 105.421579,121.190617 C109.571784,123.540919 114.266386,124.999963 119.142446,125.454951 C119.61606,125.454951 120,125.800822 120,126.227476 C120,126.654129 119.61606,127 119.142446,127 L119.005237,127 Z" fill="#3D4352"></path>
                <path d="M71.9387369,151 C69.7827204,150.850251 67.8131484,149.618472 66.6088516,147.666667 C65.5091107,144.778023 65.9184076,141.46935 67.6809549,139 L70.3152661,140.7 C69.0593736,143 68.6611638,144.866667 69.1818997,145.933333 C69.7026356,147 72,147.566667 72,147.566667 L71.9387369,151 Z" fill="url(#linearGradient-1)"></path>
                <path d="M95.2550369,151 L95,147.685083 C95.8607497,147.685083 98.3792394,146.955801 98.8574337,145.530387 L98.8574337,145.198895 L98.8574337,145.198895 C98.7607372,143.53066 98.2678435,141.913368 97.4228509,140.491713 L100.260137,139 C102.52359,143.674033 102.077275,145.895028 101.66284,146.790055 C100.387655,150.403315 95.7969904,151 95.2550369,151 Z" fill="url(#linearGradient-2)"></path>
                <path d="M77.0212766,135 L73.4751773,134.411405 C75.5319149,122.985743 76.3829787,112.633401 76.4184397,112.529532 C76.200698,108.886465 73.9344839,105.660759 70.5319149,104.150713 L70,103.873727 L72.1631206,101.138493 L71.0992908,102.523422 L71.9503546,101 C76.644036,103.07387 79.752675,107.539754 80,112.564155 C80,112.910387 79.1134752,123.401222 77.0212766,135 Z" fill="url(#linearGradient-3)"></path>
                <path d="M85.98942,175 C75.609881,174.622559 65.6006759,170.981537 57.3401753,164.578341 C56.9854741,164.300876 56.8950852,163.795254 57.1310567,163.408562 C57.369401,163.029835 57.8488485,162.89269 58.2463558,163.089532 C66.0381997,166.500444 74.4804967,168.099031 82.9572006,167.768644 C83.1370934,167.700767 83.3349574,167.700767 83.5148502,167.768644 C85.0199849,168.575376 86.8194426,168.575376 88.3245774,167.768644 L88.7079614,167.768644 C96.9188029,167.600989 105.0639,166.240203 112.89601,163.727593 C113.289363,163.609841 113.710214,163.786958 113.90675,164.152967 C114.094255,164.531469 113.992005,164.992019 113.662778,165.251849 C105.637315,171.306473 95.977663,174.709159 85.98942,175 Z M64.519913,167.272375 C71.1537515,170.851918 78.4872961,172.886105 85.98942,173.227609 C93.6501955,173.040151 101.141361,170.894643 107.772605,166.988792 C101.596051,168.604513 95.2580796,169.496504 88.8822269,169.647379 L88.8822269,169.647379 C86.9763294,170.577209 84.7585388,170.577209 82.8526413,169.647379 C76.6528803,169.934708 70.4508861,169.13124 64.519913,167.272375 Z" fill="#491CDE"></path>
                <path d="M98.4944114,201 C96.0556171,200.984629 93.7420593,199.928744 92.1466985,198.102967 C89.7875847,195.562277 89.4407862,191.772249 91.3003367,188.853403 C92.5847627,186.973425 93.4060724,184.821629 93.6983616,182.570681 L97.2248688,182.570681 C96.9222187,185.415098 95.930202,188.145148 94.3331329,190.528796 C93.2611266,192.148598 93.4506858,194.284561 94.7915788,195.69459 C96.193798,197.337218 98.5313769,197.851362 100.50452,196.951134 C112.7415,191.401396 116.232742,170.424084 116.268007,170.21466 C116.681647,168.792513 116.3799,167.260271 115.456911,166.095986 C104.454208,166.095986 90.2071195,164.90925 87.6680344,164.699825 C85.7602478,165.276867 83.721819,165.276867 81.8140325,164.699825 C73.2406953,165.807374 64.5538421,165.736899 56,164.490401 L56.5995062,161 C64.9294831,162.139622 73.3782604,162.139622 81.7082372,161 L82.1666832,161 L82.589864,161 C83.9375534,161.462787 85.4034532,161.462787 86.7511425,161 L87.1390583,161 L87.5622391,161 C87.5622391,161 104.101558,162.361257 116.056417,162.431065 L116.514863,162.431065 L116.902779,162.640489 C119.474027,164.432711 120.596573,167.65336 119.688719,170.633508 C119.688719,171.541012 115.880092,193.635253 102.056184,199.95288 C100.964303,200.564242 99.7464395,200.92228 98.4944114,201 L98.4944114,201 Z" fill="url(#linearGradient-4)"></path>
                <path d="M71.8639064,200.999919 C70.5211669,200.996773 69.2024466,200.63554 68.0379474,199.951886 C55.3644583,192.545787 52.4266684,169.908279 52.290027,168.930115 C51.4280452,165.960506 52.5307234,162.760757 55.0228548,161 L56.6967119,164.039295 L55.8768635,162.50218 L56.7650326,164.004361 C56.7650326,164.004361 55.1594962,165.122262 55.7060618,168.371164 C55.7060618,168.685574 58.575531,190.344919 69.7459648,196.877656 C71.4555608,197.871146 73.6019209,197.586082 75.0066584,196.178968 C76.5305696,194.872104 77.0190309,192.688445 76.2022706,190.834001 C75.1850936,188.146157 74.5523064,185.322333 74.3234514,182.449738 L77.7394862,182.449738 C77.9490887,184.837719 78.4659568,187.186965 79.2767019,189.436623 C80.7408566,192.681464 79.9334483,196.52526 77.2954017,198.868919 C75.8091132,200.248746 73.871257,201.009047 71.8639064,200.999919 L71.8639064,200.999919 Z" fill="url(#linearGradient-4)"></path>
                <path d="M111.521675,159.993952 C106.558352,160.105887 101.679251,158.661667 97.5315271,155.852853 C95.9247553,154.71242 93.8897353,154.418826 92.0403941,155.060642 C86.8575192,156.944165 81.2045498,156.944165 76.0216749,155.060642 C74.4477833,154.340451 73.7133005,154.700547 71.7896552,155.564776 L71.3349754,155.780834 C64.6270486,159.56084 56.4530286,159.284914 50,155.060642 L51.7837438,151.96382 C57.1702093,155.510219 64.0185446,155.704152 69.5862069,152.467954 L70.3206897,152.143868 C72.4363837,150.822309 75.0418739,150.634531 77.3157635,151.639734 C81.7144026,153.187133 86.4875678,153.187133 90.8862069,151.639734 C93.7292167,150.659776 96.8523425,151.084962 99.3502463,152.79204 C105.118767,156.304226 112.033508,157.228291 118.481773,155.348719 L119.251232,156.93314 L120.195567,155.420738 L121,157.041168 L119.950739,158.58958 C117.235481,159.533006 114.387354,160.007535 111.521675,159.993952 Z" fill="url(#linearGradient-4)"></path>
                <path d="M122.985054,166 L122,166 L122.373641,162.555515 C126.278864,162.708476 130.074287,161.226262 132.869562,158.456578 C138.100538,153.393184 140.342386,144.299743 139.663038,131.417369 C139.663038,131.07292 136.2663,92.7358007 129.472824,73.1366801 L132.665758,72 C139.663038,92.0124588 142.855972,129.591792 142.855972,131.176255 C143.671189,145.19531 141.021733,155.287651 135.009507,161.005497 C131.763423,164.144594 127.46999,165.927925 122.985054,166 L122.985054,166 Z" fill="url(#linearGradient-2)"></path>
                <path d="M46.9663759,166.965085 C43.1068624,166.855954 39.4242471,165.300994 36.6301353,162.600678 C29.7393082,156.141356 26.2938947,143.641695 27.1207939,125.450847 C27.1207939,125.171525 28.7056842,103.628814 29.4981293,82.1908475 C29.4981293,80.7942373 29.9804872,68.2247458 35.4586947,64 L37.4914887,66.7932203 C34.0460751,69.4118644 33.0124511,78.8738983 32.9090887,82.2955932 C32.0821894,103.80339 30.5317533,125.415932 30.5317533,125.625424 C29.7048541,146.888814 34.6317954,156.071525 38.9041082,160.016949 C41.1776803,162.355788 44.3143228,163.622171 47.5520962,163.508475 L48,167 L46.9663759,166.965085 Z" fill="url(#linearGradient-2)"></path>
                <path d="M82.6422398,229 L81.2883967,229 C41.7145224,229 23.0731448,170.532417 22.2747245,168.026663 C21.9970131,167.191412 14.2558079,144.465619 18.0396257,108.480213 L18.386765,105 L25.3295499,105.730845 L24.9476967,109.211058 C21.4763043,143.630368 28.8009424,165.625316 28.8703703,165.834129 C28.9397981,166.042941 46.8174694,222.039573 81.4619664,222.039573 C96.9500813,221.883447 111.73431,215.531249 122.528539,204.394892 C140.406211,185.880157 147.730849,155.010665 144.259456,112.656469 L143.981745,109.176256 L150.92453,108.619422 L151.202241,112.099635 C154.673634,156.611563 146.828287,189.36037 127.423203,209.336795 C115.646086,221.525328 99.5637946,228.587021 82.6422398,229 L82.6422398,229 Z" fill="#491CDE"></path>
                <path d="M145.225681,118 L144.981848,114.50641 C144.240739,110.982766 145.123782,107.31183 147.38534,104.514742 C149.126027,102.417045 151.211169,100.632951 153.55082,99.2394206 L155.083481,98.1913435 C156.926624,97.173439 158.310441,95.4854572 158.949969,93.4749968 C159.023289,91.843833 158.762478,90.2149067 158.183638,88.6887782 C156.026442,84.0202777 156.878195,78.5088927 160.343297,74.7144174 C161.110873,73.8536011 161.692059,72.8424483 162.050125,71.7448657 C162.328791,70.1028783 160.552297,68.2512755 158.915135,66.8887753 L157.034142,65.5961469 C154.493597,64.091074 152.307278,62.0532341 150.62483,59.6221077 C148.953535,56.1014443 148.716124,52.0661082 149.962998,48.3727472 C150.450663,45.8922982 150.973162,43.3769132 150.206831,42.2240284 C148.243068,40.1063258 145.655467,38.674053 142.822189,38.1365279 C139.630678,37.2900014 136.628345,35.843685 133.974551,33.8743479 C131.594652,31.6780932 129.655593,29.0455319 128.261904,26.1185776 C127.321485,24.2554443 126.151197,22.5183123 124.778582,20.9480641 C121.276798,18.126907 117.024699,16.4016137 112.552122,15.987166 C109.691677,15.4799725 106.873713,14.7558865 104.122484,13.8211401 C102.033884,13.0058446 99.9979972,12.060742 98.0266706,10.991332 C96.3895094,10.1528704 94.8568478,9.34934461 93.289353,8.72049838 C86.4814473,6.07326276 78.8667999,6.49330295 72.3894223,9.87338314 C69.1847115,11.5885151 65.563043,12.3634153 61.9394569,12.1092809 C56.573447,11.6461334 51.1776869,11.6461334 45.811677,12.1092809 C42.0337781,13.0275568 38.9320801,15.7218839 37.486538,19.3410126 C34.0032162,29.6121678 29.4400647,33.3153734 28.220902,34.1538351 C25.8997414,35.8211586 23.2710741,37.0087335 20.4879277,37.6474253 C17.7361035,38.4160151 16.0292758,38.9749896 15.3674446,40.232682 C14.7056135,41.4903745 15.3674446,42.7131311 15.9596094,44.4948621 C16.9207116,46.9469768 17.2327148,49.6068217 16.865273,52.2156964 C15.8311799,55.5017215 13.6230367,58.2887 10.6649602,60.0413385 C9.13229866,61.2291592 7.18163846,62.696467 7.18163846,63.5349287 C7.32579428,64.3189352 7.59639654,65.0741351 7.98280247,65.7708264 C8.43305276,66.6809734 8.80592976,67.6276006 9.09746544,68.6006345 C9.5588866,70.5562541 9.6884221,72.5758785 9.48063083,74.5746737 C9.39414236,75.5859582 9.39414236,76.6028128 9.48063083,77.6140972 C10.1154409,79.1820635 11.1193781,80.5725398 12.4066211,81.6666619 C14.7249731,83.6765723 16.3572897,86.3643951 17.0742723,89.3525603 C17.2049204,91.0276913 17.0756615,92.7130111 16.6911069,94.3483943 C16.2485598,96.3894734 16.0961057,98.4830759 16.2382751,100.566985 C16.6562737,105.178524 18.0844356,105.80737 20.3485948,106.261537 L23.8319166,106.925319 L22.3340882,113.807692 L18.8507664,113.14391 C12.8246197,111.991025 9.72446336,108.183012 9.09746544,101.230767 C8.89310015,98.5410365 9.06900779,95.8358348 9.6199637,93.1955095 C9.8435392,92.2456571 9.94884193,91.2716692 9.93346267,90.2958297 C9.29865256,88.7278634 8.29471543,87.3373871 7.00747237,86.243265 C4.57900561,84.1728603 2.89111905,81.3636903 2.2004883,78.2429435 C2.06872353,76.8136197 2.06872353,75.3751513 2.2004883,73.9458275 C2.38686605,72.7185023 2.38686605,71.4699471 2.2004883,70.2426219 C1.9981585,69.6046326 1.74178013,68.9851731 1.43415751,68.3910191 C0.634815213,66.8861532 0.148917592,65.2339857 0.00599558049,63.5349287 C-0.168170509,59.0281973 3.48931736,56.3381329 6.13664192,54.1721069 C7.73896994,52.9493504 9.6199637,51.5519143 9.6199637,50.4689013 C9.68374787,49.0119991 9.43427102,47.5583849 8.88846613,46.2067213 C7.57266552,43.1645047 7.57266552,39.7114366 8.88846613,36.66922 C11.0169786,33.4201873 14.4249641,31.2346799 18.2586017,30.6602449 C20.198183,30.2592097 22.0429213,29.4883029 23.6925837,28.3894112 L24.0757491,28.109924 L24.0757491,28.109924 C27.2869663,25.0856684 29.5504126,21.1888337 30.5895608,16.8954995 C32.7547909,11.0466006 37.6537721,6.64281476 43.6868508,5.12210046 C49.87245,4.51623815 56.1021899,4.51623815 62.2877891,5.12210046 C64.6339022,5.29131832 66.979182,4.78208058 69.0454333,3.65479258 C77.29552,-0.641163667 86.9881174,-1.17557354 95.6580118,2.18748469 C97.5390055,2.95607454 99.1413336,3.86440799 101.022327,4.73780554 C102.74602,5.67425936 104.525926,6.50266382 106.35181,7.21825459 C108.774355,8.03262673 111.254498,8.66324883 113.771285,9.1047933 C119.688106,9.69843438 125.269098,12.1427333 129.724899,16.0919737 C131.587414,18.1611074 133.157953,20.4768417 134.39255,22.9743464 C135.40139,25.121884 136.781155,27.0734432 138.468037,28.7387703 C140.466705,30.1253404 142.696192,31.1428064 145.051515,31.7432578 C149.421715,32.7113362 153.316075,35.1833873 156.058812,38.7304382 C157.869602,42.2690912 158.159052,46.3964436 156.859976,50.1544782 C156.163164,52.143433 156.066238,54.2942422 156.58131,56.3381329 C157.782787,57.9142055 159.287012,59.2327977 161.005128,60.216018 L163.129955,61.7182618 C167.123761,64.1649475 169.380604,68.6783848 168.947102,73.3519172 C168.379371,75.3961276 167.354915,77.2838161 165.951445,78.8717897 C165.235533,79.7046977 164.659102,80.6485847 164.244618,81.6666619 C164.039086,83.3612856 164.266841,85.0804943 164.906449,86.6624959 C165.814581,89.2004401 166.124561,91.914787 165.812113,94.5929456 C164.913007,98.4554034 162.486092,101.784908 159.089301,103.816024 L157.417307,104.968909 C155.745304,105.945009 154.240013,107.183458 152.958655,108.637178 C151.843992,110.139422 151.704659,110.314102 151.948492,113.877564 L152.192324,117.371154 L145.225681,118 Z" fill="#491CDE"></path>
                <path d="M22.3266461,113 L18.844485,112.339815 C12.8203464,111.193178 9.721223,107.405802 9.09443401,100.491234 C8.89013682,97.8160796 9.06598584,95.1255383 9.61675817,92.4995218 C9.84025917,91.554817 9.9455268,90.5861074 9.93015267,89.6155563 C9.29555409,88.0560873 8.29195149,86.6731465 7.00513736,85.5849538 C4.57747981,83.5257692 2.89015567,80.731823 2.19975506,77.6279885 C2.06803419,76.2064107 2.06803419,74.7757379 2.19975506,73.35416 C2.38607071,72.1334861 2.38607071,70.8916972 2.19975506,69.6710233 C1.99749268,69.0364915 1.74119974,68.420389 1.43367963,67.8294549 C0.634603682,66.3327444 0.14886797,64.6895305 0.00599358266,62.9996812 C-0.168114471,58.5173733 3.48815466,55.8418872 6.13459709,53.6875996 C7.73639118,52.4714696 9.61675817,51.0816066 9.61675817,50.0044629 C9.68052107,48.555456 9.43112736,47.1097195 8.88550434,45.7653809 C7.57014217,42.7396511 7.57014217,39.3052963 8.88550434,36.2795665 C11.0133075,33.0481413 14.4201575,30.8744779 18.2525176,30.3031559 C20.1914526,29.904294 22.0355762,29.137565 23.6846889,28.0446286 L24.0677267,27.766656 L24.0677267,27.766656 C27.2778738,24.7587899 29.5405659,20.8830734 30.5793679,16.6130061 C32.7438765,10.7958042 37.6412252,6.41588396 43.6722935,4.9034109 L47.1544546,4 L49,10.7060886 L45.5178389,11.6094995 C41.7411988,12.522799 38.6405343,15.2025247 37.1954739,18.8020402 C33.7133129,29.0175327 29.1516818,32.7006694 27.9329255,33.5345872 C25.6125382,35.192875 22.9847469,36.374014 20.2025279,37.0092445 C17.4516206,37.7736691 15.7453617,38.3296143 15.0837511,39.5804909 C14.4221405,40.8313675 15.0837511,42.0474976 15.6757184,43.8195728 C16.6365005,46.2583987 16.9483997,48.9038291 16.5810803,51.4985655 C15.5473318,54.7667825 13.3399244,57.5386575 10.3828336,59.2817979 C8.85068273,60.4631814 6.90067252,61.9225375 6.90067252,62.7564552 C7.04478031,63.536213 7.31529241,64.2873202 7.70156957,64.9802359 C8.15166984,65.8854505 8.52442258,66.8269476 8.81586112,67.7947083 C9.27712852,69.7397298 9.40662086,71.7484092 9.19889884,73.7363723 C9.11243918,74.7421763 9.11243918,75.7535202 9.19889884,76.7593242 C9.83349741,78.3187932 10.8371,79.701734 12.1239141,80.7899267 C14.5884204,82.8120867 16.3244809,85.5813578 17.0685829,88.6773988 C17.1991875,90.3434517 17.0699716,92.0196382 16.6855452,93.6461588 C16.2431455,95.6761766 16.0907422,97.7584331 16.2328642,99.8310488 C16.6507236,104.417596 18.0784096,105.043035 20.3418143,105.49474 L23.8239754,106.154925 L22.3266461,113 Z" fill="#FFFFFF"></path>
                <path d="M119.131075,61.9624996 C117.11999,61.9579623 115.146593,61.4145748 113.414826,60.3884933 C110.784825,58.7751018 108.875039,56.2072272 108.081983,53.2180201 C107.588095,51.3617259 107.588095,49.4078915 108.081983,47.5515973 C106.442463,47.6796379 104.793767,47.6209677 103.167403,47.3767077 C100.144188,47.0856571 97.3964429,45.4899271 95.6386843,43.004468 C95.2123273,42.2606514 94.8619943,41.475486 94.593029,40.6609475 C94.3700618,39.8702689 93.9907355,39.1327361 93.4776632,38.4923165 C91.7995942,37.3548287 89.6627125,37.1443348 87.796269,37.9326698 C86.8122033,38.2656058 85.8465086,38.6509087 84.9032892,39.0869411 C83.4070022,39.7948962 81.8418269,40.3458088 80.2326951,40.7309033 C77.0254527,41.2108214 73.7550541,41.0443474 70.6126657,40.2412124 C68.2050197,39.670658 65.7287077,39.4468873 63.2582229,39.576632 C59.8531947,40.2240825 56.629762,41.6087131 53.8124693,43.6340705 L52,40.6609475 C55.2919057,38.3242726 59.0701837,36.7693648 63.0490918,36.1138181 C65.8565984,35.9346167 68.6751092,36.1703197 71.4143348,36.8133765 C74.1206025,37.5192183 76.9367056,37.6973288 79.7098675,37.3380452 C81.0910982,36.9980295 82.4341647,36.5175109 83.7182131,35.9039506 C84.7767053,35.429226 85.8586191,35.0089459 86.9597447,34.6447455 C90.0755738,33.4108393 93.6134392,33.9735321 96.1963672,36.1138181 C97.0750366,37.124862 97.7180278,38.3197795 98.0785469,39.6116099 C98.2649452,40.20599 98.5101534,40.7801572 98.8105056,41.3255279 C99.9803988,42.8909338 101.75014,43.8930903 103.690231,44.0887834 C106.004028,44.3929104 108.347469,44.3929104 110.661267,44.0887834 L114.495336,43.7040263 L112.264605,46.852039 C111.156688,48.5479055 110.862618,50.652138 111.462936,52.5884176 C112.017647,54.7035744 113.366681,56.5211564 115.227295,57.6602157 C117.170579,58.8397932 119.542078,59.0713462 121.675503,58.2898182 L123,61.5427646 C121.749623,61.9328301 120.435635,62.0753831 119.131075,61.9624996 L119.131075,61.9624996 Z" fill="url(#linearGradient-4)"></path>
                <path d="M85.7747017,183.980606 C81.643678,184.124639 77.5279992,183.464943 73.7320502,182.050307 C73.0649618,181.749399 72.8066778,181.038505 73.1551569,180.462481 C73.503636,179.886456 74.3269162,179.663431 74.9940047,179.964339 C74.9940047,179.964339 84.8372498,184.167409 102.216166,179.061457 C102.67346,178.92798 103.178483,179.015303 103.540998,179.290531 C103.903514,179.565758 104.068447,179.987078 103.973669,180.395782 C103.87889,180.804487 103.5388,181.138484 103.081506,181.271961 C97.5244157,182.9908 91.6769185,183.905977 85.7747017,183.980606 Z" fill="#3D4352"></path>
                <path d="M25.8251484,75 L19,73.817341 L19.5460119,70.233526 C20.4332812,64.4277457 26.7465434,63.3526012 30.500375,62.7433526 L31.4217701,62.7433526 C33.8597727,62.3175784 36.3224895,62.0661331 38.7929303,61.9907514 L41.9324986,61.9907514 C43.3021491,61.9737335 44.6608413,61.731891 45.9593361,61.2739884 C46.7751315,60.9874841 47.4655591,60.4023376 47.9045034,59.6254335 C48.1295521,58.9969918 48.2113623,58.3219428 48.1433836,57.6543353 C48.1407718,55.4171568 47.1436375,53.3095617 45.44745,51.9560694 L42.6150134,49.9849711 L46.4029708,44 L49.2354074,45.9710983 C52.7375983,48.5876544 54.8617861,52.7836419 54.968532,57.2959538 C55.1043043,59.1375287 54.7992912,60.9855196 54.0812627,62.6716763 C52.9191762,65.1093801 50.9187033,66.9924639 48.484641,67.9398844 C46.5572533,68.679705 44.5296062,69.091065 42.4785105,69.1583815 L39.0659363,69.1583815 C36.9077162,69.1730955 34.7529006,69.3407209 32.616171,69.6601156 L31.6265245,69.6601156 C30.3297463,69.8751445 26.8830464,70.4485549 26.3370345,71.2728324 L25.8251484,75 Z" fill="#491CDE"></path>
                <path d="M47.0353693,167 C46.6671106,166.995483 46.3388171,166.779774 46.2062638,166.455227 C44.7960771,163.613468 44.6150216,160.364247 45.7015909,157.39837 C46.9272251,153.993537 52.7309637,152.08683 52.911204,152.018733 C53.3576957,151.929058 53.804663,152.168863 53.9517682,152.577013 C54.0988734,152.985163 53.8996533,153.432743 53.4879731,153.619005 C52.0460505,154.061633 48.1528594,155.76405 47.3237539,158.045288 C46.4537106,160.626862 46.6468076,163.423433 47.8644749,165.876405 C48.0334845,166.318299 47.7914654,166.805964 47.3237539,166.965952 L47.0353693,167 Z" fill="#3D4352"></path>
                <path d="M121.406178,165.999681 L121.164886,165.999681 C120.971432,165.927883 120.811139,165.768616 120.720301,165.557941 C120.629462,165.347266 120.615762,165.103003 120.682303,164.880459 C121.247264,163.309121 121.514691,161.615433 121.466501,159.913909 C121.164886,157.920295 118.450352,156.206485 117.455023,155.68185 C117.071896,155.488684 116.896347,154.971932 117.062924,154.527652 C117.229501,154.083371 117.675125,153.879802 118.058253,154.072968 C118.239222,154.072968 122.46183,156.276437 122.974576,159.599128 C123.091804,161.595958 122.802513,163.596776 122.130054,165.44007 C122.015245,165.785491 121.725298,166.009642 121.406178,165.999681 Z" fill="#3D4352"></path>
                <path d="M86.8125975,152.998356 C86.5167961,152.994381 86.2459184,152.839704 86.1028291,152.593063 C85.9597398,152.346422 85.9663883,152.045651 86.1202497,151.804966 C88.2551953,148.837156 91.7727569,147.044648 95.5493666,147 L96.1757765,147 C96.6309826,147 97,147.351512 97,147.785125 C97,148.218738 96.6309826,148.57025 96.1757765,148.57025 L96.1757765,148.57025 C92.7657053,148.41555 89.5129617,149.946965 87.5708831,152.621496 C87.411675,152.871984 87.1193591,153.017262 86.8125975,152.998356 L86.8125975,152.998356 Z" fill="#3D4352"></path>
                <path d="M81.2704075,152.882197 L80.9797802,152.882197 C79.586558,152.451476 78.3410798,151.758891 77.3469385,150.862048 C76.3163575,149.446918 74.4421426,148.569523 72.4062737,148.549123 C72.0066611,148.549123 71.2074359,148.549123 71.0257938,147.905018 C70.9412431,147.625023 71.0684153,147.331103 71.3506608,147.154186 C71.6329063,146.977268 72.0176937,146.950282 72.3336169,147.085247 L72.3336169,147.085247 C74.9092435,147.138575 77.2755703,148.240917 78.6184331,150.013 L78.6184331,150.013 C79.3734656,150.685906 80.3039227,151.215812 81.3430644,151.564708 C81.7851178,151.66732 82.0621614,152.020096 81.9880368,152.385991 C81.9139121,152.751886 81.5120315,153.015332 81.052437,152.999307 L81.2704075,152.882197 Z" fill="#3D4352"></path>
            </g>
        </g>
    </g>
</svg>