<svg id="Livello_1" data-name="Livello 1" xmlns="http://www.w3.org/2000/svg" xmlns:xlink="http://www.w3.org/1999/xlink" viewBox="0 0 90.88 90.88"><defs><style>.cls-1{fill:url(#Sfumatura_senza_nome);}.cls-2{fill:url(#Sfumatura_senza_nome_10);}.cls-3{fill:url(#Sfumatura_senza_nome-2);}</style><linearGradient id="Sfumatura_senza_nome" x1="56.18" y1="-1207.08" x2="62.4" y2="-1207.08" gradientTransform="matrix(1, 0, 0, -1, 0, -1160.37)" gradientUnits="userSpaceOnUse"><stop offset="0" stop-color="#161c2d"/><stop offset="0.33" stop-color="#1e2435"/><stop offset="0.83" stop-color="#343a49"/><stop offset="1" stop-color="#3d4352"/></linearGradient><linearGradient id="Sfumatura_senza_nome_10" x1="28.78" y1="-1205.99" x2="34.88" y2="-1205.99" gradientTransform="matrix(1, 0, 0, -1, 0, -1160.37)" gradientUnits="userSpaceOnUse"><stop offset="0" stop-color="#3d4352"/><stop offset="0.17" stop-color="#343a49"/><stop offset="0.67" stop-color="#1e2435"/><stop offset="1" stop-color="#161c2d"/></linearGradient><linearGradient id="Sfumatura_senza_nome-2" x1="36.07" y1="-1186.5" x2="56.44" y2="-1186.5" xlink:href="#Sfumatura_senza_nome"/></defs><title>Lorenzo_1</title><path class="cls-1" d="M56.47,60.36h-.29l.11-1a4.19,4.19,0,0,0,3.09-1.19c1.54-1.47,2.2-4.11,2-7.85,0-.1-1-11.23-3-16.92l.94-.33c2.06,5.81,3,16.72,3,17.18.24,4.07-.54,7-2.31,8.66A5.25,5.25,0,0,1,56.47,60.36Z"/><path class="cls-2" d="M34.59,60.37a4.53,4.53,0,0,1-3-1.25c-2-1.85-3-5.43-2.76-10.64,0-.08.46-6.25.69-12.39,0-.4.14-4,1.73-5.21l.59.8c-1,.75-1.3,3.46-1.33,4.44-.24,6.16-.69,12.35-.69,12.41-.24,6.09,1.19,8.72,2.43,9.85a3.36,3.36,0,0,0,2.51,1l.13,1Z"/><path class="cls-3" d="M55.33,30.13a3.24,3.24,0,0,1-1.64-.45,3.44,3.44,0,0,1-1.53-2,3.14,3.14,0,0,1,0-1.62,6.25,6.25,0,0,1-1.41,0,3,3,0,0,1-2.16-1.25,3.64,3.64,0,0,1-.3-.67,1.75,1.75,0,0,0-.32-.62,1.72,1.72,0,0,0-1.63-.16,8.39,8.39,0,0,0-.83.33,6.89,6.89,0,0,1-1.34.47,7,7,0,0,1-2.76-.14,7.48,7.48,0,0,0-2.11-.19,6.84,6.84,0,0,0-2.71,1.16L36.07,24a7.63,7.63,0,0,1,3.17-1.3,8.24,8.24,0,0,1,2.4.2,6.27,6.27,0,0,0,2.38.15,6,6,0,0,0,1.15-.41,9.79,9.79,0,0,1,.93-.36,2.64,2.64,0,0,1,2.65.42,2.58,2.58,0,0,1,.54,1,2.67,2.67,0,0,0,.21.49,2,2,0,0,0,1.4.79,7.7,7.7,0,0,0,2,0l1.1-.11-.64.9a1.94,1.94,0,0,0-.23,1.64,2.42,2.42,0,0,0,1.08,1.45,2.15,2.15,0,0,0,1.85.18l.38.93A2.9,2.9,0,0,1,55.33,30.13Z"/></svg>