<svg id="Livello_1" data-name="Livello 1" xmlns="http://www.w3.org/2000/svg" xmlns:xlink="http://www.w3.org/1999/xlink" viewBox="0 0 90.88 90.88"><defs><style>.cls-1{fill:url(#Sfumatura_senza_nome_10);}.cls-2{fill:url(#Sfumatura_senza_nome_10-2);}.cls-3{fill:#491cde;}</style><linearGradient id="Sfumatura_senza_nome_10" x1="37.2" y1="-1503.49" x2="37.2" y2="-1457.36" gradientTransform="matrix(1, 0, 0, -1, 0, -1428.37)" gradientUnits="userSpaceOnUse"><stop offset="0" stop-color="#3d4352"/><stop offset="0.17" stop-color="#343a49"/><stop offset="0.67" stop-color="#1e2435"/><stop offset="1" stop-color="#161c2d"/></linearGradient><linearGradient id="Sfumatura_senza_nome_10-2" x1="55.54" y1="-1503.49" x2="55.54" y2="-1455.88" xlink:href="#Sfumatura_senza_nome_10"/></defs><title>Luca_1</title><path class="cls-1" d="M46.62,75.12c-1.25,0-10.44-.38-14.07-11.18-.15-.46-.28-.92-.4-1.38A8.73,8.73,0,0,0,31,59.68c-1.54-2.19-4-7.26-3.19-16.69a101.31,101.31,0,0,1,2.73-14l1,.26a100.23,100.23,0,0,0-2.7,13.8c-.83,9.44,1.83,14.35,3,16a9.59,9.59,0,0,1,1.29,3.2c.12.44.24.89.38,1.32,3.64,10.84,13.12,10.5,13.21,10.49v1Z"/><path class="cls-2" d="M46.74,75.12v-1a13.13,13.13,0,0,0,6.4-1.94,13.27,13.27,0,0,0,6.32-9.7,9.34,9.34,0,0,1,1.86-4.34c1.18-1.77,2.95-6.08,1.46-15A59.75,59.75,0,0,0,58.43,28l.9-.44c.11.22,2.81,5.74,4.41,15.44,1.47,8.81-.07,13.42-1.62,15.74a8.53,8.53,0,0,0-1.7,3.88A14.24,14.24,0,0,1,53.66,73,13.91,13.91,0,0,1,46.74,75.12Z"/><path class="cls-3" d="M30.12,33.62l.2-1.54a2,2,0,0,0-1.1-2l-.9-.44.88-1.8.9.44a3.78,3.78,0,0,1,2,2.2l.1-.18a5.92,5.92,0,0,0,0-3.86l-.32-1,1.91-.64.32,1c.11.32,1,3.23,0,5.41a3.86,3.86,0,0,1-2.36,2Z"/></svg>