<svg id="Livello_1" data-name="Livello 1" xmlns="http://www.w3.org/2000/svg" xmlns:xlink="http://www.w3.org/1999/xlink" viewBox="0 0 90.88 90.88"><defs><style>.cls-1{fill:#491cde;}.cls-2{fill:#3d4352;}.cls-3{fill:url(#Sfumatura_senza_nome);}.cls-4{fill:url(#Sfumatura_senza_nome_10);}</style><linearGradient id="Sfumatura_senza_nome" x1="38.03" y1="-1478.35" x2="41.18" y2="-1478.35" gradientTransform="matrix(1, 0, 0, -1, 0, -1428.37)" gradientUnits="userSpaceOnUse"><stop offset="0" stop-color="#161c2d"/><stop offset="0.33" stop-color="#1e2435"/><stop offset="0.83" stop-color="#343a49"/><stop offset="1" stop-color="#3d4352"/></linearGradient><linearGradient id="Sfumatura_senza_nome_10" x1="51.92" y1="-1477.94" x2="56.86" y2="-1477.94" gradientTransform="matrix(1, 0, 0, -1, 0, -1428.37)" gradientUnits="userSpaceOnUse"><stop offset="0" stop-color="#3d4352"/><stop offset="0.17" stop-color="#343a49"/><stop offset="0.67" stop-color="#1e2435"/><stop offset="1" stop-color="#161c2d"/></linearGradient></defs><title>Luca_2</title><path class="cls-1" d="M50.93,47.35a.38.38,0,0,1-.29-.62c.08-.09,2-2.31,4.34-2.38a3.88,3.88,0,0,1,3,1.33.37.37,0,0,1-.54.52A3.26,3.26,0,0,0,55,45.09c-2,.06-3.78,2.1-3.8,2.12A.37.37,0,0,1,50.93,47.35Z"/><path class="cls-2" d="M54,47.79a8.1,8.1,0,0,1-1.15-.08.25.25,0,0,1,.07-.49c3.29.46,4.16-1.25,4.2-1.32a.25.25,0,1,1,.45.21C57.55,46.18,56.74,47.79,54,47.79Z"/><path class="cls-1" d="M42.17,47.91a.38.38,0,0,1-.26-.11,5.42,5.42,0,0,0-4-1.88,4.88,4.88,0,0,0-3.17,1.41.38.38,0,0,1-.55-.51,5.56,5.56,0,0,1,3.68-1.65,6.37,6.37,0,0,1,4.56,2.08.37.37,0,0,1,0,.52h0A.37.37,0,0,1,42.17,47.91Z"/><path class="cls-2" d="M38.11,48.44a4.24,4.24,0,0,1-3.37-1.31.25.25,0,0,1,.39-.31c.06.07,1.46,1.75,4.72.87a.25.25,0,0,1,.13.48A7.38,7.38,0,0,1,38.11,48.44Z"/><path class="cls-2" d="M42.17,47.25a.25.25,0,0,1-.17-.07,7.43,7.43,0,0,0-6.68-1.81,3.43,3.43,0,0,0-1.11,1,.25.25,0,0,1-.42-.27,3.92,3.92,0,0,1,1.34-1.21,7.8,7.8,0,0,1,7.21,1.91.25.25,0,0,1-.17.43Z"/><path class="cls-2" d="M50.79,46.56a.25.25,0,0,1-.18-.42c3-3.1,5.72-2.59,5.83-2.57a3.49,3.49,0,0,1,1.71.83.25.25,0,1,1-.35.36h0a3,3,0,0,0-1.45-.7S53.81,43.6,51,46.49A.25.25,0,0,1,50.79,46.56Z"/><path class="cls-3" d="M38.14,50.91l-.11-1a7.07,7.07,0,0,0,2.63-.86l.52.85A8,8,0,0,1,38.14,50.91Z"/><path class="cls-4" d="M54.93,50.25a6.12,6.12,0,0,1-.79,0,8.72,8.72,0,0,1-2.22-.44l.34-.94a8,8,0,0,0,2,.39,6.09,6.09,0,0,0,2.32-.19l.29,1A6.71,6.71,0,0,1,54.93,50.25Z"/><path class="cls-1" d="M49.24,31.36a11.71,11.71,0,0,1-3.41-.55L43,29.93l2.84-1a2.6,2.6,0,0,0,1.34-1,.47.47,0,0,0-.08-.39.57.57,0,0,0-.67-.19l-.37.12c-5.75,1.38-9.75-2.93-9.92-3.11l-.67-.74,1.47-1.37.67.74c.13.15,3.39,3.61,8,2.51l.23-.08a2.55,2.55,0,0,1,3,1.08A2.39,2.39,0,0,1,49,28.59a2.69,2.69,0,0,1-.42.74,5.34,5.34,0,0,0,5.74-3.25,2.21,2.21,0,0,1,2.75-1.45c1.37.56,1.52,2.1,1.39,3.35a4.24,4.24,0,0,0,1.41-.91l.65-.76,1.52,1.3-.65.76a7,7,0,0,1-4.08,2l-1.61.24.48-1.53a3.84,3.84,0,0,0,.14-2.59,2.84,2.84,0,0,0-.16.32h0A7.42,7.42,0,0,1,49.24,31.36Z"/><path class="cls-1" d="M34.19,25.56l-.32-1L32,25.25l.32,1a5.92,5.92,0,0,1,0,3.86l-.1.18a3.78,3.78,0,0,0-2-2.2l-.9-.44-.88,1.8.9.44a2.06,2.06,0,0,1,1.1,2l-.2,1.54.31-.08L31.78,33a3.86,3.86,0,0,0,2.36-2C35.19,28.79,34.3,25.88,34.19,25.56Z"/></svg>