<?xml version="1.0" encoding="UTF-8"?>
<svg width="220px" height="247px" viewBox="0 0 220 247" version="1.1" xmlns="http://www.w3.org/2000/svg" xmlns:xlink="http://www.w3.org/1999/xlink">
    <!-- Generator: Sketch 47.1 (45422) - http://www.bohemiancoding.com/sketch -->
    <title>Luca</title>
    <desc>Created with Sketch.</desc>
    <defs>
        <linearGradient x1="50.0775451%" y1="100%" x2="50.0775451%" y2="0.0867114676%" id="linearGradient-1">
            <stop stop-color="#3D4352" offset="0%"></stop>
            <stop stop-color="#343A49" offset="17%"></stop>
            <stop stop-color="#1E2435" offset="67%"></stop>
            <stop stop-color="#161C2D" offset="100%"></stop>
        </linearGradient>
        <linearGradient x1="50.3546099%" y1="-0.101832994%" x2="50.3546099%" y2="100%" id="linearGradient-2">
            <stop stop-color="#161C2D" offset="0%"></stop>
            <stop stop-color="#1E2435" offset="33%"></stop>
            <stop stop-color="#343A49" offset="83%"></stop>
            <stop stop-color="#3D4352" offset="100%"></stop>
        </linearGradient>
        <linearGradient x1="0%" y1="50%" x2="100%" y2="50%" id="linearGradient-3">
            <stop stop-color="#161C2D" offset="0%"></stop>
            <stop stop-color="#1E2435" offset="33%"></stop>
            <stop stop-color="#343A49" offset="83%"></stop>
            <stop stop-color="#3D4352" offset="100%"></stop>
        </linearGradient>
        <linearGradient x1="0.303693432%" y1="49.9490835%" x2="100.405526%" y2="49.9490835%" id="linearGradient-4">
            <stop stop-color="#161C2D" offset="0%"></stop>
            <stop stop-color="#1E2435" offset="33%"></stop>
            <stop stop-color="#343A49" offset="83%"></stop>
            <stop stop-color="#3D4352" offset="100%"></stop>
        </linearGradient>
        <linearGradient x1="100.405526%" y1="49.9490835%" x2="0.303693432%" y2="49.9490835%" id="linearGradient-5">
            <stop stop-color="#161C2D" offset="0%"></stop>
            <stop stop-color="#1E2435" offset="33%"></stop>
            <stop stop-color="#343A49" offset="83%"></stop>
            <stop stop-color="#3D4352" offset="100%"></stop>
        </linearGradient>
        <linearGradient x1="50.3546099%" y1="100%" x2="50.3546099%" y2="-0.101832994%" id="linearGradient-6">
            <stop stop-color="#161C2D" offset="0%"></stop>
            <stop stop-color="#1E2435" offset="33%"></stop>
            <stop stop-color="#343A49" offset="83%"></stop>
            <stop stop-color="#3D4352" offset="100%"></stop>
        </linearGradient>
    </defs>
    <g id="Symbols" stroke="none" stroke-width="1" fill="none" fill-rule="evenodd">
        <g id="Luca" fill-rule="nonzero">
            <g transform="translate(39.000000, 0.000000)" id="Shape">
                <path d="M75.4804178,207.957647 C71.3610996,207.957647 41.0758723,206.705882 29.1133723,171.129412 C28.6190541,169.614118 28.190645,168.098824 27.7951905,166.583529 C27.1186467,163.222617 25.8463525,160.009704 24.0383723,157.096471 C18.9633723,149.882353 10.8565541,133.181176 13.5258723,102.117647 C15.4370576,86.5529053 18.4433703,71.1421712 22.5224632,56 L25.8179178,56.8564706 C21.7909915,71.782504 18.8177673,86.9728179 16.9201905,102.315294 C14.1849632,133.411765 22.9508723,149.585882 26.8065541,155.021176 C28.8494765,158.249107 30.2898279,161.820622 31.0576905,165.562353 C31.453145,167.011765 31.8485996,168.494118 32.3099632,169.910588 C44.3054178,205.618824 75.5463269,204.498824 75.8429178,204.465882 L75.8429178,207.76 L75.4804178,207.957647 Z" fill="url(#linearGradient-1)"></path>
                <path d="M76,207.832941 L76,204.538824 C83.46427,204.263996 90.730257,202.062387 97.0909091,198.148235 C108.560413,191.245549 116.234843,179.471534 117.918182,166.195294 C118.70268,160.983688 120.813308,156.060889 124.047727,151.898824 C127.936364,146.068235 133.769318,131.870588 128.859091,102.487059 C126.317742,85.2470456 121.497194,68.4207417 114.523864,52.4494118 L117.489773,51 C117.852273,51.7247059 126.75,69.9082353 132.022727,101.861176 C136.867045,130.882353 131.792045,146.068235 126.684091,153.710588 C123.771232,157.432329 121.844394,161.828271 121.081818,166.491765 C119.321488,180.762334 111.1108,193.437601 98.8045455,200.882353 C91.9493714,205.169206 84.0817539,207.567174 76,207.832941 L76,207.832941 Z" fill="url(#linearGradient-2)"></path>
                <path d="M89.2371412,116.884746 C88.7565089,116.878935 88.3216173,116.598643 88.1179657,116.163427 C87.9143141,115.72821 87.9778448,115.21488 88.2814594,114.842393 C88.5450957,114.545922 94.8723685,107.232981 102.583732,107.002393 C106.365232,106.929308 109.985074,108.533454 112.470096,111.383569 C112.943303,111.874778 112.928549,112.656436 112.437141,113.129452 C111.945733,113.602467 111.163758,113.587719 110.69055,113.096511 C108.636006,110.755617 105.666069,109.42149 102.550778,109.44004 C95.9598685,109.637687 90.0939594,116.357687 90.0280503,116.423569 C89.8343603,116.674163 89.5507023,116.839563 89.2371412,116.884746 Z" fill="#491CDE"></path>
                <path d="M99.4890633,117.696274 C98.2211477,117.698513 96.9546836,117.610447 95.6992906,117.432745 C95.2558704,117.364895 94.9482497,116.954901 95.0072451,116.510392 C95.0751225,116.067152 95.4852833,115.759656 95.9299724,115.818627 C106.772018,117.333921 109.639063,111.70098 109.770882,111.470392 C109.964222,111.063502 110.448735,110.887387 110.858382,111.075098 C111.265436,111.26836 111.441623,111.752676 111.253836,112.162157 C111.154972,112.392745 108.485654,117.696274 99.4890633,117.696274 Z" fill="#3D4352"></path>
                <path d="M60.6273881,118.025882 C60.3058285,118.019563 59.9990284,117.889816 59.7705699,117.663529 C56.4564779,113.820833 51.663377,111.568989 46.5887517,111.470588 C42.6549424,111.687451 38.93763,113.340222 36.1421608,116.115294 C35.6780533,116.615599 34.8960779,116.645096 34.3955699,116.181176 C33.8950618,115.717257 33.8655533,114.935599 34.3296608,114.435294 C37.5491,111.17023 41.876454,109.230763 46.4569335,109 C52.1922209,109.135413 57.6221881,111.611235 61.4842062,115.851765 C61.7197452,116.08118 61.8525885,116.395974 61.8525885,116.724706 C61.8525885,117.053438 61.7197452,117.368232 61.4842062,117.597647 C61.2690056,117.851258 60.9594795,118.005958 60.6273881,118.025882 L60.6273881,118.025882 Z" fill="#491CDE"></path>
                <path d="M47.2434781,120.594719 C43.0828075,120.88521 39.0098448,119.302594 36.1377963,116.279425 C35.9009168,115.923208 35.9762884,115.445017 36.311265,115.178862 C36.6462416,114.912706 37.1292967,114.9472 37.4230236,115.258249 C37.6207509,115.488837 42.2343872,121.022955 52.977569,118.124131 C53.394016,118.056791 53.7940664,118.314783 53.9043473,118.721809 C54.0146282,119.128835 53.7995036,119.553369 53.4059781,119.705308 C51.3984187,120.264481 49.327283,120.563401 47.2434781,120.594719 Z" fill="#3D4352"></path>
                <path d="M60.7242567,116.508284 C60.5149928,116.505339 60.3146935,116.422896 60.1640294,116.277695 C54.2566826,110.786874 46.0228247,108.556749 38.150393,110.315342 C36.7037444,111.131374 35.4548025,112.25609 34.4924385,113.60946 C34.2363838,113.964757 33.7469488,114.057625 33.3784567,113.820833 C33.0099647,113.584042 32.8912905,113.100405 33.1083476,112.720048 C34.2500045,111.066063 35.7620763,109.701239 37.5242567,108.734166 C45.9992915,106.665034 54.9457502,109.034077 61.2844839,115.025931 C61.5249398,115.257536 61.6017564,115.611321 61.478987,115.921729 C61.3562177,116.232137 61.0581464,116.43777 60.7242567,116.442401 L60.7242567,116.508284 Z" fill="#3D4352"></path>
                <path d="M88.8130623,113.990788 C88.487449,113.986513 88.1949076,113.790924 88.0666312,113.491733 C87.9383548,113.192543 87.9984162,112.8459 88.2198805,112.607258 C98.1062441,102.395494 107.06988,104.075494 107.43238,104.141376 C109.527678,104.514027 111.478445,105.460507 113.067608,106.875494 C113.279531,107.081447 113.365437,107.384769 113.292966,107.671202 C113.220495,107.957636 113.000656,108.183663 112.716261,108.264143 C112.431867,108.344624 112.126122,108.267329 111.914199,108.061376 C110.561356,106.871864 108.909038,106.074517 107.13579,105.755494 C107.13579,105.755494 98.765335,104.240199 89.4062441,113.760199 C89.2474001,113.913385 89.0337073,113.996454 88.8130623,113.990788 Z" fill="#3D4352"></path>
                <path d="M91.45,104.187768 L90,100.33365 L91.9113636,99.6089446 C91.9113636,99.6089446 98.5022727,97.1054151 106.740909,93.910121 C109.924561,92.6966263 113.443621,92.6966263 116.627273,93.910121 C118.885199,94.9137065 121.001417,96.2095029 122.921591,97.7642387 L124.569318,98.9830622 L122.130682,102.27718 L120.482955,101.058356 C118.860634,99.7575107 117.090906,98.651879 115.210227,97.7642387 C112.968891,96.9225954 110.498155,96.9225954 108.256818,97.7642387 C100.018182,101.058356 93.3613636,103.496003 93.3613636,103.496003 L91.45,104.187768 Z" fill="#FFFFFF"></path>
                <path d="M23.8011364,108.502866 L21,105.472278 L22.5159091,104.088748 C24.5420538,102.148001 26.7490494,100.405182 29.1068182,98.8840423 C32.3505362,97.0959116 36.13699,96.5568831 39.7511364,97.3687482 C45.9982607,98.523362 52.1629826,100.085925 58.2056818,102.046395 L60.15,102.705219 L58.9636364,106.592278 L57.0193182,105.933454 C51.1806148,104.036089 45.2254179,102.517634 39.1909091,101.387572 C36.5486689,100.792671 33.7809579,101.154545 31.3806818,102.408748 C29.2396119,103.777207 27.2315857,105.343273 25.3829545,107.086395 L23.8011364,108.502866 Z" fill="#FFFFFF"></path>
                <path d="M47.3625,128.127059 L47,124.832941 C50.0474856,124.46848 52.992902,123.505731 55.6670455,122 L57.3806818,124.8 C54.2998413,126.572827 50.8921419,127.704531 47.3625,128.127059 Z" fill="url(#linearGradient-3)"></path>
                <path d="M102.919318,126.545882 C102.052421,126.601928 101.182806,126.601928 100.315909,126.545882 C97.8246385,126.382472 95.3652939,125.895232 93,125.096471 L94.1204545,122 C96.2536602,122.707308 98.4685923,123.139045 100.711364,123.284706 C103.276402,123.569401 105.872298,123.356892 108.356818,122.658824 L109.3125,125.952941 C107.221648,126.460447 105.067889,126.6602 102.919318,126.545882 Z" fill="url(#linearGradient-4)"></path>
                <path d="M68.350918,173.803745 C63.677507,174.048001 59.0711897,172.610571 55.3668271,169.75198 C53.6548268,169.005189 51.7957414,168.656048 49.9293271,168.730804 C49.7105345,168.758647 49.489709,168.697635 49.3162798,168.561424 C49.1428505,168.425214 49.0313009,168.22518 49.0065998,168.006098 C48.9787452,167.787394 49.039782,167.566658 49.1760479,167.393299 C49.3123137,167.21994 49.5124288,167.108436 49.7315998,167.083745 C51.9266329,166.965959 54.1181651,167.37247 56.1247816,168.269627 L56.388418,168.434333 C56.388418,168.434333 62.550918,174.133157 75.3372816,171.300216 L75.6668271,171.300216 C75.6668271,171.300216 88.8486453,173.507274 95.2747816,168.368451 C96.8573748,167.372024 98.7138515,166.899449 100.580463,167.017863 C100.799026,167.026427 101.005211,167.121518 101.153572,167.282176 C101.301932,167.442835 101.38029,167.655873 101.371373,167.874333 C101.372144,168.095941 101.279831,168.307698 101.116926,168.45801 C100.954021,168.608323 100.735482,168.68339 100.514554,168.664921 C99.0252466,168.548836 97.5373364,168.90625 96.263418,169.686098 C89.4747816,174.989627 77.1827362,173.210804 75.5350089,172.980216 C73.1766904,173.510893 70.7681959,173.786985 68.350918,173.803745 Z" fill="#491CDE"></path>
                <path d="M76.5893323,180.936021 L75.8972868,180.936021 C70.2282519,181.10907 64.677809,179.290756 60.2109232,175.797197 C60.0615461,175.709207 59.9799549,175.539892 60.0042357,175.368286 C60.0285165,175.19668 60.1538813,175.056623 60.3218108,175.013493 C60.4897403,174.970363 60.66712,175.032664 60.7711504,175.171315 C65.1103276,178.502533 70.4606424,180.246493 75.9302414,180.112491 C75.9302414,180.112491 85.816605,180.507786 91.4518323,175.204256 C91.6175854,175.045297 91.879261,175.045297 92.0450141,175.204256 C92.2040381,175.369942 92.2040381,175.631511 92.0450141,175.797197 C87.6611295,179.279465 82.1864432,181.09973 76.5893323,180.936021 Z" fill="#491CDE"></path>
                <path d="M56.4119318,168.898268 C56.1844282,168.898268 56,168.713915 56,168.486503 C56,168.259092 56.1844282,168.074738 56.4119318,168.074738 C62.7550249,167.076007 69.2154296,167.076007 75.5585227,168.074738 C76.4482955,167.745327 81.8198864,166.065327 96.3198864,167.712386 C96.4314301,167.720091 96.5344978,167.774635 96.6035763,167.862518 C96.6726548,167.9504 96.7012874,168.063406 96.6823864,168.173562 C96.674678,168.28506 96.6201112,168.388086 96.5321931,168.457137 C96.444275,168.526187 96.3312234,168.554808 96.2210227,168.535915 C80.83125,166.790033 75.7892045,168.865327 75.75625,168.898268 L75.5255682,168.898268 C69.2378346,167.898324 62.8314836,167.898324 56.54375,168.898268 L56.4119318,168.898268 Z" fill="#491CDE"></path>
                <path d="M41.0132411,169.910588 C40.7166502,164.607059 45.4291502,160.028235 52.4814229,158.644706 L53.634832,158.48 C58.5681362,157.802163 63.3493804,156.287046 67.772332,154 L69.5189229,156.8 C64.7096976,159.343187 59.4883578,161.016015 54.0961956,161.741176 L53.1075593,161.741176 C47.8018774,162.729412 44.1109683,166.056471 44.3086956,169.581176 L41.0132411,169.910588 Z" fill="url(#linearGradient-5)"></path>
                <path d="M111.329545,170.437647 L108.034091,170.108235 L108.034091,169.614118 C108.330682,166.023529 104.475,162.729412 98.9715909,161.774118 L98.0818182,161.774118 C92.4767436,161.064167 87.0362933,159.392576 82,156.832941 L83.6806818,154 C88.3313964,156.300222 93.3313388,157.814067 98.4772727,158.48 L98.4772727,158.48 L99.5647727,158.644706 C106.880682,159.962353 111.725,164.607059 111.395455,169.910588 L111.329545,170.437647 Z" fill="url(#linearGradient-4)"></path>
                <path d="M76.1874312,220.250736 C69.8577422,220.245527 63.6090985,218.827492 57.8976584,216.100148 C32.6215221,204.076619 3.32493115,175.681324 7.37834024,108.448383 C7.42923558,107.574153 7.82627636,106.75616 8.48173707,106.175138 C9.13719778,105.594116 9.99712601,105.297891 10.8715221,105.351913 C11.746107,105.402787 12.5644321,105.799667 13.1456897,106.454862 C13.7269473,107.110057 14.0232928,107.969636 13.9692493,108.843677 C10.2783402,172.387207 37.3669766,199.003677 60.830613,210.170736 C70.7284322,214.926972 82.2676127,214.854045 92.1044766,209.973089 C148.687431,182.038972 132.210158,102.74956 131.946522,102.057795 C131.699278,100.88092 132.098925,99.6615933 132.99492,98.8591232 C133.890916,98.056653 135.147136,97.7929537 136.290375,98.1673584 C137.433614,98.5417631 138.290187,99.4973908 138.537431,100.674266 C138.735158,101.530736 156.234022,185.662501 95.1692493,215.968383 C89.2619351,218.853961 82.7619903,220.320367 76.1874312,220.250736 Z" fill="#491CDE"></path>
                <path d="M76.3488636,186.755294 C73.8919787,186.756167 71.4374848,186.602136 69,186.294118 L69.4613636,183 C73.8390836,183.533701 78.2654618,183.533701 82.6431818,183 L83.1045455,186.294118 C80.8666045,186.60935 78.6089,186.763472 76.3488636,186.755294 Z" fill="url(#linearGradient-4)"></path>
                <path d="M11.3758766,111.973075 C10.7732232,111.978875 10.1805182,111.819365 9.66224021,111.511898 C-3.51957797,103.573075 0.303149302,57.7518984 1.22587657,48.6601337 C1.27946808,48.1562575 1.44862701,47.671532 1.72019476,47.2436631 L13.9133766,27.9071925 C21.4054797,15.0475139 33.7764997,5.75816408 48.2190584,2.14719253 C49.3906738,1.78494447 50.6666142,2.10299425 51.5308893,2.97272255 C52.3951643,3.84245085 52.7047931,5.11997452 52.3345617,6.28866296 C51.9643303,7.45735139 50.9754877,8.32386312 49.767922,8.53778076 C37.0359218,11.7407661 26.1383186,19.9492601 19.5486038,31.3001337 L7.71792203,50.0766043 C5.70769476,70.9942514 6.07019476,101.662487 13.0895129,105.878957 C14.3712316,106.639013 14.9831402,108.164312 14.5818865,109.598983 C14.1806328,111.033655 12.8660928,112.020595 11.3758766,112.006016 L11.3758766,111.973075 Z" fill="#491CDE"></path>
                <path d="M49.7148804,8.96018757 C47.8948511,9.1785024 46.2423749,7.88065491 46.0239714,6.06136403 C45.8055679,4.24207314 47.103942,2.59026726 48.9239713,2.37195228 C57.7408771,0.531497564 66.7471689,-0.242685078 75.7489713,0.0660699246 C77.5690006,0.0660699246 79.0444258,1.54089663 79.0444258,3.36018757 C79.0444258,5.17947851 77.5690006,6.65430522 75.7489713,6.65430522 C67.2807197,6.35423816 58.8068167,7.06195328 50.5057895,8.76254051 C50.2513532,8.86089135 49.9856845,8.9272816 49.7148804,8.96018757 Z" fill="#491CDE"></path>
                <path d="M135.602273,104.258961 L129.307955,102.28249 L130.296591,98.9883728 C134.70394,83.2239209 136.485328,66.8418041 135.569318,50.498961 C132.998864,46.3813139 119.421591,25.1013139 111.215909,18.7766081 C100.936574,10.8245954 88.2934418,6.53463092 75.2954545,6.58837277 L72,6.58837277 L72,0.000137473953 L75.2954545,0.000137473953 C89.7162815,-0.0295382686 103.735674,4.74601707 115.1375,13.5719022 C125.023864,21.2801375 140.842045,46.5130787 141.501136,47.7319022 C141.782459,48.1792399 141.952001,48.6876598 141.995455,49.2142551 C143.159871,66.6939511 141.309438,84.2436482 136.525,101.096608 L135.602273,104.258961 Z" fill="#FFFFFF"></path>
                <path d="M83.5431818,64.0094118 C79.7283478,63.964072 75.9413266,63.3535099 72.3056818,62.1976471 L62.8147727,59.2988235 L72.1738636,56.0047059 C73.9685239,55.4226256 75.5207929,54.2646859 76.5897727,52.7105882 C76.5897727,52.5458824 76.7875,52.1835294 76.3261364,51.4258824 C75.8180334,50.7398354 74.910931,50.4827017 74.1181818,50.8 L72.8988636,51.1952941 C53.95,55.7411765 40.7681818,41.5435294 40.2079545,40.9505882 L38,38.5129412 L42.8443182,34 L45.0522727,36.4376471 C45.4806818,36.9317647 56.2238636,48.3294118 71.4159091,44.7058824 L72.1738636,44.4423529 C75.8961503,43.1686346 80.0042527,44.6469515 82.0602273,48 C83.385476,50.0439573 83.6896677,52.5859686 82.8840909,54.8847059 C82.5550252,55.7655091 82.0878181,56.5883496 81.5,57.3223529 C89.5201775,58.5382574 97.3327475,54.1165585 100.415909,46.6164706 C101.616482,42.8105654 105.658488,40.6801904 109.478409,41.84 C113.993182,43.6847059 114.4875,48.7576471 114.059091,52.8752941 C115.792282,52.1955065 117.372083,51.1763321 118.705682,49.8776471 L120.847727,47.3741176 L125.856818,51.6564706 L123.714773,54.16 C120.090525,57.7894602 115.359335,60.10773 110.269318,60.7482353 L104.963636,61.5388235 L106.545455,56.4988235 C107.684544,53.7944714 107.847642,50.7783898 107.006818,47.9670588 C106.809072,48.3070051 106.632965,48.659076 106.479545,49.0211765 L106.479545,49.0211765 C102.615881,58.232441 93.5341428,64.1670881 83.5431818,64.0094118 L83.5431818,64.0094118 Z" fill="#491CDE"></path>
                <path d="M20.9318182,71.8894118 L21.5909091,66.8164706 C21.877952,64.0790879 20.4323624,61.4518095 17.9659091,60.2282353 L15,58.7788235 L17.9,52.8494118 L20.8659091,54.2988235 C23.9609779,55.7131548 26.3424168,58.3316748 27.4568182,61.5458824 L27.7863636,60.9529412 C29.1542777,56.8151627 29.0962679,52.3386194 27.6215909,48.2376471 L26.5670455,45.1082353 L32.8613636,43 L33.9159091,46.1294118 C34.2784091,47.1835294 37.2113636,56.7694118 33.7511364,63.9505882 C32.1909214,67.1344288 29.371766,69.5225744 25.9738636,70.5388235 L20.9318182,71.8894118 Z" fill="#491CDE"></path>
                <path d="M103.585513,171.249598 L103.585513,171.249598 C102.919758,171.180295 102.426229,170.599908 102.465059,169.931951 C102.465059,168.746069 100.125286,168.449598 100.092331,168.449598 C99.4261298,168.363806 98.946296,167.767891 99.0048314,167.09901 C99.0289191,166.771232 99.1880111,166.468146 99.4441459,166.262072 C99.7002807,166.055999 100.030485,165.965421 100.355968,166.011951 C102.03665,166.176657 105.167331,167.263716 104.93665,170.162539 C104.850822,170.828471 104.254665,171.30811 103.585513,171.249598 L103.585513,171.249598 Z" fill="#491CDE"></path>
                <path d="M49.2313934,171.31548 C48.5893161,171.300576 48.0626061,170.802539 48.0120753,170.162539 C47.7813934,167.263716 50.9120753,166.176657 52.5927571,166.011951 C52.9182398,165.965421 53.2484441,166.055999 53.5045789,166.262072 C53.7607138,166.468146 53.9198057,166.771232 53.9438934,167.09901 C54.0024288,167.767891 53.522595,168.363806 52.8563934,168.449598 C52.8563934,168.449598 50.4177571,168.77901 50.4836662,169.931951 C50.5224957,170.599908 50.0289667,171.180295 49.3632116,171.249598 L49.2313934,171.31548 Z" fill="#491CDE"></path>
                <path d="M79.1464646,134.644706 C78.8169192,124.762353 79.1464646,116.065882 79.1464646,116 L82.4419192,116 C82.4419192,116 82.1123737,124.498824 82.4419192,134.414118 L79.1464646,134.644706 Z" fill="url(#linearGradient-6)"></path>
                <path d="M71.2111453,158.798446 C70.9458889,158.790814 70.7005496,158.655932 70.5520543,158.436093 C69.4645543,156.920799 68.6406907,155.471387 68.3440998,154.944328 C67.1537133,154.649927 65.9094863,154.649927 64.7190998,154.944328 C63.734517,155.203915 62.6865383,155.049163 61.8190998,154.516093 C60.6971691,153.659472 60.0293585,152.336529 60.0065998,150.925505 C59.9787452,150.706801 60.039782,150.486065 60.1760479,150.312706 C60.3123137,150.139347 60.5124288,150.027843 60.7315998,150.003152 C61.1754306,149.964507 61.5695917,150.285545 61.6213725,150.727858 C61.6069122,151.651442 62.0057021,152.533256 62.7088725,153.132564 C63.1877483,153.407347 63.7532517,153.489783 64.2906907,153.363152 C66.0022444,152.878228 67.828381,152.994496 69.4645543,153.692564 C69.5721867,153.758151 69.6625768,153.848505 69.7281907,153.956093 C69.7281907,153.956093 70.6838725,155.701976 71.9361453,157.480799 C72.0638363,157.659581 72.1147795,157.881947 72.0776483,158.098459 C72.040517,158.31497 71.918389,158.507679 71.738418,158.63374 C71.5881781,158.750207 71.4009945,158.808678 71.2111453,158.798446 Z" fill="#3D4352"></path>
                <path d="M77.8238636,159.918036 C77.3688563,159.918036 77,159.54933 77,159.094507 C77,158.639684 77.3688563,158.270977 77.8238636,158.270977 C78.3292606,158.308373 78.8342822,158.193641 79.2738636,157.941566 L79.5045455,157.183919 C80.8204813,154.151363 84.2963537,152.697613 87.3806818,153.889801 C87.5784091,153.889801 89.8522727,154.087448 90.4125,150.595683 C90.5279988,150.194847 90.9250814,149.943635 91.3369298,150.010848 C91.7487782,150.078061 92.0453104,150.442471 92.0272727,150.859213 C91.1704545,156.030977 87.1170455,155.438036 87.0840909,155.438036 C82.2727273,154.350977 81.1193182,157.612154 81.0863636,157.77686 L80.7897727,158.732154 C80.8051733,158.819323 80.8051733,158.908515 80.7897727,158.995683 C80.017173,159.77879 78.9045479,160.1248 77.8238636,159.918036 Z" fill="#3D4352"></path>
            </g>
        </g>
    </g>
</svg>