<svg id="Livello_1" data-name="Livello 1" xmlns="http://www.w3.org/2000/svg" xmlns:xlink="http://www.w3.org/1999/xlink" viewBox="0 0 90.88 90.88"><defs><style>.cls-1{fill:#fff;}.cls-2{fill:#491cde;}.cls-3{fill:url(#Sfumatura_senza_nome_10);}.cls-4{fill:url(#Sfumatura_senza_nome);}.cls-5{fill:url(#Sfumatura_senza_nome_10-2);}.cls-6{fill:url(#Sfumatura_senza_nome-2);}.cls-7{fill:#3d4352;}</style><linearGradient id="Sfumatura_senza_nome_10" x1="36.33" y1="-1489.35" x2="44.98" y2="-1489.35" gradientTransform="matrix(1, 0, 0, -1, 0, -1428.37)" gradientUnits="userSpaceOnUse"><stop offset="0" stop-color="#3d4352"/><stop offset="0.17" stop-color="#343a49"/><stop offset="0.67" stop-color="#1e2435"/><stop offset="1" stop-color="#161c2d"/></linearGradient><linearGradient id="Sfumatura_senza_nome" x1="48.58" y1="-1489.46" x2="57.51" y2="-1489.46" gradientTransform="matrix(1, 0, 0, -1, 0, -1428.37)" gradientUnits="userSpaceOnUse"><stop offset="0" stop-color="#161c2d"/><stop offset="0.33" stop-color="#1e2435"/><stop offset="0.83" stop-color="#343a49"/><stop offset="1" stop-color="#3d4352"/></linearGradient><linearGradient id="Sfumatura_senza_nome_10-2" x1="44.64" y1="-1496.47" x2="48.91" y2="-1496.47" xlink:href="#Sfumatura_senza_nome_10"/><linearGradient id="Sfumatura_senza_nome-2" x1="48.22" y1="-1481.24" x2="48.22" y2="-1475.57" xlink:href="#Sfumatura_senza_nome"/></defs><title>Luca_3</title><path class="cls-1" d="M51.36,43.7l-.44-1.17.58-.22L56,40.58a4.21,4.21,0,0,1,3,0,8.56,8.56,0,0,1,1.91,1.17l.5.37-.74,1-.5-.37a8.05,8.05,0,0,0-1.6-1,3,3,0,0,0-2.11,0c-2.5,1-4.52,1.74-4.52,1.74Z"/><path class="cls-1" d="M31.07,45l-.85-.92.46-.42a13.37,13.37,0,0,1,2-1.58,4.6,4.6,0,0,1,3.23-.46,44.13,44.13,0,0,1,5.6,1.42l.59.2-.36,1.18-.59-.2a43.27,43.27,0,0,0-5.41-1.38,3.47,3.47,0,0,0-2.37.31,12.34,12.34,0,0,0-1.82,1.42Z"/><path class="cls-2" d="M44.57,64.66a5.94,5.94,0,0,1-3.94-1.23A3.75,3.75,0,0,0,39,63.12a.25.25,0,0,1-.28-.22h0a.25.25,0,0,1,.22-.28h0a4.2,4.2,0,0,1,1.94.36l.08.05s1.87,1.73,5.75.87h.1s4,.67,5.95-.89a2.7,2.7,0,0,1,1.61-.41.25.25,0,0,1,.24.26h0a.24.24,0,0,1-.24.24h0a2.15,2.15,0,0,0-1.29.31c-2.06,1.61-5.79,1.07-6.29,1A10.25,10.25,0,0,1,44.57,64.66Z"/><path class="cls-2" d="M46.85,66.73h-.21a7.36,7.36,0,0,1-4.76-1.56.13.13,0,1,1,.13-.22l0,0a7.26,7.26,0,0,0,4.6,1.5s3,.12,4.71-1.49a.13.13,0,0,1,.18.18A7.2,7.2,0,0,1,46.85,66.73Z"/><path class="cls-2" d="M40.82,63.25a.13.13,0,0,1,0-.25,18.67,18.67,0,0,1,5.81,0c.27-.1,1.9-.61,6.3-.11A.12.12,0,0,1,53,63h0a.12.12,0,0,1-.13.11h0c-4.67-.53-6.2.1-6.21.11h-.07a18.33,18.33,0,0,0-5.76,0Z"/><path class="cls-3" d="M36.33,63.4c-.09-1.61,1.34-3,3.48-3.42l.35-.05a13.27,13.27,0,0,0,4.29-1.36l.53.85a14,14,0,0,1-4.68,1.5H40c-1.61.3-2.73,1.31-2.67,2.38Z"/><path class="cls-4" d="M57.49,63.59l-1-.1v-.15c.09-1.09-1.08-2.09-2.75-2.38h-.27a14.9,14.9,0,0,1-4.88-1.5l.51-.86A14.25,14.25,0,0,0,53.59,60h0l.33.05c2.22.4,3.69,1.81,3.59,3.42Z"/><path class="cls-5" d="M46.87,68.67a17.73,17.73,0,0,1-2.23-.14l.14-1a16.52,16.52,0,0,0,4,0l.14,1A14.32,14.32,0,0,1,46.87,68.67Z"/><path class="cls-2" d="M55.13,63.8h0a.38.38,0,0,1-.34-.4c0-.36-.71-.45-.72-.45a.38.38,0,0,1-.33-.41.36.36,0,0,1,.39-.33h0c.51.05,1.46.38,1.39,1.26A.38.38,0,0,1,55.13,63.8Z"/><path class="cls-2" d="M38.67,63.8a.38.38,0,0,1-.37-.35c-.07-.88.88-1.21,1.39-1.26a.36.36,0,0,1,.41.31v0a.38.38,0,0,1-.33.41s-.74.1-.72.45a.38.38,0,0,1-.34.4Z"/><path class="cls-6" d="M47.74,52.87c-.1-3,0-5.64,0-5.66h1s-.1,2.58,0,5.59Z"/><path class="cls-7" d="M45.27,60.1a.25.25,0,0,1-.2-.11,11.68,11.68,0,0,1-.67-1.06,2.29,2.29,0,0,0-1.1,0,1.13,1.13,0,0,1-.88-.13,1.4,1.4,0,0,1-.55-1.09.25.25,0,0,1,.22-.28h0a.25.25,0,0,1,.27.22.94.94,0,0,0,.33.73.66.66,0,0,0,.48.07,2.36,2.36,0,0,1,1.57.1.24.24,0,0,1,.08.08s.29.53.67,1.07a.25.25,0,0,1-.06.35h0A.24.24,0,0,1,45.27,60.1Z"/><path class="cls-7" d="M47.38,60.36a.25.25,0,0,1,0-.5.77.77,0,0,0,.44-.1l.07-.23a1.87,1.87,0,0,1,2.39-1c.06,0,.75.06.92-1a.25.25,0,0,1,.49.08C51.43,59.18,50.2,59,50.19,59c-1.46-.33-1.81.66-1.82.71l-.09.29a.23.23,0,0,1,0,.08A1,1,0,0,1,47.38,60.36Z"/></svg>