<svg id="Livello_1" data-name="Livello 1" xmlns="http://www.w3.org/2000/svg" viewBox="0 0 90.88 90.88"><defs><style>.cls-1{fill:#491cde;}.cls-2{fill:#fff;}</style></defs><title>Luca_1</title><path class="cls-1" d="M46.74,78.92a12.9,12.9,0,0,1-5.55-1.26C33.52,74,24.63,65.39,25.86,45A1,1,0,0,1,26.92,44h0a1,1,0,0,1,.94,1.06h0C26.74,64.39,35,72.47,42.08,75.86a10.81,10.81,0,0,0,9.49-.06C68.74,67.32,63.74,43.25,63.66,43a1,1,0,1,1,2-.42c.06.26,5.37,25.8-13.16,35A12.81,12.81,0,0,1,46.74,78.92Z"/><path class="cls-1" d="M27.33,46a1,1,0,0,1-.52-.14c-4-2.41-2.84-16.32-2.56-19.08a1,1,0,0,1,.15-.43l3.7-5.87A16.75,16.75,0,0,1,38.51,12.7a1,1,0,0,1,.59,1.91l-.12,0a14.77,14.77,0,0,0-9.17,6.91l-3.59,5.7c-.61,6.35-.5,15.66,1.63,16.94a1,1,0,0,1-.52,1.86Z"/><path class="cls-1" d="M38.74,14.67a1,1,0,0,1-.24-2,34.1,34.1,0,0,1,8.14-.7,1,1,0,0,1,0,2,32.43,32.43,0,0,0-7.66.64A1,1,0,0,1,38.74,14.67Z"/><path class="cls-2" d="M65,43.64,63,43l.3-1a45.28,45.28,0,0,0,1.6-14.72c-.78-1.25-4.9-7.71-7.39-9.63A17.69,17.69,0,0,0,46.65,14h-1V12h1a19.68,19.68,0,0,1,12.09,4.12c3,2.34,7.8,10,8,10.37a1,1,0,0,1,.15.45,46.4,46.4,0,0,1-1.66,15.75Z"/></svg>