<svg id="Livello_1" data-name="Livello 1" xmlns="http://www.w3.org/2000/svg" xmlns:xlink="http://www.w3.org/1999/xlink" viewBox="0 0 90.88 90.88"><defs><style>.cls-1{fill:url(#Sfumatura_senza_nome);}</style><linearGradient id="Sfumatura_senza_nome" x1="62.75" y1="-2307.11" x2="67.77" y2="-2307.11" gradientTransform="matrix(1, 0, 0, -1, 0, -2262.89)" gradientUnits="userSpaceOnUse"><stop offset="0" stop-color="#161c2d"/><stop offset="0.33" stop-color="#1e2435"/><stop offset="0.83" stop-color="#343a49"/><stop offset="1" stop-color="#3d4352"/></linearGradient></defs><title>MicheleZ_1</title><path class="cls-1" d="M62.94,52.5l-.19-1c1.8-.34,2.27-2.75,2.28-2.78v-.1c2.65-6.34,1.41-9.82,1.39-9.85-.21-.76-.59-1.65-1.23-1.83a2,2,0,0,0-1.62.57l-.68-.73A3.06,3.06,0,0,1,65.46,36c.91.24,1.55,1.1,1.91,2.5,0,.11,1.4,3.78-1.4,10.51C65.91,49.41,65.25,52.06,62.94,52.5Z"/></svg>