<?xml version="1.0" encoding="UTF-8"?>
<svg width="220px" height="247px" viewBox="0 0 220 247" version="1.1" xmlns="http://www.w3.org/2000/svg" xmlns:xlink="http://www.w3.org/1999/xlink">
    <!-- Generator: Sketch 47.1 (45422) - http://www.bohemiancoding.com/sketch -->
    <title>Michele Z</title>
    <desc>Created with Sketch.</desc>
    <defs>
        <linearGradient x1="50%" y1="100%" x2="50%" y2="0%" id="linearGradient-1">
            <stop stop-color="#161C2D" offset="0%"></stop>
            <stop stop-color="#1E2435" offset="33%"></stop>
            <stop stop-color="#343A49" offset="83%"></stop>
            <stop stop-color="#3D4352" offset="100%"></stop>
        </linearGradient>
        <linearGradient x1="0.248756219%" y1="51.463713%" x2="100.248756%" y2="51.463713%" id="linearGradient-2">
            <stop stop-color="#3D4352" offset="0%"></stop>
            <stop stop-color="#343A49" offset="17%"></stop>
            <stop stop-color="#1E2435" offset="67%"></stop>
            <stop stop-color="#161C2D" offset="100%"></stop>
        </linearGradient>
        <linearGradient x1="49.552378%" y1="100%" x2="49.552378%" y2="0.0667296068%" id="linearGradient-3">
            <stop stop-color="#161C2D" offset="0%"></stop>
            <stop stop-color="#1E2435" offset="33%"></stop>
            <stop stop-color="#343A49" offset="83%"></stop>
            <stop stop-color="#3D4352" offset="100%"></stop>
        </linearGradient>
        <linearGradient x1="5689%" y1="7669%" x2="5944%" y2="7669%" id="linearGradient-4">
            <stop stop-color="#161C2D" offset="0%"></stop>
            <stop stop-color="#1E2435" offset="33%"></stop>
            <stop stop-color="#343A49" offset="83%"></stop>
            <stop stop-color="#3D4352" offset="100%"></stop>
        </linearGradient>
        <linearGradient x1="-0.414257165%" y1="50.0333648%" x2="99.5190132%" y2="50.0333648%" id="linearGradient-5">
            <stop stop-color="#161C2D" offset="0%"></stop>
            <stop stop-color="#1E2435" offset="33%"></stop>
            <stop stop-color="#343A49" offset="83%"></stop>
            <stop stop-color="#3D4352" offset="100%"></stop>
        </linearGradient>
        <linearGradient x1="99.5190132%" y1="50.0333648%" x2="-0.414257165%" y2="50.0333648%" id="linearGradient-6">
            <stop stop-color="#161C2D" offset="0%"></stop>
            <stop stop-color="#1E2435" offset="33%"></stop>
            <stop stop-color="#343A49" offset="83%"></stop>
            <stop stop-color="#3D4352" offset="100%"></stop>
        </linearGradient>
    </defs>
    <g id="Symbols" stroke="none" stroke-width="1" fill="none" fill-rule="evenodd">
        <g id="Michele-Z" fill-rule="nonzero">
            <g transform="translate(33.000000, 0.000000)">
                <path d="M75.0730154,104 L73.8296373,104 C73.6005708,103.990946 73.3844772,103.890415 73.2289866,103.720564 C73.073496,103.550714 72.991373,103.325488 73.0007186,103.094529 C73.0096977,102.863556 73.1093992,102.645663 73.2778473,102.488878 C73.4462954,102.332093 73.669662,102.249286 73.8987139,102.25871 C73.8987139,102.25871 88.3357152,102.746271 92.4457706,97.3482716 C92.6308607,97.0994303 92.9335502,96.9690579 93.2398189,97.0062644 C93.5460876,97.0434709 93.809406,97.2426038 93.9305846,97.5286515 C94.0517631,97.8146993 94.012392,98.1442045 93.8273018,98.3930457 C89.8899378,103.651742 78.8031497,104 75.0730154,104 Z" id="Shape" fill="#3D4352"></path>
                <path d="M19.2086648,114.992286 C17.7735265,115.059563 16.3562798,114.685159 15.1972035,113.932549 C14.4228932,113.406031 13.9784771,112.583996 14.0008028,111.719568 C14.0187387,111.512651 14.1291171,111.320619 14.3074675,111.186046 C14.4858179,111.051472 14.7174046,110.985475 14.9508857,111.002686 C15.4229269,111.035851 15.7806391,111.39403 15.7602156,111.813074 C15.7847799,112.190155 16.0058382,112.535697 16.358416,112.748136 C17.0973694,113.278005 19.2086648,113.932549 24.8739741,112.529955 C25.3380718,112.426722 25.8135828,112.657699 25.9648101,113.059824 C26.0301376,113.258219 26.0038137,113.471475 25.8916294,113.652679 C25.7794451,113.833882 25.5905899,113.96819 25.3666097,114.026055 C23.3715085,114.588918 21.3006458,114.913853 19.2086648,114.992286 L19.2086648,114.992286 Z" id="Shape" fill="#3D4352"></path>
                <path d="M59.4238358,92 L58,87.8712703 L60.0489345,87.1364964 C65.3970008,85.2470777 92.4846093,76.1148874 100.263615,81.8881112 L102,83.1827129 L99.43015,86.6816363 L97.6937648,85.3870346 C93.3180742,82.1330358 73.9052881,86.8565825 61.507498,91.2302368 L59.4238358,92 Z" id="Shape" fill="#FFFFFF"></path>
                <path d="M8.32138284,104 L4,104 L4,101.845097 C4.04461612,100.431862 4.68583436,99.1046257 5.7631242,98.1956652 C10.637644,93.8511033 25.8489117,95.1023371 28.8565941,95.3803891 L31,95.5889281 L30.5851472,99.8987335 L28.4417414,99.6901945 C21.7695262,99.0298211 11.15621,99.1340906 8.63252241,101.428019 C8.32138284,101.706071 8.32138284,101.845097 8.32138284,101.91461 L8.32138284,104 Z" id="Shape" fill="#FFFFFF"></path>
                <path d="M96.1589061,97.964869 C95.9305457,97.9708598 95.7093805,97.8830383 95.5449821,97.7210887 C87.4957561,89.6066852 70.2717767,96.5021868 70.1012423,96.5718384 C69.6810591,96.7025069 69.2324096,96.4858705 69.0647259,96.0713425 C68.8970421,95.6568145 69.0651955,95.1800419 69.4532113,94.9698531 C70.2035629,94.6564212 87.9050388,87.551965 96.7387232,96.5021868 C96.9922249,96.7514246 97.0697268,97.1340794 96.9338388,97.4655427 C96.7979509,97.797006 96.4765921,98.0091766 96.1247992,97.9996948 L96.1589061,97.964869 Z" id="Shape" fill="#3D4352"></path>
                <path d="M12.7203789,111.905835 L12.7203789,111.905835 C12.2435787,111.813134 11.9281888,111.338672 12.0141047,110.84334 C12.0141047,110.513601 13.4972806,102.7464 28.1171572,104.175272 C28.6047378,104.175272 29,104.585354 29,105.091216 C29,105.597077 28.6047378,106.007159 28.1171572,106.007159 C15.2276525,104.724838 13.9916726,110.879978 13.9916726,111.136442 C13.9747416,111.443066 13.8108156,111.720477 13.5551138,111.875229 C13.299412,112.029981 12.9859725,112.041473 12.7203789,111.905835 Z" id="Shape" fill="#3D4352"></path>
                <rect id="Rectangle-path" fill="url(#linearGradient-1)" x="38" y="105" width="3" height="37"></rect>
                <path d="M76.7412935,112.992337 C73.7970421,113.052446 70.8570839,112.758722 68,112.119013 L69.0099502,109 C73.1577609,109.834654 77.4380203,110.003619 81.6517413,109.499042 L82,112.618055 C80.2556709,112.825587 78.5003273,112.950521 76.7412935,112.992337 L76.7412935,112.992337 Z" id="Shape" fill="url(#linearGradient-2)"></path>
                <path d="M137.649899,132 L137,128.558941 C143.156942,127.388981 144.764588,119.09603 144.798793,118.992798 L144.798793,118.648692 C153.863179,96.8323799 149.62173,84.8574956 149.55332,84.7542638 C148.83501,82.1390592 147.535211,79.0765169 145.346076,78.4571263 C143.29977,78.2392684 141.264681,78.959617 139.804829,80.4185298 L137.478873,77.9065569 C139.822886,75.6596904 143.068565,74.6305919 146.269618,75.1192994 C149.382294,75.9451535 151.571429,78.904464 152.802817,83.7219462 C152.802817,84.1004626 157.591549,96.7291481 148.014085,119.887473 C147.808853,121.367129 145.551308,130.485934 137.649899,132 Z" id="Shape" fill="url(#linearGradient-3)"></path>
                <path d="M25.4117647,124 L24,120.699552 C26.3873584,119.619809 28.5090194,118.014652 30.2117647,116 L33,118.224215 C30.9325039,120.707609 28.3380898,122.682347 25.4117647,124 L25.4117647,124 Z" id="Shape" fill="url(#linearGradient-4)"></path>
                <path d="M51.4327791,192.986588 C44.5502657,192.986588 39.3883806,189.21416 34.6050338,180.838677 C31.6799656,175.7857 30.5443509,172.290147 31.1637771,169.867486 L34.6050338,170.525066 C34.6050338,171.390301 34.6050338,173.639915 37.8054026,179.142815 C43.0017002,188.175877 47.7506344,190.771584 55.9408254,189.075722 C59.4765362,188.483574 63.0725665,188.344027 66.6431337,188.660409 L71.0479423,188.660409 C80.1673815,188.883356 87.906054,181.976938 88.7704143,172.843898 C89.5229149,168.154205 89.7422727,163.393616 89.4242531,158.65403 L88.9424772,158.65403 C79.3903192,156.980936 69.6224914,156.980936 60.0703334,158.65403 C55.6896748,160.115173 51.0913632,160.805939 46.4773695,160.695986 C41.5228628,161.174559 37.0171601,163.787417 34.1232579,167.860139 L31.1637771,166.060449 C34.648751,160.94261 40.2578814,157.695407 46.4085443,157.235043 C50.6575461,157.306477 54.8893355,156.675092 58.9347187,155.366134 C69.0056448,153.544622 79.3189144,153.544622 89.3898405,155.366134 C91.175733,155.358846 92.6703803,156.726756 92.8310972,158.515592 C93.1926788,163.519472 92.9732528,168.548682 92.1772585,173.501477 C91.1490718,184.381908 81.9110267,192.598448 71.0479423,192.294399 C69.4993768,192.294399 68.0196364,192.294399 66.4366583,192.294399 C63.1559268,191.984653 59.84954,192.089296 56.5946642,192.605884 C54.8923239,192.916491 53.161962,193.04411 51.4327791,192.986588 Z" id="Shape" fill="url(#linearGradient-5)"></path>
                <path d="M22.8548785,171.994179 C22.3934738,172.032539 21.9363573,171.880143 21.5871528,171.571539 C21.2379484,171.262934 21.0262328,170.824258 21,170.354956 L21,166.867246 C21.0325144,162.964713 22.5314986,159.222082 25.1906514,156.404119 C28.6309604,152.386627 32.9154549,149.204361 37.7282558,147.091935 C38.629367,146.783742 39.6059233,147.275614 39.9094555,148.190563 C40.2129877,149.105512 39.7285542,150.097065 38.8274431,150.405259 C34.6434384,152.348095 30.9097641,155.164613 27.8699203,158.67113 C25.7164082,160.844036 24.4838589,163.785007 24.4349601,166.867246 L24.4349601,170.354956 C24.3860663,171.225668 23.7111722,171.925823 22.8548785,171.994179 Z" id="Shape" fill="url(#linearGradient-5)"></path>
                <path d="M114.182717,172.965195 C102.947944,172.965195 99.6496616,167.43117 97.9661635,158.068574 C97.3027563,154.405867 94.9176334,151.301142 91.5757418,149.750133 C82.699091,146.173942 72.9630963,145.397521 63.6434149,147.522601 C60.9274497,151.871048 56.0652522,154.347238 51,153.961561 L51.4466424,150.481042 C55.4453778,150.662089 59.2047159,148.54932 61.1697033,145.016627 L61.5132743,144.459744 L62.1660593,144.459744 C72.453016,141.918344 83.2677403,142.709594 93.0874545,146.722082 C97.4495504,148.749049 100.56439,152.800509 101.436231,157.581301 C103.051015,166.456624 105.696512,170.285195 116.7595,169.519481 L117,173 L114.182717,172.965195 Z" id="Shape" fill="url(#linearGradient-5)"></path>
                <path d="M63.8666699,201.99886 L63.8666699,201.99886 C63.4638496,201.94658 63.1714757,201.548624 63.2066699,201.100519 C63.1364242,199.705077 62.7438574,198.353103 62.0666699,197.174434 C61.9082777,196.785742 62.040659,196.327164 62.3731477,196.112774 C62.7056363,195.898384 63.1304631,195.997672 63.3566699,196.342637 C64.1809736,197.883349 64.6161949,199.641712 64.6166699,201.433238 C64.5094245,201.78706 64.2027842,202.018317 63.8666699,201.99886 Z" id="Shape" fill="#3D4352"></path>
                <path d="M136.376185,119 L126.811019,119 L125.771327,96.6762419 C124.980671,84.6924979 119.799131,73.4190996 111.21564,65.0076548 C106.884505,61.2903253 104.454413,55.8266856 104.596268,50.1251494 C104.596268,48.8791722 104.596268,47.563974 104.596268,46.2833863 C104.882662,43.6376237 104.882662,40.9687391 104.596268,38.3229765 C103.526777,33.3948736 98.9077149,30.0657926 93.8874408,30.6048399 L88.6196682,31.1239971 C85.4312796,31.5047124 76.4206161,33.3390677 66.8554502,35.3118649 C54.4138033,37.8730403 41.5562796,40.5034366 37.3281991,40.7803204 C27.3471564,41.4379195 20,41.8186347 20,41.8186347 L20,38.3575869 C20,38.3575869 27.4164692,38.0114822 37.3281991,37.3192726 C41.3136848,37.0423888 54.6563981,34.3081611 66.3702607,31.9200381 C76.0047393,29.9472409 85.119372,28.0782751 88.4463863,27.6975598 L93.7141588,27.0745712 C100.489385,26.3622773 106.727488,30.8227814 108.23519,37.4577145 C108.646962,40.3815989 108.716744,43.3433965 108.443128,46.2833863 C108.443128,47.5293635 108.443128,48.8099512 108.443128,50.0213179 C108.210065,54.6485039 110.051878,59.1391083 113.468306,62.273427 C122.806765,71.2656724 128.422304,83.4330207 129.20231,96.3647476 L130.103377,115.40051 L132.66795,115.40051 L131.351007,92.5229846 C131.354186,88.8887969 132.284517,85.3153448 134.054206,82.1398412 L137,84.008807 C135.616804,86.5863899 134.879541,89.4602818 134.851303,92.3845426 L136.376185,119 Z" id="Shape" fill="url(#linearGradient-6)"></path>
                <path d="M53.8403452,178.995451 C49.8685305,179.015752 45.9038259,178.656274 42,177.921892 L42.7249191,174.458797 C52.7417699,176.321084 63.0723349,175.472378 72.6537217,172 L74,175.186047 C67.6006,177.791925 60.7462204,179.087141 53.8403452,178.995451 L53.8403452,178.995451 Z" id="Shape" fill="url(#linearGradient-5)"></path>
                <path d="M48.1498603,167.979295 C42.8621316,168.141477 37.5871446,167.349895 32.5552563,165.639117 C32.266868,165.523354 32.0593088,165.255126 32.0107642,164.935472 C31.9622196,164.615817 32.0800647,164.293299 32.3199084,164.089407 C32.559752,163.885516 32.8851563,163.831226 33.1735445,163.946989 C33.3796406,163.946989 54.2983936,172.155612 86.6898288,156.134395 C86.9712614,155.952113 87.3275697,155.955493 87.6058091,156.143082 C87.8840486,156.330672 88.0347323,156.669108 87.9931797,157.013118 C87.9516271,157.357127 87.7252285,157.645525 87.4111652,157.754518 C75.2093063,164.17195 61.7984079,167.664535 48.1498603,167.979295 Z" id="Shape" fill="#491CDE"></path>
                <path d="M38.182326,145.930175 C38.0540982,145.964182 37.9200796,145.964182 37.7918518,145.930175 C34.5379004,143.975377 35.0259931,141.601694 35.0259931,141.496973 C35.4085367,139.423924 36.0775534,137.423792 37.0109035,135.562766 C37.1223237,135.248142 37.3924672,135.030294 37.7051624,135.002906 C38.0178575,134.975517 38.3173646,135.143469 38.4748847,135.434536 C38.6324047,135.725603 38.6198588,136.087901 38.4426421,136.365629 C37.5982973,138.05462 36.9846193,139.865026 36.6204293,141.741322 C36.6204293,141.741322 36.6204293,143.067792 38.5728002,144.359355 C38.9013076,144.549553 39.0669847,144.955196 38.9746369,145.343208 C38.8822891,145.731221 38.5556197,146.002011 38.182326,145.999989 L38.182326,145.930175 Z" id="Shape" fill="#3D4352"></path>
                <path d="M47.5674871,150.978263 C47.1544732,151.007246 46.7399222,151.007246 46.3269082,150.978263 C43.251709,150.821081 40.4878588,149.060566 39.0557372,146.34668 C38.8905309,145.911018 39.1046772,145.423707 39.5381846,145.248824 C39.975783,145.084348 40.4652603,145.297547 40.6409214,145.729136 C41.8989218,147.80502 44.1337008,149.09856 46.5681319,149.159938 C48.2056652,149.380511 49.8699392,149.041873 51.2892239,148.199313 C54.0003635,146.46319 56.8739975,144.992518 59.8698949,143.807887 C63.6950133,142.126794 68.0370395,140.377085 68.0370395,140.377085 C69.2951002,139.653407 70.1376723,138.382432 70.3114342,136.946283 C69.9184478,134.957223 69.25774,133.030032 68.3471843,131.216844 C68.1458825,130.799455 68.3136621,130.298344 68.72625,130.08468 C69.1454944,129.884269 69.648833,130.051306 69.8634474,130.462068 C70.8766602,132.477253 71.5960843,134.625974 72,136.843359 C71.8983755,139.013072 70.6893489,140.980371 68.7951711,142.058178 C68.7951711,142.058178 64.3497633,143.876503 60.5591054,145.48898 C57.6766573,146.636945 54.9078595,148.049674 52.2885792,149.708866 C50.8793837,150.596107 49.2337317,151.038586 47.5674871,150.978263 L47.5674871,150.978263 Z" id="Shape" fill="#3D4352"></path>
                <path d="M74.0894689,216.934855 C72.0257854,216.933721 69.9637418,216.818408 67.9127735,216.589446 C65.8351509,216.400459 63.7446872,216.400459 61.6670646,216.589446 C59.2515971,217.038477 46.3806059,218.281949 33.6821482,198.973594 C23.2548029,182.933005 14.8080915,165.686488 8.52677941,147.611296 C5.41406858,136.615561 4.24625725,125.159664 5.07611154,113.761228 C3.69584439,107.923818 -5.62095886,66.7165408 5.07611154,44.6794554 C17.0297094,17.0134183 44.5360453,-0.645782901 74.6415758,0.0180895719 C98.2180356,0.469828758 120.48411,10.9605858 135.856424,28.8597295 C140.364924,36.1382952 142.87632,44.4782008 143.137333,53.0383498 L144,69.7906796 L137.098664,70.1360885 L136.235997,53.4182996 C135.990119,46.2804965 134.012324,39.3098595 130.473382,33.1082585 C116.372271,16.9503395 96.1704251,7.42164295 74.7450958,6.82264415 C47.3627837,6.03898124 22.2664431,22.0339188 11.3908337,47.2009401 L11.3908337,47.5118081 C1.21136352,68.5817486 11.9429406,112.345051 12.0809673,112.794083 C12.1603855,113.216378 12.1603855,113.6498 12.0809673,114.072096 C11.2830123,124.684755 12.3338505,135.355492 15.1865684,145.607925 C21.2491833,163.039921 29.3574631,179.689967 39.3412435,195.208637 C50.2798606,211.891885 60.0452507,209.923055 60.2522908,209.923055 L60.8389043,209.923055 C63.4096232,209.678749 65.9976815,209.678749 68.5684004,209.923055 C78.920404,211.097445 83.1647254,208.679583 83.2337388,208.679583 C125.262873,184.708208 132.233223,126.33411 132.302236,125.781456 L132.681809,122.327367 L139.583145,123.087267 L139.203572,126.541356 C138.996532,128.821054 131.819142,188.749492 86.9604601,214.378829 C82.9781562,216.374908 78.5314265,217.257976 74.0894689,216.934855 Z" id="Shape" fill="#491CDE"></path>
                <path d="M9.47349217,151 L8.51169102,147.533249 C5.42699062,136.541941 4.26458638,125.092023 5.0766869,113.697762 C3.66833521,107.838954 -5.60617591,66.3072802 5.0766869,44.1200756 L6.58808871,41 L12.7710961,44.0160731 L11.2596943,47.1361488 C1.12643216,68.2833281 11.809295,112.20706 11.9466951,112.657737 C12.0257528,113.081581 12.0257528,113.516591 11.9466951,113.940435 C11.1523624,124.591998 12.1984304,135.301852 15.0381988,145.591869 L16,149.05862 L9.47349217,151 Z" id="Shape" fill="#FFFFFF"></path>
                <path d="M65.7231334,106 C65.0704623,106 64.4738083,105.631697 64.1819249,105.048642 C63.8900416,104.465586 63.953032,103.767863 64.3446346,103.246362 C65.5816194,101.662162 66.9537665,100.188038 68.4456684,98.8405421 C71.2529984,96.3884951 74.7365683,94.8407955 78.4397843,94.4003014 C87.0898639,93.1955849 93.0174084,94.7100856 96.6015052,98.9438035 C96.9954974,99.4172476 97.1066735,100.064664 96.8931547,100.642178 C96.6796359,101.219691 96.1738606,101.639563 95.5663496,101.743633 C94.9588386,101.847702 94.3418872,101.620158 93.9478951,101.146714 C91.1908976,97.7046666 86.2627646,96.7753138 78.8877963,97.7046666 C75.8932299,98.014293 73.0603026,99.213223 70.7546538,101.146714 C69.4163134,102.335431 68.1826222,103.636713 67.0671696,105.036227 C66.8129884,105.565353 66.3063673,105.928638 65.7231334,106 Z" id="Shape" fill="#491CDE"></path>
                <path d="M13.7203368,115.999989 C13.1409966,116.002082 12.5998271,115.701018 12.2816643,115.199627 C11.9635016,114.698235 11.9113916,114.064352 12.1431327,113.51448 C12.923425,111.131292 14.4734782,109.099688 16.5318746,107.7623 C26.0979605,101.655048 36.7955189,107.549256 37.1041023,107.7623 C37.9372956,108.232943 38.2443123,109.31395 37.7898432,110.176795 C37.3353741,111.039641 36.2915175,111.357584 35.4583241,110.886941 C35.4583241,110.886941 26.0293864,105.738385 18.0062176,110.886941 C16.6678051,111.913342 15.6631568,113.337703 15.1261057,114.970278 C14.870022,115.549994 14.3334612,115.943019 13.7203368,115.999989 L13.7203368,115.999989 Z" id="Shape" fill="#491CDE"></path>
            </g>
        </g>
    </g>
</svg>