<svg id="Livello_1" data-name="Livello 1" xmlns="http://www.w3.org/2000/svg" xmlns:xlink="http://www.w3.org/1999/xlink" viewBox="0 0 90.88 90.88"><defs><style>.cls-1{fill:#fff;}.cls-2{fill:url(#Sfumatura_senza_nome);}.cls-3{fill:url(#Sfumatura_senza_nome-2);}.cls-4{fill:#491cde;}.cls-5{fill:url(#Sfumatura_senza_nome-3);}.cls-6{fill:url(#Sfumatura_senza_nome-4);}.cls-7{fill:#3d4352;}.cls-8{fill:url(#Sfumatura_senza_nome_10);}.cls-9{fill:url(#Sfumatura_senza_nome-5);}</style><linearGradient id="Sfumatura_senza_nome" x1="34.85" y1="-2318.04" x2="34.85" y2="-2307.4" gradientTransform="matrix(1, 0, 0, -1, 0, -2262.89)" gradientUnits="userSpaceOnUse"><stop offset="0" stop-color="#161c2d"/><stop offset="0.33" stop-color="#1e2435"/><stop offset="0.83" stop-color="#343a49"/><stop offset="1" stop-color="#3d4352"/></linearGradient><linearGradient id="Sfumatura_senza_nome-2" x1="35.44" y1="-2327.83" x2="44.71" y2="-2327.83" xlink:href="#Sfumatura_senza_nome"/><linearGradient id="Sfumatura_senza_nome-3" x1="32.22" y1="-2327.18" x2="50.23" y2="-2327.18" xlink:href="#Sfumatura_senza_nome"/><linearGradient id="Sfumatura_senza_nome-4" x1="47.64" y1="-2326.89" x2="47.64" y2="-2318.24" xlink:href="#Sfumatura_senza_nome"/><linearGradient id="Sfumatura_senza_nome_10" x1="29.41" y1="-2322.63" x2="34.94" y2="-2322.63" gradientTransform="matrix(1, 0, 0, -1, 0, -2262.89)" gradientUnits="userSpaceOnUse"><stop offset="0" stop-color="#3d4352"/><stop offset="0.17" stop-color="#343a49"/><stop offset="0.67" stop-color="#1e2435"/><stop offset="1" stop-color="#161c2d"/></linearGradient><linearGradient id="Sfumatura_senza_nome-5" x1="45.93" y1="-2311.49" x2="45.93" y2="-2284.91" xlink:href="#Sfumatura_senza_nome"/></defs><title>MicheleZ_3</title><path class="cls-1" d="M40.37,40.81,40,39.63l.59-.21c1.54-.54,9.34-3.15,11.58-1.5l.5.37-.74,1-.5-.37c-1.26-.93-6.85.42-10.42,1.67Z"/><path class="cls-1" d="M25.62,44.16H24.37v-.62a1.43,1.43,0,0,1,.51-1.05c1.41-1.25,5.81-.89,6.68-.81l.62.06L32.06,43l-.62-.06c-1.93-.19-5-.16-5.73.5-.09.08-.09.12-.09.14Z"/><rect class="cls-2" x="34.35" y="44.51" width="1" height="10.64"/><path class="cls-3" d="M38.87,66a18.11,18.11,0,0,1-3.43-.31l.21-1a16.61,16.61,0,0,0,8.67-.71l.39.92A15,15,0,0,1,38.87,66Z"/><path class="cls-4" d="M37.14,62.63A13.44,13.44,0,0,1,32.6,62a.25.25,0,0,1,.18-.47h0c.06,0,6.15,2.28,15.58-2.17a.25.25,0,0,1,.26.43l-.05,0A26.8,26.8,0,0,1,37.14,62.63Z"/><path class="cls-5" d="M38.19,69.92c-2,0-3.5-1.09-4.89-3.51-.85-1.46-1.18-2.47-1-3.17l1,.19a4.8,4.8,0,0,0,.93,2.49c1.51,2.61,2.89,3.36,5.27,2.87a12.34,12.34,0,0,1,3.11-.12h1.28A5,5,0,0,0,49,64.1a18.09,18.09,0,0,0,.19-4.1h-.14a24.45,24.45,0,0,0-8.39,0,11.67,11.67,0,0,1-4,.59,5,5,0,0,0-3.59,2.07l-.86-.52a5.9,5.9,0,0,1,4.43-2.55,11.27,11.27,0,0,0,3.64-.54,25,25,0,0,1,8.85,0,1,1,0,0,1,1,.91A18.66,18.66,0,0,1,50,64.29a6,6,0,0,1-6.14,5.43H42.55a11.47,11.47,0,0,0-2.86.09A7.09,7.09,0,0,1,38.19,69.92Z"/><path class="cls-6" d="M56.43,64c-3.27,0-4.23-1.59-4.72-4.28a3.28,3.28,0,0,0-1.86-2.39,13.8,13.8,0,0,0-8.13-.64A4,4,0,0,1,38,58.54l.13-1A3.09,3.09,0,0,0,41,56l.1-.16h.19a14.73,14.73,0,0,1,9,.65,4.29,4.29,0,0,1,2.43,3.12c.47,2.55,1.24,3.65,4.46,3.43l.07,1Z"/><path class="cls-7" d="M34.29,56.41h-.12c-1-.56-.85-1.24-.85-1.27a6.08,6.08,0,0,1,.61-1.7.25.25,0,0,1,.47.18l0,.05a5.73,5.73,0,0,0-.56,1.54s0,.38.6.75a.25.25,0,0,1-.12.47Z"/><path class="cls-7" d="M37.08,57.92h-.36a2.53,2.53,0,0,1-2.11-1.35.25.25,0,1,1,.46-.18,2.07,2.07,0,0,0,1.72,1,2.12,2.12,0,0,0,1.37-.28,14.49,14.49,0,0,1,2.49-1.28c1.11-.49,2.37-1,2.37-1a1.34,1.34,0,0,0,.66-1,6.57,6.57,0,0,0-.57-1.67.25.25,0,1,1,.44-.22,6.91,6.91,0,0,1,.62,1.86,1.85,1.85,0,0,1-.93,1.52l-2.39,1a14.51,14.51,0,0,0-2.4,1.23A2.4,2.4,0,0,1,37.08,57.92Z"/><path class="cls-8" d="M30.37,62.21a3.39,3.39,0,0,1,1-2.35,9.53,9.53,0,0,1,3.19-2.37.5.5,0,0,0-.32-1,10.2,10.2,0,0,0-3.65,2.67,4.37,4.37,0,0,0-1.05,1.9c.27.62.54,1.24.83,1.85Z"/><path class="cls-9" d="M62.63,48.6H59.87l-.3-6.45A14.12,14.12,0,0,0,55.37,33a5.49,5.49,0,0,1-1.91-4.3V27.59a10.7,10.7,0,0,0,0-2.3,2.85,2.85,0,0,0-3.09-2.23l-1.52.15c-.92.11-3.52.64-6.28,1.21C39,25.16,35.27,25.92,34,26c-2.88.19-5,.3-5,.3v-1s2.14-.1,5-.3c1.15-.08,5-.87,8.38-1.56,2.78-.57,5.41-1.11,6.37-1.22L50.32,22a3.88,3.88,0,0,1,4.19,3,11,11,0,0,1,.06,2.55v1.08A4.5,4.5,0,0,0,56,32.21a14.93,14.93,0,0,1,4.54,9.85l.26,5.5h.74L61.18,41A6.18,6.18,0,0,1,62,38l.85.54a5.23,5.23,0,0,0-.62,2.42Z"/></svg>