<svg id="Livello_1" data-name="Livello 1" xmlns="http://www.w3.org/2000/svg" xmlns:xlink="http://www.w3.org/1999/xlink" viewBox="0 0 90.88 90.88"><defs><style>.cls-1{fill:#fff;}.cls-2{fill:#3d4352;}.cls-3{fill:url(#Sfumatura_senza_nome);}.cls-4{fill:#491cde;}.cls-5{fill:url(#Sfumatura_senza_nome-2);}</style><linearGradient id="Sfumatura_senza_nome" x1="67.84" y1="-1582.88" x2="67.84" y2="-1576.89" gradientTransform="matrix(1.01, -0.04, 0.04, -1.21, 31.52, -1859.81)" gradientUnits="userSpaceOnUse"><stop offset="0" stop-color="#161c2d"/><stop offset="0.33" stop-color="#1e2435"/><stop offset="0.83" stop-color="#343a49"/><stop offset="1" stop-color="#3d4352"/></linearGradient><linearGradient id="Sfumatura_senza_nome-2" x1="38.78" y1="-1770.19" x2="44.64" y2="-1770.19" gradientTransform="matrix(1, 0, 0, -1, 0, -1701.43)" xlink:href="#Sfumatura_senza_nome"/></defs><title>MicheleN_3</title><path class="cls-1" d="M40.76,44.41l-.26-1,.48-.13a84.93,84.93,0,0,1,11-2c.08,0,2-.21,6,1.72l.45.22-.44.9-.51-.19c-3.65-1.78-5.4-1.63-5.42-1.63a83.57,83.57,0,0,0-10.82,2Z"/><path class="cls-1" d="M26.48,48.16l-.15-.5a1.92,1.92,0,0,1,1-2.25,25.16,25.16,0,0,1,8-.89h.5l-.06,1h-.5a24.67,24.67,0,0,0-7.6.82.92.92,0,0,0-.42,1l.14.48Z"/><path class="cls-2" d="M40.48,58.41a.25.25,0,0,1-.16-.44,4.94,4.94,0,0,1,4.19-.53c.22-.08,1.1-.53,1.14-2.42a.25.25,0,0,1,.5,0c0,2.54-1.52,2.9-1.58,2.92h-.09c-2.51-.65-3.75.36-3.81.41A.24.24,0,0,1,40.48,58.41Z"/><path class="cls-2" d="M37.79,59.08a.25.25,0,0,1-.14,0,4.66,4.66,0,0,0-.55-.31h0a1.74,1.74,0,0,1-1,0,.25.25,0,0,1-.18-.28.55.55,0,0,1,.32-.43c.53-.22,1.48.36,1.76.54a.25.25,0,0,1-.14.46Z"/><path class="cls-2" d="M35.48,58.91h-.09c-.17-.06-.73-.29-.85-.66a5.28,5.28,0,0,1,0-2.18.24.24,0,0,1,.26-.21h0a.25.25,0,0,1,.21.28,5,5,0,0,0,0,2,1.21,1.21,0,0,0,.54.34.25.25,0,0,1-.09.48Z"/><path class="cls-3" d="M36.83,53.42l-1-.21c.7-3.28.94-5.75,1-5.77,0-.2-.38-.4-.39-.4l.45-.89a1.71,1.71,0,0,1,.93,1.3A56.55,56.55,0,0,1,36.83,53.42Z"/><path class="cls-4" d="M41.48,66.91a6.45,6.45,0,0,1-5.28-2.54.25.25,0,0,1,0-.23l-.92-.07a.25.25,0,0,1-.23-.27h0a.24.24,0,0,1,.25-.23h0s4.88.37,6.2.33c0,0,5.49-1.39,10.24-2.05A.26.26,0,0,1,52,62a.25.25,0,0,1-.07.29c-.23.18-5.59,4.38-9.79,4.58A5.37,5.37,0,0,1,41.48,66.91Zm-4.8-2.73a6.25,6.25,0,0,0,5.4,2.2c3.13-.15,7.06-2.7,8.72-3.88-4.47.7-9.2,1.89-9.25,1.9-1,0-3.34-.11-4.9-.22Z"/><path class="cls-5" d="M41.48,69.47a5.83,5.83,0,0,1-2.71-.55l.49-.87-.25.44.24-.44s1.82,1,5.07,0l.3,1A10.62,10.62,0,0,1,41.48,69.47Z"/><path class="cls-2" d="M54.07,62.74H54a.25.25,0,0,1-.16-.31c.29-.94.19-1.4.05-1.62a.5.5,0,0,0-.31-.24.25.25,0,0,1,.07-.49,1,1,0,0,1,.66.45,2.48,2.48,0,0,1,0,2.05A.25.25,0,0,1,54.07,62.74Z"/></svg>