<?xml version="1.0" encoding="UTF-8"?>
<svg width="220px" height="247px" viewBox="0 0 220 247" version="1.1" xmlns="http://www.w3.org/2000/svg" xmlns:xlink="http://www.w3.org/1999/xlink">
    <!-- Generator: Sketch 47.1 (45422) - http://www.bohemiancoding.com/sketch -->
    <title>Michele N</title>
    <desc>Created with Sketch.</desc>
    <defs>
        <linearGradient x1="-5.40336681e-13%" y1="50.8196721%" x2="100%" y2="50.8196721%" id="linearGradient-1">
            <stop stop-color="#3D4352" offset="0%"></stop>
            <stop stop-color="#343A49" offset="17%"></stop>
            <stop stop-color="#1E2435" offset="67%"></stop>
            <stop stop-color="#161C2D" offset="100%"></stop>
        </linearGradient>
        <linearGradient x1="0%" y1="50.6726457%" x2="100%" y2="50.6726457%" id="linearGradient-2">
            <stop stop-color="#161C2D" offset="0%"></stop>
            <stop stop-color="#1E2435" offset="33%"></stop>
            <stop stop-color="#343A49" offset="83%"></stop>
            <stop stop-color="#3D4352" offset="100%"></stop>
        </linearGradient>
        <linearGradient x1="49.552378%" y1="100%" x2="49.552378%" y2="0.0667296068%" id="linearGradient-3">
            <stop stop-color="#161C2D" offset="0%"></stop>
            <stop stop-color="#1E2435" offset="33%"></stop>
            <stop stop-color="#343A49" offset="83%"></stop>
            <stop stop-color="#3D4352" offset="100%"></stop>
        </linearGradient>
        <linearGradient x1="-0.414257165%" y1="50.0333648%" x2="99.5190132%" y2="50.0333648%" id="linearGradient-4">
            <stop stop-color="#161C2D" offset="0%"></stop>
            <stop stop-color="#1E2435" offset="33%"></stop>
            <stop stop-color="#343A49" offset="83%"></stop>
            <stop stop-color="#3D4352" offset="100%"></stop>
        </linearGradient>
        <linearGradient x1="49.552378%" y1="0.0667296068%" x2="49.552378%" y2="100%" id="linearGradient-5">
            <stop stop-color="#161C2D" offset="0%"></stop>
            <stop stop-color="#1E2435" offset="33%"></stop>
            <stop stop-color="#343A49" offset="83%"></stop>
            <stop stop-color="#3D4352" offset="100%"></stop>
        </linearGradient>
    </defs>
    <g id="Symbols" stroke="none" stroke-width="1" fill="none" fill-rule="evenodd">
        <g id="Michele-N" fill-rule="nonzero">
            <g transform="translate(18.000000, 0.000000)" id="Shape">
                <path d="M105.147759,112 C103.547499,112 101.755207,112 99.7388784,111.768373 C99.5264086,111.751507 99.3292236,111.647712 99.1910386,111.479999 C99.0528535,111.312286 98.9850855,111.094512 99.0027585,110.874956 C99.0100492,110.651754 99.1079055,110.442042 99.2723426,110.29722 C99.4367797,110.152398 99.6525977,110.085854 99.8668992,110.113898 C114.493281,111.30512 116.413593,107.532915 116.445599,107.499826 C116.529939,107.297502 116.688858,107.13832 116.887124,107.057569 C117.085389,106.976818 117.30662,106.981171 117.501771,107.069662 C117.693041,107.143878 117.847835,107.293814 117.931921,107.486312 C118.016007,107.678811 118.022457,107.898011 117.949844,108.095437 C117.757812,108.525601 116.157552,112 105.147759,112 Z" fill="#3D4352"></path>
                <path d="M43.9457665,121.945023 C41.9378384,122.196765 39.9213833,121.578744 38.2463142,120.198205 C37.9365651,119.849257 37.9162056,119.258539 38.2008399,118.878801 C38.4854742,118.499062 38.9673171,118.474102 39.2770662,118.823051 C39.2770662,118.823051 42.6724846,122.093688 53.010321,118.042558 C53.2702637,117.942971 53.5537975,118.020962 53.754118,118.247152 C53.9544384,118.473342 54.0411121,118.813367 53.9814898,119.139144 C53.9218674,119.46492 53.7250073,119.726955 53.4650645,119.826542 C50.3987873,121.124328 47.1884754,121.83877 43.9457665,121.945023 Z" fill="#3D4352"></path>
                <path d="M121.163495,107.968843 C120.925168,107.966919 120.699792,107.864362 120.547266,107.68843 C120.547266,107.68843 115.001198,101.706294 95.9953738,106.348681 C95.5662225,106.447203 95.1338411,106.197982 95.0223794,105.787856 C94.9198219,105.375591 95.1792508,104.960223 95.6061761,104.853147 C115.812026,99.8991903 121.552693,106.410995 121.812158,106.722565 C122.012722,106.953863 122.056592,107.275479 121.924835,107.54861 C121.793077,107.821742 121.509282,107.997488 121.195928,108 L121.163495,107.968843 Z" fill="#3D4352"></path>
                <path d="M38.0114527,122.999996 C37.570356,123.001358 37.202524,122.675241 37.1672383,122.251521 C36.7401379,120.181097 37.1380085,118.031605 38.2816013,116.231184 C41.1181618,112.261016 48.7836287,112.000677 49.1213144,112.000677 C49.3452617,111.991872 49.5636505,112.069249 49.7283447,112.215754 C49.8930389,112.362259 49.9905184,112.565865 49.9992974,112.781694 C50.0084348,112.997509 49.9281419,113.207968 49.7761165,113.366681 C49.6240911,113.525395 49.4128132,113.619335 49.1888516,113.627795 C49.1888516,113.627795 42.0299134,113.855592 39.6323444,117.207455 C38.7973788,118.699672 38.5230101,120.424058 38.8556671,122.08881 C38.8743138,122.304735 38.8028121,122.518908 38.6570136,122.683848 C38.5112151,122.848787 38.3031659,122.950866 38.0789899,122.967453 L38.0114527,122.999996 Z" fill="#3D4352"></path>
                <path d="M94.1893255,111.99335 C93.7295494,111.979338 93.3165919,111.725638 93.1190789,111.335846 C92.9215659,110.946054 92.9725577,110.485414 93.2512325,110.142023 C93.2512325,110.142023 104.993569,96.6060879 120.488276,106.803564 C121.033169,107.163939 121.163513,107.870514 120.779409,108.381744 C120.395304,108.892974 119.642203,109.015266 119.097311,108.654891 C111.579353,103.343012 100.905338,104.696335 95.1597665,111.689854 C94.8986449,111.918494 94.5444396,112.029268 94.1893255,111.99335 Z" fill="#491CDE"></path>
                <path d="M39.2162347,120.999973 C38.7460559,120.985043 38.323755,120.714745 38.1217731,120.299451 C37.9197913,119.884157 37.9719368,119.39338 38.2569168,119.027523 C47.5854566,107.516176 62.239865,116.020345 62.4052646,116.085016 C62.9898898,116.433252 63.1750196,117.178816 62.8187636,117.75028 C62.4625076,118.321745 61.6997727,118.502707 61.1151474,118.154471 C60.5858685,117.831119 48.1478154,110.68503 40.2086326,120.514944 C39.9761047,120.822314 39.6073105,121.00256 39.2162347,120.999973 L39.2162347,120.999973 Z" fill="#491CDE"></path>
                <path d="M77.8410485,105 L77,101.811944 L78.552705,101.397497 C90.258672,98.5041819 102.145362,96.3741974 114.135527,95.0213849 C114.394311,95.0213849 120.605131,94.3518932 133.544339,100.504841 L135,101.206213 L133.576687,104.075464 L131.926938,103.469733 C120.119911,97.7949936 114.459007,98.273202 114.394311,98.273202 C102.598002,99.6384808 90.9058129,101.768467 79.3937535,104.649314 L77.8410485,105 Z" fill="#FFFFFF"></path>
                <path d="M30.7249252,118 L30.2392288,116.365687 C29.414386,113.446317 30.7778403,110.349506 33.4772047,109.011277 C41.9011964,106.644539 50.6477075,105.662279 59.381012,106.1022 L61,106.1022 L60.8057214,109.370826 L59.1867335,109.370826 C50.8957325,108.968155 42.5932162,109.872432 34.5781165,112.0511 C33.4691256,112.726376 32.9194141,114.047602 33.2181667,115.319726 L33.6714833,116.888667 L30.7249252,118 Z" fill="#FFFFFF"></path>
                <path d="M106.494297,121 C103.979407,120.962976 101.472325,120.721674 99,120.278689 L99.6501901,117 C102.333639,117.488365 105.064347,117.697229 107.794677,117.622951 L108,120.901639 L106.494297,121 Z" fill="url(#linearGradient-1)"></path>
                <path d="M47.7973422,131 L47,127.860987 C49.8549994,127.117012 52.5066287,125.800085 54.7740864,124 L57,126.32287 C54.3360077,128.50539 51.1930516,130.102756 47.7973422,131 L47.7973422,131 Z" fill="url(#linearGradient-2)"></path>
                <path d="M76.7948164,150.994101 C76.4601933,150.990712 76.1627266,150.774636 76.0483659,150.451888 C75.9340052,150.12914 76.0267477,149.767444 76.2810898,149.544264 C76.4737373,149.544264 80.9367364,145.557214 89.7343031,147.79787 C90.4406771,147.534264 93.266173,146.051477 93.3946046,139.823771 C93.3946046,139.368815 93.7539846,139 94.1973023,139 C94.64062,139 95,139.368815 95,139.823771 C95,148.19328 90.119598,149.37951 89.9269506,149.445412 L89.6379794,149.445412 C81.5788946,147.303608 77.5975141,150.631641 77.4048666,150.796396 C77.2390389,150.949903 77.0164748,151.022032 76.7948164,150.994101 Z" fill="#3D4352"></path>
                <path d="M65.9665523,152.962932 C65.820935,153.012356 65.6662166,153.012356 65.5205993,152.962932 C64.9596077,152.534253 64.3742785,152.15034 63.7686408,151.813837 L63.7686408,151.813837 C62.7297214,152.176539 61.6221813,152.176539 60.5832618,151.813837 C60.1932269,151.687742 59.9465446,151.241206 60.0098936,150.775944 C60.089147,150.074892 60.4749019,149.47169 61.0292149,149.182037 C62.7174658,148.36655 65.7435758,150.516471 66.6354819,151.183688 C66.9343289,151.408178 67.068998,151.836076 66.9654305,152.232068 C66.8618631,152.62806 66.5451777,152.896105 66.1895289,152.888797 L65.9665523,152.962932 Z" fill="#3D4352"></path>
                <path d="M59.2521273,151.838897 L58.9743615,151.838897 C58.4496926,151.645574 56.7213716,150.904501 56.3510171,149.712341 C55.8829943,147.396472 55.8829943,145.004128 56.3510171,142.688259 C56.3735167,142.475955 56.4791291,142.282823 56.6428083,142.154663 C56.8064876,142.026503 57.0136538,141.974732 57.2151776,142.011628 C57.6304533,142.077993 57.9185489,142.479019 57.863298,142.913803 C57.4475935,145.039919 57.4475935,147.231798 57.863298,149.357914 C58.3149283,149.872188 58.8904754,150.250511 59.5298932,150.453413 C59.8634374,150.601255 60.0534965,150.971493 59.9867174,151.343315 C59.9199384,151.715138 59.6143166,151.988347 59.2521273,152 L59.2521273,151.838897 Z" fill="#3D4352"></path>
                <path d="M63.0927835,135 L60,134.30674 C62.1649485,123.47868 62.9072165,115.324622 62.9381443,115.258597 C62.9381443,114.598349 61.7628866,113.938102 61.7319588,113.938102 L63.1237113,111 C64.6883923,111.834775 65.7651527,113.441371 66,115.291609 C65.3607316,121.911689 64.390274,128.490545 63.0927835,135 L63.0927835,135 Z" fill="url(#linearGradient-3)"></path>
                <path d="M78.438441,176.994892 C71.874874,177.136213 65.6358022,174.338269 61.657647,169.469458 C61.5389091,169.255798 61.5389091,169.001682 61.657647,168.788021 L58.7337208,168.580628 C58.5227341,168.565526 58.3269256,168.47259 58.1897051,168.322423 C58.0524846,168.172256 57.9851897,167.977266 58.0027393,167.78068 C58.0099791,167.580829 58.1071523,167.393057 58.2704416,167.263386 C58.4337309,167.133716 58.6480424,167.074134 58.860848,167.099243 C58.860848,167.099243 74.3703698,168.195468 78.5655683,168.076957 C78.5655683,168.076957 96.0137802,163.958708 111.110138,162.00328 C111.45876,161.973273 111.789827,162.151328 111.936465,162.447696 C112.073826,162.748482 111.983418,163.097647 111.713993,163.306899 C110.983011,163.840197 93.9479628,176.283827 80.5996039,176.876381 C79.8826326,176.958481 79.1607931,176.998064 78.438441,176.994892 Z M63.1831738,168.906532 C67.3995744,173.58624 73.8213223,176.025182 80.3453494,175.424624 C90.293055,174.980209 102.783305,167.425148 108.059085,163.92908 C93.8526173,166.003018 78.8198227,169.528714 78.6609137,169.558341 C75.6098602,169.647224 68.0457902,169.232437 63.0878283,168.906532 L63.1831738,168.906532 Z" fill="#491CDE"></path>
                <path d="M79.8017094,186.984273 C76.7670055,187.112921 73.7481909,186.450788 71,185.053745 L72.591453,182 L71.7794872,183.544423 L72.5589744,182 C72.5589744,182 78.4700855,185.510051 89.025641,182 L90,185.510051 C86.6878894,186.549735 83.2502209,187.04667 79.8017094,186.984273 L79.8017094,186.984273 Z" fill="url(#linearGradient-4)"></path>
                <path d="M120.413198,165.999692 L120.172633,165.999692 C119.730921,165.854673 119.48706,165.389903 119.622772,164.951722 C120.619396,161.774006 120.275732,160.218953 119.794604,159.475233 C119.566572,159.073404 119.181839,158.780407 118.729248,158.663901 C118.266832,158.594271 117.946033,158.173519 118.007556,157.717347 C118.078341,157.262477 118.506073,156.946913 118.969812,157.007432 C119.907875,157.182553 120.72959,157.73367 121.237989,158.528679 C122.254004,160.73062 122.254004,163.256863 121.237989,165.458804 C121.107175,165.792668 120.776806,166.00932 120.413198,165.999692 Z" fill="#3D4352"></path>
                <path d="M162.134365,141 L161.67727,137.828396 C176.565502,135.830286 179.895765,115.151431 179.928415,114.961135 C182.11594,101.957561 179.928415,96.0900941 177.904137,93.4893792 C177.081302,92.3214256 175.811504,91.5219419 174.377977,91.2692568 C166.411467,90.0006153 162.297613,104.209399 162.264963,104.367979 L159,103.543362 C159.195898,102.84561 163.897445,86.3849873 174.606525,88.1293693 C176.859939,88.3556373 178.904971,89.5106118 180.222261,91.3009728 C184.009619,95.8046498 184.956458,103.987387 183.03013,115.40516 C183.03013,116.420073 179.43867,138.684729 162.134365,141 Z" fill="url(#linearGradient-5)"></path>
                <path d="M167.489633,92 L167.099011,88.7484627 C165.145901,71.9380147 156.291802,26.5465537 138.941673,18.4502258 C138.453396,18.1901028 106.031768,1.28210872 53.4931055,8.4680062 C53.200139,8.4680062 45.3876985,9.73610576 35.3617332,10.2888671 C35.6577962,12.8140547 37.399949,14.9353221 39.8213346,15.7189344 C41.6191229,15.8805541 42.9453526,17.4673356 42.7835517,19.2631101 C42.6217507,21.0588846 41.0331898,22.3836288 39.2354016,22.2220091 C39.0726424,22.2220091 25.2381124,22.7747704 18.2394678,30.8710984 C21.4134181,30.3900922 24.6321058,31.3978046 26.9633597,33.6023897 C27.7875997,34.717301 27.8137366,36.2315426 27.0284633,37.374173 C26.507634,38.1870573 21.6899623,44.8852242 6.97653277,48.4944306 C8.00639634,54.0751816 10.8154008,59.1736308 14.9842843,63.0288025 C19.602225,66.6012676 25.4883858,68.1181961 31.2602019,67.2232856 L34.5153855,66.8981319 L35.1664222,73.4012065 L31.9112387,73.7263603 C24.3689441,74.8336384 16.7051429,72.7608412 10.7525457,68.0036546 C4.64665716,62.2959305 0.828445688,54.5640449 0.0104399991,46.2508699 C-0.120755075,44.6089791 0.997884987,43.1284413 2.61458683,42.8042403 C7.78535567,41.9280676 12.7507175,40.1094743 17.2629127,37.4392037 C15.7699234,37.5894909 14.2901702,37.8503313 12.8358631,38.2195727 C11.6763731,38.5230696 10.443717,38.1655121 9.62731966,37.288868 C8.81092227,36.4122238 8.54288928,35.1583476 8.92964289,34.0250896 C12.7056558,22.9698627 23.3826578,18.5802873 30.9346836,16.8244571 C29.195836,13.8709737 28.3060232,10.4957226 28.3630886,7.06984516 C28.3630886,5.27407068 29.8204839,3.81830783 31.6182721,3.81830783 C38.635462,3.5549833 45.6333774,2.91458806 52.5816541,1.89990081 C107.464049,-5.64366577 140.47161,11.6545128 141.90389,12.4999125 C165.927145,23.7177162 173.316411,85.2368024 173.609378,87.8380322 L174,91.0895695 L167.489633,92 Z" fill="#491CDE"></path>
                <path d="M153.938202,109 C152.680268,95.8913842 147.550187,83.4625213 139.209344,73.3157745 C135.569147,69.0511895 133.54801,63.626247 133.504731,58.0039977 C133.527187,53.8346635 130.405186,50.3275023 126.285334,49.8939464 C107.99077,48.278749 89.557187,50.0824695 71.9142519,55.21414 L71.9142519,55.21414 C71.9142519,55.21414 66.0807215,57.3876338 65.2749852,62.2536645 L64.7915435,65.2057232 L62.5999409,63.1619903 L62.5999409,63.1619903 C62.5999409,63.1619903 59.3769959,60.5667739 48.5156712,62.2536645 L48,59.009644 C52.9095667,57.8419155 58.0404571,58.0211586 62.8577765,59.5286873 C64.5545127,56.0484703 67.5224242,53.36337 71.1407451,52.0349999 C89.2132285,46.7826227 108.094041,44.9349846 126.833235,46.5850455 C132.541292,47.2957767 136.804051,52.2153316 136.727676,58.0039977 C136.719774,62.8590196 138.421169,67.5598304 141.529864,71.2720415 C150.371978,81.9255517 155.769578,95.0437318 157,108.870239 L153.938202,109 Z" fill="url(#linearGradient-4)"></path>
                <path d="M83.2614968,216.966685 C77.6787658,217.290851 72.2193416,215.237732 68.2317403,211.314464 L64.9855726,207.773704 C51.5788999,193.513215 26.6483318,166.973761 27.3949504,123.867452 C26.5638733,110.022387 24.6646188,96.2623151 21.7141569,82.7101845 L21,79.4617814 L27.3300271,78 L28.0766456,81.2484031 C31.1504702,95.2443614 33.1043606,109.463271 33.9197475,123.77 C33.2055906,164.440007 56.9675383,189.712583 69.6275924,203.290908 L72.8737601,206.896635 C75.818112,209.454436 79.6672489,210.718853 83.5536519,210.404911 C87.0595131,210.404911 90.5653742,210.145039 94.006312,209.820198 C99.0817488,209.711328 104.070236,208.479987 108.614067,206.214471 C129.58431,193.545699 143.218215,183.280745 144.743913,182.11132 C149.757079,177.176239 153.06628,170.769493 154.190261,163.82281 L158.507665,138.615202 L165,139.654691 L160.877367,164.732363 C159.549331,173.187561 155.517194,180.983834 149.385933,186.95144 L149.12624,187.178829 C149.12624,187.178829 134.745717,198.190915 112.249775,211.801724 C106.893899,214.620963 100.964431,216.176576 94.915239,216.349488 C91.3119928,216.674329 87.6438233,216.901717 84.0081154,216.966685 L83.2614968,216.966685 Z" fill="#FFFFFF"></path>
            </g>
        </g>
    </g>
</svg>