<svg id="Livello_1" data-name="Livello 1" xmlns="http://www.w3.org/2000/svg" xmlns:xlink="http://www.w3.org/1999/xlink" viewBox="0 0 90.88 90.88"><defs><style>.cls-1{fill:#3d4352;}.cls-2{fill:url(#Sfumatura_senza_nome_10);}.cls-3{fill:url(#Sfumatura_senza_nome);}.cls-4{fill:#491cde;}.cls-5{fill:#fff;}</style><linearGradient id="Sfumatura_senza_nome_10" x1="42.79" y1="-2309.18" x2="46.81" y2="-2309.18" gradientTransform="matrix(1, 0, 0, -1, 0, -2262.89)" gradientUnits="userSpaceOnUse"><stop offset="0" stop-color="#3d4352"/><stop offset="0.17" stop-color="#343a49"/><stop offset="0.67" stop-color="#1e2435"/><stop offset="1" stop-color="#161c2d"/></linearGradient><linearGradient id="Sfumatura_senza_nome" x1="30.26" y1="-2311.8" x2="32.81" y2="-2311.8" gradientTransform="matrix(1, 0, 0, -1, 0, -2262.89)" gradientUnits="userSpaceOnUse"><stop offset="0" stop-color="#161c2d"/><stop offset="0.33" stop-color="#1e2435"/><stop offset="0.83" stop-color="#343a49"/><stop offset="1" stop-color="#3d4352"/></linearGradient></defs><title>MicheleZ_2</title><path class="cls-1" d="M44.86,44.31H44.5a.25.25,0,0,1-.24-.26h0a.25.25,0,0,1,.26-.24h0s4.18.14,5.37-1.41a.25.25,0,0,1,.4.3h0C49.15,44.21,45.94,44.31,44.86,44.31Z"/><path class="cls-1" d="M28.79,47.55a1.77,1.77,0,0,1-1.14-.34.87.87,0,0,1-.34-.71.25.25,0,0,1,.27-.23h0a.25.25,0,0,1,.23.26.39.39,0,0,0,.17.3c.21.17.81.38,2.42-.07a.26.26,0,0,1,.31.17.25.25,0,0,1-.17.31A6.7,6.7,0,0,1,28.79,47.55Z"/><path class="cls-1" d="M51.26,42.42a.25.25,0,0,1-.18-.07C48.72,40,43.67,42,43.62,42a.25.25,0,0,1-.19-.46c.22-.09,5.41-2.13,8,.44a.25.25,0,0,1-.18.43Z"/><path class="cls-1" d="M26.85,46.42h0a.25.25,0,0,1-.2-.29c0-.09.42-2.21,4.56-1.82a.25.25,0,1,1,0,.5c-3.65-.35-4,1.33-4,1.4a.25.25,0,0,1-.26.24Z"/><path class="cls-2" d="M45.29,46.93a9.46,9.46,0,0,1-2.51-.28l.29-1a10.32,10.32,0,0,0,3.63.16l.1,1A14.36,14.36,0,0,1,45.29,46.93Z"/><path class="cls-3" d="M30.66,50l-.4-.92A5,5,0,0,0,32,47.79l.79.62A6,6,0,0,1,30.66,50Z"/><path class="cls-1" d="M41.66,72.66h0a.25.25,0,0,1-.22-.27,2.45,2.45,0,0,0-.38-1.18.25.25,0,0,1,.43-.25,3,3,0,0,1,.42,1.53A.25.25,0,0,1,41.66,72.66Z"/><path class="cls-4" d="M44.64,76.83a16.23,16.23,0,0,1-1.79-.1,10,10,0,0,0-1.81,0c-.7.13-4.43.49-8.11-5.1a68.57,68.57,0,0,1-7.29-14.87,28.38,28.38,0,0,1-1-9.8c-.4-1.69-3.1-13.62,0-20A21.45,21.45,0,0,1,44.8,14a24,24,0,0,1,17.74,8.35,14.1,14.1,0,0,1,2.11,7l.25,4.85-2,.1-.25-4.84A12.74,12.74,0,0,0,61,23.61,22.27,22.27,0,0,0,44.83,16,19.4,19.4,0,0,0,26.47,27.69v.09c-3,6.1.16,18.77.2,18.9a1,1,0,0,1,0,.37,26.59,26.59,0,0,0,.9,9.13,67.53,67.53,0,0,0,7,14.36c3.17,4.83,6,4.26,6.06,4.26h.17a11.85,11.85,0,0,1,2.24,0c3,.34,4.23-.36,4.25-.36,12.18-6.94,14.2-23.84,14.22-24l.11-1,2,.22-.11,1c-.06.66-2.14,18-15.14,25.43A7.17,7.17,0,0,1,44.64,76.83Z"/><path class="cls-5" d="M25.92,57.7l-.28-1a28.35,28.35,0,0,1-1-9.76c-.41-1.69-3.11-13.67,0-20.07l.44-.9,1.8.87-.44.9c-3,6.1.16,18.77.2,18.9a1,1,0,0,1,0,.37,26.59,26.59,0,0,0,.9,9.13l.28,1Z"/><path class="cls-4" d="M42.18,44.73a.5.5,0,0,1-.4-.8A10.1,10.1,0,0,1,43,42.65a5.37,5.37,0,0,1,2.9-1.29c2.51-.35,4.23.09,5.27,1.32a.5.5,0,0,1-.77.64h0c-.8-1-2.23-1.27-4.37-1a4.37,4.37,0,0,0-2.36,1,9.08,9.08,0,0,0-1.07,1.13A.5.5,0,0,1,42.18,44.73Z"/><path class="cls-4" d="M27.15,47.72a.5.5,0,0,1-.46-.7A3.08,3.08,0,0,1,28,45.4c2.79-1.72,5.91-.06,6,0a.5.5,0,0,1-.48.88h0s-2.75-1.45-5.09,0a2.39,2.39,0,0,0-.84,1.15A.5.5,0,0,1,27.15,47.72Z"/></svg>