<svg id="Livello_1" data-name="Livello 1" xmlns="http://www.w3.org/2000/svg" xmlns:xlink="http://www.w3.org/1999/xlink" viewBox="0 0 90.88 90.88"><defs><style>.cls-1{fill:#fff;}.cls-2{fill:url(#Sfumatura_senza_nome);}.cls-3{fill:url(#Sfumatura_senza_nome-2);}.cls-4{fill:#491cde;}.cls-5{fill:#3d4352;}</style><linearGradient id="Sfumatura_senza_nome" x1="34.85" y1="-2318.04" x2="34.85" y2="-2307.4" gradientTransform="matrix(1, 0, 0, -1, 0, -2262.89)" gradientUnits="userSpaceOnUse"><stop offset="0" stop-color="#161c2d"/><stop offset="0.33" stop-color="#1e2435"/><stop offset="0.83" stop-color="#343a49"/><stop offset="1" stop-color="#3d4352"/></linearGradient><linearGradient id="Sfumatura_senza_nome-2" x1="35.44" y1="-2327.83" x2="44.71" y2="-2327.83" xlink:href="#Sfumatura_senza_nome"/></defs><title>MicheleZ_3</title><path class="cls-1" d="M40.37,40.81,40,39.63l.59-.21c1.54-.54,9.34-3.15,11.58-1.5l.5.37-.74,1-.5-.37c-1.26-.93-6.85.42-10.42,1.67Z"/><path class="cls-1" d="M25.62,44.16H24.37v-.62a1.43,1.43,0,0,1,.51-1.05c1.41-1.25,5.81-.89,6.68-.81l.62.06L32.06,43l-.62-.06c-1.93-.19-5-.16-5.73.5-.09.08-.09.12-.09.14Z"/><rect class="cls-2" x="34.35" y="44.51" width="1" height="10.64"/><path class="cls-3" d="M38.87,66a18.11,18.11,0,0,1-3.43-.31l.21-1a16.61,16.61,0,0,0,8.67-.71l.39.92A15,15,0,0,1,38.87,66Z"/><path class="cls-4" d="M37.14,62.63A13.44,13.44,0,0,1,32.6,62a.25.25,0,0,1,.18-.47h0c.06,0,6.15,2.28,15.58-2.17a.25.25,0,0,1,.26.43l-.05,0A26.8,26.8,0,0,1,37.14,62.63Z"/><path class="cls-5" d="M34.29,56.41h-.12c-1-.56-.85-1.24-.85-1.27a6.08,6.08,0,0,1,.61-1.7.25.25,0,0,1,.47.18l0,.05a5.73,5.73,0,0,0-.56,1.54s0,.38.6.75a.25.25,0,0,1-.12.47Z"/><path class="cls-5" d="M37.08,57.92h-.36a2.53,2.53,0,0,1-2.11-1.35.25.25,0,1,1,.46-.18,2.07,2.07,0,0,0,1.72,1,2.12,2.12,0,0,0,1.37-.28,14.49,14.49,0,0,1,2.49-1.28c1.11-.49,2.37-1,2.37-1a1.34,1.34,0,0,0,.66-1,6.57,6.57,0,0,0-.57-1.67.25.25,0,1,1,.44-.22,6.91,6.91,0,0,1,.62,1.86,1.85,1.85,0,0,1-.93,1.52l-2.39,1a14.51,14.51,0,0,0-2.4,1.23A2.4,2.4,0,0,1,37.08,57.92Z"/></svg>