<svg id="Livello_1" data-name="Livello 1" xmlns="http://www.w3.org/2000/svg" xmlns:xlink="http://www.w3.org/1999/xlink" viewBox="0 0 90.88 90.88"><defs><style>.cls-1{fill:url(#Sfumatura_senza_nome);}.cls-2{fill:url(#Sfumatura_senza_nome-2);}</style><linearGradient id="Sfumatura_senza_nome" x1="66.08" y1="-1749" x2="73.74" y2="-1749" gradientTransform="matrix(1, 0, 0, -1, 0, -1701.43)" gradientUnits="userSpaceOnUse"><stop offset="0" stop-color="#161c2d"/><stop offset="0.33" stop-color="#1e2435"/><stop offset="0.83" stop-color="#343a49"/><stop offset="1" stop-color="#3d4352"/></linearGradient><linearGradient id="Sfumatura_senza_nome-2" x1="31.95" y1="-1737.31" x2="65.82" y2="-1737.31" xlink:href="#Sfumatura_senza_nome"/></defs><title>MicheleN_1</title><path class="cls-1" d="M67,55.93l-.14-1c4.56-.63,5.58-7.15,5.59-7.21.67-4.1,0-5.95-.62-6.77a1.67,1.67,0,0,0-1.08-.7c-2.44-.4-3.7,4.08-3.71,4.13l-1-.26c.06-.22,1.5-5.41,4.78-4.86a2.42,2.42,0,0,1,1.72,1c1.16,1.42,1.45,4,.86,7.6C73.4,48.18,72.3,55.2,67,55.93Z"/><path class="cls-2" d="M64.82,45.59a20.32,20.32,0,0,0-4.57-11,7.33,7.33,0,0,1-1.77-4.72,2.5,2.5,0,0,0-2.24-2.5A46.22,46.22,0,0,0,39.37,29h0s-1.81.67-2.06,2.17l-.15.91-.68-.63h0s-1-.8-4.37-.28l-.16-1a8.75,8.75,0,0,1,4.61.16A4.63,4.63,0,0,1,39.13,28a47.4,47.4,0,0,1,17.28-1.68,3.5,3.5,0,0,1,3.07,3.52A6.33,6.33,0,0,0,61,34a21,21,0,0,1,4.8,11.59Z"/></svg>