<svg id="Livello_1" data-name="Livello 1" xmlns="http://www.w3.org/2000/svg" xmlns:xlink="http://www.w3.org/1999/xlink" viewBox="0 0 90.88 90.88"><defs><style>.cls-1{fill:#3d4352;}.cls-2{fill:#491cde;}.cls-3{fill:url(#Sfumatura_senza_nome_10);}.cls-4{fill:url(#Sfumatura_senza_nome);}.cls-5{fill:#fff;}</style><linearGradient id="Sfumatura_senza_nome_10" x1="47.39" y1="-1749.91" x2="50.02" y2="-1749.91" gradientTransform="matrix(1, 0, 0, -1, 0, -1701.43)" gradientUnits="userSpaceOnUse"><stop offset="0" stop-color="#3d4352"/><stop offset="0.17" stop-color="#343a49"/><stop offset="0.67" stop-color="#1e2435"/><stop offset="1" stop-color="#161c2d"/></linearGradient><linearGradient id="Sfumatura_senza_nome" x1="31.78" y1="-1752.65" x2="34.79" y2="-1752.65" gradientTransform="matrix(1, 0, 0, -1, 0, -1701.43)" gradientUnits="userSpaceOnUse"><stop offset="0" stop-color="#161c2d"/><stop offset="0.33" stop-color="#1e2435"/><stop offset="0.83" stop-color="#343a49"/><stop offset="1" stop-color="#3d4352"/></linearGradient></defs><title>MicheleN_2</title><path class="cls-1" d="M49.32,46.28a14.73,14.73,0,0,1-1.69-.07.25.25,0,0,1-.23-.27h0a.24.24,0,0,1,.25-.23h0c4.57.36,5.17-.78,5.18-.79a.25.25,0,0,1,.33-.13h0a.24.24,0,0,1,.14.31h0C53.26,45.23,52.76,46.28,49.32,46.28Z"/><path class="cls-1" d="M31,49.27a2.85,2.85,0,0,1-1.88-.47.25.25,0,0,1,.34-.37s1.12.88,4.53-.21a.25.25,0,0,1,.15.48A10.48,10.48,0,0,1,31,49.27Z"/><path class="cls-1" d="M54.48,45.27a.25.25,0,0,1-.19-.09s-1.71-1.92-7.57-.43a.25.25,0,1,1-.12-.48c6.23-1.59,8,.5,8.08.6a.25.25,0,0,1-.19.41Z"/><path class="cls-1" d="M28.63,49.79a.25.25,0,0,1-.25-.23,2.58,2.58,0,0,1,.33-1.85c.84-1.22,3.11-1.3,3.21-1.3a.25.25,0,0,1,.26.24h0a.25.25,0,0,1-.24.26h0S29.82,47,29.11,48a2.26,2.26,0,0,0-.23,1.5.25.25,0,0,1-.23.27h0Z"/><path class="cls-2" d="M45.67,46.74a.38.38,0,0,1-.29-.61S49,41.67,53.8,45a.37.37,0,1,1-.43.61,5.31,5.31,0,0,0-7.4,1A.38.38,0,0,1,45.67,46.74Z"/><path class="cls-2" d="M29.05,49.21a.38.38,0,0,1-.29-.61c2.82-3.56,7.25-.93,7.3-.91a.37.37,0,1,1-.39.64h0c-.16-.1-3.92-2.31-6.32.73A.37.37,0,0,1,29.05,49.21Z"/><path class="cls-3" d="M49.58,49.09a13,13,0,0,1-2.19-.22l.19-1a11.07,11.07,0,0,0,2.38.19l.06,1Z"/><path class="cls-4" d="M32,52.33l-.24-1a6.2,6.2,0,0,0,2.34-1.23l.67.74A7.18,7.18,0,0,1,32,52.33Z"/><path class="cls-1" d="M41.11,72.66a.25.25,0,0,1-.19-.4c.07-.09.78-.84,3.43-.34a.25.25,0,0,1-.09.49c-2.34-.45-2.95.16-3,.17A.26.26,0,0,1,41.11,72.66Z"/><path class="cls-2" d="M68.63,40.39l-.12-1c-.6-5.17-3.32-19.13-8.65-21.62-.15-.08-10.11-5.28-26.25-3.07-.09,0-2.49.39-5.57.56a2,2,0,0,0,1.37,1.67,1,1,0,1,1-.18,2s-4.3.17-6.45,2.66a3.2,3.2,0,0,1,2.68.84,1,1,0,0,1,0,1.16c-.16.25-1.64,2.31-6.16,3.42a8.09,8.09,0,0,0,2.46,4.47,6.53,6.53,0,0,0,5,1.29l1-.1.2,2-1,.1A8.44,8.44,0,0,1,20.48,33a10.58,10.58,0,0,1-3.3-6.69,1,1,0,0,1,.8-1.06,13.14,13.14,0,0,0,4.5-1.65,9.31,9.31,0,0,0-1.36.24,1,1,0,0,1-1.2-1.29c1.16-3.4,4.44-4.75,6.76-5.29a5.73,5.73,0,0,1-.79-3,1,1,0,0,1,1-1,60.12,60.12,0,0,0,6.44-.59c16.86-2.32,27,3,27.44,3.26,7.38,3.45,9.65,22.37,9.74,23.17l.12,1Z"/><path class="cls-5" d="M43.11,78.78A6.1,6.1,0,0,1,38.48,77l-1-1.09C33.35,71.56,25.67,63.39,25.9,50.12a82.86,82.86,0,0,0-1.75-12.67l-.22-1,2-.45.23,1a83,83,0,0,1,1.8,13.09c-.22,12.52,7.1,20.3,11,24.48l1,1.11a4.47,4.47,0,0,0,3.29,1.08c1.08,0,2.16-.08,3.22-.18a10.6,10.6,0,0,0,4.5-1.11c6.46-3.9,10.66-7.06,11.13-7.42A10.18,10.18,0,0,0,65,62.42l1.33-7.76,2,.32L67,62.7a12.18,12.18,0,0,1-3.54,6.84l-.08.07S59,73,52,77.19a12.22,12.22,0,0,1-5.34,1.4c-1.11.1-2.24.17-3.36.19Z"/></svg>