<svg id="Livello_1" data-name="Livello 1" xmlns="http://www.w3.org/2000/svg" xmlns:xlink="http://www.w3.org/1999/xlink" viewBox="0 0 90.88 90.88"><defs><style>.cls-1,.cls-10,.cls-11,.cls-12,.cls-2,.cls-3,.cls-4,.cls-5,.cls-6,.cls-7,.cls-8,.cls-9{fill:none;}.cls-1,.cls-2{stroke:#3d4352;}.cls-1,.cls-12,.cls-2{stroke-linecap:round;}.cls-1,.cls-12,.cls-2,.cls-6{stroke-linejoin:round;}.cls-1{stroke-width:0.5px;}.cls-12,.cls-2{stroke-width:0.75px;}.cls-10,.cls-11,.cls-3,.cls-4,.cls-5,.cls-7,.cls-8,.cls-9{stroke-miterlimit:10;}.cls-3{stroke:url(#Sfumatura_senza_nome_45);}.cls-4{stroke:url(#Sfumatura_senza_nome_45-2);}.cls-5{stroke:url(#Sfumatura_senza_nome_45-3);}.cls-6{stroke:#fff;stroke-linecap:square;}.cls-7{stroke:url(#Sfumatura_senza_nome_30);}.cls-8{stroke:url(#Sfumatura_senza_nome_59);}.cls-9{stroke:url(#Sfumatura_senza_nome_45-4);}.cls-10{stroke:url(#Sfumatura_senza_nome_45-5);}.cls-11{stroke:url(#Sfumatura_senza_nome_30-2);}.cls-12{stroke:#491cde;}</style><linearGradient id="Sfumatura_senza_nome_45" x1="47.92" y1="58.8" x2="50.41" y2="58.8" gradientUnits="userSpaceOnUse"><stop offset="0" stop-color="#161c2d"/><stop offset="0.33" stop-color="#1e2435"/><stop offset="0.83" stop-color="#343a49"/><stop offset="1" stop-color="#3d4352"/></linearGradient><linearGradient id="Sfumatura_senza_nome_45-2" x1="56.96" y1="55.29" x2="56.96" y2="46.29" xlink:href="#Sfumatura_senza_nome_45"/><linearGradient id="Sfumatura_senza_nome_45-3" x1="50.9" y1="53.72" x2="54.19" y2="53.72" xlink:href="#Sfumatura_senza_nome_45"/><linearGradient id="Sfumatura_senza_nome_30" x1="51.96" y1="73.04" x2="51.96" y2="69.54" gradientUnits="userSpaceOnUse"><stop offset="0" stop-color="#3d4352"/><stop offset="0.17" stop-color="#343a49"/><stop offset="0.67" stop-color="#1e2435"/><stop offset="1" stop-color="#161c2d"/></linearGradient><linearGradient id="Sfumatura_senza_nome_59" x1="32.86" y1="29.15" x2="54.07" y2="29.15" gradientUnits="userSpaceOnUse"><stop offset="0" stop-color="#161c2d"/><stop offset="0.26" stop-color="#1e2435"/><stop offset="0.67" stop-color="#343a49"/><stop offset="0.81" stop-color="#3d4352"/></linearGradient><linearGradient id="Sfumatura_senza_nome_45-4" x1="49.71" y1="26.56" x2="59.03" y2="26.56" xlink:href="#Sfumatura_senza_nome_45"/><linearGradient id="Sfumatura_senza_nome_45-5" x1="59.62" y1="27.74" x2="63.82" y2="27.74" xlink:href="#Sfumatura_senza_nome_45"/><linearGradient id="Sfumatura_senza_nome_30-2" x1="34.28" y1="32.69" x2="41.48" y2="32.69" xlink:href="#Sfumatura_senza_nome_30"/></defs><title>Pasquale_3</title><path class="cls-1" d="M53.32,59.47a3.15,3.15,0,0,0-2.44-.56"/><path class="cls-2" d="M54,60.78s1.06.22,2.94-1.31"/><path class="cls-3" d="M50.26,59.65a3.38,3.38,0,0,1-1.87-2"/><path class="cls-4" d="M57.13,55.25s-.47-5.22-.66-6.69a2.63,2.63,0,0,1,1.16-1.87"/><path class="cls-5" d="M51.29,56s1.16-1.47,2-2.44a14.56,14.56,0,0,0,.38-2.47"/><path class="cls-1" d="M41.32,62.55l-.62.79a3,3,0,0,0,.31,2"/><path class="cls-1" d="M61.78,62.88s.88,1.58-.25,2.46"/><path class="cls-6" d="M58.24,46.3a16.51,16.51,0,0,1,5.54-.87,6.13,6.13,0,0,1,1.58,1.46"/><path class="cls-6" d="M49.85,45.09a19.46,19.46,0,0,0-4.72-2,13.21,13.21,0,0,0-5.28,2.29"/><path class="cls-7" d="M49.26,70a7,7,0,0,0,1.44,2.51,19.72,19.72,0,0,0,2.19,0A6.47,6.47,0,0,0,54.67,70"/><path class="cls-1" d="M44.94,65.16s7.15,4.25,13.29,0"/><path class="cls-1" d="M47.51,68.89a9.8,9.8,0,0,0,8.42.28"/><path class="cls-8" d="M33.19,30.5c10.81-9.59,20.5,1.38,20.5,1.38"/><path class="cls-9" d="M58.53,31.89s.1-7.67-8.68-10.17"/><path class="cls-10" d="M62.1,31.89S66,27,59.85,23.72"/><path class="cls-11" d="M41.44,29.8s-6.17-.5-6.67,6.25"/><path class="cls-12" d="M43.69,65.34s3.66-1.84,9.13,0A25.2,25.2,0,0,1,59.21,65"/></svg>