<svg id="Livello_1" data-name="Livello 1" xmlns="http://www.w3.org/2000/svg" xmlns:xlink="http://www.w3.org/1999/xlink" viewBox="0 0 90.88 90.88"><defs><style>.cls-1,.cls-2,.cls-3,.cls-4,.cls-5,.cls-6,.cls-7,.cls-8,.cls-9{fill:none;}.cls-1{stroke:#3d4352;stroke-width:0.5px;}.cls-1,.cls-9{stroke-linecap:round;}.cls-1,.cls-4,.cls-8,.cls-9{stroke-linejoin:round;}.cls-2,.cls-3,.cls-5,.cls-6,.cls-7{stroke-miterlimit:10;}.cls-2{stroke:url(#Sfumatura_senza_nome_45);}.cls-3{stroke:url(#Sfumatura_senza_nome_45-2);}.cls-4,.cls-9{stroke:#491cde;}.cls-4,.cls-8{stroke-linecap:square;stroke-width:2px;}.cls-5{stroke:url(#Sfumatura_senza_nome_68);}.cls-6{stroke:url(#Sfumatura_senza_nome_30);}.cls-7{stroke:url(#Sfumatura_senza_nome_45-3);}.cls-8{stroke:#fff;}.cls-9{stroke-width:0.75px;}</style><linearGradient id="Sfumatura_senza_nome_45" x1="40.34" y1="47.02" x2="49.39" y2="47.02" gradientUnits="userSpaceOnUse"><stop offset="0" stop-color="#161c2d"/><stop offset="0.33" stop-color="#1e2435"/><stop offset="0.83" stop-color="#343a49"/><stop offset="1" stop-color="#3d4352"/></linearGradient><linearGradient id="Sfumatura_senza_nome_45-2" x1="57.74" y1="48.07" x2="64.64" y2="48.07" xlink:href="#Sfumatura_senza_nome_45"/><linearGradient id="Sfumatura_senza_nome_68" x1="66.11" y1="42.24" x2="66.11" y2="31.59" xlink:href="#Sfumatura_senza_nome_45"/><linearGradient id="Sfumatura_senza_nome_30" x1="24.75" y1="39.39" x2="35.53" y2="39.39" gradientUnits="userSpaceOnUse"><stop offset="0" stop-color="#3d4352"/><stop offset="0.17" stop-color="#343a49"/><stop offset="0.67" stop-color="#1e2435"/><stop offset="1" stop-color="#161c2d"/></linearGradient><linearGradient id="Sfumatura_senza_nome_45-3" x1="29.91" y1="51.27" x2="29.91" y2="43.03" xlink:href="#Sfumatura_senza_nome_45"/></defs><title>Pasquale_2</title><path class="cls-1" d="M63.57,50.26a4.87,4.87,0,0,1-2,.71"/><path class="cls-1" d="M41.81,48.16a3.25,3.25,0,0,0,1.39,1.1"/><path class="cls-2" d="M40.69,48.16a8.81,8.81,0,0,1,7.21-2l1.17,1"/><path class="cls-3" d="M58,47.8l1.25-.7s4.38,0,4.92,2.33"/><path class="cls-1" d="M58.53,52.51a5.64,5.64,0,0,0,2.65,1.07"/><path class="cls-1" d="M49.07,51.3a4.29,4.29,0,0,1-2.21,1.21"/><path class="cls-4" d="M67.26,47.22S71,39.47,68.53,32.3c0,0,4.64-9.84-7.22-16C56.77,13.88,50.88,10.84,41,12.59,26.08,15.22,17.69,26.72,20,40"/><path class="cls-5" d="M65,31.89a12.9,12.9,0,0,1,1.67,10.23"/><path class="cls-6" d="M35,37c0,.36-2.21,5.06-10.24,4.33"/><path class="cls-7" d="M30.94,43.37a9.26,9.26,0,0,0-1.75,7.8"/><path class="cls-8" d="M67.26,48.16C66.19,62,63.19,68.22,63.19,68.22c-4.94,7.94-8,9.88-8,9.88a20.56,20.56,0,0,1-7.29.63s-13.77-3.87-16-10.5a94.69,94.69,0,0,1-2.69-11.75"/><path class="cls-9" d="M58.78,48.47s2.38-1.42,4.79,1.13"/><path class="cls-9" d="M47.9,47.76l-1.42-1.07s-3.5-.09-5,1.82"/></svg>