<svg id="Livello_1" data-name="Livello 1" xmlns="http://www.w3.org/2000/svg" xmlns:xlink="http://www.w3.org/1999/xlink" viewBox="0 0 90.88 90.88"><defs><style>.cls-1,.cls-2,.cls-3,.cls-4,.cls-5,.cls-6,.cls-7,.cls-8,.cls-9{fill:none;}.cls-1,.cls-2{stroke:#3d4352;}.cls-1,.cls-2,.cls-7{stroke-linecap:round;}.cls-1,.cls-2,.cls-7,.cls-9{stroke-linejoin:round;}.cls-1{stroke-width:0.75px;}.cls-2{stroke-width:0.5px;}.cls-3,.cls-4,.cls-5,.cls-6,.cls-8{stroke-miterlimit:10;}.cls-3{stroke:url(#Sfumatura_senza_nome_68);}.cls-4{stroke:url(#Sfumatura_senza_nome_16);}.cls-5{stroke:url(#Sfumatura_senza_nome_16-2);}.cls-6{stroke:url(#Sfumatura_senza_nome_45);}.cls-7{stroke:#491cde;}.cls-8{stroke:url(#Sfumatura_senza_nome_19);}.cls-9{stroke:#fff;stroke-width:1.5px;}</style><linearGradient id="Sfumatura_senza_nome_68" x1="29.73" y1="57.67" x2="50.76" y2="57.67" gradientUnits="userSpaceOnUse"><stop offset="0" stop-color="#161c2d"/><stop offset="0.33" stop-color="#1e2435"/><stop offset="0.83" stop-color="#343a49"/><stop offset="1" stop-color="#3d4352"/></linearGradient><linearGradient id="Sfumatura_senza_nome_16" x1="28.25" y1="57.53" x2="34.38" y2="57.53" gradientUnits="userSpaceOnUse"><stop offset="0" stop-color="#3d4352"/><stop offset="0.17" stop-color="#343a49"/><stop offset="0.67" stop-color="#1e2435"/><stop offset="1" stop-color="#161c2d"/></linearGradient><linearGradient id="Sfumatura_senza_nome_16-2" x1="34.4" y1="54.8" x2="39.34" y2="54.8" xlink:href="#Sfumatura_senza_nome_16"/><linearGradient id="Sfumatura_senza_nome_45" x1="32.41" y1="45.05" x2="36.35" y2="45.05" xlink:href="#Sfumatura_senza_nome_68"/><linearGradient id="Sfumatura_senza_nome_19" x1="26.06" y1="59.88" x2="60.35" y2="59.88" xlink:href="#Sfumatura_senza_nome_68"/></defs><title>Sergio_3</title><path class="cls-1" d="M37.24,54.27S35.44,54.36,34,52"/><path class="cls-2" d="M38.25,53.15a2.08,2.08,0,0,1,3.16-.43l.21.16a1.38,1.38,0,0,0,2.06-.36,2,2,0,0,0,.18-1.22"/><path class="cls-2" d="M33.37,53.15a1.91,1.91,0,0,1-.79-2.29"/><path class="cls-3" d="M30.23,61.23s0-2.71,6.34-2.68a20.94,20.94,0,0,0,2.58,0s7.51.23,10,2.8c0,0,1,.68,1.08-1,0,0,0,0,0-.13a5.49,5.49,0,0,0-4.37-5,46.94,46.94,0,0,1-5.12-1.45"/><path class="cls-4" d="M34,54a5.8,5.8,0,0,1-2.92,1.66,3.14,3.14,0,0,0-2.26,2.39A3.57,3.57,0,0,0,29.62,61"/><path class="cls-5" d="M34.75,54.16S37,56.42,39,54.57"/><path class="cls-6" d="M32.9,49.73a5.38,5.38,0,0,1,1.27-2.62l1.69-6.69"/><path class="cls-7" d="M31.94,59.55s0,.58.9.84c0,0,7.62,2.44,14.1-.1l.64.71"/><path class="cls-8" d="M26.51,61c4.46,10,7.78,8.5,7.78,8.5a1.88,1.88,0,0,0,1.46-2.43.12.12,0,0,0-.06-.07h0a1.34,1.34,0,0,1,.39-2.45l.69-.16,1.8.1s3,.11,3.22,1.08a1.51,1.51,0,0,1-.16,1.73,1.77,1.77,0,0,0,1,2.5,3.26,3.26,0,0,0,2.56-.2A11.16,11.16,0,0,0,49.06,66a46.34,46.34,0,0,1,4.42-5.25c2.44-2.45,4.15-4.86,6.39-11.32"/><path class="cls-2" d="M33.15,61.8s3.88,4.31,11.41.39"/><path class="cls-9" d="M41.79,35a33.08,33.08,0,0,1,9.08-.87,12.16,12.16,0,0,1,6.29,5.58"/><path class="cls-9" d="M34,35.79a23.28,23.28,0,0,0-5.86-.49,2.74,2.74,0,0,0-2.41,1.87l-.53,1.6"/></svg>