<svg id="Livello_1" data-name="Livello 1" xmlns="http://www.w3.org/2000/svg" xmlns:xlink="http://www.w3.org/1999/xlink" viewBox="0 0 90.88 90.88"><defs><style>.cls-1,.cls-2,.cls-3,.cls-4,.cls-5,.cls-6,.cls-7,.cls-8{fill:none;}.cls-1{stroke:#3d4352;stroke-width:0.5px;}.cls-1,.cls-8{stroke-linecap:round;}.cls-1,.cls-6,.cls-7,.cls-8{stroke-linejoin:round;}.cls-2,.cls-3,.cls-4,.cls-5{stroke-miterlimit:10;}.cls-2{stroke:url(#Sfumatura_senza_nome_45);}.cls-3{stroke:url(#Sfumatura_senza_nome_45-2);}.cls-4{stroke:url(#Sfumatura_senza_nome_45-3);}.cls-5{stroke:url(#Sfumatura_senza_nome_45-4);}.cls-6,.cls-8{stroke:#491cde;}.cls-6,.cls-7{stroke-linecap:square;stroke-width:2px;}.cls-7{stroke:#fff;}.cls-8{stroke-width:0.75px;}</style><linearGradient id="Sfumatura_senza_nome_45" x1="27.4" y1="38.33" x2="33.41" y2="38.33" gradientUnits="userSpaceOnUse"><stop offset="0" stop-color="#161c2d"/><stop offset="0.33" stop-color="#1e2435"/><stop offset="0.83" stop-color="#343a49"/><stop offset="1" stop-color="#3d4352"/></linearGradient><linearGradient id="Sfumatura_senza_nome_45-2" x1="46.82" y1="38.03" x2="53.23" y2="38.03" xlink:href="#Sfumatura_senza_nome_45"/><linearGradient id="Sfumatura_senza_nome_45-3" x1="31.09" y1="44.19" x2="34.01" y2="44.19" xlink:href="#Sfumatura_senza_nome_45"/><linearGradient id="Sfumatura_senza_nome_45-4" x1="43.79" y1="43.28" x2="47.65" y2="43.28" xlink:href="#Sfumatura_senza_nome_45"/></defs><title>Sergio_2</title><path class="cls-1" d="M47.05,42.23s3.59.69,4.89-1.49"/><path class="cls-2" d="M33.15,38.76s-3.22-2-5.39.15"/><path class="cls-3" d="M46.94,37.21a6.39,6.39,0,0,1,5.92,1.93"/><path class="cls-4" d="M33.68,43.52a6.37,6.37,0,0,1-2.45,1.22"/><path class="cls-5" d="M44.11,42.57a7.19,7.19,0,0,0,3.48,1.31"/><path class="cls-1" d="M28,41.11a2,2,0,0,0,1.44,1.81"/><path class="cls-1" d="M49.9,43.88a4.16,4.16,0,0,0,2.28-.65"/><path class="cls-6" d="M63.36,47.11S60.91,72.69,45.84,76.42c0,0-8.65,2.9-14.11-2.77,0,0-10.21-11.4-7.65-24.6"/><path class="cls-7" d="M24.15,48.48s.45-8.41.22-11.39c0,0-1.86-10.06,5.2-17.65a19.32,19.32,0,0,1,15-5.67s15.65-.32,19.51,16.68a33.42,33.42,0,0,1,.32,11.09"/><path class="cls-1" d="M44.11,41.32s-1-1,.45-1.57"/><path class="cls-8" d="M32.62,40s-4.35-.58-5.38,2.19"/><path class="cls-8" d="M46.36,39.3a6.79,6.79,0,0,1,6.73,2.23"/></svg>